<svg xmlns="http://www.w3.org/2000/svg" width="506.906" height="437.904" viewBox="0 0 506.906 437.904">
  <g id="Group_6" data-name="Group 6" transform="translate(-569 -642)">
    <g id="Group_2" data-name="Group 2">
      <g id="Group_1" data-name="Group 1" transform="translate(569 642)">
        <rect id="Rectangle_38" data-name="Rectangle 38" width="506.906" height="437.904" fill="#6e6e6e"/>
        <path id="Path_32" data-name="Path 32" d="M588.456,153.685v-12.03H572.869V120h-6.777v21.655H103.914V120H97.137v21.655H81.551v12.03H97.137V524.219H81.551v12.03H97.137V557.9h6.777V536.249H566.092V557.9h6.777V536.249h15.587v-12.03H572.869V153.685ZM566.093,524.219H103.914V153.685H566.092Z" transform="translate(-81.551 -120)" opacity="0.1"/>
      </g>
    </g>
    <g id="Group_4" data-name="Group 4" transform="translate(-159 724)">
      <rect id="Rectangle_39" data-name="Rectangle 39" width="141.887" height="134.967" transform="translate(839.739 171.745)" fill="#d0cde1"/>
      <rect id="Rectangle_40" data-name="Rectangle 40" width="109.64" height="83.842" transform="translate(855.862 187.869)" fill="#ff6363"/>
      <rect id="Rectangle_41" data-name="Rectangle 41" width="38.437" height="38.437" transform="translate(879.988 201.648)" fill="#f2f2f2"/>
      <path id="Path_33" data-name="Path 33" d="M534.253,217.259v46.674h46.674V217.259ZM578.9,261.908H536.278V219.284H578.9Z" transform="translate(360.449 -6)" fill="#3f3d56"/>
      <rect id="Rectangle_42" data-name="Rectangle 42" width="59.637" height="3.139" transform="translate(855.754 280.033)" fill="#f2f2f2"/>
      <circle id="Ellipse_6" data-name="Ellipse 6" cx="6.278" cy="6.278" r="6.278" transform="translate(904.404 173.315)" fill="#3f3d56"/>
    </g>
    <g id="Group_3" data-name="Group 3" transform="translate(-242 340)">
      <rect id="Rectangle_43" data-name="Rectangle 43" width="141.887" height="134.967" transform="translate(893.252 366.409)" fill="#d0cde1"/>
      <rect id="Rectangle_44" data-name="Rectangle 44" width="109.64" height="83.842" transform="translate(909.375 382.532)" fill="#5ce389"/>
      <rect id="Rectangle_45" data-name="Rectangle 45" width="59.637" height="3.139" transform="translate(909.266 476.266)" fill="#f2f2f2"/>
      <rect id="Rectangle_46" data-name="Rectangle 46" width="59.637" height="3.139" transform="translate(909.266 485.682)" fill="#f2f2f2"/>
      <circle id="Ellipse_7" data-name="Ellipse 7" cx="12.555" cy="12.555" r="12.555" transform="translate(916.329 411.921)" fill="#3f3d56"/>
      <circle id="Ellipse_8" data-name="Ellipse 8" cx="12.555" cy="12.555" r="12.555" transform="translate(951.64 411.921)" fill="#f2f2f2"/>
      <circle id="Ellipse_9" data-name="Ellipse 9" cx="12.555" cy="12.555" r="12.555" transform="translate(986.951 411.921)" fill="#ff6584"/>
      <circle id="Ellipse_10" data-name="Ellipse 10" cx="6.278" cy="6.278" r="6.278" transform="translate(957.917 367.978)" fill="#3f3d56"/>
    </g>
    <g id="Group_5" data-name="Group 5" transform="translate(197 450)">
      <rect id="Rectangle_47" data-name="Rectangle 47" width="141.887" height="134.967" transform="translate(676.102 324.238)" fill="#d0cde1"/>
      <rect id="Rectangle_48" data-name="Rectangle 48" width="109.64" height="83.842" transform="translate(692.225 340.362)" fill="#6c63ff"/>
      <circle id="Ellipse_11" data-name="Ellipse 11" cx="26.619" cy="26.619" r="26.619" transform="translate(713.126 365.463)" fill="#f2f2f2"/>
      <path id="Path_34" data-name="Path 34" d="M387.141,418.614a33.374,33.374,0,1,1,33.374-33.374,33.374,33.374,0,0,1-33.374,33.374Zm0-65.534a32.16,32.16,0,1,0,32.16,32.16,32.16,32.16,0,0,0-32.16-32.16Z" transform="translate(360.449 -6)" fill="#3f3d56"/>
      <rect id="Rectangle_49" data-name="Rectangle 49" width="59.637" height="3.139" transform="translate(692.117 441.943)" fill="#f2f2f2"/>
      <rect id="Rectangle_50" data-name="Rectangle 50" width="83.177" height="3.139" transform="translate(692.117 432.526)" fill="#f2f2f2"/>
      <circle id="Ellipse_12" data-name="Ellipse 12" cx="6.278" cy="6.278" r="6.278" transform="translate(740.767 325.807)" fill="#3f3d56"/>
    </g>
  </g>
</svg>
