<svg xmlns="http://www.w3.org/2000/svg" width="983.937" height="667.926" viewBox="0 0 983.937 667.926">
  <g id="Group_1" data-name="Group 1" transform="translate(-1234.763 -169)">
    <path id="Path_193" data-name="Path 193" d="M1058.7,549.974H135.333v-2.7H1057.35Z" transform="translate(1160 169)" fill="#2f2e41"/>
    <path id="Path_194" data-name="Path 194" d="M303.07,148.239h0c33.656,0,60.94,30.279,60.94,67.63v47.455h-14.6l-8.45-17.582,2.112,17.582h-93.81l-7.681-15.984,1.92,15.984H232.944v-37.26C232.944,183.082,264.34,148.239,303.07,148.239Z" transform="translate(1089.349 52.961)" fill="#2f2e41"/>
    <path id="Path_195" data-name="Path 195" d="M406.5,232.877,390.622,178.25s-10.512-34-28.019-33.236,10.725,41.255,10.725,41.255l12.241,33.2,2.618,12.444Z" transform="translate(1089.349 52.961)" fill="#a0616a"/>
    <path id="Path_196" data-name="Path 196" d="M341.456,358l14.828,31-59.311,40.439-31-26.96s2.7-18.872-5.392-25.612S341.456,358,341.456,358Z" transform="translate(1089.349 52.961)" fill="#a0616a"/>
    <path id="Path_197" data-name="Path 197" d="M325.28,235.335s-20.22,29.656-17.524,33.7-47.179-8.088-47.179-8.088,25.612-33.7,25.612-43.135Z" transform="translate(1089.349 52.961)" fill="#a0616a"/>
    <path id="Path_198" data-name="Path 198" d="M325.28,235.335s-20.22,29.656-17.524,33.7-47.179-8.088-47.179-8.088,25.612-33.7,25.612-43.135Z" transform="translate(1089.349 52.961)" opacity="0.2"/>
    <circle id="Ellipse_28" data-name="Ellipse 28" cx="31.701" cy="31.701" r="31.701" transform="translate(1369.926 228.796)" fill="#a0616a"/>
    <path id="Path_199" data-name="Path 199" d="M270.013,235.335l47.179,18.872v10.784s29.655-4.044,36.4,0,17.524,33.7,17.524,33.7,26.96,40.439,17.524,44.483-26.96,8.088-33.7,17.524-57.963,10.784-57.963,10.784-18.872,5.392-26.96,13.48-24.264,0-24.264,0l-8.088-130.754,25.611-8.088Z" transform="translate(1089.349 52.961)" fill="#e36969"/>
    <path id="Path_200" data-name="Path 200" d="M346.848,270.382l14.828-4.044s22.916-4.044,22.916-6.74-2.7-5.392,0-5.392,8.088,0,5.392-4.044,1.348-10.784-4.044-13.48-9.436-4.044-6.74-5.392-6.74-22.916-6.74-22.916l8.088-4.044,9.436,14.828,1.348-20.22,14.828-2.7,5.392,24.264s26.96,35.047,8.088,53.919-55.267,33.7-55.267,33.7Z" transform="translate(1089.349 52.961)" fill="#e36969"/>
    <path id="Path_201" data-name="Path 201" d="M346.848,382.264l9.436-5.392s33.7,39.091,33.7,157.713-6.74,172.541-10.784,171.193-26.96,8.088-31,4.044-31-200.848-31-200.848-84.923,203.544-98.4,203.544-35.048-4.044-35.048-12.131,40.439-115.926,40.439-115.926,25.6-188.717,37.735-190.061l4.348-2.648,32.047,21.52Z" transform="translate(1089.349 52.961)" fill="#5ca5cb"/>
    <path id="Path_202" data-name="Path 202" d="M356.284,705.778h12.132s10.784,10.784,14.828,36.4,8.088,41.787-9.436,41.787-28.307-4.044-26.96-13.48-2.7-13.48-2.7-13.48-6.74-12.132-5.392-18.872,5.392-28.307,5.392-28.307Z" transform="translate(1089.349 52.961)" fill="#2f2e41"/>
    <path id="Path_203" data-name="Path 203" d="M217.442,708.474s13.48,35.047,4.044,43.135-13.48,9.436-13.48,9.436-13.48,2.7-14.828,6.74-20.219,18.872-37.742,10.784-6.74-25.612-6.74-25.612l40.439-49.875s14.828,2.7,14.828,5.392S217.442,708.474,217.442,708.474Z" transform="translate(1089.349 52.961)" fill="#2f2e41"/>
    <path id="Path_204" data-name="Path 204" d="M287.439,418.38a25.967,25.967,0,0,1,12.681-6.422l-1.354,6.355c-.386,1.809-.765,3.731-.143,5.473,1.089,3.048,4.662,4.271,7.791,5.1,3.536.932,7.568,2.278,8.86,5.7,1.1,2.92-.309,6.172-2.03,8.776a36.035,36.035,0,0,1-5.685,6.668c-3.909,3.589-9.283,6.4-14.4,4.983a30.487,30.487,0,0,1-4.435-1.889c-3.661-1.672-7.64-2.589-11.239-4.39-7.348-3.679-12.4-10.638-17.158-17.338a3.362,3.362,0,0,1-.892-2.5,3.139,3.139,0,0,1,.576-1.123c2.753-3.881,8.634-11.26,13.11-6.237,1.408,1.58,2.508,3.177,4.843,3.188C281.967,424.742,284.81,420.818,287.439,418.38Z" transform="translate(1089.349 52.961)" fill="#a0616a"/>
    <path id="Path_205" data-name="Path 205" d="M247.1,256.9l-9.436-2.7s-17.524,0-22.916,26.959-12.132,111.882-5.392,125.362,40.439,41.788,40.439,41.788l26.96-25.612-16.176-16.176s-4.044,1.348-4.044-4.044,5.392-2.7,0-5.392-4.044,1.348-5.392-2.7S247.1,256.9,247.1,256.9Z" transform="translate(1089.349 52.961)" fill="#e36969"/>
    <path id="Path_206" data-name="Path 206" d="M284.675,168.735c5.451-7.018,13.49-11.464,22.465-11.464h1.066c20.55,0,37.209,18.6,37.209,41.534h-6.886l-1.112-8.464-1.63,8.464h-40.84l-3.422-7.161.855,7.161h-8.034q-5.624,27.928,16.16,55.856H286.821l-6.843-14.322,1.711,14.322H255.6l-5.132-32.941C250.468,197.05,264.8,176.131,284.675,168.735Z" transform="translate(1089.349 52.961)" fill="#2f2e41"/>
    <path id="Path_207" data-name="Path 207" d="M695.3,116.039c-92.916,0-168.5,75.581-168.5,168.5a167.591,167.591,0,0,0,14.774,68.989c26.407,58.61,85.367,99.508,153.723,99.508a168.59,168.59,0,0,0,168.5-168.5C863.8,191.62,788.2,116.039,695.3,116.039ZM834.708,352.272A155.175,155.175,0,0,1,695.3,439.553c-65.687,0-121.965-41.073-144.49-98.887a153.877,153.877,0,0,1-10.528-56.13c0-85.475,69.542-155.017,155.017-155.017s155.017,69.542,155.017,155.017A153.933,153.933,0,0,1,834.708,352.272Z" transform="translate(1089.349 52.961)" fill="#3f3d56"/>
    <path id="Path_208" data-name="Path 208" d="M842.849,365.832a168.606,168.606,0,0,1-147.549,87.2c-68.356,0-127.316-40.9-153.723-99.508q4.347-6.652,9.234-12.86c22.525,57.815,78.8,98.887,144.49,98.887A155.175,155.175,0,0,0,834.708,352.27Q839.075,358.843,842.849,365.832Z" transform="translate(1089.349 52.961)" fill="#4285f4"/>
    <path id="Path_209" data-name="Path 209" d="M657.322,299.947a19.776,19.776,0,1,1-13.871,5.807,19.514,19.514,0,0,1,13.871-5.807m0-8.425a28.088,28.088,0,1,0,28.073,28.1,28.088,28.088,0,0,0-28.073-28.1Zm58.523-40.169a9.58,9.58,0,0,0,9.628-9.628,9.478,9.478,0,0,0-9.568-9.568,9.6,9.6,0,1,0-.06,19.2Zm20.129,48.593a19.777,19.777,0,1,1-13.871,5.807,19.515,19.515,0,0,1,13.871-5.807m0-8.425a28.073,28.073,0,1,0,28.073,28.073A28.073,28.073,0,0,0,735.974,291.521Z" transform="translate(1089.349 52.961)" fill="#4285f4"/>
    <path id="Path_210" data-name="Path 210" d="M730.347,270.671H715.905l-8.876-18.083a9.414,9.414,0,0,0-14.894-1.986l-21.574,20.791a9.8,9.8,0,0,0-2.8,6.74c0,5.235,3.791,7.1,5.566,8.154,13.69,7.883,18.5,8.756,18.5,12.7v19.829a4.814,4.814,0,0,0,9.628,0v-27.08c0-3.972-9.147-7.221-14.533-11.434l14.713-15.5c5.627,8.575,8.214,15.5,11.434,15.5H730.34a4.814,4.814,0,1,0,0-9.628Z" transform="translate(1089.349 52.961)" fill="#4285f4"/>
    <path id="Path_211" data-name="Path 211" d="M563.642,531.938c-4.147,0-7.581,12.074-8.246,27.906H475.612c-.665-15.832-4.1-27.906-8.246-27.906-4.624,0-8.372,14.993-8.372,33.487s3.748,33.487,8.372,33.487c4.147,0,7.581-12.074,8.246-27.906H555.4c.665,15.832,4.1,27.906,8.246,27.906,4.624,0,8.372-14.993,8.372-33.487S568.266,531.938,563.642,531.938Z" transform="translate(1089.349 52.961)" fill="#4285f4"/>
    <path id="Path_212" data-name="Path 212" d="M602.505,515.983a99.773,99.773,0,1,0,12.644,48.581A99.773,99.773,0,0,0,602.505,515.983Zm-87.16,140.392A91.358,91.358,0,1,1,580.4,629.628a91.358,91.358,0,0,1-65.055,26.747Z" transform="translate(1089.349 52.961)" fill="#3f3d56"/>
    <path id="Path_213" data-name="Path 213" d="M615.149,564.564a99.756,99.756,0,0,1-154.276,83.588,102.68,102.68,0,0,1-4.287-13.1A91.76,91.76,0,0,0,589.74,510.821a102.3,102.3,0,0,1,12.765,5.163,99.189,99.189,0,0,1,12.644,48.58Z" transform="translate(1089.349 52.961)" fill="#4285f4"/>
    <path id="Path_214" data-name="Path 214" d="M875.255,464.76a99.8,99.8,0,0,0,0,199.608c.647,0,1.281,0,1.928-.027a99.8,99.8,0,1,0-1.928-199.588ZM895.6,654.1a91.818,91.818,0,1,1-20.4-181.36h.054A91.818,91.818,0,0,1,895.6,654.1Z" transform="translate(1089.349 52.961)" fill="#3f3d56"/>
    <path id="Path_215" data-name="Path 215" d="M895.6,654.1a102.656,102.656,0,0,1-18.413,10.245c-.647.027-1.281.027-1.928.027A99.806,99.806,0,0,1,854.928,466.85a102.3,102.3,0,0,1,20.272,5.89A91.817,91.817,0,1,0,895.6,654.1Z" transform="translate(1089.349 52.961)" fill="#4285f4"/>
    <path id="Path_216" data-name="Path 216" d="M924.491,560.321a12.2,12.2,0,0,0-12.179,8.313h-9.829l-7.176-21.578a4.043,4.043,0,0,0-3.841-2.779h-.076a4,4,0,0,0-3.79,2.931l-11.244,39.239-13.215-79.363a4.057,4.057,0,0,0-7.934-.328l-13.391,61.879H826.809a4.043,4.043,0,1,0,0,8.086H845a4.03,4.03,0,0,0,3.916-3.057l9.45-46.036,12.962,77.8a4.014,4.014,0,0,0,3.765,3.36h.227a4.055,4.055,0,0,0,3.891-2.931l12.558-43.863,3.967,11.951a4.076,4.076,0,0,0,3.841,2.779h12.911a12.131,12.131,0,1,0,12-16.4Z" transform="translate(1089.349 52.961)" fill="#4285f4"/>
  </g>
</svg>
