<svg xmlns="http://www.w3.org/2000/svg" width="1002" height="732" viewBox="0 0 1002 732">
  <g id="Group_2" data-name="Group 2" transform="translate(-1590 -37)">
    <path id="Path_160" data-name="Path 160" d="M1101,511.441c-335.922-127.294-669.972-130.563-1002,0v-473H1101Z" transform="translate(1491 -1.441)" fill="#464553"/>
    <rect id="Rectangle_67" data-name="Rectangle 67" width="197" height="9" transform="translate(1626 67)" fill="#d0cde1"/>
    <rect id="Rectangle_68" data-name="Rectangle 68" width="197" height="9" transform="translate(1626 90)" fill="#d0cde1"/>
    <rect id="Rectangle_69" data-name="Rectangle 69" width="197" height="9" transform="translate(1626 113)" fill="#d0cde1"/>
    <rect id="Rectangle_70" data-name="Rectangle 70" width="20" height="20" transform="translate(1659 151)" fill="#d0cde1"/>
    <rect id="Rectangle_71" data-name="Rectangle 71" width="20" height="20" transform="translate(1715 151)" fill="#4285f4"/>
    <rect id="Rectangle_72" data-name="Rectangle 72" width="20" height="20" transform="translate(1771 151)" fill="#ff6584"/>
    <rect id="Rectangle_73" data-name="Rectangle 73" width="168" height="28.877" transform="translate(1641 226)" fill="#d0cde1"/>
    <rect id="Rectangle_74" data-name="Rectangle 74" width="168" height="28.877" transform="translate(1641 270.311)" fill="#4285f4"/>
    <rect id="Rectangle_75" data-name="Rectangle 75" width="168" height="28.877" transform="translate(1641 314.623)" fill="#ff6584"/>
    <rect id="Rectangle_76" data-name="Rectangle 76" width="69.5" height="28.877" transform="translate(1641 226)" opacity="0.15"/>
    <rect id="Rectangle_77" data-name="Rectangle 77" width="22.5" height="28.877" transform="translate(1641 270.311)" opacity="0.15"/>
    <rect id="Rectangle_78" data-name="Rectangle 78" width="112" height="28.877" transform="translate(1641 314.623)" opacity="0.15"/>
    <path id="Path_161" data-name="Path 161" d="M591,61.441v330a165,165,0,0,0,0-330Z" transform="translate(1491 -1.441)" fill="#d0cde1"/>
    <path id="Path_162" data-name="Path 162" d="M580,68.694a151.579,151.579,0,0,0-135.524,83.638L580,232.517Z" transform="translate(1491 -1.441)" fill="#d0cde1"/>
    <path id="Path_163" data-name="Path 163" d="M433.49,154.454A165.046,165.046,0,0,0,581,393.441V241.771Z" transform="translate(1491 -1.441)" fill="#4285f4"/>
    <rect id="Rectangle_79" data-name="Rectangle 79" width="101" height="9" transform="translate(2358 146)" fill="#d0cde1"/>
    <rect id="Rectangle_80" data-name="Rectangle 80" width="20" height="20" transform="translate(2325 140)" fill="#4285f4"/>
    <rect id="Rectangle_81" data-name="Rectangle 81" width="101" height="9" transform="translate(2358 176)" fill="#d0cde1"/>
    <rect id="Rectangle_82" data-name="Rectangle 82" width="20" height="20" transform="translate(2325 170)" fill="#4285f4"/>
    <rect id="Rectangle_83" data-name="Rectangle 83" width="101" height="9" transform="translate(2358 206)" fill="#d0cde1"/>
    <rect id="Rectangle_84" data-name="Rectangle 84" width="20" height="20" transform="translate(2325 200)" fill="#4285f4"/>
    <path id="Path_164" data-name="Path 164" d="M438.707,250.707l-1.414-1.414L542.586,144H726v2H543.414Z" transform="translate(1590 37)" fill="#2f2e41"/>
    <path id="Path_165" data-name="Path 165" d="M1101,770.441H99v-227q483-188.205,1002,0Z" transform="translate(1491 -1.441)" fill="#464553"/>
    <path id="Path_189" data-name="Path 189" d="M350,603.441a50,50,0,1,0,50,50A50,50,0,0,0,350,603.441Zm-8.625,72.375-21.507-21.507,6.033-6.033L341.4,663.771l32.7-32.7,6.032,6.033Z" transform="translate(1481 -38.441)" fill="#42f466"/>
    <rect id="Rectangle_85" data-name="Rectangle 85" width="301" height="14" transform="translate(1949 593)" fill="#d0cde1"/>
    <rect id="Rectangle_86" data-name="Rectangle 86" width="301" height="14" transform="translate(1949 623)" fill="#d0cde1"/>
    <g id="Group_1" data-name="Group 1" transform="translate(-11 -12)">
      <rect id="Rectangle_87" data-name="Rectangle 87" width="90" height="8" transform="translate(2420 669)" fill="#d0cde1"/>
      <rect id="Rectangle_92" data-name="Rectangle 92" width="18" height="18" transform="translate(2521 664)" fill="#4285f4"/>
      <rect id="Rectangle_88" data-name="Rectangle 88" width="90" height="8" transform="translate(2420 642)" fill="#d0cde1"/>
      <rect id="Rectangle_91" data-name="Rectangle 91" width="18" height="17" transform="translate(2521 638)" fill="#4285f4"/>
      <rect id="Rectangle_89" data-name="Rectangle 89" width="90" height="8" transform="translate(2420 615)" fill="#d0cde1"/>
      <rect id="Rectangle_90" data-name="Rectangle 90" width="18" height="18" transform="translate(2521 611)" fill="#4285f4"/>
    </g>
  </g>
</svg>
