<svg xmlns="http://www.w3.org/2000/svg" width="591.841" height="277.028" viewBox="0 0 591.841 277.028">
  <g id="Group_2" data-name="Group 2" transform="translate(-824 -91)">
    <rect id="Rectangle_1" data-name="Rectangle 1" width="274.104" height="185.652" transform="translate(1415.841 276.652) rotate(180)" fill="#aaa" opacity="0.3"/>
    <rect id="Rectangle_2" data-name="Rectangle 2" width="81.162" height="88.452" transform="translate(1317.184 108.01)" fill="#f2f2f2"/>
    <rect id="Rectangle_3" data-name="Rectangle 3" width="78.246" height="5.346" transform="translate(1267.125 113.355) rotate(180)" fill="#f2f2f2"/>
    <rect id="Rectangle_4" data-name="Rectangle 4" width="27.702" height="5.346" transform="translate(1344.885 215.416) rotate(180)" fill="#f2f2f2"/>
    <rect id="Rectangle_5" data-name="Rectangle 5" width="79.218" height="5.346" transform="translate(1397.373 225.136) rotate(180)" fill="#f2f2f2"/>
    <rect id="Rectangle_6" data-name="Rectangle 6" width="112.752" height="5.346" transform="translate(1285.594 132.796) rotate(180)" fill="#f2f2f2"/>
    <rect id="Rectangle_7" data-name="Rectangle 7" width="112.752" height="5.346" transform="translate(1285.594 147.862) rotate(180)" fill="#f2f2f2"/>
    <rect id="Rectangle_8" data-name="Rectangle 8" width="112.752" height="5.346" transform="translate(1285.594 162.928) rotate(180)" fill="#f2f2f2"/>
    <rect id="Rectangle_9" data-name="Rectangle 9" width="112.752" height="5.346" transform="translate(1285.594 177.994) rotate(180)" fill="#f2f2f2"/>
    <rect id="Rectangle_10" data-name="Rectangle 10" width="112.752" height="5.346" transform="translate(1285.594 193.06) rotate(180)" fill="#f2f2f2"/>
    <rect id="Rectangle_11" data-name="Rectangle 11" width="112.752" height="5.346" transform="translate(1285.594 208.125) rotate(180)" fill="#f2f2f2"/>
    <rect id="Rectangle_12" data-name="Rectangle 12" width="112.752" height="5.346" transform="translate(1285.594 223.192) rotate(180)" fill="#f2f2f2"/>
    <path id="Path_1" data-name="Path 1" d="M843.093,225.441a14.355,14.355,0,0,1,3.93-1.971,100.212,100.212,0,0,1,27.691-6.028c8.234-.584,17.158.11,23.589,5.284a8.111,8.111,0,0,1,2.393,2.788c.809,1.746.564,3.775.3,5.682a6.42,6.42,0,0,1-.551,2.139c-.865,1.648-3,2.225-4.847,2.027s-3.587-.981-5.412-1.344a24.193,24.193,0,0,0-3.419-.348l-11.448-.62c-7.119-.385-14.332-.764-21.315.672a21.233,21.233,0,0,0-6.158,2.122c-1.595.9-2.669,2.18-4.149.526C841.1,233.466,839.659,228.126,843.093,225.441Z" transform="translate(486.279 -66.924)" fill="#2f2e41"/>
    <path id="Path_2" data-name="Path 2" d="M869.792,236.156s15.4-6.9,21.239,1.062S887.846,242,887.846,242l-10.089,3.186-11.151-2.124Z" transform="translate(477.32 -72.575)" fill="#f2f2f2"/>
    <path id="Path_3" data-name="Path 3" d="M872.741,227.3s2.124,10.089.531,12.744,9.027,6.372,9.027,6.372l10.089-4.248s-2.655-16.46,0-19.646Z" transform="translate(475.168 -68.767)" fill="#ffb9b9"/>
    <path id="Path_4" data-name="Path 4" d="M872.741,227.3s2.124,10.089.531,12.744,9.027,6.372,9.027,6.372l10.089-4.248s-2.655-16.46,0-19.646Z" transform="translate(475.168 -68.767)" opacity="0.1"/>
    <path id="Path_5" data-name="Path 5" d="M893.149,205.736a15.943,15.943,0,0,1-15.93,15.929,15.548,15.548,0,0,1-2.83-.255,15.929,15.929,0,1,1,18.76-15.675Z" transform="translate(479.185 -57.289)" fill="#ffb9b9"/>
    <path id="Path_6" data-name="Path 6" d="M897.729,270.881h-50.8l1.152-5,4.986-21.729,5.764-3.893,0,0,2.707-1.832,1.346-.909s.8.364,1.716.86c.267.151.539.306.812.471,0,0,0,0,0,0a9.511,9.511,0,0,1,1.254.87c.073.068.136.126.2.19,1.011,1.011,3.961,6.376,8.84,3.63a7.437,7.437,0,0,0,.714-.447,35.358,35.358,0,0,0,3.63-2.882c1.025-.938,1.691-1.662,2.236-2.163a3.531,3.531,0,0,1,.826-.612,1.571,1.571,0,0,1,.744-.18c1.594,0,3.718,3.183,3.718,3.183l.063.185,0,.015,6.7,20.12Z" transform="translate(484.224 -73.933)" fill="#f2f2f2"/>
    <path id="Path_7" data-name="Path 7" d="M841.807,269.076h15.4a37.471,37.471,0,0,0-.277-5.327c-.471-3.553-1.628-6.974-2.357-10.483a44.1,44.1,0,0,1-.928-9.351c0-.433.015-.87.053-1.307a5.985,5.985,0,0,1,.841-2.838c.365-.559.865-1.035,1.254-1.57a3.6,3.6,0,0,0,.355-.559v0a3.221,3.221,0,0,0,.131-.3,2.4,2.4,0,0,0,.146-.724c.087-1.6-1.366-3.149-2.935-3.81a10.975,10.975,0,0,0-6.877-.277,32.733,32.733,0,0,0-6.464,2.644c-.695.34-1.385.69-2.051,1.079a10.181,10.181,0,0,0-2.172,1.652c-1.652,1.706-2.377,4.082-2.96,6.381a13.49,13.49,0,0,0-.559,5.443c0,.058.02.122.029.18.578,3.028,3.047,5.3,4.364,8.092,1.526,3.237,1.424,7.008.816,10.536-.029.18-.063.36-.1.539h4.291Z" transform="translate(489.344 -72.128)" fill="#2f2e41"/>
    <path id="Path_8" data-name="Path 8" d="M927.518,247.646a120.324,120.324,0,0,0-4.194,19.445H901.376q-.86-2.347-1.716-4.7a35.2,35.2,0,0,1-1.171-3.616,17.313,17.313,0,0,1-.491-4.355c0-.35.015-.7.044-1.055a.015.015,0,0,0,0-.019,17.394,17.394,0,0,1,1.268-5.38,20.069,20.069,0,0,1,1.118-2.27c1.021-1.847,2.255-3.587,3.353-5.395a24.753,24.753,0,0,0,1.784-3.46.018.018,0,0,1,0-.015,12.421,12.421,0,0,0,1.006-4.836c-.034-2.143-3.66-5.881.282-5.521,5.38.486,10,3.582,14.215,7.11,1.123.943,2.221,1.92,3.3,2.882,1.662,1.5,3.417,3.13,3.917,5.312a5.661,5.661,0,0,1,.141,1.06A14.548,14.548,0,0,1,927.518,247.646Z" transform="translate(466.308 -70.143)" fill="#2f2e41"/>
    <path id="Path_9" data-name="Path 9" d="M883.045,246.427a11.866,11.866,0,0,0-2.492-4.018,9.244,9.244,0,0,0-3.807-1.928,20.815,20.815,0,0,0-5.584-.8c-2.249-.014-4.856.589-5.811,2.625-.758,1.617-.17,3.531.593,5.146a5.045,5.045,0,0,0,1.574,2.126,8.738,8.738,0,0,0,3.374.854,15.559,15.559,0,0,1,4.986,2.259l3.939,2.381,6.765,4.089c-.178-.108-.115-4.747-.323-5.507C885.59,251.2,884.083,248.746,883.045,246.427Z" transform="translate(477.884 -74.786)" fill="#ffb9b9"/>
    <path id="Path_10" data-name="Path 10" d="M889.959,192.956a4.044,4.044,0,0,0-1.754-2.289,9.279,9.279,0,0,0-.37-3.021c-.965-2.852-3.25-2.688-5.406-3.949-.936-.547-.878-1.031-1.365-1.929a7.16,7.16,0,0,0-2.759-2.815,9.926,9.926,0,0,0-4.48-1.9c-3.439-.234-6.076,3-9.363,4.039-1.449.458-3.006.476-4.462.909s-2.91,1.466-3.127,2.969c-.1.694.077,1.406-.025,2.1-.2,1.38-1.412,2.346-2.223,3.48-1.792,2.509-1.587,6.054-.154,8.784a12.348,12.348,0,0,0,1.033,1.617,9.944,9.944,0,0,0,1.091,3.693,18.406,18.406,0,0,0,6.474,6.465,15.28,15.28,0,0,1-.382-2.757,1.9,1.9,0,0,1,.117-.913c.287-.6,1.045-.759,1.622-1.087a4.1,4.1,0,0,0,1.7-3.561c.035-1.376-.257-2.755-.113-4.124a2.253,2.253,0,0,1,.771-1.657,2.664,2.664,0,0,1,1.454-.347c2.452-.1,5.014-.145,7.177-1.3a10.64,10.64,0,0,1,2.234-1.13c1.838-.479,3.717.809,4.776,2.386s1.588,3.453,2.565,5.082,2.666,3.082,4.556,2.889a.756.756,0,0,0,.564-.251.846.846,0,0,0,.1-.481l.106-7.224A10.92,10.92,0,0,0,889.959,192.956Z" transform="translate(481.975 -52.81)" fill="#2f2e41"/>
    <path id="Path_11" data-name="Path 11" d="M838.149,266.6q.518,4.265.627,8.558H825.411V263.932c.068-.272.141-.539.228-.807.836-2.576,2.59-4.734,4.112-6.974.073-.112.151-.224.224-.335a18.25,18.25,0,0,0,1.662-3c.219-.515.569-3.008.938-3.222,1.584-.919,2.872,3.008,3.091,3.883.778,3.115,1.453,6.26,1.964,9.433Q837.928,264.755,838.149,266.6Z" transform="translate(491.772 -78.215)" fill="#2f2e41"/>
    <path id="Path_12" data-name="Path 12" d="M927.594,273.546H896.913c-.263-.617-.52-1.234-.792-1.847a53.992,53.992,0,0,0-7.358-12.067,3.193,3.193,0,0,1-.909-1.8,1.525,1.525,0,0,1,.2-.812,5.3,5.3,0,0,1,2.7-1.793,9.311,9.311,0,0,0,2.809-1.769,6.024,6.024,0,0,0,1.623-2.4,5.26,5.26,0,0,0,.2-.826l.428.559c.345.457.7.909,1.05,1.361,3.4,4.369,7.139,8.675,11.839,11.265a19.918,19.918,0,0,0,3.869,1.648,1.015,1.015,0,0,0,.816,0,.988.988,0,0,0,.355-.651c.418-1.75.564-3.553.87-5.326a30.339,30.339,0,0,1,3.2-9.224c.87-1.618,3.7-7.533,5.492-3.805q.773,1.611,1.555,3.232c.326.685.656,1.366.987,2.051a12.756,12.756,0,0,1,1.6,7.144Q927.526,266.022,927.594,273.546Z" transform="translate(469.867 -76.598)" fill="#2f2e41"/>
    <path id="Path_13" data-name="Path 13" d="M844.786,282.458h2.658l-1.507-5-2.172-7.207a23.505,23.505,0,0,1-.209,3.65,24.3,24.3,0,0,1-2.119,7.212c-.209.442-.433.889-.612,1.346h3.961Z" transform="translate(486.365 -85.51)" opacity="0.1"/>
    <path id="Path_14" data-name="Path 14" d="M929.021,265.38a5.191,5.191,0,0,0,.254,3.155,31.779,31.779,0,0,1,1.158,9.223.336.336,0,0,1-.392.4c-1.226.075-2.629.083-3.46-.82Z" transform="translate(456.28 -83.802)" opacity="0.1"/>
    <rect id="Rectangle_13" data-name="Rectangle 13" width="274.104" height="185.652" transform="translate(824 92.911)" fill="#aaa" opacity="0.3"/>
    <rect id="Rectangle_14" data-name="Rectangle 14" width="81.162" height="88.452" transform="translate(841.496 109.921)" fill="#f2f2f2"/>
    <rect id="Rectangle_15" data-name="Rectangle 15" width="78.246" height="5.346" transform="translate(972.716 109.921)" fill="#f2f2f2"/>
    <rect id="Rectangle_16" data-name="Rectangle 16" width="27.702" height="5.346" transform="translate(842.468 211.98)" fill="#f2f2f2"/>
    <rect id="Rectangle_17" data-name="Rectangle 17" width="79.218" height="5.346" transform="translate(842.468 221.7)" fill="#f2f2f2"/>
    <rect id="Rectangle_18" data-name="Rectangle 18" width="112.752" height="5.346" transform="translate(954.248 129.361)" fill="#f2f2f2"/>
    <rect id="Rectangle_19" data-name="Rectangle 19" width="112.752" height="5.346" transform="translate(954.248 144.427)" fill="#f2f2f2"/>
    <rect id="Rectangle_20" data-name="Rectangle 20" width="112.752" height="5.346" transform="translate(954.248 159.493)" fill="#f2f2f2"/>
    <rect id="Rectangle_21" data-name="Rectangle 21" width="112.752" height="5.346" transform="translate(954.248 174.558)" fill="#f2f2f2"/>
    <rect id="Rectangle_22" data-name="Rectangle 22" width="112.752" height="5.346" transform="translate(954.248 189.624)" fill="#f2f2f2"/>
    <rect id="Rectangle_23" data-name="Rectangle 23" width="112.752" height="5.346" transform="translate(954.248 204.691)" fill="#f2f2f2"/>
    <rect id="Rectangle_24" data-name="Rectangle 24" width="112.752" height="5.346" transform="translate(954.248 219.757)" fill="#f2f2f2"/>
    <path id="Path_15" data-name="Path 15" d="M204.19,275.4H193.639q-1.217-3.273-2.163-6.629a13.243,13.243,0,0,0-3.441-7.013,13.01,13.01,0,0,1-1.482-2.012,9.45,9.45,0,0,1-.933-5.73,14.89,14.89,0,0,1,.272-1.623c.462-2.075,1.234-4.068,1.881-6.09a2.31,2.31,0,0,1,1.886-1.56,3.74,3.74,0,0,1,2.061.238,2.56,2.56,0,0,1,.413.214,6.378,6.378,0,0,1,2.231,3.412q3.3,8.865,6.6,17.729.642,1.72,1.283,3.451c.632,1.691,1.259,3.383,1.793,5.108C204.092,275.068,204.141,275.233,204.19,275.4Z" transform="translate(716.262 -76.545)" fill="#d0cde1"/>
    <path id="Path_16" data-name="Path 16" d="M136.294,171.405c-2.623.886-5,2.958-5.537,5.674-.249,1.259-.1,2.568-.306,3.834-.486,2.937-2.791,5.18-4.918,7.263s-4.322,4.5-4.477,7.477c-.17,3.255,2.191,6.3,1.782,9.539-.475,3.757-4.443,6.192-5.424,9.849a9.476,9.476,0,0,0,1.468,7.23c2.517,4.109,6.818,6.9,11.4,8.4a47.487,47.487,0,0,0,14.278,1.861c5.867.061,12.237-.442,16.645-4.314a13.335,13.335,0,0,0,4.427-8.681c.419-4.485-1.453-9.12-.162-13.436.813-2.716,2.851-5.2,2.547-8.016-.3-2.756-2.7-4.71-4.356-6.936a28.194,28.194,0,0,1-3.394-6.954l-3.137-8.281a9.612,9.612,0,0,0-2.668-4.409c-2.573-2-6.711-1.607-9.719-1.195C141.95,170.688,138.978,170.5,136.294,171.405Z" transform="translate(740.234 -50.33)" fill="#2f2e41"/>
    <path id="Path_17" data-name="Path 17" d="M149.963,213.238s.307,9.212-.614,10.134,3.685,7.063,3.685,7.063l8.291-.307,4.3-3.378-3.685-4.913s-1.535-7.984-.307-9.827S149.963,213.238,149.963,213.238Z" transform="translate(728.991 -64.872)" fill="#a0616a"/>
    <path id="Path_18" data-name="Path 18" d="M149.963,213.238s.307,9.212-.614,10.134,3.685,7.063,3.685,7.063l8.291-.307,4.3-3.378-3.685-4.913s-1.535-7.984-.307-9.827S149.963,213.238,149.963,213.238Z" transform="translate(728.991 -64.872)" opacity="0.1"/>
    <circle id="Ellipse_2" data-name="Ellipse 2" cx="11.055" cy="11.055" r="11.055" transform="translate(872.966 129.788)" fill="#a0616a"/>
    <path id="Path_19" data-name="Path 19" d="M147.165,268.544h8.962c.335-.607.651-1.239,1.016-1.813v0a4.961,4.961,0,0,1,1.633-1.711,6.434,6.434,0,0,0,1.21-.724,3.121,3.121,0,0,0,.739-1.38,21.388,21.388,0,0,0,1.011-5.958c.015-.68,0-1.37.039-2.051a8.623,8.623,0,0,1,.2-1.58,12.439,12.439,0,0,1,1.327-3q1.822-3.317,3.655-6.634a4.637,4.637,0,0,0,.248-1.944,4.792,4.792,0,0,0-.787-2.493c-.17-.306-.355-.612-.549-.909a20.185,20.185,0,0,0-2.6-3.324,21.074,21.074,0,0,0-7.416-5.02,4.3,4.3,0,0,1-1-.486,4.136,4.136,0,0,1-.914-1.094c-.972-1.463-2.158-3.11-3.912-3.018a2.4,2.4,0,0,0-1.857-.126,2.538,2.538,0,0,0-.272.087,17.277,17.277,0,0,0-1.949,1.016,9.047,9.047,0,0,1-5.249.953,1.777,1.777,0,0,1-.612-.156,3.137,3.137,0,0,1-.564-.457,3.24,3.24,0,0,0-3.222-.515,2.926,2.926,0,0,0-1.283.9c-.321.4-.544.889-.9,1.268-.919.982-2.435,1.021-3.776,1.016a34.9,34.9,0,0,0-8.3.763,15.771,15.771,0,0,0-6.532,3.159l0,0c-.262.224-.505.452-.748.695a5.548,5.548,0,0,0-1.293,1.847c-.369.953-.321,2.027-.656,2.994-.369,1.084-1.191,1.968-1.521,3.057a12.292,12.292,0,0,1-.637,2.488c.019.015.034.029.053.044,1.769,1.555,3.28,3.6,5.054,5.137a10.2,10.2,0,0,1,2.566,2.867,4.735,4.735,0,0,1,.316.778,11.958,11.958,0,0,1,.262,2.828c.224,4.544,2.688,8.665,5.443,12.281.053.073.107.146.165.214Z" transform="translate(742.523 -69.685)" fill="#d0cde1"/>
    <path id="Path_20" data-name="Path 20" d="M114.052,261.8q-.627,4.352-1.264,8.7a37.9,37.9,0,0,1-.865,4.607c-.253.938-.578,1.857-.807,2.794H98.461a12.125,12.125,0,0,1,.121-1.57,25.953,25.953,0,0,1,1.579-5.448q2.209-5.963,4.413-11.936c.627-1.7,1.166-3.47,1.857-5.152.121-.311.253-.622.394-.923.734-1.614,2.77-.953,4.277-.71a4.061,4.061,0,0,1,1.2.34,3.085,3.085,0,0,1,1.123,1.059c1.429,2.114,1.118,4.909.748,7.436Q114.11,261.4,114.052,261.8Z" transform="translate(746.801 -79.046)" fill="#d0cde1"/>
    <path id="Path_21" data-name="Path 21" d="M176.872,289.2c.019.068.228.792.573,1.813H166.894c5.229-.9,9.978-1.818,9.978-1.818Z" transform="translate(722.794 -92.158)" fill="#2f2e41"/>
    <ellipse id="Ellipse_3" data-name="Ellipse 3" cx="11.976" cy="6.449" rx="11.976" ry="6.449" transform="translate(872.966 127.945)" fill="#2f2e41"/>
    <rect id="Rectangle_25" data-name="Rectangle 25" width="274.104" height="185.652" transform="translate(999.596 161.255)" fill="gray"/>
    <rect id="Rectangle_26" data-name="Rectangle 26" width="81.162" height="88.452" transform="translate(1017.092 178.265)" fill="#f2f2f2"/>
    <path id="Path_22" data-name="Path 22" d="M399.161,307.368a1.191,1.191,0,0,0,1.4-.577c1.123-1.769-.944-4.049-.5-6.1.359-1.64,2.222-2.613,2.6-4.247.37-1.588-.77-3.378,0-4.815.6-1.126,2.112-1.422,3.375-1.225s2.46.752,3.736.83c1.7.1,3.319-.644,4.981-1.015s3.688-.226,4.666,1.168c1.255,1.79-.018,4.282.419,6.424.347,1.7,1.771,3.109,1.8,4.844.011.617-1.611.12-1.525.731s-.68.073-.068,0a1.214,1.214,0,0,0,.922-1.1c.073-.509,1.029-.678,1.018-1.192-.026-1.2,2.152-.392,2.51-1.542a11.662,11.662,0,0,0-.477-8.135,16.292,16.292,0,0,1-1.389-3.309c-.32-1.6.183-3.311-.344-4.852-.711-2.076-3.064-3.135-5.248-3.35s-4.4.17-6.575-.147c-1.946-.284-3.829-1.127-5.791-1-2.355.147-4.4,1.664-6.036,3.367s-3.017,3.663-4.87,5.122a9.553,9.553,0,0,0-1.562,1.344,5.246,5.246,0,0,0-.777,4.255c.263,1.465.834,2.862,1.075,4.331.227,1.38.157,2.79.255,4.186a7.357,7.357,0,0,0,1.228,3.951,3.729,3.729,0,0,0,2.9,1.516c.393.009.725-.344,1.121-.252C398.5,306.7,398.72,307.167,399.161,307.368Z" transform="translate(644.066 -88.492)" fill="#2f2e41"/>
    <path id="Path_23" data-name="Path 23" d="M375.913,389.416c.355-4.865.622-8.5.622-8.5l2.294-6.046,7.363,14.546Z" transform="translate(649.465 -122.213)" fill="#cc5959"/>
    <path id="Path_25" data-name="Path 25" d="M402.2,321.3s6.866,17.476,2.913,20.8,22.053-5.617,22.053-5.617l-.624-2.289s-8.53-3.329-4.369-12.9S402.2,321.3,402.2,321.3Z" transform="translate(640.245 -101.927)" fill="#a0616a"/>
    <path id="Path_26" data-name="Path 26" d="M402.2,321.3s6.866,17.476,2.913,20.8,22.053-5.617,22.053-5.617l-.624-2.289s-8.53-3.329-4.369-12.9S402.2,321.3,402.2,321.3Z" transform="translate(640.245 -101.927)" opacity="0.1"/>
    <circle id="Ellipse_5" data-name="Ellipse 5" cx="14.563" cy="14.563" r="14.563" transform="translate(1037.656 197.318)" fill="#a0616a"/>
    <path id="Path_27" data-name="Path 27" d="M438.449,353.7s-.058,1.157-.16,3.178c-.209,4.116-.583,11.829-.957,20.728H380.878a27.99,27.99,0,0,1-3.592-6.43,6.94,6.94,0,0,1-.423-2.07c-.311-5.516,4.632-13.214,8.121-13.948,3.951-.836,11.44-8.738,11.44-8.738a1.782,1.782,0,0,0,.953,1.439v0a3.872,3.872,0,0,0,1.959.428c2.44,0,13.171-4.952,16.616-6.571.676-.316,1.069-.505,1.069-.505a80.755,80.755,0,0,0,12.276,4.165,13.056,13.056,0,0,1,9.151,8.32Z" transform="translate(649.137 -110.408)" fill="#cc5959"/>
    <path id="Path_28" data-name="Path 28" d="M395.315,305.125a1.191,1.191,0,0,0,1.4-.577c1.123-1.769-.944-4.049-.5-6.1.359-1.64,2.222-2.613,2.6-4.247.37-1.588-.77-3.378,0-4.815.6-1.126,2.112-1.422,3.375-1.225s2.46.752,3.736.83c1.7.1,3.319-.644,4.981-1.015s3.688-.226,4.666,1.168c1.255,1.79-.018,4.282.419,6.423.347,1.7,4.3,2.894,4.659,1.744a11.662,11.662,0,0,0-.477-8.135,16.3,16.3,0,0,1-1.389-3.309c-.32-1.6.183-3.311-.344-4.852-.711-2.076-3.064-3.135-5.248-3.35s-4.4.17-6.575-.147c-1.945-.284-3.829-1.127-5.791-1-2.355.147-4.4,1.664-6.036,3.367s-3.017,3.663-4.87,5.122a9.552,9.552,0,0,0-1.562,1.344,5.246,5.246,0,0,0-.777,4.255c.263,1.465.834,2.862,1.075,4.331.227,1.38.157,2.79.254,4.186a7.357,7.357,0,0,0,1.228,3.951,3.729,3.729,0,0,0,2.9,1.516c.393.009.725-.344,1.121-.252C394.659,304.453,394.874,304.923,395.315,305.125Z" transform="translate(645.416 -87.705)" fill="#2f2e41"/>
    <path id="Path_29" data-name="Path 29" d="M472.715,384.358H456.24c-1.254-9.2-2.289-18.808-2.289-18.808l3.329-1.458,6.765-3.64s.5,1.176,1.293,3.178C467.038,367.912,470.125,375.97,472.715,384.358Z" transform="translate(622.088 -117.155)" opacity="0.1"/>
    <path id="Path_30" data-name="Path 30" d="M472.088,383.121H453.494c-2.756-10.06-5.472-21-5.472-21l7.076-5.2,8.32,2.289S468.288,370.806,472.088,383.121Z" transform="translate(624.168 -115.918)" fill="#cc5959"/>
    <rect id="Rectangle_28" data-name="Rectangle 28" width="27.702" height="5.346" transform="translate(1018.064 280.325)" fill="#7dc2fe"/>
    <rect id="Rectangle_29" data-name="Rectangle 29" width="79.218" height="5.346" transform="translate(1018.064 290.045)" fill="#7dc2fe"/>
    <rect id="Rectangle_30" data-name="Rectangle 30" width="112.752" height="5.346" transform="translate(1129.844 197.705)" fill="#f2f2f2"/>
    <rect id="Rectangle_31" data-name="Rectangle 31" width="112.752" height="5.346" transform="translate(1129.844 212.772)" fill="#f2f2f2"/>
    <rect id="Rectangle_32" data-name="Rectangle 32" width="112.752" height="5.346" transform="translate(1129.844 227.837)" fill="#f2f2f2"/>
    <rect id="Rectangle_33" data-name="Rectangle 33" width="112.752" height="5.346" transform="translate(1129.844 242.903)" fill="#f2f2f2"/>
    <rect id="Rectangle_34" data-name="Rectangle 34" width="112.752" height="5.346" transform="translate(1129.844 257.969)" fill="#f2f2f2"/>
    <rect id="Rectangle_35" data-name="Rectangle 35" width="112.752" height="5.346" transform="translate(1129.844 273.036)" fill="#f2f2f2"/>
    <rect id="Rectangle_36" data-name="Rectangle 36" width="112.752" height="5.346" transform="translate(1129.844 288.101)" fill="#f2f2f2"/>
    <g id="Group_1" data-name="Group 1" transform="translate(1158.277 307.612)">
      <ellipse id="Ellipse_4" data-name="Ellipse 4" cx="41.284" cy="4.379" rx="41.284" ry="4.379" transform="translate(0 51.659)" opacity="0.1"/>
      <path id="Path_31" data-name="Path 31" d="M730.923,430.2l-39.67,39.67L674.579,453.2a5.7,5.7,0,0,0-8.061,0l-.6-.9c-2.226,2.226-1.627,6.731.6,8.956l21.634,21.634a4.349,4.349,0,0,0,6.149,0l44.678-44.632c2.227-2.225,3.035-6.3.809-8.531h0C737.563,427.507,733.148,427.978,730.923,430.2Z" transform="translate(-650.408 -428.28)" fill="#64b857"/>
    </g>
  </g>
</svg>
