<?xml version="1.0" encoding="utf-8"?>
<!-- Generator: Adobe Illustrator 24.0.1, SVG Export Plug-In . SVG Version: 6.00 Build 0)  -->
<svg version="1.1"
	 id="b225c2ac-b0fc-4c56-8095-6e63207963c3" xmlns:cc="http://creativecommons.org/ns#" xmlns:dc="http://purl.org/dc/elements/1.1/" xmlns:inkscape="http://www.inkscape.org/namespaces/inkscape" xmlns:rdf="http://www.w3.org/1999/02/22-rdf-syntax-ns#" xmlns:sodipodi="http://sodipodi.sourceforge.net/DTD/sodipodi-0.dtd" xmlns:svg="http://www.w3.org/2000/svg"
	 xmlns="http://www.w3.org/2000/svg" xmlns:xlink="http://www.w3.org/1999/xlink" x="0px" y="0px" viewBox="0 0 911.7 391.3"
	 style="enable-background:new 0 0 911.7 391.3;" xml:space="preserve">
<style type="text/css">
	.st0{opacity:0.3;fill:#4A4A4A;enable-background:new    ;}
	.st1{fill:#F2F2F2;}
	.st2{fill:#2F2E41;}
	.st3{fill:#FFB9B9;}
	.st4{opacity:0.1;enable-background:new    ;}
	.st5{fill:#BADAF5;}
	.st6{fill:#A0616A;}
	.st7{fill:#4A4A4A;}
	.st8{fill:#F87979;}
	.st9{opacity:0.1;fill:#F87979;enable-background:new    ;}
	.st10{fill:#7DC2FE;}
</style>
<sodipodi:namedview  bordercolor="#666666" borderopacity="1" gridtolerance="10" guidetolerance="10" id="namedview601" inkscape:current-layer="b225c2ac-b0fc-4c56-8095-6e63207963c3" inkscape:cx="534.29156" inkscape:cy="495.29903" inkscape:pageopacity="0" inkscape:pageshadow="2" inkscape:window-height="715" inkscape:window-maximized="1" inkscape:window-width="1366" inkscape:window-x="-8" inkscape:window-y="-8" inkscape:zoom="0.82215606" objecttolerance="10" pagecolor="#ffffff" showgrid="false">
	</sodipodi:namedview>
<title  id="title408">hire</title>
<rect id="rect412" x="489.4" y="-2.9" class="st0" width="422.2" height="286"/>
<rect id="rect414" x="759.7" y="23.3" class="st1" width="125" height="136.3"/>
<rect id="rect416" x="562.1" y="23.3" class="st1" width="120.5" height="8.2"/>
<rect id="rect418" x="759.7" y="180.5" class="st1" width="42.7" height="8.2"/>
<rect id="rect420" x="761.2" y="195.4" class="st1" width="122" height="8.2"/>
<rect id="rect422" x="537.4" y="53.2" class="st1" width="173.7" height="8.2"/>
<rect id="rect424" x="537.4" y="76.4" class="st1" width="173.7" height="8.2"/>
<rect id="rect426" x="537.4" y="99.6" class="st1" width="173.7" height="8.2"/>
<rect id="rect428" x="537.4" y="122.8" class="st1" width="173.7" height="8.2"/>
<rect id="rect430" x="537.4" y="146" class="st1" width="173.7" height="8.2"/>
<rect id="rect432" x="537.4" y="169.2" class="st1" width="173.7" height="8.2"/>
<rect id="rect434" x="537.4" y="192.5" class="st1" width="173.7" height="8.2"/>
<path id="path436" class="st2" d="M778.5,101.1c1.9-1.3,3.9-2.3,6.1-3c13.7-5.1,28.1-8.2,42.7-9.3c12.7-0.9,26.4,0.2,36.3,8.1
	c1.5,1.1,2.8,2.6,3.7,4.3c1.2,2.7,0.9,5.8,0.5,8.8c-0.1,1.1-0.4,2.3-0.8,3.3c-1.3,2.5-4.6,3.4-7.5,3.1s-5.5-1.5-8.3-2.1
	c-1.7-0.3-3.5-0.5-5.3-0.5l-17.6-1c-11-0.6-22.1-1.2-32.8,1c-3.3,0.6-6.5,1.7-9.5,3.3c-2.5,1.4-4.1,3.4-6.4,0.8
	C775.4,113.4,773.2,105.2,778.5,101.1z"/>
<path id="path438" class="st1" d="M805.8,108.9c0,0,23.7-10.6,32.7,1.6s-4.9,7.4-4.9,7.4l-15.5,4.9l-17.2-3.3L805.8,108.9z"/>
<path id="path440" class="st3" d="M807,101.1c0,0,3.3,15.5,0.8,19.6s13.9,9.8,13.9,9.8l15.5-6.5c0,0-4.1-25.4,0-30.3L807,101.1z"/>
<path id="path442" class="st4" d="M807,101.1c0,0,3.3,15.5,0.8,19.6s13.9,9.8,13.9,9.8l15.5-6.5c0,0-4.1-25.4,0-30.3L807,101.1z"/>
<path id="path444" class="st3" d="M844.7,85.5c0,13.5-11,24.5-24.5,24.5c-1.5,0-2.9-0.1-4.4-0.4c-13.3-2.4-22.2-15.2-19.8-28.5
	s15.2-22.2,28.5-19.8C836.2,63.5,844.7,73.7,844.7,85.5z"/>
<path id="path446" class="st1" d="M859.5,160.3h-78.3l1.8-7.7l7.7-33.5l8.9-6l0,0l4.2-2.8l2.1-1.4c0,0,1.2,0.6,2.6,1.3
	c0.4,0.2,0.8,0.5,1.3,0.7c0,0,0,0,0,0c0.7,0.4,1.3,0.8,1.9,1.3c0.1,0.1,0.2,0.2,0.3,0.3c1.6,1.6,6.1,9.8,13.6,5.6
	c0.4-0.2,0.7-0.4,1.1-0.7c2-1.4,3.8-2.8,5.6-4.4c1.6-1.4,2.6-2.6,3.4-3.3c0.4-0.4,0.8-0.7,1.3-0.9c0.4-0.2,0.7-0.3,1.1-0.3
	c2.5,0,5.7,4.9,5.7,4.9l0.1,0.3l0,0l10.3,31L859.5,160.3z"/>
<path id="path448" class="st2" d="M781.2,160.3h23.7c0.1-2.7-0.1-5.5-0.4-8.2c-0.7-5.5-2.5-10.7-3.6-16.1c-1-4.7-1.5-9.6-1.4-14.4
	c0-0.7,0-1.3,0.1-2c0.1-1.5,0.5-3,1.3-4.4c0.6-0.9,1.3-1.6,1.9-2.4c0.2-0.3,0.4-0.6,0.5-0.9v0c0.1-0.1,0.1-0.3,0.2-0.5
	c0.1-0.4,0.2-0.7,0.2-1.1c0.1-2.5-2.1-4.9-4.5-5.9c-3.4-1.3-7.1-1.4-10.6-0.4c-3.5,1-6.8,2.4-10,4.1c-1.1,0.5-2.1,1.1-3.2,1.7
	c-1.2,0.7-2.4,1.6-3.3,2.5c-2.5,2.6-3.7,6.3-4.6,9.8c-0.9,2.7-1.1,5.6-0.9,8.4c0,0.1,0,0.2,0,0.3c0.9,4.7,4.7,8.2,6.7,12.5
	c2.4,5,2.2,10.8,1.3,16.2c0,0.3-0.1,0.6-0.1,0.8L781.2,160.3L781.2,160.3z"/>
<path id="path450" class="st2" d="M877.8,130.3c-3,9.8-5.1,19.8-6.5,30h-33.8c-0.9-2.4-1.8-4.8-2.6-7.2c-0.7-1.8-1.3-3.7-1.8-5.6
	c-0.5-2.2-0.8-4.4-0.8-6.7c0-0.5,0-1.1,0.1-1.6c0,0,0,0,0,0c0.2-2.8,0.9-5.6,2-8.3c0.5-1.2,1.1-2.4,1.7-3.5c1.6-2.8,3.5-5.5,5.2-8.3
	c1.1-1.7,2-3.5,2.7-5.3c0,0,0,0,0,0c1-2.4,1.5-4.9,1.5-7.4c-0.1-3.3-5.6-9.1,0.4-8.5c8.3,0.7,15.4,5.5,21.9,11
	c1.7,1.5,3.4,3,5.1,4.4c2.6,2.3,5.3,4.8,6,8.2c0.1,0.5,0.2,1.1,0.2,1.6C879.1,125.4,878.6,127.9,877.8,130.3z"/>
<path id="path452" class="st3" d="M827.1,121.3c-0.9-2.3-2.2-4.4-3.8-6.2c-1.7-1.4-3.7-2.5-5.9-3c-2.8-0.8-5.7-1.2-8.6-1.2
	c-3.5,0-7.5,0.9-9,4c-1.2,2.5-0.3,5.4,0.9,7.9c0.5,1.3,1.3,2.4,2.4,3.3c1.5,1,3.4,1,5.2,1.3c2.7,0.7,5.3,1.9,7.7,3.5l6.1,3.7
	l10.4,6.3c-0.3-0.2-0.2-7.3-0.5-8.5C831,128.6,828.7,124.9,827.1,121.3z"/>
<path id="path454" class="st2" d="M844,72.8c-0.4-1.5-1.4-2.7-2.7-3.5c0.1-1.6-0.1-3.1-0.6-4.7c-1.5-4.4-5-4.1-8.3-6.1
	c-1.4-0.8-1.4-1.6-2.1-3c-1-1.8-2.5-3.3-4.2-4.3c-2.1-1.4-4.4-2.8-6.9-2.9c-5.3-0.4-9.4,4.6-14.4,6.2c-2.2,0.7-4.6,0.7-6.9,1.4
	s-4.5,2.3-4.8,4.6c-0.2,1.1,0.1,2.2,0,3.2c-0.3,2.1-2.2,3.6-3.4,5.4c-2.8,3.9-2.4,9.3-0.2,13.5c0.5,0.9,1,1.7,1.6,2.5
	c0.2,2,0.8,3.9,1.7,5.7c2.2,4.2,6,7.3,10,10c-0.3-1.4-0.5-2.8-0.6-4.2c-0.1-0.5,0-1,0.2-1.4c0.4-0.9,1.6-1.2,2.5-1.7
	c1.8-1,2.6-3.4,2.6-5.5s-0.4-4.2-0.2-6.4c0-1,0.4-1.9,1.2-2.6c0.7-0.4,1.5-0.6,2.2-0.5c3.8-0.2,7.7-0.2,11.1-2
	c1.1-0.7,2.2-1.3,3.4-1.7c2.8-0.7,5.7,1.2,7.4,3.7s2.4,5.3,4,7.8s4.1,4.7,7,4.4c0.3,0,0.6-0.1,0.9-0.4c0.1-0.2,0.2-0.5,0.2-0.7
	l0.2-11.1C844.7,76.5,844.5,74.6,844,72.8z"/>
<path id="path456" class="st2" d="M779.3,147.1c0.5,4.4,0.9,8.8,1,13.2h-20.6V143c0.1-0.4,0.2-0.8,0.4-1.2c1.3-4,4-7.3,6.3-10.7
	c0.1-0.2,0.2-0.3,0.3-0.5c1-1.5,1.9-3,2.6-4.6c0.3-0.8,0.9-4.6,1.4-5c2.4-1.4,4.4,4.6,4.8,6c1.2,4.8,2.2,9.6,3,14.5
	C778.8,143.3,779.1,145.2,779.3,147.1z"/>
<path id="path458" class="st2" d="M883.4,160.3h-47.3c-0.4-1-0.8-1.9-1.2-2.8c-2.9-6.7-6.8-12.9-11.3-18.6c-0.8-0.8-1.2-1.7-1.4-2.8
	c0-0.4,0.1-0.9,0.3-1.3c0.7-1.3,2.6-2.1,4.2-2.8c1.6-0.6,3.1-1.6,4.3-2.7c1.1-1,2-2.3,2.5-3.7c0.1-0.4,0.2-0.8,0.3-1.3
	c0.2,0.3,0.4,0.6,0.7,0.9c0.5,0.7,1.1,1.4,1.6,2.1c5.2,6.7,11,13.4,18.2,17.4c1.9,1.1,3.9,1.9,6,2.5c0.4,0.2,0.9,0.2,1.3,0
	c0.3-0.3,0.5-0.6,0.5-1c0.6-2.7,0.9-5.5,1.3-8.2c0.9-5,2.5-9.8,4.9-14.2c1.3-2.5,5.7-11.6,8.5-5.9c0.8,1.7,1.6,3.3,2.4,5
	c0.5,1.1,1,2.1,1.5,3.2c1.9,3.3,2.7,7.2,2.5,11C883.2,144.8,883.3,152.5,883.4,160.3z"/>
<path id="path460" class="st4" d="M781.2,160.3h4.1l-2.3-7.7l-3.3-11.1c0,1.9-0.1,3.8-0.3,5.6c-0.5,3.9-1.6,7.6-3.3,11.1
	c-0.3,0.7-0.7,1.4-0.9,2.1L781.2,160.3L781.2,160.3z"/>
<path id="path462" class="st4" d="M864.6,136.6c-0.6,1.6-0.1,3.3,0.4,4.9c1.3,4.6,1.9,9.4,1.8,14.2c0.1,0.3-0.1,0.6-0.4,0.6
	c-0.1,0-0.1,0-0.2,0c-1.9,0.1-4,0.1-5.3-1.3L864.6,136.6z"/>
<rect id="rect464" class="st0" width="422.2" height="286"/>
<rect id="rect466" x="27" y="26.2" class="st1" width="125" height="136.3"/>
<rect id="rect468" x="229.1" y="26.2" class="st1" width="120.5" height="8.2"/>
<rect id="rect470" x="28.4" y="183.4" class="st1" width="42.7" height="8.2"/>
<rect id="rect472" x="28.4" y="198.4" class="st1" width="122" height="8.2"/>
<rect id="rect474" x="200.6" y="56.1" class="st1" width="173.7" height="8.2"/>
<rect id="rect476" x="200.6" y="79.4" class="st1" width="173.7" height="8.2"/>
<rect id="rect478" x="200.6" y="102.6" class="st1" width="173.7" height="8.2"/>
<rect id="rect480" x="200.6" y="125.8" class="st1" width="173.7" height="8.2"/>
<rect id="rect482" x="200.6" y="149" class="st1" width="173.7" height="8.2"/>
<rect id="rect484" x="200.6" y="172.2" class="st1" width="173.7" height="8.2"/>
<rect id="rect486" x="200.6" y="195.4" class="st1" width="173.7" height="8.2"/>
<path id="path488" class="st5" d="M148.6,163.2h-16.3c-1.3-3.4-2.4-6.8-3.3-10.2c-0.6-4.1-2.5-7.8-5.3-10.8c-0.9-1-1.6-2-2.3-3.1
	c-1.4-2.7-1.9-5.8-1.4-8.8c0.1-0.8,0.2-1.7,0.4-2.5c0.7-3.2,1.9-6.3,2.9-9.4c0.4-1.3,1.6-2.2,2.9-2.4c1.1-0.2,2.2-0.1,3.2,0.4
	c0.2,0.1,0.4,0.2,0.6,0.3c1.8,1.1,2.7,3.3,3.4,5.3c3.4,9.1,6.8,18.2,10.2,27.3c0.7,1.8,1.3,3.5,2,5.3c1,2.6,1.9,5.2,2.8,7.9
	C148.4,162.7,148.5,162.9,148.6,163.2z"/>
<path id="path490" class="st2" d="M80.9,43.4c-4,1.4-7.7,4.6-8.5,8.7c-0.4,1.9-0.1,4-0.5,5.9c-0.7,4.5-4.3,8-7.6,11.2
	s-6.7,6.9-6.9,11.5c-0.3,5,3.4,9.7,2.7,14.7c-0.7,5.8-6.8,9.5-8.4,15.2c-1,3.8,0.2,7.8,2.3,11.1c3.9,6.3,10.5,10.6,17.6,12.9
	s14.6,2.8,22,2.9c9,0.1,18.9-0.7,25.6-6.6c3.9-3.4,6.3-8.2,6.8-13.4c0.6-6.9-2.2-14-0.2-20.7c1.3-4.2,4.4-8,3.9-12.3
	c-0.5-4.2-4.2-7.3-6.7-10.7c-2.4-3.2-3.8-7-5.2-10.7L113,50.3c-0.9-2.5-2-5.1-4.1-6.8c-4-3.1-10.3-2.5-15-1.8
	C89.6,42.3,85,42,80.9,43.4z"/>
<path id="path492" class="st6" d="M84.7,85.4c0,0,0.5,14.2-0.9,15.6s5.7,10.9,5.7,10.9l12.8-0.5l6.6-5.2l-5.7-7.6
	c0,0-2.4-12.3-0.5-15.1S84.7,85.4,84.7,85.4z"/>
<path id="path494" class="st4" d="M84.7,85.4c0,0,0.5,14.2-0.9,15.6s5.7,10.9,5.7,10.9l12.8-0.5l6.6-5.2l-5.7-7.6
	c0,0-2.4-12.3-0.5-15.1S84.7,85.4,84.7,85.4z"/>
<circle id="circle496" class="st6" cx="92.5" cy="73.8" r="17"/>
<path id="path498" class="st5" d="M101.2,163.2H115c0.5-0.9,1-1.9,1.6-2.8v0c0.6-1.1,1.5-2,2.5-2.6c0.7-0.3,1.3-0.7,1.9-1.1
	c0.6-0.6,0.9-1.3,1.1-2.1c1-3,1.5-6.1,1.6-9.2c0-1,0-2.1,0.1-3.2c0-0.8,0.1-1.6,0.3-2.4c0.5-1.6,1.2-3.2,2-4.6
	c1.9-3.4,3.7-6.8,5.6-10.2c0.3-1,0.5-2,0.4-3c0-1.4-0.5-2.7-1.2-3.8c-0.3-0.5-0.5-0.9-0.8-1.4c-1.2-1.8-2.5-3.6-4-5.1
	c-3.2-3.4-7.1-6-11.4-7.7c-0.5-0.2-1.1-0.4-1.5-0.7c-0.6-0.5-1-1-1.4-1.7c-1.5-2.3-3.3-4.8-6-4.6c-0.9-0.4-1.9-0.5-2.9-0.2
	c-0.1,0-0.3,0.1-0.4,0.1c-1,0.5-2,1-3,1.6c-2.5,1.3-5.3,1.8-8.1,1.5c-0.3,0-0.6-0.1-0.9-0.2c-0.3-0.2-0.6-0.4-0.9-0.7
	c-1.4-1.1-3.3-1.4-5-0.8c-0.8,0.3-1.5,0.8-2,1.4c-0.5,0.6-0.8,1.4-1.4,2c-1.4,1.5-3.8,1.6-5.8,1.6c-4.3-0.1-8.6,0.3-12.8,1.2
	c-3.7,0.8-7.1,2.5-10.1,4.9l0,0c-0.4,0.3-0.8,0.7-1.2,1.1c-0.9,0.8-1.5,1.8-2,2.8c-0.6,1.5-0.5,3.1-1,4.6c-0.6,1.7-1.8,3-2.3,4.7
	c-0.4,1.3-0.3,2.7-1,3.8c0,0,0.1,0,0.1,0.1c2.7,2.4,5.1,5.5,7.8,7.9c1.6,1.2,2.9,2.7,4,4.4c0.2,0.4,0.4,0.8,0.5,1.2
	c0.3,1.4,0.4,2.9,0.4,4.4c0.3,7,4.1,13.3,8.4,18.9c0.1,0.1,0.2,0.2,0.3,0.3L101.2,163.2z"/>
<path id="path500" class="st5" d="M56.8,138.4c-0.6,4.5-1.3,8.9-1.9,13.4c-0.3,2.4-0.7,4.8-1.3,7.1c-0.4,1.4-0.9,2.9-1.2,4.3H32.8
	c0-0.8,0.1-1.6,0.2-2.4c0.5-2.9,1.3-5.7,2.4-8.4c2.3-6.1,4.5-12.3,6.8-18.4c1-2.6,1.8-5.3,2.9-7.9c0.2-0.5,0.4-1,0.6-1.4
	c1.1-2.5,4.3-1.5,6.6-1.1c0.6,0.1,1.3,0.3,1.8,0.5c0.7,0.4,1.3,1,1.7,1.6c2.2,3.3,1.7,7.6,1.2,11.5C56.9,137.6,56.8,138,56.8,138.4z
	"/>
<path id="path502" class="st2" d="M116.6,160.4c0,0.1,0.4,1.2,0.9,2.8h-16.3C109.2,161.8,116.6,160.4,116.6,160.4L116.6,160.4z"/>
<ellipse id="ellipse504" class="st2" cx="93.9" cy="63.9" rx="18.4" ry="9.9"/>
<rect id="rect506" x="270.5" y="105.3" class="st7" width="422.2" height="286"/>
<rect id="rect510" x="297.4" y="131.5" class="st1" width="125" height="136.3"/>
<path id="path512" class="st2" d="M337.7,194c0.8,0.3,1.7-0.1,2.2-0.9c1.7-2.7-1.5-6.2-0.8-9.4c0.6-2.5,3.4-4,4-6.5
	c0.6-2.4-1.2-5.2,0-7.4c0.9-1.7,3.3-2.2,5.2-1.9s3.8,1.2,5.8,1.3c2.6,0.2,5.1-1,7.7-1.6s5.7-0.3,7.2,1.8c1.9,2.8,0,6.6,0.6,9.9
	c0.5,2.6,2.7,4.8,2.8,7.5c0,1-2.5,0.2-2.3,1.1s-1,0.1-0.1,0c0.8-0.2,1.4-0.9,1.4-1.7c0.1-0.8,1.6-1,1.6-1.8c0-1.9,3.3-0.6,3.9-2.4
	c1.3-4.1,1-8.6-0.7-12.5c-0.9-1.6-1.6-3.3-2.1-5.1c-0.5-2.5,0.3-5.1-0.5-7.5c-1.1-3.2-4.7-4.8-8.1-5.2s-6.8,0.3-10.1-0.2
	c-3-0.4-5.9-1.7-8.9-1.5c-3.6,0.2-6.8,2.6-9.3,5.2s-4.6,5.6-7.5,7.9c-0.9,0.6-1.7,1.3-2.4,2.1c-1.5,1.8-1.6,4.3-1.2,6.6
	s1.3,4.4,1.7,6.7c0.3,2.1,0.2,4.3,0.4,6.4c0,2.2,0.7,4.3,1.9,6.1c1.1,1.4,2.7,2.3,4.5,2.3c0.6,0,1.1-0.5,1.7-0.4
	C336.7,193,337,193.7,337.7,194z"/>
<path id="path514" class="st8" d="M310.2,268.5c0.5-7.5,1-13.1,1-13.1l3.5-9.3l11.3,22.4L310.2,268.5z"/>
<path id="path516" class="st9" d="M310.2,268.5c0.5-7.5,1-13.1,1-13.1l3.5-9.3l11.3,22.4L310.2,268.5z"/>
<path id="path518" class="st6" d="M336.5,194.8c0,0,10.6,26.9,4.5,32s34-8.7,34-8.7l-1-3.5c0,0-13.1-5.1-6.7-19.9
	S336.5,194.8,336.5,194.8z"/>
<path id="path520" class="st4" d="M336.5,194.8c0,0,10.6,26.9,4.5,32s34-8.7,34-8.7l-1-3.5c0,0-13.1-5.1-6.7-19.9
	S336.5,194.8,336.5,194.8z"/>
<circle id="circle522" class="st6" cx="351.6" cy="183.3" r="22.4"/>
<path id="path524" class="st8" d="M406,231.7c0,0-0.1,1.8-0.2,4.9c-0.3,6.3-0.9,18.2-1.5,31.9h-87c-2.3-3-4.1-6.4-5.5-9.9
	c-0.4-1-0.6-2.1-0.7-3.2c-0.5-8.5,7.1-20.4,12.5-21.5c6.1-1.3,17.6-13.5,17.6-13.5c0.1,0.9,0.6,1.8,1.5,2.2v0c0.9,0.5,2,0.7,3,0.7
	c3.8,0,20.3-7.6,25.6-10.1c1-0.5,1.6-0.8,1.6-0.8c6.1,2.6,12.4,4.8,18.9,6.4C398.5,220.5,403.8,225.3,406,231.7z"/>
<path id="path526" class="st2" d="M333.9,191.8c0.8,0.3,1.7-0.1,2.2-0.9c1.7-2.7-1.5-6.2-0.8-9.4c0.6-2.5,3.4-4,4-6.5
	c0.6-2.4-1.2-5.2,0-7.4c0.9-1.7,3.3-2.2,5.2-1.9s3.8,1.2,5.8,1.3c2.6,0.2,5.1-1,7.7-1.6s5.7-0.3,7.2,1.8c1.9,2.8,0,6.6,0.6,9.9
	c0.5,2.6,6.6,4.5,7.2,2.7c1.3-4.1,1-8.6-0.7-12.5c-0.9-1.6-1.6-3.3-2.1-5.1c-0.5-2.5,0.3-5.1-0.5-7.5c-1.1-3.2-4.7-4.8-8.1-5.2
	s-6.8,0.3-10.1-0.2c-3-0.4-5.9-1.7-8.9-1.5c-3.6,0.2-6.8,2.6-9.3,5.2s-4.6,5.6-7.5,7.9c-0.9,0.6-1.7,1.3-2.4,2.1
	c-1.5,1.8-1.6,4.3-1.2,6.6s1.3,4.4,1.7,6.7c0.3,2.1,0.2,4.3,0.4,6.4c0,2.2,0.7,4.3,1.9,6.1c1.1,1.4,2.7,2.3,4.5,2.3
	c0.6,0,1.1-0.5,1.7-0.4C332.8,190.8,333.2,191.5,333.9,191.8z"/>
<path id="path528" class="st4" d="M417.1,268.5h-25.4c-1.9-14.2-3.5-29-3.5-29l5.1-2.2l10.4-5.6c0,0,0.8,1.8,2,4.9
	C408.4,243.1,413.2,255.6,417.1,268.5z"/>
<path id="path530" class="st8" d="M419.4,268.5h-28.6c-4.2-15.5-8.4-32.3-8.4-32.3l10.9-8l12.8,3.5
	C406,231.7,413.5,249.5,419.4,268.5z"/>
<rect id="rect532" x="499.6" y="131.5" class="st10" width="120.5" height="8.2"/>
<rect id="rect534" x="298.9" y="288.7" class="st10" width="42.7" height="8.2"/>
<rect id="rect536" x="298.9" y="303.7" class="st10" width="122" height="8.2"/>
<rect id="rect538" x="471.1" y="161.4" class="st1" width="173.7" height="8.2"/>
<rect id="rect540" x="471.1" y="184.6" class="st1" width="173.7" height="8.2"/>
<rect id="rect542" x="471.1" y="207.8" class="st1" width="173.7" height="8.2"/>
<rect id="rect544" x="471.1" y="231" class="st1" width="173.7" height="8.2"/>
<rect id="rect546" x="471.1" y="254.3" class="st1" width="173.7" height="8.2"/>
<rect id="rect548" x="471.1" y="277.5" class="st1" width="173.7" height="8.2"/>
<rect id="rect550" x="471.1" y="300.7" class="st1" width="173.7" height="8.2"/>
</svg>
