<svg xmlns="http://www.w3.org/2000/svg" xmlns:xlink="http://www.w3.org/1999/xlink" width="687.848" height="678.452" viewBox="0 0 687.848 678.452"><defs><linearGradient id="a" x1="0.5" y1="1" x2="0.5" gradientUnits="objectBoundingBox"><stop offset="0" stop-color="gray" stop-opacity="0.251"/><stop offset="0.54" stop-color="gray" stop-opacity="0.122"/><stop offset="1" stop-color="gray" stop-opacity="0.102"/></linearGradient><clipPath id="d"><rect width="143.79" height="96.93" transform="translate(202.54 262.18)" fill="#7dfe9f"/></clipPath><clipPath id="g"><rect width="143.79" height="96.93" transform="translate(202.54 468.88)" fill="#fff"/></clipPath><linearGradient id="h" x1="0.518" y1="1.092" x2="0.518" y2="-0.251" xlink:href="#a"/><linearGradient id="i" x1="0.6" y1="0.66" x2="0.6" y2="0.086" xlink:href="#a"/><linearGradient id="j" x1="0.5" y1="1" x2="0.5" gradientUnits="objectBoundingBox"><stop offset="0" stop-color="#b3b3b3" stop-opacity="0.251"/><stop offset="0.54" stop-color="#b3b3b3" stop-opacity="0.102"/><stop offset="1" stop-color="#b3b3b3" stop-opacity="0.051"/></linearGradient><linearGradient id="k" x1="0.5" y1="0.999" x2="0.5" gradientUnits="objectBoundingBox"><stop offset="0" stop-opacity="0.122"/><stop offset="0.55" stop-opacity="0.09"/><stop offset="1" stop-opacity="0.02"/></linearGradient><linearGradient id="l" x1="0.5" y1="1" x2="0.5" y2="0" xlink:href="#k"/></defs><g transform="translate(-341.15 -251.453)"><g transform="translate(187 151.017)"><g opacity="0.5"><rect width="448.44" height="602.6" transform="translate(154.15 130.21)" fill="url(#a)"/></g><rect width="434.43" height="581.58" transform="translate(159.99 138.39)" fill="#f2f2f2"/><rect width="149.48" height="4.67" transform="translate(193.86 162.91)" fill="#e0e0e0"/><rect width="149.48" height="4.67" transform="translate(193.86 183.93)" fill="#7dc2fe" opacity="0.7"/><rect width="149.48" height="4.67" transform="translate(365.53 162.91)" fill="#e0e0e0"/><rect width="149.48" height="4.67" transform="translate(388.88 296.05)" fill="#e0e0e0"/><rect width="149.48" height="4.67" transform="translate(392.39 308.89)" fill="#e0e0e0"/><rect width="149.48" height="4.67" transform="translate(399.4 321.74)" fill="#e0e0e0"/><rect width="149.48" height="4.67" transform="translate(388.88 502.75)" fill="#e0e0e0"/><rect width="149.48" height="4.67" transform="translate(392.39 515.6)" fill="#e0e0e0"/><rect width="149.48" height="4.67" transform="translate(399.4 528.44)" fill="#e0e0e0"/><g opacity="0.5"><rect width="158.82" height="161.16" transform="translate(195.03 248.16)" fill="url(#a)"/></g><rect width="156.32" height="154.15" transform="translate(196.03 251.67)" fill="#f5f5f5"/><g opacity="0.5"><rect width="145.8" height="100.43" transform="translate(201.54 261.01)" fill="url(#a)"/></g><rect width="143.79" height="96.93" transform="translate(202.54 262.18)" fill="#fff"/><g clip-path="url(#d)"><path d="M190.35,355.61l36.21-56.06,15.18,24.52,32.7-33.86,28.03,33.86,24.52-50.21,63.06,100.43-204.37-7.01Z" fill="#7dfe9f" opacity="0.4"/><circle cx="10.51" cy="10.51" r="10.51" transform="translate(207.87 265.68)" fill="#7dfe9f" opacity="0.4"/></g><g opacity="0.5"><rect width="158.82" height="161.16" transform="translate(195.03 454.87)" fill="url(#a)"/></g><rect width="156.32" height="154.15" transform="translate(196.03 458.37)" fill="#f5f5f5"/><g opacity="0.5"><rect width="145.8" height="100.43" transform="translate(201.54 467.72)" fill="url(#a)"/></g><rect width="143.79" height="96.93" transform="translate(202.54 468.88)" fill="#fff"/><g clip-path="url(#g)"><path d="M190.35,562.31l36.21-56.06,15.18,24.53,32.7-33.87,28.03,33.87,24.52-50.22,63.06,100.43-204.37-7Z" fill="#bdbdbd" opacity="0.4"/><circle cx="10.51" cy="10.51" r="10.51" transform="translate(207.87 472.39)" fill="#bdbdbd" opacity="0.4"/></g><g opacity="0.5"><rect width="602.6" height="448.44" transform="translate(219.986 691.478) rotate(-78.76)" fill="url(#h)"/></g><rect width="581.58" height="434.43" transform="translate(228.214 680.02) rotate(-78.76)" fill="#fff"/><rect width="308.31" height="4.67" transform="translate(367.319 142.078) rotate(11.24)" fill="#e0e0e0"/><rect width="308.31" height="4.67" transform="translate(281.275 575.059) rotate(11.24)" fill="#e0e0e0"/><rect width="238.24" height="4.67" transform="translate(276.03 601.394) rotate(11.24)" fill="#e0e0e0"/><rect width="88.75" height="4.67" transform="translate(270.797 627.747) rotate(11.24)" fill="#6c63ff" opacity="0.7"/><rect width="154.15" height="4.67" transform="translate(362.075 168.428) rotate(11.24)" fill="#7dc2fe" opacity="0.7"/><rect width="277.94" height="4.67" transform="translate(356.851 194.77) rotate(11.24)" fill="#e0e0e0"/><rect width="67.73" height="4.67" transform="translate(351.611 221.12) rotate(11.24)" fill="#3ad29f" opacity="0.7"/><rect width="308.31" height="4.67" transform="translate(346.38 247.465) rotate(11.24)" fill="#e0e0e0"/><g opacity="0.5"><rect width="158.82" height="276.77" transform="translate(342.067 514.518) rotate(-78.76)" fill="url(#i)"/></g><rect width="273.27" height="155.32" transform="translate(374.561 360.231) rotate(11.24)" fill="#fff"/><rect width="308.31" height="4.67" transform="translate(341.145 273.818) rotate(11.24)" fill="#e0e0e0"/><rect width="33.87" height="113.28" transform="translate(398.533 386.426) rotate(11.24)" fill="#7dc2fe"/><rect width="33.87" height="75.91" transform="translate(450.809 434.919) rotate(11.24)" fill="#3ad29f"/><rect width="33.87" height="40.87" transform="translate(503.55 481.121) rotate(11.24)" fill="#f55f44"/><rect width="33.87" height="82.92" transform="translate(571.308 451.722) rotate(11.24)" fill="#fdd835"/><path d="M880.45,410.55a155.89,155.89,0,0,0-223.11-1.68c-59,59.48-60,156.33-2.29,217.07A155.89,155.89,0,0,0,854.95,648L967.64,765.21a7.59,7.59,0,0,0,10.73.21l28.08-27a7.59,7.59,0,0,0,.21-10.73L894,610.49a155.9,155.9,0,0,0-13.55-199.94ZM845.35,599a111.5,111.5,0,1,1,3.1-157.66A111.5,111.5,0,0,1,845.35,599Z" transform="translate(-179 -60.54)" fill="url(#j)"/><path d="M685.49,487.6c-12.54,0-12.56,19.49,0,19.49S698.05,487.6,685.49,487.6Z" transform="translate(-179 -60.54)" fill="url(#k)"/><path d="M772.9,425.17c-33.75-.76-64.46,16.17-80.79,41.73-5.33,8.34,9.8,15.71,15.1,7.41,13.52-21.16,39.21-34.6,67-33.9,29.12.73,55.62,17.39,69.65,40.51,5.32,8.77,19.27.8,14-7.92C840.8,445,807.76,426,772.9,425.17Z" transform="translate(-179 -60.54)" fill="url(#l)"/><path d="M892.68,404.63a155.89,155.89,0,0,0-223.11-1.68c-59,59.48-60,156.33-2.29,217.07a155.89,155.89,0,0,0,199.9,22.05L979.86,759.29a7.59,7.59,0,0,0,10.73.21l28.08-27a7.59,7.59,0,0,0,.21-10.73L906.19,604.56a155.9,155.9,0,0,0-13.51-199.93ZM857.58,593a111.5,111.5,0,1,1,3.1-157.66A111.5,111.5,0,0,1,857.58,593Z" transform="translate(-179 -60.54)" fill="#5d5d5d"/><path d="M697.72,481.67c-12.54,0-12.56,19.49,0,19.49S710.28,481.67,697.72,481.67Z" transform="translate(-179 -60.54)" fill="#6c63ff"/><path d="M785.13,419.25c-33.75-.76-64.46,16.17-80.79,41.73-5.33,8.34,9.8,15.71,15.1,7.41,13.52-21.16,39.21-34.6,67-33.9,29.12.73,55.62,17.39,69.65,40.51,5.32,8.77,19.27.8,14-7.92C853,439,820,420,785.13,419.25Z" transform="translate(-179 -60.54)" fill="#5d5d5d"/></g></g></svg>
