<?xml version="1.0" encoding="utf-8"?>
<!-- Generator: Adobe Illustrator 24.0.1, SVG Export Plug-In . SVG Version: 6.00 Build 0)  -->
<svg version="1.1" id="a72efc3b-c8ca-4ac7-8d6e-ec44610d5e5f"
	 xmlns="http://www.w3.org/2000/svg" xmlns:xlink="http://www.w3.org/1999/xlink" x="0px" y="0px" viewBox="0 0 1177.8 836.9"
	 style="enable-background:new 0 0 1177.8 836.9;" xml:space="preserve">
<style type="text/css">
	.st0{opacity:0.1;enable-background:new    ;}
	.st1{opacity:3.000000e-02;fill:none;stroke:#FFFFFF;stroke-miterlimit:10;enable-background:new    ;}
	.st2{fill:#FFFFFF;}
	.st3{fill:#3F3D56;}
	.st4{fill:url(#SVGID_1_);}
	.st5{fill:#ABFFA5;}
	.st6{fill:url(#SVGID_2_);}
	.st7{fill:#7CFCFF;}
	.st8{fill:url(#SVGID_3_);}
	.st9{fill:url(#SVGID_4_);}
	.st10{fill:url(#SVGID_5_);}
	.st11{fill:url(#SVGID_6_);}
	.st12{fill:url(#SVGID_7_);}
	.st13{fill:url(#SVGID_8_);}
	.st14{fill:url(#SVGID_9_);}
	.st15{fill:#FFFFA5;}
	.st16{fill:url(#SVGID_10_);}
	.st17{fill:url(#SVGID_11_);}
	.st18{fill:url(#SVGID_12_);}
	.st19{fill:url(#SVGID_13_);}
	.st20{fill:url(#SVGID_14_);}
	.st21{fill:url(#SVGID_15_);}
	.st22{fill:url(#SVGID_16_);}
	.st23{fill:#FF69B4;}
	.st24{fill:url(#SVGID_17_);}
	.st25{fill:url(#SVGID_18_);}
	.st26{fill:url(#SVGID_19_);}
	.st27{fill:url(#SVGID_20_);}
	.st28{fill:url(#SVGID_21_);}
	.st29{fill:url(#SVGID_22_);}
	.st30{fill:url(#SVGID_23_);}
	.st31{fill:#EE8E9E;}
	.st32{fill:#65617D;}
	.st33{opacity:5.000000e-02;enable-background:new    ;}
	.st34{fill:#E8EAF2;}
	.st35{fill:#303D5C;}
	.st36{fill:#E15959;}
	.st37{fill:url(#SVGID_24_);}
	.st38{fill:#444053;}
	.st39{fill:#EFB7B9;}
	.st40{fill:#63B6FF;}
	.st41{opacity:0.1;}
	.st42{opacity:0.2;fill:#6C63FF;enable-background:new    ;}
</style>
<title>scrum board</title>
<path class="st0" d="M1177.8,537.5c0,22.6-2.3,45.2-7.1,67.3c-1.6,7.4-3.4,14.7-5.5,21.8c-2.6,8.9-5.6,17.5-8.9,25.8
	c-1.7,4.2-3.5,8.4-5.4,12.5c0.1,23.1-4.1,46-12.2,67.6c-14.3,38-40.5,69-73.2,87.1c-20.4,11.4-43.3,17.3-66.6,17.4H223.6
	c-41.4,0-79.9-14.7-111.3-39.8c-9.2-7.4-17.8-15.5-25.6-24.3c-10.9-12.3-20.3-25.8-28.1-40.3C40.4,699.1,30,659.9,30,617.8
	C11,579.5,0,533.5,0,484c0-62.4,17.6-119.3,46.4-162.4c6-8.9,12.5-17.4,19.7-25.3c6.9-7.7,14.5-14.8,22.5-21.3
	c6.3-5.1,13-9.7,20-13.9c2.9-1.7,5.8-3.3,8.7-4.8c2.6-1.3,5.2-2.6,7.9-3.7c3.2-1.4,6.4-2.7,9.7-3.9s6.5-2.2,9.6-3.1
	c4.7-1.3,9.4-2.4,14.3-3.2c4-0.7,8-1.2,12-1.5c3.2-0.3,6.4-0.4,9.6-0.5c0.6,0,1.2,0,1.8,0c3.6,0,7.1,0.2,10.6,0.4
	c0.4-0.9,0.8-1.7,1.1-2.6c1.4-3.1,2.9-6.1,4.3-9.2c0,0,0-0.1,0-0.1c0.3-0.5,0.5-1,0.8-1.5c1.2-2.5,2.4-4.9,3.7-7.3
	c0.6-1.1,1.1-2.2,1.7-3.3c0.1-0.3,0.3-0.5,0.4-0.8c0.6-1.1,1.2-2.3,1.8-3.4c3.1-5.7,6.3-11.3,9.6-16.8c0.3-0.5,0.6-0.9,0.9-1.4
	c0.5-0.9,1-1.7,1.6-2.5c1.4-2.2,2.8-4.5,4.2-6.7c1-1.6,2-3.1,3.1-4.7c2.6-3.9,5.3-7.8,8-11.6s5.6-7.6,8.5-11.4
	c0.4-0.5,0.8-1,1.2-1.6l4.3-5.4l0,0l0.6-0.7l0,0l1.5-1.9c2.3-2.8,4.6-5.6,7-8.3c11.9-13.7,24.7-26.6,38.3-38.6
	c0.5-0.5,1.1-1,1.6-1.4c2.5-2.2,5.1-4.4,7.7-6.5c14.1-11.7,28.9-22.4,44.4-32c1.1-0.7,2.1-1.3,3.2-2c13.7-8.4,27.9-15.9,42.5-22.6
	c8-3.7,16.1-7.1,24.3-10.2c5.4-2.1,10.9-4,16.4-5.8c8.5-2.8,17.1-5.4,25.9-7.7C487,6.4,513.2,2.3,539.6,0.7c8-0.5,16.1-0.7,24.3-0.7
	c39.6,0,79,5.7,117,17.1c0.7,1.3,2.1,2.2,3.6,2.2h3.4c1.5,0.5,2.9,0.9,4.4,1.4c8.2,2.7,16.2,5.7,24.1,8.9l2,0.8
	c37.8,15.6,73.1,36.8,104.6,62.9c2.3,1.9,4.6,3.9,6.9,5.9c2.8-2,5.6-4,8.4-5.9c10.9-7.2,22.6-12.9,34.9-17.2
	c25.2-8.7,52.4-9.9,78.2-3.5c33.3,8.2,63.4,28.4,87.7,57.1c10,11.9,18.8,24.9,26.3,38.6c0.6,1,1.1,2,1.6,3
	c6.6,12.4,12.2,25.3,16.7,38.6c0.2,0.5,0.3,1,0.5,1.4c4.3,12.6,7.7,25.5,10.3,38.5c0.1,0.7,0.3,1.3,0.4,2
	c2.4,12.7,4.1,25.6,4.9,38.5c0,0.5,0,0.9,0.1,1.4c0.4,6.7,0.6,13.5,0.6,20.3c0,6.1-0.2,12.2-0.5,18.2c0,0.7-0.1,1.4-0.1,2
	c-0.1,1.8-0.2,3.5-0.3,5.2c7.7,7.2,14.9,15,21.4,23.3c2.9,3.7,5.7,7.5,8.5,11.5c8.4,12.2,15.7,25.1,21.8,38.5
	C1168.1,447.7,1177.8,491.1,1177.8,537.5z"/>
<path class="st0" d="M1072.8,798.3c0,14.8-45.9,28.4-121.4,38.6h-708c-75.4-10.2-121.4-23.8-121.4-38.6c0-11.3,26.6-21.9,72.7-30.8
	l0,0l1.3-0.3c13-2.5,27.5-4.8,43.4-7.1l1.2-0.2l0,0c12.6-1.7,26-3.4,40.2-4.9l1.3-0.1c5.5-0.6,11.1-1.2,16.8-1.7l0,0l2.2-0.2
	c41.5-4,88.8-7.2,140-9.4h0.1c7.2-0.3,14.4-0.6,21.8-0.8c8.1-0.3,16.4-0.6,24.7-0.8c6.4-0.2,12.8-0.3,19.3-0.5h0.2
	c29.2-0.7,59.3-1,90.2-1c76.3,0,148.3,2.2,212.2,6.1h0.2c9.8,0.6,19.5,1.2,28.9,1.9l8,0.6c10.6,0.8,20.9,1.6,31,2.5l0,0
	C996,762.1,1072.8,779.1,1072.8,798.3z"/>
<path class="st1" d="M316.9,105.3v30.3c0,2.3-1.8,4.1-4.1,4.1c0,0,0,0,0,0h-55.5c11.9-13.7,24.7-26.6,38.3-38.6h17.2
	C315.1,101.2,316.9,103.1,316.9,105.3L316.9,105.3z"/>
<path class="st2" d="M996.3,105.3v455.6c0,6.6-5.4,12-12,12H170.8c-6.6,0-12-5.4-12-12V242.5c4-0.7,8-1.2,12-1.5
	c3.2-0.3,6.4-0.4,9.6-0.5c0.6,0,1.2,0,1.8,0c3.6,0,7.1,0.2,10.6,0.4c0.4-0.9,0.8-1.7,1.1-2.6c1.4-3.1,2.9-6.1,4.3-9.2
	c0,0,0-0.1,0-0.1c0.3-0.5,0.5-1,0.8-1.5c1.2-2.5,2.4-4.9,3.7-7.3c0.6-1.1,1.1-2.2,1.7-3.3c0.1-0.3,0.3-0.5,0.4-0.8
	c0.6-1.1,1.2-2.3,1.8-3.4c3.1-5.7,6.3-11.3,9.6-16.8c0.3-0.5,0.6-0.9,0.9-1.4c0.5-0.9,1-1.7,1.6-2.5c1.4-2.2,2.8-4.5,4.2-6.7
	c1-1.6,2-3.1,3.1-4.7c2.6-3.9,5.3-7.8,8-11.6s5.6-7.6,8.5-11.4c0.4-0.5,0.8-1,1.2-1.6l4.3-5.4l0,0l0.6-0.7l0,0l1.5-1.9
	c2.3-2.8,4.6-5.6,7-8.3c11.9-13.7,24.7-26.6,38.3-38.6c0.5-0.5,1.1-1,1.6-1.4c2.5-2.2,5.1-4.4,7.7-6.5H823c2.3,1.9,4.6,3.9,6.9,5.9
	c2.8-2,5.6-4,8.4-5.9h146C990.9,93.4,996.3,98.7,996.3,105.3z"/>
<path class="st3" d="M948.3,180.6v11.3H218.8c1.4-2.2,2.8-4.5,4.2-6.7c1-1.6,2-3.1,3.1-4.7H948.3z"/>
<rect x="780.5" y="125.2" class="st3" width="11.3" height="431.8"/>
<rect x="571.9" y="125.2" class="st3" width="11.3" height="431.9"/>
<rect x="363.3" y="125.2" class="st3" width="11.3" height="431.9"/>
<linearGradient id="SVGID_1_" gradientUnits="userSpaceOnUse" x1="232.43" y1="543.74" x2="232.43" y2="588.4" gradientTransform="matrix(1 0 0 -1 -11.09 804.47)">
	<stop  offset="0" style="stop-color:#808080;stop-opacity:0.25"/>
	<stop  offset="0.54" style="stop-color:#808080;stop-opacity:0.12"/>
	<stop  offset="1" style="stop-color:#808080;stop-opacity:0.1"/>
</linearGradient>
<path class="st4" d="M244.4,216.1v44.7h-46.1v-31.6c0,0,0,0,0-0.1c0.3-0.5,0.5-1,0.8-1.5c1.2-2.5,2.4-4.9,3.7-7.3
	c0.6-1.1,1.1-2.2,1.7-3.3c0.1-0.3,0.3-0.5,0.4-0.8L244.4,216.1z"/>
<path class="st5" d="M243.6,216.8V260h-44.5v-32.5c1.2-2.5,2.4-4.9,3.7-7.3c0.6-1.1,1.1-2.2,1.7-3.3L243.6,216.8z"/>
<linearGradient id="SVGID_2_" gradientUnits="userSpaceOnUse" x1="408.145" y1="588.88" x2="408.145" y2="633.54" gradientTransform="matrix(1 0 0 -1 0 836)">
	<stop  offset="0" style="stop-color:#808080;stop-opacity:0.25"/>
	<stop  offset="0.54" style="stop-color:#808080;stop-opacity:0.12"/>
	<stop  offset="1" style="stop-color:#808080;stop-opacity:0.1"/>
</linearGradient>
<rect x="385.1" y="202.5" class="st6" width="46.1" height="44.7"/>
<rect x="385.9" y="203.2" class="st7" width="44.5" height="43.1"/>
<linearGradient id="SVGID_3_" gradientUnits="userSpaceOnUse" x1="616.495" y1="502.17" x2="616.495" y2="546.83" gradientTransform="matrix(1 0 0 -1 0 836)">
	<stop  offset="0" style="stop-color:#808080;stop-opacity:0.25"/>
	<stop  offset="0.54" style="stop-color:#808080;stop-opacity:0.12"/>
	<stop  offset="1" style="stop-color:#808080;stop-opacity:0.1"/>
</linearGradient>
<rect x="593.4" y="289.2" class="st8" width="46.1" height="44.7"/>
<rect x="594.2" y="289.9" class="st7" width="44.5" height="43.1"/>
<linearGradient id="SVGID_4_" gradientUnits="userSpaceOnUse" x1="829.095" y1="472.59" x2="829.095" y2="517.25" gradientTransform="matrix(1 0 0 -1 0 836)">
	<stop  offset="0" style="stop-color:#808080;stop-opacity:0.25"/>
	<stop  offset="0.54" style="stop-color:#808080;stop-opacity:0.12"/>
	<stop  offset="1" style="stop-color:#808080;stop-opacity:0.1"/>
</linearGradient>
<rect x="806" y="318.8" class="st9" width="46.1" height="44.7"/>
<rect x="806.8" y="319.5" class="st7" width="44.5" height="43.1"/>
<linearGradient id="SVGID_5_" gradientUnits="userSpaceOnUse" x1="886.055" y1="443.68" x2="886.055" y2="488.34" gradientTransform="matrix(1 0 0 -1 0 836)">
	<stop  offset="0" style="stop-color:#808080;stop-opacity:0.25"/>
	<stop  offset="0.54" style="stop-color:#808080;stop-opacity:0.12"/>
	<stop  offset="1" style="stop-color:#808080;stop-opacity:0.1"/>
</linearGradient>
<rect x="863" y="347.7" class="st10" width="46.1" height="44.7"/>
<rect x="863.8" y="348.4" class="st7" width="44.5" height="43.1"/>
<linearGradient id="SVGID_6_" gradientUnits="userSpaceOnUse" x1="957.495" y1="520.93" x2="957.495" y2="565.59" gradientTransform="matrix(1 0 0 -1 0 836)">
	<stop  offset="0" style="stop-color:#808080;stop-opacity:0.25"/>
	<stop  offset="0.54" style="stop-color:#808080;stop-opacity:0.12"/>
	<stop  offset="1" style="stop-color:#808080;stop-opacity:0.1"/>
</linearGradient>
<rect x="934.4" y="270.4" class="st11" width="46.1" height="44.7"/>
<rect x="935.2" y="271.2" class="st7" width="44.5" height="43.1"/>
<linearGradient id="SVGID_7_" gradientUnits="userSpaceOnUse" x1="943.035" y1="458.27" x2="943.035" y2="502.93" gradientTransform="matrix(1 0 0 -1 0 836)">
	<stop  offset="0" style="stop-color:#808080;stop-opacity:0.25"/>
	<stop  offset="0.54" style="stop-color:#808080;stop-opacity:0.12"/>
	<stop  offset="1" style="stop-color:#808080;stop-opacity:0.1"/>
</linearGradient>
<rect x="920" y="333.1" class="st12" width="46.1" height="44.7"/>
<rect x="920.8" y="333.8" class="st7" width="44.5" height="43.1"/>
<linearGradient id="SVGID_8_" gradientUnits="userSpaceOnUse" x1="471.075" y1="588.88" x2="471.075" y2="633.54" gradientTransform="matrix(1 0 0 -1 0 836)">
	<stop  offset="0" style="stop-color:#808080;stop-opacity:0.25"/>
	<stop  offset="0.54" style="stop-color:#808080;stop-opacity:0.12"/>
	<stop  offset="1" style="stop-color:#808080;stop-opacity:0.1"/>
</linearGradient>
<rect x="448" y="202.5" class="st13" width="46.1" height="44.7"/>
<rect x="448.8" y="203.2" class="st7" width="44.5" height="43.1"/>
<linearGradient id="SVGID_9_" gradientUnits="userSpaceOnUse" x1="255.535" y1="480.61" x2="255.535" y2="525.27" gradientTransform="matrix(1 0 0 -1 0 836)">
	<stop  offset="0" style="stop-color:#808080;stop-opacity:0.25"/>
	<stop  offset="0.54" style="stop-color:#808080;stop-opacity:0.12"/>
	<stop  offset="1" style="stop-color:#808080;stop-opacity:0.1"/>
</linearGradient>
<rect x="232.5" y="310.7" class="st14" width="46.1" height="44.7"/>
<rect x="233.3" y="311.5" class="st15" width="44.5" height="43.1"/>
<linearGradient id="SVGID_10_" gradientUnits="userSpaceOnUse" x1="441.435" y1="524.5" x2="441.435" y2="569.16" gradientTransform="matrix(1 0 0 -1 0 836)">
	<stop  offset="0" style="stop-color:#808080;stop-opacity:0.25"/>
	<stop  offset="0.54" style="stop-color:#808080;stop-opacity:0.12"/>
	<stop  offset="1" style="stop-color:#808080;stop-opacity:0.1"/>
</linearGradient>
<rect x="418.4" y="266.8" class="st16" width="46.1" height="44.7"/>
<rect x="419.2" y="267.6" class="st15" width="44.5" height="43.1"/>
<linearGradient id="SVGID_11_" gradientUnits="userSpaceOnUse" x1="681.875" y1="551.19" x2="681.875" y2="595.85" gradientTransform="matrix(1 0 0 -1 0 836)">
	<stop  offset="0" style="stop-color:#808080;stop-opacity:0.25"/>
	<stop  offset="0.54" style="stop-color:#808080;stop-opacity:0.12"/>
	<stop  offset="1" style="stop-color:#808080;stop-opacity:0.1"/>
</linearGradient>
<rect x="658.8" y="240.1" class="st17" width="46.1" height="44.7"/>
<rect x="659.6" y="240.9" class="st15" width="44.5" height="43.1"/>
<linearGradient id="SVGID_12_" gradientUnits="userSpaceOnUse" x1="925.265" y1="582.51" x2="925.265" y2="627.17" gradientTransform="matrix(1 0 0 -1 0 836)">
	<stop  offset="0" style="stop-color:#808080;stop-opacity:0.25"/>
	<stop  offset="0.54" style="stop-color:#808080;stop-opacity:0.12"/>
	<stop  offset="1" style="stop-color:#808080;stop-opacity:0.1"/>
</linearGradient>
<rect x="902.2" y="208.8" class="st18" width="46.1" height="44.7"/>
<rect x="903" y="209.6" class="st15" width="44.5" height="43.1"/>
<linearGradient id="SVGID_13_" gradientUnits="userSpaceOnUse" x1="742.735" y1="588.88" x2="742.735" y2="633.54" gradientTransform="matrix(1 0 0 -1 0 836)">
	<stop  offset="0" style="stop-color:#808080;stop-opacity:0.25"/>
	<stop  offset="0.54" style="stop-color:#808080;stop-opacity:0.12"/>
	<stop  offset="1" style="stop-color:#808080;stop-opacity:0.1"/>
</linearGradient>
<rect x="719.7" y="202.5" class="st19" width="46.1" height="44.7"/>
<rect x="720.5" y="203.2" class="st5" width="44.5" height="43.1"/>
<linearGradient id="SVGID_14_" gradientUnits="userSpaceOnUse" x1="740.115" y1="502.17" x2="740.115" y2="546.83" gradientTransform="matrix(1 0 0 -1 0 836)">
	<stop  offset="0" style="stop-color:#808080;stop-opacity:0.25"/>
	<stop  offset="0.54" style="stop-color:#808080;stop-opacity:0.12"/>
	<stop  offset="1" style="stop-color:#808080;stop-opacity:0.1"/>
</linearGradient>
<rect x="717" y="289.2" class="st20" width="46.1" height="44.7"/>
<rect x="717.8" y="289.9" class="st15" width="44.5" height="43.1"/>
<linearGradient id="SVGID_15_" gradientUnits="userSpaceOnUse" x1="533.015" y1="567.31" x2="533.015" y2="611.97" gradientTransform="matrix(1 0 0 -1 0 836)">
	<stop  offset="0" style="stop-color:#808080;stop-opacity:0.25"/>
	<stop  offset="0.54" style="stop-color:#808080;stop-opacity:0.12"/>
	<stop  offset="1" style="stop-color:#808080;stop-opacity:0.1"/>
</linearGradient>
<rect x="510" y="224" class="st21" width="46.1" height="44.7"/>
<rect x="510.8" y="224.8" class="st15" width="44.5" height="43.1"/>
<linearGradient id="SVGID_16_" gradientUnits="userSpaceOnUse" x1="287.915" y1="552.94" x2="287.915" y2="597.6" gradientTransform="matrix(1 0 0 -1 0 836)">
	<stop  offset="0" style="stop-color:#808080;stop-opacity:0.25"/>
	<stop  offset="0.54" style="stop-color:#808080;stop-opacity:0.12"/>
	<stop  offset="1" style="stop-color:#808080;stop-opacity:0.1"/>
</linearGradient>
<rect x="264.9" y="238.4" class="st22" width="46.1" height="44.7"/>
<rect x="265.6" y="239.2" class="st23" width="44.5" height="43.1"/>
<linearGradient id="SVGID_17_" gradientUnits="userSpaceOnUse" x1="310.985" y1="502.17" x2="310.985" y2="546.83" gradientTransform="matrix(1 0 0 -1 0 836)">
	<stop  offset="0" style="stop-color:#808080;stop-opacity:0.25"/>
	<stop  offset="0.54" style="stop-color:#808080;stop-opacity:0.12"/>
	<stop  offset="1" style="stop-color:#808080;stop-opacity:0.1"/>
</linearGradient>
<rect x="287.9" y="289.2" class="st24" width="46.1" height="44.7"/>
<rect x="288.7" y="289.9" class="st5" width="44.5" height="43.1"/>
<linearGradient id="SVGID_18_" gradientUnits="userSpaceOnUse" x1="502.325" y1="494.92" x2="502.325" y2="539.58" gradientTransform="matrix(1 0 0 -1 0 836)">
	<stop  offset="0" style="stop-color:#808080;stop-opacity:0.25"/>
	<stop  offset="0.54" style="stop-color:#808080;stop-opacity:0.12"/>
	<stop  offset="1" style="stop-color:#808080;stop-opacity:0.1"/>
</linearGradient>
<rect x="479.3" y="296.4" class="st25" width="46.1" height="44.7"/>
<rect x="480" y="297.2" class="st23" width="44.5" height="43.1"/>
<linearGradient id="SVGID_19_" gradientUnits="userSpaceOnUse" x1="839.925" y1="582.51" x2="839.925" y2="627.17" gradientTransform="matrix(1 0 0 -1 0 836)">
	<stop  offset="0" style="stop-color:#808080;stop-opacity:0.25"/>
	<stop  offset="0.54" style="stop-color:#808080;stop-opacity:0.12"/>
	<stop  offset="1" style="stop-color:#808080;stop-opacity:0.1"/>
</linearGradient>
<rect x="816.9" y="208.8" class="st26" width="46.1" height="44.7"/>
<rect x="817.7" y="209.6" class="st23" width="44.5" height="43.1"/>
<linearGradient id="SVGID_20_" gradientUnits="userSpaceOnUse" x1="880.745" y1="520.93" x2="880.745" y2="565.59" gradientTransform="matrix(1 0 0 -1 0 836)">
	<stop  offset="0" style="stop-color:#808080;stop-opacity:0.25"/>
	<stop  offset="0.54" style="stop-color:#808080;stop-opacity:0.12"/>
	<stop  offset="1" style="stop-color:#808080;stop-opacity:0.1"/>
</linearGradient>
<rect x="857.7" y="270.4" class="st27" width="46.1" height="44.7"/>
<rect x="858.5" y="271.2" class="st5" width="44.5" height="43.1"/>
<linearGradient id="SVGID_21_" gradientUnits="userSpaceOnUse" x1="620.525" y1="588.88" x2="620.525" y2="633.54" gradientTransform="matrix(1 0 0 -1 0 836)">
	<stop  offset="0" style="stop-color:#808080;stop-opacity:0.25"/>
	<stop  offset="0.54" style="stop-color:#808080;stop-opacity:0.12"/>
	<stop  offset="1" style="stop-color:#808080;stop-opacity:0.1"/>
</linearGradient>
<rect x="597.5" y="202.5" class="st28" width="46.1" height="44.7"/>
<rect x="598.3" y="203.2" class="st23" width="44.5" height="43.1"/>
<linearGradient id="SVGID_22_" gradientUnits="userSpaceOnUse" x1="676.655" y1="458.27" x2="676.655" y2="502.93" gradientTransform="matrix(1 0 0 -1 0 836)">
	<stop  offset="0" style="stop-color:#808080;stop-opacity:0.25"/>
	<stop  offset="0.54" style="stop-color:#808080;stop-opacity:0.12"/>
	<stop  offset="1" style="stop-color:#808080;stop-opacity:0.1"/>
</linearGradient>
<rect x="653.6" y="333.1" class="st29" width="46.1" height="44.7"/>
<rect x="654.4" y="333.8" class="st23" width="44.5" height="43.1"/>
<linearGradient id="SVGID_23_" gradientUnits="userSpaceOnUse" x1="192.2695" y1="-13.9098" x2="192.2695" y2="590.0201" gradientTransform="matrix(-1 0 0 -1 991.07 804.47)">
	<stop  offset="0" style="stop-color:#808080;stop-opacity:0.25"/>
	<stop  offset="0.54" style="stop-color:#808080;stop-opacity:0.12"/>
	<stop  offset="1" style="stop-color:#808080;stop-opacity:0.1"/>
</linearGradient>
<path class="st30" d="M919.1,342c-0.3-2.4-1.6-4.5-3.5-5.9c-1.9-1.4-4-2.6-6.1-3.5c-0.7-0.3-1.3-0.7-1.8-1.3c-0.4-0.6-0.7-1.3-1-1.9
	c-1.2-2.1-3.8-2.8-5.8-4c-3.6-2.2-5.3-6.1-6.8-10.3c-0.1-0.3-0.2-0.5-0.3-0.8c-1.5-4.1-2.9-8.3-5.9-11.1c-4.4-4-11-4.3-15.9-0.9
	c-0.6,0.6-1.4,1-2.2,1.1c-0.8-0.2-1.6-0.6-2.2-1.2c-1.6-1.1-3.5-1.6-5.4-1.5c-0.9-3.6-1.4-7.4-1.5-11.1v-0.1l0,0l0,0l0,0l0,0
	c0,0,0,0,0-0.1l0,0c0-0.9,0-1.9,0-2.8h0.2h0.4c0.7,0,1.5-0.1,2.2-0.3c0.3-0.1,0.6-0.2,0.9-0.3l0,0c2.7-1.3,4.3-4.3,5.5-7.1
	c0.8-1.9,1.5-3.8,2.2-5.8c0.1-0.3,0.2-0.5,0.2-0.8l0,0c0.1-0.4,0.2-0.8,0.3-1.2c0-0.1,0.1-0.3,0.1-0.4s0.1-0.3,0.1-0.4l0.1-0.4
	l0.5,0.4l0,0l0.1,0l1.1,0.8c5.2,3.5,10.6,6.9,12.8,6.9l0,0c0.2,0,0.5,0,0.7-0.1c1.5-0.8-1.3-3.8-4.8-6.8c-0.3-0.3-0.6-0.5-0.9-0.8
	c-2.6-2.2-5.4-4.3-7-5.5l-1.5-1.1c2-1.8,3.2-5.1,3.7-8c0.5-2.8,0.8-5.6,0.9-8.4v-0.1c0.1-3-0.1-6-0.8-9c-1.4-5.7-4.8-11.2-10-13.9
	c-1.5-0.8-3.2-1.4-4.7-2.2c-0.3-0.2-0.5-0.3-0.8-0.5l0,0c-0.5-0.3-0.9-0.7-1.3-1.1c-0.3-0.3-0.5-0.6-0.7-0.9
	c-0.1-0.1-0.2-0.3-0.3-0.5c-0.2-0.5-0.4-1-0.7-1.4c-1-1.1-2.7-0.8-4.1-0.6h-0.5h-0.4h-0.4c-5.2,0.1-10.2-2.8-15.5-2.8
	c-5.7,0-10.6,3.3-15.7,5.6c-1,0.5-2,0.9-2.9,1.3c-0.8,0.4-1.5,0.7-2.2,1.1l0,0c-0.3,0.2-0.5,0.3-0.8,0.5l0,0c-1.9,1.2-3.4,2.9-4.3,5
	c-1,1.2-1.7,2.6-2.1,4.1c-0.2,0.7-0.3,1.4-0.3,2.1c-6.6,6.5-10.4,15.4-10.4,24.7c0,0.5,0,1,0,1.4v0.1c0.6,14.8,10.5,27.5,24.7,31.8
	l0,0c0.4,0.1,0.8,0.2,1.2,0.3c0.1,0.3,0.2,0.7,0.3,1c0.2,0.6,0.4,1.3,0.6,1.9l0,0c0.1,0.3,0.2,0.6,0.2,1c0.5,2.2,0.8,4.5,0.7,6.8
	c0,0.2,0,0.4,0,0.6l0,0l0,0c0,0,0,0,0,0.1c-2.6,0.6-5.2,1.6-7.5,3c-3,1.8-5.2,4.5-6.3,7.8c-0.1,0.2-0.1,0.5-0.2,0.7
	c-1.8-0.6-3.8-0.9-5.7-1c-1.8-0.1-3.8,0.1-4.9,1.5c-0.4,0.5-0.8,1.2-0.9,1.9c-0.7,0.6-0.8,1.7-1.3,2.5c-1.5,2.6-5.3,1.7-8.1,2.4
	c-0.3,0.1-0.6,0.2-0.8,0.3l0,0c-2.7,1-5,3.4-7.9,3.4c-1.1-0.2-2.3-0.2-3.5-0.2l-0.2,0c-1.2,0.3-2.1,1.9-1.2,2.8
	c-1.4-0.3-2.8,0.6-3.7,1.8s-1.5,2.5-2.4,3.6c-0.9-1.2-2.3-1.8-3.8-1.5c-1.4,0.3-2.8,0.8-4,1.6c-0.6,0.3-1.1,0.5-1.8,0.6
	c-0.7,0-1.4,0-2.1-0.2c-3.4-0.6-6.9-0.1-10.1,1.4c-2.8,1.3-5.4-1.1-8.5-1.3c-1.1,0-2.2-0.3-3.1-1c-0.1-0.1-0.2-0.2-0.2-0.3
	c-0.2-0.2-0.3-0.5-0.4-0.8c-0.2-0.5-0.3-1-0.5-1.4c-1.3-3.8-4.5-6.7-8.4-7.8l-0.5-0.1c0.2-0.6,0.3-1.2,0.4-1.8l0,0l0,0
	c0.6-4.7-2.1-9.3-6.5-11c0.4-3.6-1-7.3-3.8-9.6c-0.6-0.4-1.2-0.9-1.8-1.4l-0.1-0.1c-0.3-0.3-0.5-0.6-0.7-0.9l0,0
	c-0.4-0.7-0.8-1.5-1.1-2.3c-0.9-2.4-1.8-4.8-2.7-7.1c-1.2-0.2-2.1-0.7-3.3-0.9c0-0.2,0-0.5,0-0.7c0-2.4-0.5-4.9-1.2-7.2
	c-1-2.7-2.3-5.3-3.9-7.7l0,0c-0.3-0.4-0.5-0.8-0.8-1.2l0,0c-0.3-0.5-0.7-1-1.1-1.6c-2.6-3.6-5.5-7.1-9.3-9.3c-1.3-0.7-2.6-1.3-4-1.8
	l-7-2.9c-0.4-0.2-0.8-0.3-1.3-0.3c-1.7,0-2.1,2.3-1.5,3.9c0.1,0.2,0.2,0.4,0.3,0.5c2.1,3.1,6.9,4,8.2,7.5c-0.6,0-1.3,0.1-1.8,0.4
	c-1.5,0.6-2.7,1.9-3.1,3.5c-0.1,0.6-0.3,1.1-0.7,1.6c-0.6,0.5-1.6,0.2-2.3,0.6c-1.2,0.7-0.7,2.5-0.8,3.9c-0.1,1.3-0.9,2.3-1.3,3.5
	c-0.3,0.9-0.3,1.9-0.2,2.8l0.1,0.3l0,0c0,0.1,0.1,0.3,0.1,0.4c0.3,1,0.7,1.9,1.2,2.8c1.3,1.8,2.8,3.3,4.6,4.6
	c1.1,0.9,2.3,1.9,3.5,2.8c0.3,0.2,0.7,0.5,1,0.7c0,0.1-0.1,0.1-0.1,0.2c0,0.1-0.1,0.3-0.2,0.4l0,0l0,0c-0.2,0.4-0.2,0.8-0.1,1.2
	c0.1,0.3,0.2,0.6,0.4,0.8l0,0c0.3,0.3,0.6,0.6,0.9,0.9c2.8,2.6,4.8,6.1,5.5,9.9c0.1,0.7,0.1,1.5-0.1,2.2l0,0l0,0
	c-0.5,1.5-0.8,3-0.9,4.5c0,0.4,0.1,0.8,0.1,1.1l0,0c0.3,1.8,0.9,3.5,1.6,5.2c1.9,4.7,3.8,9.6,7.5,13c0.9,7.6,3.8,14.8,8.5,20.8
	c3.9,5,9.1,8.8,14.3,12.5c1.6,1.3,3.4,2.4,5.3,3.3c1.7,0.6,3.4,1.1,5.2,1.4c14.4,2.9,29,4.6,43.7,5.1l2,0.1h0.1
	c0,0.8,0.1,1.5,0.1,2.3c0.3,7.7,0.5,15.4,0.5,23.1v0.7c0,0.5,0,0.9,0,1.3c0.1,1.5-0.1,3-0.6,4.4c-0.5,1.1-1.2,2.1-2.1,3
	c-0.2,0.2-0.4,0.5-0.6,0.7c-3,4-3.6,9.3-3.5,14.5v0.1c0,0.8,0,1.5,0.1,2.3c0.4,6.9,1.2,13.7,2.5,20.5c1.2,6.4,0.7,13.3,1.6,19.8
	c0.3,2.2,0.8,4.4,1.6,6.5c1.2,3.2,2.4,6.5,3.6,9.7c0.4,0.9,0.6,1.9,0.7,2.9c0,0.3,0,0.6-0.1,0.9l0,0l0,0c-0.3,1.7-1.5,3.3-2.4,4.8
	c-1.5,2.7-2.2,5.8-2.1,8.8c0,0.1,0,0.2,0,0.3l0,0c0,0.3,0.1,0.5,0.2,0.7c0.4,0.5,1.2,0.5,1.9,0.4c2.6-0.4,5.2-0.6,7.8-0.7l0,0h0.3
	c-0.1,0.1-0.2,0.2-0.3,0.3l0,0c-0.3,0.4-0.6,0.8-0.9,1.3l0,0l-0.1,0.2c-0.7,1.1-1.2,2.3-1.7,3.5c-1,2-1.7,4.2-2.3,6.3
	c-0.1,0.3-0.2,0.7-0.2,1c-0.2,0.7-0.3,1.3-0.4,2c-0.5,3.4-0.8,6.9-0.7,10.4v0.6c0,0.2,0,0.4,0,0.7c0,0,0,0,0,0.1v0.1
	c-0.1,1.5-0.2,3.1-0.3,4.6c-0.3,5.6-0.6,10.5-1.2,12.3c-0.3,1.1-0.4,2.3-0.3,3.4v0c0.1,1.5,0.3,3,0.6,4.5c0.3,1.6,0.7,3.2,1.1,4.8
	v0.2c0,0.6,0.1,1.2,0.1,1.8v0.1c0.2,2.6,0.7,5.2,1.6,7.7c0,0,0,0.1,0,0.1c0,0.4,0,0.8,0,1.2c0,0.1,0,0.1,0,0.2l0,0
	c0,0.7,0.1,1.5,0.2,2.2c0.2,2.1,0.6,4.2,1,6.3c0,0.1,0,0.2,0,0.3c2,11.1,4,22.2,6.1,33.3c0.1,0.7,0.3,1.3,0.4,2
	c2.2,11.9,4.6,23.7,7,35.6c0.2,1,0.4,2,0.6,3c0.1,0.5,0.2,1,0.3,1.4s0.3,1.2,0.4,1.7c1.8,6.6,4.9,12.7,9.1,18
	c3.7,4.7,6.9,9.8,9.5,15.2c0,0.2-0.1,0.3-0.1,0.4l0,0c-0.2,1.1-0.5,2.1-0.7,3.2l-0.1,0.2c-2.7,11.3-6.2,22.4-7.4,34
	c-0.1,0.8-0.2,1.7-0.2,2.5c-0.4,3.8-0.7,7.6-2.2,11.1c-0.4,1-1,2-1.4,2.9c-0.6,1.1-0.9,2.4-1.1,3.6c0,0.2,0,0.3,0,0.5
	c0,0,0,0.1,0,0.1c0,0,0,0,0,0l0,0c0,1.2,0.4,2.5,1,3.5l-0.1,0.1c-0.3,0.2-0.5,0.4-0.8,0.6l-0.5,0.4c-3.5,2.7-8.1,3.3-12.3,4.4
	s-8.8,3.4-10.2,7.6c-0.1,0.3-0.1,0.5-0.2,0.8c0,0.1,0,0.3-0.1,0.4l0,0l0,0c-0.1,0.4-0.1,0.8-0.1,1.2v0.1c0,0.1,0,0.1,0,0.2
	c0.3,3.4,2.2,6.5,5,8.3c3.5,2.4,8,3.2,12.2,3.7s8.6,1,12.5,2.9c3.3,1.7,6.1,4.4,9.7,5.5c0.2,0.1,0.4,0.1,0.6,0.2l-0.2,0.1
	c-0.5,0.3-1,0.6-1.5,0.8l-0.8,0.4c-3.6,1.9-7.6,3.1-11.7,3.7c-4.1,0.6-9,0.8-11.1,4.4l0,0c0,0.1-0.1,0.1-0.1,0.2l0,0
	c-0.1,0.2-0.2,0.4-0.2,0.5v0.1c0,0.1-0.1,0.2-0.1,0.2c0,0.1-0.1,0.2-0.1,0.3c0,0.1,0,0.2,0,0.2c-0.1,0.3-0.1,0.5-0.2,0.8
	c-0.1,0.7-0.1,1.4,0.1,2.1c0.4,1.9,1.3,3.6,2.7,4.9c2.5,2.3,6,3.4,9.3,4.1c7.6,1.7,15.3,2.3,23.1,2.9l7.5,0.6
	c2.7,0.2,5.4,0.4,8.1,0.6c1.9,0.1,3.8,0.2,5.7,0.3s3.6,0.2,5.5,0.2h0.1c0.9,0,1.8,0,2.8,0l0,0c4.7,0,9.3-0.2,13.9-0.6
	c4.5-0.4,8.9-1,13.3-1.8c0.8,0,1.6-0.4,2.2-1c0-0.1,0.1-0.2,0.1-0.3c0-0.1,0-0.1,0.1-0.2c0,0,0-0.1,0-0.1c0-0.1,0-0.1,0-0.2
	c0-0.1,0-0.2,0-0.3v-0.1c0-0.2,0-0.4,0-0.6c0-1,0-1.9-0.1-2.8c0-0.2,0-0.3,0-0.5v-0.6l-0.1-1.2c-0.1-1.1-0.1-2.3-0.2-3.4l-0.1-1.4
	c0-0.2,0-0.3,0-0.5c0-0.3-0.1-0.7-0.1-1c0-0.2,0-0.4-0.1-0.6l-0.2-1.6c-0.1-1.2-0.3-2.3-0.5-3.5c-0.4-2.6-0.8-5.1-1.3-7.6
	c-0.8-3.8,0,0,0-0.1s0,0,0-0.1c-0.2-0.9-0.4-1.7-0.6-2.6c-0.6-2.7-4.3,1-6.4,3.3c-0.3-1.3-0.5-2.6-0.9-3.8l0,0c0,0,0-0.1,0-0.2
	c0.5-0.3,1.1-0.5,1.6-0.8c1.3-0.5,2.3-1.3,3-2.5c0.2-0.4,0.3-0.9,0.3-1.3c0-0.3,0-0.6,0-0.8c0-0.2,0-0.4,0-0.7
	c-0.3-5.9-0.7-12.1-3.5-17.3c-1.9-3.1-4.2-5.9-6.9-8.4c0-0.6-0.1-1.3-0.1-1.9c-0.3-6.4-0.7-12.7-1.3-19.1c-1-11.6-2.8-23.1-5.3-34.5
	c-0.7-3.1-1.4-6.1-2.3-9.2l0,0c-1.7-6.2-4.3-12-7.8-17.3c-0.7-1-1.4-2-2.1-3c-0.2-3.7-0.5-7.5-1-11.3c-0.6-5.2-1.4-10.3-2.3-15.4
	c-0.1-0.5-0.2-1-0.2-1.5v-0.1c-0.1-0.7,0-1.4,0.2-2c0.5-1,1.2-1.9,2-2.7c1.5-2,2.2-4.5,2.1-7c0-0.1,0-0.2,0-0.3
	c0-2.7-0.4-5.5-0.6-8.1c0-0.7-0.1-1.5-0.1-2.2l0,0v-0.1l0,0l0,0c0-0.1,0-0.2,0-0.3c0-0.8,0-1.5,0-2.3c0.3-5.9,1.7-11.8,3-17.5
	c1.4-6,2.9-11.9,4.3-17.9l0,0c0.6-2.3,1.1-4.7,1.7-7c0.2-0.8,0.4-1.7,0.6-2.5c0.5-2.6,1.3-5.1,2.3-7.6c1.5-3.4,3.9-6.4,5.9-9.5
	c5.4-8.5,8.3-18.4,8.3-28.4l0,0c0,0,0,0,0-0.1c0,0,0-0.1,0-0.1c0-0.1,0-0.1,0-0.2c0-0.7,0-1.3,0-2l0,0c0-0.5,0-1-0.1-1.6
	c1.2,0.4,2.5,0.9,3.7,1.4c0.1-0.7,0.1-1.5,0.2-2.3v-0.1c0.1-4.6-0.9-9.5-1-14.2c0,0,0-0.1,0-0.1v-0.1c0-1.5,0.1-3.1,0.3-4.6
	c0.1-0.7,0.3-1.4,0.5-2.1c0.3-0.3,0.7-0.6,1-0.8l0,0c3.5-2.7,6.3-6.2,8.3-10.2c1.8-4,2.3-8.6,4.2-12.6c1.1-2.3,2.6-4.3,3.2-6.8
	c0.2-0.7,0.3-1.5,0.3-2.3V466c0-2.5-0.2-5-0.5-7.5l0,0c0-0.4,0-0.8,0-1.2c0.1-6.9,4.4-13.4,4.9-20.2V437c0.1-1.1,0-2.3-0.2-3.4
	c-0.5-3.4-2.3-6.5-2.7-9.9l0,0l0,0c-0.1-0.4-0.1-0.9-0.1-1.3c0.2-2.1,0.7-4.1,1.6-6.1c3.5-9.2,6.9-18.9,7.2-28.7c0,0,0-0.1,0-0.1
	v-0.2c0.1-2.7-0.1-5.3-0.6-8c-0.5-2.5-1.2-5.1-1.4-7.6c0-0.7,0-1.3,0-2c0.2-2.8,1.2-5.6,1.5-8.3l0,0c0.1-0.9,0.1-1.8,0-2.7
	c-0.2-0.9-0.5-1.8-0.9-2.6l0,0c-0.2-0.4-0.5-0.8-0.8-1.2c1.6-2.5,3-5.1,4.1-7.8c0.5-1,0.8-2.1,1-3.2l0,0
	C919.2,343.3,919.2,342.6,919.1,342z M850.7,783.2L850.7,783.2L850.7,783.2c-1.2-0.5-2.3-0.8-3.4-1c-0.3,0-0.6-0.1-0.8-0.1h-0.1
	c0.2-0.9,0.3-1.9,0.3-2.8c0-0.6,0-1.1,0-1.7c0-0.3,0-0.5,0-0.8c0-0.1,0-0.2,0-0.3c0-0.6,0-1.1-0.1-1.7s-0.1-1.2-0.2-1.8l0,0l0,0
	c0-0.1,0-0.2,0-0.3c0.1,0.4,0.3,0.8,0.4,1.1c1.2,3.2,2.6,6.4,4,9.5L850.7,783.2z M873.8,263.8L873.8,263.8L873.8,263.8z"/>
<path class="st31" d="M827.7,305.9c-0.1,5.1-1.8,10-2.1,15.1c15,0.7,29.7-6.5,44.5-4.3c-4.1-2.7-6.3-7.5-7.6-12.3
	c-1.7-6.1-2.2-12.5-1.5-18.8c0-0.3,0.1-0.7,0.2-1c0.5-2.5,2-6,1.6-8c-0.5-2.6-2.9-2.1-5.1-1.9c-6.7,0.5-13.3,1.4-19.9,2.6
	c-1.7,0.3-18.5,4.5-18.7,4c2.8,4.8,5.6,9.7,7.3,14.9C827.2,299.3,827.7,302.6,827.7,305.9z"/>
<path class="st31" d="M679.9,290.2c1.3,1.8,2.8,3.3,4.6,4.6c1.1,0.9,2.3,1.9,3.5,2.7c2.2,1.7,4.8,2.7,7.5,3
	c3.6,0.2,11.1-1.9,13.3-4.9c0.9-1.5,1.4-3.3,1.3-5.1c0-2.4-0.4-4.8-1.2-7.1c-1.4-3.7-3.3-7.3-5.8-10.4c-2.6-3.6-5.4-7.1-9.3-9.3
	c-1.3-0.7-2.6-1.3-3.9-1.8l-7-2.9c-0.4-0.2-0.8-0.3-1.3-0.3c-1.9,0-2.2,2.9-1.2,4.4c2.1,3.1,6.9,4,8.2,7.5c-2.3,0.1-4.3,1.6-5,3.8
	c-0.1,0.6-0.3,1.1-0.7,1.6c-0.6,0.5-1.6,0.2-2.3,0.6c-1.2,0.7-0.7,2.5-0.8,3.9c-0.1,1.2-0.9,2.3-1.3,3.5
	C678.1,286.1,678.6,288.4,679.9,290.2z"/>
<path class="st32" d="M885.9,799c-1.2-1.2-3-1-4.6-0.7c-8.6,1.4-17.3,2.1-26.1,2.1c-1.1-5.3,2.1-10.5,3.1-15.9c0.1-1.4,0.5-2.7,1-4
	c1.2-2.4,4-3.4,6.6-4c4.7-1,12-2.7,14.7,2C883.8,784.2,884.8,792.6,885.9,799z"/>
<path class="st3" d="M790.4,778.8c3.5,2.4,7.9,3.2,12.2,3.7s8.6,1,12.5,2.8c3.3,1.6,6.1,4.3,9.7,5.5c3.2,1.1,6.7,0.8,10,0.2
	c4-0.7,8.2-2.2,10.3-5.6c1.9-3,1.7-6.9,1.4-10.5c-0.3-4-0.6-8.1-0.9-12.2c0-1-0.2-2-0.8-2.9c-2.9-4.2-9.8,1.8-13.5,1.7
	c-5.9,0-12.3-3.2-16.5-7.1c-0.4-0.4-0.8-0.7-1.3-1c-1.7-0.8-3.4,0.6-4.9,1.9c-0.2,0.1-0.3,0.3-0.5,0.4c-3.5,2.7-8.1,3.3-12.3,4.4
	s-8.8,3.3-10.2,7.5c-0.1,0.3-0.2,0.5-0.2,0.8C784.7,772.5,787.1,776.6,790.4,778.8z"/>
<path class="st33" d="M790.4,778.8c3.5,2.4,7.9,3.2,12.2,3.7s8.6,1,12.5,2.8c3.3,1.6,6.1,4.3,9.7,5.5c3.2,1.1,6.7,0.8,10,0.2
	c4-0.7,8.2-2.2,10.3-5.6c1.9-3,1.7-6.9,1.4-10.5c-0.3-4-0.6-8.1-0.9-12.2c0-1-0.2-2-0.8-2.9c-2.9-4.2-9.8,1.8-13.5,1.7
	c-5.9,0-12.3-3.2-16.5-7.1c-0.4-0.4-0.8-0.7-1.3-1c-1.7-0.8-3.4,0.6-4.9,1.9c-0.2,0.1-0.3,0.3-0.5,0.4c-3.5,2.7-8.1,3.3-12.3,4.4
	s-8.8,3.3-10.2,7.5c-0.1,0.3-0.2,0.5-0.2,0.8C784.7,772.5,787.1,776.6,790.4,778.8z"/>
<path class="st34" d="M790.4,780.2c3.5,2.4,7.9,3.2,12.2,3.7s8.6,1,12.5,2.8c3.3,1.7,6.1,4.3,9.7,5.5c3.2,1.1,6.7,0.8,10,0.2
	c4.2-0.9,7.9-3.4,10.3-7c1.9-3,1.7-6.9,1.4-10.5c-0.3-4-0.6-8.1-0.9-12.2c0-1-0.2-2-0.8-2.9c-2.9-4.2-9.8,1.8-13.5,1.7
	c-5.9,0-12.3-3.2-16.5-7.1c-0.4-0.4-0.8-0.7-1.3-1c-1.7-0.8-3.4,0.6-4.9,1.9c1,3,2.4,5.9,4.2,8.6c3,4.4,7.7,7.8,13,8.1
	c2.6,0.2,5.3-0.3,7.9,0.3s4.9,3.3,4,5.8s-4,3-6.6,3.1c-3.6,0.2-7.3,0.4-10.7-0.8c-2.1-0.7-4-1.8-6-2.7c-8.7-3.6-19.6-1.6-26.7-7.6
	c-0.7-0.6-1.4-1.2-2.2-1.7C783.6,772.5,787.1,777.9,790.4,780.2z"/>
<path class="st33" d="M790.4,780.2c3.5,2.4,7.9,3.2,12.2,3.7s8.6,1,12.5,2.8c3.3,1.7,6.1,4.3,9.7,5.5c3.2,1.1,6.7,0.8,10,0.2
	c4.2-0.9,7.9-3.4,10.3-7c1.9-3,1.7-6.9,1.4-10.5c-0.3-4-0.6-8.1-0.9-12.2c0-1-0.2-2-0.8-2.9c-2.9-4.2-9.8,1.8-13.5,1.7
	c-5.9,0-12.3-3.2-16.5-7.1c-0.4-0.4-0.8-0.7-1.3-1c-1.7-0.8-3.4,0.6-4.9,1.9c1,3,2.4,5.9,4.2,8.6c3,4.4,7.7,7.8,13,8.1
	c2.6,0.2,5.3-0.3,7.9,0.3s4.9,3.3,4,5.8s-4,3-6.6,3.1c-3.6,0.2-7.3,0.4-10.7-0.8c-2.1-0.7-4-1.8-6-2.7c-8.7-3.6-19.6-1.6-26.7-7.6
	c-0.7-0.6-1.4-1.2-2.2-1.7C783.6,772.5,787.1,777.9,790.4,780.2z"/>
<path class="st35" d="M884.3,515.4c2.8,13.5,0.1,27.6-7.3,39.3c-2,3.1-4.4,6.1-5.9,9.5c-1,2.4-1.8,5-2.3,7.5l-6.6,27.2
	c-1.8,7.3-3.6,14.8-3,22.3c0.4,5.3,1.7,11.2-1.5,15.3c-0.8,0.8-1.5,1.7-2,2.7c-0.3,1.2-0.3,2.4,0,3.5c3.3,19.7,5.8,40.4-0.2,59.5
	c-5.4,17.3-5.8,36.5-10.4,54c-0.6,2.2-1.2,4.5-2.9,6c-1.2,1-2.7,1.7-4.3,2c-6.8,1.6-14-0.3-20.4-3.2c-4.5-2.1-9.3-5.7-8.9-10.6
	c0.2-2.3,1.5-4.4,2.5-6.5c1.8-4.2,2-8.9,2.5-13.5c1.2-11.5,4.8-22.5,7.4-33.8s4.5-23,2.2-34.3c-4.6-23.4-12-46.2-22-67.8
	c-0.4-1.1-1.1-2.2-2-3c-0.9-0.7-2.1-1.1-2.9-2s-1-2.3-1.3-3.5c-1-3.6-4-6.2-5.9-9.4c-5-7.9-3.4-18.1-3.2-27.5
	c0.2-9.1-1.1-18.3,0.4-27.3s6.7-18.2,15.3-21c4.3-1.4,9-1.1,13.5-0.6C838.8,502.5,861.9,506.8,884.3,515.4z"/>
<path class="st33" d="M884.3,515.4c2.8,13.5,0.1,27.6-7.3,39.3c-2,3.1-4.4,6.1-5.9,9.5c-1,2.4-1.8,5-2.3,7.5l-6.6,27.2
	c-1.8,7.3-3.6,14.8-3,22.3c0.4,5.3,1.7,11.2-1.5,15.3c-0.8,0.8-1.5,1.7-2,2.7c-0.3,1.2-0.3,2.4,0,3.5c3.3,19.7,5.8,40.4-0.2,59.5
	c-5.4,17.3-5.8,36.5-10.4,54c-0.6,2.2-1.2,4.5-2.9,6c-1.2,1-2.7,1.7-4.3,2c-6.8,1.6-14-0.3-20.4-3.2c-4.5-2.1-9.3-5.7-8.9-10.6
	c0.2-2.3,1.5-4.4,2.5-6.5c1.8-4.2,2-8.9,2.5-13.5c1.2-11.5,4.8-22.5,7.4-33.8s4.5-23,2.2-34.3c-4.6-23.4-12-46.2-22-67.8
	c-0.4-1.1-1.1-2.2-2-3c-0.9-0.7-2.1-1.1-2.9-2s-1-2.3-1.3-3.5c-1-3.6-4-6.2-5.9-9.4c-5-7.9-3.4-18.1-3.2-27.5
	c0.2-9.1-1.1-18.3,0.4-27.3s6.7-18.2,15.3-21c4.3-1.4,9-1.1,13.5-0.6C838.8,502.5,861.9,506.8,884.3,515.4z"/>
<path class="st35" d="M787.2,572.6c0.1,3.5,0.5,7.1,1.2,10.5c4.2,23.6,8.7,47.1,13.4,70.5c0.4,2,0.8,4.1,1.4,6.1
	c1.8,6.5,4.9,12.6,9.1,17.9c19.8,24.7,21.5,60.5,32.3,90.3c0.7,2,1.5,4,2.2,6c1.9,5,4.2,10,6.6,14.8c0.3,0.7,0.8,1.3,1.4,1.8
	c0.7,0.3,1.4,0.5,2.2,0.4c9.7,0.1,19.2-2.1,28-6.3c1.3-0.5,2.3-1.3,3-2.5c0.3-0.9,0.4-1.9,0.3-2.8c-0.3-5.9-0.7-12-3.5-17.2
	c-1.9-3.1-4.2-5.9-6.9-8.3c-0.8-18.5-2.7-37.1-6.7-55.2c-2.1-9.3-4.7-18.6-10-26.4c-4-5.8-9.6-11.5-8.9-18.4c0.3-3,1.6-6.9-0.9-8.7
	c-1.1-0.8-2.7-0.9-3.4-2c-0.3-0.5-0.5-1.1-0.5-1.7c-0.5-4.8-0.2-9.6,0.9-14.3c0.7-3.1,1.8-6.1,2.1-9.3s-0.2-6.6-2.3-9
	c-0.1-6.4,0-13-0.1-19.3c-0.1-3.6-0.1-7.3,0.9-10.8c0.5-1.7,1.2-3.3,1.6-5c1.3-6.1-2-13.4,2-18.3c1.7-2,4.2-3,6.3-4.5
	c4.3-2.9,7.1-7.6,8.7-12.5s2-10.2,2.5-15.3c0.1-1.1,0.1-2.2,0-3.3c-0.1-0.6-0.2-1.1-0.4-1.7c-1.2-2.8-4.5-3.8-7.5-4.5
	c-18.7-4.5-37.8-6.7-57-6.7c-7.1-4.8-11.1-3.1-14.1,2c-1.7,3.1-3,6.4-4,9.8c-1.4,4.2-1.5,27.4-2.8,31.6
	C782.3,555.8,787.3,566.9,787.2,572.6z"/>
<path class="st36" d="M915.6,361c0.5,3.7-1.2,7.3-1.4,11c-0.2,3.2,0.9,6.4,1.5,9.5c2.3,12.4-2.1,25-6.6,36.7c-0.8,1.9-1.4,3.9-1.6,6
	c-0.1,3.9,2.1,7.4,2.7,11.2c1.3,8-4.6,15.5-4.7,23.6c0,3.7,1.1,7.5,0.2,11.1c-0.6,2.4-2.1,4.5-3.2,6.7c-1.9,4-2.4,8.5-4.2,12.5
	c-3.3,7.3-10.3,12-16.9,16.3c-3.8-1.3-7.9-2.8-10-6.2c-0.9-1.7-1.5-3.5-1.7-5.4c-1.4-8.3-1.4-16.7-1.3-25.1
	c-0.1-7.2,0.3-14.4,1.2-21.5c1.3-9.1,4.3-17.9,6.4-26.9c2.7-11.3,4-23,8.2-33.9c3.7-9.5,9.4-18.1,15.4-26.3c2.3-3.1,4.1-7.6,8.5-6.9
	C911.8,354.2,914.9,357.2,915.6,361z"/>
<path class="st0" d="M818.9,281.3c2.8,4.8,5.6,9.7,7.3,14.9c2.7,0.7,5.5,1,8.2,1c10.8,0,18.4-6.1,24.7-13.9c0.5-2.5,4-4.8,3.6-6.8
	c-0.5-2.6-2.9-2.1-5.1-1.9c-6.7,0.5-13.3,1.4-19.9,2.6C835.9,277.5,819.2,281.7,818.9,281.3z"/>
<circle class="st31" cx="834.4" cy="261.8" r="34.5"/>
<path class="st0" d="M790.8,509c6-0.3,12-0.1,18,0.1c3.7,0,7.5,0.4,11.2,1.2c4.5,1,8.8,3.1,13.2,4.4c7.2,2.1,14.7,2.2,22.1,2.9
	c4.9,0.5,9.7,1.2,14.5,2.3c-0.1-0.6-0.2-1.1-0.4-1.7c-1.2-2.8-4.5-3.8-7.5-4.5c-18.7-4.5-37.8-6.7-57-6.7
	C797.8,502.2,793.8,503.9,790.8,509z"/>
<path class="st36" d="M814.3,318.3c1.5,1.7,3.5,3.7,5.8,3.1c0.8-0.3,1.6-0.7,2.2-1.2c4-2.6,8.9-3.2,13.5-3.9
	c9.4-1.4,18.8-3.5,27.9-6.3c2.7-1,5.4-1.5,8.3-1.7c5.8,0,11,3.9,14.7,8.5s6.3,9.9,9.9,14.5c2.6,3.3,5.6,6.2,8,9.6
	c6,8.6,7.3,19.9,5.8,30.3s-5.7,20.2-9.8,29.9c-2.4,5.5-4.7,11.1-8,16.2c1.4,7.9,0.7,17-3.1,24c-1.2,2.3-2.7,4.6-3.1,7.1
	c-0.2,1.7-0.1,3.5,0.2,5.2l1.8,12.5c0.5,3.8,1.1,7.6,1.8,11.4c1.3,6.9,3,14.4-0.2,20.7c-3.8,7.5,0.2,17.1-0.8,25.5
	c-10.8-4.2-22.1-6.9-33.6-8c-7.4-0.7-15-0.8-22.1-2.9c-4.5-1.3-8.7-3.4-13.2-4.4c-3.7-0.7-7.4-1.1-11.2-1.1
	c-8.3-0.3-16.6-0.7-24.8,0.6c-0.7,0.1-1.5,0.2-1.9-0.4c-0.2-0.3-0.3-0.6-0.3-1c-0.1-3.1,0.6-6.1,2.1-8.8c1-1.8,2.5-3.7,2.5-5.8
	c-0.1-1-0.3-2-0.7-2.9l-3.6-9.7c-3.1-8.2-1.6-17.6-3.2-26.2c-1.2-6.7-2-13.5-2.4-20.3c-0.3-5.8-0.1-12.1,3.4-16.8
	c1-1.1,1.9-2.4,2.7-3.7c0.5-1.4,0.7-2.9,0.6-4.4c0.1-11.6-0.3-23.3-1-34.9c3.1-5.5,6.3-11.1,9.3-16.6c3.6-6.4,7.2-12.9,8.6-20.1
	c1-4.8,0.9-9.6,1.6-14.5c0.1-1.2,0.5-2.4,1.2-3.4c1.2-1.3,3.1-1.5,4.9-1.5C810.1,317.1,812.3,317.5,814.3,318.3z"/>
<path class="st0" d="M688,297.5c2.2,1.7,4.8,2.7,7.5,3c3.6,0.2,11.1-1.9,13.3-4.9c0.9-1.5,1.4-3.3,1.3-5.1c-0.5-0.2-1-0.3-1.5-0.3
	c-3.9-0.2-7.8-0.5-11.6,0.5S689.6,293.9,688,297.5L688,297.5z"/>
<path class="st36" d="M802.8,372.2c-2.1,2.6-4.3,5.3-7.3,6.9c-3.4,1.8-7.5,1.8-11.3,1.7c-15.9-0.3-31.7-2.1-47.3-5.2
	c-1.8-0.3-3.5-0.8-5.2-1.4c-1.9-0.9-3.6-2-5.3-3.3c-5.1-3.7-10.3-7.5-14.3-12.4c-4.6-6-7.6-13.2-8.4-20.7c-3.7-3.4-5.7-8.3-7.5-13
	c-0.9-2-1.5-4.1-1.7-6.3c-0.1-2.2,1.4-4.6,1-6.8c-0.7-3.8-2.6-7.2-5.5-9.9c-0.6-0.4-1.1-1-1.3-1.7c-0.1-0.6,0-1.2,0.3-1.7
	c1.6-3.5,5.2-5.8,9-6.8s7.7-0.7,11.6-0.5c1.4,0.1,2.4,0.7,3.8,1l2.7,7.1c0.4,1.2,1,2.3,1.8,3.2c0.6,0.5,1.2,1,1.9,1.5
	c2.8,2.4,4.2,6,3.8,9.6c5.1,2,7.7,7.5,6.1,12.7c4.1,0.9,7.5,3.9,8.9,7.8c0.2,0.9,0.6,1.7,1.2,2.4c0.9,0.7,2,1,3.1,1
	c3,0.2,5.7,2.6,8.5,1.3c3.1-1.5,6.6-2,10-1.4c0.7,0.2,1.4,0.2,2.2,0.2c0.6-0.1,1.2-0.3,1.8-0.6c1.2-0.7,2.6-1.3,4-1.6
	c1.4-0.3,2.9,0.3,3.8,1.5c1-1.1,1.5-2.4,2.4-3.5c0.8-1.2,2.2-1.9,3.7-1.8c-0.9-0.8,0-2.5,1.2-2.8s2.5,0.1,3.7,0.1
	c3.2,0,5.6-2.9,8.7-3.7c2.8-0.7,6.7,0.1,8.1-2.4c0.5-0.9,0.6-2.1,1.5-2.7c0.6-0.3,1.3-0.4,1.9-0.2c2,0.3,4,0.9,5.8,1.8
	c3,11.7,1.4,23.8-0.9,35.7C808.1,363.1,806.4,367.7,802.8,372.2z"/>
<path class="st0" d="M802.9,414.1l14.9,30c-1.6-2.8-5-3.9-7.7-5.6c-3.4-2.4-6-5.9-7.3-9.9c-1.4-4-2.3-8-2.9-12.2
	c-0.3-1.9-0.9-4.6,0-6.3C801.6,410.5,802.2,412.6,802.9,414.1z"/>
<path class="st0" d="M845.7,439.5c3.3,3.3,7.5,5.8,11.2,8.7c8.6,6.9,14.8,16.3,20.8,25.5c1.7,2.4,3.1,5,4.2,7.8
	c-0.7,0.6-1.8,0-2.4-0.6l-11.7-10.3c-1.4-1.2-2.7-2.5-3.9-3.9c-2-2.7-2.9-6.1-4.8-9s-4.5-5-7.1-7.2s-15-12.7-12-16.8
	C842.1,434.7,843.9,437.7,845.7,439.5z"/>
<path class="st36" d="M820.2,309.6c3.7-2.3,8.1-3.3,12.3-4.1c2.6-0.6,5.2-0.8,7.9-0.6c2.4,0.3,4.8,1.2,7.2,1.4
	c3.4,0.2,6.7-1.2,10-2.1s7.2-1.3,9.9,0.8c0.6,0.6,1.3,1,2.2,1.1c0.8-0.1,1.6-0.5,2.2-1.1c4.8-3.5,11.4-3.1,15.9,0.8
	c6.3,5.9,5.6,17.5,13,22c2,1.2,4.7,1.9,5.8,4c0.3,0.7,0.6,1.3,1,1.9c0.5,0.5,1.1,1,1.8,1.3c2.2,1,4.2,2.1,6.1,3.5
	c1.9,1.4,3.2,3.5,3.5,5.9c0,1.7-0.3,3.4-1.1,5c-7.4,18.2-25.5,29.8-45.2,28.9c-1.7-0.1-3.5-0.3-4.7-1.5c-0.7-0.8-1.3-1.7-1.7-2.7
	c-3.5-7.3-10-12.7-14.2-19.7c-2.5-4.1-4.1-8.8-6.7-12.9c-3.8-6.2-9.8-10.8-15.6-15.2c-3.3-2.5-6.9-5.1-11.1-5
	c-3.7,0.2-6.3,0.4-5-4.1C815,314.1,817.2,311.4,820.2,309.6z"/>
<path class="st33" d="M820.2,310.1c3.7-2.3,8.1-3.3,12.3-4.1c2.6-0.6,5.2-0.8,7.9-0.6c2.4,0.3,4.8,1.2,7.2,1.4
	c3.4,0.2,6.7-1.2,10-2.1s7.2-1.3,9.9,0.8c0.6,0.6,1.3,1,2.2,1.1c0.8-0.1,1.6-0.5,2.2-1.1c4.8-3.5,11.4-3.1,15.9,0.8
	c6.3,5.9,5.6,17.5,13,22c2,1.2,4.7,1.9,5.8,4c0.3,0.7,0.6,1.3,1,1.9c0.5,0.5,1.1,1,1.8,1.3c2.2,1,4.2,2.1,6.1,3.5
	c1.9,1.4,3.2,3.5,3.5,5.9c0,1.7-0.3,3.4-1.1,5c-7.4,18.2-25.5,29.8-45.2,28.9c-1.7-0.1-3.5-0.3-4.7-1.5c-0.7-0.8-1.3-1.7-1.7-2.7
	c-3.5-7.3-10-12.7-14.2-19.7c-2.5-4.1-4.1-8.8-6.7-12.9c-3.8-6.2-9.8-10.8-15.6-15.2c-3.3-2.5-6.9-5.1-11.1-5
	c-3.7,0.2-6.3,0.4-5-4.1C815,314.6,817.2,311.9,820.2,310.1z"/>
<path class="st3" d="M802.2,809.8c2.5,2.3,5.9,3.3,9.3,4.1c7.6,1.7,15.3,2.3,23.1,2.8l7.5,0.6c7.4,0.5,14.7,1.1,22.1,1.2
	c9.1,0,18.2-0.8,27.2-2.3c1.3,0.1,2.4-0.8,2.5-2c0-0.2,0-0.5,0-0.7c-0.2-9.2-1.3-18.3-3.3-27.3c-0.9-3.7-7.5,4.6-7.8,4.9
	c-1.8,2.1-3.2,3-6,3.2c-7.6,0.4-16.1-4.2-22.1-8.3c-1.3-1-2.7-1.8-4.1-2.5c-1-0.5-2.2-0.8-3.3-1c-3.9-0.4-7.8,0.4-11.3,2.3
	c-4.5,2.3-8.5,5.5-13,7.8c-3.6,1.9-7.6,3.1-11.7,3.7c-4.1,0.6-9,0.8-11.1,4.4l0,0C798.4,803.5,799.7,807.5,802.2,809.8z"/>
<path class="st34" d="M802.2,811.2c2.5,2.3,5.9,3.3,9.3,4.1c7.6,1.7,15.3,2.3,23.1,2.8l7.5,0.6c7.4,0.5,14.7,1.1,22.1,1.2
	c9.1,0,18.2-0.8,27.2-2.3c0.8,0,1.6-0.4,2.2-1c0.3-0.5,1.7-2.5,1.7-3.1c-0.2-9.2-2.6-18.4-4.7-27.3c-0.9-3.7-7.5,4.6-7.8,4.9
	c-1.8,2.1-3.2,3-6,3.2c-7.6,0.4-16.1-4.2-22.1-8.3c-1.3-1-2.7-1.8-4.1-2.5c-1-0.5-2.2-0.8-3.3-1c1,5.5,8.8,12.1,12.8,14.1
	c8.2,4.1,17.9,2,27,2.5c0.7,0,1.3,0.1,1.9,0.5c1.1,0.7,1.2,2.3,1.1,3.6c-0.1,2.2-0.4,4.7-2.2,5.8c-0.9,0.5-2,0.7-3,0.6
	c-22.5,1-45,0.2-67.4-2.4c-3.8-0.3-7.5-1.1-11-2.4c-2.3-1.1-4.4-2.5-6.4-4.1C797.3,802.8,799.7,808.8,802.2,811.2z"/>
<path class="st3" d="M821,261.4c0.1,3.6-2.3,10.5,4.4,8.6c4-1.2,5.1-5.9,10.2-4.8s6.2,7.3,7.9,11.3c2.8,6.6,8.7,11.3,15.7,12.7
	c1.4,0.3,2.9,0.3,4.3,0c3.3-0.9,5.1-4.3,6.5-7.4c1.1-2.6,2.1-5.3,2.8-8.1c0.5-2,0.8-4,1-6l0,0c0.1-1.4,0.1-2.7,0-4.1
	c-0.6-8.1-5.2-15.5-11.1-21.1s-13.1-9.6-20.2-13.6c-2.3-1.4-4.8-2.6-7.5-3.3c-2.6-0.5-5.2-0.6-7.9-0.3c-3.5,0.1-6.8,0.9-10,2.4
	c-1.3,0.6-2.5,1.5-3.5,2.5c-1.5,1.4-2.5,3.1-3,5.1c-1.3,5.3,2.1,10,4.8,14.1C817.8,252.9,820.8,256.8,821,261.4z"/>
<path class="st0" d="M708.7,338c1.4-3.6,7.4-13.5,5.7-17c-1.8,2.6-3.3,5.3-4.6,8.1C708.7,332,709.6,335.7,708.7,338z"/>
<path class="st0" d="M815.3,249.2c-2.7-4.1-6.1-8.9-4.8-14.1c0.6-2.3,2-4.3,3.9-5.8c-0.4,0.8-0.8,1.6-1,2.5
	c-1.3,5.2,2.1,10,4.8,14.1c2.4,3.7,5.4,7.6,5.6,12.2c0.1,3.6-2.3,10.5,4.4,8.6c4-1.1,5.1-5.9,10.2-4.8s6.2,7.3,7.9,11.3
	c2.8,6.6,8.7,11.3,15.8,12.7c1.4,0.3,2.9,0.3,4.3,0c0.7-0.2,1.4-0.6,2-1c-1,2-2.8,3.6-4.9,4.4c-1.4,0.3-2.9,0.3-4.3,0
	c-7-1.4-12.9-6.2-15.7-12.7c-1.7-4.1-2.8-10.3-7.9-11.3s-6.2,3.7-10.2,4.8c-6.7,1.9-4.2-5-4.4-8.6
	C820.7,256.8,817.7,252.9,815.3,249.2z"/>
<path class="st0" d="M813.8,242.1c0.6,1,1.3,2,2,2.9c1.4,1.8,3,3.4,4.7,4.9c1,0.9,2.1,1.7,3.2,2.5c2,1.4,4.2,2.7,6.4,3.9
	c6.5,3.3,13.6,5.4,20.6,7.4l13.8,4c1.7,1.3,4.8,3.6,8.2,6c0.5-2,0.8-4,1-6l0,0c0.1-1.4,0.1-2.7,0-4.1c-0.6-8.1-5.2-15.5-11.1-21.1
	s-13.1-9.6-20.2-13.6c-2.3-1.4-4.8-2.6-7.5-3.3c-2.6-0.5-5.2-0.6-7.9-0.3c-3.5,0.1-6.8,0.9-10,2.4c-1.3,0.6-2.5,1.5-3.5,2.5
	c-0.8,1.1-1.4,2.4-1.8,3.7C811,236.6,812.2,239.6,813.8,242.1z"/>
<path class="st36" d="M813.8,241.2c0.6,1,1.3,2,2,2.9c1.4,1.8,3,3.4,4.7,4.9c1,0.9,2.1,1.7,3.2,2.5c2,1.4,4.2,2.7,6.4,3.9
	c6.5,3.3,13.6,5.4,20.6,7.4l13.8,4c4.8,3.6,20.9,15.6,23.6,14.1c3.2-1.8-14.3-14.1-14.3-14.1l-0.8,0.6c2.6-1.6,3.9-5.3,4.5-8.6
	c1-5.8,1.5-11.8,0.1-17.5s-4.8-11.1-10-13.8c-2.3-1.2-5.1-2-6.8-3.8c-0.3-0.3-0.5-0.6-0.7-0.9c-0.1-0.2-0.2-0.3-0.3-0.5
	c-0.2-0.5-0.4-1-0.7-1.4c-1-1.1-2.7-0.8-4.2-0.6l-0.5,0.1c-0.3,0-0.5,0-0.8,0c-5.2,0.1-10.2-2.8-15.4-2.8c-5.8,0-10.6,3.3-15.7,5.6
	c-1,0.5-2,0.9-2.9,1.3c-3.7,1.7-6.4,3.5-7.9,8.3C811,235.6,812.2,238.7,813.8,241.2z"/>
<path class="st0" d="M853.8,220.3c-0.6,1-0.4,2.3,0.5,3c0.6,0.5,1.4,0.7,2.2,0.8c0.6,0.1,1.1,0.1,1.7,0.1c0.8,0.1,1.5-0.1,2.2-0.4
	c0.1-0.1,0.3-0.2,0.4-0.3c-0.3-0.3-0.5-0.6-0.7-0.9c-0.1,0.1-0.3,0.1-0.8,0c-0.9,0-1.9-0.2-2.8-0.5c-1-0.2-1.8-1-2-2L853.8,220.3z"
	/>
<path class="st0" d="M873.5,266.5c-0.7,0.5-1.5,0.8-2.4,0.9c-0.6,0.2-1.2,0.3-1.8,0.3c-1.6-0.1-3.1-0.5-4.5-1.3L873.5,266.5z"/>
<linearGradient id="SVGID_24_" gradientUnits="userSpaceOnUse" x1="313.0218" y1="6.269" x2="313.0218" y2="607.7064" gradientTransform="matrix(-1 0 0 -1 816.94 804.47)">
	<stop  offset="0" style="stop-color:#808080;stop-opacity:0.25"/>
	<stop  offset="0.54" style="stop-color:#808080;stop-opacity:0.12"/>
	<stop  offset="1" style="stop-color:#808080;stop-opacity:0.1"/>
</linearGradient>
<path class="st37" d="M442.2,374.8l-1.3-2.9l-0.5,0.1l1.4,2.9l9.8,20.6c-0.2,0.3-3.1,3.7-3,7c0,0.5,0.1,1,0.3,1.5
	c0.5,1.5,1.1,2,1.7,2.2c0-0.1,0-0.2,0-0.3c0-0.3,0-0.7,0-1v-0.2v-0.2v0c0-0.1,0-0.1,0-0.2c0,0,0,0,0-0.1s0,0,0,0c0-0.1,0-0.1,0-0.2
	l0,0c0,0,0-0.1,0-0.1c0,0,0-0.1,0-0.1l0.1-0.4l0-0.1l0.1-0.2c0-0.1,0.1-0.3,0.2-0.4c0-0.1,0-0.1,0.1-0.2l0.1-0.3
	c0.1-0.3,0.3-0.5,0.4-0.8s0.3-0.5,0.4-0.7c0.4-0.7,0.8-1.3,1.3-1.9L442.2,374.8z M453.1,409.4L453.1,409.4c-0.3,0.1-0.5,0.1-0.7,0
	h-0.1c-0.1,0-0.1,0-0.2-0.1c-0.1-0.1-0.3-0.1-0.4-0.3l-0.1-0.1c-0.3-0.3-0.6-0.7-0.7-1.1c-0.1,0.4-0.2,0.8-0.2,1.2
	c-0.1,0.7,0.3,1.4,0.9,1.8c0.4,0.2,0.7,0.6,1,0.9l0,0l0,0c0,0,0,0,0-0.1l0,0c0,0,0-0.1,0-0.1c0,0,0,0,0-0.1c0.1-0.4,0.2-0.8,0.4-1.2
	c0.1-0.2,0.2-0.4,0.3-0.5c0-0.1,0.1-0.2,0.1-0.2l0.1-0.1l0.1-0.2C453.5,409.2,453.3,409.3,453.1,409.4L453.1,409.4z M453.1,409.4
	L453.1,409.4c-0.3,0.1-0.5,0.1-0.7,0h-0.1c-0.1,0-0.1,0-0.2-0.1c-0.1-0.1-0.3-0.1-0.4-0.3l-0.1-0.1c-0.3-0.3-0.6-0.7-0.7-1.1
	c-0.1,0.4-0.2,0.8-0.2,1.2c-0.1,0.7,0.3,1.4,0.9,1.8c0.4,0.2,0.7,0.6,1,0.9l0,0l0,0c0,0,0,0,0-0.1l0,0c0,0,0-0.1,0-0.1
	c0,0,0,0,0-0.1c0.1-0.4,0.2-0.8,0.4-1.2c0.1-0.2,0.2-0.4,0.3-0.5c0-0.1,0.1-0.2,0.1-0.2l0.1-0.1l0.1-0.2
	C453.5,409.2,453.3,409.3,453.1,409.4L453.1,409.4z M442.2,374.8l-1.3-2.9l-0.5,0.1l1.4,2.9l9.8,20.6c-0.2,0.3-3.1,3.7-3,7
	c0,0.5,0.1,1,0.3,1.5c0.5,1.5,1.1,2,1.7,2.2c0-0.1,0-0.2,0-0.3c0-0.3,0-0.7,0-1c0,0,0-0.1,0-0.1c0,0,0-0.1,0-0.1l0,0
	c0,0,0-0.1,0-0.1l0,0v0c0,0,0-0.1,0-0.1l0,0c0,0,0-0.1,0-0.1l0,0c0-0.1,0-0.2,0-0.2c0,0,0-0.1,0-0.1c0,0,0-0.1,0-0.1l0.1-0.4l0-0.1
	l0.1-0.2c0-0.1,0.1-0.3,0.2-0.4c0-0.1,0-0.1,0.1-0.2l0.1-0.3c0.1-0.3,0.3-0.5,0.4-0.8s0.3-0.5,0.4-0.7c0.4-0.7,0.8-1.3,1.3-1.9
	L442.2,374.8z M453.1,409.4L453.1,409.4c-0.3,0.1-0.5,0.1-0.7,0h-0.1c-0.1,0-0.1,0-0.2-0.1c-0.1-0.1-0.3-0.1-0.4-0.3l-0.1-0.1
	c-0.3-0.3-0.6-0.7-0.7-1.1c-0.1,0.4-0.2,0.8-0.2,1.2c-0.1,0.7,0.3,1.4,0.9,1.8c0.4,0.2,0.7,0.6,1,0.9l0,0l0,0c0,0,0,0,0-0.1l0,0
	c0,0,0-0.1,0-0.1c0,0,0,0,0-0.1c0.1-0.4,0.2-0.8,0.4-1.2l0.2-0.4l0.1-0.1c0-0.1,0.1-0.2,0.1-0.2l0.1-0.1l0.1-0.2
	C453.5,409.2,453.3,409.3,453.1,409.4L453.1,409.4z M442.2,374.8l-1.3-2.9l-0.5,0.1l1.4,2.9l9.8,20.6c-0.2,0.3-3.1,3.7-3,7
	c0,0.5,0.1,1,0.3,1.5c0.5,1.5,1.1,2,1.7,2.2c0-0.1,0-0.2,0-0.3c0-0.3,0-0.7,0-1c0,0,0-0.1,0-0.1c0,0,0-0.1,0-0.1l0,0
	c0,0,0-0.1,0-0.1l0,0l0,0c0,0,0-0.1,0-0.1l0,0c0,0,0-0.1,0-0.1l0,0c0-0.1,0-0.2,0-0.2c0,0,0-0.1,0-0.1c0,0,0-0.1,0-0.1l0.1-0.4
	l0-0.1l0.1-0.2c0-0.1,0.1-0.3,0.2-0.4c0-0.1,0-0.1,0.1-0.2l0.1-0.3c0.1-0.3,0.3-0.5,0.4-0.8s0.3-0.5,0.4-0.7
	c0.4-0.7,0.8-1.3,1.3-1.9L442.2,374.8z M453.1,409.4L453.1,409.4c-0.3,0.1-0.5,0.1-0.7,0h-0.1c-0.1,0-0.1,0-0.2-0.1
	c-0.1-0.1-0.3-0.1-0.4-0.3l-0.1-0.1c-0.3-0.3-0.6-0.7-0.7-1.1c-0.1,0.4-0.2,0.8-0.2,1.2c-0.1,0.7,0.3,1.4,0.9,1.8
	c0.4,0.2,0.7,0.6,1,0.9l0,0l0,0c0,0,0,0,0-0.1l0,0c0,0,0-0.1,0-0.1c0,0,0-0.1,0-0.1c0.1-0.4,0.2-0.8,0.4-1.2l0.2-0.4l0.1-0.1
	c0-0.1,0.1-0.2,0.1-0.2l0.1-0.1l0.1-0.2C453.5,409.2,453.3,409.3,453.1,409.4L453.1,409.4z M442.2,374.8l-1.3-2.9l-0.5,0.1l1.4,2.9
	l9.8,20.6c-0.2,0.3-3.1,3.7-3,7c0,0.5,0.1,1,0.3,1.5c0.5,1.5,1.1,2,1.7,2.2c0-0.1,0-0.2,0-0.3c0-0.3,0-0.7,0-1c0,0,0-0.1,0-0.1
	c0,0,0-0.1,0-0.1l0,0c0,0,0-0.1,0-0.1l0,0l0,0c0,0,0-0.1,0-0.1l0,0c0,0,0-0.1,0-0.1l0,0c0-0.1,0-0.2,0-0.2c0,0,0-0.1,0-0.1
	c0,0,0-0.1,0-0.1l0.1-0.4l0-0.1l0.1-0.2c0-0.1,0.1-0.3,0.2-0.4c0-0.1,0-0.1,0.1-0.2l0.1-0.3c0.1-0.3,0.3-0.5,0.4-0.8
	s0.3-0.5,0.4-0.7c0.4-0.7,0.8-1.3,1.3-1.9L442.2,374.8z M453.1,409.4L453.1,409.4c-0.3,0.1-0.5,0.1-0.7,0h-0.1c-0.1,0-0.1,0-0.2-0.1
	c-0.1-0.1-0.3-0.1-0.4-0.3l-0.1-0.1c-0.3-0.3-0.6-0.7-0.7-1.1c-0.1,0.4-0.2,0.8-0.2,1.2c-0.1,0.7,0.3,1.4,0.9,1.8
	c0.4,0.2,0.7,0.6,1,0.9l0,0l0,0c0,0,0,0,0-0.1l0,0c0,0,0-0.1,0-0.1c0,0,0-0.1,0-0.1c0.1-0.4,0.2-0.8,0.4-1.2l0.2-0.4l0.1-0.1
	c0-0.1,0.1-0.2,0.1-0.2l0.1-0.1l0.1-0.2C453.5,409.2,453.3,409.3,453.1,409.4L453.1,409.4z M442.2,374.8l-1.3-2.9l-0.5,0.1l1.4,2.9
	l9.8,20.6c-0.2,0.3-3.1,3.7-3,7c0,0.5,0.1,1,0.3,1.5c0.5,1.5,1.1,2,1.7,2.2c0-0.1,0-0.2,0-0.3c0-0.3,0-0.7,0-1c0,0,0-0.1,0-0.1
	c0,0,0-0.1,0-0.1l0,0c0,0,0-0.1,0-0.1l0,0l0,0c0,0,0-0.1,0-0.1l0,0c0,0,0-0.1,0-0.1l0,0c0-0.1,0-0.2,0-0.2c0,0,0-0.1,0-0.1
	c0,0,0-0.1,0-0.1l0.1-0.4l0-0.1l0.1-0.2c0-0.1,0.1-0.3,0.2-0.4c0-0.1,0-0.1,0.1-0.2l0.1-0.3c0.1-0.3,0.3-0.5,0.4-0.8
	s0.3-0.5,0.4-0.7c0.4-0.7,0.8-1.3,1.3-1.9L442.2,374.8z M453.1,409.4L453.1,409.4c-0.3,0.1-0.5,0.1-0.7,0h-0.1c-0.1,0-0.1,0-0.2-0.1
	c-0.1-0.1-0.3-0.1-0.4-0.3l-0.1-0.1c-0.3-0.3-0.6-0.7-0.7-1.1c-0.1,0.4-0.2,0.8-0.2,1.2c-0.1,0.7,0.3,1.4,0.9,1.8
	c0.4,0.2,0.7,0.6,1,0.9l0,0l0,0c0,0,0,0,0-0.1l0,0c0,0,0-0.1,0-0.1c0,0,0-0.1,0-0.1c0.1-0.4,0.2-0.8,0.4-1.2l0.2-0.4l0.1-0.1
	c0-0.1,0.1-0.2,0.1-0.2l0.1-0.1l0.1-0.2C453.5,409.2,453.3,409.3,453.1,409.4L453.1,409.4z M442.2,374.8l-1.3-2.9l-0.5,0.1l1.4,2.9
	l9.8,20.6c-0.2,0.3-3.1,3.7-3,7c0,0.5,0.1,1,0.3,1.5c0.5,1.5,1.1,2,1.7,2.2c0-0.1,0-0.2,0-0.3c0-0.3,0-0.7,0-1c0,0,0-0.1,0-0.1
	c0,0,0-0.1,0-0.1l0,0c0,0,0-0.1,0-0.1l0,0l0,0c0,0,0-0.1,0-0.1l0,0c0,0,0-0.1,0-0.1l0,0c0-0.1,0-0.2,0-0.2c0,0,0-0.1,0-0.1
	c0,0,0-0.1,0-0.1l0.1-0.4l0-0.1l0.1-0.2c0-0.1,0.1-0.3,0.2-0.4c0-0.1,0-0.1,0.1-0.2l0.1-0.3c0.1-0.3,0.3-0.5,0.4-0.8
	s0.3-0.5,0.4-0.7c0.4-0.7,0.8-1.3,1.3-1.9L442.2,374.8z M453.1,409.4L453.1,409.4c-0.3,0.1-0.5,0.1-0.7,0h-0.1c-0.1,0-0.1,0-0.2-0.1
	c-0.1-0.1-0.3-0.1-0.4-0.3l-0.1-0.1c-0.3-0.3-0.6-0.7-0.7-1.1c-0.1,0.4-0.2,0.8-0.2,1.2c-0.1,0.7,0.3,1.4,0.9,1.8
	c0.4,0.2,0.7,0.6,1,0.9l0,0l0,0c0,0,0,0,0-0.1l0,0c0,0,0-0.1,0-0.1c0,0,0-0.1,0-0.1c0.1-0.4,0.2-0.8,0.4-1.2l0.2-0.4l0.1-0.1
	c0-0.1,0.1-0.2,0.1-0.2l0.1-0.1l0.1-0.2C453.5,409.2,453.3,409.3,453.1,409.4L453.1,409.4z M442.2,374.8l-1.3-2.9l-0.5,0.1l1.4,2.9
	l9.8,20.6c-0.2,0.3-3.1,3.7-3,7c0,0.5,0.1,1,0.3,1.5c0.5,1.5,1.1,2,1.7,2.2c0-0.1,0-0.2,0-0.3c0-0.3,0-0.7,0-1c0,0,0-0.1,0-0.1
	c0,0,0-0.1,0-0.1l0,0c0,0,0-0.1,0-0.1l0,0l0,0c0,0,0-0.1,0-0.1l0,0c0,0,0-0.1,0-0.1l0,0c0-0.1,0-0.2,0-0.2c0,0,0-0.1,0-0.1
	c0,0,0-0.1,0-0.1l0.1-0.4l0-0.1l0.1-0.2c0-0.1,0.1-0.3,0.2-0.4c0-0.1,0-0.1,0.1-0.2l0.1-0.3c0.1-0.3,0.3-0.5,0.4-0.8
	s0.3-0.5,0.4-0.7c0.4-0.7,0.8-1.3,1.3-1.9L442.2,374.8z M453.1,409.4L453.1,409.4c-0.3,0.1-0.5,0.1-0.7,0h-0.1c-0.1,0-0.1,0-0.2-0.1
	c-0.1-0.1-0.3-0.1-0.4-0.3l-0.1-0.1c-0.3-0.3-0.6-0.7-0.7-1.1c-0.1,0.4-0.2,0.8-0.2,1.2c-0.1,0.7,0.3,1.4,0.9,1.8
	c0.4,0.2,0.7,0.6,1,0.9l0,0l0,0c0,0,0,0,0-0.1l0,0c0,0,0-0.1,0-0.1c0,0,0-0.1,0-0.1c0.1-0.4,0.2-0.8,0.4-1.2l0.2-0.4l0.1-0.1
	c0-0.1,0.1-0.2,0.1-0.2l0.1-0.1l0.1-0.2C453.5,409.2,453.3,409.3,453.1,409.4L453.1,409.4z M442.2,374.8l-1.3-2.9l-0.5,0.1l1.4,2.9
	l9.8,20.6c-0.2,0.3-3.1,3.7-3,7c0,0.5,0.1,1,0.3,1.5c0.5,1.5,1.1,2,1.7,2.2c0-0.1,0-0.2,0-0.3c0-0.3,0-0.7,0-1c0,0,0-0.1,0-0.1
	c0,0,0-0.1,0-0.1l0,0c0,0,0-0.1,0-0.1l0,0l0,0c0,0,0-0.1,0-0.1l0,0c0,0,0-0.1,0-0.1l0,0c0-0.1,0-0.2,0-0.2c0,0,0-0.1,0-0.1
	c0,0,0-0.1,0-0.1l0.1-0.4l0-0.1l0.1-0.2c0-0.1,0.1-0.3,0.2-0.4c0-0.1,0-0.1,0.1-0.2l0.1-0.3c0.1-0.3,0.3-0.5,0.4-0.8
	s0.3-0.5,0.4-0.7c0.4-0.7,0.8-1.3,1.3-1.9L442.2,374.8z M453.1,409.4L453.1,409.4c-0.3,0.1-0.5,0.1-0.7,0h-0.1c-0.1,0-0.1,0-0.2-0.1
	c-0.1-0.1-0.3-0.1-0.4-0.3l-0.1-0.1c-0.3-0.3-0.6-0.7-0.7-1.1c-0.1,0.4-0.2,0.8-0.2,1.2c-0.1,0.7,0.3,1.4,0.9,1.8
	c0.4,0.2,0.7,0.6,1,0.9l0,0l0,0c0,0,0,0,0-0.1l0,0c0,0,0-0.1,0-0.1c0,0,0-0.1,0-0.1c0.1-0.4,0.2-0.8,0.4-1.2l0.2-0.4l0.1-0.1
	c0-0.1,0.1-0.2,0.1-0.2l0.1-0.1l0.1-0.2C453.5,409.2,453.3,409.3,453.1,409.4L453.1,409.4z M442.2,374.8l-1.3-2.9l-0.5,0.1l1.4,2.9
	l9.8,20.6c-0.2,0.3-3.1,3.7-3,7c0,0.5,0.1,1,0.3,1.5c0.5,1.5,1.1,2,1.7,2.2c0-0.1,0-0.2,0-0.3c0-0.3,0-0.7,0-1c0,0,0-0.1,0-0.1
	c0,0,0-0.1,0-0.1l0,0c0,0,0-0.1,0-0.1l0,0l0,0c0,0,0-0.1,0-0.1l0,0c0,0,0-0.1,0-0.1l0,0c0-0.1,0-0.2,0-0.2c0,0,0-0.1,0-0.1
	c0,0,0-0.1,0-0.1l0.1-0.4l0-0.1l0.1-0.2c0-0.1,0.1-0.3,0.2-0.4c0-0.1,0-0.1,0.1-0.2l0.1-0.3c0.1-0.3,0.3-0.5,0.4-0.8
	s0.3-0.5,0.4-0.7c0.4-0.7,0.8-1.3,1.3-1.9L442.2,374.8z M453.1,409.4L453.1,409.4c-0.3,0.1-0.5,0.1-0.7,0h-0.1c-0.1,0-0.1,0-0.2-0.1
	c-0.1-0.1-0.3-0.1-0.4-0.3l-0.1-0.1c-0.3-0.3-0.6-0.7-0.7-1.1c-0.1,0.4-0.2,0.8-0.2,1.2c-0.1,0.7,0.3,1.4,0.9,1.8
	c0.4,0.2,0.7,0.6,1,0.9l0,0l0,0c0,0,0,0,0-0.1l0,0c0,0,0-0.1,0-0.1c0,0,0-0.1,0-0.1c0.1-0.4,0.2-0.8,0.4-1.2l0.2-0.4l0.1-0.1
	c0-0.1,0.1-0.2,0.1-0.2l0.1-0.1l0.1-0.2C453.5,409.2,453.3,409.3,453.1,409.4L453.1,409.4z M442.2,374.8l-1.3-2.9l-0.5,0.1l1.4,2.9
	l9.8,20.6c-0.2,0.3-3.1,3.7-3,7c0,0.5,0.1,1,0.3,1.5c0.5,1.5,1.1,2,1.7,2.2c0-0.1,0-0.2,0-0.3c0-0.3,0-0.7,0-1c0,0,0-0.1,0-0.1
	c0,0,0-0.1,0-0.1l0,0c0,0,0-0.1,0-0.1l0,0v0c0,0,0-0.1,0-0.1l0,0c0,0,0-0.1,0-0.1l0,0c0-0.1,0-0.2,0-0.2c0,0,0-0.1,0-0.1
	c0,0,0-0.1,0-0.1l0.1-0.4l0-0.1l0.1-0.2c0-0.1,0.1-0.3,0.2-0.4c0-0.1,0-0.1,0.1-0.2l0.1-0.3c0.1-0.3,0.3-0.5,0.4-0.8
	s0.3-0.5,0.4-0.7c0.4-0.7,0.8-1.3,1.3-1.9L442.2,374.8z M453.1,409.4L453.1,409.4c-0.3,0.1-0.5,0.1-0.7,0h-0.1c-0.1,0-0.1,0-0.2-0.1
	c-0.1-0.1-0.3-0.1-0.4-0.3l-0.1-0.1c-0.3-0.3-0.6-0.7-0.7-1.1c-0.1,0.4-0.2,0.8-0.2,1.2c-0.1,0.7,0.3,1.4,0.9,1.8
	c0.4,0.2,0.7,0.6,1,0.9l0,0l0,0c0-0.1,0-0.1,0-0.2c0,0,0-0.1,0-0.1c0.1-0.4,0.2-0.8,0.4-1.2l0.2-0.4l0.2-0.4l0.1-0.1l0.1-0.2
	C453.5,409.2,453.3,409.3,453.1,409.4L453.1,409.4z M450.9,403.2c0-0.1,0.1-0.3,0.2-0.4s0-0.1,0.1-0.2c0-0.1,0.1-0.2,0.1-0.3
	c0.1-0.3,0.3-0.5,0.4-0.8s0.3-0.5,0.4-0.7c0.4-0.7,0.8-1.3,1.3-1.9l-11.1-24l-1.4-2.9l-0.5,0.1l1.4,2.9l9.8,20.6
	c-0.2,0.3-3.1,3.7-3,7c0,0.5,0.1,1,0.3,1.5c0.5,1.5,1.1,2,1.7,2.2c0-0.1,0-0.2,0-0.3c0-0.3,0-0.7,0-1c0,0,0-0.1,0-0.1
	c0,0,0-0.1,0-0.1c0-0.1,0-0.2,0-0.3l0,0l0.1-0.3v-0.1v-0.1l0.1-0.4C450.8,403.4,450.8,403.3,450.9,403.2z M601.4,263
	c-1.2-1.5-2.9-2.6-4.8-3c-1.9-0.3-3.9,0.1-5.5,1.3c0.5-0.5,2.9-3.2,5-5.9c2.5-3.1,4.4-6.2,2-5.7c-4.7,1-13.2,11.4-13.2,11.4
	l-1.8,3.1l0,0l-5.1,9.1l-0.5,1c-1.7,0-3.4,0.3-5.1,0.6l-0.6,0.8c-0.9,1.2-2.4,3.5-2.6,4.9c-0.2,2-8.6,5.7-12,7.7s-6.6,8.4-6.6,8.4
	s-11.3,1-14.5,4c-2.2,2.1-7.7,2.1-10.8,1.9l0,0l-0.8,0c-0.9-0.1-1.4-0.1-1.4-0.1s-3.2-3.5-5.6-3.7c-1.5-0.1-3.1-0.1-4.7,0
	c0,0-1.3-0.4-3.2-1l-0.5-0.1c-0.4-0.1-0.9-0.3-1.4-0.4l-0.4-0.1c0.2-0.2,0.4-0.4,0.5-0.6c0.3-0.4,0.5-0.8,0.7-1.2l0,0
	c0.3-0.8,0.4-1.7,0.3-2.6c-0.2-0.9-0.5-1.8-1-2.6c-0.3-0.5-0.6-1-0.9-1.5c-1.6-2.7-2.6-5.6-3.1-8.7l0,0c-0.8-4.9,0-9.9,2.3-14.3
	c0.6-1.1,1.3-2.3,2-3.3l1.1-1.6l0.7-1l0.8-1.1l0,0l0.8-1.1c1.1-1.6,2.1-3.3,2.9-5c0.2-0.4,0.3-0.7,0.4-1.1c0-0.1,0.1-0.3,0.1-0.4
	s0.2-0.5,0.2-0.7s0.1-0.3,0.1-0.4c0.1-0.2,0.1-0.5,0.2-0.7c0-0.2,0.1-0.3,0.1-0.5s0.1-0.5,0.1-0.7s0-0.3,0.1-0.5l0.1-0.7
	c0-0.2,0-0.3,0-0.5l0,0l0,0c0-0.2,0-0.5,0-0.7v-0.5c0-0.4,0-0.7,0-1.1c0-0.1,0-0.3,0-0.5s0-0.4-0.1-0.7s0-0.4-0.1-0.6
	s-0.1-0.4-0.1-0.6l-0.1-0.6c0-0.2-0.1-0.4-0.1-0.5l-0.2-0.6c0-0.2-0.1-0.3-0.1-0.5s-0.1-0.4-0.2-0.6c0-0.2-0.1-0.3-0.2-0.5
	c-0.1-0.2-0.1-0.4-0.2-0.6s-0.1-0.3-0.2-0.4c-0.6-1.3-1.3-2.6-2.1-3.7l-1.5-1.8l0,0l-0.4-0.5c0-0.1-0.1-0.2-0.1-0.3
	c-0.1-0.2-0.2-0.3-0.3-0.5c-0.7-1.5-1.3-3-2-4.5c-0.2-0.5-0.4-0.9-0.6-1.4c0-0.1-0.1-0.2-0.1-0.3c-0.3-0.7-0.6-1.4-0.9-2.1
	c-0.3-0.5-0.5-1-0.8-1.5c-0.1-0.2-0.2-0.3-0.3-0.5l-0.6-1l-0.3-0.5l-0.7-1l-0.3-0.4c-0.3-0.4-0.6-0.9-1-1.3l0,0
	c-0.3-0.5-0.7-0.9-1.1-1.4l-0.3-0.3l-0.9-1l-0.3-0.4l-0.9-1l-0.3-0.3c-1.4-1.5-2.9-2.9-4.5-4.3l-0.8-0.7l0,0l-2.8-2.5l-1-0.8
	c-0.3-0.3-0.6-0.5-0.9-0.8c-2.1-1.9-4.4-3.4-7-4.5c-3.3-1.2-6.9-1.5-10.3-1.1c-5.6,0.5-11,2.4-15.8,5.5c-0.4,0.2-0.7,0.5-1.1,0.8
	c-2.1,1.5-4,3.2-5.6,5.2c-0.3,0.3-0.5,0.7-0.8,1s-0.4,0.6-0.7,0.9c-2.5,3.6-4,7.8-5.6,11.9c-5.4,14.4-10.9,29.3-11.7,44.5
	c0,0.3,0,0.5,0,0.8c-0.1,1.9-0.1,3.9,0,5.8l0,0c0,0,0,0.1,0,0.1c0,0.4,0,0.8,0.1,1.1c0.4,5.7,1.5,11.5,2.4,17.2l-0.6,0.2
	c-7,2.7-8.3,8-8.3,8c0,0,0,0,0,0l0,0c0.1,0.4,0.1,0.9,0.1,1.3c0,3.3-0.9,6.4-2.6,9.2l-0.4,0.7l0,0c-2.2,3.6-2.6,6-2.6,7.5
	c0,0.6,0.1,1.1,0.3,1.7l0,0l0,0v0.1c0,0.1,0,0.1,0,0.2v0.1l0,0c-0.8,2.3-2,4.4-3.5,6.3c-2.5,2.7-9.1,29.7-9.1,29.7
	c0.3,0.7,0.4,1.4,0.4,2.2l0,0c0,0.6-0.2,1.2-0.4,1.7l0,0l0,0c-0.3,0.9-0.2,2,0.4,2.8l0,0c0.4,0.8,1,1.5,1.6,2.2c0,0,1.5-0.5-1,2.2
	l-0.1,0.2l0,0c-0.8,1.1-0.7,2.6,0.2,3.6c0.6,0.8,1.3,1.6,2.2,2.2c0,0,20.1,34.6,24.3,38.4s8.3,13.4,8.3,13.4s0.4-0.7,1.1-1.7
	c0.3-0.5,0.7-1.1,1.2-1.8l1.3,1.7l0,0l2.6,3.4l-1,2l0,0c-1,1.9-1.9,3.9-2.7,6c-0.1,0.2-0.1,0.4-0.1,0.5c0,0.5,0.3,1,0.7,1.4
	c-5,6.6-16.9,24.8-16,47.3l0,0v0.6c0,0.1,0,0.1,0,0.2c0.4,7.8,2.4,15.5,5.8,22.6c0.3,2.2,0.5,4.5,0.5,6.8l0,0c0,0.5-0.1,0.9-0.3,1.3
	c-0.1,0.9-0.1,1.9,0.1,2.8l0,0c0.7,4.9,2.9,14.5,2.9,14.5s0,0.9,0,2.5v0c0,0.7,0,1.6,0,2.5c0.1,8.6,0.3,25.5-0.1,29.1
	c-0.2,2.1-0.4,3.8-0.6,5c-0.2,1.7-0.4,2.6-0.4,2.6s-0.1,0.6-0.2,1.8c0,0.4-0.1,0.9-0.2,1.4c-0.8,6.8-2.7,23.2-3.8,38.5
	c0,0.7-0.1,1.3-0.1,2c-0.6,8.2-0.9,16-0.7,21.6c0,0.2,0,0.3,0,0.5s0,0.2,0,0.3c0.1,1.4,0.2,2.7,0.3,3.8c0.5,3.6,0.9,7.8,1.3,12.2
	c0,0.5,0.1,1,0.1,1.4c0.6,8,1.1,16.4,1.4,22.5c0,0.2,0,0.3,0,0.5v0.7c0,0.1,0,0.2,0,0.3c0,0,0,0.1,0,0.1c0,0.3,0,0.7,0,1
	c0,0.1,0,0.1,0,0.2s0,0.3,0,0.5s0,0.5,0,0.8s0,0.7,0,1l0,0v0.6v0.1c0,0.6,0,1.2,0.1,1.7c0,0.8,0.1,1.3,0.1,1.3v0.1l0,0
	c0,0,0,0,0,0.1v0.1l0.8,7l4.3,35.3l1.3,11.1l2.8,24.1l10.1-1.9l0.1,1.1l0.3,3.7l0,0l2.8-0.3c0,0.4,0,0.7-0.1,1.1
	c-0.5,8.4-0.3,16.8-0.3,16.8h0.1c3.1,0.6,6.1,1,9,1.3v8.7h4.7l-0.6-7.5l-0.1-0.9h0.1c6.2,0.4,12.5,0.1,18.6-0.7l0.6-0.1l0.8,0.9
	l7.1,8.2c0,0,14,0.7,26.2-2c9.2-2,18.9-11.1,19.2-14.5l0,0c0.1-1.1-0.8-1.6-3-1.1c-6.6,1.6-17.9,0-23.5-1
	c-1.3-2.9-4.8-11.2-7.6-17.7l-0.4-1c4.1-3.1,7.3-7.1,7.7-9.2c0.3-1.2-0.4-1.8-2.5-1.1c-2.5,0.7-5,1.2-7.6,1.2l0,0h-1
	c0-0.1,0.1-0.1,0.1-0.2c2-2.8,2.3-6.5,2.1-10.1c-0.1-1.3-0.2-2.6-0.5-3.8l0,0c0-0.1,0-0.1,0-0.2c-0.3-1.7-0.7-3.3-1.2-4.9
	c0-0.1-0.1-0.2-0.1-0.3c-0.2-0.6-0.3-0.9-0.3-0.9s2.8-19.5,3.7-33.5c0.3-3.6,0.4-7.2,0.2-10.9l0,0c0,0,0,0,0-0.1
	c0-0.9-0.2-1.8-0.7-2.6c-0.4-0.6-0.7-1.3-0.8-2c0,0,0,0,0-0.1c-1.2-5.5,1.5-17,3-20c0.5-1,0.9-2,1.2-3c1.4-4,2.7-9.5,2.7-12.2
	c0.1-2.7,0.6-5.4,1.5-7.9c4.5-6.5,5.8-15.7,6.2-21.9c0.1-2.4,0.1-4.7,0-7.1c-0.1-10.4,0.4-20.9,1.5-31.2c0.2-2,0.5-4,0.8-6.1
	c0.5-3.1,1-6.3,1.6-9.3c1.9-9,1.1-25.1-0.4-40.5c0-0.5-0.1-0.9-0.1-1.3c0,0,0-0.1,0-0.1c-1.5-14.9-3.7-28.8-4.5-34.3l0,0
	c-0.3-1.6-0.4-2.5-0.4-2.5c1-3.5,1.6-7.1,1.8-10.7l0,0l0,0c0.1-1.7-0.2-3.3-0.9-4.8c-0.3-0.5-0.5-1-0.5-1.5l0,0c0-0.1,0-0.1,0-0.2
	c-0.3-1.8-0.4-3.7-0.2-5.6l0,0c0-0.7,0.1-1.3,0.2-2v-0.1c0,0,0-0.1,0-0.1l0.1-1.2c0.1-0.7,0.2-1.4,0.3-2.1c0.3-0.1,0.6-0.3,0.8-0.4
	c0.5-0.3,0.9-0.6,1.3-0.9c4.5-4,5-14.3,4.3-24.7c0,0,0-0.1,0-0.1c0-0.1,0-0.2,0-0.3c-0.8-8.7-2.1-17.4-4-26l0,0c0-0.1,0-0.1,0-0.2
	c-0.2-0.5-0.3-0.9-0.3-0.9s0-7.3-0.4-14.4c0,0,0-0.1,0-0.1c0-0.1,0-0.1,0-0.2c-0.4-5.8-1-11.3-2.3-12.3c-0.7-0.6-1.2-2.3-1.4-4.4
	c0,0,0,0,0-0.1c0-0.1,0-0.1,0-0.2c-0.4-4.9-0.4-9.8,0-14.7c2.2-3.9,3.6-8.2,3.8-12.6l0,0c0-0.8,0-1.6-0.1-2.4c0-0.2,0-0.3-0.1-0.5
	c0-0.3-0.1-0.5-0.1-0.8c-0.1-0.9-0.4-1.8-0.7-2.7c0.8-0.1,1.7-0.3,2.7-0.6l0.8-0.2l0,0c13.1-3.4,33.6-13,37.8-14.4
	c5.7-2,7.4-10.1,7.4-10.1s0.5-0.4,1.4-1.2c4.4-4.1,8.2-8.7,11.3-13.8l0,0c1.5-2.5,2.8-5.1,3.8-7.9l0,0c0.5-1.4,0.9-2.8,1.2-4.3
	c0.1-0.5,0.2-1,0.2-1.4l0,0c0-0.1,0-0.1,0-0.2l1-0.9l0,0l0,0c4.4-4,10.7-10.3,12.4-15.1C602.4,265.7,602.4,264.1,601.4,263z
	 M471.2,625.6c-0.1,2.3-0.2,4.4-0.4,6.2l0,0l0,0c-0.3,3.6-0.6,5.9-0.6,5.9c-0.3,0.2-0.5,0.5-0.7,0.8c-0.5,0.7-0.8,1.4-1.1,2.2
	l-0.2-5.9C468.1,634.7,469.6,630.9,471.2,625.6z M436.4,372.9c-0.1-0.2-0.1-0.5-0.2-0.7l0,0l1.1-0.2l0,0c0.9-0.2,1.8-0.4,2.8-0.7
	l0.4,0.7l1.4,2.9l9.8,20.6c-0.2,0.3-3.1,3.7-3,7c0,0.5,0.1,1,0.3,1.5c0.5,1.5,1.1,2,1.7,2.2l0,0c0.5,0.1,1,0,1.4-0.3
	c-0.4,0.6-0.7,1.2-1,1.9l0,0l0,0c-0.1,0.4-0.2,0.8-0.2,1.2c-0.1,0.7,0.3,1.4,0.9,1.8c0.4,0.2,0.7,0.6,1,0.9l0,0
	c0.4,0.6,0.6,1.2,0.7,1.9l0,0c0,0,0,0,0,0.1l0,0c0,0.2,0,0.4,0,0.5c0,0.1,0,0.2,0,0.3l-1.3-0.4l-2.9-0.9c0.4-0.5,0.9-0.9,1.6-1.1
	l-8.9-19.6c0,0-1.9-8.4-4.4-16.8L436.4,372.9z M456.4,767.5l-0.2-1l0-0.3l0.4-0.1c0,0.1,0,0.2,0,0.3
	C456.4,766.8,456.4,767.2,456.4,767.5L456.4,767.5z M442.2,374.8l-1.3-2.9l-0.5,0.1l1.4,2.9l9.8,20.6c-0.2,0.3-3.1,3.7-3,7
	c0,0.5,0.1,1,0.3,1.5c0.5,1.5,1.1,2,1.7,2.2c0-0.1,0-0.2,0-0.3c0-0.3,0-0.7,0-1c0,0,0-0.1,0-0.1c0,0,0-0.1,0-0.1l0,0
	c0,0,0-0.1,0-0.1l0,0c0,0,0,0,0,0c0,0,0-0.1,0-0.1l0,0c0,0,0-0.1,0-0.1l0,0c0-0.1,0-0.1,0-0.2v-0.1l0,0c0,0,0-0.1,0-0.1l0.1-0.4
	l0-0.1l0.1-0.2c0-0.1,0.1-0.3,0.2-0.4s0-0.1,0.1-0.2c0-0.1,0.1-0.2,0.1-0.3c0.1-0.3,0.3-0.5,0.4-0.8s0.3-0.5,0.4-0.7
	c0.4-0.7,0.8-1.3,1.3-1.9L442.2,374.8z M453.1,409.4L453.1,409.4c-0.3,0.1-0.5,0.1-0.7,0h-0.1c-0.1,0-0.1,0-0.2-0.1
	c-0.1-0.1-0.3-0.1-0.4-0.3l-0.1-0.1c-0.3-0.3-0.6-0.7-0.7-1.1c-0.1,0.4-0.2,0.8-0.2,1.2c-0.1,0.7,0.3,1.4,0.9,1.8
	c0.4,0.2,0.7,0.6,1,0.9l0,0l0,0c0-0.1,0-0.1,0-0.2c0,0,0-0.1,0-0.1c0.1-0.4,0.2-0.8,0.4-1.2l0.2-0.4l0.1-0.1c0-0.1,0.1-0.2,0.1-0.2
	l0.1-0.1l0.1-0.2C453.5,409.2,453.3,409.3,453.1,409.4L453.1,409.4z M442.2,374.8l-1.3-2.9l-0.5,0.1l1.4,2.9l9.8,20.6
	c-0.2,0.3-3.1,3.7-3,7c0,0.5,0.1,1,0.3,1.5c0.5,1.5,1.1,2,1.7,2.2c0-0.1,0-0.2,0-0.3c0-0.3,0-0.7,0-1c0,0,0-0.1,0-0.1
	c0,0,0-0.1,0-0.1l0,0c0,0,0-0.1,0-0.1l0,0l0,0c0,0,0-0.1,0-0.1l0,0c0,0,0-0.1,0-0.1l0,0c0-0.1,0-0.2,0-0.2c0,0,0-0.1,0-0.1
	c0,0,0-0.1,0-0.1l0.1-0.4l0-0.1l0.1-0.2c0-0.1,0.1-0.3,0.2-0.4c0-0.1,0-0.1,0.1-0.2l0.1-0.3c0.1-0.3,0.3-0.5,0.4-0.8
	s0.3-0.5,0.4-0.7c0.4-0.7,0.8-1.3,1.3-1.9L442.2,374.8z M453.1,409.4L453.1,409.4c-0.3,0.1-0.5,0.1-0.7,0h-0.1c-0.1,0-0.1,0-0.2-0.1
	c-0.1-0.1-0.3-0.1-0.4-0.3l-0.1-0.1c-0.3-0.3-0.6-0.7-0.7-1.1c-0.1,0.4-0.2,0.8-0.2,1.2c-0.1,0.7,0.3,1.4,0.9,1.8
	c0.4,0.2,0.7,0.6,1,0.9l0,0l0,0c0,0,0,0,0-0.1l0,0c0,0,0-0.1,0-0.1c0,0,0-0.1,0-0.1c0.1-0.4,0.2-0.8,0.4-1.2l0.2-0.4l0.1-0.1
	c0-0.1,0.1-0.2,0.1-0.2l0.1-0.1l0.1-0.2C453.5,409.2,453.3,409.3,453.1,409.4L453.1,409.4z M442.2,374.8l-1.3-2.9l-0.5,0.1l1.4,2.9
	l9.8,20.6c-0.2,0.3-3.1,3.7-3,7c0,0.5,0.1,1,0.3,1.5c0.5,1.5,1.1,2,1.7,2.2c0-0.1,0-0.2,0-0.3c0-0.3,0-0.7,0-1c0,0,0-0.1,0-0.1
	c0,0,0-0.1,0-0.1l0,0c0,0,0-0.1,0-0.1l0,0l0,0c0,0,0-0.1,0-0.1l0,0c0,0,0-0.1,0-0.1l0,0c0-0.1,0-0.2,0-0.2c0,0,0-0.1,0-0.1
	c0,0,0-0.1,0-0.1l0.1-0.4l0-0.1l0.1-0.2c0-0.1,0.1-0.3,0.2-0.4c0-0.1,0-0.1,0.1-0.2l0.1-0.3c0.1-0.3,0.3-0.5,0.4-0.8
	s0.3-0.5,0.4-0.7c0.4-0.7,0.8-1.3,1.3-1.9L442.2,374.8z M453.1,409.4L453.1,409.4c-0.3,0.1-0.5,0.1-0.7,0h-0.1c-0.1,0-0.1,0-0.2-0.1
	c-0.1-0.1-0.3-0.1-0.4-0.3l-0.1-0.1c-0.3-0.3-0.6-0.7-0.7-1.1c-0.1,0.4-0.2,0.8-0.2,1.2c-0.1,0.7,0.3,1.4,0.9,1.8
	c0.4,0.2,0.7,0.6,1,0.9l0,0l0,0c0,0,0,0,0-0.1l0,0c0,0,0-0.1,0-0.1c0,0,0-0.1,0-0.1c0.1-0.4,0.2-0.8,0.4-1.2l0.2-0.4l0.1-0.1
	c0-0.1,0.1-0.2,0.1-0.2l0.1-0.1l0.1-0.2C453.5,409.2,453.3,409.3,453.1,409.4L453.1,409.4z M442.2,374.8l-1.3-2.9l-0.5,0.1l1.4,2.9
	l9.8,20.6c-0.2,0.3-3.1,3.7-3,7c0,0.5,0.1,1,0.3,1.5c0.5,1.5,1.1,2,1.7,2.2c0-0.1,0-0.2,0-0.3c0-0.3,0-0.7,0-1c0,0,0-0.1,0-0.1
	c0,0,0-0.1,0-0.1l0,0c0,0,0-0.1,0-0.1l0,0l0,0c0,0,0-0.1,0-0.1l0,0c0,0,0-0.1,0-0.1l0,0c0-0.1,0-0.2,0-0.2c0,0,0-0.1,0-0.1
	c0,0,0-0.1,0-0.1l0.1-0.4l0-0.1l0.1-0.2c0-0.1,0.1-0.3,0.2-0.4c0-0.1,0-0.1,0.1-0.2l0.1-0.3c0.1-0.3,0.3-0.5,0.4-0.8
	s0.3-0.5,0.4-0.7c0.4-0.7,0.8-1.3,1.3-1.9L442.2,374.8z M453.1,409.4L453.1,409.4c-0.3,0.1-0.5,0.1-0.7,0h-0.1c-0.1,0-0.1,0-0.2-0.1
	c-0.1-0.1-0.3-0.1-0.4-0.3l-0.1-0.1c-0.3-0.3-0.6-0.7-0.7-1.1c-0.1,0.4-0.2,0.8-0.2,1.2c-0.1,0.7,0.3,1.4,0.9,1.8
	c0.4,0.2,0.7,0.6,1,0.9l0,0l0,0c0,0,0,0,0-0.1l0,0c0,0,0-0.1,0-0.1c0,0,0-0.1,0-0.1c0.1-0.4,0.2-0.8,0.4-1.2l0.2-0.4l0.1-0.1
	c0-0.1,0.1-0.2,0.1-0.2l0.1-0.1l0.1-0.2C453.5,409.2,453.3,409.3,453.1,409.4L453.1,409.4z M442.2,374.8l-1.3-2.9l-0.5,0.1l1.4,2.9
	l9.8,20.6c-0.2,0.3-3.1,3.7-3,7c0,0.5,0.1,1,0.3,1.5c0.5,1.5,1.1,2,1.7,2.2c0-0.1,0-0.2,0-0.3c0-0.3,0-0.7,0-1c0,0,0-0.1,0-0.1
	c0,0,0-0.1,0-0.1l0,0c0,0,0-0.1,0-0.1l0,0l0,0c0,0,0-0.1,0-0.1l0,0c0,0,0-0.1,0-0.1l0,0c0-0.1,0-0.2,0-0.2c0,0,0-0.1,0-0.1
	c0,0,0-0.1,0-0.1l0.1-0.4l0-0.1l0.1-0.2c0-0.1,0.1-0.3,0.2-0.4c0-0.1,0-0.1,0.1-0.2l0.1-0.3c0.1-0.3,0.3-0.5,0.4-0.8
	s0.3-0.5,0.4-0.7c0.4-0.7,0.8-1.3,1.3-1.9L442.2,374.8z M453.1,409.4L453.1,409.4c-0.3,0.1-0.5,0.1-0.7,0h-0.1c-0.1,0-0.1,0-0.2-0.1
	c-0.1-0.1-0.3-0.1-0.4-0.3l-0.1-0.1c-0.3-0.3-0.6-0.7-0.7-1.1c-0.1,0.4-0.2,0.8-0.2,1.2c-0.1,0.7,0.3,1.4,0.9,1.8
	c0.4,0.2,0.7,0.6,1,0.9l0,0l0,0c0,0,0,0,0-0.1l0,0c0,0,0-0.1,0-0.1c0,0,0-0.1,0-0.1c0.1-0.4,0.2-0.8,0.4-1.2l0.2-0.4l0.1-0.1
	c0-0.1,0.1-0.2,0.1-0.2l0.1-0.1l0.1-0.2C453.5,409.2,453.3,409.3,453.1,409.4L453.1,409.4z M442.2,374.8l-1.3-2.9l-0.5,0.1l1.4,2.9
	l9.8,20.6c-0.2,0.3-3.1,3.7-3,7c0,0.5,0.1,1,0.3,1.5c0.5,1.5,1.1,2,1.7,2.2c0-0.1,0-0.2,0-0.3c0-0.3,0-0.7,0-1c0,0,0-0.1,0-0.1
	c0,0,0-0.1,0-0.1l0,0c0,0,0-0.1,0-0.1l0,0l0,0c0,0,0-0.1,0-0.1l0,0c0,0,0-0.1,0-0.1l0,0c0-0.1,0-0.2,0-0.2c0,0,0-0.1,0-0.1
	c0,0,0-0.1,0-0.1l0.1-0.4l0-0.1l0.1-0.2c0-0.1,0.1-0.3,0.2-0.4c0-0.1,0-0.1,0.1-0.2l0.1-0.3c0.1-0.3,0.3-0.5,0.4-0.8
	s0.3-0.5,0.4-0.7c0.4-0.7,0.8-1.3,1.3-1.9L442.2,374.8z M453.1,409.4L453.1,409.4c-0.3,0.1-0.5,0.1-0.7,0h-0.1c-0.1,0-0.1,0-0.2-0.1
	c-0.1-0.1-0.3-0.1-0.4-0.3l-0.1-0.1c-0.3-0.3-0.6-0.7-0.7-1.1c-0.1,0.4-0.2,0.8-0.2,1.2c-0.1,0.7,0.3,1.4,0.9,1.8
	c0.4,0.2,0.7,0.6,1,0.9l0,0l0,0c0,0,0,0,0-0.1l0,0c0,0,0-0.1,0-0.1c0,0,0-0.1,0-0.1c0.1-0.4,0.2-0.8,0.4-1.2l0.2-0.4l0.1-0.1
	c0-0.1,0.1-0.2,0.1-0.2l0.1-0.1l0.1-0.2C453.5,409.2,453.3,409.3,453.1,409.4L453.1,409.4z M442.2,374.8l-1.3-2.9l-0.5,0.1l1.4,2.9
	l9.8,20.6c-0.2,0.3-3.1,3.7-3,7c0,0.5,0.1,1,0.3,1.5c0.5,1.5,1.1,2,1.7,2.2c0-0.1,0-0.2,0-0.3c0-0.3,0-0.7,0-1c0,0,0-0.1,0-0.1
	c0,0,0-0.1,0-0.1l0,0c0,0,0-0.1,0-0.1l0,0l0,0c0,0,0-0.1,0-0.1l0,0c0,0,0-0.1,0-0.1l0,0c0-0.1,0-0.2,0-0.2c0,0,0-0.1,0-0.1
	c0,0,0-0.1,0-0.1l0.1-0.4l0-0.1l0.1-0.2c0-0.1,0.1-0.3,0.2-0.4c0-0.1,0-0.1,0.1-0.2l0.1-0.3c0.1-0.3,0.3-0.5,0.4-0.8
	s0.3-0.5,0.4-0.7c0.4-0.7,0.8-1.3,1.3-1.9L442.2,374.8z M453.1,409.4L453.1,409.4c-0.3,0.1-0.5,0.1-0.7,0h-0.1c-0.1,0-0.1,0-0.2-0.1
	c-0.1-0.1-0.3-0.1-0.4-0.3l-0.1-0.1c-0.3-0.3-0.6-0.7-0.7-1.1c-0.1,0.4-0.2,0.8-0.2,1.2c-0.1,0.7,0.3,1.4,0.9,1.8
	c0.4,0.2,0.7,0.6,1,0.9l0,0l0,0c0,0,0,0,0-0.1l0,0c0,0,0-0.1,0-0.1c0,0,0-0.1,0-0.1c0.1-0.4,0.2-0.8,0.4-1.2l0.2-0.4l0.1-0.1
	c0-0.1,0.1-0.2,0.1-0.2l0.1-0.1l0.1-0.2C453.5,409.2,453.3,409.3,453.1,409.4L453.1,409.4z M442.2,374.8l-1.3-2.9l-0.5,0.1l1.4,2.9
	l9.8,20.6c-0.2,0.3-3.1,3.7-3,7c0,0.5,0.1,1,0.3,1.5c0.5,1.5,1.1,2,1.7,2.2c0-0.1,0-0.2,0-0.3c0-0.3,0-0.7,0-1c0,0,0-0.1,0-0.1
	c0,0,0-0.1,0-0.1l0,0c0,0,0-0.1,0-0.1l0,0l0,0c0,0,0-0.1,0-0.1l0,0c0,0,0-0.1,0-0.1l0,0c0-0.1,0-0.2,0-0.2c0,0,0-0.1,0-0.1
	c0,0,0-0.1,0-0.1l0.1-0.4l0-0.1l0.1-0.2c0-0.1,0.1-0.3,0.2-0.4c0-0.1,0-0.1,0.1-0.2l0.1-0.3c0.1-0.3,0.3-0.5,0.4-0.8
	s0.3-0.5,0.4-0.7c0.4-0.7,0.8-1.3,1.3-1.9L442.2,374.8z M453.1,409.4L453.1,409.4c-0.3,0.1-0.5,0.1-0.7,0h-0.1c-0.1,0-0.1,0-0.2-0.1
	c-0.1-0.1-0.3-0.1-0.4-0.3l-0.1-0.1c-0.3-0.3-0.6-0.7-0.7-1.1c-0.1,0.4-0.2,0.8-0.2,1.2c-0.1,0.7,0.3,1.4,0.9,1.8
	c0.4,0.2,0.7,0.6,1,0.9l0,0l0,0c0,0,0,0,0-0.1l0,0c0,0,0-0.1,0-0.1c0,0,0-0.1,0-0.1c0.1-0.4,0.2-0.8,0.4-1.2l0.2-0.4l0.1-0.1
	c0-0.1,0.1-0.2,0.1-0.2l0.1-0.1l0.1-0.2C453.5,409.2,453.3,409.3,453.1,409.4L453.1,409.4z M442.2,374.8l-1.3-2.9l-0.5,0.1l1.4,2.9
	l9.8,20.6c-0.2,0.3-3.1,3.7-3,7c0,0.5,0.1,1,0.3,1.5c0.5,1.5,1.1,2,1.7,2.2c0-0.1,0-0.2,0-0.3c0-0.3,0-0.7,0-1c0,0,0-0.1,0-0.1
	c0,0,0-0.1,0-0.1l0,0c0,0,0-0.1,0-0.1l0,0l0,0c0,0,0-0.1,0-0.1l0,0c0,0,0-0.1,0-0.1l0,0c0-0.1,0-0.2,0-0.2c0,0,0-0.1,0-0.1
	c0,0,0-0.1,0-0.1l0.1-0.4l0-0.1l0.1-0.2c0-0.1,0.1-0.3,0.2-0.4c0-0.1,0-0.1,0.1-0.2l0.1-0.3c0.1-0.3,0.3-0.5,0.4-0.8
	s0.3-0.5,0.4-0.7c0.4-0.7,0.8-1.3,1.3-1.9L442.2,374.8z M453.1,409.4L453.1,409.4c-0.3,0.1-0.5,0.1-0.7,0h-0.1c-0.1,0-0.1,0-0.2-0.1
	c-0.1-0.1-0.3-0.1-0.4-0.3l-0.1-0.1c-0.3-0.3-0.6-0.7-0.7-1.1c-0.1,0.4-0.2,0.8-0.2,1.2c-0.1,0.7,0.3,1.4,0.9,1.8
	c0.4,0.2,0.7,0.6,1,0.9l0,0l0,0c0,0,0,0,0-0.1l0,0c0,0,0-0.1,0-0.1c0,0,0,0,0-0.1c0.1-0.4,0.2-0.8,0.4-1.2c0.1-0.2,0.2-0.4,0.3-0.5
	c0-0.1,0.1-0.2,0.1-0.2l0.1-0.1l0.1-0.2C453.5,409.2,453.3,409.3,453.1,409.4L453.1,409.4z M442.2,374.8l-1.3-2.9l-0.5,0.1l1.4,2.9
	l9.8,20.6c-0.2,0.3-3.1,3.7-3,7c0,0.5,0.1,1,0.3,1.5c0.5,1.5,1.1,2,1.7,2.2c0-0.1,0-0.2,0-0.3c0-0.3,0-0.7,0-1c0,0,0-0.1,0-0.1
	c0,0,0-0.1,0-0.1l0,0c0,0,0-0.1,0-0.1l0,0v0c0,0,0-0.1,0-0.1l0,0c0,0,0-0.1,0-0.1l0,0c0-0.1,0-0.2,0-0.2c0,0,0-0.1,0-0.1
	c0,0,0-0.1,0-0.1l0.1-0.4l0-0.1l0.1-0.2c0-0.1,0.1-0.3,0.2-0.4c0-0.1,0-0.1,0.1-0.2l0.1-0.3c0.1-0.3,0.3-0.5,0.4-0.8
	s0.3-0.5,0.4-0.7c0.4-0.7,0.8-1.3,1.3-1.9L442.2,374.8z M453.1,409.4L453.1,409.4c-0.3,0.1-0.5,0.1-0.7,0h-0.1c-0.1,0-0.1,0-0.2-0.1
	c-0.1-0.1-0.3-0.1-0.4-0.3l-0.1-0.1c-0.3-0.3-0.6-0.7-0.7-1.1c-0.1,0.4-0.2,0.8-0.2,1.2c-0.1,0.7,0.3,1.4,0.9,1.8
	c0.4,0.2,0.7,0.6,1,0.9l0,0l0,0c0,0,0,0,0-0.1l0,0c0,0,0-0.1,0-0.1c0,0,0,0,0-0.1c0.1-0.4,0.2-0.8,0.4-1.2c0.1-0.2,0.2-0.4,0.3-0.5
	c0-0.1,0.1-0.2,0.1-0.2l0.1-0.1l0.1-0.2C453.5,409.2,453.3,409.3,453.1,409.4L453.1,409.4z"/>
<path class="st38" d="M491.5,752.3c0,0,15,1.8,22.2-0.7c7.2-2.5-2.2,10.8-12.1,13.9c-6.9,2-14.1,3.2-21.3,3.6l-11.6-10.9l-12.3,0.9
	l2.1,12l-3.8,0.4l-1.5-15.7L491.5,752.3z"/>
<path class="st0" d="M491.5,752.3c0,0,15,1.8,22.2-0.7c7.2-2.5-2.2,10.8-12.1,13.9c-6.9,2-14.1,3.2-21.3,3.6l-11.6-10.9l-12.3,0.9
	l2.1,12l-3.8,0.4l-1.5-15.7L491.5,752.3z"/>
<path class="st38" d="M513.1,779.8c0,0,18,3.9,27,1.7s-3.9,12.8-16.2,15.5c-12.3,2.7-26.3,2-26.3,2l-12.7-14.5l-15-0.3l1.2,14.8
	h-4.7v-19.3H513.1z"/>
<path class="st0" d="M513.1,779.8c0,0,18,3.9,27,1.7s-3.9,12.8-16.2,15.5c-12.3,2.7-26.3,2-26.3,2l-12.7-14.5l-15-0.3l1.2,14.8h-4.7
	v-19.3H513.1z"/>
<path class="st35" d="M446.7,438.2c0,0-30.7,34.2-12.3,72.8c0,0,1,6.9,0.3,8.1s3,17.2,3,17.2s0.5,29,0,33.9s-1,7.6-1,7.6
	s-6.9,53.6-4.7,69.6s3.2,44.5,3.2,44.5l9.1,76.7l47.2-8.8l-21.4-105.3l-0.7-18.7c0,0,8.9-22.9,4.9-34.4s1-158.9,1-158.9L446.7,438.2
	z"/>
<path class="st33" d="M446.7,438.2c0,0-30.7,34.2-12.3,72.8c0,0,1,6.9,0.3,8.1s3,17.2,3,17.2s0.5,29,0,33.9s-1,7.6-1,7.6
	s-6.9,53.6-4.7,69.6s3.2,44.5,3.2,44.5l9.1,76.7l47.2-8.8l-21.4-105.3l-0.7-18.7c0,0,8.9-22.9,4.9-34.4s1-158.9,1-158.9L446.7,438.2
	z"/>
<path class="st35" d="M469.3,603.5c5.4,10.3,2,35.4,2,35.4c-7.1,6.2-3.2,59.8-3.2,59.8s-4.9,52.9-8.1,59s-2.7,31.5-2.7,31.5
	c36.1,6.6,59.8-7.6,59.8-7.6s-11.6-26.3-11.8-27.5c-0.1-0.7-1.7,1.2-2.1,1.7c0.2-0.3,0.9-1.2,2.1-3c4.9-6.9,0-20.2,0-20.2
	s6.2-42.8,3.2-46.7s0.5-18.4,2.2-21.9c1.7-3.4,3.9-11.6,3.9-15c0.1-2.7,0.6-5.3,1.5-7.9c7.6-10.8,6.2-28.8,6.2-28.8
	s-0.5-25.8,3.9-46.2s-5.5-78.2-5.5-78.2s3.3-11.3,0.8-15.5c-1.1-1.9-1-6.3-0.5-10.6c0.6-5.3,1.7-10.3,1.7-10.3l-67.1-11.9
	c-1.4,2.4-2.7,4.6-3.9,6.8c-22.2,41-7.2,56.2-7.2,56.2l14.2,43.9C458.8,546.5,463.9,593.1,469.3,603.5z"/>
<path class="st39" d="M575.8,282.5l9.6,8.1c0,0,1.9-1.5,4.4-3.8c6-5.4,15.7-15.2,12.1-19.4c-5-5.7-10-2-10.3-1.7
	c0.5-0.6,11.7-12.5,7.1-11.5s-13.3,11.3-13.3,11.3l-6.9,12.2L575.8,282.5z"/>
<polygon class="st39" points="447.2,415.4 458.5,418.8 449.9,433.8 440.1,421 "/>
<circle class="st39" cx="473.8" cy="242.2" r="32.2"/>
<path class="st39" d="M492.7,254c0,0-29.3,46.5-1.5,50.5c27.8,4-37.4,32.2-37.4,32.2l-24.4-24.6c0,0,25.3-43.8,21.4-60.5
	S492.7,254,492.7,254z"/>
<path class="st0" d="M451.7,446.4c6.5,2,13.1,3.5,19.8,4.6c0,0,36.2,16.1,49.4,10.8c0.6-5.3,1.7-10.3,1.7-10.3l-67.1-11.9
	C454.2,441.9,452.9,444.2,451.7,446.4z"/>
<path class="st40" d="M418.4,324.8l6.5,13.5l7.4,15.3l1,2.2l8.8,19l11.1,24.1c0,0-3.9,4.7-2.7,8.4c1.1,3.5,3,2,3.2,1.7
	c-0.2,0.3-2.6,3.5-0.5,4.9s1.5,4.7,1.5,4.7s-9.1,15-10.8,20.4s27.5,10.1,27.5,10.1s41.6,18.4,51.9,9.3s0-51.9,0-51.9
	s0-24.6-2.7-26.8s-1.4-19.3-1.4-19.3c7.1-13,2.2-20.4,2.2-20.4l2-33.4c0,0-3.2-3.5-5.7-3.7c-1.6-0.1-3.1-0.1-4.7,0
	c0,0-1.3-0.4-3.2-1c-3.9-1.1-10.5-2.7-12.8-1.5c-3.4,1.7-25.6-2.7-25.6-2.7c-9.5-1.4-19.1-2.3-28.8-2.7c-3.3-0.2-6.6,0.1-9.8,1.1
	c-8,2.5-9.4,8.3-9.4,8.3s1,4.9-3,11.3S418.4,324.8,418.4,324.8z"/>
<path class="st0" d="M575.8,282.5l9.6,8.1c0,0,1.9-1.5,4.4-3.8c0.8-8.3-6.3-9.4-11.3-9.2L575.8,282.5z"/>
<path class="st40" d="M519.3,306.4l4.2,0.3c0,0,9.8,1.2,13-1.7S551,301,551,301s3.2-6.4,6.6-8.4s11.8-5.7,12-7.6s3.2-5.6,3.2-5.6
	s18.4-4.4,15.7,10.1s-17.6,27-17.6,27s-1.7,8.1-7.4,10.1s-42.3,19.2-48.2,14.8C509.4,336.9,519.3,306.4,519.3,306.4z"/>
<path class="st0" d="M420.6,315.7c3.9-6.4,3-11.3,3-11.3s1.4-5.8,9.4-8.3c1.6-0.5,3.2-0.8,4.8-0.9c-7.9,2.5-9.3,8.2-9.3,8.2
	s1,4.9-3,11.3s-2.2,9.1-2.2,9.1l6.6,13.5l7.4,15.3l1.1,2.2l8.8,19l11.1,24.1c0,0-3.9,4.7-2.7,8.4c1.1,3.5,3,1.9,3.2,1.7
	c-0.2,0.3-2.6,3.5-0.5,4.9s1.5,4.7,1.5,4.7s-9.1,15-10.8,20.4s27.5,10.1,27.5,10.1s28.9,12.8,44.5,11.8
	c-13.3,5.2-49.4-10.8-49.4-10.8s-29.3-4.7-27.5-10.1s10.8-20.4,10.8-20.4s0.7-3.2-1.5-4.7s0.3-4.6,0.5-4.9c-0.2,0.2-2,1.7-3.2-1.7
	c-1.2-3.7,2.7-8.4,2.7-8.4l-11.2-24.1l-8.8-19l-1-2.2l-7.4-15.3l-6.5-13.5C418.5,324.7,416.7,322.1,420.6,315.7z"/>
<path class="st40" d="M422.9,321.1l-4.4,3.7c-0.8,2.4-2.1,4.7-3.7,6.6c-2.5,2.7-9.1,29.5-9.1,29.5c0.6,1.3,0.6,2.7,0,3.9
	c-1,2,2,4.9,2,4.9s1.5-0.5-1,2.2s2.2,5.9,2.2,5.9s20.2,34.4,24.3,38.1s8.4,13.3,8.4,13.3s8.8-13.7,10.8-14l-8.6-19.4
	c0,0-5.9-27.1-10.3-32s2.2-21.9,2.2-21.9L422.9,321.1z"/>
<path class="st0" d="M420,371.3c3.7,4.4,10.2,5.4,15.9,4.7c0.8-0.1,1.7-0.2,2.5-0.4c1.3-0.2,2.5-0.5,3.7-0.9c4.4-1.3,8.5-3.3,12.2-6
	c0.8-0.7,1.7-1.2,2.7-1.6c2.3-0.6,4.6,1.1,5.8,3.1s1.8,4.4,3.1,6.3c2.5,3.9,7.4,5.8,12.1,5.9s9.2-1.3,13.7-2.7
	c-3.6-4.4-7.3-9.1-8.8-14.6c-0.8-3.6-1.1-7.3-0.7-11c1.1-17.4,7.1-35.7,21.3-45.9c2.5-1.8,5.4-3.8,6.3-6.5
	c-3.9-1.1-10.5-2.7-12.8-1.5c-3.4,1.7-25.6-2.7-25.6-2.7c-9.5-1.4-19.1-2.3-28.8-2.7c-3.3-0.2-6.6,0.1-9.8,1.1
	c1.2,7.4,2.3,14.7,0.8,22c-1,4.5-2.6,8.9-4.9,13c-1.3,2.5-2.6,4.9-4,7.3c-3.7,6.7-7.3,13.5-8,21C416.7,363.6,417.4,368.1,420,371.3z
	"/>
<path class="st0" d="M468.7,405.9c-1.9-0.3-3.9-0.9-5.8-0.5c-1.6,0.5-3.1,1.3-4.3,2.5l12.6,0.1c3.3,0,8.1,0.2,10.6-2.1
	C479.6,403.6,471.9,406.3,468.7,405.9z"/>
<path class="st3" d="M512.5,238.5c3.9,5.4,4.7,12.4,2.2,18.5c-2,4.8-5.9,8.5-8.3,13c-3.7,7.2-3.4,15.8,0.8,22.8
	c0.9,1.2,1.6,2.6,2,4.1c0.6,3.8-3.3,6.4-6.4,8.6c-14.2,10.1-20.2,28.5-21.3,45.9c-0.4,3.7-0.1,7.4,0.7,11c1.5,5.5,5.2,10.1,8.8,14.6
	c-4.5,1.4-9,2.8-13.7,2.7s-9.5-2-12.1-5.9c-1.3-2-1.9-4.3-3.1-6.3s-3.5-3.7-5.8-3.1c-1,0.3-1.9,0.9-2.8,1.6
	c-5.4,4-11.8,6.5-18.5,7.3c-5.7,0.7-12.2-0.3-15.9-4.7c-2.7-3.2-3.4-7.7-3-11.9c1.3-14.9,13.9-26.6,16.8-41.3
	c2.4-11.9-1.9-24-2.7-36.1c-1.2-17.9,5.3-35.3,11.7-52c1.4-4.1,3.3-8.1,5.6-11.8c5.4-7.8,14.6-12.5,24-13.5c3.5-0.5,7-0.1,10.4,1
	c3.4,1.3,6.2,3.7,8.9,6.1c6.1,5.3,12.4,10.8,15.9,18.1c1.4,3,2.4,6.2,4,9.1L512.5,238.5z"/>
<g class="st41">
	<path d="M506.7,231.9c-1.6-2.9-2.5-6.1-4-9.1c-1.4-2.8-3.1-5.4-5.1-7.7c3.7,3.4,6.7,7.4,9,11.9c1.4,2.9,2.3,6,3.8,8.8l-1.9-1.6
		c0.5,0.7,1,1.4,1.4,2.1C508.6,235,507.5,233.5,506.7,231.9z"/>
	<path d="M431,368.9c6.7-0.8,13.1-3.3,18.5-7.3c0.8-0.7,1.7-1.2,2.8-1.6c2.3-0.6,4.6,1.1,5.8,3.1c0.3,0.4,0.5,0.9,0.7,1.3
		c-0.8-0.4-1.7-0.5-2.6-0.3c-1,0.3-1.9,0.9-2.8,1.6c-5.4,4-11.8,6.5-18.5,7.3c-5.7,0.7-12.2-0.3-15.9-4.7c-0.5-0.6-0.9-1.2-1.2-1.8
		C421.6,368.9,426.5,369.4,431,368.9z"/>
	<path d="M473.3,375.5c4.7,0.1,9.2-1.3,13.7-2.7c-3.6-4.4-7.3-9.1-8.8-14.6c-0.8-3.6-1.1-7.3-0.7-11c1.1-17.4,7.1-35.8,21.3-45.9
		c3.1-2.2,7-4.9,6.4-8.7c-0.4-1.5-1.1-2.9-2-4.1c-4.2-6.9-4.5-15.6-0.8-22.8c2.4-4.6,6.3-8.3,8.3-13.1c2.2-5.3,1.9-11.3-0.8-16.4
		c0.7,0.7,1.4,1.4,2.2,2c0.5,0.8,1.1,1.5,1.8,2.2c2.7,5.1,3,11.1,0.8,16.4c-2,4.8-5.9,8.5-8.3,13c-3.7,7.2-3.4,15.8,0.8,22.8
		c0.9,1.2,1.6,2.6,2,4.1c0.6,3.8-3.3,6.4-6.4,8.6c-14.2,10.1-20.2,28.5-21.3,45.9c-0.4,3.7-0.1,7.4,0.7,11
		c1.5,5.5,5.2,10.1,8.8,14.6c-4.5,1.4-9,2.8-13.7,2.7s-9.5-2-12.1-5.9c-0.2-0.3-0.3-0.5-0.5-0.8
		C467.2,374.5,470.2,375.4,473.3,375.5z"/>
</g>
<path class="st42" d="M325.3,148v21h-91.2c2.8-3.9,5.6-7.7,8.5-11.4c0.4-0.5,0.8-1,1.2-1.6l4.3-5.4l0,0l0.6-0.7l0,0l1.5-1.9
	L325.3,148z"/>
<rect x="418.1" y="148" class="st42" width="95.8" height="21"/>
<rect x="638.2" y="148" class="st42" width="95.8" height="21"/>
<rect x="824.3" y="148" class="st42" width="95.8" height="21"/>
</svg>
