<svg xmlns="http://www.w3.org/2000/svg" xmlns:xlink="http://www.w3.org/1999/xlink" width="728" height="796.38" viewBox="0 0 728 796.38"><defs><linearGradient id="a" x1="0.5" y1="1" x2="0.5" gradientUnits="objectBoundingBox"><stop offset="0" stop-color="#b3b3b3" stop-opacity="0.839"/><stop offset="0.54" stop-color="#b3b3b3" stop-opacity="0.678"/><stop offset="1" stop-color="#b3b3b3" stop-opacity="0.671"/></linearGradient><linearGradient id="b" x1="0.5" y1="1" x2="0.5" gradientUnits="objectBoundingBox"><stop offset="0" stop-color="#b3b3b3" stop-opacity="0.251"/><stop offset="0.54" stop-color="#b3b3b3" stop-opacity="0.102"/><stop offset="1" stop-color="#b3b3b3" stop-opacity="0.051"/></linearGradient><linearGradient id="c" x1="0.5" y1="1" x2="0.5" gradientUnits="objectBoundingBox"><stop offset="0" stop-color="gray" stop-opacity="0.251"/><stop offset="0.54" stop-color="gray" stop-opacity="0.122"/><stop offset="1" stop-color="gray" stop-opacity="0.102"/></linearGradient><linearGradient id="e" x1="0.5" y1="1" x2="0.5" gradientUnits="objectBoundingBox"><stop offset="0" stop-color="#b3b3b3" stop-opacity="0.49"/><stop offset="0.038" stop-color="#b3b3b3" stop-opacity="0.91"/><stop offset="0.54" stop-color="#b3b3b3" stop-opacity="0.42"/><stop offset="1" stop-color="#b3b3b3"/></linearGradient></defs><g transform="translate(-596 -142)"><g transform="translate(596 142)"><path d="M650,694.81c0-51.76,51.11-99.48,102.87-99.48,7.93,0,15.62-2,23-.16.1-2.26.16-15.54.16-17.82V51.81H328l-92,94.5v611.5H659C649.9,743.37,650,713.15,650,694.81Z" transform="translate(-236 -51.81)" fill="url(#a)"/><path d="M642,704.81a117,117,0,0,1,117-117c3.53,0,7,.17,10.48.47V317h-525V745.81H649.39A116.74,116.74,0,0,1,642,704.81Z" transform="translate(-236 -51.81)" fill="#fcfcfc"/><path d="M533.09,269.19H6.91V94.5L92,5.5H533.09Z" fill="#fcfcfc"/><rect width="142.73" height="10.89" transform="translate(357.59 58.59)" fill="#e0e0e0"/><rect width="142.73" height="10.89" transform="translate(357.59 98.59)" fill="#e0e0e0"/><rect width="142.73" height="10.89" transform="translate(357.59 138.59)" fill="#e0e0e0"/><rect width="142.73" height="10.89" transform="translate(357.59 178.59)" fill="#6c63ff" opacity="0.5"/><rect width="142.73" height="10.89" transform="translate(357.59 218.59)" fill="#e0e0e0"/><rect width="142.73" height="10.89" transform="translate(357.59 258.59)" fill="#e0e0e0"/><rect width="142.73" height="10.89" transform="translate(84.72 343.59)" fill="#7dc2fe" opacity="0.5"/><rect width="142.73" height="10.89" transform="translate(84.72 387.13)" fill="#e0e0e0"/><rect width="372.56" height="10.89" transform="translate(84.72 365.36)" fill="#69f0ae" opacity="0.5"/><rect width="142.73" height="10.89" transform="translate(84.72 448.82)" fill="#7dc2fe" opacity="0.5"/><rect width="142.73" height="10.89" transform="translate(84.72 492.37)" fill="#e0e0e0"/><rect width="372.56" height="10.89" transform="translate(84.72 470.59)" fill="#e0e0e0"/><rect width="142.73" height="10.89" transform="translate(84.72 554.06)" fill="#7dc2fe" opacity="0.5"/><rect width="142.73" height="10.89" transform="translate(84.72 597.6)" fill="#e0e0e0"/><rect width="305.41" height="10.89" transform="translate(84.72 575.83)" fill="#e0e0e0"/><path d="M310,281H50V54l9-11H310Z" fill="#7dc2fe"/><path d="M4.91,96.5H94V3.5Z" fill="url(#b)"/><path d="M6.91,94.5H92V5.5Z" fill="#eee"/><g opacity="0.5"><circle cx="100.13" cy="100.13" r="100.13" transform="translate(527.74 596.12)" fill="url(#c)"/></g><circle cx="93.72" cy="93.72" r="93.72" transform="translate(534.15 602.53)" fill="#3ad29f"/><g opacity="0.5"><path d="M678.44,684.95H639.16V645.68H616.58v39.27H577.3v22.59h39.28v39.28h22.58V707.54h39.28Z" fill="url(#c)"/></g><rect width="19.2" height="85.97" transform="translate(618.27 653.26)" fill="#fff"/><rect width="19.2" height="85.97" transform="translate(670.86 686.65) rotate(90)" fill="#fff"/><path d="M755,739.81c0-51.76,51.11-99.48,102.87-99.48,7.93,0,15.62-2,23-.16.1-2.26.16-15.54.16-17.82V96.81H433l-92,94.5v611.5H764C754.9,788.37,755,758.15,755,739.81Z" transform="translate(-236 -51.81)" fill="url(#e)"/><path d="M747,749.81a117,117,0,0,1,117-117c3.53,0,7,.17,10.48.47V362h-525V790.81H754.39A116.739,116.739,0,0,1,747,749.81Z" transform="translate(-236 -51.81)" fill="#fff"/><path d="M638.09,314.19H111.91V139.5L197,50.5H638.09Z" fill="#fff"/><rect width="142.73" height="10.89" transform="translate(462.59 103.59)" fill="#e0e0e0"/><rect width="142.73" height="10.89" transform="translate(462.59 143.59)" fill="#e0e0e0"/><rect width="142.73" height="10.89" transform="translate(462.59 183.59)" fill="#e0e0e0"/><rect width="142.73" height="10.89" transform="translate(462.59 223.59)" fill="#7dc2fe" opacity="0.5"/><rect width="142.73" height="10.89" transform="translate(462.59 263.59)" fill="#e0e0e0"/><rect width="142.73" height="10.89" transform="translate(462.59 303.59)" fill="#e0e0e0"/><rect width="142.73" height="10.89" transform="translate(189.72 388.59)" fill="#7dc2fe" opacity="0.5"/><rect width="142.73" height="10.89" transform="translate(189.72 432.13)" fill="#e0e0e0"/><rect width="372.56" height="10.89" transform="translate(189.72 410.36)" fill="#69f0ae" opacity="0.5"/><rect width="142.73" height="10.89" transform="translate(189.72 493.82)" fill="#7dc2fe" opacity="0.5"/><rect width="142.73" height="10.89" transform="translate(189.72 537.37)" fill="#e0e0e0"/><rect width="372.56" height="10.89" transform="translate(189.72 515.59)" fill="#e0e0e0"/><rect width="142.73" height="10.89" transform="translate(189.72 599.06)" fill="#7dc2fe" opacity="0.5"/><rect width="142.73" height="10.89" transform="translate(189.72 642.6)" fill="#e0e0e0"/><rect width="305.41" height="10.89" transform="translate(189.72 620.83)" fill="#e0e0e0"/><path d="M415,326H155V99l9-11H415Z" fill="#7dc2fe"/><path d="M109.91,141.5H199v-93Z" fill="url(#b)"/><path d="M111.91,139.5H197v-89Z" fill="#fcfcfc"/></g></g></svg>
