<svg xmlns="http://www.w3.org/2000/svg" width="194.693" height="179.707" viewBox="0 0 194.693 179.707">
  <g id="disconnected" transform="translate(-1000.404 -750.819)">
    <circle id="Ellipse_1" data-name="Ellipse 1" cx="16.977" cy="16.977" r="16.977" transform="translate(1083.447 896.572)" fill="#7dc2fe"/>
    <path id="Path_1" data-name="Path 1" d="M157.17,106.853c32.375,0,61.694,13.566,82.989,35.513L254.2,127.354a136.555,136.555,0,0,0-194.693.622L73.579,142.99c21.343-22.314,50.911-36.137,83.591-36.137Z" transform="translate(940.897 684.361)" fill="#7dc2fe"/>
    <path id="Path_2" data-name="Path 2" d="M159.527,151.069a77.858,77.858,0,0,1,54.974,22.64l14.036-14.656a98.38,98.38,0,0,0-138.633.589L103.972,174.3a77.858,77.858,0,0,1,55.555-23.229Z" transform="translate(940.897 684.361)" fill="#7dc2fe"/>
    <path id="Path_3" data-name="Path 3" d="M159.527,191.267a37.786,37.786,0,0,1,27.158,11.485l13.443-14.036a57.265,57.265,0,0,0-81.743.6l13.458,14.019a37.781,37.781,0,0,1,27.684-12.068Z" transform="translate(940.897 684.361)" fill="#7dc2fe"/>
    <g id="Group_1" data-name="Group 1" transform="translate(-18 -24)">
      <circle id="Ellipse_2" data-name="Ellipse 2" cx="25" cy="25" r="25" transform="translate(1143 778.723)" fill="red"/>
      <path id="Path_4" data-name="Path 4" d="M234,258.154a28.9,28.9,0,1,1,28.9-28.9A28.9,28.9,0,0,1,234,258.154Zm0-49.537a20.64,20.64,0,1,0,20.64,20.64A20.64,20.64,0,0,0,234,208.617Z" transform="translate(932.897 574.465)" fill="red"/>
      <path id="Path_5" data-name="Path 5" d="M225.1,239.639a4,4,0,0,1-2.828-6.828l16-16a4,4,0,1,1,5.656,5.656l-16,16A3.987,3.987,0,0,1,225.1,239.639Z" transform="translate(933.897 575.361)" fill="#fff"/>
      <path id="Path_6" data-name="Path 6" d="M241.1,239.639a3.988,3.988,0,0,1-2.828-1.172l-16-16a4,4,0,1,1,5.656-5.656l16,16a4,4,0,0,1-2.828,6.828Z" transform="translate(933.897 575.361)" fill="#fff"/>
    </g>
  </g>
</svg>
