<svg xmlns="http://www.w3.org/2000/svg" xmlns:xlink="http://www.w3.org/1999/xlink" width="623.134" height="678.452" viewBox="0 0 623.134 678.452"><defs><linearGradient id="a" x1="0.5" y1="1" x2="0.5" gradientUnits="objectBoundingBox"><stop offset="0" stop-color="gray" stop-opacity="0.251"/><stop offset="0.54" stop-color="gray" stop-opacity="0.122"/><stop offset="1" stop-color="gray" stop-opacity="0.102"/></linearGradient><clipPath id="d"><rect width="143.79" height="96.93" transform="translate(202.54 262.18)" fill="#7dfe9f"/></clipPath><clipPath id="g"><rect width="143.79" height="96.93" transform="translate(202.54 468.88)" fill="#fff"/></clipPath><linearGradient id="h" x1="0.518" y1="1.092" x2="0.518" y2="-0.251" gradientUnits="objectBoundingBox"><stop offset="0" stop-color="gray" stop-opacity="0.478"/><stop offset="0.54" stop-color="gray" stop-opacity="0.09"/><stop offset="1" stop-color="gray" stop-opacity="0"/></linearGradient><linearGradient id="i" x1="0.6" y1="0.66" x2="0.6" y2="0.086" xlink:href="#a"/></defs><g transform="translate(-817 -132)"><g transform="translate(475.85 -119.453)"><g transform="translate(187 151.017)"><g opacity="0.5"><rect width="448.44" height="602.6" transform="translate(154.15 130.21)" fill="url(#a)"/></g><rect width="434.43" height="581.58" transform="translate(159.99 138.39)" fill="#f2f2f2"/><rect width="149.48" height="4.67" transform="translate(193.86 162.91)" fill="#e0e0e0"/><rect width="149.48" height="4.67" transform="translate(193.86 183.93)" fill="#7dc2fe" opacity="0.7"/><rect width="149.48" height="4.67" transform="translate(365.53 162.91)" fill="#e0e0e0"/><rect width="149.48" height="4.67" transform="translate(388.88 296.05)" fill="#e0e0e0"/><rect width="149.48" height="4.67" transform="translate(392.39 308.89)" fill="#e0e0e0"/><rect width="149.48" height="4.67" transform="translate(399.4 321.74)" fill="#e0e0e0"/><rect width="149.48" height="4.67" transform="translate(388.88 502.75)" fill="#e0e0e0"/><rect width="149.48" height="4.67" transform="translate(392.39 515.6)" fill="#e0e0e0"/><rect width="149.48" height="4.67" transform="translate(399.4 528.44)" fill="#e0e0e0"/><g opacity="0.5"><rect width="158.82" height="161.16" transform="translate(195.03 248.16)" fill="url(#a)"/></g><rect width="156.32" height="154.15" transform="translate(196.03 251.67)" fill="#f5f5f5"/><g opacity="0.5"><rect width="145.8" height="100.43" transform="translate(201.54 261.01)" fill="url(#a)"/></g><rect width="143.79" height="96.93" transform="translate(202.54 262.18)" fill="#fff"/><g clip-path="url(#d)"><path d="M190.35,355.61l36.21-56.06,15.18,24.52,32.7-33.86,28.03,33.86,24.52-50.21,63.06,100.43-204.37-7.01Z" fill="#7dfe9f" opacity="0.4"/><circle cx="10.51" cy="10.51" r="10.51" transform="translate(207.87 265.68)" fill="#7dfe9f" opacity="0.4"/></g><g opacity="0.5"><rect width="158.82" height="161.16" transform="translate(195.03 454.87)" fill="url(#a)"/></g><rect width="156.32" height="154.15" transform="translate(196.03 458.37)" fill="#f5f5f5"/><g opacity="0.5"><rect width="145.8" height="100.43" transform="translate(201.54 467.72)" fill="url(#a)"/></g><rect width="143.79" height="96.93" transform="translate(202.54 468.88)" fill="#fff"/><g clip-path="url(#g)"><path d="M190.35,562.31l36.21-56.06,15.18,24.53,32.7-33.87,28.03,33.87,24.52-50.22,63.06,100.43-204.37-7Z" fill="#bdbdbd" opacity="0.4"/><circle cx="10.51" cy="10.51" r="10.51" transform="translate(207.87 472.39)" fill="#bdbdbd" opacity="0.4"/></g><g opacity="0.5"><rect width="602.6" height="448.44" transform="translate(219.986 691.478) rotate(-78.76)" fill="url(#h)"/></g><rect width="589.58" height="434.43" transform="translate(230.214 686.02) rotate(-78.76)" fill="#fff"/><rect width="308.31" height="4.67" transform="translate(367.319 142.078) rotate(11.24)" fill="#e0e0e0"/><rect width="308.31" height="4.67" transform="translate(281.275 575.059) rotate(11.24)" fill="#e0e0e0"/><rect width="238.24" height="4.67" transform="translate(276.03 601.394) rotate(11.24)" fill="#e0e0e0"/><rect width="88.75" height="4.67" transform="translate(270.797 627.747) rotate(11.24)" fill="#6c63ff" opacity="0.7"/><rect width="154.15" height="4.67" transform="translate(362.075 168.428) rotate(11.24)" fill="#7dc2fe" opacity="0.7"/><rect width="277.94" height="4.67" transform="translate(356.851 194.77) rotate(11.24)" fill="#e0e0e0"/><rect width="67.73" height="4.67" transform="translate(351.611 221.12) rotate(11.24)" fill="#3ad29f" opacity="0.7"/><rect width="308.31" height="4.67" transform="translate(346.38 247.465) rotate(11.24)" fill="#e0e0e0"/><g opacity="0.5"><rect width="158.82" height="276.77" transform="translate(342.067 514.518) rotate(-78.76)" fill="url(#i)"/></g><rect width="273.27" height="155.32" transform="translate(374.561 360.231) rotate(11.24)" fill="#fff"/><rect width="308.31" height="4.67" transform="translate(341.145 273.818) rotate(11.24)" fill="#e0e0e0"/><rect width="33.87" height="113.28" transform="translate(398.533 386.426) rotate(11.24)" fill="#7dc2fe"/><rect width="33.87" height="75.91" transform="translate(450.809 434.919) rotate(11.24)" fill="#3ad29f"/><rect width="33.87" height="40.87" transform="translate(503.55 481.121) rotate(11.24)" fill="#f55f44"/><rect width="33.87" height="82.92" transform="translate(571.308 451.722) rotate(11.24)" fill="#fdd835"/></g></g></g></svg>
