<svg xmlns="http://www.w3.org/2000/svg" xmlns:xlink="http://www.w3.org/1999/xlink" width="721.836" height="480.245" viewBox="0 0 721.836 480.245">
  <defs>
    <clipPath id="clip-path">
      <path id="path20" d="M656.225-253.237a46.128,46.128,0,0,1,.608-65.232,46.128,46.128,0,0,1,65.233.608,46.127,46.127,0,0,1-.608,65.232A46.129,46.129,0,0,1,656.225-253.237ZM765.106-239.89a88.1,88.1,0,0,0,9.609-22.629l17.008-3.259.176-18.812.175-18.813-16.944-3.575a88.134,88.134,0,0,0-9.185-22.805l9.715-14.319-13.18-13.427L749.3-370.955l-14.5,9.447a88.087,88.087,0,0,0-22.628-9.609l-3.26-17.008L690.1-388.3l-18.812-.175-3.576,16.944a88.126,88.126,0,0,0-22.8,9.185l-14.32-9.715-13.427,13.179L603.74-345.7l9.447,14.5a87.974,87.974,0,0,0-9.609,22.628l-17.009,3.26-.175,18.812-.176,18.812,16.945,3.575a88.089,88.089,0,0,0,9.185,22.805L602.633-227l13.177,13.427,13.179,13.428,14.5-9.447a88.141,88.141,0,0,0,22.629,9.609l3.259,17.008,18.813.175L707-182.62l3.575-16.947a87.962,87.962,0,0,0,22.8-9.184l14.319,9.716,13.428-13.179,13.427-13.179Z"/>
    </clipPath>
    <linearGradient id="linear-gradient" x1="-2.848" y1="1.887" x2="-2.847" y2="1.887" gradientUnits="objectBoundingBox">
      <stop offset="0" stop-color="#96cbff"/>
      <stop offset="1" stop-color="#59f"/>
    </linearGradient>
    <clipPath id="clip-path-2">
      <path id="path36" d="M236.449-393.387a34.445,34.445,0,0,1-4.527-48.5,34.443,34.443,0,0,1,48.5-4.527,34.443,34.443,0,0,1,4.528,48.5,34.447,34.447,0,0,1-48.5,4.527Zm81.9,1.6a65.763,65.763,0,0,0,5.409-17.543l12.385-3.719-1.305-13.987-1.305-13.988-12.859-1.363a65.8,65.8,0,0,0-8.564-16.239L318.231-470l-10.815-8.968L296.6-487.933l-10.048,8.124a65.735,65.735,0,0,0-17.543-5.411l-3.719-12.385L251.306-496.3l-13.988,1.305-1.361,12.86a65.729,65.729,0,0,0-16.239,8.563l-11.377-6.123-8.969,10.813L190.4-458.068l8.123,10.048a65.774,65.774,0,0,0-5.409,17.544l-12.385,3.719,1.3,13.987,1.307,13.988L196.2-397.42a65.792,65.792,0,0,0,8.564,16.237L198.642-369.8l10.815,8.968,10.813,8.967,10.048-8.123a65.829,65.829,0,0,0,17.543,5.411l3.72,12.385,13.987-1.305,13.988-1.305,1.361-12.86a65.712,65.712,0,0,0,16.239-8.564l11.377,6.124L317.5-370.92l8.968-10.815Z"/>
    </clipPath>
    <linearGradient id="linear-gradient-2" x1="-1.163" y1="3.202" x2="-1.162" y2="3.202" xlink:href="#linear-gradient"/>
    <clipPath id="clip-path-3">
      <path id="path104" d="M111.224-250.951v6.505H522.051v-6.505Z"/>
    </clipPath>
    <clipPath id="clip-path-4">
      <path id="path350" d="M466.218-207.346l.712-.339-3.227-6.844-1.808.851,2.735,5.805A1.114,1.114,0,0,0,466.218-207.346Z"/>
    </clipPath>
    <clipPath id="clip-path-5">
      <path id="path494" d="M459.514-213.038l7.117-1.328-1.16-5.836-7.06,1.609Z"/>
    </clipPath>
  </defs>
  <g id="g10" transform="translate(-70.238 585.871)">
    <g id="g12">
      <g id="g16">
        <g id="g18" clip-path="url(#clip-path)">
          <path id="path30" d="M656.225-253.237a46.128,46.128,0,0,1,.608-65.232,46.128,46.128,0,0,1,65.233.608,46.127,46.127,0,0,1-.608,65.232A46.129,46.129,0,0,1,656.225-253.237ZM765.106-239.89a88.1,88.1,0,0,0,9.609-22.629l17.008-3.259.176-18.812.175-18.813-16.944-3.575a88.134,88.134,0,0,0-9.185-22.805l9.715-14.319-13.18-13.427L749.3-370.955l-14.5,9.447a88.087,88.087,0,0,0-22.628-9.609l-3.26-17.008L690.1-388.3l-18.812-.175-3.576,16.944a88.126,88.126,0,0,0-22.8,9.185l-14.32-9.715-13.427,13.179L603.74-345.7l9.447,14.5a87.974,87.974,0,0,0-9.609,22.628l-17.009,3.26-.175,18.812-.176,18.812,16.945,3.575a88.089,88.089,0,0,0,9.185,22.805L602.633-227l13.177,13.427,13.179,13.428,14.5-9.447a88.141,88.141,0,0,0,22.629,9.609l3.259,17.008,18.813.175L707-182.62l3.575-16.947a87.962,87.962,0,0,0,22.8-9.184l14.319,9.716,13.428-13.179,13.427-13.179-9.447-14.5" fill="url(#linear-gradient)"/>
        </g>
      </g>
      <g id="g32">
        <g id="g34" clip-path="url(#clip-path-2)">
          <path id="path46" d="M236.449-393.387a34.445,34.445,0,0,1-4.527-48.5,34.443,34.443,0,0,1,48.5-4.527,34.443,34.443,0,0,1,4.528,48.5,34.447,34.447,0,0,1-48.5,4.527Zm81.9,1.6a65.763,65.763,0,0,0,5.409-17.543l12.385-3.719-1.305-13.987-1.305-13.988-12.859-1.363a65.8,65.8,0,0,0-8.564-16.239L318.231-470l-10.815-8.968L296.6-487.933l-10.048,8.124a65.735,65.735,0,0,0-17.543-5.411l-3.719-12.385L251.306-496.3l-13.988,1.305-1.361,12.86a65.729,65.729,0,0,0-16.239,8.563l-11.377-6.123-8.969,10.813L190.4-458.068l8.123,10.048a65.774,65.774,0,0,0-5.409,17.544l-12.385,3.719,1.3,13.987,1.307,13.988L196.2-397.42a65.792,65.792,0,0,0,8.564,16.237L198.642-369.8l10.815,8.968,10.813,8.967,10.048-8.123a65.829,65.829,0,0,0,17.543,5.411l3.72,12.385,13.987-1.305,13.988-1.305,1.361-12.86a65.712,65.712,0,0,0,16.239-8.564l11.377,6.124L317.5-370.92l8.968-10.815-8.123-10.048" fill="url(#linear-gradient-2)"/>
        </g>
      </g>
      <path id="path48" d="M733.426-108.878h-1.179V-192.7a33.862,33.862,0,0,0-33.825-33.824h-86.24a35.043,35.043,0,0,1-35-35v-156.68a33.861,33.861,0,0,0-33.823-33.823h-219.9v-1.18h219.9a35.043,35.043,0,0,1,35,35v156.68A33.862,33.862,0,0,0,612.182-227.7h86.24a35.041,35.041,0,0,1,35,35v83.821" fill="#64a4ff"/>
      <path id="path50" d="M379.819-506.3s13.309,53-18.645,67.485-25.833-12.04-25.833-12.04-13.107-3.641,22.563-23.864c16.812-9.531,21.916-31.581,21.916-31.581" fill="#bbd070"/>
      <path id="path52" d="M463.5-501.673s6.551,46.2-53.924,66.165-69.088,45.3-69.088,45.3S338.683-492.6,463.5-501.673" fill="#97a43c"/>
      <path id="path54" d="M340.222-409.024c-17.932-6.844,24.692-43.544,57.449-42.553s54.956,13.115,76.9,7.992c0,0-46.043,68.265-134.346,34.561" fill="#48753a"/>
      <path id="path56" d="M255-319.489c.189-13.036,17.548-37.284,17.548-37.284a6.893,6.893,0,0,1,.815-.307c.011.012.895-.124.895-.112.019,0,2.7-2.555,2.715-2.555.637,2.319,6.388,35.067,7.8,54.131C268.462-308.818,254.9-313.271,255-319.489ZM400.47-378.36q1.548-20.9,2.159-39.113c-3.363-1.781-7.4-3.863-10.636-5.4-10.009-4.765-23.953-11.183-32.9-15.288-5.237-2.407-10.369-4.165-10.369-4.165s-35.761-3.427-38.664-3.244c-.916.053-5.385,1.611-11.249,3.847-12.681,4.812-37.131,14.611-41.023,17.407-5.709,4.087-26.137,104.22-26.68,111.02-.529,6.605,27.783,15.644,54,22.568-.019,10.151-.224,24.372-.455,37.355-.035,2.219-.076,4.395-.119,6.507H399.259c-.153-2.229-.288-4.431-.4-6.507-.012-.277-.029-.548-.041-.82-.437-8.793-2.147-24.543-1.711-39.88,0,0-.277-16.168,1.327-23.127.177-30.732,2.036-61.161,2.036-61.161" fill="#dbd8e3"/>
      <path id="path58" d="M402.592-253.373c-.755-5.432-1.468-10.86-2.112-16.173,0-.029-.011-.047-.011-.077-.208-1.769-.42-3.515-.62-5.255-.012-.084-.017-.177-.029-.277-.839-7.319-1.533-14.34-2.035-20.768a65.729,65.729,0,0,1,.641-14.445c1.995-32.873,2.987-67.532,2.987-67.532,1.049-14.185,1.651-27.445,2.052-39.8,0,0-44.905-21.223-48.976-22.439,0,0,8.519,20,14.907,64.706,2.453,17.171,7,46.073,10.3,75.572v.005c1.787,15.92,5.137,32.135,7.685,46.485.389,2.219.761,4.389,1.1,6.507h15.031q-.48-3.246-.927-6.507" fill="#323657"/>
      <path id="path60" d="M273.806-331.328c-.395-14.959-.325-25.4-.325-25.4,1.481,5.125,3.528,19.771,5.332,34.328C272.745-325.451,273.883-328.307,273.806-331.328Zm54.024,25.152c1.769-16.621,3.363-33.208,2.595-42.3-6.193-73.07-23.717-92.412-26.26-95.244-1.964.749-9.443,3.557-11.632,4.424-11.985,4.725-36.416,13.384-39.708,15.749-5.709,4.088-28.219,109.064-28.9,115.852-.455,4.589,28.921,14.179,58.891,22.739-.277,8.216.5,19.807-2.231,31.909-.477,2.147-1.184,3.5-1.295,6.341l41.777-.164q.38-3.238.785-6.507c.795-6.529,1.627-13.217,2.452-20.325,12.529,3.243,21.047,5.332,21.047,5.332s11.768-19.9,15.183-27.952c.584-1.375-14.564-5.015-32.707-9.859" fill="#323657"/>
      <path id="path62" d="M308.182-444.423s4.548-8.595,3.291-33c-.347-6.76,35.509,16.032,35.509,16.032s-.124,2.329-.2,5.473c-.04,1.309-.064,2.743-.064,4.217,0,.407.005.813.005,1.221.007.667.012,1.327.024,1.988.017.82.048,1.621.088,2.395.041.879.1,1.709.184,2.471a22.487,22.487,0,0,0,1.327,4.791c1.645,3.792-26.739,4.011-40.163-5.592" fill="#eea987"/>
      <path id="path64" d="M338.243-428.9l6.608,8.879s-3.872,5.184-10.748,1.356l4.14-10.235" fill="#e8734d"/>
      <path id="path66" d="M343.083-419.664s24.211,59.132,19.045,134.242l-7.636,13.859-8.611-11.8S344.492-383.12,337.62-419.9l5.463.237" fill="#e8734d"/>
      <path id="path68" d="M345.318-437.182l-7.075,8.279s-11.356-2.2-14.689-8.132,21.764-.147,21.764-.147" fill="#eea987"/>
      <path id="path70" d="M346.941-444.426s-.821,6.311-8.7,15.523l8.6,11.551,4.653-23.963-4.553-3.111" fill="#c4c1cc"/>
      <path id="path72" d="M310.342-452.015s16.419,18.572,27.9,23.112L332.9-415.7,306.7-444.6l3.644-7.412" fill="#c4c1cc"/>
      <path id="path74" d="M479.137-283.993s-21.795-21.137-36.089-24.652c-6.608-1.627-15.312-10.749-23.583-21.473-2.725-3.531-5.4-7.237-7.944-10.905a.023.023,0,0,1-.007-.015c-10.148-14.652-18.1-28.695-18.1-28.695s-29.995-35.149-5.925-50.819c0,0,10.315-.223,15.973,2.851,5.817,3.159,18.227,29.057,20.331,33.644s24.9,47.179,26.423,48.136,4.071,4.459,13.191,9.369c11.165,6.012,28.705,23.607,28.705,23.607l-12.976,18.952" fill="#323657"/>
      <path id="path76" d="M374.52-259.53a13.839,13.839,0,0,1-4.349-.827s-2.277-1.46-3.959-2.4a12.7,12.7,0,0,0-1.329-.672,25.362,25.362,0,0,1-7.32-3.488c-2.867-2.184-12.209-10.925-12.209-10.925l6.039-9.283,2.788-9.192s21.783,2.167,24.688,3.893a8.612,8.612,0,0,1,.8.535c2.319,1.7,3.329,3.941,4.445,4.972.407.381,4.2,4.443,3.988,6.089a5.429,5.429,0,0,1-2.84,4.448s-.768,4.451-3.069,6.441c0,0-.577,4.131-4.144,5.789,0,0-1.055,4.124-3.528,4.619" fill="#efaa88"/>
      <path id="path78" d="M339.836-540.375s39.371-9.491,31.079,40.356-17.737,53.893-41.721,43.956-22.317-41.823-23.745-57.424,21.793-26.16,34.388-26.888" fill="#eea886"/>
      <path id="path80" d="M319.151-505.853c-.584-4.379-9.277-5.859-9.879.727s4.205,18.06,7.479,16.876,3.208-11.565,2.4-17.6" fill="#eea886"/>
      <path id="path82" d="M307.749-488s.788-15.679,6.5-16.252,6.688,5.723,6.688,5.723l5.793,1.007s-2.028-13.7,3.649-16.185,37.124,7.015,41.651,2.917,1.96-31.913-6.389-35.6-31.377-11.893-47.992-.288c0,0-13.1-1.3-14.888,9.285s1.315,41.6,4.987,49.4" fill="#16202e"/>
      <path id="path84" d="M361.61-296.317l-16.256,27.949s-43.065-11.1-53.113-13.932l22.969-27.339s33.867,7.737,46.4,13.321" fill="#323657"/>
      <path id="path86" d="M346.834-446.092h-.005c-21.117-2.153-29.3-18.409-29.3-18.409A43.651,43.651,0,0,0,346.716-451.7c0,.407.005.813.005,1.221.007.667.012,1.327.024,1.988.017.82.048,1.621.088,2.395" fill="#a77860"/>
      <path id="path88" d="M634.962-189.962h0a4.794,4.794,0,0,1-1.381.281h0c-.108.005-.216.007-.324.007a4.8,4.8,0,0,1-1.313-.2,4.8,4.8,0,0,1-1.573-.805,4.819,4.819,0,0,1-.479-.425,4.8,4.8,0,0,1-1.388-3.444,4.72,4.72,0,0,1,.124-1.016,4.545,4.545,0,0,1,.128-.467,4.819,4.819,0,0,1,4.625-3.272,4.805,4.805,0,0,1,3.767,1.893,4.8,4.8,0,0,1,.989,2.985A4.816,4.816,0,0,1,634.962-189.962Zm3.488-8.393a6.407,6.407,0,0,0-5.051-2.557,6.423,6.423,0,0,0-6.169,4.363h0a6.414,6.414,0,0,0-.337,1.977,6.413,6.413,0,0,0,.392,2.293,6.423,6.423,0,0,0,2.1,2.869,6.387,6.387,0,0,0,3.345,1.317c.167.013.336.025.507.027.107,0,.213,0,.319-.007h.112a6.445,6.445,0,0,0,1.847-.376,6.428,6.428,0,0,0,4.231-5.957,6.41,6.41,0,0,0-1.292-3.948" fill="#4da8f2"/>
      <path id="path90" d="M392.168-319.273c24.476,25.195,56.813,56.924,56.813,56.924l12.641-24s-28.723-33.672-48.195-56.14c-5.968,2.927-16.925,9.908-21.26,23.213" fill="#eea886"/>
      <path id="path92" d="M377.051-285.4s6.589,3.184,8.309,4.6,8.692,6.639,10.383,7.867-2.549,4.72-15.013-.679-3.679-11.789-3.679-11.789" fill="#eea886"/>
      <path id="path94" d="M377.627-357.508,366.142-250.73H517.308l11.485-106.778H377.627" fill="#ffc955"/>
      <path id="path96" d="M374.9-256.839h149.98l11.359-105.6H386.256Zm151.038,1.181H373.586L385.2-363.616H537.549L525.937-255.658" fill="#ffc955"/>
      <path id="path98" d="M354.112-260.337H379.36v9.607H354.112v-9.607" fill="#ffc955"/>
      <g id="g100">
        <g id="g102" clip-path="url(#clip-path-3)">
          <path id="path108" d="M111.224-250.951v0" fill="#96cbff"/>
          <path id="path110" d="M117.544-250.951v6.505h-6.32v-6.505h6.32" fill="#96cbff"/>
          <path id="path112" d="M123.864-250.951v6.505h-6.32v-6.505h6.32" fill="#95caff"/>
          <path id="path114" d="M130.185-250.951v6.505h-6.32v-6.505h6.32" fill="#94c9ff"/>
          <path id="path116" d="M136.5-250.951v6.505h-6.32v-6.505h6.32" fill="#93c9ff"/>
          <path id="path118" d="M142.825-250.951v6.505H136.5v-6.505h6.32" fill="#92c8ff"/>
          <path id="path120" d="M149.145-250.951v6.505h-6.32v-6.505h6.32" fill="#91c7ff"/>
          <path id="path122" d="M155.466-250.951v6.505h-6.321v-6.505h6.321" fill="#90c6ff"/>
          <path id="path124" d="M161.786-250.951v6.505h-6.32v-6.505h6.32" fill="#8fc6ff"/>
          <path id="path126" d="M168.108-250.951v6.505h-6.321v-6.505h6.321" fill="#8ec5ff"/>
          <path id="path128" d="M174.428-250.951v6.505h-6.32v-6.505h6.32" fill="#8dc4ff"/>
          <path id="path130" d="M180.749-250.951v6.505h-6.321v-6.505h6.321" fill="#8cc3ff"/>
          <path id="path132" d="M187.069-250.951v6.505h-6.32v-6.505h6.32" fill="#8bc2ff"/>
          <path id="path134" d="M193.389-250.951v6.505h-6.32v-6.505h6.32" fill="#8ac2ff"/>
          <path id="path136" d="M199.709-250.951v6.505h-6.32v-6.505h6.32" fill="#89c1ff"/>
          <path id="path138" d="M206.029-250.951v6.505h-6.32v-6.505h6.32" fill="#88c0ff"/>
          <path id="path140" d="M212.35-250.951v6.505h-6.321v-6.505h6.321" fill="#87bfff"/>
          <path id="path142" d="M218.67-250.951v6.505h-6.32v-6.505h6.32" fill="#86bfff"/>
          <path id="path144" d="M224.99-250.951v6.505h-6.32v-6.505h6.32" fill="#85beff"/>
          <path id="path146" d="M231.31-250.951v6.505h-6.32v-6.505h6.32" fill="#84bdff"/>
          <path id="path148" d="M237.633-250.951v6.505H231.31v-6.505h6.323" fill="#83bcff"/>
          <path id="path150" d="M243.953-250.951v6.505h-6.32v-6.505h6.32" fill="#82bbff"/>
          <path id="path152" d="M250.273-250.951v6.505h-6.32v-6.505h6.32" fill="#81bbff"/>
          <path id="path154" d="M256.593-250.951v6.505h-6.32v-6.505h6.32" fill="#80baff"/>
          <path id="path156" d="M262.914-250.951v6.505h-6.321v-6.505h6.321" fill="#7fb9ff"/>
          <path id="path158" d="M269.234-250.951v6.505h-6.32v-6.505h6.32" fill="#7eb8ff"/>
          <path id="path160" d="M275.554-250.951v6.505h-6.32v-6.505h6.32" fill="#7db7ff"/>
          <path id="path162" d="M281.874-250.951v6.505h-6.32v-6.505h6.32" fill="#7cb7ff"/>
          <path id="path164" d="M288.194-250.951v6.505h-6.32v-6.505h6.32" fill="#7bb6ff"/>
          <path id="path166" d="M294.515-250.951v6.505h-6.321v-6.505h6.321" fill="#7ab5ff"/>
          <path id="path168" d="M300.835-250.951v6.505h-6.32v-6.505h6.32" fill="#79b4ff"/>
          <path id="path170" d="M307.157-250.951v6.505h-6.321v-6.505h6.321" fill="#78b4ff"/>
          <path id="path172" d="M313.477-250.951v6.505h-6.32v-6.505h6.32" fill="#77b3ff"/>
          <path id="path174" d="M319.8-250.951v6.505h-6.321v-6.505H319.8" fill="#76b2ff"/>
          <path id="path176" d="M326.118-250.951v6.505H319.8v-6.505h6.32" fill="#74b1ff"/>
          <path id="path178" d="M332.438-250.951v6.505h-6.32v-6.505h6.32" fill="#73b0ff"/>
          <path id="path180" d="M338.758-250.951v6.505h-6.32v-6.505h6.32" fill="#72b0ff"/>
          <path id="path182" d="M345.079-250.951v6.505h-6.321v-6.505h6.321" fill="#71afff"/>
          <path id="path184" d="M351.4-250.951v6.505h-6.32v-6.505h6.32" fill="#70aeff"/>
          <path id="path186" d="M357.719-250.951v6.505H351.4v-6.505h6.32" fill="#6fadff"/>
          <path id="path188" d="M364.039-250.951v6.505h-6.32v-6.505h6.32" fill="#6eadff"/>
          <path id="path190" d="M370.36-250.951v6.505h-6.321v-6.505h6.321" fill="#6dacff"/>
          <path id="path192" d="M376.682-250.951v6.505H370.36v-6.505h6.321" fill="#6cabff"/>
          <path id="path194" d="M383-250.951v6.505h-6.32v-6.505H383" fill="#6baaff"/>
          <path id="path196" d="M389.322-250.951v6.505H383v-6.505h6.32" fill="#6aa9ff"/>
          <path id="path198" d="M395.642-250.951v6.505h-6.32v-6.505h6.32" fill="#69a9ff"/>
          <path id="path200" d="M401.963-250.951v6.505h-6.321v-6.505h6.321" fill="#68a8ff"/>
          <path id="path202" d="M408.283-250.951v6.505h-6.32v-6.505h6.32" fill="#67a7ff"/>
          <path id="path204" d="M414.6-250.951v6.505h-6.32v-6.505h6.32" fill="#66a6ff"/>
          <path id="path206" d="M420.923-250.951v6.505H414.6v-6.505h6.32" fill="#65a6ff"/>
          <path id="path208" d="M427.244-250.951v6.505h-6.321v-6.505h6.321" fill="#64a5ff"/>
          <path id="path210" d="M433.564-250.951v6.505h-6.32v-6.505h6.32" fill="#63a4ff"/>
          <path id="path212" d="M439.886-250.951v6.505h-6.321v-6.505h6.321" fill="#62a3ff"/>
          <path id="path214" d="M446.206-250.951v6.505h-6.32v-6.505h6.32" fill="#61a2ff"/>
          <path id="path216" d="M452.527-250.951v6.505h-6.321v-6.505h6.321" fill="#60a2ff"/>
          <path id="path218" d="M458.847-250.951v6.505h-6.32v-6.505h6.32" fill="#5fa1ff"/>
          <path id="path220" d="M465.167-250.951v6.505h-6.32v-6.505h6.32" fill="#5ea0ff"/>
          <path id="path222" d="M471.487-250.951v6.505h-6.32v-6.505h6.32" fill="#5d9fff"/>
          <path id="path224" d="M477.807-250.951v6.505h-6.32v-6.505h6.32" fill="#5c9eff"/>
          <path id="path226" d="M484.128-250.951v6.505h-6.321v-6.505h6.321" fill="#5b9eff"/>
          <path id="path228" d="M490.448-250.951v6.505h-6.32v-6.505h6.32" fill="#5a9dff"/>
          <path id="path230" d="M496.768-250.951v6.505h-6.32v-6.505h6.32" fill="#599cff"/>
          <path id="path232" d="M503.088-250.951v6.505h-6.32v-6.505h6.32" fill="#589bff"/>
          <path id="path234" d="M509.411-250.951v6.505h-6.323v-6.505h6.323" fill="#579bff"/>
          <path id="path236" d="M515.731-250.951v6.505h-6.32v-6.505h6.32" fill="#569aff"/>
          <path id="path238" d="M522.051-250.951v6.505h-6.32v-6.505h6.32" fill="#59f"/>
          <path id="path240" d="M522.051-244.446v0" fill="#59f"/>
        </g>
      </g>
      <path id="path242" d="M773.1-105.625H417.156v-6.507H773.1v6.507" fill="#ffc955"/>
      <path id="path244" d="M439.074-305.834c-1.215,5.944,1.559,11.532,6.195,12.479s9.379-3.1,10.593-9.049-1.557-11.533-6.193-12.48-9.379,3.1-10.595,9.051" fill="#cfa345"/>
      <path id="path246" d="M727.377-348.158s3.487,5.912,4.96,6.877c2,1.311.745,2.636-.2,2.636s-5.8.348-6.865-.864-1.6-4.844-2.591-5.793-2.02-4.727.484-5.645c2.212-.811,4.215,2.789,4.215,2.789" fill="#6069a8"/>
      <path id="path248" d="M725.866-350.758s3.993,6.923,4.683,7.947-1.3,1.02-2.525.533-4.323-5.449-4.768-6.355a3.335,3.335,0,0,1-.093-2.315l2.7.189" fill="#202338"/>
      <path id="path250" d="M721.821-347.032l.923,7.1.488.021-.152-5.107-1.259-2.012" fill="#6069a8"/>
      <path id="path252" d="M692.8-348.158s3.487,5.912,4.959,6.877c2,1.311.747,2.636-.2,2.636s-5.8.348-6.863-.864-1.6-4.844-2.592-5.793-2.053-4.825.483-5.645c2.225-.719,4.216,2.789,4.216,2.789" fill="#6069a8"/>
      <path id="path254" d="M691.5-350.743s3.784,6.908,4.472,7.932-1.3,1.02-2.525.533-4.323-5.449-4.767-6.355a3.335,3.335,0,0,1-.1-2.315l2.916.2" fill="#202338"/>
      <path id="path256" d="M687.244-347.032l.921,7.1.488.021-.152-5.107-1.257-2.012" fill="#6069a8"/>
      <path id="path258" d="M677.328-401.954l31.555,14.379a6.067,6.067,0,0,1,3.917,5.056c1.231,12.207,10.363,31.572,10.363,31.572,2.929,1.433,2.7.189,2.7.189-1.845-5.927-4.093-30.352-4.9-40.173-.168-2.08-.275-3.505-.3-3.96-.016-.309-.356-.716-.94-1.189-4.329-3.511-22.147-10.78-22.147-10.78-13.377-.339-20.26,4.907-20.26,4.907" fill="#202338"/>
      <path id="path260" d="M671.38-395.779c.977,8.529,13.152,7.552,13.152,7.552h14.756a92.193,92.193,0,0,0-5.372,15.9c-1.588,7.72-5.333,21.38-5.333,21.38s.247.464,2.916.2c0,0,11.584-23.085,16.017-28.889.953-1.249,3.687-8.028,4.157-12.072.159-1.361.061-2.412-.447-2.837a36.867,36.867,0,0,0-3.257-2.227c-4.623-2.915-12.649-7.4-17.121-8.407-5.989-1.347-15.464-3.869-15.464-3.869s-4.98,4.736-4,13.265" fill="#202338"/>
      <path id="path262" d="M681.422-461.475a13.742,13.742,0,0,1-1.132-8.659c1.076-4.465,5.22-8.915,11.287-6.872s10.971,6.757,7.335,12.205,3.289,7.911,1.525,10.5-1.1,5.3-.349,5.9,3.159,2.753,2.893,5.3-11.771-7.419-11.771-7.419-6.265-12.591-9.788-10.963" fill="#464240"/>
      <path id="path264" d="M699.914-407.883s-.915,4.439-24.483-1.165c0,0,7.9-2.624,24.483,1.165" fill="#eb4747"/>
      <path id="path266" d="M675.165-407.8l-1.1,2.092,25.845.753c-1.363-4.564-.921-10.743-.683-15.433.292-5.728,3.456-9.712,3.119-15.505,1.7.275,2,.328,3.705.589-2.609-7.439-3.5-11.123-11.613-13.985a15.141,15.141,0,0,0-7.232-.881c-9.392.775-12.224.885-16.836,9.395,7.22,1.149,6.032,3.743,8.221,10.925,1.068,3.5,2.183,7.412,1.609,11.107-.563,3.637-5.04,7.627-5.04,10.944" fill="#5f8cc9"/>
      <path id="path268" d="M690.152-447.49c-3.844-.727-3.025-2.864-3.025-2.864s.177-1.207.247-2.731c.019-.391.029-.8.028-1.22a16.647,16.647,0,0,0-.107-1.891c-.315-2.579,6.977-1.041,6.977-1.041s-.42,5.221.585,6.785-.861,3.687-4.705,2.961" fill="#eea886"/>
      <path id="path270" d="M682.82-450.367s7.753,8.952,10.619,11.027c0,0,3.293-2.976,1.263-10.833,0,0-3.741-1.875-11.881-.193" fill="#eea886"/>
      <path id="path272" d="M683.03-471.912s-4.025,7.757-.032,15.105,11.839-3.2,12.347-4.437,3.2-8.237-2.153-10.364-9.021-2.409-10.161-.3" fill="#eea886"/>
      <path id="path274" d="M684.369-469.16s-2.771,3.64-3.1,6.331a14.42,14.42,0,0,1,2.016-9.972c3.12-4.887,11.052-.232,12.115,1.72s4.176,3.672-1.055,12.061c0,0-9.408-6.536-9.977-10.14" fill="#464240"/>
      <path id="path276" d="M690.8-456.032s-.7,1.527-3.431,2.948c.019-.391.029-.8.028-1.22a6.529,6.529,0,0,0,3.4-1.728" fill="#a77860"/>
      <path id="path278" d="M650.113-414.783s-1.915.851-2.821.465a8.476,8.476,0,0,0-2.755-.463c-.592,0-2.445-.661-2.412.061s3.008,1.229,3.617,1.456-1.823,1.564-2.049,2.159,2.519,4.5,4.067,3.385,2.387-3.332,2.7-3.472a11.318,11.318,0,0,0,1.161-.765l-1.511-2.827" fill="#eea886"/>
      <path id="path280" d="M643.986-411.45s-4.488,3.721-4.559,4.224.165.737.6.407,4.451-3.468,4.451-3.468-4.5,5.312-4.648,5.707c-.088.229.343.709.593.555s5.035-5.156,5.035-5.156-4.189,4.968-4.212,5.34a.487.487,0,0,0,.823.329c.339-.347,4.508-4.729,4.508-4.729s-2.8,3.813-2.631,4.149c.105.207.46.636,1.149-.372s2.588-3.205,2.588-3.205l-3.7-3.78" fill="#eea886"/>
      <path id="path282" d="M697.749-388.226H684.532s-12.175.976-13.151-7.553,4-13.265,4-13.265,6.432,1.713,12.047,3.069a43.449,43.449,0,0,1,10.157-.885s23.8,7.865,23.088,12.007c0,0-9.957-5.324-22.927,6.628" fill="#ffc955"/>
      <path id="path284" d="M689.145-403l25.2-.369-12.723,6.459Z" fill="#5e5853"/>
      <path id="path286" d="M696.973-406.215a21.556,21.556,0,0,1-12.616.211l-.327-2.595,14.307.8-1.364,1.588" fill="#5f8cc9"/>
      <path id="path288" d="M701.621-396.907l-12.476-4.832V-403l13.463,4.857-.987,1.232" fill="#91887f"/>
      <path id="path290" d="M696.886-405.015a1.246,1.246,0,0,0,1.732,1.237l1.464-.625a1.041,1.041,0,0,0,.619-1.124c-.609-3.811-1.916-18.647-.007-21.193a9.224,9.224,0,0,0,1.4-2.487c1.261,3.252,2.829,7.44,3.453,9.693l11.905,15.837,3.991,1.012a134.855,134.855,0,0,0-8.981-18.36c-.779-2.092-3.013-8.425-4.991-14.065-1.251-3.561-2.4-6.845-3.015-8.611a4.035,4.035,0,0,0-1.741-2.135c-1.844-1.1-4.916-2.839-7.7-4.192-.012-.005-.023-.009-.035-.016-.088-.043-.176-.087-.267-.128H694.7c5.3,8.016,3.232,30.652,2.187,45.127,0,.011,0,.023,0,.032" fill="#eddad3"/>
      <path id="path292" d="M677.22-449.49c-1.7.263-5.905,4.347-8.139,8.471-2.552,4.705-5.147,10.064-7.093,11.827-3.577,3.241-13.591,14.7-14.068,14.42a31.283,31.283,0,0,0,3.119,3.587c.187.081,16.46-14.02,18.024-16.168,1.481-2.037,5.445-10.585,6.631-10.4a.008.008,0,0,0,0,.005,0,0,0,0,0,0,0,63.427,63.427,0,0,1,2.9,7.889l.068.228c.941,3.187.855,6.647.345,10.533-.385,2.936-2.576,7.732-3.9,10.068a1.581,1.581,0,0,0,.053,1.22h0a.869.869,0,0,0,.433.505l4.779,1.771,1.123.416a2.437,2.437,0,0,0,2.289-.317,2.423,2.423,0,0,0,.987-1.66c1.063-8.172,2.407-16.521,3.477-19.667a29.787,29.787,0,0,0-1.837-24.171s-7.707.88-9.2,1.436" fill="#eddad3"/>
      <path id="path294" d="M701.621-396.907l7.495-20.463,24.163.395-7.143,18.857-24.515,1.211" fill="#6e6760"/>
      <path id="path296" d="M716.848-408.318c-.737,1.475-.516,3.08.5,3.585s2.429-.277,3.167-1.752.515-3.079-.5-3.585-2.431.279-3.167,1.752" fill="#807066"/>
      <path id="path298" d="M691.377-464.188s1.548,2.408.117,4.487.361,4.12.671,6.317-5.968,8.043,1.015,10.984,9.205-1.92,7.424-4.6-3.045-4.845-3.2-8.661-1.407-9.76-6.031-8.531" fill="#464240"/>
      <path id="path300" d="M657.248-474.184h14.568V-461.4l-2.224-2.225H657.248v-10.559" fill="#ffcb55"/>
      <path id="path302" d="M575.471-312.147s-31.752,30.215-16.307,53.74,22.675,2.92,22.675,2.92,10.447,3.153-5.059-25.853c-7.308-13.672-1.309-30.807-1.309-30.807" fill="#bbd070"/>
      <path id="path304" d="M516.761-344.906s-24.255,28.5,8.173,67.977,27.4,60.339,27.4,60.339,45.141-68.628-35.575-128.316" fill="#97a43c"/>
      <path id="path306" d="M559.648-228.506c15.091,3.051,2.88-40.828-19.749-54.205s-42.875-14.683-55.551-27.565c0,0,.988,66.743,75.3,81.77" fill="#48753a"/>
      <path id="path308" d="M461.026-209.261s.692-1.713.805-1.973a4.472,4.472,0,0,1,1.585-1.1,5.171,5.171,0,0,1,2.221-.543.785.785,0,0,1,.488.451,1.516,1.516,0,0,1,.125.763.931.931,0,0,1,.331.835.806.806,0,0,1,.183.88.677.677,0,0,1,.188.723,6.1,6.1,0,0,0-.869.652,12.891,12.891,0,0,1-3.152,1.553s-1.593.031-1.905-2.244" fill="#eea886"/>
      <path id="path310" d="M463.478-210.2a4.492,4.492,0,0,1-.111,1.189c-.125.264,1.883.848,1.883.848s-.643-2.029-1.772-2.037" fill="#cf8c6c"/>
      <path id="path312" d="M425.99-119.469l.877-2.732,3.712.6-.555,2.466-4.035-.333" fill="#3b3f66"/>
      <path id="path314" d="M456.416-119.792l.208,1.5,4.063-.678-.216-2.243-4.055,1.419" fill="#555c94"/>
      <path id="path316" d="M447.615-161.88s-.6,3.261-1.293,6.881c-.121.631-.243,1.272-.368,1.909-.679,3.488-1.365,6.843-1.619,7.537-.576,1.579-13.019,24.377-13.019,24.377s-5.088-.388-5.279-1.042c0,0,10.432-24.756,10.372-25.658s1.275-26.28,1.275-26.28,9.656,10.809,9.931,12.275" fill="#354c70"/>
      <path id="path318" d="M453.3-175.6s4.868,24.931,5.284,26.839,2.261,27.447,2.261,27.447-1.095,2.256-5.136,1.406c0,0-5.511-27.438-5.975-28.358-1.8-3.568-10.648-20.855-11.505-23.321a14.825,14.825,0,0,1-.605-5.347s6.572-3.693,15.676,1.335" fill="#354c70"/>
      <path id="path320" d="M451.254-207.9s2.136,5.323,2.672,5.167,6.673-7.364,6.673-7.364,2.808,3.5,2.431,3.905c-.523.56-7.771,12.609-8.768,12.392s-5.453-7.583-5.453-7.583-.252-5.555,2.445-6.517" fill="#deb135"/>
      <path id="path322" d="M442.122-218.061a89.379,89.379,0,0,1,7.067,5.912c1.527,1.679,5.745,8.64,5.441,10.735a152.246,152.246,0,0,0-1.756,20.348c-.031,4.772,1.489,5.989.543,6.06-1.087.083-15.02,5.132-17.083,5.747,0,0,1.352-16.8,2.036-18.743s-2.191-22.257,3.752-30.059" fill="#f2c344"/>
      <path id="path324" d="M477.785-226.087l1.241,6.259,1.243,6.26a34.1,34.1,0,0,0-15.177-.623l-.548-2.761-.552-2.777a34.253,34.253,0,0,0,13.793-6.357" fill="#d9d0c4"/>
      <path id="path326" d="M456.624-118.29s3.067-.593,3.175-.685.765-1.305,1.239-1.095.481,1.685.944,1.935,4.124,2.722,4.575,3.173,3.223.185,3.54.968.344,2.632-3.792,2.2-8.859.237-9.749-.251-.216-5.051.069-6.241" fill="#84bdff"/>
      <path id="path328" d="M425.94-119.536s3.124-.1,3.244-.171.964-1.165,1.4-.88.205,1.739.621,2.061,3.637,3.348,4.008,3.864,3.151.7,3.34,1.523-.081,2.652-4.093,1.56-8.783-1.183-9.584-1.807.595-5.021,1.065-6.151" fill="#84bdff"/>
      <path id="path330" d="M450.194-174.45s.373,1.519.972,1.848-2.795,3.575-2.795,3.575a28.565,28.565,0,0,1-1.34-3.312c.039-.3,3.163-2.111,3.163-2.111" fill="#eea987"/>
      <path id="path332" d="M439.662-211.5s-3.973,18.9-4.3,20.84c-.308,1.832,11.652,19.321,11.652,19.321l3.976-2.359s-9.649-17.548-9.635-18.348,4.631-16.04,4.631-16.04,1.931-3.319-1.493-4.931a3.412,3.412,0,0,0-4.831,1.516" fill="#ffd255"/>
      <path id="path334" d="M452.524-173.145s1.292,6.428,1.213,8.4-7.42-3.1-7.047-5.057l5.833-3.34" fill="#3c5780"/>
      <path id="path336" d="M442.122-218.061s10.085,11.017,9.464,9.8c-2.215-4.355-3.76-5.089-3.728-5.9.024-.623.267-2.433.308-3.04.079-1.155.164-2.093.164-2.093s-5.008-7.033-4.787-4.636-1.421,5.875-1.421,5.875" fill="#eea886"/>
      <path id="path338" d="M451.727-231.029a25.55,25.55,0,0,1,1.407,4.016,16.036,16.036,0,0,0-.055,2.224c.121.909.884,2.817.789,3.344-.113.639-1.455.307-1.64,1.357s-1.161,3.023-1.647,3.063c-1.249.1-6.031-1.847-6.335-2.847s-2.037-6.579-2.576-7.64,8.423-6.873,9.24-5.195l.816,1.677" fill="#eea886"/>
      <path id="path340" d="M439.539-228.614c-.632-2.761,2.543-3.1,2.543-3.1s2.067-2.408,7.013-2.121,4.192,6.741,4.192,6.741a18.354,18.354,0,0,0-4.911-.135,23.175,23.175,0,0,0-.02,3.44l-1.867-.167s.208-2.447-.687-2.563-1.2,5.18-2.865,6.347a1.843,1.843,0,0,0-.225-.74h0a20.8,20.8,0,0,1-1.3-2.7,30.374,30.374,0,0,1-1.877-5" fill="#16202e"/>
      <path id="path342" d="M447.046-225.927a1.417,1.417,0,0,0-2.335-.656c-1.193.883.035,4.035,1.2,4.019s1.632-1.731,1.139-3.363" fill="#eea886"/>
      <path id="path344" d="M443.976-220.746a3.635,3.635,0,0,0,.512,1.223,10.679,10.679,0,0,0,3.7,1.937L448-215.631s-4.239-1.635-4.021-5.115" fill="#c48a6f"/>
      <g id="g346">
        <g id="g348" clip-path="url(#clip-path-4)">
          <path id="path354" d="M461.895-214.529v0" fill="#96cbff"/>
          <path id="path356" d="M461.971-214.529v7.488h-.076v-7.488h.076" fill="#96cbff"/>
          <path id="path358" d="M462.05-214.529v7.488h-.079v-7.488h.079" fill="#95caff"/>
          <path id="path360" d="M462.127-214.529v7.488h-.077v-7.488h.077" fill="#94c9ff"/>
          <path id="path362" d="M462.2-214.529v7.488h-.077v-7.488h.077" fill="#93c9ff"/>
          <path id="path364" d="M462.282-214.529v7.488H462.2v-7.488h.077" fill="#92c8ff"/>
          <path id="path366" d="M462.36-214.529v7.488h-.079v-7.488h.079" fill="#91c7ff"/>
          <path id="path368" d="M462.436-214.529v7.488h-.076v-7.488h.076" fill="#90c6ff"/>
          <path id="path370" d="M462.515-214.529v7.488h-.079v-7.488h.079" fill="#8fc6ff"/>
          <path id="path372" d="M462.591-214.529v7.488h-.076v-7.488h.076" fill="#8ec5ff"/>
          <path id="path374" d="M462.67-214.529v7.488h-.079v-7.488h.079" fill="#8dc4ff"/>
          <path id="path376" d="M462.747-214.529v7.488h-.077v-7.488h.077" fill="#8cc3ff"/>
          <path id="path378" d="M462.824-214.529v7.488h-.077v-7.488h.077" fill="#8bc2ff"/>
          <path id="path380" d="M462.9-214.529v7.488h-.077v-7.488h.077" fill="#8ac2ff"/>
          <path id="path382" d="M462.979-214.529v7.488H462.9v-7.488h.077" fill="#89c1ff"/>
          <path id="path384" d="M463.056-214.529v7.488h-.077v-7.488h.077" fill="#88c0ff"/>
          <path id="path386" d="M463.135-214.529v7.488h-.079v-7.488h.079" fill="#87bfff"/>
          <path id="path388" d="M463.211-214.529v7.488h-.076v-7.488h.076" fill="#86bfff"/>
          <path id="path390" d="M463.288-214.529v7.488h-.077v-7.488h.077" fill="#85beff"/>
          <path id="path392" d="M463.366-214.529v7.488h-.077v-7.488h.077" fill="#84bdff"/>
          <path id="path394" d="M463.444-214.529v7.488h-.079v-7.488h.079" fill="#83bcff"/>
          <path id="path396" d="M463.522-214.529v7.488h-.077v-7.488h.077" fill="#82bbff"/>
          <path id="path398" d="M463.6-214.529v7.488h-.076v-7.488h.076" fill="#81bbff"/>
          <path id="path400" d="M463.676-214.529v7.488H463.6v-7.488h.079" fill="#80baff"/>
          <path id="path402" d="M463.754-214.529v7.488h-.077v-7.488h.077" fill="#7fb9ff"/>
          <path id="path404" d="M463.831-214.529v7.488h-.077v-7.488h.077" fill="#7eb8ff"/>
          <path id="path406" d="M463.908-214.529v7.488h-.077v-7.488h.077" fill="#7db7ff"/>
          <path id="path408" d="M463.986-214.529v7.488h-.077v-7.488h.077" fill="#7cb7ff"/>
          <path id="path410" d="M464.064-214.529v7.488h-.079v-7.488h.079" fill="#7bb6ff"/>
          <path id="path412" d="M464.14-214.529v7.488h-.076v-7.488h.076" fill="#7ab5ff"/>
          <path id="path414" d="M464.218-214.529v7.488h-.077v-7.488h.077" fill="#79b4ff"/>
          <path id="path416" d="M464.3-214.529v7.488h-.079v-7.488h.079" fill="#78b4ff"/>
          <path id="path418" d="M464.372-214.529v7.488H464.3v-7.488h.076" fill="#77b3ff"/>
          <path id="path420" d="M464.451-214.529v7.488h-.079v-7.488h.079" fill="#76b2ff"/>
          <path id="path422" d="M464.527-214.529v7.488h-.076v-7.488h.076" fill="#74b1ff"/>
          <path id="path424" d="M464.606-214.529v7.488h-.079v-7.488h.079" fill="#73b0ff"/>
          <path id="path426" d="M464.683-214.529v7.488h-.077v-7.488h.077" fill="#72b0ff"/>
          <path id="path428" d="M464.76-214.529v7.488h-.077v-7.488h.077" fill="#71afff"/>
          <path id="path430" d="M464.838-214.529v7.488h-.077v-7.488h.077" fill="#70aeff"/>
          <path id="path432" d="M464.916-214.529v7.488h-.079v-7.488h.079" fill="#6fadff"/>
          <path id="path434" d="M464.992-214.529v7.488h-.076v-7.488h.076" fill="#6eadff"/>
          <path id="path436" d="M465.071-214.529v7.488h-.079v-7.488h.079" fill="#6dacff"/>
          <path id="path438" d="M465.147-214.529v7.488h-.076v-7.488h.076" fill="#6cabff"/>
          <path id="path440" d="M465.226-214.529v7.488h-.079v-7.488h.079" fill="#6baaff"/>
          <path id="path442" d="M465.3-214.529v7.488h-.077v-7.488h.077" fill="#6aa9ff"/>
          <path id="path444" d="M465.38-214.529v7.488H465.3v-7.488h.077" fill="#69a9ff"/>
          <path id="path446" d="M465.458-214.529v7.488h-.077v-7.488h.077" fill="#68a8ff"/>
          <path id="path448" d="M465.535-214.529v7.488h-.077v-7.488h.077" fill="#67a7ff"/>
          <path id="path450" d="M465.612-214.529v7.488h-.077v-7.488h.077" fill="#66a6ff"/>
          <path id="path452" d="M465.691-214.529v7.488h-.079v-7.488h.079" fill="#65a6ff"/>
          <path id="path454" d="M465.767-214.529v7.488h-.076v-7.488h.076" fill="#64a5ff"/>
          <path id="path456" d="M465.846-214.529v7.488h-.079v-7.488h.079" fill="#63a4ff"/>
          <path id="path458" d="M465.922-214.529v7.488h-.076v-7.488h.076" fill="#62a3ff"/>
          <path id="path460" d="M466-214.529v7.488h-.079v-7.488H466" fill="#61a2ff"/>
          <path id="path462" d="M466.078-214.529v7.488H466v-7.488h.077" fill="#60a2ff"/>
          <path id="path464" d="M466.155-214.529v7.488h-.077v-7.488h.077" fill="#5fa1ff"/>
          <path id="path466" d="M466.232-214.529v7.488h-.077v-7.488h.077" fill="#5ea0ff"/>
          <path id="path468" d="M466.31-214.529v7.488h-.077v-7.488h.077" fill="#5d9fff"/>
          <path id="path470" d="M466.387-214.529v7.488h-.077v-7.488h.077" fill="#5c9eff"/>
          <path id="path472" d="M466.466-214.529v7.488h-.079v-7.488h.079" fill="#5b9eff"/>
          <path id="path474" d="M466.542-214.529v7.488h-.076v-7.488h.076" fill="#5a9dff"/>
          <path id="path476" d="M466.62-214.529v7.488h-.079v-7.488h.079" fill="#599cff"/>
          <path id="path478" d="M466.7-214.529v7.488h-.076v-7.488h.076" fill="#589bff"/>
          <path id="path480" d="M466.775-214.529v7.488H466.7v-7.488h.079" fill="#579bff"/>
          <path id="path482" d="M466.852-214.529v7.488h-.077v-7.488h.077" fill="#569aff"/>
          <path id="path484" d="M466.93-214.529v7.488h-.077v-7.488h.077" fill="#59f"/>
          <path id="path486" d="M466.93-207.041v0" fill="#59f"/>
        </g>
      </g>
      <path id="path488" d="M465.422-212.773s-2.019,1.108-1.88,1.456a.587.587,0,0,0,.4.391l-.624.832s-.1.785.783.667c0,0-.171.724.669.508,0,0,.1.527.507.5a7.693,7.693,0,0,0,1.677-.8s.195-.283-.188-.723a.794.794,0,0,0-.183-.88.88.88,0,0,0-.331-.835s.187-.985-.613-1.213c0,0-.131.053-.216.1" fill="#db9c7c"/>
      <g id="g490">
        <g id="g492" clip-path="url(#clip-path-5)">
          <path id="path498" d="M458.411-220.2v0" fill="#96cbff"/>
          <path id="path500" d="M458.536-220.2v7.164h-.125V-220.2h.125" fill="#96cbff"/>
          <path id="path502" d="M458.663-220.2v7.164h-.127V-220.2h.127" fill="#95caff"/>
          <path id="path504" d="M458.791-220.2v7.164h-.128V-220.2h.128" fill="#94c9ff"/>
          <path id="path506" d="M458.916-220.2v7.164h-.125V-220.2h.125" fill="#93c9ff"/>
          <path id="path508" d="M459.043-220.2v7.164h-.127V-220.2h.127" fill="#92c8ff"/>
          <path id="path510" d="M459.17-220.2v7.164h-.127V-220.2h.127" fill="#91c7ff"/>
          <path id="path512" d="M459.3-220.2v7.164h-.127V-220.2h.127" fill="#90c6ff"/>
          <path id="path514" d="M459.422-220.2v7.164H459.3V-220.2h.125" fill="#8fc6ff"/>
          <path id="path516" d="M459.548-220.2v7.164h-.127V-220.2h.127" fill="#8ec5ff"/>
          <path id="path518" d="M459.675-220.2v7.164h-.127V-220.2h.127" fill="#8dc4ff"/>
          <path id="path520" d="M459.8-220.2v7.164h-.128V-220.2h.128" fill="#8cc3ff"/>
          <path id="path522" d="M459.928-220.2v7.164H459.8V-220.2h.125" fill="#8bc2ff"/>
          <path id="path524" d="M460.055-220.2v7.164h-.127V-220.2h.127" fill="#8ac2ff"/>
          <path id="path526" d="M460.182-220.2v7.164h-.127V-220.2h.127" fill="#89c1ff"/>
          <path id="path528" d="M460.307-220.2v7.164h-.125V-220.2h.125" fill="#88c0ff"/>
          <path id="path530" d="M460.434-220.2v7.164h-.127V-220.2h.127" fill="#87bfff"/>
          <path id="path532" d="M460.56-220.2v7.164h-.127V-220.2h.127" fill="#86bfff"/>
          <path id="path534" d="M460.687-220.2v7.164h-.127V-220.2h.127" fill="#85beff"/>
          <path id="path536" d="M460.814-220.2v7.164h-.127V-220.2h.127" fill="#84bdff"/>
          <path id="path538" d="M460.94-220.2v7.164h-.127V-220.2h.127" fill="#83bcff"/>
          <path id="path540" d="M461.067-220.2v7.164h-.127V-220.2h.127" fill="#82bbff"/>
          <path id="path542" d="M461.194-220.2v7.164h-.127V-220.2h.127" fill="#81bbff"/>
          <path id="path544" d="M461.319-220.2v7.164h-.125V-220.2h.125" fill="#80baff"/>
          <path id="path546" d="M461.446-220.2v7.164h-.127V-220.2h.127" fill="#7fb9ff"/>
          <path id="path548" d="M461.572-220.2v7.164h-.127V-220.2h.127" fill="#7eb8ff"/>
          <path id="path550" d="M461.7-220.2v7.164h-.125V-220.2h.125" fill="#7db7ff"/>
          <path id="path552" d="M461.824-220.2v7.164H461.7V-220.2h.127" fill="#7cb7ff"/>
          <path id="path554" d="M461.951-220.2v7.164h-.127V-220.2h.127" fill="#7bb6ff"/>
          <path id="path556" d="M462.078-220.2v7.164h-.127V-220.2h.127" fill="#7ab5ff"/>
          <path id="path558" d="M462.2-220.2v7.164h-.127V-220.2h.127" fill="#79b4ff"/>
          <path id="path560" d="M462.331-220.2v7.164H462.2V-220.2h.127" fill="#78b4ff"/>
          <path id="path562" d="M462.458-220.2v7.164h-.127V-220.2h.127" fill="#77b3ff"/>
          <path id="path564" d="M462.583-220.2v7.164h-.125V-220.2h.125" fill="#76b2ff"/>
          <path id="path566" d="M462.71-220.2v7.164h-.127V-220.2h.127" fill="#74b1ff"/>
          <path id="path568" d="M462.836-220.2v7.164h-.127V-220.2h.127" fill="#73b0ff"/>
          <path id="path570" d="M462.963-220.2v7.164h-.127V-220.2h.127" fill="#72b0ff"/>
          <path id="path572" d="M463.088-220.2v7.164h-.125V-220.2h.125" fill="#71afff"/>
          <path id="path574" d="M463.216-220.2v7.164h-.128V-220.2h.128" fill="#70aeff"/>
          <path id="path576" d="M463.343-220.2v7.164h-.127V-220.2h.127" fill="#6fadff"/>
          <path id="path578" d="M463.47-220.2v7.164h-.127V-220.2h.127" fill="#6eadff"/>
          <path id="path580" d="M463.595-220.2v7.164h-.125V-220.2h.125" fill="#6dacff"/>
          <path id="path582" d="M463.721-220.2v7.164h-.127V-220.2h.127" fill="#6cabff"/>
          <path id="path584" d="M463.848-220.2v7.164h-.127V-220.2h.127" fill="#6baaff"/>
          <path id="path586" d="M463.974-220.2v7.164h-.125V-220.2h.125" fill="#6aa9ff"/>
          <path id="path588" d="M464.1-220.2v7.164h-.127V-220.2h.127" fill="#69a9ff"/>
          <path id="path590" d="M464.227-220.2v7.164H464.1V-220.2h.127" fill="#68a8ff"/>
          <path id="path592" d="M464.355-220.2v7.164h-.128V-220.2h.128" fill="#67a7ff"/>
          <path id="path594" d="M464.48-220.2v7.164h-.125V-220.2h.125" fill="#66a6ff"/>
          <path id="path596" d="M464.607-220.2v7.164h-.127V-220.2h.127" fill="#65a6ff"/>
          <path id="path598" d="M464.734-220.2v7.164h-.127V-220.2h.127" fill="#64a5ff"/>
          <path id="path600" d="M464.86-220.2v7.164h-.127V-220.2h.127" fill="#63a4ff"/>
          <path id="path602" d="M464.986-220.2v7.164h-.125V-220.2h.125" fill="#62a3ff"/>
          <path id="path604" d="M465.112-220.2v7.164h-.127V-220.2h.127" fill="#61a2ff"/>
          <path id="path606" d="M465.239-220.2v7.164h-.127V-220.2h.127" fill="#60a2ff"/>
          <path id="path608" d="M465.366-220.2v7.164h-.127V-220.2h.127" fill="#5fa1ff"/>
          <path id="path610" d="M465.492-220.2v7.164h-.127V-220.2h.127" fill="#5ea0ff"/>
          <path id="path612" d="M465.619-220.2v7.164h-.127V-220.2h.127" fill="#5d9fff"/>
          <path id="path614" d="M465.746-220.2v7.164h-.127V-220.2h.127" fill="#5c9eff"/>
          <path id="path616" d="M465.871-220.2v7.164h-.125V-220.2h.125" fill="#5b9eff"/>
          <path id="path618" d="M466-220.2v7.164h-.127V-220.2H466" fill="#5a9dff"/>
          <path id="path620" d="M466.124-220.2v7.164H466V-220.2h.127" fill="#599cff"/>
          <path id="path622" d="M466.25-220.2v7.164h-.125V-220.2h.125" fill="#589bff"/>
          <path id="path624" d="M466.376-220.2v7.164h-.127V-220.2h.127" fill="#579bff"/>
          <path id="path626" d="M466.5-220.2v7.164h-.128V-220.2h.128" fill="#569aff"/>
          <path id="path628" d="M466.631-220.2v7.164H466.5V-220.2h.127" fill="#59f"/>
          <path id="path630" d="M466.631-213.038v0" fill="#59f"/>
        </g>
      </g>
      <path id="path632" d="M461.891-211.274a7.881,7.881,0,0,1,2.453.308c.2.081.373.195.373.409s-.309.484-.992.539a5.778,5.778,0,0,0-1.541.437s-.719-.151-.293-1.693" fill="#eea886"/>
      <path id="path634" d="M446.322-155c-.121.631-.243,1.272-.368,1.909l-4.041-10.7c.533,1.08,4.409,8.788,4.409,8.788" fill="#293b57"/>
      <path id="path636" d="M223.934-282.446H160.169a8.529,8.529,0,0,1-8.531-8.528V-391.7a8.532,8.532,0,0,1,8.531-8.531h63.765a8.532,8.532,0,0,1,8.531,8.531v100.73a8.529,8.529,0,0,1-8.531,8.528" fill="#ffc955"/>
      <path id="path638" d="M223.878-324.166H219.69V-292.3h4.188v-31.871" fill="#e3f2ff"/>
      <path id="path640" d="M215.6-320.594h-4.187v28.3H215.6v-28.3" fill="#e3f2ff"/>
      <path id="path642" d="M206.614-315.949h-4.188V-292.3h4.188v-23.653" fill="#e3f2ff"/>
      <path id="path644" d="M197.382-310.09h-4.188V-292.3h4.188V-310.09" fill="#e3f2ff"/>
      <path id="path646" d="M168.206-313.866l-.907-.324,7.9-22.155,17.125-4.528,6.155-24.317,13.217-5.832,2.959-18.908.952.149-3.041,19.427L199.3-364.5l-6.179,24.409-17.184,4.547-7.727,21.675" fill="#e3f2ff"/>
      <path id="path648" d="M194.709-342.107a2.571,2.571,0,0,1-.363,3.617,2.571,2.571,0,0,1-3.617-.365,2.568,2.568,0,0,1,.364-3.615,2.571,2.571,0,0,1,3.616.363" fill="#ffc955"/>
      <path id="path650" d="M191.4-342.1a2.088,2.088,0,0,0-.3,2.937,2.09,2.09,0,0,0,2.937.3,2.09,2.09,0,0,0,.3-2.939A2.09,2.09,0,0,0,191.4-342.1Zm3.252,3.979a3.053,3.053,0,0,1-4.293-.432,3.056,3.056,0,0,1,.431-4.295,3.057,3.057,0,0,1,4.295.432,3.056,3.056,0,0,1-.432,4.295" fill="#e3f2ff"/>
      <path id="path652" d="M200.945-366.323a2.569,2.569,0,0,1-.363,3.616,2.569,2.569,0,0,1-3.616-.363,2.569,2.569,0,0,1,.363-3.616,2.57,2.57,0,0,1,3.616.363" fill="#ffc955"/>
      <path id="path654" d="M197.634-366.312a2.088,2.088,0,0,0-.3,2.937,2.091,2.091,0,0,0,2.939.3,2.091,2.091,0,0,0,.295-2.939A2.088,2.088,0,0,0,197.634-366.312Zm3.252,3.98a3.057,3.057,0,0,1-4.295-.432,3.057,3.057,0,0,1,.432-4.295,3.054,3.054,0,0,1,4.293.431,3.056,3.056,0,0,1-.431,4.3" fill="#e3f2ff"/>
      <path id="path656" d="M213.957-372.322a2.568,2.568,0,0,1-.364,3.616,2.57,2.57,0,0,1-3.616-.363,2.572,2.572,0,0,1,.364-3.617,2.571,2.571,0,0,1,3.616.364" fill="#ffc955"/>
      <path id="path658" d="M210.645-372.312a2.091,2.091,0,0,0-.293,2.939,2.088,2.088,0,0,0,2.937.295,2.089,2.089,0,0,0,.295-2.937A2.091,2.091,0,0,0,210.645-372.312Zm3.253,3.98a3.056,3.056,0,0,1-4.295-.432,3.055,3.055,0,0,1,.432-4.293,3.055,3.055,0,0,1,4.295.431,3.056,3.056,0,0,1-.432,4.295" fill="#e3f2ff"/>
      <path id="path660" d="M177.65-337.351a2.569,2.569,0,0,1-.363,3.616,2.571,2.571,0,0,1-3.617-.363,2.569,2.569,0,0,1,.363-3.616,2.571,2.571,0,0,1,3.617.363" fill="#ffc955"/>
      <path id="path662" d="M174.34-337.341a2.088,2.088,0,0,0-.3,2.937,2.091,2.091,0,0,0,2.937.3,2.09,2.09,0,0,0,.3-2.939A2.088,2.088,0,0,0,174.34-337.341Zm3.252,3.98a3.054,3.054,0,0,1-4.293-.433,3.054,3.054,0,0,1,.431-4.293,3.057,3.057,0,0,1,4.295.431,3.058,3.058,0,0,1-.432,4.3" fill="#e3f2ff"/>
      <path id="path664" d="M184.11-361.47H162.07a1.845,1.845,0,0,1-1.844-1.845v-1.641a1.844,1.844,0,0,1,1.844-1.844h22.04a1.845,1.845,0,0,1,1.845,1.844v1.641a1.846,1.846,0,0,1-1.845,1.845" fill="#ebebeb"/>
      <path id="path666" d="M184.11-370.788H162.07a1.844,1.844,0,0,1-1.844-1.845v-1.64a1.845,1.845,0,0,1,1.844-1.845h22.04a1.846,1.846,0,0,1,1.845,1.845v1.64a1.845,1.845,0,0,1-1.845,1.845" fill="#ebebeb"/>
      <path id="path668" d="M141.758-357.182s-.745,7.357.613,9.2c0,0-3.6-.784-4.432-2.023s3.819-7.18,3.819-7.18" fill="#16202e"/>
      <path id="path670" d="M164.23-333.687s1.305-.877,1.509-1a3.767,3.767,0,0,1,1.641-.016,4.368,4.368,0,0,1,1.824.679.671.671,0,0,1,.129.549,1.309,1.309,0,0,1-.276.6.793.793,0,0,1-.167.744.69.69,0,0,1-.292.709.576.576,0,0,1-.212.6,5.119,5.119,0,0,0-.923.044,11.011,11.011,0,0,1-2.964-.411s-1.471-.316-.271-2.492" fill="#eea886"/>
      <path id="path672" d="M166.453-333.079a3.884,3.884,0,0,1-.6.824c-.208.136,1.005,1.441,1.005,1.441s.416-1.764-.4-2.265" fill="#cf8c6c"/>
      <path id="path674" d="M163.457-333.561a5.322,5.322,0,0,0,1.329-.325c.507-.235-.095,2.557-.095,2.557a5.23,5.23,0,0,0-2.033-.872c-.8-.027.8-1.36.8-1.36" fill="#eea886"/>
      <path id="path676" d="M129.423-259.2a46.4,46.4,0,0,0,3.463,4.551s1.792.929,1.847,1.672c.105,1.4.18,2.232-2.177,2.3s-3.83-.007-4.262-1.433a10.749,10.749,0,0,0-1.175-2.548l-.18,3.715h-.531s-.238-3.723-.271-4.255-.381-2.572.74-3.477a3.113,3.113,0,0,1,2.547-.521" fill="#162d40"/>
      <path id="path678" d="M133.228-254.462a5.942,5.942,0,0,1-2.789-.021c-1.516-.381-2.97-4.009-3.413-4.312l-.393-1.464h2.954a5.266,5.266,0,0,0,.5,2.011,35.213,35.213,0,0,0,3.14,3.787" fill="#162d40"/>
      <path id="path680" d="M146.09-260.607a9.532,9.532,0,0,0,1.112,1.859c.535.695,2.192,3.552,2.923,3.751s2.987.6,3.185,1.859.3,2.157-1.925,2.257-3.684.232-4.747-1.328a11.561,11.561,0,0,0-2.755-2.689v4.071h-.863a36.659,36.659,0,0,0-.631-4.533c-.232-.3-.829-3.552,1.228-5.245s2.472,0,2.472,0" fill="#162d40"/>
      <path id="path682" d="M150.125-255s-1.992.5-2.756,0-3.359-4.884-4.219-5.147c0,0,.833-1.691,2.94-.463,0,0,3.469,4.879,4.035,5.609" fill="#162d40"/>
      <path id="path684" d="M128.292-321.563a20.831,20.831,0,0,0-3.57,7.984c-.762,4.331.451,18.868.417,21.009s-1.888,8.8-1.491,12.835,2.484,20.867,2.484,20.867l4.866-.089s-.975-18.163-.726-19.855,1.042-8.895,1.141-9.593,5.543-19.128,5.543-22.251-1.892-16-8.663-10.907" fill="#1d3b54"/>
      <path id="path686" d="M142.4-320.135s4.613,17.608,5.16,20.048,1.643,5.625,1.593,6.073-.58,7.965-.58,7.965l-1.312,25.591H142.4s-1.56-16.281-1.811-19.567,1.793-8.364,1.295-9.759-8.016-17.473-8.016-17.473-5.691-17.989,8.532-12.879" fill="#1d3b54"/>
      <path id="path688" d="M140.972-346.49a5.589,5.589,0,0,1,3.239,1.668,21.378,21.378,0,0,1,3.068,4.672c.364.8,5.483,8.18,5.749,8.345s2.5-.423,4.293-.572a39.3,39.3,0,0,0,7.3-1.733l.649,3.305s-10.76,3.471-13.243,2.86C148.99-328.693,142-337.66,142-337.66s-5.211-6.107-1.029-8.829" fill="#eddad3"/>
      <path id="path690" d="M137.752-347.783a24.9,24.9,0,0,0,3.22,1.293c.831.167,4.049,4.349,4.613,5.876s0,3.816-1.161,6.5-.065,3.585-.6,6.275a75.165,75.165,0,0,0-.431,11.511c.1,1.493-15.366,4.311-18.452,1.589,0,0,2.089-6.889,4.564-9.476.534-.56.478-4.289.113-5.217s-4.481-7.867-4.481-7.867-.3-7.036,1.493-8.431c1.56-1.212,5.813-1.644,6.576-1.909a13.024,13.024,0,0,1,4.544-.148" fill="#eddad3"/>
      <path id="path692" d="M138.516-342.456l1.452-1.7-1.261-4.477a29.614,29.614,0,0,0-.191,6.177" fill="#d1c0ba"/>
      <path id="path694" d="M129.413-346.49a4.161,4.161,0,0,0-4.739,2.457c-1.726,3.319-1.294,5.111-1.693,6.6s-1.991,11.484-2.09,11.916-1.626,5.511-1.428,7.069,1.628,13.376,1.561,13.775,2.754-.381,2.754-.381-.116-12.065-.016-13.061.2-6.223.945-7.568,2.589-9.559,2.987-10.4,4.257-9.328,1.718-10.407" fill="#eea886"/>
      <path id="path696" d="M138.893-350.542a57.271,57.271,0,0,0-.377,5.812s-2.484,2.488-5.308-2.905a7.4,7.4,0,0,0,.294-5.251c-.894-3.029,5.391,2.344,5.391,2.344" fill="#eea886"/>
      <path id="path698" d="M138.516-344.73v2.273l-2.669-2.365Z" fill="#eea886"/>
      <path id="path700" d="M138.516-342.456l-1.187-1.468-4-3.984-1.5.665,6.681,4.787" fill="#d1c0ba"/>
      <path id="path702" d="M139.968-344.156l1.831.505-3.092-4.983Z" fill="#fae6de"/>
      <path id="path704" d="M137.329-343.924l-1.672,2.679-3.884-6.093,1.664-.847,3.892,4.261" fill="#fae6de"/>
      <path id="path706" d="M145.844-333.118a20.3,20.3,0,0,0-.039-6.393s-.351,1.951-1.207,4.988l1.245,1.405" fill="#d1c0ba"/>
      <path id="path708" d="M127.281-333.646s1.653-5.467,1.75-5.767a46.388,46.388,0,0,1-.746,7.511s-.608-1.061-1-1.744" fill="#d1c0ba"/>
      <path id="path710" d="M188.829-361.042l-26,32.763.907.7Z" fill="#54281a"/>
      <path id="path712" d="M169-334.062s-1.951-.184-2.02.128a.5.5,0,0,0,.1.465l-.839.289s-.447.5.232.844c0,0-.464.427.231.677,0,0-.181.417.12.591a6.563,6.563,0,0,0,1.563.239s.272-.105.212-.6a.677.677,0,0,0,.292-.709.74.74,0,0,0,.167-.744s.6-.607.147-1.148a1.775,1.775,0,0,0-.2-.033" fill="#db9c7c"/>
      <path id="path714" d="M165.8-334.693a6.7,6.7,0,0,1,1.58,1.389c.1.152.171.316.069.465s-.451.195-.957-.092a4.9,4.9,0,0,0-1.3-.429s-.435-.448.6-1.333" fill="#eea886"/>
      <path id="path716" d="M136.878-365.463s4.4-.113,5.208,5.095-1.06,9.785-1.793,10.519-5.133.177-6.169-2.528-2.555-4.677-2.327-7-.328-6.169,5.082-6.081" fill="#eea886"/>
      <path id="path718" d="M142.274-358.4s1.179-6.5-4.663-7.66-7.888,2.832-8.444,5.208.1,9.077.1,9.077,3.894,3.413,6.219,4.3c0,0-1.947-7.131-1.213-12.239,0,0,4.747.745,7.9-.032,0,0,.095,1.067.1,1.347" fill="#16202e"/>
      <path id="path720" d="M138.793-349.563a7.426,7.426,0,0,1-3.605-1.361,8.563,8.563,0,0,0,3.5,2.509s.12-.915.105-1.148" fill="#a77860"/>
      <path id="path722" d="M132.16-303.451l-16.992,2.775-2.051-12.567,16.991-2.775,2.051,12.567" fill="#366e9c"/>
      <path id="path724" d="M120.437-300.9a2.284,2.284,0,0,1-.29-.68s-.011-.451-.037-.772a2.182,2.182,0,0,0-.031-.245,4.277,4.277,0,0,1-.2-1.339,28.7,28.7,0,0,1,.856-3.149l1.5.052,1.415-.153a28.7,28.7,0,0,1,1.741,3.825,1.5,1.5,0,0,1,0,.163,5.384,5.384,0,0,1-.275,1.077c-.014.092-.224.995-.471,1.12a.909.909,0,0,1-.88.02,2.17,2.17,0,0,1-1.179.175,1.344,1.344,0,0,1-1.187-.036s-.669.239-.967-.057" fill="#eea886"/>
      <path id="path726" d="M129.413-346.49a4.161,4.161,0,0,0-4.739,2.457,15.166,15.166,0,0,0-1.948,6.355c-.218,1.532-2.322,10.621-2.422,11.053s-.792,6.113-.841,8.181c-.037,1.573.332,11.883.266,12.281s4.767-.7,4.767-.7-.535-9.508-.435-10.5.311-5.96.8-7.42c.571-1.712,2.828-10.347,3.227-11.193s3.866-9.435,1.327-10.513" fill="#eddad3"/>
      <path id="path728" d="M285.086-257.123l.313-2.917s-4.115-.031-4.6.316c0,0,.349,2.451.392,2.817s3.891-.216,3.891-.216" fill="#5c544d"/>
      <path id="path730" d="M278.093-251.023c4.9-.041,7.257.293,7.781-.5s-.759-5.86-.759-5.86a10.28,10.28,0,0,1-3.96.167,10.424,10.424,0,0,1-2.4,2.121c-1.179.643-3.032.9-3.729,1.564-.5.481-1.832,2.552,3.064,2.509" fill="#3c4145"/>
      <path id="path732" d="M257.525-257.123l.311-2.917s-4.115-.031-4.595.316c0,0,.348,2.451.393,2.817s3.891-.216,3.891-.216" fill="#5c544d"/>
      <path id="path734" d="M250.529-251.023c4.895-.128,7.257.293,7.781-.5s-.759-5.86-.759-5.86a9.308,9.308,0,0,1-3.959.167,10.444,10.444,0,0,1-2.4,2.121c-1.177.643-5.516,1.172-6.213,1.839-.5.48-1.34,2.416,5.548,2.235" fill="#3c4145"/>
      <path id="path736" d="M279.437-323a36.254,36.254,0,0,1,1.777,11.323c-.269,5.24,1.059,10.976,1.6,16.451.605,6.1,3.084,20.552,3.173,23.816s-.385,13.691-.385,13.691l-4.959.116s-4.165-25.261-5.243-27.839-6.429-20.955-6.608-23.016S279.437-323,279.437-323" fill="#dbd8e3"/>
      <path id="path738" d="M258.589-321.914s-2.724,14.364-3.083,17.571-.6,15.524-.779,17.528-1.2,26.236-2.157,29.215h6.34s4.865-17.616,4.865-25.949,3.76-18.117,6.188-23.616,7.981-5.629,9.473-15.831c0,0-18.827-2.153-20.848,1.083" fill="#dbd8e3"/>
      <path id="path740" d="M271.473-371.006s-5-1.867-7.3,1.937-2.083,11.42.436,12.356,6.3.447,7.592-1.933a19.046,19.046,0,0,0,2.4-8.121,5.009,5.009,0,0,0-3.127-4.239" fill="#eea886"/>
      <path id="path742" d="M265.447-356.946a4.18,4.18,0,0,1-.132,1.955c-.333.645,6.287.663,6.287.663a43.415,43.415,0,0,1,1.556-6.475c1.019-2.967-7.711,3.857-7.711,3.857" fill="#eea886"/>
      <path id="path744" d="M273.158-360.8s-.457.752-2.321.46-4.141-2.773-4.92-3.045-.784-.729-.784-.729l-.489.711-.827.053s.755-2.22-.384-3.125,1.181-7.184,7.163-5.093c0,0,4.287.847,4.545,3.452a11.841,11.841,0,0,1-1.983,7.317" fill="#fccca2"/>
      <path id="path746" d="M264.923-355.068s.021-1.233.58-1.351,6.168-.659,6.855-.388v1.436s-1.323.813-7.435.3" fill="#e2d2ca"/>
      <path id="path748" d="M265.254-365.068c.107-.439,1.219-1.691,1.647-.349s-.645,3.144-1.243,2.989-.668-1.529-.4-2.64" fill="#eea886"/>
      <path id="path750" d="M264.923-355.068s-3.075,1.105-6.637,2.62a7.473,7.473,0,0,0-4.54,6.055c-.236,2.4-2.793,15.148-3.275,16.228s-6.149,18.407-6.349,18.765,4.628,2.365,4.948,2.205,5.492-15.805,6.011-16.964c0,0,2.977-9.38,3.057-10.779,0,0,.085,3.985.244,5.1s-2.647,22.84-2.567,23.439,12.757,1.361,17.831.8a62.1,62.1,0,0,0,9.168-1.725s-3.992-17.143-3.869-19.043c.267-4.143,1.651-11.94,1.651-11.94l4.137,7.8-5.3,13.625,1.212,4.139s9.841-14.869,10.16-16.228-.481-3.088-1-4.207-3.931-9.631-4.729-10.831-2.149-6-5.412-7.333a50.956,50.956,0,0,0-7.308-2.032l-7.435.3" fill="#63a4ff"/>
      <path id="path752" d="M258.157-303.547l-23.183-5.944,4.148-16.172,23.183,5.943-4.148,16.173" fill="#f25f54"/>
      <path id="path754" d="M242.1-307.863s-.663,1.069-.905,1.376.6.5.953.187-.048-1.563-.048-1.563" fill="#c98462"/>
      <path id="path756" d="M246.93-304.207a2.6,2.6,0,0,0,.477-.669s.116-.489.22-.831a2.637,2.637,0,0,1,.091-.261,4.729,4.729,0,0,0,.531-1.408c.1-.66.391-3.627.391-3.627l-1.8-.453-1.441-.3s-3.117,3.109-3.284,3.715a1.205,1.205,0,0,0-.037.175,5.914,5.914,0,0,0,.044,1.236c-.005.1.011,1.135.249,1.328a1.006,1.006,0,0,0,.953.228,2.4,2.4,0,0,0,1.239.467,1.5,1.5,0,0,0,1.3.241s.672.416,1.065.164" fill="#de9d7d"/>
      <path id="path758" d="M253.941-322.966S249.826-310.5,249.07-309.2a13.563,13.563,0,0,1-4.948-2.205l4.517-13.447,5.3,1.881" fill="#63a4ff"/>
      <path id="path760" d="M625.116-303.535s15.273-44.791-13.872-58.676-53.892,6.187-58.567,17.048-3.437,30.611.549,44.383,3.407,34.736-5.255,41.748-19.4,18.656-18.869,42.36c.331,14.705,57.868-37.617,57.868-37.617l38.145-49.245" fill="#252e3b"/>
      <path id="path762" d="M584.164-250.255s-23.956,5.309-33.465,10.867-30.623,31.117-30.623,42.108,92.342,21.257,92.342,21.257l17.5,63.9s46.675-11.39,52.231-20.836-17.727-77.147-21.712-90.848c-4.065-13.977-20.795-23.723-40.243-26.448a133.558,133.558,0,0,0-36.033,0" fill="#ffd255"/>
      <path id="path764" d="M618.536-250.475S618-221.359,594.906-220.5s-18.284-27.927-18.284-27.927,16.889-6.843,41.913-2.053" fill="#eea886"/>
      <path id="path766" d="M628.305-338.337s8.168,46.829-15.093,80.657c-24.091,35.035,15.093-80.657,15.093-80.657" fill="#252e3b"/>
      <path id="path768" d="M613.581-271.062s-1.607,13.927,1.075,22.589-35.307,8.9-35.286,1.779c.025-8.091,3.887-14.849.249-28.717s33.963,4.349,33.963,4.349" fill="#eea886"/>
      <path id="path770" d="M584.113-269.286s11.995,12.5,27.332,1.3c0,0-1.267,7.987-12.3,9.017s-15.033-10.321-15.033-10.321" fill="#a77860"/>
      <path id="path772" d="M599.135-354.574s30.312,8.971,25.981,51.039-24.127,39.9-25.981,40.211-25.365,1.856-32.788-49.181,32.788-42.068,32.788-42.068" fill="#eea886"/>
      <path id="path774" d="M591.308-335.815s16.472,26.2,33.808,32.28c0,0,9.467-43.965-29.631-53.177s-32.972,44.407-30.055,58.7c0,0,8.144-21.035,25.877-37.807" fill="#252e3b"/>
      <path id="path776" d="M569.216-339.762s8.671-16.791,23.311-17.541,23.348,11.951,23.348,11.951-5.716-14.3-23.329-14.3-23.329,19.891-23.329,19.891" fill="#88c0ff"/>
      <path id="path778" d="M628.82-207.7l10.28,95.57H503.8L493.52-207.7h135.3" fill="#5fa0ff"/>
      <path id="path780" d="M500.416-116.589H634.529l-10.152-94.393H490.263Zm135.428,1.178H499.357l-10.407-96.75H625.437l10.407,96.75" fill="#5fa0ff"/>
      <path id="path782" d="M574.7-161.462c1.215,5.945-1.559,11.535-6.195,12.483s-9.379-3.1-10.593-9.049,1.557-11.535,6.193-12.483,9.379,3.1,10.595,9.049" fill="#5189db"/>
      <path id="path784" d="M626.309-121.738h25.248v9.606H626.309v-9.606" fill="#5fa0ff"/>
      <path id="path786" d="M547.807-439.536A19.657,19.657,0,0,0,528.172-419.9a19.657,19.657,0,0,0,19.635,19.636A19.657,19.657,0,0,0,567.443-419.9,19.657,19.657,0,0,0,547.807-439.536Zm0,40.451A20.838,20.838,0,0,1,526.992-419.9a20.838,20.838,0,0,1,20.815-20.815A20.838,20.838,0,0,1,568.623-419.9a20.839,20.839,0,0,1-20.816,20.816" fill="#64a4ff"/>
      <path id="path788" d="M76.586-290.89l-1.7-.492a94.7,94.7,0,0,1,3.477-10.159l1.626.7a94.9,94.9,0,0,0-3.4,9.955ZM72.53-270.223l-1.761-.18c.355-3.464.891-7.025,1.593-10.581l1.735.343c-.691,3.5-1.218,7.008-1.567,10.419Zm-1.571,21.217a84.76,84.76,0,0,1-.721-10.7l1.77-.011a82.886,82.886,0,0,0,.706,10.476Zm6.069,20.544a62.687,62.687,0,0,1-3.87-10.029l1.7-.495a60.758,60.758,0,0,0,3.759,9.745Zm12.791,17.179a59.37,59.37,0,0,1-7.189-7.995l1.419-1.057a57.712,57.712,0,0,0,6.974,7.756Zm215.819.617-.224-1.755a101.837,101.837,0,0,1,10.661-.821l.039,1.769A99.774,99.774,0,0,0,305.639-210.666Zm31.324,1.308a82.961,82.961,0,0,0-10.355-1.716l.177-1.761a85.281,85.281,0,0,1,10.576,1.752Zm-52.009,2.852-.439-1.715c3.809-.975,7.2-1.765,10.373-2.42l.359,1.732C292.1-208.259,288.736-207.473,284.953-206.506Zm71.8,4.16c-3.263-1.544-6.531-2.9-9.717-4.043l.6-1.667c3.239,1.159,6.563,2.54,9.877,4.109Zm-92.246,1.479-.48-1.7q2.224-.624,4.4-1.241,2.95-.834,5.82-1.64l.476,1.705q-2.87.8-5.813,1.637Q266.734-201.493,264.511-200.868Zm-156.9,1.468a77.2,77.2,0,0,1-9.341-5.26l.977-1.476a75.691,75.691,0,0,0,9.128,5.14Zm136.344,3.965-.413-1.721c3.248-.779,6.605-1.631,10.265-2.605l.456,1.711c-3.675.977-7.047,1.833-10.308,2.616Zm-116.168,3.049c-3.566-.864-7.018-1.867-10.261-2.983l.576-1.672c3.19,1.095,6.59,2.083,10.1,2.933Zm95.319,1.228-.293-1.747c3.411-.571,6.909-1.225,10.4-1.945l.357,1.735c-3.513.723-7.033,1.38-10.464,1.957Zm-74.281,2.248c-3.629-.359-7.187-.82-10.573-1.372l.284-1.747c3.351.545,6.872,1,10.464,1.359Zm53.163.44-.153-1.761c3.492-.3,7.029-.683,10.516-1.128l.224,1.756c-3.509.447-7.072.829-10.587,1.133Zm-31.911.9c-3.5-.1-7.076-.261-10.636-.488l.111-1.765c3.54.224,7.1.387,10.576.485Zm10.648.108-.015-1.769c3.529-.029,7.087-.127,10.572-.291l.083,1.768c-3.507.164-7.088.263-10.64.292" fill="#c2bebc"/>
      <path id="path790" d="M310.75-583.516l-.189-1.76a103.646,103.646,0,0,1,10.685-.595l0,1.769A101.926,101.926,0,0,0,310.75-583.516Zm31.356,1.641a96.556,96.556,0,0,0-10.367-1.687l.187-1.76a98.4,98.4,0,0,1,10.559,1.717Zm-52,2.488-.489-1.7c3.488-1.005,6.979-1.864,10.373-2.549l.351,1.735C297-581.227,293.554-580.38,290.11-579.387Zm72,3.988c-3.391-1.433-6.616-2.645-9.861-3.707l.551-1.681c3.292,1.076,6.563,2.305,10,3.759Zm-91.83,3.221-.705-1.624c3.333-1.448,6.664-2.781,9.9-3.965l.608,1.661c-3.2,1.172-6.5,2.492-9.8,3.928Zm110.776,6.143c-3.465-1.9-6.529-3.512-9.364-4.928l.789-1.584c2.857,1.427,5.94,3.049,9.425,4.96ZM251.338-562.8l-.857-1.549c3.172-1.751,6.345-3.417,9.433-4.951l.787,1.584C257.637-566.191,254.486-564.537,251.338-562.8Zm148.248,7.108c-3-1.631-5.977-3.307-9.28-5.171l.871-1.541c3.295,1.86,6.267,3.533,9.255,5.157Zm113.054,3.572-.081-1.768c3.521-.165,7.1-.2,10.676-.108l-.045,1.769c-3.532-.093-7.069-.057-10.549.107Zm-279.437.232-.963-1.485c3.031-1.965,6.067-3.865,9.021-5.647l.915,1.515c-2.939,1.772-5.959,3.661-8.973,5.617ZM544.187-550.2c-3.488-.575-7.008-1.037-10.467-1.372l.171-1.761c3.5.339,7.059.807,10.583,1.388Zm-52.465.652-.348-1.735c3.471-.7,7.019-1.271,10.543-1.7l.216,1.756C498.651-550.8,495.148-550.239,491.721-549.549Zm-72.9,3.052c-3.116-1.216-6.311-2.621-9.769-4.3l.772-1.592c3.416,1.655,6.569,3.041,9.641,4.24Zm145.942,1.037c-3.4-1-6.835-1.905-10.219-2.688l.4-1.724c3.417.791,6.891,1.7,10.32,2.715Zm-93.421,1.527-.5-1.7c1.135-.333,2.293-.7,3.443-1.084,2.212-.743,4.467-1.439,6.7-2.068l.48,1.7c-2.209.621-4.437,1.308-6.621,2.041-1.169.393-2.349.765-3.507,1.105Zm-31.84,2.857a78.979,78.979,0,0,1-10.523-2.069l.456-1.709a77.47,77.47,0,0,0,10.285,2.023Zm10.708.551-.039-1.769a74.81,74.81,0,0,0,10.439-.98l.287,1.747A76.712,76.712,0,0,1,450.211-540.525Zm134.462,2.167c-3.269-1.368-6.588-2.655-9.86-3.824l.6-1.667c3.3,1.18,6.648,2.479,9.947,3.857Zm19.081,9.128c-3.109-1.677-6.283-3.292-9.429-4.8l.764-1.6c3.173,1.52,6.372,3.148,9.505,4.839Zm18.136,10.912c-2.911-1.943-5.919-3.849-8.941-5.668l.912-1.516c3.048,1.832,6.079,3.755,9.012,5.712Zm16.937,12.681c-.029-.027-2.985-2.651-8.279-6.585l1.056-1.42c5.363,3.985,8.369,6.657,8.4,6.684l-1.177,1.321" fill="#c2bebc"/>
      <path id="path792" d="M418.336-182.929l-44.479-12.932,13.333-4.021Z" fill="#d6d6d6"/>
      <path id="path794" d="M418.336-182.929l-16.625-16.7-10.233,2.079Z" fill="#e8e8e8"/>
      <path id="path796" d="M384.086-192.889l.359,5.147,33.892,4.813Z" fill="#c2c2c2"/>
      <path id="path798" d="M194.469-522.465l39.207-21.927-13.477-.889Z" fill="#d6d6d6"/>
      <path id="path800" d="M194.469-522.465l12.064-19.405,10.124-.269Z" fill="#e8e8e8"/>
      <path id="path802" d="M224.658-539.349l.785,4.94-30.975,11.944Z" fill="#c2c2c2"/>
    </g>
  </g>
</svg>
