<?xml version="1.0" encoding="utf-8"?>
<!-- Generator: Adobe Illustrator 24.0.1, SVG Export Plug-In . SVG Version: 6.00 Build 0)  -->
<svg version="1.1" id="bebdbc02-5f56-4bd5-9ad9-bce5f07a2c3e"
	 xmlns="http://www.w3.org/2000/svg" xmlns:xlink="http://www.w3.org/1999/xlink" x="0px" y="0px" viewBox="0 0 804.91 783.89"
	 style="enable-background:new 0 0 804.91 783.89;" xml:space="preserve">
<style type="text/css">
	.st0{fill:#3F3D56;}
	.st1{fill:#F2F2F2;}
	.st2{fill:#63B6FF;}
	.st3{fill:#FF6584;}
	.st4{fill:#CCCCCC;}
	.st5{fill:#F3FF8A;}
	.st6{fill:#6C63FF;}
	.st7{opacity:0.1;enable-background:new    ;}
	.st8{fill:#FFFFFF;}
	.st9{fill:#2F2E41;}
	.st10{fill:#A0616A;}
	.st11{fill:#D0D0D0;}
	.st12{fill:#FF3F45;}
</style>
<title>lists</title>
<path class="st0" d="M425.02,756.14c0,15.29-94.58,27.67-211.45,27.75h-1.06c-57.05,0-108.85-2.94-147.02-7.7
	c-1.63-0.22-3.24-0.42-4.82-0.64c-6.49-0.86-12.56-1.78-18.14-2.74C15.82,768.16,0,762.39,0,756.14c0-5.06,10.35-9.79,28.44-13.88
	c9.55-2.16,21.25-4.12,34.73-5.86c2.48-0.33,5.02-0.64,7.63-0.94c37.6-4.4,87.27-7.07,141.71-7.07c10.58,0,20.99,0.1,31.16,0.3
	C346.25,730.65,425.02,742.19,425.02,756.14z"/>
<rect x="489.17" y="416.07" class="st1" width="314.75" height="161.31"/>
<rect x="97.7" y="0.98" class="st1" width="314.75" height="161.31"/>
<path class="st2" d="M413.43,163.28H96.71V0h316.72V163.28z M98.68,161.31h312.79V1.97H98.68V161.31z"/>
<rect x="489.17" y="0.98" class="st1" width="314.75" height="161.31"/>
<rect x="97.7" y="208.52" class="st1" width="314.75" height="161.31"/>
<rect x="489.17" y="208.52" class="st1" width="314.75" height="161.31"/>
<rect x="97.7" y="416.07" class="st1" width="314.75" height="161.31"/>
<path class="st0" d="M378.18,577.04c-12.79-2.17-25.09-4.03-36.9-5.58l4.67-9.05c-1.57-0.55-8.49,4.64-8.49,4.64l6.13-26.28
	c-7.92,0.95-11.94,27.79-11.94,27.79l-8.85-9.07l4.28,10.2c-31.07-3.76-62.33-5.72-93.62-5.89l4-7.75
	c-1.57-0.55-8.49,4.64-8.49,4.64l6.13-26.28c-7.92,0.95-11.94,27.79-11.94,27.79l-8.85-9.07l4.54,10.8
	c-17.99,0.3-35.95,1.52-53.82,3.66c4.04-12.07,17.77-23.55,17.77-23.55c-10.49,3.12-15.99,8.34-18.86,13.22
	c-0.26-24.9,3.88-49.66,12.23-73.12c0,0-21.67,47.17-18.91,78.83l0.33,5.62c-18.38,2.63-25.6,8.81-25.6,8.81L378.18,577.04z"/>
<circle class="st3" cx="227.17" cy="255.59" r="34.79"/>
<polygon class="st0" points="600.46,475.77 596.38,472.5 619.22,452.11 677.14,452.11 677.14,470.06 639.61,495.34 "/>
<polygon class="st4" points="687.69,463.55 687.69,452.52 680.01,452.52 680.01,455.22 677.14,452.11 658.37,472.5 651.03,477.4
	639.65,560.56 656.82,577.73 696.71,577.73 696.71,473.32 "/>
<rect x="596.38" y="472.5" class="st1" width="61.99" height="105.22"/>
<rect x="620.45" y="552.03" class="st4" width="11.42" height="25.69"/>
<polygon class="st0" points="608.21,559.37 608.21,555.29 603.32,555.29 603.32,559.37 607.8,559.37 "/>
<polygon class="st0" points="607.8,562.64 603.32,562.64 603.32,566.71 608.21,566.71 608.21,562.64 "/>
<rect x="611.47" y="555.29" class="st0" width="4.89" height="4.08"/>
<rect x="611.47" y="562.64" class="st0" width="4.89" height="4.08"/>
<polygon class="st0" points="641.65,559.37 641.65,555.29 636.76,555.29 636.76,559.37 641.25,559.37 "/>
<polygon class="st0" points="641.25,562.64 636.76,562.64 636.76,566.71 641.65,566.71 641.65,562.64 "/>
<rect x="644.92" y="555.29" class="st0" width="4.89" height="4.08"/>
<rect x="644.92" y="562.64" class="st0" width="4.89" height="4.08"/>
<polygon class="st0" points="675.91,477.81 675.91,473.73 671.02,473.73 671.02,477.81 675.5,477.81 "/>
<polygon class="st0" points="675.5,481.07 671.02,481.07 671.02,485.15 675.91,485.15 675.91,481.07 "/>
<rect x="679.17" y="473.73" class="st0" width="4.89" height="4.08"/>
<rect x="679.17" y="481.07" class="st0" width="4.89" height="4.08"/>
<polygon class="st0" points="675.91,500.64 675.91,496.57 671.02,496.57 671.02,500.64 675.5,500.64 "/>
<polygon class="st0" points="675.5,503.91 671.02,503.91 671.02,507.99 675.91,507.99 675.91,503.91 "/>
<rect x="679.17" y="496.57" class="st5" width="4.89" height="4.08"/>
<rect x="679.17" y="503.91" class="st0" width="4.89" height="4.08"/>
<polygon class="st0" points="675.91,523.48 675.91,519.41 671.02,519.41 671.02,523.48 675.5,523.48 "/>
<polygon class="st0" points="675.5,526.75 671.02,526.75 671.02,530.83 675.91,530.83 675.91,526.75 "/>
<rect x="679.17" y="519.41" class="st0" width="4.89" height="4.08"/>
<rect x="679.17" y="526.75" class="st0" width="4.89" height="4.08"/>
<polygon class="st0" points="675.91,546.32 675.91,542.24 671.02,542.24 671.02,546.32 675.5,546.32 "/>
<polygon class="st0" points="675.5,549.59 671.02,549.59 671.02,553.66 675.91,553.66 675.91,549.59 "/>
<rect x="679.17" y="542.24" class="st0" width="4.89" height="4.08"/>
<rect x="679.17" y="549.59" class="st0" width="4.89" height="4.08"/>
<rect x="603.32" y="477.81" class="st0" width="47.31" height="9.79"/>
<rect x="603.32" y="497.38" class="st0" width="47.31" height="9.79"/>
<rect x="603.32" y="516.96" class="st0" width="47.31" height="9.79"/>
<rect x="603.32" y="536.53" class="st0" width="47.31" height="9.79"/>
<polygon class="st0" points="227.37,469.79 268.89,469.79 268.89,459.77 291.79,459.77 291.79,469.79 334.74,469.79 334.74,514.18
	291.79,514.18 291.79,570.01 268.89,570.01 268.89,514.18 227.37,514.18 205.89,489.84 "/>
<path class="st0" d="M349.5,369.84h-1.97c0.01-53.24-43.14-96.4-96.37-96.42c-53.24-0.01-96.4,43.14-96.42,96.37
	c0,0.01,0,0.03,0,0.04h-1.97c0.01-54.32,44.06-98.35,98.38-98.34C305.47,271.51,349.49,315.53,349.5,369.84z"/>
<rect x="201.87" y="270.99" transform="matrix(1 -1.879997e-03 1.879997e-03 1 -0.6024 0.3824)" class="st0" width="2.51" height="99.3"/>
<path class="st6" d="M227.51,283.6c0.23,34.72-24.15,63.03-24.15,63.03s-24.74-27.99-24.97-62.71s24.15-63.03,24.15-63.03
	S227.28,248.87,227.51,283.6z"/>
<path class="st7" d="M227.51,283.6c0.23,34.72-24.15,63.03-24.15,63.03s-24.74-27.99-24.97-62.71s24.15-63.03,24.15-63.03
	S227.28,248.87,227.51,283.6z"/>
<rect x="169.19" y="271.05" transform="matrix(1 -1.879997e-03 1.879997e-03 1 -0.6026 0.321)" class="st0" width="2.51" height="99.3"/>
<path class="st6" d="M194.83,283.66c0.23,34.72-24.15,63.03-24.15,63.03s-24.74-27.99-24.97-62.71s24.15-63.03,24.15-63.03
	S194.6,248.94,194.83,283.66z"/>
<rect x="337.01" y="291.88" class="st0" width="1.99" height="78.61"/>
<path class="st2" d="M357.37,301.9c0.13,27.49-19.21,49.86-19.21,49.86s-19.54-22.19-19.67-49.68s19.21-49.86,19.21-49.86
	S357.24,274.41,357.37,301.9z"/>
<circle class="st0" cx="642.07" cy="291.64" r="68.41"/>
<polygon class="st8" points="648.92,266.17 648.92,294.81 607.29,294.81 599.6,304.03 600.48,294.81 596.73,294.81 596.73,266.17
	"/>
<rect x="630.14" y="276.03" class="st7" width="18.77" height="18.77"/>
<polygon class="st2" points="634.28,280.17 686.46,280.17 686.46,308.81 682.72,308.81 683.6,318.03 675.91,308.81 634.28,308.81
	"/>
<ellipse class="st7" cx="599.92" cy="307.53" rx="11.45" ry="1.12"/>
<ellipse class="st7" cx="683.6" cy="322.49" rx="13.05" ry="1.27"/>
<path class="st0" d="M680.91,21.03h-45.2c-4.49,0-8.39,3.11-9.37,7.5l-22.84,101.31c-0.94,4.18,1.68,8.34,5.87,9.28
	c0.44,0.1,0.88,0.16,1.33,0.18l46.47,2.29c5.15,0.25,9.68-3.35,10.6-8.42l12.96-71.63l0.96,0.28l2.48-13.58l-0.99-0.25L686.78,28
	c0.58-3.22-1.55-6.29-4.77-6.88C681.65,21.06,681.28,21.03,680.91,21.03z"/>
<path class="st2" d="M641.66,23.22h-5.28c-3.12,0-5.82,2.17-6.49,5.23l-21.92,100.48c-0.48,2.22,0.92,4.41,3.14,4.9
	c0.2,0.04,0.4,0.07,0.61,0.09l46.32,3.04c2.71,0.18,5.11-1.7,5.59-4.37l18.71-103.86c0.46-2.54-1.23-4.96-3.77-5.42
	c-0.27-0.05-0.55-0.07-0.83-0.07h-5.01c-1,0-1.87,0.67-2.13,1.63l0,0c-0.23,0.85-1,1.44-1.88,1.44h-23.76
	C643.23,26.28,641.79,24.95,641.66,23.22L641.66,23.22z"/>
<path class="st2" d="M804.91,578.36H488.19V415.08h316.72L804.91,578.36z M490.15,576.39h312.79V417.05H490.15V576.39z"/>
<path class="st2" d="M802.94,371.8H486.22V208.52h316.72V371.8z M488.19,369.84h312.79V210.49H488.19V369.84z"/>
<path class="st0" d="M95.88,720.3c5.37,19.85,23.76,32.14,23.76,32.14s9.69-19.89,4.32-39.74s-23.76-32.14-23.76-32.14
	S90.51,700.45,95.88,720.3z"/>
<path class="st2" d="M103.77,716.04c14.73,14.34,16.53,36.39,16.53,36.39s-22.09-1.21-36.83-15.55s-16.53-36.39-16.53-36.39
	S89.03,701.69,103.77,716.04z"/>
<path class="st9" d="M155.24,443.63l-15.7,1.74c0,0-6.98,31.41,0,73.28s15.7,83.75,15.7,83.75s6.98,136.1,10.47,137.84
	s34.9,12.21,36.64,1.74s1.74-249.51,1.74-249.51l24.43,115.16c0,0,3.49,144.82,10.47,144.82s29.66-1.74,29.66-13.96
	s5.23-172.74,5.23-172.74s-1.74-118.65-8.72-122.14S155.24,443.63,155.24,443.63z"/>
<path class="st9" d="M169.2,735.02c0,0-15.7-1.74-19.19,0s-8.72,13.96,0,20.94s31.41,17.45,38.39,17.45s13.96-3.49,13.96-3.49
	l-3.49-29.66L169.2,735.02z"/>
<path class="st9" d="M238.99,743.74l1.74,24.43c0,0,22.68,3.49,24.43,0s19.19-12.21,20.94-13.96s3.49-20.94-6.98-22.68
	s-13.96,3.49-13.96,3.49L238.99,743.74z"/>
<path class="st10" d="M279.54,236.02c0,0,38.15-24.53,37.26-41.38s-23.88-69.99-23.88-69.99s-17.99-37.4-25.14-22.12
	s9.4,31.56,9.4,31.56l10.68,52.13l-29.03,27.7L279.54,236.02z"/>
<circle class="st10" cx="184.91" cy="169.7" r="31.41"/>
<path class="st10" d="M169.2,188.89l5.23,33.15l38.39-6.98c0,0-1.74-33.15-1.74-36.64S169.2,188.89,169.2,188.89z"/>
<path class="st11" d="M167.46,222.04c0,0,43.62-10.47,48.85-6.98s31.41,6.98,31.41,6.98l29.66,45.37l-8.72,57.58
	c0,0-1.74,92.48,1.74,108.18c3.49,15.7,22.68,17.45-17.45,20.94s-47.11-1.74-75.03,5.23s-50.6-3.49-43.62-10.47
	s19.19-118.65,5.23-129.12s-19.19-64.56-19.19-64.56S167.46,230.77,167.46,222.04z"/>
<path class="st11" d="M242.48,227.28l5.23-5.23l10.47-10.47c0,0,34.02,14.83,32.28,20.07s-13.09,35.77-13.09,35.77l-15.7,5.23
	L242.48,227.28z"/>
<path class="st9" d="M195.87,131.65l-0.32-2.52c-2.13-0.01-4.26,0.32-6.29,0.99c-0.21-1.52-0.07-3.06,0.39-4.52
	c-2.06,0.53-4.02,1.38-5.82,2.53l-1.27-4.59l-17.44,8.6c-6.26,3.09-12.86,6.48-16.44,12.47c-3.99,6.68-3.3,15.27-0.57,22.56
	s7.26,13.74,10.89,20.62c1.38,2.96,3.04,5.78,4.95,8.43c6.58,8.21,19.4,9.87,28.68,4.91c3.43-1.83,6.54-4.56,7.95-8.18
	c0.84-2.16,1.04-4.52,1.59-6.77c1.15-4.69,2.48-14.37,6.29-17.34c1.68-1.31,5,3.02,6.39,1.41c3.57-4.13,2.82-10.5,0.6-15.49
	c-2.13-5.01-4.62-9.86-7.44-14.52C206.81,138.36,195.83,131.35,195.87,131.65z"/>
<path class="st10" d="M92.43,297.07c0,0-41.88,40.13-36.64,61.07s47.11,82.01,47.11,82.01s40.13,20.94,45.37,0
	s-27.92-15.7-27.92-15.7l-26.17-62.81l29.66-41.88L92.43,297.07z"/>
<path class="st11" d="M141.28,258.68l-20.94-3.49c0,0-15.7,17.45-20.94,24.43s-15.7,24.43-15.7,24.43l36.64,26.17l27.92-29.66
	L141.28,258.68z"/>
<g>
	<rect x="242.2" y="35.14" class="st12" width="14.22" height="67.71"/>

		<rect x="242.2" y="35.14" transform="matrix(-1.836970e-16 1 -1 -1.836970e-16 318.3138 -180.3138)" class="st12" width="14.22" height="67.71"/>
</g>
</svg>
