<svg xmlns="http://www.w3.org/2000/svg" xmlns:xlink="http://www.w3.org/1999/xlink" width="728" height="796.38" viewBox="0 0 728 796.38">
  <defs>
    <linearGradient id="linear-gradient" x1="0.5" y1="1" x2="0.5" gradientUnits="objectBoundingBox">
      <stop offset="0" stop-color="#b3b3b3" stop-opacity="0.839"/>
      <stop offset="0.54" stop-color="#b3b3b3" stop-opacity="0.678"/>
      <stop offset="1" stop-color="#b3b3b3" stop-opacity="0.671"/>
    </linearGradient>
    <linearGradient id="linear-gradient-2" x1="0.5" y1="1" x2="0.5" gradientUnits="objectBoundingBox">
      <stop offset="0" stop-color="#b3b3b3" stop-opacity="0.251"/>
      <stop offset="0.54" stop-color="#b3b3b3" stop-opacity="0.102"/>
      <stop offset="1" stop-color="#b3b3b3" stop-opacity="0.051"/>
    </linearGradient>
    <linearGradient id="linear-gradient-3" x1="0.5" y1="1" x2="0.5" gradientUnits="objectBoundingBox">
      <stop offset="0" stop-color="gray" stop-opacity="0.251"/>
      <stop offset="0.54" stop-color="gray" stop-opacity="0.122"/>
      <stop offset="1" stop-color="gray" stop-opacity="0.102"/>
    </linearGradient>
    <linearGradient id="linear-gradient-4" x1="0.5" y1="1" x2="0.5" gradientUnits="objectBoundingBox">
      <stop offset="0" stop-color="#b3b3b3" stop-opacity="0.49"/>
      <stop offset="0.038" stop-color="#b3b3b3" stop-opacity="0.91"/>
      <stop offset="0.54" stop-color="#b3b3b3" stop-opacity="0.42"/>
      <stop offset="1" stop-color="#b3b3b3"/>
    </linearGradient>
  </defs>
  <g id="Group_8" data-name="Group 8" transform="translate(-38 -21)">
    <path id="Path_39" data-name="Path 39" d="M650,694.81c0-51.76,51.11-99.48,102.87-99.48,7.93,0,15.62-2,23-.16.1-2.26.16-15.54.16-17.82V51.81H328l-92,94.5v611.5H659C649.9,743.37,650,713.15,650,694.81Z" transform="translate(-198 -30.81)" fill="url(#linear-gradient)"/>
    <path id="Path_40" data-name="Path 40" d="M642,704.81a117,117,0,0,1,117-117c3.53,0,7,.17,10.48.47V317h-525V745.81H649.39A116.74,116.74,0,0,1,642,704.81Z" transform="translate(-198 -30.81)" fill="#fcfcfc"/>
    <path id="Path_41" data-name="Path 41" d="M533.09,269.19H6.91V94.5L92,5.5H533.09Z" transform="translate(38 21)" fill="#fcfcfc"/>
    <rect id="Rectangle_5" data-name="Rectangle 5" width="142.73" height="10.89" transform="translate(395.59 79.59)" fill="#e0e0e0"/>
    <rect id="Rectangle_6" data-name="Rectangle 6" width="142.73" height="10.89" transform="translate(395.59 119.59)" fill="#e0e0e0"/>
    <rect id="Rectangle_7" data-name="Rectangle 7" width="142.73" height="10.89" transform="translate(395.59 159.59)" fill="#e0e0e0"/>
    <rect id="Rectangle_8" data-name="Rectangle 8" width="142.73" height="10.89" transform="translate(395.59 199.59)" fill="#6c63ff" opacity="0.5"/>
    <rect id="Rectangle_9" data-name="Rectangle 9" width="142.73" height="10.89" transform="translate(395.59 239.59)" fill="#e0e0e0"/>
    <rect id="Rectangle_10" data-name="Rectangle 10" width="142.73" height="10.89" transform="translate(395.59 279.59)" fill="#e0e0e0"/>
    <rect id="Rectangle_11" data-name="Rectangle 11" width="142.73" height="10.89" transform="translate(122.72 364.59)" fill="#7dc2fe" opacity="0.5"/>
    <rect id="Rectangle_12" data-name="Rectangle 12" width="142.73" height="10.89" transform="translate(122.72 408.13)" fill="#e0e0e0"/>
    <rect id="Rectangle_13" data-name="Rectangle 13" width="372.56" height="10.89" transform="translate(122.72 386.36)" fill="#69f0ae" opacity="0.5"/>
    <rect id="Rectangle_14" data-name="Rectangle 14" width="142.73" height="10.89" transform="translate(122.72 469.82)" fill="#7dc2fe" opacity="0.5"/>
    <rect id="Rectangle_15" data-name="Rectangle 15" width="142.73" height="10.89" transform="translate(122.72 513.37)" fill="#e0e0e0"/>
    <rect id="Rectangle_16" data-name="Rectangle 16" width="372.56" height="10.89" transform="translate(122.72 491.59)" fill="#e0e0e0"/>
    <rect id="Rectangle_17" data-name="Rectangle 17" width="142.73" height="10.89" transform="translate(122.72 575.06)" fill="#7dc2fe" opacity="0.5"/>
    <rect id="Rectangle_18" data-name="Rectangle 18" width="142.73" height="10.89" transform="translate(122.72 618.6)" fill="#e0e0e0"/>
    <rect id="Rectangle_19" data-name="Rectangle 19" width="305.41" height="10.89" transform="translate(122.72 596.83)" fill="#e0e0e0"/>
    <path id="Path_42" data-name="Path 42" d="M310,281H50V54l9-11H310Z" transform="translate(38 21)" fill="#7dc2fe"/>
    <path id="Path_43" data-name="Path 43" d="M4.91,96.5H94V3.5Z" transform="translate(38 21)" fill="url(#linear-gradient-2)"/>
    <path id="Path_44" data-name="Path 44" d="M6.91,94.5H92V5.5Z" transform="translate(38 21)" fill="#eee"/>
    <g id="Group_7" data-name="Group 7" transform="translate(38 21)" opacity="0.5">
      <circle id="Ellipse_22" data-name="Ellipse 22" cx="100.13" cy="100.13" r="100.13" transform="translate(527.74 596.12)" fill="url(#linear-gradient-3)"/>
    </g>
    <circle id="Ellipse_23" data-name="Ellipse 23" cx="93.72" cy="93.72" r="93.72" transform="translate(572.15 623.53)" fill="#3ad29f"/>
    <path id="Path_46" data-name="Path 46" d="M755,739.81c0-51.76,51.11-99.48,102.87-99.48,7.93,0,15.62-2,23-.16.1-2.26.16-15.54.16-17.82V96.81H433l-92,94.5v611.5H764C754.9,788.37,755,758.15,755,739.81Z" transform="translate(-198 -30.81)" fill="url(#linear-gradient-4)"/>
    <path id="Path_47" data-name="Path 47" d="M747,749.81a117,117,0,0,1,117-117c3.53,0,7,.17,10.48.47V362h-525V790.81H754.39a116.739,116.739,0,0,1-7.39-41Z" transform="translate(-198 -30.81)" fill="#fff"/>
    <path id="Path_48" data-name="Path 48" d="M638.09,314.19H111.91V139.5L197,50.5H638.09Z" transform="translate(38 21)" fill="#fff"/>
    <rect id="Rectangle_22" data-name="Rectangle 22" width="142.73" height="10.89" transform="translate(500.59 124.59)" fill="#e0e0e0"/>
    <rect id="Rectangle_23" data-name="Rectangle 23" width="142.73" height="10.89" transform="translate(500.59 164.59)" fill="#e0e0e0"/>
    <rect id="Rectangle_24" data-name="Rectangle 24" width="142.73" height="10.89" transform="translate(500.59 204.59)" fill="#e0e0e0"/>
    <rect id="Rectangle_25" data-name="Rectangle 25" width="142.73" height="10.89" transform="translate(500.59 244.59)" fill="#7dc2fe" opacity="0.5"/>
    <rect id="Rectangle_26" data-name="Rectangle 26" width="142.73" height="10.89" transform="translate(500.59 284.59)" fill="#e0e0e0"/>
    <rect id="Rectangle_27" data-name="Rectangle 27" width="142.73" height="10.89" transform="translate(500.59 324.59)" fill="#e0e0e0"/>
    <rect id="Rectangle_28" data-name="Rectangle 28" width="142.73" height="10.89" transform="translate(227.72 409.59)" fill="#7dc2fe" opacity="0.5"/>
    <rect id="Rectangle_29" data-name="Rectangle 29" width="142.73" height="10.89" transform="translate(227.72 453.13)" fill="#e0e0e0"/>
    <rect id="Rectangle_30" data-name="Rectangle 30" width="372.56" height="10.89" transform="translate(227.72 431.36)" fill="#69f0ae" opacity="0.5"/>
    <rect id="Rectangle_31" data-name="Rectangle 31" width="142.73" height="10.89" transform="translate(227.72 514.82)" fill="#7dc2fe" opacity="0.5"/>
    <rect id="Rectangle_32" data-name="Rectangle 32" width="142.73" height="10.89" transform="translate(227.72 558.37)" fill="#e0e0e0"/>
    <rect id="Rectangle_33" data-name="Rectangle 33" width="372.56" height="10.89" transform="translate(227.72 536.59)" fill="#e0e0e0"/>
    <rect id="Rectangle_34" data-name="Rectangle 34" width="142.73" height="10.89" transform="translate(227.72 620.06)" fill="#7dc2fe" opacity="0.5"/>
    <rect id="Rectangle_35" data-name="Rectangle 35" width="142.73" height="10.89" transform="translate(227.72 663.6)" fill="#e0e0e0"/>
    <rect id="Rectangle_36" data-name="Rectangle 36" width="305.41" height="10.89" transform="translate(227.72 641.83)" fill="#e0e0e0"/>
    <path id="Path_49" data-name="Path 49" d="M415,326H155V99l9-11H415Z" transform="translate(38 21)" fill="#7dc2fe"/>
    <path id="Path_50" data-name="Path 50" d="M109.91,141.5H199v-93Z" transform="translate(38 21)" fill="url(#linear-gradient-2)"/>
    <path id="Path_51" data-name="Path 51" d="M111.91,139.5H197v-89Z" transform="translate(38 21)" fill="#fcfcfc"/>
    <path id="Path_52" data-name="Path 52" d="M683.882,694.425l-43.348,57.368h28.877V795h28.877V751.792h29.438Z" transform="translate(-18 -27)" fill="#fff" stroke="#fff" stroke-width="1"/>
  </g>
</svg>
