<svg xmlns="http://www.w3.org/2000/svg" xmlns:xlink="http://www.w3.org/1999/xlink" width="408.578" height="410.754" viewBox="0 0 408.578 410.754"><defs><linearGradient id="a" x1="0.5" y1="1" x2="0.5" gradientUnits="objectBoundingBox"><stop offset="0" stop-color="#b3b3b3" stop-opacity="0.251"/><stop offset="0.54" stop-color="#b3b3b3" stop-opacity="0.102"/><stop offset="1" stop-color="#b3b3b3" stop-opacity="0.051"/></linearGradient><linearGradient id="b" x1="0.5" y1="0.999" x2="0.5" gradientUnits="objectBoundingBox"><stop offset="0" stop-opacity="0.122"/><stop offset="0.55" stop-opacity="0.09"/><stop offset="1" stop-opacity="0.02"/></linearGradient><linearGradient id="c" y1="1" xlink:href="#b"/></defs><g transform="translate(-1652.27 -286.808)"><g transform="translate(1766 400)"><path d="M258.987,61.17,227.3,10.384A21.925,21.925,0,0,0,208.592,0L196,47.428l12.592,47.429h31.689A22.04,22.04,0,0,0,258.987,61.17Zm0,0" transform="translate(-154.868)" fill="#2a2a2a"/><path d="M35.018,10.384,3.329,61.17A22.04,22.04,0,0,0,22.035,94.857H53.724V0A21.925,21.925,0,0,0,35.018,10.384Zm0,0" transform="translate(0 0)" fill="#2a2a2a"/><path d="M236.452,115.244,204.763,64.459A9.406,9.406,0,0,0,196.739,60L181,94.837l15.74,34.837h31.689a9.455,9.455,0,0,0,9.444-9.444,9.284,9.284,0,0,0-1.42-4.986Zm0,0" transform="translate(-143.015 -47.409)" fill="#ffa433"/><path d="M93.109,64.458,61.421,115.244A9.276,9.276,0,0,0,60,120.23a9.455,9.455,0,0,0,9.444,9.444h31.689V60a9.407,9.407,0,0,0-8.024,4.458Zm0,0" transform="translate(-47.409 -47.409)" fill="#ffc43b"/><path d="M251.247,165H248.1L246,179.4l2.1,14.4h3.148Zm0,0" transform="translate(-194.374 -133.924)"/><path d="M241,165h5.107v28.8H241Zm0,0" transform="translate(-192.383 -133.924)" fill="#292c32"/><path d="M251.247,301H248.1l-2.1,3.148,2.1,3.148h3.148Zm0,0" transform="translate(-194.374 -234.832)"/><path d="M241,301h5.107v6.3H241Zm0,0" transform="translate(-192.383 -234.832)" fill="#292c32"/></g><path d="M880.45,410.55a155.89,155.89,0,0,0-223.11-1.68c-59,59.48-60,156.33-2.29,217.07A155.89,155.89,0,0,0,854.95,648L967.64,765.21a7.59,7.59,0,0,0,10.73.21l28.08-27a7.59,7.59,0,0,0,.21-10.73L894,610.49a155.9,155.9,0,0,0-13.55-199.94ZM845.35,599a111.5,111.5,0,1,1,3.1-157.66A111.5,111.5,0,0,1,845.35,599Z" transform="translate(1039.85 -69.976)" fill="url(#a)"/><path d="M685.49,487.6c-12.54,0-12.56,19.49,0,19.49S698.05,487.6,685.49,487.6Z" transform="translate(1039.85 -69.976)" fill="url(#b)"/><path d="M772.9,425.17c-33.75-.76-64.46,16.17-80.79,41.73-5.33,8.34,9.8,15.71,15.1,7.41,13.52-21.16,39.21-34.6,67-33.9,29.12.73,55.62,17.39,69.65,40.51,5.32,8.77,19.27.8,14-7.92C840.8,445,807.76,426,772.9,425.17Z" transform="translate(1039.85 -69.976)" fill="url(#c)"/><path d="M892.68,404.63a155.89,155.89,0,0,0-223.11-1.68c-59,59.48-60,156.33-2.29,217.07a155.89,155.89,0,0,0,199.9,22.05L979.86,759.29a7.59,7.59,0,0,0,10.73.21l28.08-27a7.59,7.59,0,0,0,.21-10.73L906.19,604.56a155.9,155.9,0,0,0-13.51-199.93ZM857.58,593a111.5,111.5,0,1,1,3.1-157.66A111.5,111.5,0,0,1,857.58,593Z" transform="translate(1039.85 -69.976)" fill="#5d5d5d"/><path d="M697.72,481.67c-12.54,0-12.56,19.49,0,19.49S710.28,481.67,697.72,481.67Z" transform="translate(1039.85 -69.976)" fill="#5d5d5d"/><path d="M785.13,419.25c-33.75-.76-64.46,16.17-80.79,41.73-5.33,8.34,9.8,15.71,15.1,7.41,13.52-21.16,39.21-34.6,67-33.9,29.12.73,55.62,17.39,69.65,40.51,5.32,8.77,19.27.8,14-7.92C853,439,820,420,785.13,419.25Z" transform="translate(1039.85 -69.976)" fill="#5d5d5d"/></g></svg>
