<svg xmlns="http://www.w3.org/2000/svg" width="119.189" height="82.995" viewBox="0 0 119.189 82.995"><g transform="translate(-750.075 -195.919)"><path d="M83.319-476.137H48.45l2.905-29.217H80.412l2.906,29.217" transform="translate(742 752.511)" fill="#245685"/><path d="M87.56-473.6H44.206v-2.541H87.56v2.541" transform="translate(742 752.511)" fill="#245685"/><path d="M108.751-547.9H23.01a4.245,4.245,0,0,0-4.234,4.236v54.291a4.246,4.246,0,0,0,4.234,4.235h85.74a4.247,4.247,0,0,0,4.236-4.235v-54.291a4.246,4.246,0,0,0-4.236-4.236" transform="translate(742 752.511)" fill="#245685"/><path d="M47.169-508.264l20.018-15.5,17.757,4.2s19.924-15.175,24.642-18.887v-2.4a2.548,2.548,0,0,0-2.545-2.543H24.718a2.541,2.541,0,0,0-2.541,2.543v35.812l10.463-8.719,14.529,5.489" transform="translate(742 752.511)" fill="#f25a5a"/><path d="M84.944-519.564l-17.757-4.2-20.018,15.5L32.64-513.753l-10.463,8.719v9.628a2.55,2.55,0,0,0,2.541,2.545H107.04a2.557,2.557,0,0,0,2.545-2.545v-43.044c-4.718,3.712-24.217,19.028-24.642,18.887" transform="translate(742 752.511)" fill="#e64642"/><path d="M87.473-519.817a2.7,2.7,0,0,0-2.7-2.7,2.7,2.7,0,0,0-2.7,2.7,2.7,2.7,0,0,0,2.7,2.7,2.7,2.7,0,0,0,2.7-2.7" transform="translate(742 752.511)" fill="#fff"/><path d="M70.232-523.463a2.7,2.7,0,0,0-2.7-2.7,2.7,2.7,0,0,0-2.7,2.7,2.7,2.7,0,0,0,2.7,2.7,2.7,2.7,0,0,0,2.7-2.7" transform="translate(742 752.511)" fill="#fff"/><path d="M49.665-508.447a2.7,2.7,0,0,0-2.7-2.7,2.7,2.7,0,0,0-2.7,2.7,2.7,2.7,0,0,0,2.7,2.7,2.7,2.7,0,0,0,2.7-2.7" transform="translate(742 752.511)" fill="#fff"/><path d="M35.278-513.105a2.7,2.7,0,0,0-2.7-2.7,2.7,2.7,0,0,0-2.7,2.7,2.7,2.7,0,0,0,2.7,2.7,2.7,2.7,0,0,0,2.7-2.7" transform="translate(742 752.511)" fill="#fff"/><path d="M84.812-520.636l-17.393-4.112a1.01,1.01,0,0,0-.853.185L47-509.412,33-514.7a1.007,1.007,0,0,0-1,.164l-9.822,8.02v2.383a.993.993,0,0,0,.544-.212L32.829-512.6l13.982,5.283a1.017,1.017,0,0,0,.979-.147l19.635-15.2,17.2,4.06c.628.208.978.308,24.962-18.167v-2.559C99.737-531.748,86.954-522,84.812-520.636" transform="translate(742 752.511)" fill="#fff"/><path d="M20.187-540.9a5.383,5.383,0,0,1,6.718-3.579,5.383,5.383,0,0,1,3.579,6.719,5.383,5.383,0,0,1-6.718,3.579A5.383,5.383,0,0,1,20.187-540.9Zm2.462,17.773,1.7-3.3a.942.942,0,0,1,.184-.329,12.472,12.472,0,0,0,2.672-.113.939.939,0,0,1,.695.481l2.305,2.916a.783.783,0,0,0,1.059.323h0l3.305-1.761a.782.782,0,0,0,.323-1.059l-1.133-3.539a.937.937,0,0,1-.1-.365,12.528,12.528,0,0,0,1.808-1.967A.939.939,0,0,1,36.3-532l3.692.432a.783.783,0,0,0,.977-.52h0l1.092-3.583a.783.783,0,0,0-.52-.977l-3.3-1.7a.945.945,0,0,1-.329-.184,12.478,12.478,0,0,0-.114-2.672.944.944,0,0,1,.482-.695l2.916-2.305a.782.782,0,0,0,.322-1.059h0l-1.761-3.305a.783.783,0,0,0-1.058-.323l-3.539,1.133a.922.922,0,0,1-.365.1,12.485,12.485,0,0,0-1.968-1.808.941.941,0,0,1-.151-.832l.431-3.692a.783.783,0,0,0-.52-.977h0L29-556.053a.782.782,0,0,0-.977.52l-1.7,3.3a.933.933,0,0,1-.184.329,12.472,12.472,0,0,0-2.672.113.939.939,0,0,1-.695-.481l-2.305-2.916a.782.782,0,0,0-1.059-.321h0l-3.305,1.76a.783.783,0,0,0-.323,1.059l1.133,3.54a.933.933,0,0,1,.1.364,12.535,12.535,0,0,0-1.808,1.968.943.943,0,0,1-.832.151l-3.692-.432a.783.783,0,0,0-.977.521l-1.092,3.581a.783.783,0,0,0,.52.977l3.3,1.7a.945.945,0,0,1,.329.184,12.475,12.475,0,0,0,.114,2.672.943.943,0,0,1-.482.695l-2.916,2.305A.783.783,0,0,0,9.16-533.4h0l1.761,3.305a.783.783,0,0,0,1.058.323l3.54-1.133a.942.942,0,0,1,.364-.1,12.557,12.557,0,0,0,1.968,1.809.94.94,0,0,1,.151.832l-.431,3.692a.783.783,0,0,0,.52.976h0l3.582,1.092a.781.781,0,0,0,.977-.52" transform="translate(742 752.511)" fill="#fff" stroke="#707070" stroke-width="1"/><path d="M113.6-509.475a3.836,3.836,0,0,1,4.639,2.815,3.836,3.836,0,0,1-2.815,4.637,3.836,3.836,0,0,1-4.638-2.815A3.836,3.836,0,0,1,113.6-509.475Zm-10,7.977,2.644-.16.268-.007a8.955,8.955,0,0,0,1.042,1.6.667.667,0,0,1-.042.6l-.948,2.475a.558.558,0,0,0,.188.767h0l2.282,1.384a.558.558,0,0,0,.766-.187l1.757-1.983.186-.2a8.948,8.948,0,0,0,1.864.392.672.672,0,0,1,.4.456l1.079,2.419a.557.557,0,0,0,.675.409h0l2.593-.635a.558.558,0,0,0,.409-.675l-.16-2.643-.007-.269a8.873,8.873,0,0,0,1.6-1.043.672.672,0,0,1,.6.043l2.473.948a.558.558,0,0,0,.767-.188h0l1.384-2.281a.558.558,0,0,0-.188-.767l-1.982-1.756-.2-.187a8.948,8.948,0,0,0,.392-1.864.672.672,0,0,1,.455-.4l2.42-1.079a.558.558,0,0,0,.409-.675h0l-.634-2.592a.557.557,0,0,0-.675-.409l-2.644.16-.269.007a8.858,8.858,0,0,0-1.042-1.6.672.672,0,0,1,.043-.6l.947-2.475a.557.557,0,0,0-.187-.765h0l-2.282-1.385a.557.557,0,0,0-.766.188l-1.756,1.983-.186.195a8.957,8.957,0,0,0-1.865-.392.671.671,0,0,1-.4-.455l-1.079-2.42a.558.558,0,0,0-.674-.409l-2.593.635a.558.558,0,0,0-.409.675l.16,2.644.007.268a8.909,8.909,0,0,0-1.6,1.043.671.671,0,0,1-.6-.043l-2.474-.948a.559.559,0,0,0-.766.188l-1.385,2.283a.557.557,0,0,0,.187.765l1.982,1.757.2.185a8.931,8.931,0,0,0-.392,1.864.671.671,0,0,1-.455.4l-2.419,1.079a.559.559,0,0,0-.409.675h0l.634,2.593a.559.559,0,0,0,.675.409" transform="translate(742 752.511)" fill="#fff" stroke="#707070" stroke-width="1"/></g></svg>
