<svg xmlns="http://www.w3.org/2000/svg" width="98.393" height="97.641" viewBox="0 0 98.393 97.641"><g transform="translate(-1058.208 -486.671)"><path d="M317.586-216.4l0-2.225,11.595-5.473v2.195l-11.592,5.5" transform="translate(742 752.511)" fill="#fff"/><path d="M317.586-216.4l0-2.225h11.465v2.225H317.586" transform="translate(742 752.511)" fill="#1c4162"/><path d="M329.047-218.627H317.582l11.595-5.473Z" transform="translate(742 752.511)" fill="#245685"/><path d="M320.146-215.023l0-2.232h36.3l0,2.232h-36.3" transform="translate(742 752.511)" fill="#fff"/><path d="M320.071-213.4l0-2.243h36.455l0,2.243H320.071" transform="translate(742 752.511)" fill="#1c4162"/><path d="M356.522-215.641H320.067l.076-1.615h36.3l.076,1.615" transform="translate(742 752.511)" fill="#245685"/><path d="M319.989-211.619l0-2.252H356.6l0,2.252H319.988" transform="translate(742 752.511)" fill="#fff"/><path d="M356.68-212.227H319.909l.077-1.644H356.6l.077,1.644" transform="translate(742 752.511)" fill="#245685"/><path d="M319.913-209.967l0-2.26H356.68l0,2.26H319.913" transform="translate(742 752.511)" fill="#1c4162"/><path d="M319.829-208.159l0-2.272h36.937l0,2.272H319.829" transform="translate(742 752.511)" fill="#fff"/><path d="M319.751-206.475l0-2.28h37.095l0,2.28H319.751" transform="translate(742 752.511)" fill="#1c4162"/><path d="M356.842-208.755H319.747l.079-1.676h36.937l.079,1.676" transform="translate(742 752.511)" fill="#245685"/><path d="M319.666-204.635l0-2.291h37.264l0,2.291H319.666" transform="translate(742 752.511)" fill="#fff"/><path d="M357.006-205.221H319.583l.08-1.705h37.264l.079,1.705" transform="translate(742 752.511)" fill="#245685"/><path d="M319.587-202.921l0-2.3h37.423l0,2.3H319.587" transform="translate(742 752.511)" fill="#1c4162"/><path d="M319.5-201.049l0-2.311h37.6l0,2.311H319.5" transform="translate(742 752.511)" fill="#fff"/><path d="M319.419-199.3l0-2.32h37.757l0,2.32H319.419" transform="translate(742 752.511)" fill="#1c4062"/><path d="M357.174-201.624H319.417l.08-1.736h37.6l.081,1.736" transform="translate(742 752.511)" fill="#245685"/><path d="M319.331-197.4l0-2.331h37.935l0,2.331H319.331" transform="translate(742 752.511)" fill="#fff"/><path d="M357.343-197.965h-38.1l.081-1.764h37.935l.081,1.764" transform="translate(742 752.511)" fill="#245685"/><path d="M319.25-195.625l0-2.34h38.1l0,2.34H319.25" transform="translate(742 752.511)" fill="#1c4062"/><path d="M356.446-217.255h-36.3l-.076,1.615h36.455Zm.816,17.527H319.327l-.081,1.764h38.1Zm-.659-14.143H319.986l-.077,1.644H356.68Zm.16,3.44H319.826l-.079,1.676h37.095Zm.164,3.505H319.663l-.08,1.705h37.423Zm.165,3.567H319.5l-.08,1.736h37.757Zm-40.884,10.521,1.373-25.789h11.465l.129-5.473h29.54l1.664,31.263H316.209" transform="translate(742 752.511)" fill="#70cfc5"/><path d="M316.213-190.469l0-2.369H360.38l0,2.369H316.213" transform="translate(742 752.511)" fill="#fff"/><path d="M317.586-221.591l0-2.227,11.595-5.472v2.195l-11.592,5.5" transform="translate(742 752.511)" fill="#fff"/><path d="M317.586-221.591l0-2.227h11.465v2.227H317.586" transform="translate(742 752.511)" fill="#1c4162"/><path d="M329.047-223.818H317.582l11.595-5.472Z" transform="translate(742 752.511)" fill="#245685"/><path d="M320.146-220.213l0-2.233h36.3l0,2.233h-36.3" transform="translate(742 752.511)" fill="#fff"/><path d="M320.071-218.589l0-2.241h36.455l0,2.241H320.071" transform="translate(742 752.511)" fill="#1c4162"/><path d="M356.522-220.83H320.067l.076-1.616h36.3l.076,1.616" transform="translate(742 752.511)" fill="#245685"/><path d="M319.989-216.809l0-2.252H356.6l0,2.252H319.988" transform="translate(742 752.511)" fill="#fff"/><path d="M356.68-217.417H319.909l.077-1.644H356.6l.077,1.644" transform="translate(742 752.511)" fill="#245685"/><path d="M319.913-215.157l0-2.26H356.68l0,2.26H319.913" transform="translate(742 752.511)" fill="#1c4162"/><path d="M319.829-213.35l0-2.271h36.937l0,2.271H319.829" transform="translate(742 752.511)" fill="#fff"/><path d="M319.751-211.665l0-2.28h37.095l0,2.28H319.751" transform="translate(742 752.511)" fill="#1c4162"/><path d="M356.842-213.945H319.747l.079-1.676h36.937l.079,1.676" transform="translate(742 752.511)" fill="#245685"/><path d="M319.666-209.826l0-2.289h37.264l0,2.289H319.666" transform="translate(742 752.511)" fill="#fff"/><path d="M357.006-210.41H319.583l.08-1.705h37.264l.079,1.705" transform="translate(742 752.511)" fill="#245685"/><path d="M319.587-208.11l0-2.3h37.423l0,2.3H319.587" transform="translate(742 752.511)" fill="#1c4162"/><path d="M319.5-206.238l0-2.311h37.6l0,2.311H319.5" transform="translate(742 752.511)" fill="#fff"/><path d="M319.419-204.493l0-2.32h37.757l0,2.32H319.419" transform="translate(742 752.511)" fill="#1c4062"/><path d="M357.174-206.813H319.417l.08-1.736h37.6l.081,1.736" transform="translate(742 752.511)" fill="#245685"/><path d="M319.331-202.588l0-2.331h37.935l0,2.331H319.331" transform="translate(742 752.511)" fill="#fff"/><path d="M357.343-203.154h-38.1l.081-1.764h37.935l.081,1.764" transform="translate(742 752.511)" fill="#245685"/><path d="M319.25-200.814l0-2.34h38.1l0,2.34H319.25" transform="translate(742 752.511)" fill="#1c4062"/><path d="M356.446-222.446h-36.3l-.076,1.616h36.455Zm.816,17.528H319.327l-.081,1.764h38.1Zm-.659-14.143H319.986l-.077,1.644H356.68Zm.16,3.44H319.826l-.079,1.676h37.095Zm.164,3.505H319.663l-.08,1.705h37.423Zm.165,3.567H319.5l-.08,1.736h37.757Zm-40.884,10.521,1.373-25.791h11.465l.129-5.472h29.54l1.664,31.263H316.209" transform="translate(742 752.511)" fill="#70cfc5"/><path d="M316.213-195.66l0-2.368H360.38l0,2.368H316.213" transform="translate(742 752.511)" fill="#fff"/><path d="M317.586-226.781l0-2.227,11.595-5.472v2.195l-11.592,5.5" transform="translate(742 752.511)" fill="#fff"/><path d="M317.586-226.781l0-2.227h11.465v2.227H317.586" transform="translate(742 752.511)" fill="#1c4162"/><path d="M329.047-229.007H317.582l11.595-5.472Z" transform="translate(742 752.511)" fill="#245685"/><path d="M320.146-225.4l0-2.233h36.3l0,2.233h-36.3" transform="translate(742 752.511)" fill="#fff"/><path d="M320.071-223.778l0-2.241h36.455l0,2.241H320.071" transform="translate(742 752.511)" fill="#1c4162"/><path d="M356.522-226.019H320.067l.076-1.616h36.3l.076,1.616" transform="translate(742 752.511)" fill="#245685"/><path d="M319.989-222l0-2.252H356.6l0,2.252H319.988" transform="translate(742 752.511)" fill="#fff"/><path d="M356.68-222.607H319.909l.077-1.643H356.6l.077,1.643" transform="translate(742 752.511)" fill="#245685"/><path d="M319.913-220.346l0-2.261H356.68l0,2.261H319.913" transform="translate(742 752.511)" fill="#1c4162"/><path d="M319.829-218.539l0-2.271h36.937l0,2.271H319.829" transform="translate(742 752.511)" fill="#fff"/><path d="M319.751-216.854l0-2.28h37.095l0,2.28H319.751" transform="translate(742 752.511)" fill="#1c4162"/><path d="M356.842-219.134H319.747l.079-1.676h36.937l.079,1.676" transform="translate(742 752.511)" fill="#245685"/><path d="M319.666-215.015l0-2.289h37.264l0,2.289H319.666" transform="translate(742 752.511)" fill="#fff"/><path d="M357.006-215.6H319.583l.08-1.705h37.264l.079,1.705" transform="translate(742 752.511)" fill="#245685"/><path d="M319.587-213.3l0-2.3h37.423l0,2.3H319.587" transform="translate(742 752.511)" fill="#1c4162"/><path d="M319.5-211.427l0-2.311h37.6l0,2.311H319.5" transform="translate(742 752.511)" fill="#fff"/><path d="M319.419-209.682l0-2.32h37.757l0,2.32H319.419" transform="translate(742 752.511)" fill="#1c4062"/><path d="M357.174-212H319.417l.08-1.736h37.6l.081,1.736" transform="translate(742 752.511)" fill="#245685"/><path d="M319.331-207.777l0-2.331h37.935l0,2.331H319.331" transform="translate(742 752.511)" fill="#fff"/><path d="M357.343-208.343h-38.1l.081-1.764h37.935l.081,1.764" transform="translate(742 752.511)" fill="#245685"/><path d="M319.25-206l0-2.34h38.1l0,2.34H319.25" transform="translate(742 752.511)" fill="#1c4062"/><path d="M356.446-227.635h-36.3l-.076,1.616h36.455Zm.816,17.528H319.327l-.081,1.764h38.1ZM356.6-224.25H319.986l-.077,1.643H356.68Zm.16,3.44H319.826l-.079,1.676h37.095Zm.164,3.505H319.663l-.08,1.705h37.423Zm.165,3.567H319.5l-.08,1.736h37.757Zm-40.884,10.521,1.373-25.791h11.465l.129-5.472h29.54l1.664,31.263H316.209" transform="translate(742 752.511)" fill="#70cfc5"/><path d="M316.213-200.849l0-2.368H360.38l0,2.368H316.213" transform="translate(742 752.511)" fill="#fff"/><path d="M317.586-231.971l0-2.225,11.595-5.472v2.195l-11.592,5.5" transform="translate(742 752.511)" fill="#fff"/><path d="M317.586-231.971l0-2.225h11.465v2.225H317.586" transform="translate(742 752.511)" fill="#1c4162"/><path d="M329.047-234.2H317.582l11.595-5.472Z" transform="translate(742 752.511)" fill="#245685"/><path d="M320.146-230.591l0-2.233h36.3l0,2.233h-36.3" transform="translate(742 752.511)" fill="#fff"/><path d="M320.071-228.967l0-2.241h36.455l0,2.241H320.071" transform="translate(742 752.511)" fill="#1c4162"/><path d="M356.522-231.209H320.067l.076-1.616h36.3l.076,1.616" transform="translate(742 752.511)" fill="#245685"/><path d="M319.989-227.187l0-2.252H356.6l0,2.252H319.988" transform="translate(742 752.511)" fill="#fff"/><path d="M356.68-227.8H319.909l.077-1.643H356.6l.077,1.643" transform="translate(742 752.511)" fill="#245685"/><path d="M319.913-225.535l0-2.261H356.68l0,2.261H319.913" transform="translate(742 752.511)" fill="#1c4162"/><path d="M319.829-223.729l0-2.271h36.937l0,2.271H319.829" transform="translate(742 752.511)" fill="#fff"/><path d="M319.751-222.043l0-2.28h37.095l0,2.28H319.751" transform="translate(742 752.511)" fill="#1c4162"/><path d="M356.842-224.323H319.747l.079-1.676h36.937l.079,1.676" transform="translate(742 752.511)" fill="#245685"/><path d="M319.666-220.2l0-2.289h37.264l0,2.289H319.666" transform="translate(742 752.511)" fill="#fff"/><path d="M357.006-220.789H319.583l.08-1.705h37.264l.079,1.705" transform="translate(742 752.511)" fill="#245685"/><path d="M319.587-218.489l0-2.3h37.423l0,2.3H319.587" transform="translate(742 752.511)" fill="#1c4162"/><path d="M319.5-216.618l0-2.309h37.6l0,2.309H319.5" transform="translate(742 752.511)" fill="#fff"/><path d="M319.419-214.871l0-2.32h37.757l0,2.32H319.419" transform="translate(742 752.511)" fill="#1c4062"/><path d="M357.174-217.191H319.417l.08-1.736h37.6l.081,1.736" transform="translate(742 752.511)" fill="#245685"/><path d="M319.331-212.966l0-2.331h37.935l0,2.331H319.331" transform="translate(742 752.511)" fill="#fff"/><path d="M357.343-213.533h-38.1l.081-1.764h37.935l.081,1.764" transform="translate(742 752.511)" fill="#245685"/><path d="M319.25-211.193l0-2.34h38.1l0,2.34H319.25" transform="translate(742 752.511)" fill="#1c4062"/><path d="M356.446-232.825h-36.3l-.076,1.616h36.455Zm.816,17.528H319.327l-.081,1.764h38.1Zm-.659-14.143H319.986l-.077,1.643H356.68Zm.16,3.44H319.826l-.079,1.676h37.095Zm.164,3.505H319.663l-.08,1.705h37.423Zm.165,3.567H319.5l-.08,1.736h37.757Zm-40.884,10.521,1.373-25.791h11.465l.129-5.472h29.54l1.664,31.263H316.209" transform="translate(742 752.511)" fill="#70cfc5"/><path d="M316.213-206.038l0-2.368H360.38l0,2.368H316.213" transform="translate(742 752.511)" fill="#fff"/><path d="M317.586-237.161l0-2.225,11.595-5.472v2.195l-11.592,5.5" transform="translate(742 752.511)" fill="#fff"/><path d="M317.586-237.161l0-2.225h11.465v2.225H317.586" transform="translate(742 752.511)" fill="#1c4162"/><path d="M329.047-239.386H317.582l11.595-5.472Z" transform="translate(742 752.511)" fill="#245685"/><path d="M320.146-235.781l0-2.233h36.3l0,2.233h-36.3" transform="translate(742 752.511)" fill="#fff"/><path d="M320.071-234.157l0-2.241h36.455l0,2.241H320.071" transform="translate(742 752.511)" fill="#1c4162"/><path d="M356.522-236.4H320.067l.076-1.616h36.3l.076,1.616" transform="translate(742 752.511)" fill="#245685"/><path d="M319.989-232.377l0-2.252H356.6l0,2.252H319.988" transform="translate(742 752.511)" fill="#fff"/><path d="M356.68-232.986H319.909l.077-1.643H356.6l.077,1.643" transform="translate(742 752.511)" fill="#245685"/><path d="M319.913-230.725l0-2.261H356.68l0,2.261H319.913" transform="translate(742 752.511)" fill="#1c4162"/><path d="M319.829-228.918l0-2.271h36.937l0,2.271H319.829" transform="translate(742 752.511)" fill="#fff"/><path d="M319.751-227.233l0-2.28h37.095l0,2.28H319.751" transform="translate(742 752.511)" fill="#1c4162"/><path d="M356.842-229.513H319.747l.079-1.676h36.937l.079,1.676" transform="translate(742 752.511)" fill="#245685"/><path d="M319.666-225.394l0-2.291h37.264l0,2.291H319.666" transform="translate(742 752.511)" fill="#fff"/><path d="M357.006-225.978H319.583l.08-1.707h37.264l.079,1.707" transform="translate(742 752.511)" fill="#245685"/><path d="M319.587-223.678l0-2.3h37.423l0,2.3H319.587" transform="translate(742 752.511)" fill="#1c4162"/><path d="M319.5-221.807l0-2.309h37.6l0,2.309H319.5" transform="translate(742 752.511)" fill="#fff"/><path d="M319.419-220.061l0-2.32h37.757l0,2.32H319.419" transform="translate(742 752.511)" fill="#1c4062"/><path d="M357.174-222.381H319.417l.08-1.736h37.6l.081,1.736" transform="translate(742 752.511)" fill="#245685"/><path d="M319.331-218.155l0-2.331h37.935l0,2.331H319.331" transform="translate(742 752.511)" fill="#fff"/><path d="M357.343-218.722h-38.1l.081-1.764h37.935l.081,1.764" transform="translate(742 752.511)" fill="#245685"/><path d="M319.25-216.382l0-2.34h38.1l0,2.34H319.25" transform="translate(742 752.511)" fill="#1c4062"/><path d="M356.446-238.014h-36.3l-.076,1.616h36.455Zm.816,17.528H319.327l-.081,1.764h38.1Zm-.659-14.143H319.986l-.077,1.643H356.68Zm.16,3.44H319.826l-.079,1.676h37.095Zm.164,3.5H319.663l-.08,1.707h37.423Zm.165,3.568H319.5l-.08,1.736h37.757ZM316.209-213.6l1.373-25.791h11.465l.129-5.472h29.54L360.38-213.6H316.209" transform="translate(742 752.511)" fill="#70cfc5"/><path d="M316.213-211.227l0-2.368H360.38l0,2.368H316.213" transform="translate(742 752.511)" fill="#fff"/><path d="M338.962-190.48h-1.333v-2h1.333v2" transform="translate(742 752.511)" fill="#fff"/><path d="M338.962-182.634h-1.333v-3.924h1.333Zm0,7.845h-1.333v-3.923h1.333v3.923" transform="translate(742 752.511)"/><path d="M340.3-168.2h-2.667v-2.667h1.333v1.333H340.3v1.333" transform="translate(742 752.511)"/><path d="M347.915-168.2H344.1v-1.333h3.811Zm7.62,0h-3.811v-1.333h3.811Zm7.62,0h-3.811v-1.333h3.811Zm7.62,0h-3.809v-1.333h3.809Zm7.62,0h-3.809v-1.333H378.4Zm7.62,0h-3.809v-1.333h3.809v1.333" transform="translate(742 752.511)"/><path d="M392.491-168.2h-2.667v-1.333h1.333v-1.333h1.333v2.667" transform="translate(742 752.511)"/><path d="M392.491-174.177h-1.333v-3.311h1.333v3.311" transform="translate(742 752.511)"/><path d="M392.491-180.8h-1.333v-2h1.333v2" transform="translate(742 752.511)"/><path d="M395.148-181.825l-3.323-5.757-3.325,5.757Z" transform="translate(742 752.511)"/><path d="M392.491-248.327h-1.333v-2h1.333v2" transform="translate(742 752.511)" fill="#fff"/><path d="M392.491-254.61h-1.333v-4.281h1.333v4.281" transform="translate(742 752.511)"/><path d="M392.491-263.173h-1.333v-1.333h-1.333v-1.333h2.667v2.667" transform="translate(742 752.511)"/><path d="M347.915-264.506H344.1v-1.333h3.811Zm7.62,0h-3.811v-1.333h3.811Zm7.62,0h-3.811v-1.333h3.811Zm7.62,0h-3.809v-1.333h3.809Zm7.62,0h-3.809v-1.333H378.4Zm7.62,0h-3.809v-1.333h3.809v1.333" transform="translate(742 752.511)"/><path d="M338.962-263.173h-1.333v-2.667H340.3v1.333h-1.333v1.333" transform="translate(742 752.511)"/><path d="M338.962-256.551h-1.333v-3.311h1.333v3.311" transform="translate(742 752.511)"/><path d="M338.962-251.241h-1.333v-2h1.333v2" transform="translate(742 752.511)"/><path d="M334.971-252.213l3.323,5.756,3.325-5.756Z" transform="translate(742 752.511)"/><path d="M369.048-207.086v7.384c0,6.111,10.2,11.071,22.779,11.071S414.6-193.592,414.6-199.7v-7.384H369.048" transform="translate(742 752.511)" fill="#245685"/><path d="M414.6-207.086c0,6.115-10.195,11.072-22.775,11.072s-22.779-4.957-22.779-11.072,10.2-11.075,22.779-11.075S414.6-213.2,414.6-207.086" transform="translate(742 752.511)" fill="#1b3c60"/><path d="M369.048-216.03v7.384c0,6.112,10.2,11.071,22.779,11.071s22.775-4.959,22.775-11.071v-7.384H369.048" transform="translate(742 752.511)" fill="#245685"/><path d="M414.6-216.03c0,6.116-10.195,11.073-22.775,11.073s-22.779-4.957-22.779-11.073,10.2-11.073,22.779-11.073,22.775,4.96,22.775,11.073" transform="translate(742 752.511)" fill="#1b3c60"/><path d="M369.048-224.973v7.384c0,6.111,10.2,11.071,22.779,11.071s22.775-4.96,22.775-11.071v-7.384H369.048" transform="translate(742 752.511)" fill="#245685"/><path d="M414.6-224.973c0,6.116-10.195,11.072-22.775,11.072s-22.779-4.956-22.779-11.072,10.2-11.073,22.779-11.073,22.775,4.959,22.775,11.073" transform="translate(742 752.511)" fill="#1b3c60"/><path d="M369.048-233.915v7.384c0,6.111,10.2,11.071,22.779,11.071s22.775-4.96,22.775-11.071v-7.384H369.048" transform="translate(742 752.511)" fill="#245685"/><path d="M414.6-233.915c0,6.115-10.195,11.072-22.775,11.072s-22.779-4.957-22.779-11.072,10.2-11.075,22.779-11.075,22.775,4.96,22.775,11.075" transform="translate(742 752.511)" fill="#1b3c60"/><path d="M369.048-242.859v7.384c0,6.112,10.2,11.071,22.779,11.071s22.775-4.959,22.775-11.071v-7.384H369.048" transform="translate(742 752.511)" fill="#245685"/><path d="M414.6-242.859c0,6.116-10.195,11.072-22.775,11.072s-22.779-4.956-22.779-11.072,10.2-11.073,22.779-11.073,22.775,4.96,22.775,11.073" transform="translate(742 752.511)" fill="#1b3c60"/></g></svg>
