<svg xmlns="http://www.w3.org/2000/svg" width="99.876" height="92.15" viewBox="0 0 99.876 92.15"><g transform="translate(-907.513 -347.952)"><path d="M171.685-349.98h-4v-1.333h4Zm8,0h-4v-1.333h4Zm8,0h-4v-1.333h4Zm8,0h-4v-1.333h4Zm8,0h-4v-1.333h4Zm8,0h-4v-1.333h4Zm8,0h-4v-1.333h4Zm8,0h-4v-1.333h4Zm8,0h-4v-1.333h4Zm8,0h-4v-1.333h4Zm8,0h-4v-1.333h4Zm8,0h-4v-1.333h4Zm1.328,2.613-.905-.98,2.936-2.716.905.979Zm-88.529,2.4-2.936-2.716.907-.98,2.935,2.717Zm82.657,3.033-.905-.979,2.936-2.717.905.979Zm-76.786,2.4-2.935-2.716.905-.98,2.936,2.717Zm70.915,3.033-.905-.979L251.3-340.2l.905.98Zm-65.043,2.4-2.935-2.717.905-.979,2.936,2.716Zm59.172,3.032-.907-.979,2.936-2.717.907.98Zm-53.3,2.4-2.937-2.717.905-.979L191-329.646Zm47.427,3.033-.905-.98,2.935-2.716.907.979Zm-41.556,2.4-2.936-2.717.905-.979,2.936,2.717Zm35.685,3.033-.907-.98,2.936-2.716.905.979Zm-29.813,2.4-2.936-2.717.905-.979,2.936,2.717Zm7.264,3.211h-3.795l-.533-.493.905-.98.151.14h3.272Zm8,0h-4v-1.333h4Zm8,0h-4v-1.333h3.963l2.744-2.54.905.979-2.935,2.717-.677-.731v.908" transform="translate(742 752.511)"/><path d="M185.573-400.1h-4v-1.333h4Zm8,0h-4v-1.333h4Zm8,0h-4v-1.333h4Zm8,0h-4v-1.333h4Zm8,0h-4v-1.333h4Zm8,0h-4v-1.333h4Zm8,0h-4v-1.333h4Zm8,0h-4v-1.333h4Zm8,0h-4v-1.333h4v1.333" transform="translate(742 752.511)"/><path d="M221.319-357.727v7.144c0,5.912,9.864,10.709,22.037,10.709s22.032-4.8,22.032-10.709v-7.144H221.319" transform="translate(742 752.511)" fill="#f25a5a"/><path d="M265.389-357.727c0,5.916-9.861,10.712-22.032,10.712s-22.037-4.8-22.037-10.712,9.864-10.713,22.037-10.713,22.032,4.8,22.032,10.713" transform="translate(742 752.511)" fill="#e64642"/><path d="M221.319-366.379v7.144c0,5.912,9.864,10.709,22.037,10.709s22.032-4.8,22.032-10.709v-7.144H221.319" transform="translate(742 752.511)" fill="#f25a5a"/><path d="M265.389-366.379c0,5.916-9.861,10.712-22.032,10.712s-22.037-4.8-22.037-10.712,9.864-10.713,22.037-10.713,22.032,4.8,22.032,10.713" transform="translate(742 752.511)" fill="#e64642"/><path d="M221.319-375.031v7.144c0,5.912,9.864,10.709,22.037,10.709s22.032-4.8,22.032-10.709v-7.144H221.319" transform="translate(742 752.511)" fill="#f25a5a"/><path d="M265.389-375.031c0,5.916-9.861,10.712-22.032,10.712s-22.037-4.8-22.037-10.712,9.864-10.713,22.037-10.713,22.032,4.8,22.032,10.713" transform="translate(742 752.511)" fill="#e64642"/><path d="M221.319-383.683v7.144c0,5.912,9.864,10.709,22.037,10.709s22.032-4.8,22.032-10.709v-7.144H221.319" transform="translate(742 752.511)" fill="#f25a5a"/><path d="M265.389-383.683c0,5.916-9.861,10.712-22.032,10.712s-22.037-4.8-22.037-10.712,9.864-10.713,22.037-10.713,22.032,4.8,22.032,10.713" transform="translate(742 752.511)" fill="#e64642"/><path d="M221.319-392.335v7.144c0,5.912,9.864,10.709,22.037,10.709s22.032-4.8,22.032-10.709v-7.144H221.319" transform="translate(742 752.511)" fill="#f25a5a"/><path d="M265.389-392.335c0,5.916-9.861,10.712-22.032,10.712s-22.037-4.8-22.037-10.712,9.864-10.713,22.037-10.713,22.032,4.8,22.032,10.713" transform="translate(742 752.511)" fill="#e64642"/><path d="M165.513-359.238v7.144c0,5.912,9.864,10.709,22.037,10.709s22.033-4.8,22.033-10.709v-7.144H165.513" transform="translate(742 752.511)" fill="#70cfc5"/><path d="M209.583-359.238c0,5.916-9.863,10.712-22.033,10.712s-22.037-4.8-22.037-10.712,9.864-10.713,22.037-10.713,22.033,4.8,22.033,10.713" transform="translate(742 752.511)" fill="#49a19b"/><path d="M165.513-367.89v7.144c0,5.912,9.864,10.709,22.037,10.709s22.033-4.8,22.033-10.709v-7.144H165.513" transform="translate(742 752.511)" fill="#70cfc5"/><path d="M209.583-367.89c0,5.916-9.863,10.712-22.033,10.712s-22.037-4.8-22.037-10.712S175.377-378.6,187.55-378.6s22.033,4.8,22.033,10.713" transform="translate(742 752.511)" fill="#49a19b"/><path d="M165.513-376.542v7.144c0,5.912,9.864,10.709,22.037,10.709s22.033-4.8,22.033-10.709v-7.144H165.513" transform="translate(742 752.511)" fill="#70cfc5"/><path d="M209.583-376.542c0,5.916-9.863,10.712-22.033,10.712s-22.037-4.8-22.037-10.712,9.864-10.713,22.037-10.713,22.033,4.8,22.033,10.713" transform="translate(742 752.511)" fill="#49a19b"/><path d="M165.513-385.194v7.144c0,5.912,9.864,10.709,22.037,10.709s22.033-4.8,22.033-10.709v-7.144H165.513" transform="translate(742 752.511)" fill="#70cfc5"/><path d="M209.583-385.194c0,5.917-9.863,10.712-22.033,10.712s-22.037-4.795-22.037-10.712,9.864-10.713,22.037-10.713,22.033,4.8,22.033,10.713" transform="translate(742 752.511)" fill="#49a19b"/><path d="M165.513-393.846v7.144c0,5.912,9.864,10.711,22.037,10.711s22.033-4.8,22.033-10.711v-7.144H165.513" transform="translate(742 752.511)" fill="#70cfc5"/><path d="M209.583-393.846c0,5.917-9.863,10.712-22.033,10.712s-22.037-4.795-22.037-10.712,9.864-10.713,22.037-10.713,22.033,4.8,22.033,10.713" transform="translate(742 752.511)" fill="#49a19b"/><path d="M193.417-330.262v7.144c0,5.912,9.864,10.709,22.037,10.709s22.032-4.8,22.032-10.709v-7.144H193.417" transform="translate(742 752.511)" fill="#245685"/><path d="M237.486-330.262c0,5.916-9.863,10.712-22.032,10.712s-22.037-4.8-22.037-10.712,9.864-10.713,22.037-10.713,22.032,4.8,22.032,10.713" transform="translate(742 752.511)" fill="#1b3c60"/><path d="M193.417-338.914v7.144c0,5.912,9.864,10.709,22.037,10.709s22.032-4.8,22.032-10.709v-7.144H193.417" transform="translate(742 752.511)" fill="#245685"/><path d="M237.486-338.914c0,5.916-9.863,10.712-22.032,10.712s-22.037-4.8-22.037-10.712,9.864-10.713,22.037-10.713,22.032,4.8,22.032,10.713" transform="translate(742 752.511)" fill="#1b3c60"/><path d="M193.417-347.566v7.144c0,5.912,9.864,10.709,22.037,10.709s22.032-4.8,22.032-10.709v-7.144H193.417" transform="translate(742 752.511)" fill="#245685"/><path d="M237.486-347.566c0,5.916-9.863,10.712-22.032,10.712s-22.037-4.8-22.037-10.712,9.864-10.713,22.037-10.713,22.032,4.8,22.032,10.713" transform="translate(742 752.511)" fill="#1b3c60"/><path d="M193.417-356.218v7.144c0,5.912,9.864,10.709,22.037,10.709s22.032-4.8,22.032-10.709v-7.144H193.417" transform="translate(742 752.511)" fill="#245685"/><path d="M237.486-356.218c0,5.916-9.863,10.712-22.032,10.712s-22.037-4.8-22.037-10.712,9.864-10.713,22.037-10.713,22.032,4.8,22.032,10.713" transform="translate(742 752.511)" fill="#1b3c60"/><path d="M193.417-364.87v7.144c0,5.912,9.864,10.711,22.037,10.711s22.032-4.8,22.032-10.711v-7.144H193.417" transform="translate(742 752.511)" fill="#245685"/><path d="M237.486-364.87c0,5.917-9.863,10.712-22.032,10.712s-22.037-4.795-22.037-10.712,9.864-10.713,22.037-10.713,22.032,4.8,22.032,10.713" transform="translate(742 752.511)" fill="#1b3c60"/></g></svg>
