<svg xmlns="http://www.w3.org/2000/svg" width="113.49" height="57.153" viewBox="0 0 113.49 57.153"><g transform="translate(-1197.288 -205.035)"><path d="M567.185-494.768c2.676,2.443,1.9,4.445-1.723,4.445H482.2c-3.623,0-4.4-2-1.721-4.445l4.737-4.333a19.683,19.683,0,0,1,11.451-4.443H551A19.673,19.673,0,0,1,562.44-499.1l4.745,4.333" transform="translate(742 752.511)" fill="#245685"/><path d="M560.463-503.924a3.305,3.305,0,0,1-3.3,3.292H490.491a3.3,3.3,0,0,1-3.3-3.292v-38.608a3.3,3.3,0,0,1,3.3-3.289h66.676a3.3,3.3,0,0,1,3.3,3.289v38.608" transform="translate(742 752.511)" fill="#2f2b44"/><path d="M560.463-503.924a3.305,3.305,0,0,1-3.3,3.292H490.491a3.3,3.3,0,0,1-3.3-3.292v-38.608a3.3,3.3,0,0,1,3.3-3.289h66.676a3.3,3.3,0,0,1,3.3,3.289v38.608" transform="translate(742 752.511)" fill="#245685"/><path d="M557.817-505.551a1.983,1.983,0,0,1-1.977,1.975H491.817a1.978,1.978,0,0,1-1.976-1.975V-540.9a1.989,1.989,0,0,1,1.976-1.981H555.84a1.994,1.994,0,0,1,1.977,1.981v35.348" transform="translate(742 752.511)" fill="#70cfc5"/><path d="M497.223-532.377h.985c.477,0,.737-.179.737-.727v-3.364c0-.468-.2-.727-.693-.727h-1.068a.663.663,0,0,0-.728.727v3.359A.67.67,0,0,0,497.223-532.377Zm-2.189-4.259a1.713,1.713,0,0,1,1.871-1.871h1.667a1.618,1.618,0,0,1,1.8,1.815v3.812a1.631,1.631,0,0,1-1.8,1.813H496.9a1.664,1.664,0,0,1-1.865-1.813v-3.756" transform="translate(742 752.511)" fill="#fff"/><path d="M523.289-532.377h.985c.477,0,.739-.179.739-.727v-3.364c0-.468-.205-.727-.693-.727h-1.069a.663.663,0,0,0-.728.727v3.359A.67.67,0,0,0,523.289-532.377Zm-2.189-4.259a1.713,1.713,0,0,1,1.871-1.871h1.668a1.617,1.617,0,0,1,1.8,1.815v3.812a1.631,1.631,0,0,1-1.8,1.813h-1.667a1.664,1.664,0,0,1-1.865-1.813v-3.756" transform="translate(742 752.511)" fill="#fff"/><path d="M505.912-520.513h.985c.476,0,.737-.177.737-.725V-524.6c0-.468-.2-.727-.693-.727h-1.069a.663.663,0,0,0-.728.727v3.359A.671.671,0,0,0,505.912-520.513Zm-2.191-4.259a1.714,1.714,0,0,1,1.872-1.869h1.667a1.618,1.618,0,0,1,1.8,1.815v3.811a1.631,1.631,0,0,1-1.8,1.815h-1.667a1.664,1.664,0,0,1-1.867-1.815v-3.756" transform="translate(742 752.511)" fill="#fff"/><path d="M505.912-508.648h.985c.476,0,.737-.177.737-.727v-3.364c0-.468-.2-.727-.693-.727h-1.069a.663.663,0,0,0-.728.727v3.359A.671.671,0,0,0,505.912-508.648Zm-2.191-4.259a1.715,1.715,0,0,1,1.872-1.871h1.667a1.618,1.618,0,0,1,1.8,1.815v3.812a1.631,1.631,0,0,1-1.8,1.813h-1.667a1.664,1.664,0,0,1-1.867-1.813v-3.756" transform="translate(742 752.511)" fill="#fff"/><path d="M497.223-508.648h.985c.477,0,.737-.177.737-.727v-3.364c0-.468-.2-.727-.693-.727h-1.068a.663.663,0,0,0-.728.727v3.359A.67.67,0,0,0,497.223-508.648Zm-2.189-4.259a1.714,1.714,0,0,1,1.871-1.871h1.667a1.618,1.618,0,0,1,1.8,1.815v3.812a1.631,1.631,0,0,1-1.8,1.813H496.9a1.664,1.664,0,0,1-1.865-1.813v-3.756" transform="translate(742 752.511)" fill="#fff"/><path d="M531.979-532.377h.985c.477,0,.739-.179.739-.727v-3.364c0-.468-.205-.727-.695-.727H531.94a.663.663,0,0,0-.728.727v3.359A.67.67,0,0,0,531.979-532.377Zm-2.189-4.259a1.713,1.713,0,0,1,1.871-1.871h1.667a1.618,1.618,0,0,1,1.8,1.815v3.812a1.631,1.631,0,0,1-1.8,1.813h-1.667a1.664,1.664,0,0,1-1.865-1.813v-3.756" transform="translate(742 752.511)" fill="#fff"/><path d="M540.668-532.377h.985c.477,0,.737-.179.737-.727v-3.364c0-.468-.2-.727-.693-.727h-1.068a.662.662,0,0,0-.728.727v3.359A.67.67,0,0,0,540.668-532.377Zm-2.189-4.259a1.713,1.713,0,0,1,1.871-1.871h1.667a1.618,1.618,0,0,1,1.8,1.815v3.812a1.631,1.631,0,0,1-1.8,1.813h-1.667a1.664,1.664,0,0,1-1.865-1.813v-3.756" transform="translate(742 752.511)" fill="#fff"/><path d="M504.964-537.665l1.44-.841h1.412v7.44h-1.424v-6.027l-1.428.359v-.931" transform="translate(742 752.511)" fill="#fff"/><path d="M513.653-537.665l1.44-.841H516.5v7.44h-1.423v-6.027l-1.428.359v-.931" transform="translate(742 752.511)" fill="#fff"/><path d="M548.409-537.665l1.44-.841h1.412v7.44h-1.424v-6.027l-1.428.359v-.931" transform="translate(742 752.511)" fill="#fff"/><path d="M496.276-525.8l1.439-.841h1.412v7.44H497.7v-6.028l-1.428.359v-.929" transform="translate(742 752.511)" fill="#fff"/><path d="M513.653-513.935l1.44-.843H516.5v7.44h-1.423v-6.027l-1.428.359v-.929" transform="translate(742 752.511)" fill="#fff"/><path d="M523.289-520.513h.985c.477,0,.739-.177.739-.725V-524.6c0-.468-.205-.727-.693-.727h-1.069a.663.663,0,0,0-.728.727v3.359A.67.67,0,0,0,523.289-520.513Zm-2.189-4.259a1.713,1.713,0,0,1,1.871-1.869h1.668a1.617,1.617,0,0,1,1.8,1.815v3.811a1.631,1.631,0,0,1-1.8,1.815h-1.667a1.664,1.664,0,0,1-1.865-1.815v-3.756" transform="translate(742 752.511)" fill="#fff"/><path d="M531.979-508.648h.985c.477,0,.739-.177.739-.727v-3.364c0-.468-.205-.727-.695-.727H531.94a.663.663,0,0,0-.728.727v3.359A.67.67,0,0,0,531.979-508.648Zm-2.189-4.259a1.714,1.714,0,0,1,1.871-1.871h1.667a1.618,1.618,0,0,1,1.8,1.815v3.812a1.631,1.631,0,0,1-1.8,1.813h-1.667a1.664,1.664,0,0,1-1.865-1.813v-3.756" transform="translate(742 752.511)" fill="#fff"/><path d="M540.668-508.648h.985c.477,0,.737-.177.737-.727v-3.364c0-.468-.2-.727-.693-.727h-1.068a.662.662,0,0,0-.728.727v3.359A.67.67,0,0,0,540.668-508.648Zm-2.189-4.259a1.714,1.714,0,0,1,1.871-1.871h1.667a1.618,1.618,0,0,1,1.8,1.815v3.812a1.631,1.631,0,0,1-1.8,1.813h-1.667a1.664,1.664,0,0,1-1.865-1.813v-3.756" transform="translate(742 752.511)" fill="#fff"/><path d="M513.653-525.8l1.44-.841H516.5v7.44h-1.423v-6.028l-1.428.359v-.929" transform="translate(742 752.511)" fill="#fff"/><path d="M531.032-525.8l1.439-.841h1.412v7.44H532.46v-6.028l-1.428.359v-.929" transform="translate(742 752.511)" fill="#fff"/><path d="M522.343-513.935l1.439-.843h1.412v7.44h-1.423v-6.027l-1.428.359v-.929" transform="translate(742 752.511)" fill="#fff"/><path d="M549.357-520.513h.985c.476,0,.737-.177.737-.725V-524.6c0-.468-.2-.727-.693-.727h-1.069a.663.663,0,0,0-.728.727v3.359a.671.671,0,0,0,.768.732Zm-2.191-4.259a1.714,1.714,0,0,1,1.872-1.869h1.667a1.618,1.618,0,0,1,1.8,1.815v3.811a1.631,1.631,0,0,1-1.8,1.815h-1.667a1.664,1.664,0,0,1-1.867-1.815v-3.756" transform="translate(742 752.511)" fill="#fff"/><path d="M548.409-513.935l1.44-.843h1.412v7.44h-1.424v-6.027l-1.428.359v-.929" transform="translate(742 752.511)" fill="#fff"/><path d="M539.721-525.8l1.439-.841h1.412v7.44h-1.423v-6.028l-1.428.359v-.929" transform="translate(742 752.511)" fill="#fff"/><path d="M475.349-506.943a2.615,2.615,0,0,1-3.7,0,2.615,2.615,0,0,1,0-3.7l5.149-5.151a2.612,2.612,0,0,1,3.7,0,2.615,2.615,0,0,1,0,3.7l-5.149,5.151" transform="translate(742 752.511)" fill="#245685"/><path d="M465.164-492.421a5.7,5.7,0,0,1-8.033-.348,5.7,5.7,0,0,1-.348-8.033l9.236-9.235a5.693,5.693,0,0,1,8.032.348,5.693,5.693,0,0,1,.347,8.031l-9.233,9.237" transform="translate(742 752.511)" fill="#245685"/><path d="M510.329-527.708a19.767,19.767,0,0,0-19.767-19.768A19.768,19.768,0,0,0,470.8-527.708a19.767,19.767,0,0,0,19.767,19.765,19.767,19.767,0,0,0,19.767-19.765" transform="translate(742 752.511)" fill="#f9b10c"/><path d="M505.62-527.708a15.058,15.058,0,0,0-15.057-15.059,15.057,15.057,0,0,0-15.056,15.059,15.056,15.056,0,0,0,15.056,15.055,15.057,15.057,0,0,0,15.057-15.055" transform="translate(742 752.511)" fill="#70cfc5"/><path d="M494.409-526.731l1.9-1.115h1.869V-518H496.3v-7.976l-1.889.475v-1.231" transform="translate(742 752.511)" fill="#fff"/><path d="M492.765-536.1a2.2,2.2,0,0,0,2.468,2.4h2.207a2.159,2.159,0,0,0,2.387-2.4v-3.461a15.1,15.1,0,0,0-1.883-1.263v4.428c0,.727-.347.961-.977.961h-1.3a.886.886,0,0,1-1.015-.968v-4.445a.877.877,0,0,1,.963-.963h.189a14.928,14.928,0,0,0-2.665-.719,2.727,2.727,0,0,0-.369,1.459v4.971" transform="translate(742 752.511)" fill="#fff"/></g></svg>
