<svg xmlns="http://www.w3.org/2000/svg" width="103.934" height="76.715" viewBox="0 0 103.934 76.715"><g transform="translate(-1219.88 -356.689)"><path d="M518.187-369.122a2.719,2.719,0,0,0-2.72-2.72,2.721,2.721,0,0,0-2.721,2.72,2.722,2.722,0,0,0,2.721,2.721,2.721,2.721,0,0,0,2.72-2.721" transform="translate(756 762.511)"/><path d="M482.548-369.122a2.721,2.721,0,0,0-2.721-2.72,2.719,2.719,0,0,0-2.72,2.72,2.721,2.721,0,0,0,2.72,2.721,2.722,2.722,0,0,0,2.721-2.721" transform="translate(756 762.511)"/><path d="M555.012-369.122a2.721,2.721,0,0,0-2.721-2.72,2.719,2.719,0,0,0-2.72,2.72,2.721,2.721,0,0,0,2.72,2.721,2.722,2.722,0,0,0,2.721-2.721" transform="translate(756 762.511)"/><path d="M552.957-339.455h-1.333v-29h-71.13v29H479.16v-30.333h73.8v30.333" transform="translate(756 762.511)"/><path d="M516.133-332.874H514.8v-72.5h1.333v72.5" transform="translate(756 762.511)"/><path d="M492.535-341.194l-24.647,1.839-.769-7.56,24.647-1.839.769,7.56" transform="translate(756 762.511)" fill="#fff"/><path d="M528.175-341.194l-24.648,1.839-.769-7.56,24.648-1.839.769,7.56" transform="translate(756 762.511)" fill="#fff"/><path d="M563.815-341.194l-24.648,1.839-.769-7.56,24.647-1.839.771,7.56" transform="translate(756 762.511)" fill="#fff"/><g transform="translate(71 207)"><path d="M510.249-500.427c.951.868.674,1.579-.612,1.579H480.059c-1.287,0-1.564-.711-.611-1.579l1.683-1.539a6.992,6.992,0,0,1,4.068-1.578h19.3a6.988,6.988,0,0,1,4.065,1.578l1.686,1.539" transform="translate(742 725.251)" fill="#245685"/><path d="M513.221-530.938a1.174,1.174,0,0,1-1.171,1.169H488.365a1.173,1.173,0,0,1-1.171-1.169v-13.715a1.173,1.173,0,0,1,1.171-1.169H512.05a1.174,1.174,0,0,1,1.171,1.169v13.715" transform="translate(736.64 752.511)" fill="#2f2b44"/><path d="M513.221-530.938a1.174,1.174,0,0,1-1.171,1.169H488.365a1.173,1.173,0,0,1-1.171-1.169v-13.715a1.173,1.173,0,0,1,1.171-1.169H512.05a1.174,1.174,0,0,1,1.171,1.169v13.715" transform="translate(736.64 752.511)" fill="#245685"/><path d="M513.988-529.62a.7.7,0,0,1-.7.7H490.543a.7.7,0,0,1-.7-.7v-12.557a.707.707,0,0,1,.7-.7h22.743a.708.708,0,0,1,.7.7v12.557" transform="translate(734.933 750.614)" fill="#70cfc5"/><path d="M495.811-536.329h.35c.17,0,.262-.063.262-.258v-1.195c0-.166-.072-.258-.246-.258H495.8a.235.235,0,0,0-.259.258v1.193A.238.238,0,0,0,495.811-536.329Zm-.778-1.513a.609.609,0,0,1,.664-.665h.592a.575.575,0,0,1,.639.645v1.354a.579.579,0,0,1-.641.644H495.7a.591.591,0,0,1-.663-.644v-1.334" transform="translate(731.585 747.794)" fill="#fff"/><path d="M521.878-536.329h.35c.17,0,.262-.063.262-.258v-1.195c0-.166-.073-.258-.246-.258h-.38a.235.235,0,0,0-.259.258v1.193A.238.238,0,0,0,521.878-536.329Zm-.778-1.513a.609.609,0,0,1,.664-.665h.593a.575.575,0,0,1,.638.645v1.354a.579.579,0,0,1-.641.644h-.592a.591.591,0,0,1-.663-.644v-1.334" transform="translate(714.778 747.794)" fill="#fff"/><path d="M504.5-524.465h.35c.169,0,.262-.063.262-.258v-1.2c0-.166-.072-.258-.246-.258h-.38a.235.235,0,0,0-.259.258v1.193A.238.238,0,0,0,504.5-524.465Zm-.778-1.513a.609.609,0,0,1,.665-.664h.592a.575.575,0,0,1,.639.645v1.354a.58.58,0,0,1-.641.645h-.592a.591.591,0,0,1-.663-.645v-1.334" transform="translate(725.983 740.144)" fill="#fff"/><path d="M504.5-512.6h.35c.169,0,.262-.063.262-.258v-1.195c0-.166-.072-.258-.246-.258h-.38a.235.235,0,0,0-.259.258v1.193A.238.238,0,0,0,504.5-512.6Zm-.778-1.513a.609.609,0,0,1,.665-.664h.592a.575.575,0,0,1,.639.645v1.354a.579.579,0,0,1-.641.644h-.592a.591.591,0,0,1-.663-.644v-1.334" transform="translate(725.983 732.494)" fill="#fff"/><path d="M495.811-512.6h.35c.17,0,.262-.063.262-.258v-1.195c0-.166-.072-.258-.246-.258H495.8a.235.235,0,0,0-.259.258v1.193A.238.238,0,0,0,495.811-512.6Zm-.778-1.513a.609.609,0,0,1,.664-.664h.592a.575.575,0,0,1,.639.645v1.354a.579.579,0,0,1-.641.644H495.7a.591.591,0,0,1-.663-.644v-1.334" transform="translate(731.585 732.494)" fill="#fff"/><path d="M530.567-536.329h.35c.17,0,.262-.063.262-.258v-1.195c0-.166-.073-.258-.247-.258h-.379a.235.235,0,0,0-.259.258v1.193A.238.238,0,0,0,530.567-536.329Zm-.778-1.513a.609.609,0,0,1,.664-.665h.592a.575.575,0,0,1,.639.645v1.354a.579.579,0,0,1-.641.644h-.592a.591.591,0,0,1-.663-.644v-1.334" transform="translate(709.175 747.794)" fill="#fff"/><path d="M539.256-536.329h.35c.17,0,.262-.063.262-.258v-1.195c0-.166-.072-.258-.246-.258h-.379a.235.235,0,0,0-.259.258v1.193A.238.238,0,0,0,539.256-536.329Zm-.778-1.513a.609.609,0,0,1,.664-.665h.592a.575.575,0,0,1,.639.645v1.354a.579.579,0,0,1-.641.644h-.592a.591.591,0,0,1-.663-.644v-1.334" transform="translate(703.573 747.794)" fill="#fff"/><path d="M504.964-538.208l.512-.3h.5v2.643h-.506V-538l-.507.127v-.331" transform="translate(725.182 747.794)" fill="#fff"/><path d="M513.653-538.208l.512-.3h.5v2.643h-.505V-538l-.507.127v-.331" transform="translate(719.579 747.794)" fill="#fff"/><path d="M548.409-538.208l.511-.3h.5v2.643h-.506V-538l-.507.127v-.331" transform="translate(697.17 747.794)" fill="#fff"/><path d="M496.276-526.343l.511-.3h.5V-524h-.505v-2.141l-.507.127v-.33" transform="translate(730.784 740.144)" fill="#fff"/><path d="M513.653-514.478l.512-.3h.5v2.643h-.505v-2.141l-.507.127v-.33" transform="translate(719.579 732.494)" fill="#fff"/><path d="M521.878-524.465h.35c.17,0,.262-.063.262-.258v-1.2c0-.166-.073-.258-.246-.258h-.38a.235.235,0,0,0-.259.258v1.193A.238.238,0,0,0,521.878-524.465Zm-.778-1.513a.608.608,0,0,1,.664-.664h.593A.574.574,0,0,1,523-526v1.354a.58.58,0,0,1-.641.645h-.592a.591.591,0,0,1-.663-.645v-1.334" transform="translate(714.778 740.144)" fill="#fff"/><path d="M530.567-512.6h.35c.17,0,.262-.063.262-.258v-1.195c0-.166-.073-.258-.247-.258h-.379a.235.235,0,0,0-.259.258v1.193A.238.238,0,0,0,530.567-512.6Zm-.778-1.513a.609.609,0,0,1,.664-.664h.592a.575.575,0,0,1,.639.645v1.354a.579.579,0,0,1-.641.644h-.592a.591.591,0,0,1-.663-.644v-1.334" transform="translate(709.175 732.494)" fill="#fff"/><path d="M539.256-512.6h.35c.17,0,.262-.063.262-.258v-1.195c0-.166-.072-.258-.246-.258h-.379a.235.235,0,0,0-.259.258v1.193A.238.238,0,0,0,539.256-512.6Zm-.778-1.513a.609.609,0,0,1,.664-.664h.592a.575.575,0,0,1,.639.645v1.354a.579.579,0,0,1-.641.644h-.592a.591.591,0,0,1-.663-.644v-1.334" transform="translate(703.573 732.494)" fill="#fff"/><path d="M513.653-526.343l.512-.3h.5V-524h-.505v-2.141l-.507.127v-.33" transform="translate(719.579 740.144)" fill="#fff"/><path d="M531.032-526.343l.511-.3h.5V-524h-.505v-2.141l-.507.127v-.33" transform="translate(708.374 740.144)" fill="#fff"/><path d="M522.343-514.478l.511-.3h.5v2.643h-.505v-2.141l-.507.127v-.33" transform="translate(713.977 732.494)" fill="#fff"/><path d="M547.945-524.465h.35c.169,0,.262-.063.262-.258v-1.2c0-.166-.073-.258-.246-.258h-.38a.235.235,0,0,0-.259.258v1.193A.238.238,0,0,0,547.945-524.465Zm-.778-1.513a.609.609,0,0,1,.665-.664h.592a.575.575,0,0,1,.639.645v1.354a.58.58,0,0,1-.641.645h-.592a.591.591,0,0,1-.663-.645v-1.334" transform="translate(697.971 740.144)" fill="#fff"/><path d="M548.409-514.478l.511-.3h.5v2.643h-.506v-2.141l-.507.127v-.33" transform="translate(697.17 732.494)" fill="#fff"/><path d="M539.721-526.343l.511-.3h.5V-524h-.505v-2.141l-.507.127v-.33" transform="translate(702.772 740.144)" fill="#fff"/></g><g transform="translate(35 150)"><path d="M510.249-500.427c.951.868.674,1.579-.612,1.579H480.059c-1.287,0-1.564-.711-.611-1.579l1.683-1.539a6.992,6.992,0,0,1,4.068-1.578h19.3a6.988,6.988,0,0,1,4.065,1.578l1.686,1.539" transform="translate(742 725.251)" fill="#245685"/><path d="M513.221-530.938a1.174,1.174,0,0,1-1.171,1.169H488.365a1.173,1.173,0,0,1-1.171-1.169v-13.715a1.173,1.173,0,0,1,1.171-1.169H512.05a1.174,1.174,0,0,1,1.171,1.169v13.715" transform="translate(736.64 752.511)" fill="#2f2b44"/><path d="M513.221-530.938a1.174,1.174,0,0,1-1.171,1.169H488.365a1.173,1.173,0,0,1-1.171-1.169v-13.715a1.173,1.173,0,0,1,1.171-1.169H512.05a1.174,1.174,0,0,1,1.171,1.169v13.715" transform="translate(736.64 752.511)" fill="#245685"/><path d="M513.988-529.62a.7.7,0,0,1-.7.7H490.543a.7.7,0,0,1-.7-.7v-12.557a.707.707,0,0,1,.7-.7h22.743a.708.708,0,0,1,.7.7v12.557" transform="translate(734.933 750.614)" fill="#70cfc5"/><path d="M495.811-536.329h.35c.17,0,.262-.063.262-.258v-1.195c0-.166-.072-.258-.246-.258H495.8a.235.235,0,0,0-.259.258v1.193A.238.238,0,0,0,495.811-536.329Zm-.778-1.513a.609.609,0,0,1,.664-.665h.592a.575.575,0,0,1,.639.645v1.354a.579.579,0,0,1-.641.644H495.7a.591.591,0,0,1-.663-.644v-1.334" transform="translate(731.585 747.794)" fill="#fff"/><path d="M521.878-536.329h.35c.17,0,.262-.063.262-.258v-1.195c0-.166-.073-.258-.246-.258h-.38a.235.235,0,0,0-.259.258v1.193A.238.238,0,0,0,521.878-536.329Zm-.778-1.513a.609.609,0,0,1,.664-.665h.593a.575.575,0,0,1,.638.645v1.354a.579.579,0,0,1-.641.644h-.592a.591.591,0,0,1-.663-.644v-1.334" transform="translate(714.778 747.794)" fill="#fff"/><path d="M504.5-524.465h.35c.169,0,.262-.063.262-.258v-1.2c0-.166-.072-.258-.246-.258h-.38a.235.235,0,0,0-.259.258v1.193A.238.238,0,0,0,504.5-524.465Zm-.778-1.513a.609.609,0,0,1,.665-.664h.592a.575.575,0,0,1,.639.645v1.354a.58.58,0,0,1-.641.645h-.592a.591.591,0,0,1-.663-.645v-1.334" transform="translate(725.983 740.144)" fill="#fff"/><path d="M504.5-512.6h.35c.169,0,.262-.063.262-.258v-1.195c0-.166-.072-.258-.246-.258h-.38a.235.235,0,0,0-.259.258v1.193A.238.238,0,0,0,504.5-512.6Zm-.778-1.513a.609.609,0,0,1,.665-.664h.592a.575.575,0,0,1,.639.645v1.354a.579.579,0,0,1-.641.644h-.592a.591.591,0,0,1-.663-.644v-1.334" transform="translate(725.983 732.494)" fill="#fff"/><path d="M495.811-512.6h.35c.17,0,.262-.063.262-.258v-1.195c0-.166-.072-.258-.246-.258H495.8a.235.235,0,0,0-.259.258v1.193A.238.238,0,0,0,495.811-512.6Zm-.778-1.513a.609.609,0,0,1,.664-.664h.592a.575.575,0,0,1,.639.645v1.354a.579.579,0,0,1-.641.644H495.7a.591.591,0,0,1-.663-.644v-1.334" transform="translate(731.585 732.494)" fill="#fff"/><path d="M530.567-536.329h.35c.17,0,.262-.063.262-.258v-1.195c0-.166-.073-.258-.247-.258h-.379a.235.235,0,0,0-.259.258v1.193A.238.238,0,0,0,530.567-536.329Zm-.778-1.513a.609.609,0,0,1,.664-.665h.592a.575.575,0,0,1,.639.645v1.354a.579.579,0,0,1-.641.644h-.592a.591.591,0,0,1-.663-.644v-1.334" transform="translate(709.175 747.794)" fill="#fff"/><path d="M539.256-536.329h.35c.17,0,.262-.063.262-.258v-1.195c0-.166-.072-.258-.246-.258h-.379a.235.235,0,0,0-.259.258v1.193A.238.238,0,0,0,539.256-536.329Zm-.778-1.513a.609.609,0,0,1,.664-.665h.592a.575.575,0,0,1,.639.645v1.354a.579.579,0,0,1-.641.644h-.592a.591.591,0,0,1-.663-.644v-1.334" transform="translate(703.573 747.794)" fill="#fff"/><path d="M504.964-538.208l.512-.3h.5v2.643h-.506V-538l-.507.127v-.331" transform="translate(725.182 747.794)" fill="#fff"/><path d="M513.653-538.208l.512-.3h.5v2.643h-.505V-538l-.507.127v-.331" transform="translate(719.579 747.794)" fill="#fff"/><path d="M548.409-538.208l.511-.3h.5v2.643h-.506V-538l-.507.127v-.331" transform="translate(697.17 747.794)" fill="#fff"/><path d="M496.276-526.343l.511-.3h.5V-524h-.505v-2.141l-.507.127v-.33" transform="translate(730.784 740.144)" fill="#fff"/><path d="M513.653-514.478l.512-.3h.5v2.643h-.505v-2.141l-.507.127v-.33" transform="translate(719.579 732.494)" fill="#fff"/><path d="M521.878-524.465h.35c.17,0,.262-.063.262-.258v-1.2c0-.166-.073-.258-.246-.258h-.38a.235.235,0,0,0-.259.258v1.193A.238.238,0,0,0,521.878-524.465Zm-.778-1.513a.608.608,0,0,1,.664-.664h.593A.574.574,0,0,1,523-526v1.354a.58.58,0,0,1-.641.645h-.592a.591.591,0,0,1-.663-.645v-1.334" transform="translate(714.778 740.144)" fill="#fff"/><path d="M530.567-512.6h.35c.17,0,.262-.063.262-.258v-1.195c0-.166-.073-.258-.247-.258h-.379a.235.235,0,0,0-.259.258v1.193A.238.238,0,0,0,530.567-512.6Zm-.778-1.513a.609.609,0,0,1,.664-.664h.592a.575.575,0,0,1,.639.645v1.354a.579.579,0,0,1-.641.644h-.592a.591.591,0,0,1-.663-.644v-1.334" transform="translate(709.175 732.494)" fill="#fff"/><path d="M539.256-512.6h.35c.17,0,.262-.063.262-.258v-1.195c0-.166-.072-.258-.246-.258h-.379a.235.235,0,0,0-.259.258v1.193A.238.238,0,0,0,539.256-512.6Zm-.778-1.513a.609.609,0,0,1,.664-.664h.592a.575.575,0,0,1,.639.645v1.354a.579.579,0,0,1-.641.644h-.592a.591.591,0,0,1-.663-.644v-1.334" transform="translate(703.573 732.494)" fill="#fff"/><path d="M513.653-526.343l.512-.3h.5V-524h-.505v-2.141l-.507.127v-.33" transform="translate(719.579 740.144)" fill="#fff"/><path d="M531.032-526.343l.511-.3h.5V-524h-.505v-2.141l-.507.127v-.33" transform="translate(708.374 740.144)" fill="#fff"/><path d="M522.343-514.478l.511-.3h.5v2.643h-.505v-2.141l-.507.127v-.33" transform="translate(713.977 732.494)" fill="#fff"/><path d="M547.945-524.465h.35c.169,0,.262-.063.262-.258v-1.2c0-.166-.073-.258-.246-.258h-.38a.235.235,0,0,0-.259.258v1.193A.238.238,0,0,0,547.945-524.465Zm-.778-1.513a.609.609,0,0,1,.665-.664h.592a.575.575,0,0,1,.639.645v1.354a.58.58,0,0,1-.641.645h-.592a.591.591,0,0,1-.663-.645v-1.334" transform="translate(697.971 740.144)" fill="#fff"/><path d="M548.409-514.478l.511-.3h.5v2.643h-.506v-2.141l-.507.127v-.33" transform="translate(697.17 732.494)" fill="#fff"/><path d="M539.721-526.343l.511-.3h.5V-524h-.505v-2.141l-.507.127v-.33" transform="translate(702.772 740.144)" fill="#fff"/></g><g transform="translate(35 207)"><path d="M510.249-500.427c.951.868.674,1.579-.612,1.579H480.059c-1.287,0-1.564-.711-.611-1.579l1.683-1.539a6.992,6.992,0,0,1,4.068-1.578h19.3a6.988,6.988,0,0,1,4.065,1.578l1.686,1.539" transform="translate(742 725.251)" fill="#245685"/><path d="M513.221-530.938a1.174,1.174,0,0,1-1.171,1.169H488.365a1.173,1.173,0,0,1-1.171-1.169v-13.715a1.173,1.173,0,0,1,1.171-1.169H512.05a1.174,1.174,0,0,1,1.171,1.169v13.715" transform="translate(736.64 752.511)" fill="#2f2b44"/><path d="M513.221-530.938a1.174,1.174,0,0,1-1.171,1.169H488.365a1.173,1.173,0,0,1-1.171-1.169v-13.715a1.173,1.173,0,0,1,1.171-1.169H512.05a1.174,1.174,0,0,1,1.171,1.169v13.715" transform="translate(736.64 752.511)" fill="#245685"/><path d="M513.988-529.62a.7.7,0,0,1-.7.7H490.543a.7.7,0,0,1-.7-.7v-12.557a.707.707,0,0,1,.7-.7h22.743a.708.708,0,0,1,.7.7v12.557" transform="translate(734.933 750.614)" fill="#70cfc5"/><path d="M495.811-536.329h.35c.17,0,.262-.063.262-.258v-1.195c0-.166-.072-.258-.246-.258H495.8a.235.235,0,0,0-.259.258v1.193A.238.238,0,0,0,495.811-536.329Zm-.778-1.513a.609.609,0,0,1,.664-.665h.592a.575.575,0,0,1,.639.645v1.354a.579.579,0,0,1-.641.644H495.7a.591.591,0,0,1-.663-.644v-1.334" transform="translate(731.585 747.794)" fill="#fff"/><path d="M521.878-536.329h.35c.17,0,.262-.063.262-.258v-1.195c0-.166-.073-.258-.246-.258h-.38a.235.235,0,0,0-.259.258v1.193A.238.238,0,0,0,521.878-536.329Zm-.778-1.513a.609.609,0,0,1,.664-.665h.593a.575.575,0,0,1,.638.645v1.354a.579.579,0,0,1-.641.644h-.592a.591.591,0,0,1-.663-.644v-1.334" transform="translate(714.778 747.794)" fill="#fff"/><path d="M504.5-524.465h.35c.169,0,.262-.063.262-.258v-1.2c0-.166-.072-.258-.246-.258h-.38a.235.235,0,0,0-.259.258v1.193A.238.238,0,0,0,504.5-524.465Zm-.778-1.513a.609.609,0,0,1,.665-.664h.592a.575.575,0,0,1,.639.645v1.354a.58.58,0,0,1-.641.645h-.592a.591.591,0,0,1-.663-.645v-1.334" transform="translate(725.983 740.144)" fill="#fff"/><path d="M504.5-512.6h.35c.169,0,.262-.063.262-.258v-1.195c0-.166-.072-.258-.246-.258h-.38a.235.235,0,0,0-.259.258v1.193A.238.238,0,0,0,504.5-512.6Zm-.778-1.513a.609.609,0,0,1,.665-.664h.592a.575.575,0,0,1,.639.645v1.354a.579.579,0,0,1-.641.644h-.592a.591.591,0,0,1-.663-.644v-1.334" transform="translate(725.983 732.494)" fill="#fff"/><path d="M495.811-512.6h.35c.17,0,.262-.063.262-.258v-1.195c0-.166-.072-.258-.246-.258H495.8a.235.235,0,0,0-.259.258v1.193A.238.238,0,0,0,495.811-512.6Zm-.778-1.513a.609.609,0,0,1,.664-.664h.592a.575.575,0,0,1,.639.645v1.354a.579.579,0,0,1-.641.644H495.7a.591.591,0,0,1-.663-.644v-1.334" transform="translate(731.585 732.494)" fill="#fff"/><path d="M530.567-536.329h.35c.17,0,.262-.063.262-.258v-1.195c0-.166-.073-.258-.247-.258h-.379a.235.235,0,0,0-.259.258v1.193A.238.238,0,0,0,530.567-536.329Zm-.778-1.513a.609.609,0,0,1,.664-.665h.592a.575.575,0,0,1,.639.645v1.354a.579.579,0,0,1-.641.644h-.592a.591.591,0,0,1-.663-.644v-1.334" transform="translate(709.175 747.794)" fill="#fff"/><path d="M539.256-536.329h.35c.17,0,.262-.063.262-.258v-1.195c0-.166-.072-.258-.246-.258h-.379a.235.235,0,0,0-.259.258v1.193A.238.238,0,0,0,539.256-536.329Zm-.778-1.513a.609.609,0,0,1,.664-.665h.592a.575.575,0,0,1,.639.645v1.354a.579.579,0,0,1-.641.644h-.592a.591.591,0,0,1-.663-.644v-1.334" transform="translate(703.573 747.794)" fill="#fff"/><path d="M504.964-538.208l.512-.3h.5v2.643h-.506V-538l-.507.127v-.331" transform="translate(725.182 747.794)" fill="#fff"/><path d="M513.653-538.208l.512-.3h.5v2.643h-.505V-538l-.507.127v-.331" transform="translate(719.579 747.794)" fill="#fff"/><path d="M548.409-538.208l.511-.3h.5v2.643h-.506V-538l-.507.127v-.331" transform="translate(697.17 747.794)" fill="#fff"/><path d="M496.276-526.343l.511-.3h.5V-524h-.505v-2.141l-.507.127v-.33" transform="translate(730.784 740.144)" fill="#fff"/><path d="M513.653-514.478l.512-.3h.5v2.643h-.505v-2.141l-.507.127v-.33" transform="translate(719.579 732.494)" fill="#fff"/><path d="M521.878-524.465h.35c.17,0,.262-.063.262-.258v-1.2c0-.166-.073-.258-.246-.258h-.38a.235.235,0,0,0-.259.258v1.193A.238.238,0,0,0,521.878-524.465Zm-.778-1.513a.608.608,0,0,1,.664-.664h.593A.574.574,0,0,1,523-526v1.354a.58.58,0,0,1-.641.645h-.592a.591.591,0,0,1-.663-.645v-1.334" transform="translate(714.778 740.144)" fill="#fff"/><path d="M530.567-512.6h.35c.17,0,.262-.063.262-.258v-1.195c0-.166-.073-.258-.247-.258h-.379a.235.235,0,0,0-.259.258v1.193A.238.238,0,0,0,530.567-512.6Zm-.778-1.513a.609.609,0,0,1,.664-.664h.592a.575.575,0,0,1,.639.645v1.354a.579.579,0,0,1-.641.644h-.592a.591.591,0,0,1-.663-.644v-1.334" transform="translate(709.175 732.494)" fill="#fff"/><path d="M539.256-512.6h.35c.17,0,.262-.063.262-.258v-1.195c0-.166-.072-.258-.246-.258h-.379a.235.235,0,0,0-.259.258v1.193A.238.238,0,0,0,539.256-512.6Zm-.778-1.513a.609.609,0,0,1,.664-.664h.592a.575.575,0,0,1,.639.645v1.354a.579.579,0,0,1-.641.644h-.592a.591.591,0,0,1-.663-.644v-1.334" transform="translate(703.573 732.494)" fill="#fff"/><path d="M513.653-526.343l.512-.3h.5V-524h-.505v-2.141l-.507.127v-.33" transform="translate(719.579 740.144)" fill="#fff"/><path d="M531.032-526.343l.511-.3h.5V-524h-.505v-2.141l-.507.127v-.33" transform="translate(708.374 740.144)" fill="#fff"/><path d="M522.343-514.478l.511-.3h.5v2.643h-.505v-2.141l-.507.127v-.33" transform="translate(713.977 732.494)" fill="#fff"/><path d="M547.945-524.465h.35c.169,0,.262-.063.262-.258v-1.2c0-.166-.073-.258-.246-.258h-.38a.235.235,0,0,0-.259.258v1.193A.238.238,0,0,0,547.945-524.465Zm-.778-1.513a.609.609,0,0,1,.665-.664h.592a.575.575,0,0,1,.639.645v1.354a.58.58,0,0,1-.641.645h-.592a.591.591,0,0,1-.663-.645v-1.334" transform="translate(697.971 740.144)" fill="#fff"/><path d="M548.409-514.478l.511-.3h.5v2.643h-.506v-2.141l-.507.127v-.33" transform="translate(697.17 732.494)" fill="#fff"/><path d="M539.721-526.343l.511-.3h.5V-524h-.505v-2.141l-.507.127v-.33" transform="translate(702.772 740.144)" fill="#fff"/></g><g transform="translate(-1 207)"><path d="M510.249-500.427c.951.868.674,1.579-.612,1.579H480.059c-1.287,0-1.564-.711-.611-1.579l1.683-1.539a6.992,6.992,0,0,1,4.068-1.578h19.3a6.988,6.988,0,0,1,4.065,1.578l1.686,1.539" transform="translate(742 725.251)" fill="#245685"/><path d="M513.221-530.938a1.174,1.174,0,0,1-1.171,1.169H488.365a1.173,1.173,0,0,1-1.171-1.169v-13.715a1.173,1.173,0,0,1,1.171-1.169H512.05a1.174,1.174,0,0,1,1.171,1.169v13.715" transform="translate(736.64 752.511)" fill="#2f2b44"/><path d="M513.221-530.938a1.174,1.174,0,0,1-1.171,1.169H488.365a1.173,1.173,0,0,1-1.171-1.169v-13.715a1.173,1.173,0,0,1,1.171-1.169H512.05a1.174,1.174,0,0,1,1.171,1.169v13.715" transform="translate(736.64 752.511)" fill="#245685"/><path d="M513.988-529.62a.7.7,0,0,1-.7.7H490.543a.7.7,0,0,1-.7-.7v-12.557a.707.707,0,0,1,.7-.7h22.743a.708.708,0,0,1,.7.7v12.557" transform="translate(734.933 750.614)" fill="#70cfc5"/><path d="M495.811-536.329h.35c.17,0,.262-.063.262-.258v-1.195c0-.166-.072-.258-.246-.258H495.8a.235.235,0,0,0-.259.258v1.193A.238.238,0,0,0,495.811-536.329Zm-.778-1.513a.609.609,0,0,1,.664-.665h.592a.575.575,0,0,1,.639.645v1.354a.579.579,0,0,1-.641.644H495.7a.591.591,0,0,1-.663-.644v-1.334" transform="translate(731.585 747.794)" fill="#fff"/><path d="M521.878-536.329h.35c.17,0,.262-.063.262-.258v-1.195c0-.166-.073-.258-.246-.258h-.38a.235.235,0,0,0-.259.258v1.193A.238.238,0,0,0,521.878-536.329Zm-.778-1.513a.609.609,0,0,1,.664-.665h.593a.575.575,0,0,1,.638.645v1.354a.579.579,0,0,1-.641.644h-.592a.591.591,0,0,1-.663-.644v-1.334" transform="translate(714.778 747.794)" fill="#fff"/><path d="M504.5-524.465h.35c.169,0,.262-.063.262-.258v-1.2c0-.166-.072-.258-.246-.258h-.38a.235.235,0,0,0-.259.258v1.193A.238.238,0,0,0,504.5-524.465Zm-.778-1.513a.609.609,0,0,1,.665-.664h.592a.575.575,0,0,1,.639.645v1.354a.58.58,0,0,1-.641.645h-.592a.591.591,0,0,1-.663-.645v-1.334" transform="translate(725.983 740.144)" fill="#fff"/><path d="M504.5-512.6h.35c.169,0,.262-.063.262-.258v-1.195c0-.166-.072-.258-.246-.258h-.38a.235.235,0,0,0-.259.258v1.193A.238.238,0,0,0,504.5-512.6Zm-.778-1.513a.609.609,0,0,1,.665-.664h.592a.575.575,0,0,1,.639.645v1.354a.579.579,0,0,1-.641.644h-.592a.591.591,0,0,1-.663-.644v-1.334" transform="translate(725.983 732.494)" fill="#fff"/><path d="M495.811-512.6h.35c.17,0,.262-.063.262-.258v-1.195c0-.166-.072-.258-.246-.258H495.8a.235.235,0,0,0-.259.258v1.193A.238.238,0,0,0,495.811-512.6Zm-.778-1.513a.609.609,0,0,1,.664-.664h.592a.575.575,0,0,1,.639.645v1.354a.579.579,0,0,1-.641.644H495.7a.591.591,0,0,1-.663-.644v-1.334" transform="translate(731.585 732.494)" fill="#fff"/><path d="M530.567-536.329h.35c.17,0,.262-.063.262-.258v-1.195c0-.166-.073-.258-.247-.258h-.379a.235.235,0,0,0-.259.258v1.193A.238.238,0,0,0,530.567-536.329Zm-.778-1.513a.609.609,0,0,1,.664-.665h.592a.575.575,0,0,1,.639.645v1.354a.579.579,0,0,1-.641.644h-.592a.591.591,0,0,1-.663-.644v-1.334" transform="translate(709.175 747.794)" fill="#fff"/><path d="M539.256-536.329h.35c.17,0,.262-.063.262-.258v-1.195c0-.166-.072-.258-.246-.258h-.379a.235.235,0,0,0-.259.258v1.193A.238.238,0,0,0,539.256-536.329Zm-.778-1.513a.609.609,0,0,1,.664-.665h.592a.575.575,0,0,1,.639.645v1.354a.579.579,0,0,1-.641.644h-.592a.591.591,0,0,1-.663-.644v-1.334" transform="translate(703.573 747.794)" fill="#fff"/><path d="M504.964-538.208l.512-.3h.5v2.643h-.506V-538l-.507.127v-.331" transform="translate(725.182 747.794)" fill="#fff"/><path d="M513.653-538.208l.512-.3h.5v2.643h-.505V-538l-.507.127v-.331" transform="translate(719.579 747.794)" fill="#fff"/><path d="M548.409-538.208l.511-.3h.5v2.643h-.506V-538l-.507.127v-.331" transform="translate(697.17 747.794)" fill="#fff"/><path d="M496.276-526.343l.511-.3h.5V-524h-.505v-2.141l-.507.127v-.33" transform="translate(730.784 740.144)" fill="#fff"/><path d="M513.653-514.478l.512-.3h.5v2.643h-.505v-2.141l-.507.127v-.33" transform="translate(719.579 732.494)" fill="#fff"/><path d="M521.878-524.465h.35c.17,0,.262-.063.262-.258v-1.2c0-.166-.073-.258-.246-.258h-.38a.235.235,0,0,0-.259.258v1.193A.238.238,0,0,0,521.878-524.465Zm-.778-1.513a.608.608,0,0,1,.664-.664h.593A.574.574,0,0,1,523-526v1.354a.58.58,0,0,1-.641.645h-.592a.591.591,0,0,1-.663-.645v-1.334" transform="translate(714.778 740.144)" fill="#fff"/><path d="M530.567-512.6h.35c.17,0,.262-.063.262-.258v-1.195c0-.166-.073-.258-.247-.258h-.379a.235.235,0,0,0-.259.258v1.193A.238.238,0,0,0,530.567-512.6Zm-.778-1.513a.609.609,0,0,1,.664-.664h.592a.575.575,0,0,1,.639.645v1.354a.579.579,0,0,1-.641.644h-.592a.591.591,0,0,1-.663-.644v-1.334" transform="translate(709.175 732.494)" fill="#fff"/><path d="M539.256-512.6h.35c.17,0,.262-.063.262-.258v-1.195c0-.166-.072-.258-.246-.258h-.379a.235.235,0,0,0-.259.258v1.193A.238.238,0,0,0,539.256-512.6Zm-.778-1.513a.609.609,0,0,1,.664-.664h.592a.575.575,0,0,1,.639.645v1.354a.579.579,0,0,1-.641.644h-.592a.591.591,0,0,1-.663-.644v-1.334" transform="translate(703.573 732.494)" fill="#fff"/><path d="M513.653-526.343l.512-.3h.5V-524h-.505v-2.141l-.507.127v-.33" transform="translate(719.579 740.144)" fill="#fff"/><path d="M531.032-526.343l.511-.3h.5V-524h-.505v-2.141l-.507.127v-.33" transform="translate(708.374 740.144)" fill="#fff"/><path d="M522.343-514.478l.511-.3h.5v2.643h-.505v-2.141l-.507.127v-.33" transform="translate(713.977 732.494)" fill="#fff"/><path d="M547.945-524.465h.35c.169,0,.262-.063.262-.258v-1.2c0-.166-.073-.258-.246-.258h-.38a.235.235,0,0,0-.259.258v1.193A.238.238,0,0,0,547.945-524.465Zm-.778-1.513a.609.609,0,0,1,.665-.664h.592a.575.575,0,0,1,.639.645v1.354a.58.58,0,0,1-.641.645h-.592a.591.591,0,0,1-.663-.645v-1.334" transform="translate(697.971 740.144)" fill="#fff"/><path d="M548.409-514.478l.511-.3h.5v2.643h-.506v-2.141l-.507.127v-.33" transform="translate(697.17 732.494)" fill="#fff"/><path d="M539.721-526.343l.511-.3h.5V-524h-.505v-2.141l-.507.127v-.33" transform="translate(702.772 740.144)" fill="#fff"/></g></g></svg>
