<svg xmlns="http://www.w3.org/2000/svg" width="70.37" height="93.387" viewBox="0 0 70.37 93.387"><g transform="translate(-922.266 -640.924)"><path d="M216.118-20.919h-1.333V-48.786h1.333v27.868" transform="translate(742 752.511)"/><path d="M250.637-20.252H180.266v-1.333h70.371v1.333" transform="translate(742 752.511)"/><path d="M218.173-20.92a2.721,2.721,0,0,0-2.721-2.72,2.721,2.721,0,0,0-2.721,2.72,2.721,2.721,0,0,0,2.721,2.721,2.721,2.721,0,0,0,2.721-2.721" transform="translate(742 752.511)"/><path d="M235.437-37.064H195.393v-74.522h40.044v74.522" transform="translate(742 752.511)" fill="#1b3c60"/><path d="M234.4-97.285H196.5V-110.4h37.9v13.119" transform="translate(742 752.511)" fill="#245685"/><path d="M211.438-104.107H206.98v-4.46h4.459v4.46" transform="translate(742 752.511)" fill="#1b3c60"/><path d="M216.621-104.107h-4.459v-4.46h4.459v4.46" transform="translate(742 752.511)" fill="#1b3c60"/><path d="M221.8-104.107h-4.46v-4.46h4.46v4.46" transform="translate(742 752.511)" fill="#1b3c60"/><path d="M226.985-104.107h-4.459v-4.46h4.459v4.46" transform="translate(742 752.511)" fill="#1b3c60"/><path d="M232.167-104.107h-4.459v-4.46h4.459v4.46" transform="translate(742 752.511)" fill="#1b3c60"/><path d="M211.438-98.89H206.98v-4.459h4.459v4.459" transform="translate(742 752.511)" fill="#1b3c60"/><path d="M216.621-98.89h-4.459v-4.459h4.459v4.459" transform="translate(742 752.511)" fill="#1b3c60"/><path d="M221.8-98.89h-4.46v-4.459h4.46v4.459" transform="translate(742 752.511)" fill="#1b3c60"/><path d="M226.985-98.89h-4.459v-4.459h4.459v4.459" transform="translate(742 752.511)" fill="#1b3c60"/><path d="M232.167-98.89h-4.459v-4.459h4.459v4.459" transform="translate(742 752.511)" fill="#1b3c60"/><path d="M203.641-101.119a2.064,2.064,0,0,1-2.064,2.064,2.065,2.065,0,0,1-2.065-2.064,2.066,2.066,0,0,1,2.065-2.066,2.065,2.065,0,0,1,2.064,2.066" transform="translate(742 752.511)" fill="#70cfc5"/><path d="M203.641-106.714a2.064,2.064,0,0,1-2.064,2.064,2.064,2.064,0,0,1-2.065-2.064,2.065,2.065,0,0,1,2.065-2.066,2.064,2.064,0,0,1,2.064,2.066" transform="translate(742 752.511)" fill="#f25a5a"/><path d="M234.4-82.592H196.5V-95.71h37.9v13.118" transform="translate(742 752.511)" fill="#245685"/><path d="M211.438-89.413H206.98v-4.458h4.459v4.458" transform="translate(742 752.511)" fill="#1b3c60"/><path d="M216.621-89.413h-4.459v-4.458h4.459v4.458" transform="translate(742 752.511)" fill="#1b3c60"/><path d="M221.8-89.413h-4.46v-4.458h4.46v4.458" transform="translate(742 752.511)" fill="#1b3c60"/><path d="M226.985-89.413h-4.459v-4.458h4.459v4.458" transform="translate(742 752.511)" fill="#1b3c60"/><path d="M232.167-89.413h-4.459v-4.458h4.459v4.458" transform="translate(742 752.511)" fill="#1b3c60"/><path d="M211.438-84.2H206.98v-4.46h4.459v4.46" transform="translate(742 752.511)" fill="#1b3c60"/><path d="M216.621-84.2h-4.459v-4.46h4.459v4.46" transform="translate(742 752.511)" fill="#1b3c60"/><path d="M221.8-84.2h-4.46v-4.46h4.46v4.46" transform="translate(742 752.511)" fill="#1b3c60"/><path d="M226.985-84.2h-4.459v-4.46h4.459v4.46" transform="translate(742 752.511)" fill="#1b3c60"/><path d="M232.167-84.2h-4.459v-4.46h4.459v4.46" transform="translate(742 752.511)" fill="#1b3c60"/><path d="M203.641-86.426a2.065,2.065,0,0,1-2.064,2.065,2.065,2.065,0,0,1-2.065-2.065,2.064,2.064,0,0,1,2.065-2.064,2.064,2.064,0,0,1,2.064,2.064" transform="translate(742 752.511)" fill="#70cfc5"/><path d="M203.641-92.021a2.065,2.065,0,0,1-2.064,2.065,2.065,2.065,0,0,1-2.065-2.065,2.064,2.064,0,0,1,2.065-2.064,2.064,2.064,0,0,1,2.064,2.064" transform="translate(742 752.511)" fill="#f25a5a"/><path d="M234.4-67.9H196.5v-13.12h37.9V-67.9" transform="translate(742 752.511)" fill="#245685"/><path d="M211.438-74.719H206.98v-4.46h4.459v4.46" transform="translate(742 752.511)" fill="#1b3c60"/><path d="M216.621-74.719h-4.459v-4.46h4.459v4.46" transform="translate(742 752.511)" fill="#1b3c60"/><path d="M221.8-74.719h-4.46v-4.46h4.46v4.46" transform="translate(742 752.511)" fill="#1b3c60"/><path d="M226.985-74.719h-4.459v-4.46h4.459v4.46" transform="translate(742 752.511)" fill="#1b3c60"/><path d="M232.167-74.719h-4.459v-4.46h4.459v4.46" transform="translate(742 752.511)" fill="#1b3c60"/><path d="M211.438-69.5H206.98v-4.459h4.459V-69.5" transform="translate(742 752.511)" fill="#1b3c60"/><path d="M216.621-69.5h-4.459v-4.459h4.459V-69.5" transform="translate(742 752.511)" fill="#1b3c60"/><path d="M221.8-69.5h-4.46v-4.459h4.46V-69.5" transform="translate(742 752.511)" fill="#1b3c60"/><path d="M226.985-69.5h-4.459v-4.459h4.459V-69.5" transform="translate(742 752.511)" fill="#1b3c60"/><path d="M232.167-69.5h-4.459v-4.459h4.459V-69.5" transform="translate(742 752.511)" fill="#1b3c60"/><path d="M203.641-71.732a2.064,2.064,0,0,1-2.064,2.063,2.064,2.064,0,0,1-2.065-2.063,2.065,2.065,0,0,1,2.065-2.066,2.065,2.065,0,0,1,2.064,2.066" transform="translate(742 752.511)" fill="#70cfc5"/><path d="M203.641-77.326a2.064,2.064,0,0,1-2.064,2.064,2.064,2.064,0,0,1-2.065-2.064,2.064,2.064,0,0,1,2.065-2.066,2.064,2.064,0,0,1,2.064,2.066" transform="translate(742 752.511)" fill="#f25a5a"/><path d="M234.4-53.2H196.5V-66.323h37.9V-53.2" transform="translate(742 752.511)" fill="#245685"/><path d="M211.438-60.025H206.98v-4.458h4.459v4.458" transform="translate(742 752.511)" fill="#1b3c60"/><path d="M216.621-60.025h-4.459v-4.458h4.459v4.458" transform="translate(742 752.511)" fill="#1b3c60"/><path d="M221.8-60.025h-4.46v-4.458h4.46v4.458" transform="translate(742 752.511)" fill="#1b3c60"/><path d="M226.985-60.025h-4.459v-4.458h4.459v4.458" transform="translate(742 752.511)" fill="#1b3c60"/><path d="M232.167-60.025h-4.459v-4.458h4.459v4.458" transform="translate(742 752.511)" fill="#1b3c60"/><path d="M211.438-54.809H206.98v-4.459h4.459v4.459" transform="translate(742 752.511)" fill="#1b3c60"/><path d="M216.621-54.809h-4.459v-4.459h4.459v4.459" transform="translate(742 752.511)" fill="#1b3c60"/><path d="M221.8-54.809h-4.46v-4.459h4.46v4.459" transform="translate(742 752.511)" fill="#1b3c60"/><path d="M226.985-54.809h-4.459v-4.459h4.459v4.459" transform="translate(742 752.511)" fill="#1b3c60"/><path d="M232.167-54.809h-4.459v-4.459h4.459v4.459" transform="translate(742 752.511)" fill="#1b3c60"/><path d="M203.641-57.038a2.065,2.065,0,0,1-2.064,2.065,2.065,2.065,0,0,1-2.065-2.065,2.064,2.064,0,0,1,2.065-2.064,2.064,2.064,0,0,1,2.064,2.064" transform="translate(742 752.511)" fill="#70cfc5"/><path d="M203.641-62.633a2.064,2.064,0,0,1-2.064,2.064,2.064,2.064,0,0,1-2.065-2.064,2.064,2.064,0,0,1,2.065-2.064,2.064,2.064,0,0,1,2.064,2.064" transform="translate(742 752.511)" fill="#f25a5a"/><path d="M234.4-38.072H196.5V-51.849h37.9v13.778" transform="translate(742 752.511)" fill="#245685"/></g></svg>
