<svg xmlns="http://www.w3.org/2000/svg" width="145.211" height="171.411" viewBox="0 0 145.211 171.411">
  <defs>
    <style>
      .cls-1 {
        fill: #c99199;
      }

      .cls-2 {
        fill: #ad5c67;
      }

      .cls-3 {
        fill: #ff5e8d;
      }

      .cls-4 {
        fill: #603e64;
      }

      .cls-5 {
        fill: #fcd05c;
      }

      .cls-6 {
        fill: #3e4150;
      }

      .cls-11, .cls-7 {
        fill: #fff;
      }

      .cls-8 {
        fill: #472e43;
      }

      .cls-9 {
        fill: #fc6591;
      }

      .cls-10 {
        fill: #fc9ab6;
      }

      .cls-11 {
        stroke: #616161;
      }

      .cls-12 {
        opacity: 0.3;
      }

      .cls-13 {
        fill: #444;
        font-size: 12px;
        font-family: SegoePrint-Bold, Segoe Print;
        font-weight: 700;
      }
    </style>
  </defs>
  <g id="Group_1" data-name="Group 1" transform="translate(-1159 -227)">
    <g id="Group_55" data-name="Group 55" transform="translate(1072.366 -29.315)">
      <g id="Group_53" data-name="Group 53">
        <g id="Group_42" data-name="Group 42">
          <path id="Path_90" data-name="Path 90" class="cls-1" d="M210.481,363.585l-20.383-.1-39.619-.174-4.214.1-20.537.463a39.443,39.443,0,0,1-6.152-5.4C100.745,338.419,91.8,295.233,91.8,295.233s-6.064-9.44-5.052-10.337,3.481,4.156,3.481,4.156-2.025-6.961-.9-7.3c.964-.3,2.121,3.992,2.411,5.12-.241-1.331-1.215-7.029.173-7.029,1.572,0,2.469,7.3,2.469,7.3s.115-6.508,1.234-6.508,1.687,7.52,1.687,7.52,2.025-3.6,3.375-3.027-3.037,9.092-3.037,9.092,15.948,44.38,40.911,46.38a21.743,21.743,0,0,0,4.262-.067c.327-.039.655-.077.983-.135h.01a20.571,20.571,0,0,0,7.337-2.575,19.7,19.7,0,0,0,7.492-8.089,24.452,24.452,0,0,0,2.584-8.321l13.6-2.141s0,2.363,1.794,8.427c1.456,4.908,6.508,8.2,14.28,12.072,1.832.916,3.818,1.861,5.939,2.873.569.27,1.119.569,1.649.888,5.93,3.548,9.092,10.268,10.664,14.945a36.086,36.086,0,0,1,1.335,5.108Z"/>
          <path id="Path_91" data-name="Path 91" class="cls-2" d="M174.815,319.27s-1.581,9.536-16.179,10.462a24.451,24.451,0,0,0,2.584-8.321Z"/>
          <path id="Path_92" data-name="Path 92" class="cls-3" d="M198.477,343.53a35.551,35.551,0,0,0-8.379,19.959c0,.038-.01.067-.01.1l-43.823-.106v-.068a88.361,88.361,0,0,0-2.343-10.354c-1.853-6.066-2.7-9.971-5.37-12.459a21.743,21.743,0,0,0,4.262-.067c.327-.039.655-.077.983-.135h.01a20.572,20.572,0,0,0,7.337-2.575c2.2,4.629,8.813,16.334,19.738,17.009,13.653.839,19.881-15,19.881-15s.039-.019.126-.058c1.832.916,3.818,1.861,5.939,2.873a16.85,16.85,0,0,1,1.649.881Z"/>
          <path id="Path_93" data-name="Path 93" class="cls-4" d="M167.313,332.972a23.613,23.613,0,0,1-9.963-2.111l.939-1.842a22.183,22.183,0,0,0,9.7,1.875,16.93,16.93,0,0,0,9.233-3.028l1.282,1.621a18.877,18.877,0,0,1-10.452,3.474C167.806,332.968,167.557,332.972,167.313,332.972Z"/>
          <path id="Path_94" data-name="Path 94" class="cls-5" d="M170.04,333.932a1.769,1.769,0,1,1-1.769-1.769A1.769,1.769,0,0,1,170.04,333.932Z"/>
        </g>
        <g id="Group_52" data-name="Group 52">
          <path id="Path_95" data-name="Path 95" class="cls-6" d="M147.854,261.308s-1.292-6.515-10.784-4.661-16.344,13.311-15.839,18.2,5.673,8.649,4.325,13.367-8.931,20.008,2.3,22.479,16.625-11.751,16.625-11.751Z"/>
          <path id="Path_96" data-name="Path 96" class="cls-6" d="M183.9,261.838s1.29-6.578,10.765-4.707,16.315,13.438,15.811,18.371-5.663,8.732-4.318,13.495,8.915,20.16-2.3,22.655-16.6-11.825-16.6-11.825Z"/>
          <g id="Group_49" data-name="Group 49">
            <g id="Group_48" data-name="Group 48">
              <g id="Group_45" data-name="Group 45">
                <path id="Path_97" data-name="Path 97" class="cls-1" d="M188.96,292.874c0,.682-.029,1.364-.058,2.046,0,.04-.009.09-.009.14a36.138,36.138,0,0,1-.675,5.165,31.7,31.7,0,0,1-5.631,12.7,23.454,23.454,0,0,1-9.093,7.452,18.759,18.759,0,0,1-13.6.792v-.01a21.8,21.8,0,0,1-9.372-6.118,31,31,0,0,1-7.386-14.814c-.173-.852-.318-1.725-.434-2.6a36.876,36.876,0,0,1-.3-4.754c0-.763.02-1.515.078-2.257.009-.171.019-.341.029-.5q.072-.977.2-1.945c1.292-10.09,6.692-18.435,13.991-22.256a2.043,2.043,0,0,1,.212-.11,19.063,19.063,0,0,1,8.755-2.137c11.021,0,20.258,9.6,22.649,22.507a32.9,32.9,0,0,1,.549,4.433C188.931,291.349,188.96,292.111,188.96,292.874Z"/>
                <g id="Group_43" data-name="Group 43" transform="translate(328.298 581.421) rotate(180)">
                  <path id="Path_98" data-name="Path 98" class="cls-6" d="M156.131,294.1a3.254,3.254,0,0,1-3.194-3.3.482.482,0,1,1,.964,0,2.233,2.233,0,1,0,4.46,0,.482.482,0,1,1,.964,0,3.254,3.254,0,0,1-3.194,3.3Z"/>
                  <path id="Path_99" data-name="Path 99" class="cls-6" d="M172.167,294.1a3.254,3.254,0,0,1-3.194-3.3.482.482,0,1,1,.964,0,2.233,2.233,0,1,0,4.46,0,.482.482,0,1,1,.964,0A3.254,3.254,0,0,1,172.167,294.1Z"/>
                </g>
                <g id="Group_44" data-name="Group 44">
                  <path id="Path_100" data-name="Path 100" class="cls-6" d="M151.152,286.431s5.6-3.88,6.087-3.472.982.919.491,1.328-5.4,3.37-5.793,3.268S151.25,287.351,151.152,286.431Z"/>
                  <path id="Path_101" data-name="Path 101" class="cls-6" d="M176.98,286.329s-5.6-3.88-6.087-3.472-.982.919-.491,1.328,5.4,3.37,5.793,3.268S176.882,287.248,176.98,286.329Z"/>
                </g>
                <path id="Path_102" data-name="Path 102" class="cls-2" d="M164.275,292.729c1.44-.068,3.011,8.386,2.389,9.067s-3.436.817-4.221.2S162.835,292.8,164.275,292.729Z"/>
                <path id="Path_103" data-name="Path 103" class="cls-7" d="M160.021,304.44a28.678,28.678,0,0,0,5.04.612,14.062,14.062,0,0,0,4.647-1.021s-1.08,4.119-4.647,4.119S160.021,304.44,160.021,304.44Z"/>
              </g>
              <g id="Group_46" data-name="Group 46">
                <path id="Path_106" data-name="Path 106" class="cls-1" d="M143.146,300.222c-2.337-.081-6.292-2.442-6.292-5.516a4.278,4.278,0,0,1,4.191-4.36,3.945,3.945,0,0,1,1.438.269c-.056.748-.079,1.5-.079,2.256A36.526,36.526,0,0,0,143.146,300.222Z"/>
                <path id="Path_107" data-name="Path 107" class="cls-8" d="M140.647,296.976a.565.565,0,1,1-.565-.587A.576.576,0,0,1,140.647,296.976Z"/>
              </g>
              <g id="Group_47" data-name="Group 47">
                <path id="Path_108" data-name="Path 108" class="cls-1" d="M194.473,294.706c0,3.05-3.922,5.411-6.259,5.516a36.455,36.455,0,0,0,.742-7.351c0-.76-.023-1.52-.079-2.268a4.017,4.017,0,0,1,1.4-.257,4.278,4.278,0,0,1,4.2,4.36Z"/>
                <path id="Path_109" data-name="Path 109" class="cls-8" d="M191.479,296.976a.565.565,0,1,1-.564-.587.576.576,0,0,1,.564.587Z"/>
              </g>
            </g>
          </g>
          <path id="Path_110" data-name="Path 110" class="cls-6" d="M189.134,290.739s-1.514-.221-5.053-4.319a16.377,16.377,0,0,1-3.6-9.5s-3.143.5-4.937-.279a2.812,2.812,0,0,1-1.8-2.42s-2.979,2.815-5.448,3.1-5.611-1.292-5.611-1.292a7.9,7.9,0,0,1-4.108,2.468c-2.41.453-5.39-.954-5.39-.954a33.1,33.1,0,0,1-5.727,7.53l-5.39,5.39s-1.427-11.937,2.478-19.178c.145-.261.289-.511.444-.762a21.409,21.409,0,0,1,6.45-7.154h.01c2.709-1.774,6.421-3.124,11.85-3.52C194.813,257.542,189.134,290.739,189.134,290.739Z"/>
          <g id="Group_50" data-name="Group 50">
            <path id="Path_111" data-name="Path 111" class="cls-9" d="M151.443,263.366a21.409,21.409,0,0,0-6.45,7.154c-.155.251-.3.5-.444.762l-.848.925s-.367-.318-.849-.8c-.2-.212-.444-.453-.685-.713-.26-.29-.53-.608-.771-.926a6.784,6.784,0,0,1-.569-.877,1.64,1.64,0,0,1-.27-1.013c.222-1.35,4.657-7.135,6.171-6.8a2.048,2.048,0,0,1,.3.086,9.069,9.069,0,0,1,1.022.4c.338.154.7.327,1.061.5.328.174.646.347.945.511C150.653,262.9,151.163,263.192,151.443,263.366Z"/>
            <path id="Path_112" data-name="Path 112" class="cls-10" d="M148.049,261.563c-2.42,1.909-5.515,6.469-6.653,8.2a6.784,6.784,0,0,1-.569-.877,43.874,43.874,0,0,1,6.2-7.724A9.074,9.074,0,0,1,148.049,261.563Z"/>
            <path id="Path_113" data-name="Path 113" class="cls-10" d="M150.055,262.575c-2.112,1.282-5.573,6.287-7.2,8.832-.2-.212-.444-.453-.685-.713,1.254-1.948,4.5-6.788,6.943-8.63C149.438,262.238,149.756,262.411,150.055,262.575Z"/>
          </g>
          <g id="Group_51" data-name="Group 51">
            <path id="Path_114" data-name="Path 114" class="cls-9" d="M190.831,269.662a8.971,8.971,0,0,1-.6.887c-.231.28-.482.569-.723.829s-.473.5-.675.714c-.453.453-.791.752-.791.752l-.848-.935c-.135-.27-.28-.521-.434-.772a21.661,21.661,0,0,0-6.441-7.222c.251-.154.7-.414,1.234-.713.29-.164.608-.338.935-.511.3-.154.608-.318.917-.453a9.958,9.958,0,0,1,1.051-.454,5.008,5.008,0,0,1,.568-.173c1.514-.347,5.94,5.5,6.162,6.855a1.952,1.952,0,0,1-.355,1.2Z"/>
            <path id="Path_115" data-name="Path 115" class="cls-10" d="M190.831,269.662a8.971,8.971,0,0,1-.6.887c-.81-1.4-3.972-6.624-6.826-8.311a9.951,9.951,0,0,1,1.051-.454C187.138,263.7,189.809,267.926,190.831,269.662Z"/>
            <path id="Path_116" data-name="Path 116" class="cls-10" d="M189.51,271.378c-.231.261-.473.5-.675.714-1.572-2.449-5.139-7.589-7.28-8.89.29-.164.608-.338.935-.511C185,264.561,188.363,269.6,189.51,271.378Z"/>
          </g>
        </g>
      </g>
      <g id="Group_54" data-name="Group 54">
        <rect id="Rectangle_5" data-name="Rectangle 5" class="cls-11" width="109.638" height="63.806" transform="translate(114.716 363.42)"/>
        <path id="Path_117" data-name="Path 117" class="cls-12" d="M210.481,363.585l-20.383-.1-39.619-.174-4.214.1-20.537.463a39.443,39.443,0,0,1-6.152-5.4h89.565a36.089,36.089,0,0,1,1.34,5.111Z"/>
        <path id="Path_118" data-name="Path 118" class="cls-1" d="M230.5,379.173s-9.117-4.241-10.193-3.228,4.432,4.178,4.432,4.178-5.065-1.2-5.445.063,5.128,3.356,5.128,3.356-5.571-1.14-5.381.316,6.2,2.659,6.2,2.659-5.571-.443-5.571,1.013,10.256,2.785,11.015,1.646-.759-1.836-.759-2.406,1.3-.348,1.614-1.108-1.234-1.392-1.234-1.772,1.266-.633,1.392-1.266-1.371-1.119-1.329-1.267,1.245-.411,1.456-.917S230.5,379.173,230.5,379.173Z"/>
      </g>
    </g>
    <text id="Equal_Opportunity" data-name="Equal Opportunity" class="cls-13" transform="translate(1190 370)"><tspan x="0" y="0">Nothing Personal</tspan></text>
  </g>
</svg>
