<svg xmlns="http://www.w3.org/2000/svg" width="428.34" height="306.211" viewBox="0 0 428.34 306.211">
  <g id="Group_199" data-name="Group 199" transform="translate(-1487.976 -2489.987)">
    <g id="OBJECTS" transform="translate(1447 2419)">
      <path id="Path_381" data-name="Path 381" d="M43.485,374.948s-8.792-29.09,6.542-50.158,27.194-18.228,32.6-58.648,32.9-92.236,84.818-84.662,60.325,20.426,97.455,0,72.369-26.1,94.749-1.265-3.47,65.229,42.122,69.034,46.925,25.222,46.925,51.514,10,21.625,17.667,38.959-2,36.351-2,36.351H43.693Z" fill="#dbedf9"/>
      <g id="Group_190" data-name="Group 190">
        <g id="Group_185" data-name="Group 185">
          <path id="Path_382" data-name="Path 382" d="M336.616,226.632l3.7,3.762,20-4.075s1.243,13,1.291,15.811-11.385,41.621-11.385,41.621H317.415Z" fill="#ececec"/>
          <path id="Path_383" data-name="Path 383" d="M290.881,287.971s17.9,12.37,30.124,8.587-8.862-15.717-8.862-15.717S295.392,287.535,290.881,287.971Z" fill="#353c5a"/>
          <path id="Path_384" data-name="Path 384" d="M319.356,295.781l-11.836,21.15-22.7-9.7-6.985,8.538s30.59,26.583,34.311,26.777S342.834,314.8,342.834,314.8Z" fill="#353c5a"/>
          <path id="Path_385" data-name="Path 385" d="M348.638,283.751H312.273s-2.231,8.926,11.74,21.344a117.323,117.323,0,0,0,29.493,18.822l16.687,41.911h14.941s-8.461-40.941-9.663-43.076S348.638,283.751,348.638,283.751Z" fill="#4f5987"/>
          <path id="Path_386" data-name="Path 386" d="M350.222,235.582l2.217,3.929,9.168-10.478s-3.824-8.5-4.734-7.7S350.222,235.582,350.222,235.582Z" fill="#e1e4f0"/>
          <path id="Path_387" data-name="Path 387" d="M342.543,225.395l-5.927,1.237,4.617,12.879,5.094-3.929Z" fill="#e1e4f0"/>
          <path id="Path_388" data-name="Path 388" d="M360.007,217.682l-2.62,9.717-7.165,8.183h-3.895l-5.094-10.333Z" fill="#e69c83"/>
          <path id="Path_389" data-name="Path 389" d="M340.069,195.27s-2.183-2.037-3.2-6.839,1.309-6.112,2.474-4.657,2.619,3.638,2.619,3.638a34.218,34.218,0,0,1,0-6.694c.388-3.008,3.008-5.433,4.075-3.687s7.276,8.538,12.709,12.612,10.672,7.568,10.769,13.389-5.53,13.291-5.53,13.291l-7.082,2.62Z" fill="#4d352c"/>
          <path id="Path_390" data-name="Path 390" d="M340.069,195.27s-7.858,20.083-3.783,27.36,12.951,4.8,16.735,1.891a48.089,48.089,0,0,0,5.53-4.8s2.474,1.746,5.239-1.31,1.455-6.839-1.164-5.966-5.385,4.8-5.385,4.8l-1.455-1.31s4.075-9.75,3.784-11.351S345.745,199.636,340.069,195.27Z" fill="#ffad91"/>
          <path id="Path_391" data-name="Path 391" d="M336.616,226.632s.834,21.756-5.424,36.891-9.459,21.683-19.646,24.448-20.665,0-20.665,0,10.187-6.694,16.154-14.261,9.6-13.243,9.6-13.243-7.276,9.313-13.388,4.511-3.347-33.617-3.347-33.617l13.863-.967v14.744s13.35-17.8,14.709-18.506S336.616,226.632,336.616,226.632Z" fill="#6977b4"/>
          <path id="Path_392" data-name="Path 392" d="M360.316,226.319s.709,15.957-3.511,30.509-11.351,23.867-14.7,30.561a109.664,109.664,0,0,0-5.454,13.1s4.726-3.929,9.674-5.094,12.515-.873,12.515-.873,4.972-26.195,6.488-33.471a80.858,80.858,0,0,1,4.186-13.534l44.772-18.337-1.31-13.243S367.175,226.079,360.316,226.319Z" fill="#6977b4"/>
          <path id="Path_393" data-name="Path 393" d="M343.137,238.042l1.346,4.088,5.239.582,2.2-4.113-1.7-3.018h-3.895Z" fill="#9e4853"/>
          <path id="Path_394" data-name="Path 394" d="M344.484,242.13s-2.37,8.458-7.831,9.541-17.1-.227-23.506,3.848-7.713,9.168-7.713,9.168v8l11.351-2.183s1.669-9.817,8.877-10.769,12.9,1.31,18.822-4.22a16.725,16.725,0,0,0,5.239-12.807Z" fill="#d2606e"/>
          <path id="Path_395" data-name="Path 395" d="M299.9,231.361s.727-3.056,0-4.511-2.11-4.439-1.965-6.112a4.348,4.348,0,0,1,1.139-2.62s.235-5.239,1.149-6.476,4.479-.873,5.789,0,1.019,2.11,2.328,2.547,6.7.437,7.422,3.856.728,7.422-.655,9.169a10.318,10.318,0,0,1-1.758,1.963l.075,1.241Z" fill="#ffad91"/>
          <path id="Path_396" data-name="Path 396" d="M412.978,215.935s21.878-7.179,22.9-6.888,1.382,2.692,0,3.784-8.2,4.269-8.2,4.269-1.456.145-1.237,2.182,4.681,1.7,2.825,5.429c-.7,1.409-7.021,2.115-8.574,1.993-1.408-.11-6.4,2.474-6.4,2.474Z" fill="#ffad91"/>
          <path id="Path_397" data-name="Path 397" d="M370.193,365.828a7.315,7.315,0,0,0-.582,3.105c.194,1.261,1.456,6.015,1.456,6.015h28.717s2.328-1.358,1.94-3.686-16.59-5.434-16.59-5.434Z" fill="#2a353c"/>
          <path id="Path_398" data-name="Path 398" d="M284.817,307.229s-3.25-5.724-4.923-5.724-2.11.437-3.784,2.11-15.062,16.227-14.553,17.828,16.275-5.676,16.275-5.676Z" fill="#2a353c"/>
          <path id="Path_399" data-name="Path 399" d="M342.422,208.586a1.456,1.456,0,1,1-1.455-1.455A1.455,1.455,0,0,1,342.422,208.586Z" fill="#4d352c"/>
          <path id="Path_400" data-name="Path 400" d="M349.844,211.982a1.455,1.455,0,1,1-1.455-1.456A1.456,1.456,0,0,1,349.844,211.982Z" fill="#4d352c"/>
          <line id="Line_3" data-name="Line 3" x2="2.061" y2="2.619" transform="translate(340.967 202.304)" fill="none" stroke="#4d352c" stroke-linecap="round" stroke-miterlimit="10" stroke-width="1.63"/>
          <line id="Line_4" data-name="Line 4" x2="4.148" y2="0.194" transform="translate(349.844 207.398)" fill="none" stroke="#4d352c" stroke-linecap="round" stroke-miterlimit="10" stroke-width="1.63"/>
          <g id="Group_184" data-name="Group 184">
            <path id="Path_401" data-name="Path 401" d="M342.11,223.63h0a5.562,5.562,0,0,1-2.955-7.29l1.014-2.394,10.245,4.335-1.013,2.394A5.564,5.564,0,0,1,342.11,223.63Z" fill="#9e4853"/>
            <rect id="Rectangle_19" data-name="Rectangle 19" width="11.125" height="2.6" transform="translate(340.169 213.946) rotate(22.936)" fill="#ececec"/>
            <path id="Path_402" data-name="Path 402" d="M348.535,222.048a6.591,6.591,0,0,0-3.971-2.111,6.032,6.032,0,0,0-5.026,1.455,5.516,5.516,0,0,0,9,.656Z" fill="#d2606e"/>
          </g>
        </g>
        <g id="Group_187" data-name="Group 187">
          <path id="Path_403" data-name="Path 403" d="M208.7,300.267l-4.738,6.982s-.634-1.635-3.683-2.127-20.255-4.359-20.255-4.359l-2.493,8.855s31.294,14.587,35.034,13.215S230.521,296.4,230.521,296.4Z" fill="#cd8b74"/>
          <path id="Path_404" data-name="Path 404" d="M246.335,292s4.758,7.474,5.589,10.134,6.317,43.055,6.317,43.055l-10.888,2.494s-6.733-19.616-8.561-26.764-1.5-11.138-1.5-11.138l-12.3-11.3Z" fill="#ffad91"/>
          <path id="Path_405" data-name="Path 405" d="M216.059,258.126s-9.1,4.239-10.847,11.6.5,14.338,1.995,20.821a48.879,48.879,0,0,1,1.5,9.725s6.234,1.621,18.2-1a72.168,72.168,0,0,0,20.447-7.855s-8.728-12.094-9.974-17.58a50.148,50.148,0,0,1-1.33-8.935Z" fill="#2a353c"/>
          <path id="Path_406" data-name="Path 406" d="M250.927,233.648a12.559,12.559,0,0,0,8.312-6.857c2.992-5.943-.333-10.1,2.992-17.081s2.7-10.431,2.452-14.047-2.343-4.824-4.1-5.836a5.522,5.522,0,0,0-3.309-.772s-1.7-5.485-11.422-4.737-12.967,6.358-14.962,9.35-3.74,5.86-9.1,6.11-12.218,3.379-14.462,9.17-.374,11.377-3.117,15.94-8.6,12.542,0,21.02,16.706,6.8,16.706,6.8Z" fill="#f6df3e"/>
          <path id="Path_407" data-name="Path 407" d="M246.664,225.752l13.988,17.787,13.714-9.392,5.652,6.15s-19.2,14.13-21.029,13.881l-1.828-.249-10.5-11.221Z" fill="#9e4853"/>
          <path id="Path_408" data-name="Path 408" d="M244.361,222.676a9.329,9.329,0,0,1,3.74,5.653c.665,3.657,2.327,11.968,0,15.459a13.572,13.572,0,0,1-5.985,4.821L236.049,264.9a29.6,29.6,0,0,1-10.515-2.41c-5.361-2.369-9.475-4.364-9.475-4.364s1.371-7.688,1.787-12.01a72.21,72.21,0,0,0,.249-8.561l-7.231,3.241L202.8,259.415l-7.065-3.575s5.984-17.7,7.4-19.7,18.12-12.967,22.525-15.377a32.058,32.058,0,0,1,9.309-3.159Z" fill="#d2606e"/>
          <path id="Path_409" data-name="Path 409" d="M245.857,221.513l-1,3.325a14.458,14.458,0,0,1-.748,6.15,23.89,23.89,0,0,1-3.906,7.148,82.014,82.014,0,0,1-3.574-11.969c-.915-5.07-1.663-8.561-1.663-8.561l1.081-2.161Z" fill="#e69c83"/>
          <path id="Path_410" data-name="Path 410" d="M256.329,198.9a26.8,26.8,0,0,1,.915,7.314c-.25,2.992-2.244,12.551-4.987,15.211s-5.237,2.909-7.9,1.246-8.312-7.231-8.312-7.231,2.826-10.556,5.735-10.722,4.821,1.745,8.4.582S256.329,198.9,256.329,198.9Z" fill="#ffad91"/>
          <path id="Path_411" data-name="Path 411" d="M202.8,259.415s2.41,3.012,2.41,4.2-2.2.623-2.41,1.621.291,3.054-.271,4.675-1.932,1.309-3.054.374a13.8,13.8,0,0,0-1.572-1.2s-4.1-1.735-5.036-4.665,2.868-8.582,2.868-8.582Z" fill="#ffad91"/>
          <path id="Path_412" data-name="Path 412" d="M274.366,234.147a4.686,4.686,0,0,1-1.164-2.66c-.166-1.662-.249-2.909.582-3.325a2.979,2.979,0,0,1,1.995,0s4.4-3.657,5.569-3.241,1.995,2.493,1.912,3.408a6.662,6.662,0,0,1-.333,1.579s2.411,4.821,2.411,6.067-1.5,2.577-2.743,3.408a5.816,5.816,0,0,1-2.577.914Z" fill="#ffad91"/>
          <path id="Path_413" data-name="Path 413" d="M258.241,345.192s3.325,9.185,6.317,15.543,5.611,8.229,7.107,8.478,5.485.873,6.732,1.995,1.372,3.74,1.372,3.74H263.311s-5.984-8.6-6.982-9.226a2.449,2.449,0,0,0-2.265.109l1.517,9.117h-2.992s-4.114-10.722-4.114-13.465a8.16,8.16,0,0,1,1.122-4.364l-2.244-9.433Z" fill="#2a353c"/>
          <path id="Path_414" data-name="Path 414" d="M177.534,309.618s-10.141-1.489-12.883.045-6.816,7.02-8.728,10.012-1.163,2.66-2.909,3.906a5.259,5.259,0,0,1-4.073.582l6.068-23.4s6.151-1.618,6.9-2.616a2.04,2.04,0,0,0-1.829-3.075,42.217,42.217,0,0,0-4.821,0l.748-2.826s10.722-.914,12.634.831a7.343,7.343,0,0,1,2.244,3.907l9.143,3.779Z" fill="#2a353c"/>
          <path id="Path_415" data-name="Path 415" d="M256.059,208.025a1.247,1.247,0,1,1-1.247-1.247A1.247,1.247,0,0,1,256.059,208.025Z" fill="#4d352c"/>
          <path id="Path_416" data-name="Path 416" d="M249.887,208.025a1.246,1.246,0,1,1-1.246-1.247A1.246,1.246,0,0,1,249.887,208.025Z" fill="#4d352c"/>
          <g id="Group_186" data-name="Group 186">
            <path id="Path_417" data-name="Path 417" d="M246.878,220.376h0a5.5,5.5,0,0,0,5.91-5.06l.2-2.563-10.969-.85-.2,2.564A5.5,5.5,0,0,0,246.878,220.376Z" fill="#9e4853"/>
            <rect id="Rectangle_20" data-name="Rectangle 20" width="11.002" height="2.571" transform="translate(252.788 215.316) rotate(-175.573)" fill="#ececec"/>
            <path id="Path_418" data-name="Path 418" d="M241.954,216.066a6.524,6.524,0,0,1,4.448-.049,5.965,5.965,0,0,1,3.753,3.563,5.456,5.456,0,0,1-8.2-3.514Z" fill="#d2606e"/>
          </g>
          <path id="Path_419" data-name="Path 419" d="M253.866,203.476s2.577-2.539,4.385,0" fill="none" stroke="#4d352c" stroke-linecap="round" stroke-miterlimit="10" stroke-width="1.396"/>
          <path id="Path_420" data-name="Path 420" d="M249.625,203.455a2.885,2.885,0,0,0-4.446,0" fill="none" stroke="#4d352c" stroke-linecap="round" stroke-miterlimit="10" stroke-width="1.396"/>
        </g>
        <g id="Group_189" data-name="Group 189">
          <path id="Path_421" data-name="Path 421" d="M184.28,251.785s-1.031-4.855.559-5.441,3.6.084,4.939-.5,3.6-2.512,4.772-.67.753,3.851,1.088,5.608,1.841,3.677,1.339,6.275-5.8,4.793-5.8,4.793l-6.9-4.793Z" fill="#cd8b74"/>
          <path id="Path_422" data-name="Path 422" d="M165.05,236.383l9.035,24.275,9.818-5.668,7.968,7.51s-12.05,16.49-17.786,15.151-15.241-18.22-15.241-18.22Z" fill="#a9cae0"/>
          <path id="Path_423" data-name="Path 423" d="M138.883,310.465s-13.812,26.87-20.592,29.884-46.458,7.784-46.458,7.784l-1.6-10.547,35.5-14.565,15.067-40.18Z" fill="#20282d"/>
          <path id="Path_424" data-name="Path 424" d="M152.444,288.366s25.113,23.71,27.122,26.922S197.9,365.963,197.9,365.963l-13.812,2.009L164,328.169s-29.382-13.184-37.669-26.494-9.292-20.341-9.292-20.341Z" fill="#2a353c"/>
          <path id="Path_425" data-name="Path 425" d="M178.561,207.754s4.772.251,5.588-4.332a7.5,7.5,0,0,0-2.449-7.094s.879-6.969-5.211-7.848a8.349,8.349,0,0,0-8.6,3.579,4.555,4.555,0,0,0-3.829-.063,4.953,4.953,0,0,0-2.825,3.2s-5.944-.552-9.041,2.863-4.52,13.879-1,19.571a16.35,16.35,0,0,0,9.793,6.948Z" fill="#2a353c"/>
          <path id="Path_426" data-name="Path 426" d="M147.3,220.813a27.938,27.938,0,0,0-13.854,12.556c-5.19,9.543-13.226,30.3-15.737,35.492s-5.19,9.041-2.344,13.561,13.059,9.878,23.271,10.715,15.737-2.846,16.407-4.52.335-4.018.67-9.878,5.357-22.266,7.366-28.8a137.3,137.3,0,0,0,3.432-15.444Z" fill="#b7dbf3"/>
          <path id="Path_427" data-name="Path 427" d="M150.585,218.4l-3.289,2.412a47.6,47.6,0,0,0,6.4,12.054c4.269,5.65,5.022,5.9,5.022,5.9l4.646-2.26.754,2.888,2.385-4.9Z" fill="#ececec"/>
          <path id="Path_428" data-name="Path 428" d="M178.561,207.754l.5,10.966s1.841,4.353,1.423,5.106-4.521,1.842-4.521,1.842-.92,8.454-2.511,9.375-9.71.754-14.733-2.846-5.692-9.794-5.692-9.794a3.493,3.493,0,0,1-3.432-3.432c-.418-3.516,2.511-5.19,3.934-4.939a2.476,2.476,0,0,1,1.842,1.089l-.084,5.524a3.458,3.458,0,0,0,2.846-1.339c.921-1.423,0-7.869.921-10.8a39.042,39.042,0,0,1,1.423-4.018Z" fill="#ffad91"/>
          <path id="Path_429" data-name="Path 429" d="M174.585,214.533a1.779,1.779,0,1,1-1.779-1.779A1.778,1.778,0,0,1,174.585,214.533Z" fill="#4d352c"/>
          <path id="Path_430" data-name="Path 430" d="M174.585,210.956a4.5,4.5,0,0,0-6.257,0" fill="none" stroke="#4d352c" stroke-linecap="round" stroke-miterlimit="10" stroke-width="1.406"/>
          <g id="Group_188" data-name="Group 188">
            <path id="Path_431" data-name="Path 431" d="M165.378,231.019h0a6.354,6.354,0,0,0,7.877-4.324l.83-2.852-12.2-3.553-.83,2.851A6.354,6.354,0,0,0,165.378,231.019Z" fill="#9e4853"/>
            <rect id="Rectangle_21" data-name="Rectangle 21" width="12.708" height="2.97" transform="translate(173.255 226.695) rotate(-163.763)" fill="#ececec"/>
            <path id="Path_432" data-name="Path 432" d="M160.83,224.981a7.526,7.526,0,0,1,5.039,1c2.72,1.822,3.291,3.886,3.4,4.915a6.3,6.3,0,0,1-8.44-5.912Z" fill="#d2606e"/>
          </g>
          <path id="Path_433" data-name="Path 433" d="M184.086,367.972s-.419,5.525.753,6.53,27.959,0,27.959,0,.837-.558.837-3.042-15.737-5.5-15.737-5.5Z" fill="#20282d"/>
          <path id="Path_434" data-name="Path 434" d="M70.944,337.168s-5.512-.567-6.547.577-1.177,25.309-1.177,25.309.535.851,3.017.918,5.919-15.583,5.919-15.583Z" fill="#20282d"/>
          <path id="Path_435" data-name="Path 435" d="M174.085,258.23l-15.311,6.327s-6.327-28.426-9.216-31.816-10.3-3.767-10.675,6.153,11.552,38.924,13.561,40.18,10.663-1.381,15.125-3.641,11.243-7.785,11.243-7.785Z" fill="#dbedf9"/>
          <path id="Path_436" data-name="Path 436" d="M174.085,258.23s.458-4.771,2.216-5.148a2.43,2.43,0,0,1,2.511.628s3.684-5.273,5.86-4.353,1.507,3.432,1.507,3.432a7.192,7.192,0,0,1,1.172,3.014c0,1.256.5,5.022-.335,6.445s-8.959,3.894-8.959,3.894Z" fill="#ffad91"/>
        </g>
      </g>
      <path id="Path_437" data-name="Path 437" d="M465.235,377.2H43.485a1.125,1.125,0,0,1-1.125-1.125h0a1.125,1.125,0,0,1,1.125-1.125h421.75a1.125,1.125,0,0,1,1.125,1.125h0A1.125,1.125,0,0,1,465.235,377.2Z" fill="#7f868a"/>
      <g id="Group_193" data-name="Group 193">
        <circle id="Ellipse_2" data-name="Ellipse 2" cx="26.456" cy="26.456" r="26.456" transform="translate(220.946 103.544)" fill="#6977b4"/>
        <g id="Group_192" data-name="Group 192">
          <rect id="Rectangle_22" data-name="Rectangle 22" width="4.614" height="9.431" transform="translate(245.095 132.234)" fill="#e3ce39"/>
          <g id="Group_191" data-name="Group 191">
            <path id="Path_438" data-name="Path 438" d="M237.286,126.91H239.3v-8.29h-2.016a4.145,4.145,0,0,0-4.145,4.145h0A4.145,4.145,0,0,0,237.286,126.91Z" fill="none" stroke="#e3ce39" stroke-miterlimit="10" stroke-width="2.738"/>
            <path id="Path_439" data-name="Path 439" d="M257.518,126.91H255.5v-8.29h2.016a4.145,4.145,0,0,1,4.145,4.145h0A4.145,4.145,0,0,1,257.518,126.91Z" fill="none" stroke="#e3ce39" stroke-miterlimit="10" stroke-width="2.738"/>
          </g>
          <path id="Rectangle_23" data-name="Rectangle 23" d="M0,0H19.877a0,0,0,0,1,0,0V11.5a9.938,9.938,0,0,1-9.938,9.938h0A9.938,9.938,0,0,1,0,11.5V0A0,0,0,0,1,0,0Z" transform="translate(237.464 114.817)" fill="#f6df3e"/>
          <path id="Path_440" data-name="Path 440" d="M252.232,141.381h-9.66a1.9,1.9,0,0,0-1.9,1.9h0a1.9,1.9,0,0,0,1.9,1.9h9.66a1.9,1.9,0,0,0,1.9-1.9h0A1.9,1.9,0,0,0,252.232,141.381Z" fill="#e3ce39"/>
        </g>
      </g>
      <g id="Group_195" data-name="Group 195">
        <circle id="Ellipse_3" data-name="Ellipse 3" cx="26.456" cy="26.456" r="26.456" transform="translate(82.624 142.949)" fill="#2eabb0"/>
        <circle id="Ellipse_4" data-name="Ellipse 4" cx="17.734" cy="17.734" r="17.734" transform="translate(91.345 151.671)" fill="#6977b4"/>
        <path id="Path_441" data-name="Path 441" d="M116.166,169.4a7.087,7.087,0,1,1-7.087-7.086A7.086,7.086,0,0,1,116.166,169.4Z" fill="#d2606e"/>
        <g id="Group_194" data-name="Group 194">
          <path id="Path_442" data-name="Path 442" d="M109.85,181.48V170.67h10.316" fill="none" stroke="#ececec" stroke-linecap="round" stroke-miterlimit="10" stroke-width="3.651"/>
          <line id="Line_5" data-name="Line 5" x2="19.09" y2="19.09" transform="translate(109.85 170.67)" fill="none" stroke="#ececec" stroke-linecap="round" stroke-miterlimit="10" stroke-width="3.651"/>
        </g>
      </g>
      <g id="Group_196" data-name="Group 196">
        <circle id="Ellipse_5" data-name="Ellipse 5" cx="26.456" cy="26.456" r="26.456" transform="translate(366.462 130.569) rotate(-25.676)" fill="#de8d43"/>
        <path id="Path_443" data-name="Path 443" d="M401.768,126.969l5.192,10.521,11.61,1.687-8.4,8.189,1.983,11.563-10.385-5.46-10.385,5.46,1.983-11.563-8.4-8.189,11.61-1.687Z" fill="#f6df3e"/>
      </g>
      <g id="Group_197" data-name="Group 197">
        <circle id="Ellipse_6" data-name="Ellipse 6" cx="26.456" cy="26.456" r="26.456" transform="translate(294.494 123.227) rotate(-80.859)" fill="#d2606e"/>
        <path id="Path_444" data-name="Path 444" d="M338.047,89.45a9.356,9.356,0,0,0-13.23,0,9.355,9.355,0,1,0-13.23,13.23l13.23,13.231,13.23-13.231A9.354,9.354,0,0,0,338.047,89.45Z" fill="#ececec"/>
      </g>
      <g id="Group_198" data-name="Group 198">
        <circle id="Ellipse_7" data-name="Ellipse 7" cx="26.456" cy="26.456" r="26.456" transform="translate(134.598 77.089)" fill="#4ba5e0"/>
        <path id="Path_445" data-name="Path 445" d="M148.25,103.358l13.269,8.534,23.669-29.2" fill="none" stroke="#f6df3e" stroke-linecap="round" stroke-miterlimit="10" stroke-width="9.127"/>
      </g>
    </g>
  </g>
</svg>
