<svg xmlns="http://www.w3.org/2000/svg" xmlns:xlink="http://www.w3.org/1999/xlink" width="943.129" height="1066.549" viewBox="0 0 943.129 1066.549">
  <defs>
    <clipPath id="clip-path">
      <path id="path316" d="M831.39-490.048a16.91,16.91,0,0,1-15.425-9.908,16.76,16.76,0,0,1,8.427-22.089,16.54,16.54,0,0,1,6.769-1.476c6.4,0,12.283,3.872,15.419,9.953,2.941,8,.667,17.019-7.12,21.408a16.374,16.374,0,0,1-8.069,2.112"/>
    </clipPath>
  </defs>
  <g id="g10" transform="translate(-135.175 1154.881)">
    <g id="g12">
      <path id="path14" d="M304.389-262.722s-3.483-15.224,1.337-16c2.3-.368,3.519,3.632,6.433,4.376,5.575,1.424,9.84,8.259,9.84,8.259l-17.611,3.361" fill="#f78e49"/>
      <path id="path16" d="M572.656-698.606c0-5.737-10.444-10.388-23.325-10.388s-23.325,4.651-23.325,10.388,10.443,10.388,23.325,10.388,23.325-4.651,23.325-10.388" fill="#23222d"/>
      <path id="path18" d="M1032.78-92.773H140.466a5.29,5.29,0,0,1-5.291-5.292,5.29,5.29,0,0,1,5.291-5.29h892.31a5.291,5.291,0,0,1,5.291,5.291,5.291,5.291,0,0,1-5.291,5.291" fill="#96969a"/>
      <path id="path20" d="M852.642-365.59l-1.117-1.193a11.873,11.873,0,0,0-16.783-.549l-7.365,6.9a4.228,4.228,0,0,1-5.975-.2l-.059-.063a4.228,4.228,0,0,0-5.976-.2l-15.021,14.072a4.227,4.227,0,0,0-.2,5.976l12.185,13.007,13.688-12.821L824.5-342.28l4.944-1.577,23.2-21.732" fill="#66241b"/>
      <path id="path22" d="M823.961-359.459,776.8-406.835a15.987,15.987,0,0,0-11.335-4.711h-17.8v30.117h8.647a7.453,7.453,0,0,1,5.276,2.185l41.081,41.079,21.3-21.3" fill="#23222d"/>
      <path id="path24" d="M290.211-92.773H184.693a15.279,15.279,0,0,1-15.281-15.282V-216.091a15.28,15.28,0,0,1,15.282-15.281H290.211a15.281,15.281,0,0,1,15.281,15.281v108.039a15.28,15.28,0,0,1-15.281,15.28" fill="#c61e25"/>
      <path id="path26" d="M454.944-264.135H349.424a15.281,15.281,0,0,1-15.281-15.28V-424.359a15.281,15.281,0,0,1,15.281-15.281h105.52a15.281,15.281,0,0,1,15.281,15.281v144.944a15.281,15.281,0,0,1-15.28,15.28" fill="#e03d20"/>
      <path id="path28" d="M625.3-92.773H519.777A15.28,15.28,0,0,1,504.5-108.054V-476.985a15.281,15.281,0,0,1,15.281-15.281H625.3a15.281,15.281,0,0,1,15.28,15.28v368.934a15.28,15.28,0,0,1-15.28,15.28" fill="#f9ae0b"/>
      <path id="path30" d="M811.185-92.773H705.664a15.28,15.28,0,0,1-15.28-15.28V-369.367a15.281,15.281,0,0,1,15.28-15.281H811.185a15.283,15.283,0,0,1,15.281,15.279v261.316a15.281,15.281,0,0,1-15.28,15.28" fill="#d99316"/>
      <path id="path32" d="M268.233-92.773H162.712a15.28,15.28,0,0,1-15.28-15.28V-216.091a15.281,15.281,0,0,1,15.28-15.281H268.233a15.281,15.281,0,0,1,15.28,15.28v108.04a15.28,15.28,0,0,1-15.28,15.28" fill="#e11d25"/>
      <path id="path34" d="M448.239-424.359v144.946a15.279,15.279,0,0,1-15.281,15.28H327.439a15.281,15.281,0,0,1-15.267-14.52c-.013-.253-.013-.507-.013-.76V-424.359a15.279,15.279,0,0,1,15.281-15.28H432.959a15.279,15.279,0,0,1,15.28,15.281" fill="#f1491c"/>
      <path id="path36" d="M329.666-267.333l-1.96,3.2h-.267a15.281,15.281,0,0,1-15.267-14.52l17.493,11.32" fill="#c13622"/>
      <path id="path38" d="M448.239-319.493v40.08a15.279,15.279,0,0,1-15.281,15.28h-32l21.213-60.507c11.333,1.347,14.027.707,14.027.707s6.907-2.373,12.04,4.44" fill="#c13622"/>
      <path id="path40" d="M603.317-92.773H497.8a15.28,15.28,0,0,1-15.28-15.28V-476.985a15.281,15.281,0,0,1,15.28-15.281H603.32a15.282,15.282,0,0,1,15.28,15.279v368.935a15.281,15.281,0,0,1-15.28,15.28" fill="#fad206"/>
      <path id="path42" d="M789.2-92.773H683.685A15.28,15.28,0,0,1,668.4-108.054V-369.367a15.282,15.282,0,0,1,15.28-15.281H789.2a15.281,15.281,0,0,1,15.28,15.28v261.315a15.28,15.28,0,0,1-15.28,15.28" fill="#f9ae0b"/>
      <path id="path44" d="M276.957-493.461l-3.411-5.005c-.589-.9.156-10.229-3.685-7.583-3.235,2.228-2.777,7.584.468,12.2a1.9,1.9,0,0,1-.389,2.607l7.017-2.219" fill="#f9a668"/>
      <path id="path46" d="M269.939-491.243l-.039.029a1.9,1.9,0,0,1-2.416-.105c-2.1-1.847-5.169-2.036-6.481.672-1.555,3.207,4.589,2.363,5.64,5.169,1.513,4.037,6.335,4.64,8.049,4.3l2.123,8.193,5.439-3.005-2.393-7.173c2.451-1.031,3.313-13.155.281-13.481-1.431-.155-.976,1.888-3.185,3.177l-7.017,2.219" fill="#f78e49"/>
      <path id="path48" d="M277.883-497.569c-1.544-3.021-11.3.409-11.088,6.239s5.023,6.212,5.943,2.787-.256-3.747-.256-3.747,6.627-2.881,5.4-5.279" fill="#f9a668"/>
      <path id="path50" d="M280.887-496.119c-.965-1.173-5.664-1.9-8.04,1.732s-1.068,8.005,1.731,7.1c3.056-.993,2.785-4.983,2.785-4.983s5.453-1.5,3.524-3.845" fill="#f9a668"/>
      <path id="path52" d="M272.377-476.4l13.013-5.8" fill="none" stroke="#fff" stroke-miterlimit="10" stroke-width="7.094"/>
      <path id="path54" d="M217-421.674s36.4,3.505,57.685-9.26,4.256-49.017,4.256-49.017" fill="none" stroke="#23222d" stroke-miterlimit="10" stroke-width="17.734"/>
      <path id="path56" d="M241.691-417.786c0,6.02-10.971,10.9-24.5,10.9s-24.5-4.881-24.5-10.9,10.971-10.9,24.5-10.9,24.5,4.881,24.5,10.9" fill="#2e2d3f"/>
      <path id="path58" d="M169.272-230.9v-1.237a8.984,8.984,0,0,1,8.982-8.983h7.634a3.2,3.2,0,0,0,3.2-3.2v-.065a3.2,3.2,0,0,1,3.2-3.2H207.86a3.2,3.2,0,0,1,3.2,3.2V-230.9H196.865v-1.685l-3.547,1.685H169.272" fill="#66241b"/>
      <path id="path60" d="M265.426-231.146v-1.237a8.982,8.982,0,0,0-8.984-8.983H248.81a3.2,3.2,0,0,1-3.2-3.2v-.064a3.2,3.2,0,0,0-3.2-3.2H226.843a3.2,3.2,0,0,0-3.2,3.2v13.483h14.188v-1.685l3.547,1.685h24.047" fill="#66241b"/>
      <path id="path62" d="M211.97-245.737l.039-104.288h10.225l.273,104.288,23.468-.364-4.2-125.55H192.508L188.722-246.1l23.248.364" fill="#23222d"/>
      <path id="path64" d="M192.514-368.8h49.273l1.629,46.084H222.3l-.064-24.459H212.015L212-322.714H191.032l1.483-46.084" fill="#181717"/>
      <path id="path66" d="M217.123-429.515c-33.471,0-29.319,20.421-29.319,20.421v79.6h58.363V-409.01s4.425-20.5-29.044-20.5" fill="#23222d"/>
      <path id="path68" d="M189.693-355.4a35.609,35.609,0,0,1,6.021,1.647c3.288,1.208,5.824-2.953.107-4.936a35.418,35.418,0,0,0-4.715-1.363c2.131-1.211,5.311-3.308,4.855-4.819-1.156-3.823-5.485-1.508-8.521,1.6-2.264,2.316-3.6,5.865-4.389,7.948-.211.471-.42.968-.631,1.516-3.019,7.9,8.339,12.377,11.068,10.473,4.253-2.964-6.151-6.277-6.151-6.277s7.609,4.447,9.7,1.169c1.648-2.579-4.844-5.823-7.345-6.957" fill="#f9a668"/>
      <path id="path70" d="M185.3-366.206,178.313-353.8" fill="none" stroke="#fff" stroke-miterlimit="10" stroke-width="7.094"/>
      <path id="path72" d="M178.056-351.964c-1.271-.656-31.083-16.357-27.793-42.74,3.412-27.359,44.635-37.585,71.824-34.2l-2.193,17.6a79.609,79.609,0,0,0-34.724,3.98c-4.869,1.761-16.3,6.733-17.308,14.812-1.729,13.868,18.147,24.692,18.348,24.8l-8.153,15.748" fill="#23222d"/>
      <path id="path74" d="M202.234-426.448l14.889,43.587,15.019-43.587Z" fill="#fff"/>
      <path id="path76" d="M232.073-421.632l-.16-.077a34.123,34.123,0,0,0-29.612.005l-.149.072,4.1,11.912,10.856-8.033,10.856,8.033,4.1-11.912" fill="#ab9c9a"/>
      <path id="path78" d="M220.185-391.78l-3.075,8.921-3.047-8.923,3.112-34.664,3.009,34.665" fill="#13110f"/>
      <path id="path80" d="M217.1-414.047h.052a3.418,3.418,0,0,0,3.279-2.452l1.7-5.768a3.418,3.418,0,0,0-.54-3.015,3.418,3.418,0,0,0-2.739-1.372h-3.459a3.419,3.419,0,0,0-2.738,1.372,3.419,3.419,0,0,0-.541,3.015l1.7,5.769a3.419,3.419,0,0,0,3.277,2.451" fill="#13110f"/>
      <path id="path82" d="M232.141-426.448l-.159-.077a34.123,34.123,0,0,0-29.612.005l-.149.072,4.1,11.912,10.856-7.145,10.855,7.145,4.1-11.912" fill="#fff"/>
      <path id="path84" d="M217.11-382.859l15.032-46.317,10.787,4.735-6.519,8.7-4.268,1.667,1.795,5.748L217.11-382.859" fill="#2e2d3f"/>
      <path id="path86" d="M217.11-382.858l-15.031-46.317-10.787,4.1,6.519,9.336,4.268,1.667-1.795,5.748,16.825,25.464" fill="#2e2d3f"/>
      <path id="path88" d="M216.237-380.734v49.82a.887.887,0,0,0,.886.857.887.887,0,0,0,.886-.857v-49.82a.887.887,0,0,0-.887-.857.887.887,0,0,0-.886.857" fill="#2e2d3f"/>
      <path id="path90" d="M182.53-452.556s-24.579-41.345.033-52.589c5.8-22.261,36.077-16.643,43.477-14.551s11.784-1.707,11.784-1.707c2.477,2.239,2.717,6.937,2.717,6.937l5.72-7.481c7.585,4.748,11.8,16.971,1.163,34.379L182.53-452.556" fill="#72391e"/>
      <path id="path92" d="M225.014-429.156a7.064,7.064,0,0,1-7.065,7.065h-1.766a7.064,7.064,0,0,1-7.064-7.065V-441.14a7.064,7.064,0,0,1,7.065-7.065h1.766a7.064,7.064,0,0,1,7.064,7.065v11.984" fill="#f78e49"/>
      <path id="path94" d="M222.113-506.767l-20.083,1.625c-13.035,1.056-22.708,12.965-21.6,26.6l.477,5.872-.1.112a8.711,8.711,0,0,0-1.251,0l-.235.019a9.547,9.547,0,0,0-8.507,10.475l.016.2A9.539,9.539,0,0,0,180.9-452.9l.243-.02a8.519,8.519,0,0,0,1.259-.2l.12.089c1.551,13.088,12.721,22.739,25.389,21.713l20.183-1.635c13.036-1.055,22.709-12.965,21.6-26.6l-1.979-24.428c-1.1-13.636-12.567-23.836-25.6-22.78" fill="#f9a668"/>
      <path id="path96" d="M189.27-465.448c-.94-11.62-4.551-26.043,5.048-34.772,4.861-4.42,10.587-4.864,16.669-5.357,4.956-.4,9.9-.892,14.865-1.2,5.352-.336,4.689-8.872-.7-8.617-5.432.259-10.843.879-16.263,1.317-7.739.627-14.755,2.291-20.645,7.985-6.556,6.336-9.316,15.328-8.571,24.54q.68,8.386,1.357,16.773c.451,5.556,8.688,4.889,8.237-.667" fill="#72391e"/>
      <path id="path98" d="M211.951-468.891c.139,1.715-.755,3.187-2,3.288s-2.361-1.209-2.5-2.924.753-3.187,2-3.287,2.36,1.208,2.5,2.923" fill="#181717"/>
      <path id="path100" d="M237.218-470.936c.139,1.715-.755,3.187-2,3.287s-2.36-1.208-2.5-2.923.755-3.187,2-3.287,2.361,1.208,2.5,2.923" fill="#181717"/>
      <path id="path102" d="M239.479-482.225c-3.284-3.669-8.419-3.468-11.063.781-.6.961.919,1.843,1.513.885,2.067-3.32,5.8-3.235,8.309-.427.755.844,1.992-.4,1.24-1.24" fill="#72391e"/>
      <path id="path104" d="M204.69-478.335c2.032-3.2,5.693-3.719,8.28-.785.748.849,1.985-.4,1.24-1.24-3.341-3.791-8.423-2.98-11.035,1.14-.607.956.911,1.837,1.515.885" fill="#72391e"/>
      <path id="path106" d="M245.3-513.783s1.436,13.049-24.6,15.157-35.692,1.479-33.761,25.335c0,0-8-34.6,14.468-39.7s31.515,5.351,43.893-.789" fill="#72391e"/>
      <path id="path108" d="M231.281-449.995a4.6,4.6,0,0,1-4.6,4.6,4.6,4.6,0,0,1-4.6-4.6,4.6,4.6,0,0,1,4.6-4.6,4.6,4.6,0,0,1,4.6,4.6" fill="#331515"/>
      <path id="path110" d="M298.527-588.116a22.776,22.776,0,0,0-7.2-16.616,22.776,22.776,0,0,0-17.045-6.113,22.874,22.874,0,0,0-21.251,21.107,22.726,22.726,0,0,0,7.439,18.507,9.24,9.24,0,0,1,3.084,6l.039.445c0,2.848,1.345,12.867,12.156,12.867s12.159-10.019,12.159-12.867l.056-.629a8.74,8.74,0,0,1,2.956-5.712,22.709,22.709,0,0,0,7.605-16.983" fill="#fadd34"/>
      <path id="path112" d="M268.465-580.357,273.194-560h5.117l4.729-20.359C283.8-582.989,267.7-582.989,268.465-580.357Z" fill="none" stroke="#fff" stroke-miterlimit="10" stroke-width="1.333"/>
      <path id="path114" d="M275.883-542.7h-.261a12.98,12.98,0,0,1-12.981-12.981v-4.96h26.223v4.961a12.979,12.979,0,0,1-12.981,12.98" fill="#999892"/>
      <path id="path116" d="M262.641-559.567h26.223a1.075,1.075,0,0,0,1.041-1.075,1.075,1.075,0,0,0-1.041-1.074H262.641a1.075,1.075,0,0,0-1.041,1.074,1.075,1.075,0,0,0,1.041,1.074" fill="#f5f6e7"/>
      <path id="path118" d="M262.641-555.269h26.223a1.075,1.075,0,0,0,1.041-1.075,1.075,1.075,0,0,0-1.041-1.074H262.641a1.075,1.075,0,0,0-1.041,1.074,1.075,1.075,0,0,0,1.041,1.074" fill="#f5f6e7"/>
      <path id="path120" d="M254.529-615.354l-2.861-2.863a3.373,3.373,0,0,0-4.715,0,3.393,3.393,0,0,0,0,4.713l2.863,2.863a3.371,3.371,0,0,0,4.713,0,3.392,3.392,0,0,0,0-4.713" fill="#fadd34"/>
      <path id="path122" d="M244.573-602.424l-13.756-5.515c-3.981-1.6-5.712,4.849-1.772,6.428L242.8-596c3.981,1.6,5.712-4.849,1.772-6.428" fill="#fadd34"/>
      <path id="path124" d="M301.642-610.641l4.2-4.2a3.373,3.373,0,0,0,0-4.715,3.393,3.393,0,0,0-4.713,0l-4.2,4.205a3.373,3.373,0,0,0,0,4.713,3.4,3.4,0,0,0,4.715,0" fill="#fadd34"/>
      <path id="path126" d="M308.809-596l13.975-4.649c4.052-1.348,2.315-7.788-1.772-6.428l-13.975,4.649c-4.051,1.348-2.315,7.788,1.772,6.428" fill="#fadd34"/>
      <path id="path128" d="M295.933-566.844l2.956,2.955a.763.763,0,0,0,1.055-.022.763.763,0,0,0,.024-1.055q-1.48-1.478-2.956-2.956a.763.763,0,0,0-1.079,0,.763.763,0,0,0,0,1.079" fill="#fff"/>
      <path id="path130" d="M307.145-573.561l8.149,2.712c4.08,1.357,5.831-5.079,1.773-6.429l-8.151-2.711c-4.08-1.357-5.831,5.079-1.772,6.428" fill="#fadd34"/>
      <path id="path132" d="M250.075-565.344l-4.2,4.2a3.371,3.371,0,0,0,0,4.713,3.393,3.393,0,0,0,4.713,0l4.2-4.2a3.371,3.371,0,0,0,0-4.713,3.4,3.4,0,0,0-4.715,0" fill="#fadd34"/>
      <path id="path134" d="M242.909-579.989,232.6-576.561c-4.051,1.348-2.315,7.788,1.772,6.428l10.3-3.428c4.051-1.348,2.315-7.788-1.772-6.428" fill="#fadd34"/>
      <path id="path136" d="M279.062-620.1V-634.8c0-4.289-6.667-4.3-6.667,0V-620.1c0,4.289,6.667,4.3,6.667,0" fill="#fadd34"/>
      <path id="path138" d="M401.354-114.433s-2.064-9.536,15.043-16.981l7.4,7.314-11.05,14.284-11.4-4.617" fill="#c3b4b1"/>
      <path id="path140" d="M323.619-113.814s0-9.756,18.3-13.415l5.691,8.713L333.783-106.89l-10.164-6.924" fill="#c3b4b1"/>
      <path id="path142" d="M327-99.3l-1.076,1.952-13.175-7.423,8.6-15.612a4.227,4.227,0,0,1,5.741-1.664l14.777,8.305A4.226,4.226,0,0,1,343.53-108l-.041.075a4.228,4.228,0,0,0,1.664,5.743l4.451.339a11.874,11.874,0,0,1,11.873,11.874v1.637H350.362A30.37,30.37,0,0,1,327.093-99.19L327-99.3" fill="#66241b"/>
      <path id="path144" d="M453.623-96.465V-98.1a11.875,11.875,0,0,0-11.872-11.874H431.658a4.228,4.228,0,0,1-4.228-4.227v-.085a4.227,4.227,0,0,0-4.228-4.228H402.62a4.227,4.227,0,0,0-4.228,4.229v17.821h18.755v-2.228l4.688,2.228h31.788" fill="#66241b"/>
      <path id="path146" d="M359.867-255.923c5.461-2.665.876-.444-.364.121-2.5,1.144-5.045,2.2-7.6,3.217-2.587,1.025-5.217,1.924-7.879,2.733.068-.021.755,2.253,3.02,1.82-.944.18-5.192-.005-1.773.424.6.076,4.26,2.512,2.2.892a28.76,28.76,0,0,1-2.456-2.3,48.361,48.361,0,0,1-4.7-5.592c-2.1-2.717-4.105-5.519-6.011-8.376-8.733-13.089-29.151.259-20.409,13.36,6.481,9.715,14.559,22.564,26.389,25.892,7.24,2.036,11.384-2.74,18.081-5.231,5.081-1.888,10-4.179,14.864-6.555,5.984-2.923,6.821-11.847,3.523-16.884-3.979-6.08-10.915-6.439-16.884-3.525" fill="#23222d"/>
      <path id="path148" d="M331.913-266.466c-.192,9.937-24.913,15.491-29.913,2.023-1.744-4.7-2.347-9.333,1.173-11.316,4.3-2.419,1.439,9.927,4.688,9.373,0,0-2.329-12.677.584-14.336,5.1-2.9,4.611,5.112,6.117,8.844l1.271,4.961s16.183-4.88,16.08.451" fill="#f9a668"/>
      <path id="path150" d="M433.218-169.8c-13.907-9.995-37.115-18.289-42.177-20.035a12.4,12.4,0,0,0-5.356-1.221H346.114a12.466,12.466,0,0,0-12.467,12.468,12.438,12.438,0,0,0,4.448,9.539c6.621,10.849,13.212,22.881,14.92,27.936-3.124,4.128-22.345,13.257-22.345,13.257-2.435,15.5,12.452,20.966,12.452,20.966a162.042,162.042,0,0,0,19.217-9.593c10.139-6.006,15.475-10.68,15.376-24.248-.036-5.124-3.284-13.64-9.645-25.389h16.887c7.564,2.693,22.2,8.489,31.644,14.52l-13.3,26.153c6.916,15.632,23.483,8.922,23.483,8.922l11.529-23.582a21.615,21.615,0,0,0-5.089-29.692" fill="#23222d"/>
      <path id="path152" d="M416.276-152.061l-19.4-29.268-59.347-6.205a12.429,12.429,0,0,0-3.66,8.823,12.433,12.433,0,0,0,4.449,9.54c3.233,5.3,9.108,15.784,9.108,15.784,13.543-11.137,25.5-3.227,25.5-3.227l-4.953-9.629H385.18c7.421,2.643,21.648,8.275,31.1,14.183" fill="#181717"/>
      <path id="path154" d="M396.976-181.206l23.277-58.032c-4.449-16.639-26.443-18.641-41.717-17.923a22.763,22.763,0,0,0-20.107,14.309l-23.108,58.125s31.076,28.917,61.654,3.52" fill="#23222d"/>
      <path id="path156" d="M405.854-233.455l31.417,9.068c6.421,1.852,13.145-2.253,15-8.519L458-252.246c4.469-15.081-19.064-21.524-23.521-6.484l-5.732,19.339,15-8.517-31.417-9.067c-15.109-4.361-21.561,19.169-6.484,23.52" fill="#23222d"/>
      <path id="path158" d="M435.3-261c5.307,8.4,29.365,1.965,30.677-15.221.34-4.449.047-11.992-6.252-10.857-4.851.873.027,11.309-3.8,13.7,0,0-.977-12.456-6.788-11.765s-3.356,8.036-1.787,10.532l.087,5.552S432.45-265.511,435.3-261" fill="#f9a668"/>
      <path id="path160" d="M425.164-248.321c0,7.677-15.859,13.9-35.42,13.9s-35.423-6.224-35.423-13.9,15.86-13.9,35.423-13.9,35.42,6.224,35.42,13.9" fill="#23222d"/>
      <path id="path162" d="M381.827-255.645l5.876,44.9,23.919-42.293Z" fill="#fff"/>
      <path id="path164" d="M410.562-248.225l-.144-.092c-8.395-5.321-19.253-6.269-29.5-2.576l-.164.059,1.641,12.276,12.464-7.091,9.165,8.983,6.536-11.559" fill="#ab9c9a"/>
      <path id="path166" d="M392.586-219.4l-4.895,8.657-1.2-9.192,10.224-34.407L392.586-219.4" fill="#13110f"/>
      <path id="path168" d="M394.086-241.943l.052.005a3.958,3.958,0,0,0,3.769-2.167l2.883-5.623a3.083,3.083,0,0,0,.117-2.994,3.083,3.083,0,0,0-2.482-1.679l-3.445-.3a3.933,3.933,0,0,0-3,1.122,3.933,3.933,0,0,0-1.171,2.978l.512,5.92a2.967,2.967,0,0,0,2.763,2.737" fill="#13110f"/>
      <path id="path170" d="M411.622-253.037l-.144-.092c-8.395-5.321-19.253-6.269-29.5-2.576l-.164.059,1.643,12.276,12.283-6.2,9.345,8.1,6.537-11.559" fill="#fff"/>
      <path id="path172" d="M387.691-210.741l24.491-45.025,9.773,5.677-8.283,8.139-4.593,1.295.607,5.908L387.691-210.74" fill="#2e2d3f"/>
      <path id="path174" d="M387.691-210.739l-5.457-47.645-11.591,3.163,4.577,9.908,3.909,2.04-2.969,5.6,11.531,26.94" fill="#2e2d3f"/>
      <path id="path176" d="M366.979-274.342s-17.547-43.284,7.724-50.477c8.823-20.521,37.068-10.7,43.865-7.608s11.561.087,11.561.087c2.049,2.512,1.593,7.056,1.593,7.056l6.585-6.344c6.587,5.667,8.847,18.016-3.912,33.171l-67.417,24.116" fill="#72391e"/>
      <path id="path178" d="M412.906-320.59l-19.515-1.377c-12.668-.893-23.7,9.124-24.631,22.376l-.4,5.707-.119.092a8.422,8.422,0,0,0-1.2-.18l-.228-.016a9.268,9.268,0,0,0-9.7,8.809l-.013.191a9.262,9.262,0,0,0,8.359,10.077l.233.017a8.347,8.347,0,0,0,1.24-.013l.1.1c-.425,12.789,8.885,23.688,21.2,24.557l19.613,1.383c12.668.9,23.7-9.124,24.629-22.375l1.675-23.74c.935-13.251-8.576-24.719-21.244-25.612" fill="#f9a668"/>
      <path id="path180" d="M375.335-285.731c.8-11.291-.56-25.664,9.932-32.64,5.313-3.532,10.873-3.121,16.785-2.7,4.815.34,9.637.592,14.445,1.02,5.187.46,5.8-7.831.589-8.373-5.252-.548-10.535-.744-15.8-1.116-7.521-.531-14.5.041-20.987,4.645-7.22,5.123-11.185,13.351-11.817,22.3q-.576,8.15-1.149,16.3c-.381,5.4,7.623,5.965,8,.565" fill="#72391e"/>
      <path id="path182" d="M400.072-284.487c-.119,1.667-1.192,2.949-2.4,2.864s-2.089-1.505-1.972-3.172,1.192-2.949,2.4-2.864,2.091,1.505,1.973,3.172" fill="#181717"/>
      <path id="path184" d="M422.164-283.985c-.119,1.667-1.192,2.948-2.4,2.863s-2.088-1.505-1.971-3.171,1.191-2.949,2.4-2.864,2.088,1.505,1.971,3.172" fill="#181717"/>
      <path id="path186" d="M436.194-323.933s-.531,12.736-25.832,10.952-34.479-3.8-36.113,19.381c0,0-2.623-34.383,19.7-36s29.471,9.747,42.251,5.663" fill="#72391e"/>
      <path id="path188" d="M402.583-287.515,393.54-290.7c-1.5-.527-2.14,1.849-.655,2.373l9.043,3.188c1.5.527,2.14-1.849.655-2.373" fill="#72391e"/>
      <path id="path190" d="M417.166-284.307l9.208-3.1c1.492-.5.852-2.879-.655-2.372l-9.208,3.1c-1.492.5-.853,2.879.655,2.372" fill="#72391e"/>
      <path id="path192" d="M386.85-210.979q-6.778,19.866-13.552,39.731c-.371,1.083,1.343,1.548,1.709.472q6.778-19.866,13.552-39.731c.368-1.083-1.344-1.547-1.709-.472" fill="#2e2d3f"/>
      <path id="path194" d="M397.622-263.366h20.163a.769.769,0,0,0,.741-.769.769.769,0,0,0-.741-.768H397.622a.769.769,0,0,0-.741.768.769.769,0,0,0,.741.768" fill="#72391e"/>
      <path id="path196" d="M524.064-608.906l4.181,4.149a.782.782,0,0,0,.853.166.782.782,0,0,0,.48-.725c-.044-4.16-.641-14.252-5.207-19.583l-35.409-1.591c-5.025,4.9-6.525,14.9-6.94,19.036a.781.781,0,0,0,.411.767.781.781,0,0,0,.866-.09l4.536-3.757c-4.315,18.6,11.655,42.943,16.212,43.147s22.645-22.6,20.016-41.52" fill="#facc07"/>
      <path id="path198" d="M513.6-615.843c-.672,14.948-8.573,26.735-8.573,26.735s-6.815-12.448-6.143-27.4,4.511-26.919,8.575-26.736,6.812,12.449,6.141,27.4" fill="#fae141"/>
      <path id="path200" d="M535.6-628.428l5.341-4.883.328-7.3,1.3-28.836.528-11.761a19.612,19.612,0,0,0-18.713-20.473l-.4-.019a19.614,19.614,0,0,0-20.473,18.715l-.529,11.76-1.3,28.837-.3,6.681,5.472,5.984,28.743,1.292" fill="#a21b21"/>
      <path id="path202" d="M532.319-628.576c2.088-1.907,3.257-2.976,5.343-4.883l.328-7.3,1.3-28.837.528-11.76a19.615,19.615,0,0,0-18.718-20.47l-.4-.017a19.614,19.614,0,0,0-20.475,18.713l-.528,11.76-1.3,28.837-.3,6.681c2.128,2.328,3.344,3.657,5.471,5.985l28.743,1.291" fill="#d72325"/>
      <path id="path204" d="M509.467-629.6l5.341-4.883.329-7.3,1.295-28.837.528-11.76a19.614,19.614,0,0,0-18.713-20.475l-.4-.017a19.614,19.614,0,0,0-20.475,18.713l-.528,11.76-1.3,28.837-.3,6.681,5.471,5.985,28.744,1.291" fill="#a21b21"/>
      <path id="path206" d="M506.185-629.749l5.341-4.883.328-7.3,1.295-28.836.529-11.761A19.615,19.615,0,0,0,494.965-703l-.4-.017A19.615,19.615,0,0,0,474.1-684.3l-.528,11.76-1.3,28.837-.3,6.68,5.471,5.985,28.744,1.292" fill="#d72325"/>
      <path id="path208" d="M543.1-654.693l-70.309-3.16c-2.485-.111-4.4-2.5-4.268-5.345v-.1c.128-2.84,2.245-5.053,4.731-4.941l70.309,3.159c2.485.112,4.4,2.505,4.268,5.345v.1c-.128,2.841-2.247,5.053-4.731,4.943" fill="#988c55"/>
      <path id="path210" d="M543.1-652.564l-70.309-3.159c-2.485-.112-4.4-2.505-4.268-5.347v-.1c.128-2.84,2.245-5.053,4.731-4.941l70.309,3.159c2.485.112,4.4,2.505,4.268,5.347v.1c-.128,2.841-2.247,5.053-4.731,4.943" fill="#b7aa65"/>
      <path id="path212" d="M487.171-653.513l-6.456-.289a2.752,2.752,0,0,1-2.625-2.872l.291-6.456a2.752,2.752,0,0,1,2.871-2.625l6.456.291a2.751,2.751,0,0,1,2.625,2.872l-.289,6.456a2.751,2.751,0,0,1-2.872,2.624Z" fill="none" stroke="#f9ec2d" stroke-miterlimit="10" stroke-width="2.616"/>
      <path id="path214" d="M531.352-624.585l-50.036-2.248a3.989,3.989,0,0,1-2.767-1.294,3.989,3.989,0,0,1-1.04-2.872v-.04l58.007,2.6v.04a3.991,3.991,0,0,1-4.164,3.807" fill="#b3d0ad"/>
      <path id="path216" d="M615.033-499.716l1.041-1.263a11.873,11.873,0,0,0-1.608-16.715l-7.785-6.419a4.23,4.23,0,0,1-.573-5.952l.055-.065a4.227,4.227,0,0,0-.573-5.952l-15.881-13.093a4.227,4.227,0,0,0-5.951.572l-11.339,13.752,14.472,11.931,1.416-1.719,2.2,4.7,24.525,20.221" fill="#66241b"/>
      <path id="path218" d="M508.821-499.157l1.607-.307a11.874,11.874,0,0,0,9.437-13.889l-1.891-9.912a4.229,4.229,0,0,1,3.36-4.945l.084-.016a4.227,4.227,0,0,0,3.361-4.944l-3.86-20.219a4.227,4.227,0,0,0-4.944-3.361l-17.507,3.341,3.515,18.423,2.189-.417-1.311,5.021,5.959,31.225" fill="#66241b"/>
      <path id="path220" d="M613.135-597.227A49.048,49.048,0,0,0,585.8-618.149a15.089,15.089,0,0,0-13.4-8.155H531.969a15.1,15.1,0,0,0-15.1,15.1v1.54a15.1,15.1,0,0,0,10.855,14.485c5.135,3.3,12.972,10.205,11.947,21.187-1.307,13.989-19.433,18.089-20.127,18.24l5.024,24.663c13.772-2.8,37.729-14.505,40.164-40.563a44.311,44.311,0,0,0-3.761-22.911H572.4q.53,0,1.052-.037a13.331,13.331,0,0,1,5.1.52,25.073,25.073,0,0,1,13.46,10.532c9.248,14.284-4.324,31.457-4.864,32.127l19.428,16c1.064-1.292,25.86-32.005,6.561-61.806" fill="#23222d"/>
      <path id="path222" d="M561.295-594.563h11.428c.355,0,.7-.012,1.052-.037a13.333,13.333,0,0,1,5.1.52,25.059,25.059,0,0,1,13.46,10.532c9.248,14.284-4.324,31.457-4.863,32.127l19.427,16c1.065-1.292,25.86-32.005,6.561-61.807a49.035,49.035,0,0,0-27.339-20.923,15.088,15.088,0,0,0-13.4-8.155s-58.3-11.165-40.427,0,29,31.741,29,31.741" fill="#181717"/>
      <path id="path224" d="M571.941-626.384H531.515a15.091,15.091,0,0,0-14.943,13.029l.356,5.159s25.867,13.517,68.952-4.756l-.36-5.219-.179-.059a15.092,15.092,0,0,0-13.4-8.155" fill="#181717"/>
      <path id="path226" d="M565.569-684.021q.618.218,1.229.464c1.911.744-2.124-.936.347.14.9.391,1.784.812,2.669,1.233a100.92,100.92,0,0,1,13.585,7.947,74.122,74.122,0,0,1,6.773,5.349c1.5,1.3,2.9,2.7,4.3,4.1q.706.736,1.408,1.473,2.41,3.982,2.607-2.257c-5.408,4.16-12.869,7.044-19.193,9.416-11.035,4.14-6.259,21.981,4.905,17.793a156.04,156.04,0,0,0,16-7.049c4.051-2.061,8.76-4.225,11.676-7.807,8.42-10.339.621-19.956-7.211-27.4a98.027,98.027,0,0,0-34.193-21.192c-11.255-3.959-16.053,13.873-4.9,17.793" fill="#23222d"/>
      <path id="path228" d="M579.887-657.384l-2.027-11.128c3.112-5.275,6.325-15.087.881-29.539l-.011-.031a1.667,1.667,0,0,1,.535-1.749,1.667,1.667,0,0,1,1.817-.206l4.023,1.963a7.621,7.621,0,0,1,4.143,5.192c4.956,22.915-8.7,34.931-9.361,35.5" fill="#988c55"/>
      <path id="path230" d="M578.7-656.334l-.843-12.248a27.42,27.42,0,0,0,3.153-8.171l8.421,1.8C587-663.57,580.868-658.162,578.7-656.334" fill="#b7aa65"/>
      <path id="path232" d="M585.1-616.562c-43.085,18.273-68.952,4.755-68.952,4.755l-4.709-68.279a21.829,21.829,0,0,1,20.275-23.28l25.4-1.752a21.829,21.829,0,0,1,23.279,20.276l4.709,68.28" fill="#23222d"/>
      <path id="path234" d="M582.623-652.592c-.349-.169-.705-.348-1.065-.549,0,0-3.919-5.549-5.231-2.6a5.343,5.343,0,0,0,.972,6.14,9.16,9.16,0,0,0-1.8,1.529c-3.537.724-6.944,1.291-7.212,3.839-.3,2.839,2.132,3.737,4.815,3.887.025.241.063.481.1.719-.327.029-.657.055-.995.071-6.244.288-2.339,7.38,3.607,7.056-3.968,3.353-.751,8.761,8.275,1.232l-1.471-21.323" fill="#181717"/>
      <path id="path236" d="M586.169-656.049c-.757-1.036-2.669-1.551-4.612-2.64,0,0-3.917-5.548-5.231-2.6-1.368,3.077-.059,5.4,1.883,7.041-4.281,1.191-9.583,1.261-9.92,4.467-.641,6.1,11.312,3.24,11.312,3.24a27.256,27.256,0,0,1-7.389,1.436c-6.244.288-2.339,7.38,3.607,7.056-4.069,3.437-.587,9.041,8.965.644,3.661-3.219,4.16-7.888,4.112-11.571-.033-2.507-1.08-5.6-2.727-7.075" fill="#f9a668"/>
      <path id="path238" d="M541.929-637.034c-.232-2.215-2.835-2.932-5.832-3.557a7.02,7.02,0,0,0-2.751-2.319,5.274,5.274,0,0,0,.545-5.632c-1.312-2.949-5.229,2.6-5.229,2.6-.921.516-1.831.9-2.617,1.276a73.621,73.621,0,0,1-12.348-4.177l1.405,20.361c3.347.993,6.42,1.729,8.839,2.205a10.784,10.784,0,0,0,1.493,1.619c9.552,8.4,13.035,2.795,8.965-.644,5.945.324,9.852-6.768,3.607-7.056-.445-.02-.88-.056-1.3-.1.085-.225.16-.453.231-.683,2.755-.119,5.3-.991,5-3.9" fill="#181717"/>
      <path id="path240" d="M516.42-696.973c-13.064,9.115-24.835,21.732-31.552,36.235-8.184,17.665,27.421,27.915,38.88,29.777,11.636,1.891,16.627-15.888,4.9-17.795a71.9,71.9,0,0,1-18.268-5.651,70.933,70.933,0,0,1-7.744-4.169c.229.14-2.8-2.119-1.632-1.127-1.584-1.34.536.9.645,1.543v4.905c1.4-6.771,9.948-15,15.035-20.011,2.331-2.3,4.809-4.441,7.345-6.5,1.68-1.365-.981.7.933-.719.253-.188.508-.372.768-.552,9.681-6.756.472-22.761-9.315-15.933" fill="#23222d"/>
      <path id="path242" d="M521.989-648.328c.759-1.036,2.671-1.551,4.613-2.64,0,0,3.917-5.548,5.229-2.6,1.369,3.077.059,5.4-1.881,7.041,4.281,1.192,9.583,1.261,9.919,4.467.641,6.1-11.311,3.24-11.311,3.24a27.251,27.251,0,0,0,7.389,1.436c6.245.288,2.339,7.38-3.608,7.056,4.069,3.437.587,9.041-8.964.644-3.661-3.219-4.161-7.887-4.113-11.571.035-2.505,1.08-5.6,2.727-7.075" fill="#f9a668"/>
      <path id="path244" d="M514.012-654.558l-2.028-11.129c3.113-5.273,6.325-15.085.881-29.537A2.029,2.029,0,0,1,514-697.8l4.192-1.744a2.048,2.048,0,0,1,1.6.018,2.048,2.048,0,0,1,1.1,1.165c10.744,28.317-6.136,43.172-6.875,43.8" fill="#988c55"/>
      <path id="path246" d="M512.827-653.51l-.844-12.248a27.407,27.407,0,0,0,3.155-8.171l8.421,1.8c-2.429,11.387-8.565,16.793-10.732,18.621" fill="#b7aa65"/>
      <path id="path248" d="M534.084-700.176l17.256,42.7,12.608-44.343Z" fill="#fff"/>
      <path id="path250" d="M564.141-697l-.164-.068a34.118,34.118,0,0,0-29.565,1.627l-.145.08,4.751,11.671,10.4-8.617,11.28,7.428L564.141-697" fill="#ab9c9a"/>
      <path id="path252" d="M553.908-666.544l-2.581,9.076L547.8-666.21l1.2-34.782,4.9,34.448" fill="#13110f"/>
      <path id="path254" d="M549.6-688.609h.052a3.419,3.419,0,0,0,3.14-2.625l1.385-5.855a3.419,3.419,0,0,0-.705-2.98,3.419,3.419,0,0,0-2.81-1.22l-3.455.189a3.418,3.418,0,0,0-2.659,1.52,3.418,3.418,0,0,0-.373,3.04l2.016,5.667a3.416,3.416,0,0,0,3.408,2.267" fill="#13110f"/>
      <path id="path256" d="M563.948-701.814l-.164-.068a34.121,34.121,0,0,0-29.567,1.627l-.145.08,4.751,11.671,10.448-7.731L560.5-689.7l3.445-12.119" fill="#fff"/>
      <path id="path258" d="M551.327-657.468l12.472-47.07L574.83-700.4l-6.032,9.048-4.171,1.9,2.107,5.641-15.407,26.347" fill="#2e2d3f"/>
      <path id="path260" d="M551.327-657.466,533.781-702.89l-10.546,4.69,7.021,8.964,4.352,1.431-1.476,5.839,18.2,24.5" fill="#2e2d3f"/>
      <path id="path262" d="M550.571-655.346q1.224,22.622,2.451,45.245c.061,1.135,1.836,1.143,1.773,0q-1.226-22.622-2.451-45.245c-.063-1.135-1.836-1.143-1.773,0" fill="#2e2d3f"/>
      <path id="path264" d="M513.756-727.458s-24.579-41.345.035-52.589c5.8-22.261,36.077-16.643,43.476-14.551s11.785-1.705,11.785-1.705c2.475,2.239,2.717,6.936,2.717,6.936l5.72-7.481c7.584,4.748,11.8,16.971,1.161,34.379l-64.9,35.012" fill="#72391e"/>
      <path id="path266" d="M556.241-704.057a7.064,7.064,0,0,1-7.065,7.064h-1.765a7.064,7.064,0,0,1-7.065-7.065v-11.984a7.065,7.065,0,0,1,7.065-7.065h1.765a7.065,7.065,0,0,1,7.065,7.065v11.985" fill="#f78e49"/>
      <path id="path268" d="M553.34-781.669l-20.083,1.625c-13.036,1.056-22.708,12.965-21.6,26.6l.476,5.872-.1.112a8.652,8.652,0,0,0-1.249,0l-.236.019a9.549,9.549,0,0,0-8.507,10.475l.017.2a9.538,9.538,0,0,0,10.073,8.963l.24-.02a8.481,8.481,0,0,0,1.261-.2l.12.089c1.551,13.088,12.72,22.739,25.388,21.713l20.183-1.635c13.036-1.055,22.709-12.965,21.6-26.6l-1.977-24.428c-1.1-13.636-12.567-23.835-25.6-22.78" fill="#f9a668"/>
      <path id="path270" d="M520.5-740.35c-.94-11.62-4.551-26.043,5.048-34.772,4.863-4.42,10.587-4.864,16.671-5.357,4.955-.4,9.9-.892,14.864-1.2,5.352-.336,4.689-8.872-.7-8.616-5.432.257-10.841.877-16.261,1.316-7.74.627-14.757,2.291-20.648,7.985-6.555,6.336-9.315,15.328-8.568,24.54q.678,8.386,1.357,16.773c.449,5.556,8.687,4.889,8.236-.667" fill="#72391e"/>
      <path id="path272" d="M543.179-743.793c.137,1.715-.756,3.187-2,3.288s-2.361-1.208-2.5-2.924.755-3.187,2-3.287,2.36,1.208,2.5,2.923" fill="#181717"/>
      <path id="path274" d="M568.444-745.838c.139,1.715-.755,3.187-2,3.288s-2.361-1.209-2.5-2.924.755-3.187,2-3.287,2.36,1.208,2.5,2.923" fill="#181717"/>
      <path id="path276" d="M570.707-757.128c-3.285-3.669-8.42-3.468-11.065.781-.6.961.92,1.844,1.516.885,2.067-3.32,5.795-3.235,8.309-.425.753.843,1.992-.4,1.24-1.241" fill="#72391e"/>
      <path id="path278" d="M535.916-753.237c2.033-3.2,5.693-3.719,8.28-.784.748.848,1.985-.4,1.24-1.241-3.341-3.791-8.421-2.98-11.035,1.14-.607.956.911,1.837,1.515.885" fill="#72391e"/>
      <path id="path280" d="M576.528-788.685s1.437,13.049-24.6,15.157-35.693,1.479-33.761,25.335c0,0-8-34.6,14.467-39.7s31.516,5.352,43.892-.789" fill="#72391e"/>
      <path id="path282" d="M546.295-725.8a12.858,12.858,0,0,0,18.055-1.117c.672-.725-.415-1.816-1.088-1.088a11.294,11.294,0,0,1-15.88,1.119c-.757-.627-1.852.456-1.087,1.087" fill="#e65128"/>
      <path id="path284" d="M864.558-444.706l2.863-12L861.7-467.252Z" fill="#8b89ab"/>
      <path id="path286" d="M867.425-456.706l-41.733,73.373-15.147-6.493-32.12-13.787-74.56-11.627,48.44-80.746h55.306l-.588,20.853,9.281-18.88,44.36,17.88,6.76,19.427" fill="#f6eff8"/>
      <path id="path288" d="M867.425-456.706l-41.733,73.373-15.147-6.493,50.12-86.306,6.76,19.427" fill="#c4b5dc"/>
      <path id="path290" d="M760.964-408.7l46.643-87.277,4.52,10.909-41.205,80.289-9.957-3.921" fill="#c4b5dc"/>
      <path id="path292" d="M746.442-552.791l-20.125-.956c-13.063-.621-24.18,9.953-24.829,23.619l-.28,5.885-.119.1a8.592,8.592,0,0,0-1.239-.157l-.236-.012a9.546,9.546,0,0,0-9.776,9.3l-.009.2a9.539,9.539,0,0,0,8.844,10.177l.243.012a8.79,8.79,0,0,0,1.275-.043l.108.1c-.137,13.179,9.707,24.179,22.4,24.783l20.227.961c13.063.621,24.18-9.953,24.829-23.619l1.164-24.48c.651-13.667-9.413-25.248-22.477-25.869" fill="#f9a668"/>
      <path id="path294" d="M709.166-514.928c.553-11.644-1.183-26.409,9.456-33.839,5.387-3.763,11.121-3.471,17.217-3.181,4.964.236,9.936.383,14.9.709,5.351.351,5.787-8.2.409-8.636-5.42-.44-10.864-.516-16.3-.775-7.757-.368-14.929.384-21.5,5.277-7.313,5.445-11.2,14.011-11.64,23.243q-.4,8.4-.8,16.809c-.267,5.568,7.989,5.96,8.253.392" fill="#72391e"/>
      <path id="path296" d="M770.921-555.7s-.244,13.125-26.335,11.885S709-546.911,707.86-523c0,0-3.509-35.337,19.429-37.525s30.572,9.339,43.632,4.832" fill="#72391e"/>
      <path id="path298" d="M696.046-505.564c-5.464-16.113-10.6-40.741,5.924-47.3,6.917-21.939,36.875-14.8,44.159-12.332s11.855-1.108,11.855-1.108c2.36,2.361,2.364,7.065,2.364,7.065l6.091-7.183c7.333,5.125,10.927,17.547-.579,34.393l-2.828,14.153L745.875-497.66a22.456,22.456,0,0,1-18.259,7.9l-11.432-.579a22.464,22.464,0,0,1-20.137-15.221" fill="#72391e"/>
      <path id="path300" d="M767.869-511.871a9.868,9.868,0,0,1-11.049,8.524A9.866,9.866,0,0,1,748.3-514.4a9.866,9.866,0,0,1,11.049-8.524,9.866,9.866,0,0,1,8.523,11.049" fill="#f9a668"/>
      <path id="path302" d="M888.517-365.59l-1.119-1.193a11.873,11.873,0,0,0-16.783-.549l-7.365,6.9a4.228,4.228,0,0,1-5.975-.2l-.059-.063a4.227,4.227,0,0,0-5.975-.2l-15.023,14.072a4.227,4.227,0,0,0-.195,5.976l12.184,13.007L861.9-340.654l-1.524-1.627,4.944-1.577,23.2-21.732" fill="#66241b"/>
      <path id="path304" d="M859.834-359.459l-47.156-47.376a15.991,15.991,0,0,0-11.336-4.711H734.328v30.117h57.855a7.459,7.459,0,0,1,5.277,2.186l41.079,41.078,21.3-21.3" fill="#23222d"/>
      <path id="path306" d="M765.465-396.255A14.762,14.762,0,0,1,750.7-381.494H716.814a14.761,14.761,0,0,1-14.761-14.761v-4.22a14.762,14.762,0,0,1,14.76-14.761H750.7a14.762,14.762,0,0,1,14.764,14.763v4.218" fill="#181717"/>
      <path id="path308" d="M739.807-388.251l51.111,6.759-51.552-.623Z" fill="#181717"/>
      <path id="path310" d="M694.5-480.814c2.608-15.068,62.844-11.289,67.855,4.477,7.193,22.635,9.741,79.568,9.741,79.568s-35.647,15.276-73.8,4.519c0,0-5.616-78.052-3.8-88.564" fill="#23222d"/>
      <g id="g312">
        <g id="g314" clip-path="url(#clip-path)">
          <path id="path320" d="M812.222-490.047h37.3v-33.475h-37.3Z" fill="#f2f0f8"/>
        </g>
      </g>
      <path id="path322" d="M836.173-486,816.3-494.012l-.812,1.652a21.063,21.063,0,0,1-3.824-5.783A21.575,21.575,0,0,1,822.3-526.224a20.877,20.877,0,0,1,8.741-1.932,22.2,22.2,0,0,1,19.616,12.449,2.572,2.572,0,0,1,.148.356c.031.063.059.128.085.2,4.219,10.852-.313,23.391-11.3,28.039A21.023,21.023,0,0,1,836.173-486m-5.012-37.517a16.54,16.54,0,0,0-6.769,1.476,16.76,16.76,0,0,0-8.427,22.089,16.91,16.91,0,0,0,15.425,9.908,16.374,16.374,0,0,0,8.069-2.112c7.787-4.389,10.061-13.407,7.12-21.408-3.136-6.081-9.023-9.953-15.419-9.953" fill="#8d8e97"/>
      <path id="path324" d="M831.37-485.452a21.792,21.792,0,0,1-15.877-6.908l.812-1.652L836.173-486a21.1,21.1,0,0,1-4.8.552" fill="#888499"/>
      <path id="path326" d="M846.443-513.929c3.145,8.089.92,17.313-6.984,21.769a16.868,16.868,0,0,1-13.452,1.233,16.868,16.868,0,0,1-10.043-9.033,16.76,16.76,0,0,1,8.427-22.089c8.8-3.932,18.1.344,22.285,8.667,1.333,2.653,5.315.32,3.983-2.328-5.231-10.405-17.475-15.511-28.356-10.517a21.575,21.575,0,0,0-10.635,28.081,21.575,21.575,0,0,0,27.921,11.025c10.991-4.648,15.521-17.187,11.3-28.039-1.065-2.737-5.528-1.547-4.449,1.227" fill="#4a4669"/>
      <path id="path328" d="M844.581-515.093c3.144,8.088.92,17.313-6.987,21.769a16.868,16.868,0,0,1-13.45,1.232,16.868,16.868,0,0,1-10.043-9.032,16.763,16.763,0,0,1,8.425-22.089c8.807-3.932,18.1.344,22.285,8.667,1.335,2.653,5.316.32,3.985-2.328-5.232-10.405-17.477-15.511-28.359-10.519A21.579,21.579,0,0,0,809.8-499.307a21.579,21.579,0,0,0,27.923,11.025c10.988-4.648,15.521-17.187,11.3-28.039-1.063-2.737-5.525-1.547-4.447,1.227" fill="#6d688d"/>
      <path id="path330" d="M820.594-488.468l-7.64,24.887c-.873,2.845,3.577,4.061,4.448,1.227l7.64-24.887c.873-2.845-3.577-4.061-4.448-1.227" fill="#6d688d"/>
      <path id="path332" d="M812.6-458.66s15.639,1.819,16.728-9.091c0,0,7.273-10,0-11.909s-15.637-4.272-16.728,0l-7.9,17.726,7.905,3.273" fill="#f9a668"/>
      <path id="path334" d="M743.6-461.6c10.327,10.736,21.456,21.689,34.016,29.78,8.709,5.611,18.216,7.4,26.511-.053,5.785-5.2,10.233-12.455,14.1-19.167,7.917-13.744-13.333-26.149-21.245-12.419a109.251,109.251,0,0,1-8.6,12.573c-.884,1.133-.908.793-.8.939-.42-.548,6.263-.956,6.6-.923-2.564-.252.439.556-.943-.289-2.527-1.544-5.815-3.617-7.565-4.973-8.113-6.284-17.014-14.9-24.679-22.868-11-11.433-28.381,5.977-17.4,17.4" fill="#23222d"/>
      <path id="path336" d="M690.256-471.856q6.466,24.356,12.931,48.712c4.059,15.289,27.8,8.8,23.725-6.541L713.981-478.4c-4.059-15.289-27.8-8.8-23.725,6.54" fill="#23222d"/>
      <path id="path338" d="M816.934-518.916a18.313,18.313,0,0,1,6.187-4.552,2.325,2.325,0,0,0,.828-3.156,2.361,2.361,0,0,0-3.156-.827,21.541,21.541,0,0,0-7.12,5.273c-1.967,2.212,1.285,5.487,3.261,3.261" fill="#a199c2"/>
      <path id="path340" d="M1003.83-776.71l.4-1.587a11.874,11.874,0,0,0-8.616-14.413l-9.785-2.464a4.23,4.23,0,0,1-3.068-5.132l.021-.083a4.228,4.228,0,0,0-3.067-5.132l-19.961-5.025a4.225,4.225,0,0,0-5.131,3.067l-3.211,12.751a4.675,4.675,0,0,0,3.393,5.675l13.653,3.437.543-2.16,4,3.3,30.825,7.761" fill="#66241b"/>
      <path id="path342" d="M870.154-921.035c1.385-.315,3.356.644,5.768,1.147,0,0,7.3-1.788,6.256,1.629-1.092,3.564-3.871,4.548-6.687,4.512,2.709,4.1,7.087,8.016,5.037,10.936-3.9,5.56-11.8-5.512-11.8-5.512a30.2,30.2,0,0,0,5.128,6.567c5,4.777-3.409,7.861-8.139,3.272.9,5.827-6.079,7.976-7.953-5.975-.719-5.348,2.256-9.609,4.973-12.649,1.847-2.068,4.968-3.893,7.415-3.927" fill="#f9a668"/>
      <path id="path344" d="M993.79-1108.74c2.068,9.537-4.544,12.367-11.483,12.367s-12.56-5.171-12.56-11.551,5.623-11.549,12.56-11.549,10.131,4.5,11.483,10.733" fill="#f78e49"/>
      <path id="path346" d="M989.808-1118.39c0,3.8-2.227,6.873-4.972,6.873s-4.972-3.076-4.972-6.873,2.227-6.872,4.972-6.872,4.972,3.076,4.972,6.872" fill="#f9a668"/>
      <path id="path348" d="M974.767-1102.11c-6.152-5.127-3.075-22.1,4.615-23.1s5.488,12.749,0,13.359c-4.615.513-3.588-6.152-3.588-6.152" fill="#f9a668"/>
      <path id="path350" d="M973.123-1120.01c-7.8,2.111-4.037,23.852,6.649,23.625s7.389-20.023-2.549-13.669c0,0-.32-10.979-4.1-9.956" fill="#f9a668"/>
      <path id="path352" d="M994.075-1115.11c-1.117,3.257-3.933,5.241-6.288,4.433s-3.361-4.1-2.244-7.359,3.932-5.241,6.288-4.433,3.36,4.1,2.244,7.359" fill="#f9a668"/>
      <path id="path354" d="M997.384-1113.12c-.941,2.747-3.313,4.42-5.3,3.739s-2.833-3.459-1.892-6.2,3.316-4.419,5.3-3.737,2.832,3.457,1.891,6.2" fill="#f9a668"/>
      <path id="path356" d="M987.964-1087.77l-21.075-7.013,3.084-9.441,21.075,7.013-3.084,9.441" fill="#fff"/>
      <path id="path358" d="M867.421-928.755,850.885-917.6l5.555,8.235,16.536-11.156-5.555-8.235" fill="#fff"/>
      <path id="path360" d="M851.489-912.643c-1.147-1.572-27.853-38.837-7.781-68.933,20.817-31.211,77.205-18.543,108.222,2.145L939.152-965.89c-34.808-4.044-30.152-8-45.288-9.777-7-.821-23.936-1.736-30.081,7.48-10.552,15.82,7.039,41.1,7.22,41.349l-19.515,14.2" fill="#23222d"/>
      <path id="path362" d="M939.468-981.66l39.987-114.74" fill="none" stroke="#23222d" stroke-miterlimit="10" stroke-width="24.603"/>
      <path id="path364" d="M882.309-766.082s-2.735,10.239,12.2,25.487c13.525,13.807,17.947,2.92,17.216-2.549-1.081-8.091-6.251-17.235-5.944-19.28,0,0,2.477-3.525,1.891-5.876-4.864-19.453-17.613-21.688-24.209-18.268-7.673,3.977-7.644,12.7-1.156,20.487" fill="#66241b"/>
      <path id="path366" d="M883.133-896.64c-.1-.229-.12-.28,0,0" fill="#23222d"/>
      <path id="path368" d="M993.635-863.2c-.525-5.929-3.152-10.116-6.771-14.643-10.387-13-23.991-23.915-36.853-34.439a14.7,14.7,0,0,0-10.769-4.687H898.019a14.757,14.757,0,0,0-14.532,12.231,14.873,14.873,0,0,0,.145,8.931c.056.2.116.391.184.58.169.495.353.987.564,1.473-.729-1.679-1.1-2.543-1.248-2.891.167.4.551,1.321.8,2,.692,1.889,1.288,3.812,1.855,5.743.883,3.015,1.616,6.073,2.281,9.144.459,2.111.849,4.235,1.219,6.363.2,1.175.383,2.355.563,3.535l.088.576c.027.233.065.568.127,1.061,3.459,28.291.023,56.828-7.376,84.22-4.352,16.107,20.571,22.933,24.911,6.868,7.976-29.524,11.8-60.589,8.3-91.088-.685-5.961-1.571-11.929-2.807-17.812H941.3a272.175,272.175,0,0,1,24.177,22.808c.677.737,1.329,1.495,1.98,2.255l.123.144a20.21,20.21,0,0,1,.079,2.8c-.013.137-.023.235-.032.345-.04.227-.095.547-.168,1.019-.216,1.375-.476,2.744-.732,4.112a327.877,327.877,0,0,1-8.8,35.159c-4.867,15.98,20.072,22.757,24.911,6.868A340.5,340.5,0,0,0,991.9-847.1c.968-5.179,2.2-10.8,1.731-16.1" fill="#23222d"/>
      <path id="path370" d="M917.962-1001.62c-40.365,0-35.357,20.42-35.357,20.42v79.6c17.3,8.849,58.093,10.225,70.384-6.152V-987.27s5.337-14.352-35.027-14.352" fill="#23222d"/>
      <path id="path372" d="M900.639-997.37l25.98,43.032,10.089-43.032Z" fill="#fff"/>
      <path id="path374" d="M937.511-992.615l-.208-.076c-12.112-4.448-25.256-4.445-35.709.005l-.167.071,7.143,11.761,11.613-7.932,14.569,7.932,2.759-11.761" fill="#ab9c9a"/>
      <path id="path376" d="M928.67-963.142l-2.065,8.808-5.319-8.809-2.627-34.224,10.011,34.225" fill="#13110f"/>
      <path id="path378" d="M920.848-985.127h.063c1.827,0,3.252-.984,3.5-2.419l.992-5.7c.377-2.163-2.007-4.332-4.761-4.332H916.47c-2.753,0-4.329,2.169-3.145,4.332l3.116,5.7a5.112,5.112,0,0,0,4.4,2.419" fill="#13110f"/>
      <path id="path380" d="M936.708-997.37l-.207-.076c-12.113-4.448-25.256-4.445-35.709,0l-.168.072,7.143,11.761,11.777-7.055,14.407,7.055,2.757-11.761" fill="#fff"/>
      <path id="path382" d="M926.6-954.334l9.6-45.729,13.88,4.675-6.26,8.593-4.84,1.645,3.223,5.676-15.6,25.14" fill="#2e2d3f"/>
      <path id="path384" d="M926.6-954.332l-26.652-45.729-12.248,4.05,9.583,9.217,5.453,1.645-1.107,5.676,24.979,25.14" fill="#2e2d3f"/>
      <path id="path386" d="M883.214-1019.56s-24.579-41.345.033-52.589c5.8-22.261,36.077-16.643,43.476-14.552s11.785-1.7,11.785-1.7c2.475,2.239,2.717,6.937,2.717,6.937l5.72-7.481c7.583,4.748,11.8,16.971,1.163,34.379l-64.894,35.012" fill="#72391e"/>
      <path id="path388" d="M925.7-1000.16a7.065,7.065,0,0,1-7.064,7.065h-1.767a7.065,7.065,0,0,1-7.064-7.064v-11.986a7.064,7.064,0,0,1,7.064-7.064h1.767a7.064,7.064,0,0,1,7.064,7.064v11.985" fill="#f78e49"/>
      <path id="path390" d="M922.8-1073.77l-20.083,1.625c-13.035,1.056-22.708,12.965-21.6,26.6l.475,5.872-.1.112a8.691,8.691,0,0,0-1.248,0l-.235.019a9.547,9.547,0,0,0-8.507,10.475l.016.2a9.539,9.539,0,0,0,10.073,8.963l.241-.02a8.693,8.693,0,0,0,1.26-.205l.119.089c1.551,13.088,12.72,22.739,25.389,21.713l20.183-1.635c13.036-1.055,22.708-12.965,21.6-26.6L948.4-1050.99c-1.1-13.637-12.567-23.836-25.6-22.78" fill="#f9a668"/>
      <path id="path392" d="M889.954-1032.45c-.941-11.619-4.551-26.041,5.048-34.771,4.86-4.421,10.585-4.864,16.669-5.357,4.955-.4,9.9-.892,14.863-1.2,5.353-.336,4.691-8.872-.7-8.617-5.433.257-10.843.879-16.263,1.317-7.74.627-14.756,2.291-20.648,7.984-6.555,6.337-9.315,15.329-8.568,24.541q.678,8.386,1.357,16.773c.451,5.556,8.687,4.889,8.237-.668" fill="#72391e"/>
      <path id="path394" d="M912.635-1035.9c.139,1.715-.756,3.187-2,3.288s-2.36-1.209-2.5-2.924.756-3.187,2-3.287,2.36,1.208,2.5,2.923" fill="#181717"/>
      <path id="path396" d="M937.9-1037.94c.139,1.715-.756,3.187-2,3.287s-2.361-1.208-2.5-2.923.755-3.187,2-3.287,2.36,1.208,2.5,2.923" fill="#181717"/>
      <path id="path398" d="M940.163-1049.23c-3.285-3.669-8.42-3.468-11.065.781-.6.961.92,1.843,1.516.885,2.067-3.32,5.795-3.235,8.308-.427.756.844,1.993-.4,1.241-1.24" fill="#72391e"/>
      <path id="path400" d="M905.372-1045.34c2.033-3.2,5.693-3.719,8.28-.785.748.849,1.984-.4,1.241-1.24-3.341-3.791-8.424-2.98-11.036,1.14-.607.956.911,1.837,1.515.885" fill="#72391e"/>
      <path id="path402" d="M945.986-1080.79s1.436,13.049-24.6,15.157-35.7,1.479-33.761,25.335c0,0-8-34.6,14.467-39.7s31.516,5.351,43.893-.789" fill="#72391e"/>
      <path id="path404" d="M912.426-1020.7a11.849,11.849,0,0,0,12.767,10.852,11.846,11.846,0,0,0,10.851-12.764l-23.617,1.912" fill="#fff"/>
      <path id="path406" d="M922.8-1139.36v-12.3c0-4.289-6.667-4.3-6.667,0v12.3c0,4.289,6.667,4.3,6.667,0" fill="#fadd34"/>
      <path id="path408" d="M922.8-1108.5v-3.449a3.373,3.373,0,0,0-3.333-3.333,3.392,3.392,0,0,0-3.333,3.333v3.449a3.369,3.369,0,0,0,3.333,3.333,3.391,3.391,0,0,0,3.333-3.333" fill="#fadd34"/>
      <path id="path410" d="M1027.34-1091.47c4.289,0,4.3-6.667,0-6.667s-4.3,6.667,0,6.667" fill="#fadd34"/>
      <path id="path412" d="M1008.66-1072.8c4.291,0,4.3-6.667,0-6.667s-4.3,6.667,0,6.667" fill="#fadd34"/>
      <path id="path414" d="M1000.32-1063.07q5.348-5.35,10.7-10.7c3.036-3.037-1.676-7.752-4.716-4.713q-5.346,5.348-10.7,10.7c-3.037,3.037,1.676,7.753,4.715,4.715" fill="#fadd34"/>
      <path id="path416" d="M809.243-1091.87l11.621,11.623c3.039,3.037,7.753-1.675,4.716-4.715q-5.814-5.81-11.624-11.623c-3.037-3.037-7.753,1.676-4.713,4.715" fill="#fadd34"/>
      <path id="path418" d="M1065.34-981.106h9.743c4.289,0,4.3-6.667,0-6.667h-9.743c-4.289,0-4.3,6.667,0,6.667" fill="#fadd34"/>
      <path id="path420" d="M1065.34-981.106c4.291,0,4.3-6.667,0-6.667s-4.3,6.667,0,6.667" fill="#fadd34"/>
      <path id="path422" d="M1034.17-981.106c4.289,0,4.3-6.667,0-6.667s-4.3,6.667,0,6.667" fill="#fadd34"/>
      <path id="path424" d="M1014.28-981.106h19.887c4.289,0,4.3-6.667,0-6.667H1014.28c-4.289,0-4.3,6.667,0,6.667" fill="#fadd34"/>
      <path id="path426" d="M978.088-922.666l17.519,17.519c3.037,3.037,7.752-1.676,4.715-4.715L982.8-927.379c-3.037-3.037-7.752,1.675-4.715,4.713" fill="#fadd34"/>
      <path id="path428" d="M769.514-987.772H752.082c-4.291,0-4.3,6.667,0,6.667h17.432c4.289,0,4.295-6.667,0-6.667" fill="#fadd34"/>
      <path id="path430" d="M823.914-893.6l-14.671,14.671c-3.039,3.037,1.675,7.753,4.713,4.715l14.672-14.672c3.037-3.037-1.676-7.753-4.715-4.713" fill="#fadd34"/>
      <path id="path432" d="M800.278-987.772h-4.1a3.368,3.368,0,0,0-3.333,3.333,3.39,3.39,0,0,0,3.333,3.333h4.1a3.37,3.37,0,0,0,3.333-3.333,3.391,3.391,0,0,0-3.333-3.333" fill="#fadd34"/>
      <path id="path434" d="M1008.01-92.773H902.491a15.28,15.28,0,0,1-15.28-15.28V-695.2a15.28,15.28,0,0,1,15.28-15.28h105.521a15.28,15.28,0,0,1,15.28,15.28v587.143a15.28,15.28,0,0,1-15.28,15.28" fill="#98ab23"/>
      <path id="path436" d="M986.031-92.773H880.512a15.28,15.28,0,0,1-15.281-15.281V-695.2a15.281,15.281,0,0,1,15.28-15.28h105.52a15.281,15.281,0,0,1,15.281,15.28v587.143a15.28,15.28,0,0,1-15.281,15.28" fill="#b1d319"/>
    </g>
  </g>
</svg>
