<svg xmlns="http://www.w3.org/2000/svg" xmlns:xlink="http://www.w3.org/1999/xlink" width="406" height="331.888" viewBox="0 0 406 331.888">
  <defs>
    <style>
      .cls-1, .cls-2 {
        fill: #abdaf7;
      }

      .cls-2 {
        opacity: 0.74;
        mix-blend-mode: multiply;
        isolation: isolate;
      }

      .cls-3 {
        fill: #70b2dd;
      }

      .cls-4 {
        fill: #e6f5fc;
      }

      .cls-12, .cls-5 {
        fill: #fff;
      }

      .cls-5 {
        opacity: 0.63;
      }

      .cls-6 {
        fill: url(#linear-gradient);
      }

      .cls-7 {
        fill: #feb19e;
      }

      .cls-8 {
        fill: #1c4f99;
      }

      .cls-9 {
        fill: #d7e3f4;
      }

      .cls-10 {
        fill: #1b3151;
      }

      .cls-11 {
        fill: #2256b2;
      }

      .cls-13 {
        fill: #23406d;
      }

      .cls-14 {
        fill: #3ea9ea;
      }

      .cls-15 {
        fill: #f5fafc;
      }

      .cls-16 {
        fill: #3471ea;
      }

      .cls-17 {
        fill: #d6806a;
      }

      .cls-18 {
        fill: url(#linear-gradient-2);
      }

      .cls-19 {
        fill: #6ecef4;
      }

      .cls-20 {
        fill: #2986cc;
      }

      .cls-21 {
        fill: #f2d7f1;
      }

      .cls-22 {
        fill: #c92d44;
      }

      .cls-23 {
        fill: #382649;
      }

      .cls-24 {
        fill: #46295b;
      }

      .cls-25 {
        fill: url(#linear-gradient-3);
      }

      .cls-26 {
        fill: #f96291;
      }

      .cls-27 {
        fill: #af2567;
        opacity: 0.67;
      }

      .cls-28 {
        fill: #fc9f9f;
      }

      .cls-29 {
        fill: url(#linear-gradient-4);
      }

      .cls-30 {
        fill: url(#linear-gradient-5);
      }

      .cls-31 {
        fill: #f4d65b;
        opacity: 0.53;
      }

      .cls-32 {
        fill: #f6613a;
        opacity: 0.5;
      }

      .cls-33 {
        fill: url(#linear-gradient-6);
      }

      .cls-34 {
        fill: #ff856a;
      }

      .cls-35 {
        fill: url(#linear-gradient-7);
      }

      .cls-36 {
        fill: #f97575;
      }

      .cls-37 {
        fill: url(#linear-gradient-8);
      }

      .cls-38 {
        fill: #c15c48;
      }
    </style>
    <linearGradient id="linear-gradient" x1="0.548" y1="0.796" x2="0.493" y2="0.159" gradientUnits="objectBoundingBox">
      <stop offset="0" stop-color="#359de6"/>
      <stop offset="1" stop-color="#49b8ef"/>
    </linearGradient>
    <linearGradient id="linear-gradient-2" x1="0.412" y1="0.946" x2="0.524" y2="0.019" xlink:href="#linear-gradient"/>
    <linearGradient id="linear-gradient-3" x1="0.526" y1="0.939" x2="0.483" y2="-0.096" gradientUnits="objectBoundingBox">
      <stop offset="0" stop-color="#ca2a73"/>
      <stop offset="1" stop-color="#dd4368"/>
    </linearGradient>
    <linearGradient id="linear-gradient-4" x1="0.539" y1="1.296" x2="0.448" y2="-0.349" xlink:href="#linear-gradient-3"/>
    <linearGradient id="linear-gradient-5" x1="0.612" y1="0.758" x2="0.449" y2="-0.13" gradientUnits="objectBoundingBox">
      <stop offset="0" stop-color="#f79239"/>
      <stop offset="1" stop-color="#f7c759"/>
    </linearGradient>
    <linearGradient id="linear-gradient-6" y1="0.5" x2="1" y2="0.5" gradientUnits="objectBoundingBox">
      <stop offset="0" stop-color="#3f2323"/>
      <stop offset="1" stop-color="#5e3434"/>
    </linearGradient>
    <linearGradient id="linear-gradient-7" x1="0.526" y1="0.834" x2="0.492" y2="0.176" gradientUnits="objectBoundingBox">
      <stop offset="0" stop-color="#1b3151"/>
      <stop offset="1" stop-color="#23406d"/>
    </linearGradient>
    <linearGradient id="linear-gradient-8" x1="0.752" y1="0.927" x2="0.24" y2="-0.043" gradientUnits="objectBoundingBox">
      <stop offset="0" stop-color="#382e2c"/>
      <stop offset="1" stop-color="#534143"/>
    </linearGradient>
  </defs>
  <g id="OBJECTS" transform="translate(-55 -84.056)">
    <g id="Group_84" data-name="Group 84">
      <g id="Group_60" data-name="Group 60">
        <g id="Group_55" data-name="Group 55">
          <path id="Path_141" data-name="Path 141" class="cls-1" d="M334.188,366.238c-.2.086-.417.16-.62.224-6.267,2.311-13.08,2.225-19.166.995-8.171-1.647-15.048-5.38-17.551-8.2-1.2-1.337-1.411-2.471-.342-3.091,5.1-2.941,39.9-.984,39.9-.984,1.112.043,2.182.128,3.177.246C347.5,356.377,350.809,359.66,334.188,366.238Z"/>
          <path id="Path_142" data-name="Path 142" class="cls-1" d="M439.013,382.153c-2.653,3.454-32.5,3.946-44.632,4.427s-15.529,6.236-22.364,9.508-49.989,5.316-92.364,6.246c-35.818.77-22.289,4.974-6.791,6.043s21.4,5.626,7.112,6.535c-13.347.856-67.2,1.679-86.428.278s-18.973-13.85-35.262-14.749-60.974-3.23-79.979-6.652c-21.658-3.893-7.947-7.957,29.048-12.364,10.032-1.187,17.251-2.374,21.872-3.422,7.861-1.776,8.182-3.2,1.957-3.679-8.61-.674-12.941-3.787-1.754-5.648q2.471-.4,6.011-.727c7.818-.684,21.978-1.24,35.658-1.647,4.128-.118,8.214-.235,12.075-.332,6.406-.171,12.16-.288,16.438-.374,4.663-.1,7.551-.15,7.551-.15,17.177-.588,11.23-5.583,37.262-5.935,9.637-.129,18.075-.3,25.433-.129,8.942.214,16.3.931,22.279,2.824a30.928,30.928,0,0,1,6.6,2.93c5.743,3.466,18.8,4.963,33.144,5.744,12.963.7,26.984.823,37.626,1.3C399.953,373.543,443.494,376.324,439.013,382.153Z"/>
          <path id="Path_143" data-name="Path 143" class="cls-2" d="M287.129,378.809c0-4.3-14.87-7.788-33.213-7.788s-33.213,3.487-33.213,7.788a1.946,1.946,0,0,0,.106.594c-16.618.558-29.313,3.566-29.313,7.193,0,4.025,15.624,7.287,34.9,7.287s34.9-3.262,34.9-7.287a1.607,1.607,0,0,0-.024-.194C276.071,385.618,287.129,382.517,287.129,378.809Z"/>
          <path id="Path_144" data-name="Path 144" class="cls-2" d="M182.583,383.4c0,3.85-11.925,6.984-26.631,6.984s-26.62-3.134-26.62-6.984c0-1.722,2.374-3.294,6.31-4.514-2.3-.246-4.449-.545-6.417-.887,7.861-1.776,8.182-3.2,1.957-3.679-8.61-.674-12.941-3.787-1.754-5.648q2.471-.4,6.011-.727c7.818-.684,21.978-1.24,35.658-1.647,7.262,1.38,11.882,3.444,11.882,5.765,0,2.267-4.428,4.3-11.433,5.679C178.23,379.008,182.583,381.072,182.583,383.4Z"/>
          <ellipse id="Ellipse_3" data-name="Ellipse 3" class="cls-2" cx="28.45" cy="6.05" rx="28.45" ry="6.05" transform="translate(296.51 376.417)"/>
          <path id="Path_145" data-name="Path 145" class="cls-2" d="M332.049,362.377c0,2.642-7.732,4.813-17.647,5.08-8.171-1.647-15.048-5.38-17.551-8.2,3.594-1.209,9.22-1.989,15.541-1.989C323.247,357.265,332.049,359.553,332.049,362.377Z"/>
          <path id="Path_146" data-name="Path 146" class="cls-1" d="M168.1,409.161c-3.735-2.8-10.339-2.852-22.46-3.387s-33.69,2.852-24.064,5.7C130.843,414.223,181.144,418.925,168.1,409.161Z"/>
          <path id="Path_147" data-name="Path 147" class="cls-1" d="M116.189,403.61c.643.08-.268,4.344-6.507,4.757S94.532,400.936,116.189,403.61Z"/>
          <path id="Path_148" data-name="Path 148" class="cls-1" d="M309.411,410.441c-3.939-.725-9.447-1.782-12.478,1.783s11.052,3.09,15.508,2.7S314.932,411.458,309.411,410.441Z"/>
          <path id="Path_149" data-name="Path 149" class="cls-3" d="M387.041,381.743s1.337-12.924-3.476-21.22c0,0,4.456,3.127,6.239,18.635,0,0-.535-19.69,4.813-23.262,0,0-3.3,1.6-2.674,25.847Z"/>
          <path id="Path_150" data-name="Path 150" class="cls-3" d="M412.264,378.356s-.936-23.53,7.085-24.466c0,0-6.818,2.006-4.857,24.466Z"/>
          <path id="Path_151" data-name="Path 151" class="cls-3" d="M96.041,388.873S97.623,370,93.9,366.3c0,0,4.055.824,4.278,18.114,0,0,.847-16.421,5.927-17.491,0,0-4.813,4.055-3.743,21.948Z"/>
          <path id="Path_152" data-name="Path 152" class="cls-3" d="M183.92,403.222s.268-8.159-2.718-9.682c0,0,2.9,0,4.011,6.333,0,0-.446-12.6,2.317-15.4,0,0-1.738,1.705-.758,16.136l.223,2.618Z"/>
          <path id="Path_153" data-name="Path 153" class="cls-3" d="M190.337,403.222s.337-12.38,3.031-12.837c0,0-2.3.881-1.515,12.837Z"/>
        </g>
        <g id="Group_59" data-name="Group 59">
          <g id="Group_56" data-name="Group 56">
            <path id="Path_154" data-name="Path 154" class="cls-4" d="M423.943,227.339q.031,3.448-.1,6.727c-.942,25.23-13.295,48.514-35.776,56.76-.674.246-1.348.481-2.043.7a54.511,54.511,0,0,1-17.722,2.46h-.01c-.877-.022-1.754-.054-2.642-.107a80.051,80.051,0,0,1-19.551-3.829,172.3,172.3,0,0,1-20.129-8.032c-1.294-.588-2.524-1.166-3.732-1.7-.011.011-.011,0-.011,0-15.39-6.9-24.941-9.091-57.476,9.6-.738.427-1.476.855-2.235,1.3h-.011c-5.508,3.22-11.647,7.027-18.556,11.466q-3.369,2.166-6.824,3.978c-.706.375-1.422.738-2.139,1.091a86.074,86.074,0,0,1-15.647,5.872c-.706.182-1.423.364-2.139.535a87.827,87.827,0,0,1-23.69,2.31c-.727-.021-1.444-.054-2.171-.1a103.575,103.575,0,0,1-23.1-4.075c-.813-.235-1.636-.492-2.449-.749-41.872-13.262-78.846-51.177-90.2-90.952-.011-.011,0-.011,0-.011q-.817-2.839-1.444-5.69c-.011-.011,0-.011,0-.011q-.208-.882-.385-1.764c-6.952-34.364-2.267-56.931,10.524-71.07a40.149,40.149,0,0,1,3.583-3.551.011.011,0,0,0,.011-.011c12.235-10.93,30.257-15.829,51.808-16.877,42.706-2.064,93.519,34.5,119.979,29.305h.011a19.8,19.8,0,0,0,3.262-.9,17.652,17.652,0,0,0,6.481-4.1q2.006-2,4.1-4.235l.011-.01c.62-.653,1.23-1.295,1.84-1.968,10.074-10.856,21.657-24.546,35.08-33.787.545-.363,1.091-.738,1.647-1.091,8.257-5.39,17.2-9.026,26.909-9.262.728-.032,1.466-.032,2.2,0,9.466.257,19.648,3.776,30.6,12.011a102.952,102.952,0,0,1,8.7,7.337c.631.6,1.251,1.2,1.871,1.808,14.845,14.695,25.092,33.433,31.7,52.748.278.824.556,1.637.813,2.46a184.3,184.3,0,0,1,6.61,27.252c.149.866.278,1.733.406,2.588a181.4,181.4,0,0,1,2.022,23.337C423.932,225.863,423.943,226.6,423.943,227.339Z"/>
            <path id="Path_155" data-name="Path 155" class="cls-5" d="M423.943,227.339c-15.465,4.524-28,6.748-38.353,6.748-9.252,0-16.76-1.775-23.038-5.294-20.492-11.487-27.2-41.754-37.348-87.583l-.919-4.16a81.088,81.088,0,0,0-13.84-31.124c.545-.363,1.091-.738,1.647-1.091a82.359,82.359,0,0,1,14.289,31.755l.92,4.16c10.021,45.262,16.641,75.166,36.3,86.172,12.867,7.208,31.327,6.748,60.322-1.808C423.932,225.863,423.943,226.6,423.943,227.339Z"/>
            <path id="Path_156" data-name="Path 156" class="cls-5" d="M421.9,201.777c-8.021,6.973-16.524,12.364-25.005,14.46a60.685,60.685,0,0,1-14.343,2.128,20.24,20.24,0,0,1-11.647-3.144c-12.631-8.364-16.77-34.278-25.85-91.059A277.433,277.433,0,0,0,339,95.573c.728-.032,1.466-.032,2.2,0a278.778,278.778,0,0,1,5.958,28.246c8.706,54.45,13.08,81.776,24.92,89.616,5.272,3.487,12.31,3.7,24.3.727,8.45-2.1,17.016-7.722,25.113-14.973C421.643,200.055,421.772,200.922,421.9,201.777Z"/>
            <path id="Path_157" data-name="Path 157" class="cls-5" d="M414.884,171.937c-7.412,9.359-16.086,17.979-23.594,19.1a11.078,11.078,0,0,1-1.657.128,9.539,9.539,0,0,1-6.8-2.823c-12.417-11.872-6.053-54.086-2.331-73.423.631.6,1.251,1.2,1.871,1.808-3.647,19.561-9.326,59.294,1.936,70.075a7.471,7.471,0,0,0,6.674,2.118c7.155-1.059,15.765-9.969,23.091-19.445C414.349,170.3,414.627,171.114,414.884,171.937Z"/>
            <path id="Path_158" data-name="Path 158" class="cls-5" d="M276.391,140.033a93.016,93.016,0,0,1-20.855,33.637c-13.979,14.193-39.1,28.931-79.37,18.449-44.546-11.593-77.22-9.112-92.011,6.995-5.144,5.594-8.011,12.845-8.567,21.476q-.817-2.839-1.444-5.69c-.011-.011,0-.011,0-.011a34.549,34.549,0,0,1,8.439-17.23c15.347-16.706,48.77-19.411,94.118-7.615,31.508,8.2,57.5,2.2,77.252-17.818a91.6,91.6,0,0,0,19.561-30.535l.011-.01c.545-1.423.8-2.246.813-2.279l1.027.311Z"/>
            <path id="Path_159" data-name="Path 159" class="cls-5" d="M263.065,150.108c-.267.385-6.481,9.658-21.572,15.1-13.8,4.973-37.968,7.476-74.76-8.877-38.9-17.283-64.61-21.775-82.45-14.278a40.149,40.149,0,0,1,3.583-3.551.011.011,0,0,0,.011-.011c18.15-5.379,43.305-.3,79.722,15.893,36.033,16.011,59.6,13.658,73.017,8.867a46.262,46.262,0,0,0,19.048-12.332h.011a18.709,18.709,0,0,0,1.593-1.989l1.669,1.091Z"/>
            <path id="Path_160" data-name="Path 160" class="cls-5" d="M388.071,290.826c-.674.246-1.348.481-2.043.7-2.535-11.423-7.326-19.647-14.492-24.952-15.551-11.5-40.631-7.123-60.749-2.032-18.406,4.652-36.3-3.166-53.6-10.727-22.353-9.776-45.466-19.883-71.306-4.963C160.84,263.3,162.016,290.12,168.241,312.3c-.813-.235-1.636-.492-2.449-.749-6.1-22.6-6.781-49.669,19.016-64.567,26.77-15.444,50.4-5.123,73.23,4.866,17.754,7.754,34.525,15.091,52.225,10.61,20.578-5.209,46.279-9.647,62.546,2.4C380.349,270.43,385.408,279,388.071,290.826Z"/>
            <path id="Path_161" data-name="Path 161" class="cls-5" d="M264.755,289.917c-.738.427-1.476.855-2.235,1.3h-.011c-14.77-8.181-34.182-16.385-51.68-15.615-6.5.278-11.39,2.685-14.524,7.145-3.518,5.016-6.321,14.791-2.791,33.722-.727-.021-1.444-.054-2.171-.1-3.519-19.37-.514-29.551,3.208-34.856,3.53-5.027,8.984-7.743,16.193-8.054C229.375,272.644,249.664,281.4,264.755,289.917Z"/>
            <path id="Path_162" data-name="Path 162" class="cls-5" d="M368.3,293.981c-.877-.022-1.754-.054-2.642-.107a27.13,27.13,0,0,0-11.091-9.091c-8.4-3.829-18.781-4.043-28.589-2.77-1.294-.588-2.524-1.166-3.732-1.7,11.059-1.8,23.3-1.978,33.209,2.524A29.061,29.061,0,0,1,368.3,293.981Z"/>
            <path id="Path_163" data-name="Path 163" class="cls-5" d="M237.129,306.665c-.706.375-1.422.738-2.139,1.091-7.529-5.422-11.219-5.486-13.016-4.353-2.374,1.5-2.888,5.765-2.631,10.225-.706.182-1.423.364-2.139.535-.332-5.08.256-10.439,3.626-12.567C224.284,299.425,229.642,301.083,237.129,306.665Z"/>
            <path id="Path_164" data-name="Path 164" class="cls-4" d="M258.808,135.039a13.219,13.219,0,0,1-5.9.257c-.8-.086-1.647-.225-2.546-.386-1.422-.267-2.952-.609-4.545-1.037q-1.059-.273-2.15-.61c-14.6-4.331-32.995-14.267-29.081-22.823,2.492-5.455,15.423-10.375,29.594-13.284l2.139-.417a135.365,135.365,0,0,1,17.434-2.171c.748-.043,1.5-.075,2.235-.107,9.968-.321,17.861.973,19.54,4.567C290.52,109.723,280.231,126.483,258.808,135.039Z"/>
          </g>
          <g id="Group_57" data-name="Group 57">
            <path id="Path_165" data-name="Path 165" class="cls-3" d="M273.955,278.378a46.774,46.774,0,0,1-30.338-11.018c-8.506-6.974-17.728-29.935-28.406-56.522-8.324-20.726-17.758-44.217-28.62-64.656l.944-.5c10.889,20.489,20.335,44.008,28.668,64.758,10.624,26.451,19.8,49.3,28.093,56.094,27.858,22.838,59.526,2.321,59.842,2.11l.591.892C304.522,269.673,291.086,278.378,273.955,278.378Z"/>
            <rect id="Rectangle_12" data-name="Rectangle 12" class="cls-3" width="13.729" height="1.069" transform="translate(425.102 136.119) rotate(-25.213)"/>
            <path id="Path_166" data-name="Path 166" class="cls-3" d="M426.807,307.478a46.978,46.978,0,0,1-12.505-1.884c-17.761-4.977-36.287-19.026-43.531-40.472a347.751,347.751,0,0,0-60.232,4.493l-.188-1.053a352.442,352.442,0,0,1,53.854-4.644c2.09-.011,4.167.009,6.188.05a60.591,60.591,0,0,1-2.632-13.974c-4.625-65.9,28.4-96.8,48.5-109.354l.566.907c-19.893,12.427-52.58,43.031-47.993,108.372a59.328,59.328,0,0,0,2.7,14.074c33.783.825,55.828,8.3,65.6,22.254,5.97,8.528,4.923,13.561,2.995,16.282C437.81,305.784,433,307.478,426.807,307.478Zm-54.9-42.328c7.209,20.869,25.317,34.548,42.68,39.415,11.365,3.185,21.271,2.118,24.653-2.654,2.482-3.5,1.445-8.7-3-15.05C425.059,270.88,398.038,265.867,371.911,265.15Z"/>
            <path id="Path_167" data-name="Path 167" class="cls-3" d="M180.752,135.754c-15.236-25.74-30.435-39.7-46.464-42.68-12-2.229-24.693,1.87-37.738,12.181l-.662-.84c13.3-10.511,26.277-14.685,38.6-12.392,16.351,3.038,31.787,17.164,47.191,43.186Z"/>
            <path id="Path_168" data-name="Path 168" class="cls-3" d="M152.732,117.71c-6.469-8.724-14.088-13.646-22.645-14.627-14.546-1.657-26.981,8.729-27.1,8.834l-.693-.815c.127-.109,12.907-10.8,27.919-9.082,8.863,1.018,16.73,6.082,23.381,15.053Z"/>
            <path id="Path_169" data-name="Path 169" class="cls-3" d="M95.911,329.415c-.156-.109-3.841-2.77-6.341-9.731l1.007-.361c2.375,6.616,5.916,9.194,5.951,9.219Z"/>
            <path id="Path_170" data-name="Path 170" class="cls-3" d="M87.8,312.376c-1.43-10.133.452-22.533,5.594-36.854a36.209,36.209,0,0,0,1.19-4.056c-24.99-10.5-38.64-26.044-39.544-45.113-.429-9.013,2.38-12.27,4.811-13.415,4.093-1.925,10.221.4,16.82,6.4,12.714,11.555,22.951,32.708,19.166,51.386,21.237,8.761,43.131,10.981,43.552,11.02l-.1,1.066a176.621,176.621,0,0,1-41.167-9.92q-1.286-.5-2.538-1.009a36.707,36.707,0,0,1-1.183,4c-5.082,14.156-6.948,26.384-5.542,36.343Zm-24.85-99.021a6.149,6.149,0,0,0-2.643.55c-3.064,1.443-4.516,5.731-4.2,12.4,1.058,22.282,19.479,35.864,38.725,44,3.6-18.231-6.439-38.869-18.88-50.174C71.12,215.735,66.48,213.355,62.954,213.355Z"/>
            <path id="Path_171" data-name="Path 171" class="cls-3" d="M160.722,282.779c-3.217,0-5.087-.14-5.188-.148l.088-1.065c.576.046,57.914,4.279,94.493-36.545l.8.715C220.465,279.714,175.8,282.779,160.722,282.779Z"/>
            <path id="Path_172" data-name="Path 172" class="cls-3" d="M156.418,293.341a163.715,163.715,0,0,1-20.157-1.265l.131-1.061c28.246,3.509,46.847-1.432,47.031-1.483l.282,1.032C183.567,290.6,173.271,293.341,156.418,293.341Z"/>
            <path id="Path_173" data-name="Path 173" class="cls-3" d="M435.594,302.007l-.938-.512c5.316-9.748-12.865-21.8-13.049-21.92l.585-.894C422.979,279.2,441.379,291.4,435.594,302.007Z"/>
          </g>
          <g id="Group_58" data-name="Group 58">
            <path id="Path_174" data-name="Path 174" class="cls-1" d="M460.712,122.969a2.845,2.845,0,0,0-1.065-3.664,9.32,9.32,0,0,0-9.481-.537,15.6,15.6,0,0,1-12.185.874s8.152,9.9,14.616,9.717C456.922,129.233,459.487,125.455,460.712,122.969Z"/>
            <path id="Path_175" data-name="Path 175" class="cls-1" d="M266.643,85.761a2.845,2.845,0,0,0-3.477-1.57,9.322,9.322,0,0,0-6.567,6.86,15.591,15.591,0,0,1-7.249,9.832s12.825.236,16.881-4.8C268.945,92.711,267.738,88.307,266.643,85.761Z"/>
            <path id="Path_176" data-name="Path 176" class="cls-1" d="M200.941,340.738a2.845,2.845,0,0,0-.79-3.732,9.321,9.321,0,0,0-9.415-1.24,15.6,15.6,0,0,1-12.216-.033s7.393,10.482,13.854,10.775C196.7,346.7,199.535,343.127,200.941,340.738Z"/>
            <path id="Path_177" data-name="Path 177" class="cls-1" d="M74.142,108.986a3.455,3.455,0,0,1,3.177-3.373,11.32,11.32,0,0,1,10.55,4.663,18.939,18.939,0,0,0,12.692,7.683s-14.292,6.2-21.178,2.425C74.776,117.856,74.091,112.352,74.142,108.986Z"/>
          </g>
        </g>
      </g>
      <g id="Group_83" data-name="Group 83">
        <path id="Path_178" data-name="Path 178" class="cls-6" d="M251.568,182.833s2.673-5.024,14.171,2.468,21.524,4.358,21.524,4.358L283.52,197.5l-17.246,4.651Z"/>
        <path id="Path_179" data-name="Path 179" class="cls-7" d="M190.516,210.44l-35.438,10.851-5.022-7.2,35.287-17.739Z"/>
        <g id="Group_63" data-name="Group 63">
          <g id="Group_61" data-name="Group 61">
            <path id="Path_180" data-name="Path 180" class="cls-8" d="M323.535,363.973a1.55,1.55,0,0,1-.074.214c-1.023,3.092-5.19,2.166-13.024.65-3.8-.735-5.239-1.972-5.457-3.6-.24-1.8,1-4.1,2.158-6.762a56.548,56.548,0,0,0,3.222-10.346l10.9,2.108C319.964,357.824,324.471,360.6,323.535,363.973Z"/>
            <path id="Path_181" data-name="Path 181" class="cls-9" d="M323.461,364.187c-1.023,3.092-5.19,2.166-13.024.65-3.8-.735-5.239-1.972-5.457-3.6C308.217,358.3,316.717,352.424,323.461,364.187Z"/>
            <path id="Path_182" data-name="Path 182" class="cls-10" d="M353.172,256.43s2.674,18.182-9.886,54.724c-3.17,9.223-17.953,37.79-17.953,37.79L319.406,263.5Z"/>
          </g>
          <g id="Group_62" data-name="Group 62">
            <path id="Path_183" data-name="Path 183" class="cls-11" d="M333.247,385.179a1.452,1.452,0,0,1-.032.225c-.417,3.23-4.684,3.112-12.663,3.112-3.872,0-5.519-.941-6.043-2.5-.577-1.721.2-4.214.834-7.048a56.538,56.538,0,0,0,1.2-10.77h11.1C328.573,379.821,333.525,381.692,333.247,385.179Z"/>
            <path id="Path_184" data-name="Path 184" class="cls-12" d="M333.215,385.4c-.417,3.23-4.684,3.112-12.663,3.112-3.872,0-5.519-.941-6.043-2.5C317.129,382.516,324.359,375.136,333.215,385.4Z"/>
            <path id="Path_185" data-name="Path 185" class="cls-13" d="M334.188,266.323s-5.615,11.23-6.149,12.032,2.673,89.837,2.673,89.837H312.8c-6.417-39.041-12.032-113.548-12.032-113.548Z"/>
          </g>
        </g>
        <g id="Group_69" data-name="Group 69">
          <g id="Group_66" data-name="Group 66">
            <g id="Group_64" data-name="Group 64">
              <path id="Path_186" data-name="Path 186" class="cls-14" d="M265.607,382.523a5.333,5.333,0,0,1-.1.855c-.805,3.743-13.105,4.269-14.439,1.326a6.266,6.266,0,0,1-.4-1.818c-.35-3.969.911-16.644.911-16.644l12.084.012S265.824,378.576,265.607,382.523Z"/>
              <path id="Path_187" data-name="Path 187" class="cls-9" d="M265.607,382.523a5.333,5.333,0,0,1-.1.855c-.805,3.743-13.105,4.269-14.439,1.326a6.266,6.266,0,0,1-.4-1.818,2.032,2.032,0,0,0,2.685-.319c1.669-1.539,1.874-3.6,5.746-3.6C263.032,378.97,264.045,384.03,265.607,382.523Z"/>
              <path id="Path_188" data-name="Path 188" class="cls-15" d="M261.66,372.065a.521.521,0,0,1-.244-.06c-4-2.065-6.328-.157-6.426-.074a.537.537,0,0,1-.753-.059.531.531,0,0,1,.054-.75c.118-.1,2.941-2.481,7.614-.067a.535.535,0,0,1-.245,1.01Z"/>
              <path id="Path_189" data-name="Path 189" class="cls-15" d="M261.63,375.141a.535.535,0,0,1-.244-.059c-4-2.066-6.327-.158-6.425-.075a.535.535,0,0,1-.7-.809c.119-.1,2.941-2.481,7.615-.066a.534.534,0,0,1-.246,1.009Z"/>
            </g>
            <g id="Group_65" data-name="Group 65">
              <path id="Path_190" data-name="Path 190" class="cls-8" d="M243.957,322.065l5.818,46.127h15.366l2.1-46.922a25.308,25.308,0,0,1-3.426-4.693l-13-22.215Z"/>
              <path id="Path_191" data-name="Path 191" class="cls-11" d="M263.974,247.917l3.267,72.335a11.7,11.7,0,0,1-11.786,11.927h0a11.7,11.7,0,0,1-11.5-10.114l-8.165-64.031Z"/>
            </g>
          </g>
          <g id="Group_68" data-name="Group 68">
            <g id="Group_67" data-name="Group 67">
              <path id="Path_192" data-name="Path 192" class="cls-14" d="M233.707,391.623c-.075.6-.257,1.005-.589,1.166-2.545,1.2-15.24,1.475-16.706,0a2.392,2.392,0,0,1-.353-1.434c-.246-4.31,2.214-16.214,2.214-16.214h11.444S234.22,387.6,233.707,391.623Z"/>
              <path id="Path_193" data-name="Path 193" class="cls-12" d="M233.707,390.923c-.075.792-.038,1.487-.37,1.7-2.545,1.583-15.459,2.117-16.925.166a5.742,5.742,0,0,1-.353-2.219c1.765-2.065,4.867-4.823,8.835-4.823C228.765,385.747,231.846,388.6,233.707,390.923Z"/>
              <path id="Path_194" data-name="Path 194" class="cls-15" d="M229.308,384.237a.534.534,0,0,1-.186-.033,15.383,15.383,0,0,0-9.457,0,.535.535,0,0,1-.366-1,16.213,16.213,0,0,1,10.2,0,.535.535,0,0,1-.186,1.036Z"/>
              <path id="Path_195" data-name="Path 195" class="cls-15" d="M228.038,381.43a.517.517,0,0,1-.176-.03,9.145,9.145,0,0,0-6.161-.015.535.535,0,0,1-.428-.98,10.091,10.091,0,0,1,6.942-.014.534.534,0,0,1-.177,1.039Z"/>
              <path id="Path_196" data-name="Path 196" class="cls-7" d="M220.083,375.615s.669,2.808,4.312,2.808,4.779-4.011,4.779-4.011Z"/>
            </g>
            <path id="Path_197" data-name="Path 197" class="cls-16" d="M252.648,260.767s-9.9,14.112-13.915,18.925l-4.4,97.059h-19.66l-6.15-97.326-1.726-16.114Z"/>
          </g>
        </g>
        <path id="Path_198" data-name="Path 198" class="cls-7" d="M310.522,185.832c-3.444,3.3-28.077,26.448-37.6,22.02l2.439-15.861,32.682-12.816A50.125,50.125,0,0,0,310.522,185.832Z"/>
        <g id="Group_71" data-name="Group 71">
          <path id="Path_199" data-name="Path 199" class="cls-17" d="M394.867,188.632l1.174-1.345A44.191,44.191,0,0,1,397.47,180c.848-2.288,1.263-2.8,1.788.486a18.982,18.982,0,0,0,1.187,4.666s3.642-4.831,3.912-7.633.807-4.267,1.586-4.226,2.335,4.593-1.125,11.6c0,0,2.844-4.648,3.161-7.843s1.481-5.184,2.391-3.287.552,7.892-3.393,12.551c0,0,4.859-4.8,4.677-8.362s2.084-2.154,2.31,2.024c.219,4.034-5.2,9.252-5.2,9.252s4.537-4.146,5.667-6.7,2.294.668,1.239,3.044-2.54,5.526-8.507,8.142c-.339.149-3.041,1.222-3.041,1.222l-2.617,2.037Z"/>
          <g id="Group_70" data-name="Group 70">
            <path id="Path_200" data-name="Path 200" class="cls-18" d="M402.371,197.5a50.344,50.344,0,0,1-3.145,5.059,78.079,78.079,0,0,1-19.583,19.647c-15.208,10.492-28.7,2.449-29.208,2.139l-.011-.011a74.226,74.226,0,0,0,.888,13.947,171.24,171.24,0,0,0,4.62,21.358s-19.423,12.118-35.647,8.91a32.088,32.088,0,0,1-22.279-16.931c9.583-9.594,7.648-31.69,6.792-38.492v-.011c-.161-1.273-.289-2.011-.289-2.011-.021.011-.053.011-.075.022-12.267,3.155-23.037-3.979-23.037-3.979a35.848,35.848,0,0,0,3.369-1.583c9.925-5.294,22.62-16.791,22.62-16.791,3.284.673,4.952-.471,9.358-2.236v-.01c.172-.064.343-.129.525-.2a69.751,69.751,0,0,1,7.4-2.438,14.3,14.3,0,0,1,7.54.214c1.486.385,2.9.855,4.235,1.2,8.952,2.321,12.618,7.041,18.353,13.626,8.268,9.491,12.546,10.8,12.546,10.8L390.9,190.408l3.979-2.834Z"/>
            <path id="Path_201" data-name="Path 201" class="cls-19" d="M402.371,197.5a50.344,50.344,0,0,1-3.145,5.059l-8.321-12.15,3.979-2.834Z"/>
            <path id="Path_202" data-name="Path 202" class="cls-19" d="M336.445,185.3c.118,7.486-9.412,16.16-17.037,16.053-9.166-.128-3.4-13.775-3.4-13.775s.31-.321.844-.856c.129-.117.268-.246.418-.4a69.751,69.751,0,0,1,7.4-2.438,26.683,26.683,0,0,1,7.037-1.07c.15.428.321.856.5,1.284C333.7,184.483,335.108,184.953,336.445,185.3Z"/>
            <path id="Path_203" data-name="Path 203" class="cls-20" d="M351.312,238.28c-8.835-8.588-11.059-20.706-11.059-20.706l10.171,6.759A74.226,74.226,0,0,0,351.312,238.28Z"/>
            <path id="Path_204" data-name="Path 204" class="cls-20" d="M304.434,211.125c-12.267,3.155-23.037-3.979-23.037-3.979a35.848,35.848,0,0,0,3.369-1.583c12.738,3.476,17.871-4.4,17.871-4.4Z"/>
          </g>
        </g>
        <g id="Group_76" data-name="Group 76">
          <g id="Group_73" data-name="Group 73">
            <g id="Group_72" data-name="Group 72">
              <path id="Path_205" data-name="Path 205" class="cls-21" d="M129.374,331.564s-.8,18.271,4.279,21.658,11.319.445,11.319.445l4.723-17.29-5.629-6.982Z"/>
              <path id="Path_206" data-name="Path 206" class="cls-22" d="M130.4,332.954s1.2,20.179,5.924,18.753,4.724-2.942,7.22-1.07,3.239-6.15,3.239-6.15l-2.794-15.508H128.9Z"/>
              <path id="Path_207" data-name="Path 207" class="cls-12" d="M143.077,338.454l-7.359.757a.535.535,0,0,1-.109-1.064l7.359-.757a.535.535,0,1,1,.109,1.064Z"/>
              <path id="Path_208" data-name="Path 208" class="cls-12" d="M143.237,341.752l-7,.72a.535.535,0,0,1-.109-1.064l7-.72a.535.535,0,0,1,.109,1.064Z"/>
            </g>
            <path id="Path_209" data-name="Path 209" class="cls-23" d="M116,273.72l6.541,49.882a11.345,11.345,0,0,0,9.694,9.763h0a11.345,11.345,0,0,0,12.877-10.524l3.152-50.012-11.051-5.882Z"/>
          </g>
          <g id="Group_75" data-name="Group 75">
            <path id="Path_210" data-name="Path 210" class="cls-24" d="M136.326,256.965l5.348,113.012,17.647,1.044,4.464-117.812S146.192,242.938,136.326,256.965Z"/>
            <g id="Group_74" data-name="Group 74">
              <path id="Path_211" data-name="Path 211" class="cls-22" d="M160.209,389.4a4.809,4.809,0,0,1-1.679.556,55.81,55.81,0,0,1-13.819-.011,4.887,4.887,0,0,1-1.967-.545c-1.156-1.07,2.406-14.974,2.406-14.974v-4.246l11.85.7.268,2.31S162.348,387.9,160.209,389.4Z"/>
              <path id="Path_212" data-name="Path 212" class="cls-12" d="M158.53,389.96a55.81,55.81,0,0,1-13.819-.011c1.327-2.427,4.236-6.781,6.91-7.048C154.262,382.644,157.161,387.393,158.53,389.96Z"/>
              <path id="Path_213" data-name="Path 213" class="cls-12" d="M155.043,375.326h-7.4a.535.535,0,1,1,0-1.07h7.4a.535.535,0,1,1,0,1.07Z"/>
              <path id="Path_214" data-name="Path 214" class="cls-12" d="M154.864,378.623h-7.04a.535.535,0,1,1,0-1.069h7.04a.535.535,0,1,1,0,1.069Z"/>
            </g>
          </g>
        </g>
        <g id="Group_78" data-name="Group 78">
          <path id="Path_215" data-name="Path 215" class="cls-25" d="M155.578,213.3a.851.851,0,0,0,.011.107c.01.235.064.856.149,1.8.118,1.24.31,3.059.61,5.262.107.813.224,1.679.364,2.6s.288,1.882.459,2.887q.369,2.183.835,4.557a101.865,101.865,0,0,0,6.855,22.342,6.808,6.808,0,0,1-1.411,7.679c-4.974,4.984-17.006,12.781-44.086,14a6.85,6.85,0,0,1-6.129-3.187,6.741,6.741,0,0,1-1.048-4.182c.086-1.1.161-2.171.225-3.219.363-5.957.47-11.048.385-15.519v-.193a140.38,140.38,0,0,0-1.07-15.058l-5.647-34.485s12.813-14.628,30.428-14.8,40.107,17.733,40.107,17.733l13.9,8.823,13.369-2.139,2.909,16.931A64.257,64.257,0,0,1,155.578,213.3Z"/>
          <path id="Path_216" data-name="Path 216" class="cls-26" d="M111.513,227.071l.15-5.754c19.476,2.695,39.455-4.342,44.075-6.117.118,1.24.31,3.059.61,5.262C134.3,229.563,111.513,227.071,111.513,227.071Z"/>
          <path id="Path_217" data-name="Path 217" class="cls-26" d="M157.171,225.948q.369,2.183.835,4.557c-28.161,9.925-45.5,6.342-45.5,6.342l-.053-4.813C131.6,233.467,149.578,228.462,157.171,225.948Z"/>
          <path id="Path_218" data-name="Path 218" class="cls-27" d="M113.777,205.717c1.026,11.811,4.633,17.9,7.908,25.579l17.723-4.933-26.745,20.575-7.487-6.551Z"/>
          <path id="Path_219" data-name="Path 219" class="cls-27" d="M156.712,223.061c-5.412-4.685-7.1-13.509-7.1-13.509l5.979,3.851c.01.235.064.856.149,1.8.118,1.24.31,3.059.61,5.262C156.455,221.275,156.572,222.141,156.712,223.061Z"/>
          <path id="Path_220" data-name="Path 220" class="cls-27" d="M145.4,235.221c-7.091,12.556-18.332,24.171-32.984,28.717.363-5.957.47-11.048.385-15.519v-.193Z"/>
          <g id="Group_77" data-name="Group 77">
            <path id="Path_221" data-name="Path 221" class="cls-28" d="M140.554,226.741l1.655-.793,1.871-5.615s.8-4.813.936-6.016,2.741,2.674,2.072,6.417c0,0,2.875-2.54,4.078-2.272s.869,2.83.869,2.83a6.28,6.28,0,0,1,3.008,6.091c-.415,4.265-8.155,5.584-8.155,5.584l-2.152,1.1Z"/>
            <path id="Path_222" data-name="Path 222" class="cls-29" d="M145.4,235.218l-5.27-9.225-22.877,11.8a119.419,119.419,0,0,1-1.8-35.935,31.258,31.258,0,0,0-1.017-3.036c-1.756-3.774-9.1-3-12.688,6.406-7.665,20.056-1.325,46.368,10.71,48.552C125.957,256.229,145.4,235.218,145.4,235.218Z"/>
          </g>
        </g>
        <g id="Group_79" data-name="Group 79">
          <path id="Path_223" data-name="Path 223" class="cls-30" d="M254.295,213.125c-.428,15.3,3.775,21.914,3.775,21.914s4.813,3.391,4.813,5.348a8.956,8.956,0,0,1-.406,2.5,9.418,9.418,0,0,1-.481,1.24,17.629,17.629,0,0,0,1.978,3.787,26,26,0,0,0,2.834,3.518c-27.807,26.92-62.749,12.3-62.749,12.3l.1-.236,2.224-5.465s-4.994-2.321-1.251-7.84-1.241-41.893-1.241-41.893l-13.369,2.139-5.176-14.085a160.633,160.633,0,0,1,14.973-11.4c8.738-5.882,24.6-3.39,24.6-3.39,18.9-2.674,31.016,4.46,37.433,6.064s13.017,3.455,13.017,3.455l-3.391,23.283-8.642-1.24-8.994-1.294C254.316,212.269,254.306,212.7,254.295,213.125Z"/>
          <path id="Path_224" data-name="Path 224" class="cls-31" d="M218.145,207.766s3.03,29.591,1.426,40.108c0,0,16.072,6.06,30.942-2.5,0,0-4.917-25.847-5.808-38.681C244.705,206.7,236.149,212.223,218.145,207.766Z"/>
          <path id="Path_225" data-name="Path 225" class="cls-32" d="M190.516,210.44l14.617-10.428-1.248,8.289Z"/>
          <path id="Path_226" data-name="Path 226" class="cls-32" d="M263.332,213.125l-8.994-1.294c-.022.438-.032.866-.043,1.294V201.167S258.338,210.012,263.332,213.125Z"/>
          <path id="Path_227" data-name="Path 227" class="cls-32" d="M263.974,247.917c-9.551,6.727-22.652,6.727-22.652,6.727,17.283-3.915,21.144-11.744,21.144-11.744l.011-.01a9.418,9.418,0,0,1-.481,1.24A17.629,17.629,0,0,0,263.974,247.917Z"/>
          <path id="Path_228" data-name="Path 228" class="cls-32" d="M217.418,259.991s-7.038,3.519-13.262,3.508l2.224-5.465Z"/>
          <path id="Path_229" data-name="Path 229" class="cls-32" d="M219.749,178.725s-1.158,24.407,12.924,22.554c12.522-1.647,4.382-16.939,4.382-16.939Z"/>
        </g>
        <g id="Group_80" data-name="Group 80">
          <path id="Path_230" data-name="Path 230" class="cls-33" d="M221.953,184.34a30.872,30.872,0,0,1-10.582-14.171c-3.119-9.091,2.674-10.517,2.674-10.517s-3.832-2.317-3.03-3.743,3.119,0,3.119,0,3.209-7.487,7.041-8.913,1.159,4.189,1.159,4.189,5.169-4.724,11.23-2.584,7.907,6.01,12.21,8.288c3.031,1.6,2.942,5.437-5.793,3.833,0,0,5.484.824,6.019,2.518s-10.653,2.312-10.653,2.312Z"/>
          <path id="Path_231" data-name="Path 231" class="cls-7" d="M236.84,194.248c-.47,2.353-1.871,4.695-5.593,4.695-7.423,0-9.294-15.722-9.294-15.722l14.909,6.353A13.7,13.7,0,0,1,236.84,194.248Z"/>
          <path id="Path_232" data-name="Path 232" class="cls-34" d="M236.84,194.248c-2.748.267-11.636.214-14.887-11.027l14.909,6.353A13.7,13.7,0,0,1,236.84,194.248Z"/>
          <path id="Path_233" data-name="Path 233" class="cls-7" d="M240.159,165s2.563,12.021.065,20.31a6.762,6.762,0,0,1-6.993,4.789c-4.485-.346-10.925-2.48-13.482-11.374,0,0-3.141-2.317-2.139-5.726s4.078-1.2,3.944,2.072c0,0,3.61-3.231,1.6-10.071,0,0,5.482,2.518,7.353,1.716s-2.072-3.476-2.072-3.476A18.558,18.558,0,0,0,240.159,165Z"/>
        </g>
        <path id="Path_234" data-name="Path 234" class="cls-17" d="M255.044,182.833s-2.645-2.891-4.531-.343c0,0-1.579-2.62-2.936-.659s-1.156,8.289,3.991,8.288a8.074,8.074,0,0,0,6.417-3.03c.579-.8,1.475-.773,1.871.123s.293,2.663.669,2.707c.719.084,3.208-.936,2.044-5.291-.264-.987-3.2-.748-3.2-.748S257.628,180.716,255.044,182.833Z"/>
        <g id="Group_81" data-name="Group 81">
          <path id="Path_235" data-name="Path 235" class="cls-35" d="M143.649,168.13s6.565-1.4,7.476-8.145c.522-3.859-4.133-.79-4.133-.79a10.6,10.6,0,0,0,1.033-8.57c-1.58-4.559-2.8-3.282-5.956,0a8.443,8.443,0,0,1-7.051,2.614s1.7-1.52,1.155-3.161-6.625,2.066-11.913,2.735-12.864,5.825-9.1,15.374c0,0-4.37,9.725,11.692,19.664S143.649,168.13,143.649,168.13Z"/>
          <path id="Path_236" data-name="Path 236" class="cls-28" d="M143.118,196.889c-.492,2.492-1.818,4.8-4.834,5.615-6.514,1.765-11.594-11.828-12.888-15.668-.214-.631-.321-.995-.321-.995l17.669,3.123A19.872,19.872,0,0,1,143.118,196.889Z"/>
          <path id="Path_237" data-name="Path 237" class="cls-36" d="M143.118,196.889c-2.824.974-10.161,1.883-17.722-10.053-.214-.631-.321-.995-.321-.995l17.669,3.123A19.872,19.872,0,0,1,143.118,196.889Z"/>
          <path id="Path_238" data-name="Path 238" class="cls-28" d="M143.649,168.13s2.806,12.1-1.078,21.351a5.218,5.218,0,0,1-5.363,3.158c-4.555-.468-12-2.722-13.981-12.231,0,0-2.8-2.31-2.675-5.106s4.863-1.58,5.471,3.039c0,0,4.011-2.431,1.094-9.117,0,0,5.166,2.249,6.564,1.094s-1.092-3.586-1.092-3.586A15.635,15.635,0,0,0,143.649,168.13Z"/>
        </g>
        <g id="Group_82" data-name="Group 82">
          <path id="Path_239" data-name="Path 239" class="cls-37" d="M331.662,180.97s9.211-12.241,3.061-21.6c0,0,2.762-1.6,2.116-2.942s-4.656,0-4.656,0-1.54-9.893-9.928-10.428-6.248,2.14-6.248,2.14-2.541-.268-8.69,2.272-10.161,11.1-6.15,10.562c0,0-3.912,8.845,5.464,14.449Z"/>
          <path id="Path_240" data-name="Path 240" class="cls-17" d="M333.322,186.312a16.743,16.743,0,0,1-8.225,9.818c-4.738,2.471-7.23,1.262-7.828-.952a5.221,5.221,0,0,1,.213-3.048,6.44,6.44,0,0,0-.631-5.412c-.032-.064-.074-.128-.107-.182v-.01a6.805,6.805,0,0,0-.737-1.006l12.149-10.1L330,173.9a29.687,29.687,0,0,0,1.711,8.919c.15.428.321.856.5,1.284A19.5,19.5,0,0,0,333.322,186.312Z"/>
          <path id="Path_241" data-name="Path 241" class="cls-38" d="M317.269,195.178a5.221,5.221,0,0,1,.213-3.048c1.284-3.658-1.475-6.61-1.475-6.61l12.149-10.1a10.027,10.027,0,0,1,.278,1.733C329.322,187.253,321.5,192.9,317.269,195.178Z"/>
          <path id="Path_242" data-name="Path 242" class="cls-17" d="M305.49,168.016a71.453,71.453,0,0,0,5.742,19.358,5.386,5.386,0,0,0,6.966,2.61c5.017-2.155,12.21-6.867,11.8-16.086,0,0,3.655.713,3.3-3.832s-4.278-6.506-4.456.891c0,0-2.852-.089-3.744-7.932,0,0-5.7,3.119-7.575,1.069,0,0-3.655,4.546-5.883,4.457s-.624-3.655-.624-3.655S309.768,166.946,305.49,168.016Z"/>
        </g>
      </g>
    </g>
  </g>
</svg>
