<svg xmlns="http://www.w3.org/2000/svg" width="154.248" height="177.947" viewBox="0 0 154.248 177.947">
  <defs>
    <style>
      .cls-1 {
        fill: #629bf5;
      }

      .cls-2 {
        fill: #89b3f5;
      }

      .cls-3 {
        fill: #fabac2;
      }

      .cls-4 {
        fill: #fa7384;
      }

      .cls-13, .cls-5 {
        fill: #603e64;
      }

      .cls-6 {
        fill: #442760;
      }

      .cls-7 {
        fill: #fa7a8a;
      }

      .cls-10, .cls-8 {
        fill: #fff;
      }

      .cls-9 {
        fill: #7d5182;
      }

      .cls-10 {
        stroke: #616161;
      }

      .cls-11 {
        opacity: 0.3;
      }

      .cls-12 {
        fill: #444;
        font-size: 14px;
        font-family: SegoePrint-Bold, Segoe Print;
        font-weight: 700;
      }

      .cls-13 {
        stroke: #603e64;
      }
    </style>
  </defs>
  <g id="Group_92" data-name="Group 92" transform="translate(-1067.251 -92.698)">
    <g id="Group_89" data-name="Group 89">
      <g id="Group_87" data-name="Group 87" transform="translate(1)">
        <g id="Group_84" data-name="Group 84" transform="translate(187 -244)">
          <g id="Group_41" data-name="Group 41" transform="translate(371 290)">
            <g id="Group_37" data-name="Group 37">
              <g id="Group_29" data-name="Group 29">
                <path id="Path_51" data-name="Path 51" class="cls-1" d="M629.647,153.351l-91.525-1.711a30.947,30.947,0,0,1,.533-6.966c.747-3.825,2.474-8.139,6.394-9.8,1.868-.791,3.349-4.906,5.886-6.582,8.074-5.3,18.714-10.613,18.714-10.613l31.252,2.268s10.619,7.094,19.2,12.5c5.446,3.439,7.828,10.944,8.836,15.941A38.657,38.657,0,0,1,629.647,153.351Z"/>
                <path id="Path_52" data-name="Path 52" class="cls-2" d="M588.346,145.164l-.707-.707-2.093,2.093-2.093-2.093-.707.707,2.093,2.093-2.093,2.093.707.707,2.093-2.093,2.093,2.093.707-.707-2.093-2.093Z"/>
                <path id="Path_53" data-name="Path 53" class="cls-3" d="M550.85,144.54c-.01,2.15-.04,7.764-.04,7.764l-12.36-.264-2.96-.45a34.731,34.731,0,0,1,.51-7.42c.02-.15.05-.29.08-.44.83-4.32,2.78-9.19,7.19-11.07a53.074,53.074,0,0,0,7.67-4.36C550.95,133.79,550.9,137.98,550.85,144.54Z"/>
                <path id="Path_54" data-name="Path 54" class="cls-3" d="M630.67,152.04c-.01.84-.05,1.33-.05,1.33l-17.34,1.02c.03-.45.06-.9.08-1.34.03-.34.05-.68.07-1.01.11-2.11.2-4.08.26-5.93.26-7.56.17-13.03.67-17.26,1.5,1,2.96,1.92,4.32,2.71a.333.333,0,0,1,.1.06,40.336,40.336,0,0,0,3.66,1.88c4.72,2.04,6.77,7.16,7.63,11.67.09.46.16.91.23,1.36A38.243,38.243,0,0,1,630.67,152.04Z"/>
                <path id="Path_55" data-name="Path 55" class="cls-2" d="M588.106,133.761l-.719-.768-2.159,2.224-2.126-2.269-.726.751,2.125,2.267-2.147,2.212.716.764,2.149-2.21L587.341,139l.729-.747-2.125-2.267Z"/>
              </g>
              <g id="Group_36" data-name="Group 36">
                <g id="Group_30" data-name="Group 30">
                  <path id="Path_56" data-name="Path 56" class="cls-3" d="M563.191,86.156c-2.34-.181-6.207-2.631-6.077-5.594a4.206,4.206,0,0,1,4.387-4.019,4.08,4.08,0,0,1,1.43.322c-.087.719-.141,1.439-.173,2.171a33.965,33.965,0,0,0,.433,7.12Z"/>
                </g>
                <g id="Group_31" data-name="Group 31">
                  <path id="Path_57" data-name="Path 57" class="cls-3" d="M614.106,83.2c-.129,2.941-4.161,5.045-6.509,5.044a33.909,33.909,0,0,0,1.054-7.055c.032-.732.041-1.465.017-2.189a4.138,4.138,0,0,1,1.419-.186A4.207,4.207,0,0,1,614.106,83.2Z"/>
                </g>
                <g id="Group_32" data-name="Group 32">
                  <path id="Path_58" data-name="Path 58" class="cls-3" d="M600.91,119.96l-15.35,9.64-15.91-11.92a34.823,34.823,0,0,0,3.31-3.21,16.737,16.737,0,0,0,2.34-3.23.914.914,0,0,0,.07-.14c1.6-3.17,2.73-10.29,2.73-10.29l16.51-1.07a26.766,26.766,0,0,0,.49,8.22c.08.36.18.72.29,1.08,1.34,4.29,5.27,10.51,5.51,10.91Z"/>
                  <path id="Path_59" data-name="Path 59" class="cls-4" d="M595.1,107.96c-2.75,1.82-13.12,8.14-22.14,6.51a16.741,16.741,0,0,0,2.34-3.23.915.915,0,0,0,.07-.14c1.6-3.17,2.73-10.29,2.73-10.29l16.51-1.07A26.766,26.766,0,0,0,595.1,107.96Z"/>
                </g>
                <path id="Path_60" data-name="Path 60" class="cls-3" d="M609.186,78.023c0,.271,0,.542-.009.813-.01.745-.039,1.49-.068,2.226-.029.648-.068,1.3-.136,1.936-.6,6.426-2.864,12.611-6.765,17.13v.01H602.2a23.314,23.314,0,0,1-9.427,6.775c-8.73,3.3-16.967-.048-22.57-6.223a28.561,28.561,0,0,1-5.643-9.272.483.483,0,0,1-.048-.126,27.845,27.845,0,0,1-1.133-3.91c-.077-.377-.154-.765-.222-1.171a50.648,50.648,0,0,1-.726-8.933c0-.349.01-.7.019-1.055,0-.1.01-.2.01-.3a45.83,45.83,0,0,1,1.665-11.208,34.144,34.144,0,0,1,1.229-3.552c3.31-8.033,9.833-14.382,21.65-14.382s17.6,6.368,20.228,14.75c.329,1.035.61,2.1.842,3.184a60.088,60.088,0,0,1,1.112,13.308Z"/>
                <path id="Path_61" data-name="Path 61" class="cls-3" d="M602.208,100.128q.722-.834,1.366-1.744C603.136,98.985,602.685,99.573,602.208,100.128Z"/>
                <path id="Path_62" data-name="Path 62" class="cls-3" d="M603.61,98.333l-.036.051Z"/>
                <path id="Path_65" data-name="Path 65" class="cls-5" d="M609.186,78.023c0,.271,0,.542-.009.813-.01.745-.039,1.49-.068,2.226-.3,7.114-2.613,14.092-6.9,19.066a23.362,23.362,0,0,1-9.436,6.785c-13.957,5.275-26.664-6.455-29.394-19.531-.077-.377-.154-.765-.222-1.171l.039-.058-.765-8.875c0-.349.01-.7.019-1.055,0-.1.01-.2.01-.3l1.539.455s3.978,17.256,8.033,17,7.4-.339,7.4-.339.827,3.916,5.821,3.916,5.387-4.168,5.387-4.168,11.585,1.181,13.017-.939S608.428,77,608.428,77Z"/>
                <path id="Path_66" data-name="Path 66" class="cls-5" d="M572.8,64.715s-2.478,5.178-5.072,6.427-3.575,5.789-3.575,5.789l-1.7-.708a46,46,0,0,1,1.675-11.508,34.142,34.142,0,0,1,1.229-3.552Z"/>
                <path id="Path_67" data-name="Path 67" class="cls-5" d="M609.177,78.836l-1.256-.256s-1.009-4.69-3.787-6.3-5.1-7.588-5.1-7.588l8.2-3.165c.329,1.035.61,2.1.842,3.184a61.749,61.749,0,0,1,1.1,14.125Z"/>
                <g id="Group_33" data-name="Group 33">
                  <path id="Path_68" data-name="Path 68" class="cls-6" d="M576.613,80.848h-.143a3.207,3.207,0,0,1-3.063-3.344.458.458,0,0,1,.5-.462.484.484,0,0,1,.462.5,2.238,2.238,0,1,0,4.471.2.475.475,0,0,1,.5-.462.484.484,0,0,1,.463.5,3.207,3.207,0,0,1-3.2,3.066Z"/>
                  <path id="Path_69" data-name="Path 69" class="cls-6" d="M592.694,81.551h-.142a3.21,3.21,0,0,1-3.064-3.343.478.478,0,0,1,.5-.462.484.484,0,0,1,.464.5,2.238,2.238,0,1,0,4.471.2.485.485,0,0,1,.484-.463h.022a.484.484,0,0,1,.462.5A3.211,3.211,0,0,1,592.694,81.551Z"/>
                </g>
                <g id="Group_34" data-name="Group 34">
                  <path id="Path_70" data-name="Path 70" class="cls-6" d="M571.8,73.212s5.776-3.5,6.251-3.081.946.929.436,1.3-5.557,3.012-5.947,2.9S571.861,74.1,571.8,73.212Z"/>
                  <path id="Path_71" data-name="Path 71" class="cls-6" d="M597.706,74.246s-5.448-3.987-5.957-3.615-1.024.844-.549,1.259,5.273,3.486,5.671,3.4S597.569,75.128,597.706,74.246Z"/>
                </g>
                <path id="Path_72" data-name="Path 72" class="cls-7" d="M584.7,79.859c1.447,0,2.666,8.216,2.014,8.845s-3.481.637-4.243.012S583.249,79.861,584.7,79.859Z"/>
                <path id="Path_73" data-name="Path 73" class="cls-8" d="M579.936,91.723a29.87,29.87,0,0,0,5.028.812,14.6,14.6,0,0,0,4.7-.781s-1.257,3.924-4.834,3.767S579.936,91.723,579.936,91.723Z"/>
                <path id="Path_74" data-name="Path 74" class="cls-9" d="M584.763,90.145c.026-.957-14.767,1.447-16.731.249,0,0-2.414,6.026,1.9,6.949C575.139,98.456,584.737,91.1,584.763,90.145Z"/>
                <path id="Path_75" data-name="Path 75" class="cls-9" d="M584.657,90.145c.015-.666,14.806,1.333,16.757.114,0,0,1.4,7.077-2.907,8.045C593.314,99.471,584.642,90.81,584.657,90.145Z"/>
                <path id="Path_76" data-name="Path 76" class="cls-9" d="M610.628,91.079a1.236,1.236,0,0,1-.89.484h-.116a1.134,1.134,0,0,1-.978-.445c-.59-.784-.183-2.342.02-2.991v-.009l.648-.165a.2.2,0,0,1-.009.106c-.281.775-.581,2.2-.194,2.71a.614.614,0,0,0,.59.213.638.638,0,0,0,.484-.271c.813-.977.61-4.161.465-5.3a.292.292,0,0,1,.251-.32.283.283,0,0,1,.33.252C611.248,85.514,611.761,89.705,610.628,91.079Z"/>
              </g>
            </g>
            <g id="Group_40" data-name="Group 40" transform="translate(-3.132 10.245) rotate(-0.974)">
              <rect id="Rectangle_4" data-name="Rectangle 4" class="cls-10" width="139.106" height="73.048" transform="matrix(1, 0.024, -0.024, 1, 515.825, 148.637)"/>
              <path id="Path_85" data-name="Path 85" class="cls-11" d="M629.611,150H538.417l-2.927-.333a19.422,19.422,0,0,1,.5-5.5l2.71.052,11.975.222,62.141,1.163,14.655.274,1.77.037a21.346,21.346,0,0,1,.366,4.082Z" transform="matrix(1, 0.017, -0.017, 1, 3.714, -10.144)"/>
              <g id="Group_38" data-name="Group 38">
                <path id="Path_86" data-name="Path 86" class="cls-3" d="M512.435,165.361s-1.019-1.585-1.451-2.24c-.7-1.067-1.557-1.429-1.472-1.984s2.3-1.024,3.115.128S514.7,164.4,514.7,164.4Z"/>
                <path id="Path_87" data-name="Path 87" class="cls-3" d="M509.982,166.524s9.216-4.288,10.3-3.264-4.48,4.224-4.48,4.224,5.12-1.216,5.5.064-5.184,3.392-5.184,3.392,5.632-1.152,5.44.32-6.272,2.688-6.272,2.688,5.632-.448,5.632,1.024-10.368,2.816-11.136,1.664.768-1.856.768-2.432-1.312-.352-1.632-1.12,1.248-1.408,1.248-1.792-1.28-.64-1.408-1.28,1.386-1.131,1.344-1.28-1.259-.416-1.472-.928S509.982,166.524,509.982,166.524Z"/>
              </g>
              <g id="Group_39" data-name="Group 39">
                <path id="Path_88" data-name="Path 88" class="cls-3" d="M657.2,189.572s1.045-1.626,1.488-2.3c.722-1.094,1.6-1.466,1.51-2.035s-2.363-1.051-3.2.131-2.123,3.217-2.123,3.217Z"/>
                <path id="Path_89" data-name="Path 89" class="cls-3" d="M660.792,191.214s-9.454-4.4-10.57-3.349,4.6,4.333,4.6,4.333-5.252-1.247-5.646.066,5.318,3.48,5.318,3.48-5.778-1.182-5.581.328,6.435,2.758,6.435,2.758-5.778-.46-5.778,1.05,10.636,2.889,11.424,1.707-.788-1.9-.788-2.5,1.346-.361,1.675-1.149-1.281-1.444-1.281-1.838,1.313-.657,1.445-1.313-1.423-1.16-1.379-1.313,1.291-.427,1.51-.952S660.792,191.214,660.792,191.214Z"/>
              </g>
            </g>
          </g>
        </g>
        <text id="The_Map_is_not_the_Territory" data-name="The Map is not the Territory" class="cls-12" transform="translate(1086.998 225.895)"><tspan x="0" y="0">The Map is not </tspan><tspan x="0" y="24">the Territory</tspan></text>
      </g>
      <path id="Path_175" data-name="Path 175" class="cls-13" d="M1129.02,110.633a3.938,3.938,0,0,0,1.988-.371c2.108-.931,7.041-3.337,12.457-3.337,4.969,0,10.629,2.156,13.666,3.371,1.015.4,1.2.337,1.2.337l6.5-3.186s-2.231-6.978-7.138-10.452a24.4,24.4,0,0,0-3.211-1.941,21.811,21.811,0,0,0-4.564-1.5c-3.023-.714-9.177,0-9.177,0a21.031,21.031,0,0,0-7.635,2.661,20.242,20.242,0,0,0-2.678,1.83,19.584,19.584,0,0,0-4.507,4.954,19.168,19.168,0,0,0-2.259,4.449c-.389,1.611,7,3.021,7,3.021" transform="translate(1)"/>
    </g>
  </g>
</svg>
