<svg xmlns="http://www.w3.org/2000/svg" width="162.156" height="172.537" viewBox="0 0 162.156 172.537">
  <g id="Group_93" data-name="Group 93" transform="translate(-706.397 -192.188)">
    <g id="Group_28" data-name="Group 28" transform="translate(404 145)">
      <g id="Group_25" data-name="Group 25">
        <path id="Path_28" data-name="Path 28" d="M378.086,143.534c-.12,1.56-.49,4.04-.85,6.19-.3,1.75-.59,3.28-.71,3.95-.05.22-.07.35-.07.35l-16.08-.23a1.258,1.258,0,0,0-.04-.12c-.13-.41-.59-1.87-1.12-3.95-1.59-6.17-3.9-17.86-.62-24.28a2.2,2.2,0,0,1,.15-.31,24.385,24.385,0,0,0,8.97,1.98,54.431,54.431,0,0,0,7.76-.62c.76-.11,1.21-.2,1.21-.2S378.326,140.274,378.086,143.534Z" fill="#5d5d87"/>
        <path id="Path_29" data-name="Path 29" d="M351.416,112.045a9.633,9.633,0,0,0,6.167.968c3.262-.7,11.534-1.981,15.146-1.4s5.242,1.631,6.873,1.631a11.348,11.348,0,0,0,3.845-1.049l-2.856,10.947H353.736Z" fill="#d94a73"/>
        <g id="Group_23" data-name="Group 23">
          <g id="Group_15" data-name="Group 15">
            <path id="Path_30" data-name="Path 30" d="M381.223,123.892s-4.528,3.222-12.506,3.222a31.651,31.651,0,0,1-14.423-3.784s3.375-2.87,4.662-5.462l.057-.115c1.258-2.621,1.964-8.379,1.964-8.379l13.993-1.43a19.316,19.316,0,0,0,1.068,7.388c1.334,3.393,4.947,8.245,5.176,8.55Z" fill="#fabac2"/>
            <path id="Path_31" data-name="Path 31" d="M374.98,110.089a.01.01,0,0,0-.01.01s-6.844,9.1-16.014,7.769l.057-.115c1.258-2.621,1.964-8.379,1.964-8.379l14.088-2.865S374.9,108.812,374.98,110.089Z" fill="#fa7384"/>
          </g>
          <g id="Group_22" data-name="Group 22">
            <g id="Group_21" data-name="Group 21">
              <g id="Group_18" data-name="Group 18">
                <path id="Path_32" data-name="Path 32" d="M388.716,82.026c0,.648-.028,1.3-.057,1.945,0,.038-.009.085-.009.133a33.106,33.106,0,0,1-.668,4.909,29.567,29.567,0,0,1-5.566,12.068,23.04,23.04,0,0,1-8.989,7.083,19.248,19.248,0,0,1-13.441.753v-.01a21.657,21.657,0,0,1-9.266-5.815,29.058,29.058,0,0,1-7.3-14.079c-.172-.81-.315-1.639-.429-2.469a33.641,33.641,0,0,1-.3-4.518c0-.725.019-1.439.076-2.145.01-.162.02-.324.029-.476.048-.62.114-1.24.2-1.85,1.278-9.589,6.616-17.52,13.832-21.152a2.269,2.269,0,0,1,.209-.1,19.464,19.464,0,0,1,8.656-2.03c10.895,0,20.027,9.122,22.391,21.39a30.231,30.231,0,0,1,.544,4.214C388.688,80.577,388.716,81.3,388.716,82.026Z" fill="#fabac2"/>
                <path id="Path_33" data-name="Path 33" d="M342.768,79.879a20.207,20.207,0,0,0,5.921-9.047c1.582-5.5,2.165-7.5,2.165-7.5a42.687,42.687,0,0,0,16.992,3.582c9.079-.167,10.245-2.666,10.245-2.666l-2.332-2.5s3.831,0,4.331,1.082-.25,6.914,1.582,10.662,7,6.08,7,6.08l.75-12.91s4.664,2.415,4.664,1.5-9.829-17.991-25.654-20.573-21.406,8-21.406,8-4.928-.56-7,3.5C337.459,64.124,338.013,74.419,342.768,79.879Z" fill="#373c57"/>
                <g id="Group_16" data-name="Group 16">
                  <path id="Path_34" data-name="Path 34" d="M356.26,79.578a3.161,3.161,0,0,0-3.157,3.158.477.477,0,1,0,.953,0,2.2,2.2,0,0,1,4.409,0,.477.477,0,1,0,.953,0A3.161,3.161,0,0,0,356.26,79.578Z" fill="#373c57"/>
                  <path id="Path_35" data-name="Path 35" d="M372.114,79.578a3.161,3.161,0,0,0-3.157,3.158.477.477,0,1,0,.953,0,2.2,2.2,0,1,1,4.408,0,.477.477,0,1,0,.953,0A3.161,3.161,0,0,0,372.114,79.578Z" fill="#373c57"/>
                </g>
                <g id="Group_17" data-name="Group 17">
                  <path id="Path_36" data-name="Path 36" d="M351.338,75.9s5.533-3.688,6.018-3.3.971.874.485,1.262-5.338,3.2-5.726,3.106S351.435,76.777,351.338,75.9Z" fill="#373c57"/>
                  <path id="Path_37" data-name="Path 37" d="M376.873,75.806s-5.533-3.688-6.018-3.3-.971.874-.486,1.262,5.339,3.2,5.727,3.106S376.776,76.68,376.873,75.806Z" fill="#373c57"/>
                </g>
                <path id="Path_38" data-name="Path 38" d="M364.312,81.889c1.424-.065,2.977,7.97,2.362,8.617s-3.4.776-4.174.194S362.889,81.953,364.312,81.889Z" fill="#fa7a8a"/>
                <path id="Path_39" data-name="Path 39" d="M360.106,93.019a29.424,29.424,0,0,0,4.983.582,14.353,14.353,0,0,0,4.594-.971s-1.068,3.915-4.594,3.915S360.106,93.019,360.106,93.019Z" fill="#fff"/>
              </g>
              <g id="Group_19" data-name="Group 19">
                <path id="Path_42" data-name="Path 42" d="M343.423,89.01c-2.31-.077-6.22-2.321-6.22-5.243a4.143,4.143,0,0,1,4.143-4.143,4.047,4.047,0,0,1,1.422.255c-.056.711-.078,1.422-.078,2.144A33.453,33.453,0,0,0,343.423,89.01Z" fill="#fabac2"/>
              </g>
              <g id="Group_20" data-name="Group 20">
                <path id="Path_43" data-name="Path 43" d="M394.166,83.767c0,2.9-3.877,5.143-6.187,5.243a33.385,33.385,0,0,0,.733-6.987c0-.722-.022-1.444-.078-2.155a4.133,4.133,0,0,1,5.532,3.9Z" fill="#fabac2"/>
              </g>
            </g>
          </g>
        </g>
        <path id="Path_44" data-name="Path 44" d="M362.476,153.674h-34.83a17.046,17.046,0,0,1,.11-3.95,21.442,21.442,0,0,1,6.41-12.94c7.69-7.46,11.77-7.69,11.77-10.49s-2.92-10.95-1.75-12,6.99-3.26,7.46-2.1,2.09,10.95,2.09,10.95,3.74-.76,4.86,2.3a5.328,5.328,0,0,1,.27,1.08c.58,4.31-.47,12.24.23,15.03.4,1.59,1.43,5.28,2.25,8.17C361.976,151.934,362.476,153.674,362.476,153.674Z" fill="#fc6591"/>
        <g id="Group_24" data-name="Group 24">
          <path id="Path_45" data-name="Path 45" d="M450.728,95.6s-.163-10.285,1-10.444,1.517,4.781,1.517,4.781,2.428-9.409,3.946-9.485-.987,9.485-.987,9.485,5.236-10.168,6.147-9.561-3.794,10.168-3.794,10.168,4.7-6.3,5.843-5.767-4.326,7.512-4.326,7.512,3.415-3.642,4.4-2.883-7.627,10.155-7.627,10.155Z" fill="#fabac2"/>
          <path id="Path_46" data-name="Path 46" d="M447.233,99.731s.874-5.941,3.728-5.068,7.632,4.078,6.525,5.593a19.146,19.146,0,0,1-3.437,3.2Z" fill="#d94a73"/>
          <path id="Path_47" data-name="Path 47" d="M455.326,106.144c-.81,2.33-4.42,2.91-5.47,5.35-.93,2.17-10.72,26.54-29.94,38.23a43.219,43.219,0,0,1-7.92,3.83l-5.31.12h-34.84s.5-1.74,1.13-3.95c.82-2.89,1.85-6.58,2.25-8.17.7-2.79-.35-10.72.24-15.03a.037.037,0,0,1,.01-.03c.59-4.28,5.11-3.35,5.11-3.35s1.63-9.78,2.1-10.95,6.29,1.05,7.46,2.1-1.75,9.2-1.75,12a2.337,2.337,0,0,0,.18.93c.14.02,17.75,2.54,28.42-3.96,10.72-6.52,22.72-16.43,25.4-20.62s3.96-4.19,6.99-2.45S456.146,103.814,455.326,106.144Z" fill="#fc6591"/>
        </g>
      </g>
      <g id="Group_27" data-name="Group 27">
        <rect id="Rectangle_3" data-name="Rectangle 3" width="117.786" height="66.007" transform="translate(308.104 153.218)" fill="#fff" stroke="#616161" stroke-width="1"/>
        <path id="Path_48" data-name="Path 48" d="M419.916,149.724a43.219,43.219,0,0,1-7.92,3.83l-5.31.12h-30.16c-.05.22-.07.35-.07.35l-16.08-.23a1.258,1.258,0,0,0-.04-.12h-32.69a17.046,17.046,0,0,1,.11-3.95Z" opacity="0.3" style="mix-blend-mode: soft-light;isolation: isolate"/>
        <g id="Group_26" data-name="Group 26">
          <path id="Path_49" data-name="Path 49" d="M303.761,182.6s9.216-4.288,10.3-3.264-4.48,4.224-4.48,4.224,5.12-1.216,5.5.064-5.184,3.392-5.184,3.392,5.632-1.152,5.44.32-6.272,2.688-6.272,2.688,5.632-.448,5.632,1.024-10.368,2.816-11.136,1.664.768-1.856.768-2.432-1.312-.352-1.632-1.12,1.248-1.408,1.248-1.792-1.28-.64-1.408-1.28,1.387-1.13,1.344-1.28-1.258-.416-1.472-.928S303.761,182.6,303.761,182.6Z" fill="#fabac2"/>
          <path id="Path_50" data-name="Path 50" d="M306.215,182.4s-1.019-1.586-1.451-2.24c-.7-1.067-1.557-1.43-1.472-1.984s2.3-1.024,3.115.128,2.069,3.136,2.069,3.136Z" fill="#fabac2"/>
        </g>
      </g>
    </g>
    <text id="Mastermind" transform="translate(729.998 317.895)" fill="#707070" font-size="14" font-family="SegoePrint-Bold, Segoe Print" font-weight="700"><tspan x="0" y="17">Mastermind</tspan></text>
  </g>
</svg>
