<svg xmlns="http://www.w3.org/2000/svg" xmlns:xlink="http://www.w3.org/1999/xlink" width="464.722" height="346" viewBox="0 0 464.722 346">
  <defs>
    <clipPath id="clip-path">
      <path id="Path_6" data-name="Path 6" d="M457.517,411.608c-20.7,2.117-42.324.315-62.942.315H105.308c-15.438,0-30.994-.008-46.37.912-5.828.348-11.869.33-17.245-1.946A16.922,16.922,0,0,1,32.74,402.5c-2.112-4.9,1.667-8.88.338-13.732-.8-2.912-3.991-4.934-6.479-6.211-7.266-3.73-11.65-12.994-7.117-20.5a17.832,17.832,0,0,1,9.4-7.128c7.871-2.843,16.837-2.81,25.091-2.79,7.805.019,15.585,1.016,23.379,1.016h357.96c4.086,0,8.173.027,12.259,0,4.457-.03,11.327-.413,12.8,5.289,1.376,5.338-5.527,9.449-5.989,14.589-1.295,14.4,27.63,8.4,27.985,24.8.08,3.708-2.353,7.126-5.468,9.14s-6.834,2.85-10.494,3.454C463.46,410.917,460.5,411.3,457.517,411.608Z" fill="#a1e3dd"/>
    </clipPath>
    <linearGradient id="linear-gradient" x1="0.137" y1="-0.391" x2="0.769" y2="1.476" gradientUnits="objectBoundingBox">
      <stop offset="0.265" stop-color="#371b85" stop-opacity="0.914"/>
      <stop offset="0.555" stop-color="#f26d5a" stop-opacity="0"/>
    </linearGradient>
    <linearGradient id="linear-gradient-2" x1="0.646" y1="-0.24" x2="0.343" y2="1.355" xlink:href="#linear-gradient"/>
    <linearGradient id="linear-gradient-3" x1="0.727" y1="-0.676" x2="0.253" y2="1.585" xlink:href="#linear-gradient"/>
    <linearGradient id="linear-gradient-4" x1="0.485" y1="-0.328" x2="0.589" y2="1.922" gradientUnits="objectBoundingBox">
      <stop offset="0" stop-color="#201b59" stop-opacity="0.914"/>
      <stop offset="0.555" stop-color="#2d3a8d" stop-opacity="0"/>
    </linearGradient>
    <linearGradient id="linear-gradient-5" x1="0.485" y1="-0.328" x2="0.589" y2="1.922" xlink:href="#linear-gradient-4"/>
    <clipPath id="clip-path-2">
      <path id="Path_123" data-name="Path 123" d="M363.253,370.836a4.593,4.593,0,0,1,1.916-3.552c1.692-.991,3.949-.164,5.918-.532,5.531-1.034,5.488-8.755,5.376-13.007q-.108-4.057-.364-8.11a4.486,4.486,0,0,0-.475-2.075,3.062,3.062,0,0,0-3.443-1.072c-2.421.691-3.78,3.306-4.209,5.787s-.219,5.059-.87,7.491a4.388,4.388,0,0,1-.538,1.3,2.986,2.986,0,0,1-1.21,1.033,2.363,2.363,0,0,1-2.248-.031c-.764-.49-.637-1.107-.633-1.852a22.838,22.838,0,0,0-.228-2.711c-.235-2.033-.438-4.07-.629-6.108-.376-4.005-.7-8.015-1.12-12.017a13.722,13.722,0,0,0-1.315-5.365c-3.962-7.113-10-.865-10.553,4.322-1.261,11.8,4.884,22.926,4.369,34.638a3.516,3.516,0,0,1-.272,1.45c-.925,1.843-3.881,1.521-5.248.457-2.142-1.667-1.375-5.278-1.377-7.45,0-1.774-.57-3.777-2.285-4.608-1.945-.942-4.483.188-5.591,1.926-1.431,2.243-1.272,6.085-1.057,8.581a10.536,10.536,0,0,0,1.642,5.161,6.5,6.5,0,0,0,4.8,2.845c1.144.069,2.449-.174,3.317.511,1.057.835.677,2.361.719,3.636.083,2.534,2.241,4.7,4.759,5.762a24.52,24.52,0,0,0,8.128,1.407c2.348-3.767,2.5-8.11,2.627-12.321A44.946,44.946,0,0,1,363.253,370.836Z" fill="none"/>
    </clipPath>
  </defs>
  <g id="OBJEKTS" transform="translate(-17.639 -67)">
    <g id="Group_54" data-name="Group 54">
      <path id="Path_1" data-name="Path 1" d="M389.208,363.648a156.507,156.507,0,0,0,11.114-12.487A136.164,136.164,0,0,0,422.395,311.9c2.094-5.946,2.03-10.66,2.589-16.692.648-6.985,3.591-13.73,5.6-20.419,8.259-27.473,16.6-55.191,19.943-83.779,2.755-23.551,6.086-55.365-21.713-64.457-12.9-4.219-27.027-2.134-40.08,1.588s-25.7,9.041-39.073,11.347c-19.173,3.3-39.011.22-57.472-5.922-47.265-15.723-91.883-52.828-144.775-41.654-24.409,5.157-45.661,21.22-60.334,41.4s-23.239,44.241-28.364,68.657C47.951,253.258,46.247,320.6,79.744,363.648Z" fill="#80b2ba" opacity="0.54"/>
      <path id="Path_2" data-name="Path 2" d="M424.346,106C418.8,93.208,409.922,81.8,398.2,75.667c-21.69-11.351-46.679-10.447-69.658-3.631A169.316,169.316,0,0,0,261.3,110.563c-10.233,9.576-19.306,20.456-30.506,28.878-19.59,14.732-44.416,20.929-68.854,22.825-18.181,1.41-36.926.711-54.048,6.987-20.878,7.652-37.025,25.055-47.665,44.58C52.37,228.252,47.176,243.9,42.7,259.645c-3.615,12.725-3.829,25.738-6.058,38.81-3.269,19.167-4.148,39.805-.884,59.505H431.9q2.787-4.257,5.426-8.6c12.952-21.41,21.466-45.2,26.512-69.652,4.785-23.192,10.813-51.358,5.871-74.78a32.665,32.665,0,0,0-3.746-10.446c-6.425-10.47-20.865-13.276-28.42-22.962-8.193-10.506-5.916-25.351-6.689-38.652A80.468,80.468,0,0,0,424.346,106Z" fill="#a1e3dd" opacity="0.56"/>
      <path id="Path_3" data-name="Path 3" d="M398.492,362.089c7.926-6.236,13.961-14.258,16.428-25.675,3.96-18.321,4.006-37.232,4.035-55.976.029-18.221.053-36.488-1.654-54.647-1.329-14.143-4.022-32.145-9.467-45.276-3.21-7.743-8.919-14.718-16.613-18.042-3.974-1.716-8.832-2.327-12.46.034-1.85,1.2-3.179,3.047-4.848,4.491a14.362,14.362,0,0,1-17.7.414c-3.3-2.6-5.234-6.5-7.2-10.211-5.446-10.293-12.047-20.228-21.149-27.491-26.2-20.9-55.821-2.119-77.52,16.314-10.627,9.027-21.191,18.707-30.23,29.354-7.879,9.282-13.987,20.082-21.806,29.542A250.423,250.423,0,0,1,143.079,254.5c-12.391,8.155-25.652,15.318-36.126,25.822-7.678,7.7-13.605,16.955-18.963,26.416-14.644,25.858-23.619,65.314,8.037,83.14,9.847,5.545,21.177,7.831,32.383,9.289,22.738,2.958,45.773,2.789,68.583.774,11.7-1.033,23.312-2.628,34.917-4.382,7.912-1.2,15.732-.42,23.543-1.694a562.682,562.682,0,0,1,63.426-6.98c18.107-.9,33.515-2.061,50.624-9.318C379.955,373.131,390.247,368.576,398.492,362.089Z" fill="#80b2ba" opacity="0.54"/>
      <path id="Path_4" data-name="Path 4" d="M457.517,411.608c-20.7,2.117-42.324.315-62.942.315H105.308c-15.438,0-30.994-.008-46.37.912-5.828.348-11.869.33-17.245-1.946A16.922,16.922,0,0,1,32.74,402.5c-2.112-4.9,1.667-8.88.338-13.732-.8-2.912-3.991-4.934-6.479-6.211-7.266-3.73-11.65-12.994-7.117-20.5a17.832,17.832,0,0,1,9.4-7.128c7.871-2.843,16.837-2.81,25.091-2.79,7.805.019,15.585,1.016,23.379,1.016h357.96c4.086,0,8.173.027,12.259,0,4.457-.03,11.327-.413,12.8,5.289,1.376,5.338-5.527,9.449-5.989,14.589-1.295,14.4,27.63,8.4,27.985,24.8.08,3.708-2.353,7.126-5.468,9.14s-6.834,2.85-10.494,3.454C463.46,410.917,460.5,411.3,457.517,411.608Z" fill="#f0f0f0"/>
      <g id="Group_4" data-name="Group 4">
        <path id="Path_5" data-name="Path 5" d="M457.517,411.608c-20.7,2.117-42.324.315-62.942.315H105.308c-15.438,0-30.994-.008-46.37.912-5.828.348-11.869.33-17.245-1.946A16.922,16.922,0,0,1,32.74,402.5c-2.112-4.9,1.667-8.88.338-13.732-.8-2.912-3.991-4.934-6.479-6.211-7.266-3.73-11.65-12.994-7.117-20.5a17.832,17.832,0,0,1,9.4-7.128c7.871-2.843,16.837-2.81,25.091-2.79,7.805.019,15.585,1.016,23.379,1.016h357.96c4.086,0,8.173.027,12.259,0,4.457-.03,11.327-.413,12.8,5.289,1.376,5.338-5.527,9.449-5.989,14.589-1.295,14.4,27.63,8.4,27.985,24.8.08,3.708-2.353,7.126-5.468,9.14s-6.834,2.85-10.494,3.454C463.46,410.917,460.5,411.3,457.517,411.608Z" fill="#a1e3dd"/>
        <g id="Group_3" data-name="Group 3" clip-path="url(#clip-path)">
          <g id="Group_1" data-name="Group 1">
            <line id="Line_1" data-name="Line 1" x2="472.103" transform="translate(8.818 359.748)" fill="none" stroke="#fff" stroke-miterlimit="10" stroke-width="0.75"/>
            <line id="Line_2" data-name="Line 2" x2="472.103" transform="translate(8.818 366.84)" fill="none" stroke="#fff" stroke-miterlimit="10" stroke-width="0.75"/>
            <line id="Line_3" data-name="Line 3" x2="472.103" transform="translate(8.818 373.931)" fill="none" stroke="#fff" stroke-miterlimit="10" stroke-width="0.75"/>
            <line id="Line_4" data-name="Line 4" x2="472.103" transform="translate(8.818 381.023)" fill="none" stroke="#fff" stroke-miterlimit="10" stroke-width="0.75"/>
            <line id="Line_5" data-name="Line 5" x2="472.103" transform="translate(8.818 388.115)" fill="none" stroke="#fff" stroke-miterlimit="10" stroke-width="0.75"/>
          </g>
          <g id="Group_2" data-name="Group 2">
            <line id="Line_6" data-name="Line 6" x2="472.103" transform="translate(8.818 395.207)" fill="none" stroke="#fff" stroke-miterlimit="10" stroke-width="0.75"/>
            <line id="Line_7" data-name="Line 7" x2="472.103" transform="translate(8.818 402.298)" fill="none" stroke="#fff" stroke-miterlimit="10" stroke-width="0.75"/>
            <line id="Line_8" data-name="Line 8" x2="472.103" transform="translate(8.818 409.39)" fill="none" stroke="#fff" stroke-miterlimit="10" stroke-width="0.75"/>
            <line id="Line_9" data-name="Line 9" x2="472.103" transform="translate(8.818 416.482)" fill="none" stroke="#fff" stroke-miterlimit="10" stroke-width="0.75"/>
            <line id="Line_10" data-name="Line 10" x2="472.103" transform="translate(8.818 423.573)" fill="none" stroke="#fff" stroke-miterlimit="10" stroke-width="0.75"/>
          </g>
        </g>
      </g>
      <g id="Group_5" data-name="Group 5">
        <rect id="Rectangle_2" data-name="Rectangle 2" width="2.106" height="46.444" transform="translate(421.861 352.36) rotate(180)" fill="#110809"/>
        <path id="Path_7" data-name="Path 7" d="M439.217,362.106c0-6.859-12.135-9.735-18.2-9.746-7.217-.014-18.2,2.647-18.2,9.746" fill="none" stroke="#110809" stroke-miterlimit="10" stroke-width="2"/>
        <line id="Line_11" data-name="Line 11" y1="11.392" transform="translate(420.814 352.548)" fill="none" stroke="#110809" stroke-miterlimit="10" stroke-width="2"/>
        <path id="Path_8" data-name="Path 8" d="M399.842,363.76a2.978,2.978,0,1,0,2.978-2.978A2.978,2.978,0,0,0,399.842,363.76Z" fill="#110809"/>
        <path id="Path_9" data-name="Path 9" d="M417.89,363.76a2.978,2.978,0,1,0,2.978-2.978A2.978,2.978,0,0,0,417.89,363.76Z" fill="#110809"/>
        <path id="Path_10" data-name="Path 10" d="M435.938,363.76a2.978,2.978,0,1,0,2.978-2.978A2.978,2.978,0,0,0,435.938,363.76Z" fill="#110809"/>
        <path id="Path_11" data-name="Path 11" d="M424.879,290.325V256.153a10.709,10.709,0,0,1,10.709-10.708h11.791a10.708,10.708,0,0,1,10.709,10.708v38.2A15.386,15.386,0,0,1,442.747,309.7H404.3a1.8,1.8,0,0,1-1.8-1.8h0a1.8,1.8,0,0,1,1.8-1.8h4.813A15.762,15.762,0,0,0,424.879,290.325Z" fill="#f7fae6"/>
      </g>
      <g id="Group_6" data-name="Group 6">
        <rect id="Rectangle_3" data-name="Rectangle 3" width="2.106" height="46.444" transform="translate(148.35 299.837)" fill="#110809"/>
        <path id="Path_12" data-name="Path 12" d="M130.993,356.027c0-6.858,12.135-9.734,18.2-9.746,7.218-.014,18.2,2.647,18.2,9.746" fill="none" stroke="#110809" stroke-miterlimit="10" stroke-width="2"/>
        <line id="Line_12" data-name="Line 12" y1="11.392" transform="translate(149.396 346.469)" fill="none" stroke="#110809" stroke-miterlimit="10" stroke-width="2"/>
        <path id="Path_13" data-name="Path 13" d="M170.369,357.682a2.978,2.978,0,1,1-2.978-2.978A2.979,2.979,0,0,1,170.369,357.682Z" fill="#110809"/>
        <path id="Path_14" data-name="Path 14" d="M152.32,357.682a2.978,2.978,0,1,1-2.978-2.978A2.978,2.978,0,0,1,152.32,357.682Z" fill="#110809"/>
        <circle id="Ellipse_1" data-name="Ellipse 1" cx="2.978" cy="2.978" r="2.978" transform="translate(128.316 354.704)" fill="#110809"/>
        <path id="Path_15" data-name="Path 15" d="M149.384,284.246V250.075a10.709,10.709,0,0,0-10.709-10.709H126.883a10.708,10.708,0,0,0-10.708,10.709v38.2a15.386,15.386,0,0,0,15.341,15.341h38.443a1.805,1.805,0,0,0,1.805-1.805h0a1.806,1.806,0,0,0-1.805-1.8h-4.813A15.762,15.762,0,0,1,149.384,284.246Z" fill="#f7fae6"/>
      </g>
      <g id="Group_7" data-name="Group 7">
        <path id="Path_16" data-name="Path 16" d="M239.026,211.171a17.58,17.58,0,0,0,1.127-2.888c.942-3.224.9-6.831,2.777-9.619,1,.106,1.368,1.36,1.451,2.363a69.735,69.735,0,0,1-.282,11.217,7.355,7.355,0,0,1-2.241,5.413c-1.324,1.593-4.76,7.647-7.073,6.8-1.649-.6-2.288-4.252-1.81-5.686.71-2.133,2.2-2.821,3.667-4.233A12.352,12.352,0,0,0,239.026,211.171Z" fill="#ff9575"/>
        <path id="Path_17" data-name="Path 17" d="M202.49,365.6a2.162,2.162,0,0,0,.327.415c1.738,1.721,5.308,1.355,7.692,1.365a60.167,60.167,0,0,0,10.124-.528,4.725,4.725,0,0,0,2.921-1.29c1.62-1.883-.966-3.458-2.427-3.832-1.5-.384-3.077-.484-4.612-.745a8.885,8.885,0,0,1-4.241-1.676,5.474,5.474,0,0,1-1.852-3.118c-.263-1.293-.137-2.825-1.08-3.713a3.418,3.418,0,0,0-3.59-.252,6.2,6.2,0,0,0-2.691,3.362c-.777,2.108-.6,4.514-.838,6.7A5.4,5.4,0,0,0,202.49,365.6Z" fill="#110809"/>
        <path id="Path_18" data-name="Path 18" d="M214.977,300.848q-.117-.832-.253-1.663c-1.052-6.406-3.335-12.258-4.884-18.485-2.136-8.587-4.281-17.109-7.1-25.508-1.158-3.449-2.063-7.784-3.837-10.942-1.631-2.9-3.841-2.668-7.21-2.036-1.888.353-3.893.766-5.266,2.109a9.259,9.259,0,0,0-1.9,3.222,60.59,60.59,0,0,0-4.273,19.335c-.351,4.671.639,8.169,1.755,12.532,1.262,4.931,1.24,9.414,4.075,13.913,1.909,3.029,4.52,5.692,5.647,9.091,1.122,3.383.96,7.02,2.084,10.426.99,3,2.431,5.819,3.672,8.718,1.4,3.277,1.562,6.933,1.7,10.495q.521,13.369,1.04,26.739l12.387-2.61a2.516,2.516,0,0,0,1.514-.7,2.553,2.553,0,0,0,.324-1.786c-.675-10.889.619-21.79,1.127-32.688A109.144,109.144,0,0,0,214.977,300.848Z" fill="#0e398a"/>
        <path id="Path_19" data-name="Path 19" d="M161.966,369.656a2.2,2.2,0,0,0,.327.414c1.738,1.722,5.308,1.356,7.692,1.366a60.376,60.376,0,0,0,10.124-.528,4.736,4.736,0,0,0,2.921-1.29c1.62-1.883-.966-3.458-2.427-3.832-1.5-.384-3.077-.484-4.612-.746a8.875,8.875,0,0,1-4.241-1.676,5.475,5.475,0,0,1-1.852-3.117c-.263-1.293-.137-2.826-1.08-3.713a3.415,3.415,0,0,0-3.59-.253,6.205,6.205,0,0,0-2.691,3.362c-.777,2.108-.6,4.514-.838,6.7A5.4,5.4,0,0,0,161.966,369.656Z" fill="#110809"/>
        <path id="Path_20" data-name="Path 20" d="M207.622,189.4c.189-.05.376-.1.559-.171a6.252,6.252,0,0,0,3.525-3.727,12.917,12.917,0,0,0,.643-5.214,34.738,34.738,0,0,1-.12-3.962,12.463,12.463,0,0,0,.094-4.023c-.874-3.318-4.934-3.73-7.775-3.64a11.747,11.747,0,0,0-9.124,5.027,5.6,5.6,0,0,0-.475,5.213,6.592,6.592,0,0,0,3.277,2.945l-5.983,6.786c-1.788,2.028-4.014,3.866-4.687,6.6-.394,1.6,1.726,2.038,2.514.874a9.768,9.768,0,0,1,1.951-2.011,2.233,2.233,0,0,0,2.182,2.017,1.875,1.875,0,0,0,2.43,1.615c4.1-1.472,5.456-6.594,9.66-7.981C206.728,189.609,207.179,189.519,207.622,189.4Z" fill="#ff9575"/>
        <path id="Path_21" data-name="Path 21" d="M193.416,203.176c.6-2.2,3.6-6.677,2.5-8.673a4.771,4.771,0,0,0-4.926-2.023,12.03,12.03,0,0,0-5.042,2.478,63.218,63.218,0,0,0-19.99,25.138,20.288,20.288,0,0,0-1.984,6.564,23.706,23.706,0,0,0,.894,7.221q3.532,15.344,7.063,30.687c2.535,1.071,5.509-.97,6.48-3.545s.516-5.438.091-8.156q-.789-5.052-1.381-10.131c-.431-3.7-.735-7.672,1.032-10.955.777-1.444,1.938-2.712,2.355-4.3.266-1.01.211-2.092.553-3.078.813-2.341,3.416-3.7,4.868-5.611a44.416,44.416,0,0,0,4.8-8.087A50.984,50.984,0,0,0,193.416,203.176Z" fill="#f02b66"/>
        <path id="Path_22" data-name="Path 22" d="M207.58,220.988a34.82,34.82,0,0,1,2.264-11.041c1.217-3.5,3.214-6.824,4.064-10.409a3.7,3.7,0,0,0,.116-1.593,3.6,3.6,0,0,0-1.663-2.057c-4.8-3.32-11.913-4.82-17.666-4.563-8.416.376-14.578,7.747-15.519,15.836-.5,4.325.226,8.7,1.142,12.952a87.055,87.055,0,0,1,2.29,12.845c.183,2.963-.034,5.927-.135,8.889-.094,2.756-.71,5.75,2.276,7.11,7.248,3.3,14.948,1.5,18.792-5.614a36.861,36.861,0,0,0,3.327-10.718A63.014,63.014,0,0,0,207.58,220.988Z" fill="#f02b66"/>
        <path id="Path_23" data-name="Path 23" d="M233.452,216.127l-9.271,8.906a15.214,15.214,0,0,1-2.984,2.416c-.98-4.11-1.7-8.33-2.785-12.4-.98-3.679-.724-7.533-1.422-11.257a9.838,9.838,0,0,0-1.893-4.512c-.969-1.249-1.452-2.827-2.983-3.557-.385-.183-.8-.29-1.184-.484-.942-.479-1.7-1.492-2.752-1.458a.828.828,0,0,0-.543.189.933.933,0,0,0-.217.355,6.433,6.433,0,0,0-.269,2.191,10.97,10.97,0,0,1-.877,4.657,21.7,21.7,0,0,0-1.775,3.79,30.244,30.244,0,0,0-1.743,10.36c.094,2.35,1.442,3.556,2.2,5.775a56.3,56.3,0,0,1,1.456,7.357,29.548,29.548,0,0,0,7.575,14.571,5.429,5.429,0,0,0,2.212,1.588c6.693,2.055,12.085-6.623,15.727-10.754A47.312,47.312,0,0,0,241,218.438a39.477,39.477,0,0,0-5.077-4.68Q234.686,214.943,233.452,216.127Z" fill="#f02b66"/>
        <path id="Path_24" data-name="Path 24" d="M189.712,236.191a12.013,12.013,0,0,0-3.5-.893c-.745-.071-2.418-.608-3.076-.149-.723.5-.921,2.437-1.343,3.27-1.254,2.477-3.29,4.477-5.146,6.5a71.307,71.307,0,0,0-7.723,10.1,19.106,19.106,0,0,0-2.911,6.5c-.976,5.146,1.867,9.551,1.96,14.57.094,5.063-2.791,9.678-3.768,14.647-1.438,7.316,1.334,14.8,1.17,22.253a76.855,76.855,0,0,1-1.6,11.4c-2.164,12.452-2.123,25.168-2.076,37.806l8.487-.844a6.2,6.2,0,0,0,2.892-.778,5.656,5.656,0,0,0,1.484-1.678c5.494-8.4,3.726-18.663,5.822-28.2q2.493-11.352,4.939-22.706c.609-2.84,1.63-5.6,2.287-8.47,1.27-5.548,1.989-10.919,3.562-16.377,1.754-6.088,3.988-12.6,4.849-18.836.212-1.528,4.875-19.64,6.738-18.488C198.153,242.97,194.538,238.206,189.712,236.191Z" fill="#2155b5"/>
        <path id="Path_25" data-name="Path 25" d="M215.642,173.65c1.44-1.281,2.439-2.984,1.74-4.989a4.812,4.812,0,0,0-5.343-2.956c-1.575.313-2.915,1.371-4.476,1.746-2.842.682-5.861-1-8.7-.3a5.377,5.377,0,0,0-3.069,2.1c-.765,1.085-1.1,2.424-1.874,3.507-1.237,1.743-3.3,2.485-5.218,3.222-1.567.6-4.312,1.246-5.2,2.794a5.716,5.716,0,0,0-.692,3.63,7.089,7.089,0,0,1,.176,1.48c-.079,1.184-1.062,2.067-1.8,3a6.544,6.544,0,0,0-.991,6.894,8.267,8.267,0,0,0,3.645,3.236,9.265,9.265,0,0,0,3.3,1.131,12.722,12.722,0,0,0,10.593-3.58,12.392,12.392,0,0,0,3.479-8.769c-.028-1.59-.278-3.433.867-4.537.924-.89,1.989-1.027,2.266-2.437.2-.993-.35-2.113.188-3.032a3.2,3.2,0,0,1,1.979-1.4,7.737,7.737,0,0,1,3.429.157c2.15.448,3.836.7,5.55-.758Z" fill="#1c0029"/>
        <path id="Path_26" data-name="Path 26" d="M205.114,180.275c-.016-.346-.064-.692-.061-1.039a3.6,3.6,0,0,0-.038-1.012,1.537,1.537,0,0,0-1.847-.908,3.041,3.041,0,0,0-1.715,1.413c-.825,1.292-.792,3.423.852,4.1,1.244.515,2.69-.835,2.8-2.059A3.6,3.6,0,0,0,205.114,180.275Z" fill="#ff9575"/>
        <path id="Path_27" data-name="Path 27" d="M187.411,255.569c-1.948-1.081-7.638-4.732-7.64-4.732-.268-.09-3.81,5.495-4.254,8.216a3.966,3.966,0,0,0,.7,3.242,3.42,3.42,0,0,0,1.692,1.017,5.355,5.355,0,0,0,4.2-.8c1.768-1.128,4.358-5.1,5.3-6.942" fill="none" stroke="#051433" stroke-miterlimit="10" stroke-width="1" opacity="0.6"/>
        <path id="Path_28" data-name="Path 28" d="M208.707,183a2.228,2.228,0,0,0,.978,1.368,1.387,1.387,0,0,0,1.6-.131,1.649,1.649,0,0,0,.359-.559,3.02,3.02,0,0,0,.232-1.012c0-.028,0-.063-.029-.071s-.034.051-.009.039" fill="#fff"/>
      </g>
      <g id="Group_22" data-name="Group 22">
        <path id="Path_29" data-name="Path 29" d="M161.022,124.751c.057-1.759-.239-3.646-.322-5.341a17.425,17.425,0,0,0-.254-2.563,1.7,1.7,0,0,0-.222-.628,1.918,1.918,0,0,0-.846-.6,2.251,2.251,0,0,0-2.129-.194,2.126,2.126,0,0,0-.53.59A11.5,11.5,0,0,0,155.1,120.3c-.2.963-.094,3.328-1,3.845.506-.287-.274-4.295-1.489-3.931a.8.8,0,0,0-.5.693,3.543,3.543,0,0,0,.076.9c.306,2.234-1.047,4.411-.922,6.662.083,1.49.787,2.852,1.005,4.318a21.826,21.826,0,0,1,.25,4.729c-.086,1.13.015,4.683-1.23,5.33a7.509,7.509,0,0,1,5.243-.61l1-6.407a19.338,19.338,0,0,1,.961-4.148c.726-1.846,2.024-3.472,2.389-5.455A10.026,10.026,0,0,0,161.022,124.751Z" fill="#ff9575"/>
        <g id="Group_8" data-name="Group 8">
          <path id="Path_30" data-name="Path 30" d="M130.935,361.908c.206.18.421.349.642.507,2.384,1.715,5.295,2.363,8.033,3.283,1.444.485,5.451,1.637,3.64,3.77-1.85,2.18-6.121,1.713-8.6,1.506a57.728,57.728,0,0,0-8.1-.623,23.944,23.944,0,0,1-5.143.211c-5.937-.947-2.865-9.1-2.852-13.082.014-3.886-.12-7.839.893-11.628.447-1.67,1.282-3.455,2.906-4.048a6.013,6.013,0,0,1,3.716.294c1.231.494,1.459,1.47,1.81,2.732a41.224,41.224,0,0,1,1.267,12.144,7.734,7.734,0,0,0,.267,2.844A5.119,5.119,0,0,0,130.935,361.908Z" fill="#111314"/>
        </g>
        <g id="Group_10" data-name="Group 10">
          <path id="Path_31" data-name="Path 31" d="M112.066,176.136c.067.242.135.482.206.722a15.351,15.351,0,0,1,.325,2.879c.155,1.672.233,3.388.54,5.041.4,2.134,5.878,11.686,7.936,11.645,2.257-.046,4.041-9.293,3.657-11.494-.523-2.995-2.112-8.922-2.12-8.961a7.83,7.83,0,0,0-3.6-4.475c-1.875-.93-4.507-.74-6.526-.523a1.667,1.667,0,0,0-.919.3c-.483.4-.39,1.158-.254,1.773C111.54,174.082,111.785,175.115,112.066,176.136Z" fill="#ff9575"/>
          <path id="Path_32" data-name="Path 32" d="M123.155,179.333a.169.169,0,0,0,.029-.143c-.327-1.282-.571-2.194-.574-2.209-2.859-7.8-10.932-5.5-10.35.115.054.519.16,1.716.284,3.069l.934.664A6.869,6.869,0,0,0,123.155,179.333Z" fill="url(#linear-gradient)"/>
          <g id="Group_9" data-name="Group 9">
            <path id="Path_33" data-name="Path 33" d="M121.274,159.908c-1.539-.587-4.149,1.611-5.752,2.022-1.559.559-4.008,1.28-4.988,2.6-2.075,2.8-1.083,7.088.808,9.942.317.478,1,1.711,1.368,2.154a8.739,8.739,0,0,0,9.6,2.485c2.6-.988,3.774-3.411,3.832-6.6.011-.574-.2-2.412-.264-2.982C125.486,166.032,122.893,160.525,121.274,159.908Z" fill="#ff9575"/>
            <path id="Path_34" data-name="Path 34" d="M123.223,153.562a5.366,5.366,0,0,0-.95.482c-1.717,1.007-3.823.974-5.77,1.388-2.9.618-5.821,2.092-7.358,4.73-1.888,3.239-.668,7.33.31,10.693a3.385,3.385,0,0,0,.249.669c1.193,2.216,2.8.345,3.028-1.345.142-1.055,0-2.137.179-3.187a5.112,5.112,0,0,1,5.1-4.23c2.261.162,4.978-.482,6.126-2.655a7.345,7.345,0,0,0,.436-5.775,1.382,1.382,0,0,0-.432-.7A.973.973,0,0,0,123.223,153.562Z" fill="#151a36"/>
            <path id="Path_35" data-name="Path 35" d="M125.841,167.827c-.008.125-.02.248-.038.367a.551.551,0,0,1-.287-.12c-1.175-1.635-1.343-3.771-2.456-5.425-.468-.7-1.249-.71-1.658-1.265a2.4,2.4,0,0,1,.583-2.923,1.819,1.819,0,0,1,2.393.323,2.8,2.8,0,0,1,.386.747,17.61,17.61,0,0,1,.838,5.092A26.956,26.956,0,0,1,125.841,167.827Z" fill="#151a36"/>
            <path id="Path_36" data-name="Path 36" d="M112.393,173.11a2.153,2.153,0,0,1-1.037,1,1.6,1.6,0,0,1-1.42-.065,4.144,4.144,0,0,1-1.321-2.482,2.138,2.138,0,0,1,.805-1.921C111.578,167.987,113.33,171.3,112.393,173.11Z" fill="#ff9575"/>
            <path id="Path_37" data-name="Path 37" d="M126.523,167.641l0,.053a4.016,4.016,0,0,1,0,1.184,1.365,1.365,0,0,1-.639.957c-.714.381-1.712-.434-2.027-1.04a2.945,2.945,0,0,1,.027-2.6,1.466,1.466,0,0,1,1.484-.856,1.339,1.339,0,0,1,.875.8,3.985,3.985,0,0,1,.247,1.2Z" fill="#ff9575"/>
          </g>
        </g>
        <path id="Path_38" data-name="Path 38" d="M136.1,187.806a1.675,1.675,0,0,0-1.175-.641q-1.989-.457-3.941-1.068a27.3,27.3,0,0,0-3.567-1.171,7.781,7.781,0,0,1-.958-.195,6.064,6.064,0,0,1-.7-.281l-1.277-.58a5.433,5.433,0,0,1-.935,4.082,5.705,5.705,0,0,1-5.152,1.729,5.3,5.3,0,0,1-4.162-2.767,27.516,27.516,0,0,1-1.261-2.78,8.916,8.916,0,0,0-2.642.424c-1.379.3-2.747.646-4.111,1-2.081.543-4.162,1.1-6.223,1.712-2.234,1.8.072,4.945-.239,6.322-.93,4.111-.4,53.843-.4,53.843l33.482-.542q.3-4.521.576-9.045.607-9.791,1.134-19.584c.331-6.265.656-12.534.8-18.806.027-1.2.03-2.389.042-3.584a22.632,22.632,0,0,1,.008-2.841c.009-.064.018-.129.028-.194a30.319,30.319,0,0,0,.8-4.318A1.433,1.433,0,0,0,136.1,187.806Z" fill="#fad100"/>
        <g id="Group_12" data-name="Group 12">
          <g id="Group_11" data-name="Group 11">
            <path id="Path_39" data-name="Path 39" d="M138,257.541q-.225-4.215-.5-8.424a13.615,13.615,0,0,0-1.445-6.244c-1.5-2.491-5.942-4.919-8.522-6.29-3.668-1.951-8.3-.931-11.538,1.486-3.4,2.54-5.53,6.46-6.858,10.492a37.2,37.2,0,0,0-.726,20.622c.913,3.613,2.985,7.613,3.087,11.353.123,4.545-1.684,8.406.206,12.947.955,2.3,2.612,4.24,3.615,6.514,1.55,3.517,1.423,7.513,1.268,11.353q-.921,22.8-1.841,45.6h16.729a.215.215,0,0,0,.007-.024q1.953-13.182,3.575-26.409,1.488-12.141,2.7-24.312C139.371,289.945,138.878,273.883,138,257.541Z" fill="#d4004a"/>
          </g>
        </g>
        <g id="Group_13" data-name="Group 13">
          <path id="Path_40" data-name="Path 40" d="M75.856,360.105a1.821,1.821,0,0,0-.019.925c.244.852,1.546,1.529,2.123,2.257a6.67,6.67,0,0,0,4.609,2.03c1.55.178,4.831-.029,5.72,1.659a1.847,1.847,0,0,1,.165,1.02c-.374,4.337-7.84,3.286-10.672,3.1l-8.009-.534c-3.852-.257-7.331-1.866-5.942-6.387a21.329,21.329,0,0,1,1.094-2.671l3.057-6.59a14.346,14.346,0,0,1,3.26-5.03c1.835-1.587,6.381-2.265,7.364.715a5.015,5.015,0,0,1-.377,3.162l-1.4,4.013A22.953,22.953,0,0,0,75.856,360.105Z" fill="#111314"/>
        </g>
        <g id="Group_15" data-name="Group 15">
          <g id="Group_14" data-name="Group 14">
            <path id="Path_41" data-name="Path 41" d="M120.9,238.962a3.76,3.76,0,0,0-.731-2.239,12.313,12.313,0,0,0-1.6-1.1c-1.538-1.212-.846-1.877-3.357-2.25a21.049,21.049,0,0,0-5.706-.052c-3.311.421-6.811,1.613-9.132,4.12-4.11,4.439-6.009,10.678-6.632,16.579-.837,7.922.209,15.963-.752,23.87-.568,4.674-1.829,9.234-2.611,13.876-.441,2.613-.747,5.308-1.94,7.674a36.926,36.926,0,0,1-3.108,4.546c-4.743,6.694-4.747,14.816-7.4,22.325-3.091,8.729-8.652,20.331-12.148,28.9.557.217,1.043.392,1.28.5,1.285.56,2.593,1.061,3.892,1.587,2.566,1.04,5.05,2.262,7.534,3.485,5.757-10.009,14.306-22.794,20.269-32.618,5.916-9.748,11.886-18.247,15.2-29.393C119.666,279.563,122.875,259,120.9,238.962Z" fill="#f02b66"/>
          </g>
        </g>
        <path id="Path_42" data-name="Path 42" d="M121.244,220.76c.063-.3.122-.6.175-.9.89-5.107,1.428-10.269,1.837-15.435.2-2.586.389-5.174.541-7.762.128-2.192.52-4.341.67-6.541.13-1.9.286-3.916,1.581-5.385a.668.668,0,0,0,.3,0c3.623-.795,6.727-4.143,9.155-7.628a1.527,1.527,0,0,1,1.181-.073,2.408,2.408,0,0,1,1.26,1.891c.517,2.431.014,4.9.177,7.354.145,2.193.415,4.024.366,6.241-.055,2.434.327,4.712-.684,7.017-1.161,2.644-1.036,5.291-.95,8.161.481,16.072,1.682,32.142,3.234,48.085.073.316-.366.477-.69.494a87.171,87.171,0,0,1-11.889-.458,5.073,5.073,0,0,1-2.083-.479,4.028,4.028,0,0,1-1.343-1.387c-2.145-3.323-2.127-7.069-2.341-10.852q-.378-6.691-.755-13.382c-.1-1.718-.37-3.493-.331-5.211A21.066,21.066,0,0,1,121.244,220.76Z" fill="#2155b5"/>
        <path id="Path_43" data-name="Path 43" d="M95.733,219.347c-1.352,10.838-3.354,21.585-4.683,32.429-.118.964-.7,2.486.2,3.232a3.423,3.423,0,0,0,1.689.6A85.368,85.368,0,0,0,105.8,256.7c3.252.03,8.009.594,10.917-1.2,2.753-1.7,3.478-5.312,3.947-8.515a126.507,126.507,0,0,0,1.451-13.421,37.75,37.75,0,0,0-.171-6.327c-.278-2.117-.072-4.272-.419-6.38a24.265,24.265,0,0,0-1.228-4.159,155.73,155.73,0,0,1-4.79-16.186c-1.265-5.314-2-10.7-3.027-16.051a.221.221,0,0,0-.052-.122.23.23,0,0,0-.153-.043c-1.747-.049-3.364.427-5.083.545-1.6.11-3.216-.042-4.81.144a6.12,6.12,0,0,0-4.217,2.046c-1.572,2.036-1.528,5.13-1.417,7.567.1,2.262.532,4.542.468,6.808C97.042,207.4,96.476,213.39,95.733,219.347Z" fill="#2155b5"/>
        <g id="Group_18" data-name="Group 18">
          <path id="Path_44" data-name="Path 44" d="M81.269,271.487c.033-1.93-1.024-3.741-1.992-5.372a1.87,1.87,0,0,0-.446-.562.671.671,0,0,0-.677-.109.871.871,0,0,0-.33.34c-1.175,1.858-.067,2.8,1.135,4.111.445.486.924,1.116.7,1.737a2.563,2.563,0,0,1-.683.84c-.387.4-.667,1.979.36,1.493A2.8,2.8,0,0,0,81.269,271.487Z" fill="#ff9575"/>
          <path id="Path_45" data-name="Path 45" d="M81.463,277.248c-.016-1.458.176-3.416-.876-4.59-.935-1.043-2.646-1.347-3.966-1.453-3.65-.295-5.083,1.936-5.609,5.246-.139.871,1.221,1.042,1.359.172a5.775,5.775,0,0,1,1.151-3.232,3.956,3.956,0,0,1,3.552-.758c1.256.183,2.47.505,2.877,1.869a11.588,11.588,0,0,1,.156,2.941C80.117,278.321,81.473,278.12,81.463,277.248Z" fill="#111314"/>
          <g id="Group_17" data-name="Group 17">
            <g id="Group_16" data-name="Group 16">
              <path id="Path_46" data-name="Path 46" d="M79.939,264.335a22.718,22.718,0,0,0-.563,2.769,17.772,17.772,0,0,0,.367,4.022c.114,1.027.309,2.39-.571,3.156a2.475,2.475,0,0,1-1.624.548,4.494,4.494,0,0,1-3.973-2.481,8.712,8.712,0,0,1-.7-3.253c-.193-3.09,1.551-5.741,2.811-8.466a4.624,4.624,0,0,1,1.594-2.246,1.975,1.975,0,0,1,2.6,1.171,5.975,5.975,0,0,1,.319,3.516C80.13,263.5,80.038,263.916,79.939,264.335Z" fill="#ff9575"/>
            </g>
          </g>
        </g>
        <g id="Group_19" data-name="Group 19">
          <rect id="Rectangle_4" data-name="Rectangle 4" width="45.227" height="29.025" rx="1" transform="translate(54.132 273.596) rotate(7.2)" fill="#0e398a"/>
          <path id="Path_47" data-name="Path 47" d="M98.5,280.228l-23.137,8.609a.794.794,0,0,1-.724-.091l-20.27-14.093a.668.668,0,0,1,.521-1.206L98.3,278.93A.669.669,0,0,1,98.5,280.228Z" fill="#2155b5"/>
          <path id="Path_48" data-name="Path 48" d="M75.783,288.386c.051-.826-1.23-.993-1.281-.162q-.075,1.211-.264,2.408c-.13.822,1.151.983,1.281.162Q75.71,289.6,75.783,288.386Z" fill="#2155b5"/>
        </g>
        <g id="Group_20" data-name="Group 20">
          <path id="Path_49" data-name="Path 49" d="M95.992,188.044a23.993,23.993,0,0,0-8.788,15.2,22.13,22.13,0,0,1-.98,4.79,21.232,21.232,0,0,1-2.368,3.882,30.708,30.708,0,0,0-4.793,11.855c-.848,4.824-.531,9.805-1.5,14.607-1.652,8.223-3.892,15.928-4.605,24.335.762.173,9.045,1.683,8.869,2.188,1.251-3.592,2.622-7.165,3.788-10.782.92-2.857,2.162-5.345,3.336-8.13,1.772-4.2,1.082-9.292,3.559-13.12.963-1.489,2.34-2.666,3.378-4.1,3.206-4.441,2.74-10.622,5.362-15.431,1.456-2.672,3.8-4.791,5.166-7.511,2.433-4.847,1.119-10.331.218-15.369-.707-3.953-2.767-6.527-6.973-4.616A19.123,19.123,0,0,0,95.992,188.044Z" fill="#2155b5"/>
        </g>
        <g id="Group_21" data-name="Group 21">
          <path id="Path_50" data-name="Path 50" d="M123.886,224.664a1.416,1.416,0,1,1-1.415-1.415A1.415,1.415,0,0,1,123.886,224.664Z" fill="#111314"/>
          <path id="Path_51" data-name="Path 51" d="M123.886,233.457a1.416,1.416,0,1,1-1.415-1.415A1.416,1.416,0,0,1,123.886,233.457Z" fill="#111314"/>
        </g>
        <path id="Path_52" data-name="Path 52" d="M117.637,173.228a2.739,2.739,0,0,0,5.412-.844Z" fill="#fff"/>
        <path id="Path_53" data-name="Path 53" d="M150.234,134.755c-1.488,4.241-1.624,9.744-2.4,14.09a17.923,17.923,0,0,1-1.088,4.138c-.785,1.771-2.124,3.243-3.006,4.968-1.7,3.318-1.576,7.276-2.875,10.769-2.076,5.582-7.464,9.28-10.221,14.559-2.823,5.407-2.942,12.282-2.231,18.665.257,2.3.621,4.54,1.006,6.622.993,5.374,10.522-4.957,12.047-6.578,4.975-5.286,9.541-11.321,11.2-18.524.465-2.015.692-4.077,1.1-6.105.435-2.165,1.075-4.282,1.637-6.417,2.338-8.9,4.535-18.656,4.342-27.881-.053-2.537-.187-5.069-.245-7.6A48.947,48.947,0,0,1,150.234,134.755Z" fill="#2155b5"/>
        <path id="Path_54" data-name="Path 54" d="M110.782,184.3c-.078.558-.187,2.318-.206,2.5q-.18,1.758-.361,3.516l-.7,6.8-.123,1.2,4.427,1.163-3.42,4.063,11.047,16.843c-.887-4.343-1.76-8.688-2.714-13.019-.885-4.023-2-7.958-3-11.945q-1.454-5.766-2.921-11.528a10.291,10.291,0,0,0-1.991.242A.44.44,0,0,0,110.782,184.3Z" fill="#0e398a"/>
        <path id="Path_55" data-name="Path 55" d="M127.661,190.025q-.381-2.679-.664-5.368a6.32,6.32,0,0,1-2.518-.727c.039.64-.147,2.44-.164,2.674q-.11,1.51-.324,3.007c-.272,1.893-.73,3.745-1.073,5.614a87.539,87.539,0,0,0-.875,11.7c-.1,2.247-.189,4.5-.278,6.744q-.067,1.686-.141,3.371-.039.874-.082,1.75c-.017.338.1,1.211-.077,1.48l6.908-16.733-3.808-4.063a11.084,11.084,0,0,0,2.314-.624c.507-.136,1.017-.264,1.521-.41.273-.078.554-.1.634-.346a5,5,0,0,0-.292-1.493Q128.128,193.323,127.661,190.025Z" fill="#0e398a"/>
      </g>
      <g id="Group_29" data-name="Group 29">
        <path id="Path_56" data-name="Path 56" d="M370.461,365.949a6.971,6.971,0,0,1-.913,1.515c-2.4,3.007-6.777,3.3-10.267,4.921-1.585.735-3.894,2.858-2.341,4.67,1.075,1.255,3.786,1.142,5.254,1.036a148.594,148.594,0,0,0,15.479-1.933,2.7,2.7,0,0,0,1.331-.5,2.737,2.737,0,0,0,.657-2.041q.27-7.088.1-14.183c0-.007-6.514-.165-7.129.109-1.362.606-1.164,1.733-1.323,3.05A11.66,11.66,0,0,1,370.461,365.949Z" fill="#110809"/>
        <path id="Path_57" data-name="Path 57" d="M410.168,371.961a6.267,6.267,0,0,1-1.393,1.107,42.213,42.213,0,0,1-7.176,3.452c-1.9.7-4.006,1.378-5.129,3.068-2.547,3.831,2.7,4.764,5.235,4.582a148.6,148.6,0,0,0,15.479-1.934,2.708,2.708,0,0,0,1.331-.495,2.743,2.743,0,0,0,.657-2.041q.27-7.089.1-14.184c0,.056-6.648-.264-7.21.109-1.068.708-.552,2.22-.65,3.31A4.9,4.9,0,0,1,410.168,371.961Z" fill="#110809"/>
        <g id="Group_24" data-name="Group 24">
          <g id="Group_23" data-name="Group 23">
            <path id="Path_58" data-name="Path 58" d="M411.129,269.977a61.673,61.673,0,0,0-4.357-16.333c-.28-.67-.822-2.456-1.678-2.612-.487-.088-2.126,1.205-2.648,1.439a26.283,26.283,0,0,1-3.314,1.183c-2.492.739-5.064,1.219-7.506,2.126-1.88.7-5.074,1.883-5.922,3.784q-1.77,3.971-3.291,8.045c-.912,2.441-2.268,5.012-2.719,7.568-.393,2.226-.391,4.3-1.15,6.546-3.048,9.035-8.435,17.262-10.428,26.588a68.067,68.067,0,0,0-1.187,12.065,453.938,453.938,0,0,0,1.288,47.056H381.41c.4-2.888.811-6.789,1.216-9.677a52.266,52.266,0,0,1,1.953-9.54c.6-1.776,1.395-3.488,1.882-5.3,1.454-5.415.127-11.531,2.758-16.482.649-1.221,1.515-2.313,2.2-3.516a24.023,24.023,0,0,0,2.237-6.446c1.528-6.544,2.555-13.332,5.711-19.266,1.788-3.363,4.2-4.561,6.755-7.012,2.013-1.935,3.592-5.888,4.207-8.555A35.182,35.182,0,0,0,411.129,269.977Z" fill="#d4004a"/>
          </g>
        </g>
        <path id="Path_59" data-name="Path 59" d="M353.157,183.778a12.311,12.311,0,0,1-.32-5.538,32.97,32.97,0,0,0-.168-7.81,5.954,5.954,0,0,0-.587-2.088c-.524-.942-2.105-1.882-3.122-1.123a2.977,2.977,0,0,0-.816,1.121,7.085,7.085,0,0,0-1,3.232c.052,1.1.4,2.3-.007,3.389-.358.964-.9-.208-1.029-.74-.111-.478-.708-1.735-1.375-1.437-.747.334-.071,2.547.093,3.136.659,2.356,1.958,4.514,2.32,6.956.19,1.283.1,2.592.233,3.884.222,2.209,1.03,4.28,1.4,6.465a40.761,40.761,0,0,1,.523,4.6c.044.806.06,1.613.139,2.416a30.653,30.653,0,0,0,.946,4.614q.641,2.469,1.28,4.938c.386,1.491.868,2.84,1.382,4.272a26.477,26.477,0,0,0,4.459,7.961c1.874,2.364,3.187,5.892,6.72,5.853a23.323,23.323,0,0,0,5.666-1.181,18.934,18.934,0,0,0,5.893-2.891,17.164,17.164,0,0,0,6.247-8.682,6.543,6.543,0,0,0,.253-3.64c-.9-3.2-4.592-3.583-7.343-3.161l-4.674.718c-1.5.229-3.534,1.705-4.428-.209-2.019-4.325-4.928-8.286-7.2-12.49-1.789-3.317-2.966-6.939-4.548-10.355C353.775,185.287,353.439,184.532,353.157,183.778Z" fill="#ff9575"/>
        <g id="Group_26" data-name="Group 26">
          <g id="Group_25" data-name="Group 25">
            <path id="Path_60" data-name="Path 60" d="M427.3,276.085a28.746,28.746,0,0,0-5.717-20.513c-2.752-3.577-6.619-6.589-11.1-7.083-16.324-1.8-14.615,27.918-13.741,37.643.7,7.763,1.96,15.465,2.541,23.239.4,5.388-.052,10.78-.011,16.148.04,5.459,2.218,11.039,3.309,16.39.456,2.235,3.276,21.532,4.259,31.1h13.892q3.361-25.7,4.722-51.6c.309-5.912.561-11.9.684-17.788.129-6.108-1.344-12.084-.484-18.267C426.077,282.246,426.943,279.2,427.3,276.085Z" fill="#f02b66"/>
          </g>
        </g>
        <path id="Path_61" data-name="Path 61" d="M389.22,204.246c-2.383-.581-5.4.019-7.548.412-3.426.626-6.662,1.911-9.995,2.863-.178.064-.357.121-.534.184-.214.077-.431.157-.645.246q-.037.583-.074,1.168c.65,6.219,1.671,12.391,2.616,18.572a34.215,34.215,0,0,0,16.141-13.47,14.978,14.978,0,0,0,1.471-3.473,8.622,8.622,0,0,0,.005-1.1A25.887,25.887,0,0,0,389.22,204.246Z" fill="#2155b5"/>
        <path id="Path_62" data-name="Path 62" d="M383.814,261.983c3.53-.883-4.062-29.8-4.621-32.534a77.856,77.856,0,0,1-1.742-11.351c-.133-2.46.023-5.1,1.471-7.091a12.625,12.625,0,0,1,3.708-3.038c7.126-4.456,13.278-10.274,22.115-10.677a3.686,3.686,0,0,1,1.509.157,4,4,0,0,1,1.87,2.3c2.07,4.563,2.873,9.545,4.988,14a74.284,74.284,0,0,1,4.871,14.007,220.435,220.435,0,0,1,5.934,30.563c-1.31-2.721-15.6.421-18.722.787Q394.482,260.364,383.814,261.983Z" fill="#2155b5"/>
        <path id="Path_63" data-name="Path 63" d="M409.076,200.851c1.611,1.815,2.434,4.632,2.953,7.125,1.385,6.657,2.777,13.382,2.65,20.181a91.223,91.223,0,0,1-1.3,12.044q-1.647,10.8-3.3,21.59c-.549,3.6-1.107,7.2-1.648,10.8-.271,1.8-.184,4.983-1.474,6.47a4.416,4.416,0,0,1-2.956,1.119q-7.8.871-15.655.977c-.738-2.715,1.418-5.537,4.042-6.552s5.55-.693,8.343-.356q-1.13-13.434-2.26-26.868c-.9-6.32.459-12.946-.942-19.165s-1.782-12.589-2.337-19c-.181-2.08-.318-4.342.836-6.082,1.011-1.525,2.8-2.31,4.49-3,1.779-.729,3.7-1.457,5.578-1.061A5.407,5.407,0,0,1,409.076,200.851Z" fill="#ff9575"/>
        <path id="Path_64" data-name="Path 64" d="M394.612,225.838a93.234,93.234,0,0,1,21.731-1.455,115,115,0,0,0-2.274-16.295c-.693-3.251-1.646-6.674-4.123-8.891-4.287-3.836-13.469-2.827-15.546,2.973C391.98,208.929,393.324,219.025,394.612,225.838Z" fill="#2155b5"/>
        <g id="Group_28" data-name="Group 28">
          <path id="Path_65" data-name="Path 65" d="M393.537,195.641c.23,1.309,1.369,7.109,1.481,8.3.2,2.083-2.368,12.391-4.287,12.9-2.106.554-6.2-7.554-6.427-9.7-.3-2.916-.395-8.833-.4-8.872C384.5,190.277,392.593,190.276,393.537,195.641Z" fill="#ff9575"/>
          <path id="Path_66" data-name="Path 66" d="M392.238,192.54c-.454-.46-1.16-.481-2.16-.537a5.483,5.483,0,0,0-3.564.838,6.262,6.262,0,0,0-2.609,5.425c.074.812.084,1.548.2,2.258a4.818,4.818,0,0,0,.87,2.145,14.338,14.338,0,0,0,2.464,2.447,4.122,4.122,0,0,0,1.489.929,4,4,0,0,0,2.857-.674c4.527-2.446,1.678-7.863.97-11.655A2.175,2.175,0,0,0,392.238,192.54Z" fill="url(#linear-gradient-2)"/>
          <g id="Group_27" data-name="Group 27">
            <path id="Path_67" data-name="Path 67" d="M380.906,183.016c1.272-.95,4.273.4,5.869.358,1.593.107,4.055.129,5.314,1.1,2.664,2.051,2.875,6.289,1.874,9.435-.167.527-.48,1.852-.7,2.359a8.424,8.424,0,0,1-8.245,4.838c-2.674-.229-4.4-2.167-5.3-5.112-.161-.529-.45-2.29-.541-2.836C378.614,189.809,379.567,184.016,380.906,183.016Z" fill="#ff9575"/>
            <path id="Path_68" data-name="Path 68" d="M378.08,176.73a3.65,3.65,0,0,1,4.029-.145c1.257.931,1.769,2.033,3.47,1.941,1.627-.088,2.7-.759,4.369-.106,2.678,1.045,4.346,3.989,4.664,6.737a34.63,34.63,0,0,1-.082,6.657c-.055.116-.383.265-.475-.194a19.608,19.608,0,0,0-.583-3.074,1.424,1.424,0,0,0-1.16-.965c-.452-.025-.978.223-1.316-.078a1.258,1.258,0,0,1-.286-.6,2.961,2.961,0,0,0-2.3-2c-2.47-.4-4.7.5-7.143.484-4.023-.033-7.322-5.308-3.678-8.3A4.727,4.727,0,0,1,378.08,176.73Z" fill="#110809"/>
            <path id="Path_69" data-name="Path 69" d="M378.777,191.561c.047.468.109.375.347.154.866-2.393.073-6.459,1.893-6.922.136-.035.478-1.575.138-1.513a3.79,3.79,0,0,0-1.995.891C378.294,185.6,378.582,189.653,378.777,191.561Z" fill="#110809"/>
            <path id="Path_70" data-name="Path 70" d="M392.479,191.627a1.449,1.449,0,1,0,1.435-1.8A1.658,1.658,0,0,0,392.479,191.627Z" fill="#ff9575"/>
            <path id="Path_71" data-name="Path 71" d="M377.519,191.3a1.448,1.448,0,1,0,1.434-1.8A1.657,1.657,0,0,0,377.519,191.3Z" fill="#ff9575"/>
          </g>
        </g>
        <path id="Path_72" data-name="Path 72" d="M387.8,194.412a2.641,2.641,0,0,1-5.243.646Z" fill="#fff"/>
      </g>
      <g id="Group_33" data-name="Group 33">
        <path id="Path_73" data-name="Path 73" d="M270.137,343.8c1.437,2.146,2.468,4.182,2.086,7.046-.562,4.209-4,7-4.9,11.085a2.5,2.5,0,0,0-.044,1.155,2.357,2.357,0,0,0,1.688,1.559c3.973,1.045,7.449-4.793,9.694-7.053l8.476-8.532a2.2,2.2,0,0,0-.227-3.032l-9.46-9.774-1.389-1.454c-2.3-2.41-5.758-2.676-7.654-.59-1.638,1.8-1.507,4.887.152,7.307C269.1,342.321,269.644,343.069,270.137,343.8Z" fill="#110809"/>
        <g id="Group_30" data-name="Group 30">
          <rect id="Rectangle_5" data-name="Rectangle 5" width="2.106" height="46.444" transform="translate(303.835 350.84) rotate(180)" fill="#110809"/>
          <path id="Path_74" data-name="Path 74" d="M321.191,360.586c0-6.858-12.135-9.734-18.2-9.746-7.218-.014-18.2,2.647-18.2,9.746" fill="none" stroke="#110809" stroke-miterlimit="10" stroke-width="2"/>
          <line id="Line_13" data-name="Line 13" y1="11.392" transform="translate(302.789 351.028)" fill="none" stroke="#110809" stroke-miterlimit="10" stroke-width="2"/>
          <path id="Path_75" data-name="Path 75" d="M281.816,362.241a2.978,2.978,0,1,0,2.978-2.978A2.978,2.978,0,0,0,281.816,362.241Z" fill="#110809"/>
          <path id="Path_76" data-name="Path 76" d="M299.864,362.241a2.978,2.978,0,1,0,2.978-2.978A2.979,2.979,0,0,0,299.864,362.241Z" fill="#110809"/>
          <path id="Path_77" data-name="Path 77" d="M317.913,362.241a2.978,2.978,0,1,0,2.978-2.978A2.978,2.978,0,0,0,317.913,362.241Z" fill="#110809"/>
          <path id="Path_78" data-name="Path 78" d="M304.827,288.8V254.634a10.71,10.71,0,0,1,10.709-10.709h11.791a10.709,10.709,0,0,1,10.709,10.709v38.2A15.386,15.386,0,0,1,322.7,308.177H284.252a1.8,1.8,0,0,1-1.805-1.8h0a1.8,1.8,0,0,1,1.805-1.805h4.813A15.762,15.762,0,0,0,304.827,288.8Z" fill="#fff"/>
        </g>
        <path id="Path_79" data-name="Path 79" d="M264.1,360.45c-.46,2.543-1.135,4.722-3.4,6.515-3.331,2.634-7.739,2.25-11.232,4.556a2.512,2.512,0,0,0-.834.8,2.36,2.36,0,0,0,.128,2.295c2.129,3.514,8.686,1.736,11.871,1.673l12.024-.238a2.2,2.2,0,0,0,1.946-2.336v-13.6l.012-2.012c.021-3.334-2.276-5.927-5.089-5.746-2.431.156-4.481,2.464-4.972,5.357C264.384,358.666,264.252,359.579,264.1,360.45Z" fill="#110809"/>
        <g id="Group_31" data-name="Group 31">
          <path id="Path_80" data-name="Path 80" d="M284.929,255.719c-2.3,2.244-5.006,3.836-8.408,3.573-2.54-.2-4.834-1.526-7.028-2.823-4.61-2.726-7.548-7.425-10.414-11.773-3.96-6.008-9.086-11.432-11.7-18.235-1.291-3.356-2.2-6.212-1.928-9.875.264-3.565,1.165-7.168.366-10.73-.268-1.2-1.636-4.866.113-5.527,1.6-.606,3.113,2,3.455,3.146a20.526,20.526,0,0,1,.521,4.214c.513,6.118,3.059,14.517,8.077,18.454,1.626,1.276,3.661,1.913,5.39,3.044,3.4,2.224,5.282,6.1,8.07,9.052a4.22,4.22,0,0,0,2.468,1.519c2.874.3,3.284-3.12,4.4-4.85,2.17-3.346,7.816-7.373,11.96-6.454a7.289,7.289,0,0,1,5.5,6.023,14.222,14.222,0,0,1-.18,3.738,15.527,15.527,0,0,1-4.429,9.714C289.3,250.321,287.334,253.375,284.929,255.719Z" fill="#ff9575"/>
          <path id="Path_81" data-name="Path 81" d="M289.2,269.044h0c.013-.047.021-.1.034-.144Z" fill="#7a483a"/>
          <path id="Path_82" data-name="Path 82" d="M297.255,230.767l-.157.745h0Z" fill="#7a483a"/>
          <path id="Path_83" data-name="Path 83" d="M289.332,268.478c-.026.144-.062.283-.1.422l.114-.542C289.341,268.4,289.339,268.438,289.332,268.478Z" fill="#7a483a"/>
          <path id="Path_84" data-name="Path 84" d="M297.953,228.994c-.034,2.425-.265,4.779-.268,6.1a21.305,21.305,0,0,1-.408,4.886,19.58,19.58,0,0,1-1.562,4.016c-1.931,3.955-4.164,8.216-7.074,11.532a65.036,65.036,0,0,1-3.9-5.293c-1.7-2.816-3.334-5.674-4.965-8.532-.9-1.579-3.691-4.5-3.182-6.258.367-1.267,4.728-4.414,5.794-5.748,2.465-3.084,7.61-8.625,11.892-8.953C297.493,220.5,298.011,224.85,297.953,228.994Z" fill="#fad100"/>
        </g>
        <path id="Path_85" data-name="Path 85" d="M245.249,296.368a9.023,9.023,0,0,1,2.305-6.019c3.066-3.38,8.01-4.126,12.541-4.667l18.445-2.205c10.516-1.256,21.792-2.383,31.149,2.576,6.421,3.4,8.632,11.287,2.463,16.289-3.433,2.783-7.992,3.637-12.344,4.4l-18.64,3.27c-5.483.962-11.869,3-16.91-.41-1.336-.9-2.487-2.116-3.983-2.718-4.262-1.714-12.071-2.638-14.3-7.28A7.568,7.568,0,0,1,245.249,296.368Z" fill="#0e398a"/>
        <path id="Path_86" data-name="Path 86" d="M253.56,286.912a24.271,24.271,0,0,1,5.929-.607c5.781.05,9.943,5.9,6.948,11.3-.649,1.168-1.615,2.216-1.831,3.535a6.725,6.725,0,0,0,.743,3.553c5.062,12.339,12.825,25.64,14.221,38.945-3.665,1.836-14.5,2.953-16.625-.765l-5.656-9.893a51.038,51.038,0,0,0-3.863-6.074c-1.814-2.334-4.023-4.34-5.839-6.673a26.046,26.046,0,0,1-4.155-23.582C245.268,290.966,248.832,288.061,253.56,286.912Z" fill="#0e398a"/>
        <path id="Path_87" data-name="Path 87" d="M268.659,300.562c7.048-9.789,21.985-8.4,27.707-19.845a5.139,5.139,0,0,1,.628-1.061c.879-1.029,2.425-1.07,3.779-1.065a131.365,131.365,0,0,0,22.816-2.424c4.482-.776,4.417-.082,6.03,4.085a35.575,35.575,0,0,1,2.557,9.639c.406,4.574-.8,9.53-4.226,12.591a21.521,21.521,0,0,1-6.53,3.576,302.29,302.29,0,0,1-34.321,11.4,25.261,25.261,0,0,1-6.669,1.129,13.412,13.412,0,0,1-10.942-6C266.16,307.467,266.451,303.629,268.659,300.562Z" fill="#2155b5"/>
        <path id="Path_88" data-name="Path 88" d="M289.572,224.442a11.186,11.186,0,0,1,2.683-2.828c3.774-2.854,9.186-2.589,13.657-2.734,4.684-.152,9.754.2,14.136,1.981,4.489,1.824,5.424,3.733,5.557,8.175.178,5.912,1.948,11.869,2.61,17.771a158.288,158.288,0,0,1,.982,18.85c-.025,3.347-.149,6.695-.4,10.033-.277,3.743-.607,3.768-4.28,4.279-8.587,1.194-20.037,3.684-28.55,1.262-.45-15.228-5.585-29.9-7.722-44.989C287.621,231.809,287.416,227.766,289.572,224.442Z" fill="#fad100"/>
        <path id="Path_89" data-name="Path 89" d="M306.4,228.919a7.833,7.833,0,0,0,3.282-2.47c3.5-4.553.159-7.655-.041-12.267-.145-3.356,2.177-6.712,1.1-9.9-.211-.625-.826-1.307-1.416-1.012a1.316,1.316,0,0,0-.467.492c-2.936,4.426-6.835,4.064-11.885,4.976.652-.118.807,10.933.657,11.684a17.321,17.321,0,0,0-.446,2.567,6.467,6.467,0,0,0,4.867,6.282A7.116,7.116,0,0,0,306.4,228.919Z" fill="#ff9575"/>
        <path id="Path_90" data-name="Path 90" d="M309.708,211.329l-11.106.543.911,8.2h0c3.711,1.954,12.221,1.388,10.2-2.665Z" fill="url(#linear-gradient-3)"/>
        <path id="Path_91" data-name="Path 91" d="M301.131,215.979a5.938,5.938,0,0,0,4.283-1.7c1.165-1,2.13-2.213,3.245-3.27a12.23,12.23,0,0,0,1.909-1.993,8.964,8.964,0,0,0,1.112-3.475c.264-1.5.729-2.871.385-4.422a8.63,8.63,0,0,0-1.073-2.437q-.978-1.671-2.109-3.247c-1.518-2.114-4.031-3.922-6.77-2.9a5.584,5.584,0,0,0-2.941,2.745c-.823,1.63-.939,3.531-1.66,5.208-.238.553-.538,1.075-.807,1.613-1.117,2.238-2.028,5.075-1.45,7.577a8.674,8.674,0,0,0,3.491,5.439A5.033,5.033,0,0,0,301.131,215.979Z" fill="#ff9575"/>
        <path id="Path_92" data-name="Path 92" d="M314.259,199.13c-1.641-.651-1.678-1.533-2.13-3.132a6.662,6.662,0,0,0-3.15-3.87,9.459,9.459,0,0,0-4.927-1.135,8.55,8.55,0,0,0-3.924.976,5.468,5.468,0,0,0-2.6,3.025,2.719,2.719,0,0,0-.063,1.658c.433,1.32,2.364,1.855,3.515,2.309a37.977,37.977,0,0,1,3.919,1.656c2.45,1.3,3.643,3.295,2.415,5.988-.454,1-.6,2.732-2.232,2.313a2.472,2.472,0,0,1-1.142-.929,7.136,7.136,0,0,0-2.337-1.865,6.138,6.138,0,0,0-2.959-.4,12.275,12.275,0,0,1-2.688.1c-.352-.076-.224-.637-.681-.628-.286.006-.426.345-.494.623l-.765,3.113c-.43,1.75-.853,4.093-.061,5.8a6.244,6.244,0,0,0,3.052,2.886c2.494,1.2,6.046,1.484,8.416-.166,1.762-1.227,2.218-3.183,3.691-4.557,1.3-1.212,3.867-1.4,4.6-3.154.449-1.076-.112-2.371.325-3.456C315.035,203.814,319.133,201.061,314.259,199.13Zm-18.107,12.128a1.061,1.061,0,0,1-.221-.371,2.253,2.253,0,0,1,.9-2.385,3.653,3.653,0,0,1,4.423.013,4.155,4.155,0,0,1,1.809,2.535,1.533,1.533,0,0,1-.468,1.285,1.6,1.6,0,0,1-1.725.124c-.877-.432-1.1-1.436-2.225-1.038-.664.235-.725.5-1.436.344A1.964,1.964,0,0,1,296.152,211.258Z" fill="#110809"/>
        <path id="Path_93" data-name="Path 93" d="M308.979,206.176a3.461,3.461,0,0,0-.357.428,7.032,7.032,0,0,0-1.178,2.835,3.012,3.012,0,0,0,1.573.332,2.313,2.313,0,0,0,1.019-.538,4.014,4.014,0,0,0,1.367-2.507,1.265,1.265,0,0,0-.142-.9,1.111,1.111,0,0,0-1.19-.31A2.431,2.431,0,0,0,308.979,206.176Z" fill="#ff9575"/>
        <path id="Path_94" data-name="Path 94" d="M302.154,210.953a3.821,3.821,0,0,1-3.247.254,3.091,3.091,0,0,1-2.086-2.432" fill="#fff"/>
        <g id="Group_32" data-name="Group 32">
          <path id="Path_95" data-name="Path 95" d="M330.3,271.5c.679-.075,1.368-.122,2.068-.136-2.149-2.725-4.941-4.895-7.05-7.652-2.369-3.1-2.121-6.182-3.239-9.654-.924-2.867-2.737-5.393-3.636-8.309-2.188-7.091.471-19.824,10.737-16.712a12.1,12.1,0,0,1,6.706,5.878,35.981,35.981,0,0,1,3.053,8.588l4.938,18.819c.738,2.81,1.288,5.7,1.972,8.485.961,3.915,3.344,8.3-2.206,9.873a49.635,49.635,0,0,1-10.289,1.4c-6.485.428-13.009,1.112-19.5,1.286-3.947.106-7.729-1.132-11.618-1.571-3.383-.381-6.637.81-9.951.249-1.391-.236-2.873-1.263-2.786-2.671a2.978,2.978,0,0,1,1.207-1.985c2.472-2.054,6.082-2.053,9.2-1.256a6.766,6.766,0,0,0,2.151.346,7.076,7.076,0,0,0,2.164-.7c4.495-1.89,8.519-.4,12.969-1.093S325.786,272,330.3,271.5Z" fill="#ff9575"/>
          <path id="Path_96" data-name="Path 96" d="M314.187,242.277c-.072-.235-.142-.47-.212-.7-1.029-3.468-1.863-7.113-1.266-10.68s2.932-7.055,6.415-8.03a10.636,10.636,0,0,1,6.827.732c5.326,2.2,9.2,6.785,11.694,11.86,1.182,2.407,2.769,5.254,1.489,7.176C337.556,245,318.619,254,319.393,255.609A94.268,94.268,0,0,1,314.187,242.277Z" fill="#fad100"/>
        </g>
        <path id="Path_97" data-name="Path 97" d="M269.073,300.987c-4.407,8.267-2.361,18.418-3.217,27.336q-1.633,17-4.249,33.883a54.016,54.016,0,0,1,17.031,1.369c3.186-10.879,6.386-21.831,7.552-33.107.356-3.443.527-6.944,1.576-10.243,1.271-4,3.792-7.572,4.619-11.688,1.051-5.231-3.428-13.778-9.088-14.42C278.5,293.574,271.4,296.618,269.073,300.987Z" fill="#2155b5"/>
      </g>
      <g id="Group_34" data-name="Group 34">
        <path id="Rectangle_6" data-name="Rectangle 6" d="M0,0H53.565a0,0,0,0,1,0,0V1.872a0,0,0,0,1,0,0H1.524A1.524,1.524,0,0,1,0,.348V0A0,0,0,0,1,0,0Z" transform="translate(268.68 280.01) rotate(180)" fill="#fff"/>
        <path id="Path_98" data-name="Path 98" d="M205.913,278.138h53.525l-9.546-28.27a2.5,2.5,0,0,0-2.4-1.633H199.239a2.364,2.364,0,0,0-2.4,3.016Z" fill="#fff5f5"/>
        <rect id="Rectangle_7" data-name="Rectangle 7" width="53.782" height="1.872" transform="translate(259.695 280.01) rotate(180)" fill="#c9cdd1"/>
        <path id="Path_99" data-name="Path 99" d="M225.071,262.838a2.209,2.209,0,0,0,2.5,1.717,2.18,2.18,0,0,0,2.178-2.14,2.469,2.469,0,0,0-2.493-2.2.407.407,0,0,0-.2.054.4.4,0,0,0-.21,0A2.342,2.342,0,0,0,225.071,262.838Zm1.98-1.885a.463.463,0,0,0,.1-.04.433.433,0,0,0,.084.012,1.8,1.8,0,0,1,1.511.812c.705,1.229-.285,2.074-1.33,2.118A1.464,1.464,0,0,1,227.051,260.953Z" fill="#c9cdd1"/>
      </g>
      <g id="Group_36" data-name="Group 36">
        <path id="Path_100" data-name="Path 100" d="M352.873,232.824l0-.064c-.133-1.886,1.181-3.71.814-5.565a.716.716,0,0,0-.287-.51c-.3-.167-.651.093-.863.359-1.3,1.628-1.17,3.774-.928,5.716.26,2.09-.765,3.783-1.1,5.827-.231,1.427.034,2.714-.261,4.1a8.776,8.776,0,0,0-.028,4.744,5.491,5.491,0,0,1,.48,2.106,8.848,8.848,0,0,1-1.048,2.416c-.9,2.181.342,4.923-.9,6.931-.129.209-.322.422-.566.409-.3-.015-.462-.34-.564-.618-1.4-3.821-2.8-8.133-2.234-12.249.123-.9.354-1.788.415-2.7a14.538,14.538,0,0,0-.117-2.5q-.307-2.941-.616-5.883a2.108,2.108,0,0,0-.291-1.03.726.726,0,0,0-.943-.255.969.969,0,0,0-.33.668c-.343,1.988.414,4.02.235,6.03a32.853,32.853,0,0,1-.707,3.317c-.475,2.451.3,5.643.762,8.077.332,1.731.487,3.509.734,5.254.134.941.533,1.853.633,2.778.077.713-.516,3.064-1.21,1.4a4.767,4.767,0,0,1-.357-2.163,6.165,6.165,0,0,0,.054-1.166,1.126,1.126,0,0,0-.607-.935c-.369-.153-.817-.012-1.173-.193-.413-.21-.517-.741-.574-1.2a8.822,8.822,0,0,1,.146-4.139,7.621,7.621,0,0,0,.448-1.245c.19-1.056-.659-1.52-.851-2.425-.181-.853.479-1.593.585-2.4a1.511,1.511,0,0,0-.848-1.526,1.188,1.188,0,0,1-.479-.275.834.834,0,0,1-.016-.761,14.175,14.175,0,0,1,.568-1.476,1.283,1.283,0,0,0-2.113-1.41,2.542,2.542,0,0,0-.42,1.874A75.633,75.633,0,0,0,339.46,254.1a28.2,28.2,0,0,0,2.714,7.772c.61,1.13,1.5,2.146,2.036,3.283.776,1.64,1.292,3.941,3.687,3.453a6.025,6.025,0,0,0,3.232-2.406c1.284-1.592,2.45-3.745,1.564-5.588a13.5,13.5,0,0,1-.8-1.463,3.856,3.856,0,0,1-.124-1.368,28.1,28.1,0,0,1,.6-4.81c.388-1.818,1.163-3.973.617-5.836-.465-1.584-1-2.834-.582-4.581.429-1.788,1.808-3.344,1.759-5.182C354.12,235.787,353.011,234.4,352.873,232.824Z" fill="#006149"/>
        <g id="Group_35" data-name="Group 35">
          <path id="Path_101" data-name="Path 101" d="M353.027,269.791a9.513,9.513,0,0,0,3.324-8.115c-.187-1.448-.672-3.135.317-4.21.331-.36.792-.589,1.1-.971.746-.929.306-2.3-.225-3.368-.94-1.887-1.458-3.743-.158-5.536,1-1.384,2.7-2.353,3.065-4.141.484-2.392-1.948-4.981-.735-7.1a13.839,13.839,0,0,1,1.316-1.527,3.679,3.679,0,0,0,.547-3.487,3.365,3.365,0,0,0-1.763-1.962c-1.137-.344-1.129.191-1.512,1.288a16.149,16.149,0,0,0-.876,6.25c.19,3.192-1.07,6.729-1.581,9.885-.278,1.713-.605,3.419-.948,5.12a32.394,32.394,0,0,1-.68,3.168c-.157.51-.932,1.523-.893,1.989-.351-4.116,1.735-8.031,2.264-12.128a1.774,1.774,0,0,0-.1-1.074,6.788,6.788,0,0,0-.547-.658c-.833-1.157.267-3.851.44-5.208.3-2.342.4-4.722.574-7.076a43.552,43.552,0,0,0,.274-8.477.475.475,0,0,0-.112-.3.327.327,0,0,0-.443.06.893.893,0,0,0-.172.459c-.666,4.167-.848,8.426-1.5,12.624-.711,4.568-1.222,9.143-1.735,13.734-.5,4.431-1.58,8.828-2.1,13.278-.114.972-.446,2.191-1.417,2.311-.863.106-1.52-.824-1.628-1.686-.29-2.312,1.7-4.21,2.568-6.374a8.87,8.87,0,0,0,.312-5.025c-.346-1.7-1.006-3.642.02-5.046.413-.565,1.056-.951,1.382-1.569a3.536,3.536,0,0,0,.3-1.52,34.166,34.166,0,0,0-.15-4.9,24.384,24.384,0,0,1-.555-4.359c.237-2.771,1.007-5.48.855-8.3-.131-2.436-2.064,1.346-2.12,2.329-.073,1.288.15,2.588-.029,3.866-.2,1.443-.915,2.849-.686,4.288a1.2,1.2,0,0,1,.015.564c-.059.181-.276.325-.441.231a.437.437,0,0,1-.166-.231c-.961-2.44,1.326-6.779-.7-8.806-1.6,1.985-1.216,6.527-1.107,8.953.278,6.2,1.332,12.5.147,18.67a2.029,2.029,0,0,1-.541,1.205,1.477,1.477,0,0,1-1.982-.359,5.1,5.1,0,0,1-.834-2.059,3.265,3.265,0,0,0-1.075-1.915,3.042,3.042,0,0,0-.654,2.51,15.538,15.538,0,0,0,.739,2.575,14.41,14.41,0,0,1,.67,4.54c-.023,1.61-.306,3.286.281,4.786.984,2.516,5.332,4.893,7.878,3.87A6.883,6.883,0,0,0,353.027,269.791Z" fill="#40a876"/>
        </g>
        <path id="Path_102" data-name="Path 102" d="M338.169,262.117l21.007.356-5.53,17.922-12,.166Z" fill="#0e398a"/>
      </g>
      <g id="Group_37" data-name="Group 37">
        <rect id="Rectangle_8" data-name="Rectangle 8" width="416.266" height="4.269" transform="translate(34.263 280.079)" fill="#fff"/>
        <rect id="Rectangle_9" data-name="Rectangle 9" width="4.052" height="111.441" transform="translate(407.978 282.246)" fill="#fff"/>
        <path id="Path_103" data-name="Path 103" d="M370.672,392.791h-4.052l26.162-110.544h4.052Z" fill="#fff"/>
        <path id="Path_104" data-name="Path 104" d="M110.128,392.791h4.052L88.018,282.246H83.965Z" fill="#fff"/>
        <rect id="Rectangle_10" data-name="Rectangle 10" width="4.052" height="111.441" transform="translate(69.604 282.246)" fill="#fff"/>
      </g>
      <g id="Group_38" data-name="Group 38">
        <path id="Path_105" data-name="Path 105" d="M67.436,370.832q-.123.973-.212,1.957c-.206,2.308-.621,4.966-2.617,6.143-1.789,1.055-4.217.361-5.67-1.123a10.755,10.755,0,0,1-2.507-5.6A29.689,29.689,0,0,1,57.7,356.41c1.145-3.116,4.4-7.854,4.033-11.218-.393-3.55-4.575-5.613-4.738-9.415-.18-4.227,3.627-7.8,5.813-11.038a7.646,7.646,0,0,0,1.524-3.89c.177-4.967-7.013-7.484-7.5-12.431-.6-6.107,7.843-8.559,7.926-14.384.045-3.143-2.737-6.423-2.462-10.162a16.467,16.467,0,0,1,4.264-10.034c1-1.07,2.446-2.069,3.839-1.607s1.958,2.156,1.938,3.623-.422,2.946-.125,4.383c.894,4.308,3.859,5.859,3.483,10.761a22.315,22.315,0,0,1-2.42,8.1c-4.434,8.734-3.106,7.714,2.192,15.265a12.237,12.237,0,0,1,0,13.686c-1.618,2.308-4.144,4.252-4.427,7.056a7.794,7.794,0,0,0,.762,3.767,22.278,22.278,0,0,1,1.611,4.34,14.5,14.5,0,0,1-.772,6.4C70.674,356.755,68.354,363.576,67.436,370.832Z" fill="#138f70"/>
        <path id="Path_106" data-name="Path 106" d="M49.807,364.018q-.593-4.084-1.187-8.169a23.126,23.126,0,0,0-1.788-7.022c-.96-1.936-2.451-3.579-3.329-5.554-1.9-4.278-.624-9.237.789-13.7.98-3.1,2.021-6.426,1.059-9.53a22.84,22.84,0,0,0-2.373-4.509c-1.72-2.973-4.92-10.06-2.908-13.575,3.425-5.983,6.715-.286,6.956,3.811a16.6,16.6,0,0,0,4.127,9.969c1.4,1.572,3.139,2.942,3.909,4.9,2.037,5.175-3.743,10.444-3.285,15.987.365,4.413,4.5,7.516,6.154,11.624,3.062,7.589,5.193,18.631,3.076,26.656a6.034,6.034,0,0,1-2.127,3.642c-1.907,1.276-4.656.262-6.042-1.567s-1.758-4.207-2.088-6.477Q50.279,367.26,49.807,364.018Z" fill="#47ba9b"/>
        <path id="Path_107" data-name="Path 107" d="M62.2,400.576h0a14.851,14.851,0,0,1-14.741-13.045l-2.287-18.659H78.895l-1.929,18.4A14.852,14.852,0,0,1,62.2,400.576Z" fill="#2155b5"/>
        <path id="Path_108" data-name="Path 108" d="M67.931,361.418c.291-2.822.027-5.864,1.5-8.288,1.952-3.209,6.564-4.608,7.377-8.276.794-3.589-2.644-7.442-1.044-10.751,1.341-2.774,5.473-3.3,6.743-6.106,1.119-2.476-.567-5.238-1.01-7.918a8.826,8.826,0,0,1,3.7-8.565,3.091,3.091,0,0,1,1.824-.644c1.757.092,2.421,2.5,1.805,4.151s-1.96,2.957-2.5,4.63c-1.462,4.506,3.135,10.3-.16,13.7-.979,1.012-2.431,1.437-3.458,2.4-3.419,3.2-.024,9.28-2.052,13.5-1.358,2.829-4.834,4.118-6.314,6.884-.957,1.79-.931,3.917-1.252,5.921a9.7,9.7,0,0,1-2.826,5.8c-1.729,1.536-4.174,2.244-4.6-.447C65.448,366.013,67.752,363.144,67.931,361.418Z" fill="#47ba9b"/>
        <path id="Path_109" data-name="Path 109" d="M49.843,380.874c3.8-.884,7.605-1.714,11.32-2.74q8.571-2.367,17.079-4.947l.209-.081.444-4.234H45.168l1.562,12.746q1.552-.383,3.113-.744" fill="url(#linear-gradient-4)"/>
        <path id="Path_110" data-name="Path 110" d="M80.919,370.9h-37.1L41.795,362.8H82.268Z" fill="#2155b5"/>
      </g>
      <g id="Group_40" data-name="Group 40">
        <path id="Path_111" data-name="Path 111" d="M418.772,356.285c-1.122-4.351-2.627-8.907-1.4-13.231.815-2.882,2.779-5.337,3.579-8.224,1.3-4.7-.654-9.752.2-14.55.814-4.563,4.039-8.29,5.776-12.588,2.286-5.657,1.908-12.071,3.845-17.857a8.717,8.717,0,0,1,3.218-4.784c1.656-1.05,4.17-.93,5.268.694a5.336,5.336,0,0,1,.638,3.238c-.492,12.028-10.242,22.833-8.46,34.738.507,3.388,1.949,6.8,1.1,10.123-.844,3.288-3.747,5.636-5.146,8.729-1.53,3.383-1.122,7.288-.626,10.967s1.031,7.539-.285,11.011c-.684,1.8-6.317,8.017-8.291,4.788-.234-.383,1.495-4.924,1.547-5.782A23.761,23.761,0,0,0,418.772,356.285Z" fill="#138f70"/>
        <g id="Group_39" data-name="Group 39">
          <path id="Path_112" data-name="Path 112" d="M414.3,361.528c0-.093,0-.187-.009-.28-.145-2.866-2.146-5.292-4.3-7.187-3.572-3.142-6.964-11.315-7.59-16.069-.43-3.269.127-6.593-.122-9.88-.385-5.081-2.655-9.8-4.172-14.659a50.6,50.6,0,0,1-2.28-13.856c-.044-1.856.193-4.042,1.79-4.99a3.685,3.685,0,0,1,4.208.708,8.576,8.576,0,0,1,2.16,3.967c2.189,7.263,1.364,15.324,4.5,22.23,1.433,3.151,3.67,6,4.313,9.4.7,3.7-.59,7.6.332,11.247,1.543,6.114,7.522,9.581,8.011,16.2a10.579,10.579,0,0,0,.264,2.216,11.634,11.634,0,0,0,1.742,2.954c1.641,2.491,4.256,7.966,1.591,10.147-4.865,3.981-10.58-4.449-10.67-8.6C414.044,363.889,414.312,362.711,414.3,361.528Z" fill="#47ba9b"/>
          <path id="Path_113" data-name="Path 113" d="M429.533,353.2a15.618,15.618,0,0,1,1.974-4.721c1.833-2.59,5.23-4.074,6.193-7.1a21.279,21.279,0,0,0,.47-3.9,8.423,8.423,0,0,1,3.381-5.913,6.26,6.26,0,0,1,6.629-.367c2.591,1.57,3.381,4.906,3.871,7.9,1.525,9.291,2.3,19.362-2.22,27.622a2.519,2.519,0,0,1-.81.995c-1.053.646-2.357-.406-2.935-1.5-2.783-5.252.693-12.2-2.051-17.474-.217-.417-.544-.861-1.014-.882a1.284,1.284,0,0,0-.946.524c-1.393,1.564-1.563,3.938-2.944,5.513-1.245,1.422-3.265,1.952-4.559,3.328a9.65,9.65,0,0,0-1.932,4.265c-.734,2.75-1.529,13.779-5.6,8.994C423.493,366.3,428.256,357.537,429.533,353.2Z" fill="#47ba9b"/>
          <path id="Path_114" data-name="Path 114" d="M423.119,402.036h-.568a15.673,15.673,0,0,1-15.556-13.766l-2.5-20.37h36.315L438.706,388A15.672,15.672,0,0,1,423.119,402.036Z" fill="#2155b5"/>
          <path id="Path_115" data-name="Path 115" d="M421.721,377.872q9.227-2.549,18.389-5.327l.225-.086.478-4.559H404.5l1.682,13.723C411.368,380.345,416.626,379.279,421.721,377.872Z" fill="url(#linear-gradient-5)"/>
          <path id="Path_116" data-name="Path 116" d="M442.992,370.079H403.046l-2.179-8.716h43.578Z" fill="#2155b5"/>
        </g>
      </g>
      <g id="Group_45" data-name="Group 45">
        <g id="Group_44" data-name="Group 44">
          <g id="Group_43" data-name="Group 43" clip-path="url(#clip-path-2)">
            <g id="Group_42" data-name="Group 42">
              <g id="Group_41" data-name="Group 41">
                <path id="Path_117" data-name="Path 117" d="M363.253,370.836a4.593,4.593,0,0,1,1.916-3.552c1.692-.991,3.949-.164,5.918-.532,5.531-1.034,5.488-8.755,5.376-13.007q-.108-4.057-.364-8.11a4.486,4.486,0,0,0-.475-2.075,3.062,3.062,0,0,0-3.443-1.072c-2.421.691-3.78,3.306-4.209,5.787s-.219,5.059-.87,7.491a4.388,4.388,0,0,1-.538,1.3,2.986,2.986,0,0,1-1.21,1.033,2.363,2.363,0,0,1-2.248-.031c-.764-.49-.637-1.107-.633-1.852a22.838,22.838,0,0,0-.228-2.711c-.235-2.033-.438-4.07-.629-6.108-.376-4.005-.7-8.015-1.12-12.017a13.722,13.722,0,0,0-1.315-5.365c-3.962-7.113-10-.865-10.553,4.322-1.261,11.8,4.884,22.926,4.369,34.638a3.516,3.516,0,0,1-.272,1.45c-.925,1.843-3.881,1.521-5.248.457-2.142-1.667-1.375-5.278-1.377-7.45,0-1.774-.57-3.777-2.285-4.608-1.945-.942-4.483.188-5.591,1.926-1.431,2.243-1.272,6.085-1.057,8.581a10.536,10.536,0,0,0,1.642,5.161,6.5,6.5,0,0,0,4.8,2.845c1.144.069,2.449-.174,3.317.511,1.057.835.677,2.361.719,3.636.083,2.534,2.241,4.7,4.759,5.762a24.52,24.52,0,0,0,8.128,1.407c2.348-3.767,2.5-8.11,2.627-12.321A44.946,44.946,0,0,1,363.253,370.836Z" fill="#138f70"/>
                <path id="Path_118" data-name="Path 118" d="M355.8,327.25c2.819,19.569,5.25,39.488,1.779,58.969" fill="none" stroke="#47ba9b" stroke-miterlimit="10" stroke-width="0.5"/>
                <path id="Path_119" data-name="Path 119" d="M353.092,327.117a50.982,50.982,0,0,0-1.578,11.035c.034,7.085,3.02,13.862,4.192,20.865,1.31,7.825.34,15.8-.632,23.665" fill="none" stroke="#47ba9b" stroke-miterlimit="10" stroke-width="0.5"/>
                <path id="Path_120" data-name="Path 120" d="M359.207,361.66c3.406-.486,7.476-.978,9.629-3.708a4,4,0,0,0,.717-1.275c.57-1.852.285-3.95.276-5.853-.008-1.824.035-5.024.035-7.39" fill="none" stroke="#47ba9b" stroke-miterlimit="10" stroke-width="0.5"/>
                <path id="Path_121" data-name="Path 121" d="M356.131,374.657c-3.061.5-6.448.946-9.087-.556a7.566,7.566,0,0,1-3.289-4.131,15.223,15.223,0,0,1-.678-5.157,34.541,34.541,0,0,1,.484-5.659" fill="none" stroke="#47ba9b" stroke-miterlimit="10" stroke-width="0.5"/>
                <path id="Path_122" data-name="Path 122" d="M359.244,364.789a55.572,55.572,0,0,0,11.354-2.933,5.834,5.834,0,0,0,2.116-1.168,4.991,4.991,0,0,0,1.121-2.19c.536-1.769.762-13.881.17-16.839" fill="none" stroke="#47ba9b" stroke-miterlimit="10" stroke-width="0.5"/>
              </g>
            </g>
          </g>
        </g>
        <path id="Path_124" data-name="Path 124" d="M344.739,382.169l22.924-.488-1.25,10.222a10.1,10.1,0,0,1-10.026,8.873h0a10.1,10.1,0,0,1-9.959-8.442Z" fill="#fad100"/>
      </g>
      <g id="Group_46" data-name="Group 46">
        <circle id="Ellipse_2" data-name="Ellipse 2" cx="14.183" cy="14.183" r="14.183" transform="translate(287.623 146.491) rotate(-45)" fill="#80b2ba"/>
        <path id="Path_125" data-name="Path 125" d="M307.006,137.711c0,.676.675,10.806.675,10.806l8.105-5.4" fill="none" stroke="#fff" stroke-miterlimit="10" stroke-width="1"/>
      </g>
      <g id="Group_48" data-name="Group 48">
        <path id="Path_126" data-name="Path 126" d="M262.472,268.063l7.574-4.631h36.838a6.841,6.841,0,0,0,6.822-6.86v-5.964a6.84,6.84,0,0,0-6.822-6.859H269.293a6.84,6.84,0,0,0-6.821,6.859Z" fill="none" stroke="#fff" stroke-miterlimit="10" stroke-width="1"/>
        <g id="Group_47" data-name="Group 47">
          <path id="Path_127" data-name="Path 127" d="M282.332,253.59a1.439,1.439,0,1,1-1.439-1.447A1.443,1.443,0,0,1,282.332,253.59Z" fill="#fff"/>
          <path id="Path_128" data-name="Path 128" d="M290.967,253.59a1.439,1.439,0,1,1-1.439-1.447A1.443,1.443,0,0,1,290.967,253.59Z" fill="#fff"/>
          <path id="Path_129" data-name="Path 129" d="M299.6,253.59a1.439,1.439,0,1,1-1.439-1.447A1.443,1.443,0,0,1,299.6,253.59Z" fill="#fff"/>
        </g>
      </g>
      <g id="Group_50" data-name="Group 50">
        <path id="Path_130" data-name="Path 130" d="M356.69,171.819l7.574-4.631H401.1a6.841,6.841,0,0,0,6.822-6.86v-5.964a6.841,6.841,0,0,0-6.822-6.86H363.511a6.841,6.841,0,0,0-6.821,6.86Z" fill="none" stroke="#fff" stroke-miterlimit="10" stroke-width="1"/>
        <g id="Group_49" data-name="Group 49">
          <path id="Path_131" data-name="Path 131" d="M376.55,157.346a1.439,1.439,0,1,1-1.439-1.447A1.443,1.443,0,0,1,376.55,157.346Z" fill="#fff"/>
          <path id="Path_132" data-name="Path 132" d="M385.185,157.346a1.439,1.439,0,1,1-1.439-1.447A1.443,1.443,0,0,1,385.185,157.346Z" fill="#fff"/>
          <path id="Path_133" data-name="Path 133" d="M393.82,157.346a1.439,1.439,0,1,1-1.439-1.447A1.443,1.443,0,0,1,393.82,157.346Z" fill="#fff"/>
        </g>
      </g>
      <g id="Group_52" data-name="Group 52">
        <path id="Path_134" data-name="Path 134" d="M272.169,200.185l-7.574-4.631H227.756a6.84,6.84,0,0,1-6.821-6.86v-5.963a6.84,6.84,0,0,1,6.821-6.86h37.592a6.84,6.84,0,0,1,6.821,6.86Z" fill="none" stroke="#fff" stroke-miterlimit="10" stroke-width="1"/>
        <g id="Group_51" data-name="Group 51">
          <path id="Path_135" data-name="Path 135" d="M252.308,185.713a1.44,1.44,0,1,0,1.44-1.448A1.444,1.444,0,0,0,252.308,185.713Z" fill="#fff"/>
          <path id="Path_136" data-name="Path 136" d="M243.674,185.713a1.439,1.439,0,1,0,1.439-1.448A1.443,1.443,0,0,0,243.674,185.713Z" fill="#fff"/>
          <path id="Path_137" data-name="Path 137" d="M235.039,185.713a1.439,1.439,0,1,0,1.439-1.448A1.443,1.443,0,0,0,235.039,185.713Z" fill="#fff"/>
        </g>
      </g>
      <g id="Group_53" data-name="Group 53">
        <path id="Path_138" data-name="Path 138" d="M112.007,132.857a58.439,58.439,0,0,1,2.637,11.425" fill="none" stroke="#fff" stroke-miterlimit="10" stroke-width="1"/>
        <path id="Path_139" data-name="Path 139" d="M122.5,129.333l-2.193,12.744" fill="none" stroke="#fff" stroke-miterlimit="10" stroke-width="1"/>
        <path id="Path_140" data-name="Path 140" d="M133.546,135.5a18.438,18.438,0,0,0-3.975,5.7" fill="none" stroke="#fff" stroke-miterlimit="10" stroke-width="1"/>
      </g>
    </g>
  </g>
</svg>
