<svg xmlns="http://www.w3.org/2000/svg" width="165.915" height="188.94" viewBox="0 0 165.915 188.94">
  <g id="Group_91" data-name="Group 91" transform="translate(-1117.083 -341.31)">
    <g id="Group_88" data-name="Group 88">
      <g id="Group_83" data-name="Group 83" transform="translate(620 96)">
        <g id="Group_80" data-name="Group 80">
          <g id="Group_78" data-name="Group 78">
            <path id="Path_143" data-name="Path 143" d="M600.477,330.822c-3.7,1.491-9.234,3.327-13.8,3.114a24.74,24.74,0,0,1-9.224-2.059,21.494,21.494,0,0,0,1.222-1.9c.165-.274.31-.547.455-.821a13.667,13.667,0,0,0,.88-2.13,40.184,40.184,0,0,0,1.356-10.943l15.08-.173.542.354a29.587,29.587,0,0,0,1.438,10.752A11.023,11.023,0,0,0,600.477,330.822Z" fill="#fabac2"/>
            <path id="Path_144" data-name="Path 144" d="M597.291,316.385c-1.563,2.789-6.773,9.265-17.28,10.644a40.184,40.184,0,0,0,1.356-10.943Z" fill="#fa7384"/>
            <g id="Group_76" data-name="Group 76">
              <g id="Group_75" data-name="Group 75">
                <g id="Group_69" data-name="Group 69">
                  <path id="Path_145" data-name="Path 145" d="M620.136,292.87c-.138,3.082-4.45,5.287-6.962,5.286a34.89,34.89,0,0,0,1.127-7.393c.034-.768.044-1.536.018-2.3a4.535,4.535,0,0,1,1.518-.195A4.446,4.446,0,0,1,620.136,292.87Z" fill="#fabac2"/>
                </g>
                <g id="Group_73" data-name="Group 73">
                  <path id="Path_146" data-name="Path 146" d="M614.551,290.752c-.593,11.328-6.623,22.967-17.762,27.089-13.512,4.994-27.353-5.71-30.935-18.263a35.3,35.3,0,0,1-1.272-10.373,40.432,40.432,0,0,1,2.194-12.449c.17-.477.339-.944.53-1.412a28.589,28.589,0,0,1,8.966-12.418,23.019,23.019,0,0,1,14.688-4.807c9.613.415,17.667,8.545,21.419,18.637a36.618,36.618,0,0,1,1.854,7.206A34.355,34.355,0,0,1,614.551,290.752Z" fill="#fabac2"/>
                  <g id="Group_70" data-name="Group 70">
                    <path id="Path_147" data-name="Path 147" d="M579.5,287.267c-.052,0-.1,0-.155,0a3.427,3.427,0,0,0-2.377,1.087,3.3,3.3,0,0,0-.9,2.417.488.488,0,0,0,.541.484.512.512,0,0,0,.493-.53,2.31,2.31,0,0,1,.627-1.687,2.4,2.4,0,0,1,1.66-.757,2.36,2.36,0,0,1,1.722.613,2.3,2.3,0,0,1,.774,1.626.52.52,0,0,0,.54.485.512.512,0,0,0,.495-.528,3.308,3.308,0,0,0-1.11-2.331A3.442,3.442,0,0,0,579.5,287.267Z" fill="#373c57"/>
                    <path id="Path_148" data-name="Path 148" d="M596.7,286.53c-.052,0-.1,0-.155,0a3.392,3.392,0,0,0-3.276,3.5.525.525,0,0,0,.54.485.512.512,0,0,0,.495-.529,2.367,2.367,0,0,1,2.287-2.445,2.408,2.408,0,0,1,1.722.613,2.3,2.3,0,0,1,.774,1.627.487.487,0,0,0,.541.485.513.513,0,0,0,.494-.53,3.31,3.31,0,0,0-1.11-2.33A3.442,3.442,0,0,0,596.7,286.53Z" fill="#373c57"/>
                  </g>
                  <g id="Group_71" data-name="Group 71">
                    <path id="Path_149" data-name="Path 149" d="M574.351,282.52s6.178-3.663,6.686-3.228,1.012.974.467,1.364-5.944,3.156-6.361,3.035S574.415,283.453,574.351,282.52Z" fill="#373c57"/>
                    <path id="Path_150" data-name="Path 150" d="M602.06,283.6s-5.828-4.178-6.373-3.788-1.094.884-.586,1.319,5.64,3.653,6.065,3.568S601.913,284.528,602.06,283.6Z" fill="#373c57"/>
                  </g>
                  <path id="Path_151" data-name="Path 151" d="M588.144,289.486c1.547,0,2.851,8.609,2.153,9.269s-3.722.667-4.537.012S586.6,289.488,588.144,289.486Z" fill="#fa7a8a"/>
                  <path id="Path_152" data-name="Path 152" d="M583.052,301.12a32.5,32.5,0,0,0,5.379.851,15.886,15.886,0,0,0,5.03-.818s-1.344,4.112-5.17,3.948S583.052,301.12,583.052,301.12Z" fill="#fff"/>
                  <g id="Group_72" data-name="Group 72">
                    <path id="Path_155" data-name="Path 155" d="M584.377,298.837a4.755,4.755,0,1,1-4.754-4.658A4.707,4.707,0,0,1,584.377,298.837Z" fill="#629bf5" opacity="0.4"/>
                    <path id="Path_156" data-name="Path 156" d="M601.909,298.837a4.754,4.754,0,1,1-4.753-4.658A4.706,4.706,0,0,1,601.909,298.837Z" fill="#629bf5" opacity="0.4"/>
                    <path id="Path_157" data-name="Path 157" d="M584.377,298.837a4.755,4.755,0,1,1-4.754-4.658A4.707,4.707,0,0,1,584.377,298.837Z" fill="none" stroke="#603e64" stroke-miterlimit="10" stroke-width="0.8"/>
                    <path id="Path_158" data-name="Path 158" d="M601.909,298.837a4.754,4.754,0,1,1-4.753-4.658A4.706,4.706,0,0,1,601.909,298.837Z" fill="none" stroke="#603e64" stroke-miterlimit="10" stroke-width="0.8"/>
                    <path id="Path_159" data-name="Path 159" d="M583.821,296.841s4.877-2.238,8.951,0" fill="none" stroke="#603e64" stroke-miterlimit="10" stroke-width="0.8"/>
                    <line id="Line_1" data-name="Line 1" x2="10.865" y2="13.488" transform="translate(564.004 285.349)" fill="none" stroke="#603e64" stroke-miterlimit="10" stroke-width="0.8"/>
                    <line id="Line_2" data-name="Line 2" x1="13.458" y2="11.129" transform="translate(601.909 287.708)" fill="none" stroke="#603e64" stroke-miterlimit="10" stroke-width="0.8"/>
                  </g>
                </g>
                <g id="Group_74" data-name="Group 74">
                  <path id="Path_160" data-name="Path 160" d="M565.142,296.085c-2.5-.191-6.638-2.757-6.5-5.863a4.512,4.512,0,0,1,6.223-3.874c-.094.753-.152,1.508-.186,2.276A34.826,34.826,0,0,0,565.142,296.085Z" fill="#fabac2"/>
                </g>
              </g>
              <path id="Path_161" data-name="Path 161" d="M617.873,300.994a1.194,1.194,0,0,1-.921.588,1.909,1.909,0,0,1-.238.02,1.532,1.532,0,0,1-1.108-.446c-.817-.791-.807-2.454-.766-3.174a9.948,9.948,0,0,0,1.046-.335.583.583,0,0,1,.01.132c-.093.781-.052,2.19.435,2.657a.517.517,0,0,0,.5.142.179.179,0,0,0,.145-.091c.435-.761-.487-3.611-1.284-5.406a.511.511,0,0,1,.269-.67.54.54,0,0,1,.684.264C616.993,295.476,618.722,299.523,617.873,300.994Z" fill="#442760"/>
              <path id="Path_162" data-name="Path 162" d="M575.488,276.279c-1.357,6.769-10.863,13.061-10.863,13.061-.011-.041-.032-.093-.043-.135a40.432,40.432,0,0,1,2.194-12.449c.17-.477.339-.944.53-1.412C569.447,274.14,576.643,270.5,575.488,276.279Z" fill="#373c57"/>
              <path id="Path_163" data-name="Path 163" d="M603.785,276.279c1.357,6.769,10.863,13.061,10.863,13.061.011-.041.032-.093.042-.135a40.4,40.4,0,0,0-2.193-12.449c-.17-.477-.339-.944-.53-1.412C609.826,274.14,602.63,270.5,603.785,276.279Z" fill="#373c57"/>
            </g>
            <g id="Group_77" data-name="Group 77">
              <path id="Path_164" data-name="Path 164" d="M615.376,275.6h-51.6a33.154,33.154,0,0,1,10.744-15.648,26.043,26.043,0,0,1,16.619-5.439C602.018,254.985,611.131,264.183,615.376,275.6Z" fill="#5d5d87"/>
              <path id="Path_165" data-name="Path 165" d="M595.342,250.957a5.766,5.766,0,1,1-5.765-5.647A5.707,5.707,0,0,1,595.342,250.957Z" fill="#7070a3"/>
              <rect id="Rectangle_7" data-name="Rectangle 7" width="57.225" height="5.372" rx="1.711" transform="translate(560.965 271.993)" fill="#7070a3"/>
              <path id="Path_166" data-name="Path 166" d="M570.413,273.106l-.965-.431c.292-.627,7.274-15.386,17.912-17.471l.207,1.018C577.463,258.2,570.482,272.957,570.413,273.106Z" fill="#7070a3"/>
              <path id="Path_167" data-name="Path 167" d="M609.94,273.7c-5.165-12.005-19.208-17.93-19.349-17.988l.412-.957c.146.06,14.583,6.152,19.914,18.542Z" fill="#7070a3"/>
              <rect id="Rectangle_8" data-name="Rectangle 8" width="1.06" height="20.08" transform="translate(588.786 255.229)" fill="#7070a3"/>
            </g>
          </g>
          <g id="Group_79" data-name="Group 79">
            <path id="Path_168" data-name="Path 168" d="M634.245,362.749l-87.256.355-.528.537a40.707,40.707,0,0,1-13.292-7.464c-16.056-12.982-27.557-36.724-31.325-45.233-.88-1.978-1.336-3.134-1.336-3.134l5.062-3.367s.042,1.045,2.081,3.742c2.485,3.3,7.961,9.057,19.99,18.408a49.438,49.438,0,0,0,43.292,9.168l.248-.061,6.273-4.127a24.724,24.724,0,0,0,9.224,2.058c4.565.213,10.1-1.622,13.8-3.113a22.457,22.457,0,0,0,5.455,4.625,77.327,77.327,0,0,0,7.827,4.269c1.966.964,4.1,1.958,6.376,3.023.611.284,1.2.6,1.77.933,5.559,3.255,8.7,8.57,10.425,12.809A31.912,31.912,0,0,1,634.245,362.749Z" fill="#91b5e6"/>
            <path id="Path_169" data-name="Path 169" d="M505.57,304.442s3.348-6.342,2.8-6.962c-1.028-1.175-2.985,2.127-2.985,2.127s3.166-10.28,1.628-10.368-2.985,6.38-2.985,6.38-.633-6.292-1.9-6.38-.392,7.857-.392,7.857-1.327-1.211-2.051-.768a1.234,1.234,0,0,0-.452,1.359s-1.236-.945-2.05-.414,3.319,10.536,3.319,10.536Z" fill="#fabac2"/>
            <path id="Path_170" data-name="Path 170" d="M605.932,335.141a50.828,50.828,0,0,1-19.554,5.284c-7.971.314-12.744-2.231-15.445-4.665l.248-.061,6.273-4.128a24.719,24.719,0,0,0,9.224,2.059c4.565.213,10.1-1.623,13.8-3.114A22.456,22.456,0,0,0,605.932,335.141Z" fill="#639ae6"/>
            <path id="Path_171" data-name="Path 171" d="M507.651,308.184l-5.807,2.759c-.88-1.978-1.336-3.134-1.336-3.134l5.062-3.367S505.612,305.487,507.651,308.184Z" fill="#639ae6"/>
          </g>
        </g>
        <g id="Group_82" data-name="Group 82">
          <path id="Path_172" data-name="Path 172" d="M634.3,362.782l-87.36.342-.515.517a39.806,39.806,0,0,1-12.953-7.189h98.962A30.449,30.449,0,0,1,634.3,362.782Z" opacity="0.3" style="mix-blend-mode: soft-light;isolation: isolate"/>
          <rect id="Rectangle_9" data-name="Rectangle 9" width="134.286" height="71.467" transform="translate(517.427 362.283)" fill="#fff" stroke="#616161" stroke-width="1"/>
          <g id="Group_81" data-name="Group 81">
            <path id="Path_173" data-name="Path 173" d="M657.955,388.467s-9.235-4.3-10.325-3.271,4.489,4.233,4.489,4.233-5.13-1.218-5.515.064,5.2,3.4,5.2,3.4-5.644-1.154-5.452.321,6.285,2.694,6.285,2.694-5.643-.449-5.643,1.026,10.389,2.822,11.159,1.667-.77-1.86-.77-2.437,1.315-.353,1.636-1.122-1.251-1.411-1.251-1.8,1.283-.641,1.411-1.283-1.39-1.133-1.347-1.282,1.261-.417,1.475-.93S657.955,388.467,657.955,388.467Z" fill="#fabac2"/>
            <path id="Path_174" data-name="Path 174" d="M654.443,386.864s1.021-1.589,1.454-2.245c.706-1.069,1.561-1.432,1.475-1.988s-2.309-1.026-3.121.128-2.074,3.143-2.074,3.143Z" fill="#fabac2"/>
          </g>
        </g>
      </g>
      <text id="Everyday_Progress_" data-name="Everyday Progress " transform="translate(1167.998 469.895)" fill="#707070" font-size="14" font-family="SegoePrint-Bold, Segoe Print" font-weight="700"><tspan x="0" y="17">Everyday </tspan><tspan x="0" y="41">Progress </tspan></text>
    </g>
  </g>
</svg>
