<svg xmlns="http://www.w3.org/2000/svg" width="146.744" height="170.728" viewBox="0 0 146.744 170.728">
  <g id="Group_86" data-name="Group 86" transform="translate(-510.254 -158.295)">
    <g id="Group_14" data-name="Group 14" transform="translate(403 116)">
      <g id="Group_9" data-name="Group 9">
        <path id="Path_1" data-name="Path 1" d="M203.256,101.472a11.016,11.016,0,0,1-2.108-2.085c-.8-3.835-1.558-7.872-2.03-11.462-1.45-11.043-.446-23.87-9.927-34.02-9.011-9.647-28.592-10.722-34.341-2.569l0-.022c-.026-.426-.075-.855-.084-1.283a15.968,15.968,0,0,1,.12-2.567,12.6,12.6,0,0,1,.594-2.506,8.046,8.046,0,0,1,1.2-2.26l.018-.023a.234.234,0,0,0-.345-.316,8.614,8.614,0,0,0-1.634,2.262,13.633,13.633,0,0,0-1.005,2.6,16.426,16.426,0,0,0-.454,2.371,12.627,12.627,0,0,1-.643-1.441,11.293,11.293,0,0,1-.576-2.237,7.262,7.262,0,0,1,0-2.294l.006-.029a.234.234,0,0,0-.451-.122,7.753,7.753,0,0,0-.392,2.5,12.259,12.259,0,0,0,.254,2.51,15.613,15.613,0,0,0,.717,2.428c.1.272.222.536.34.8-1.418-.544-3.838-.752-7.379,1.308-6.135,3.569-6.581,13.608-6.581,20.412,0,3.646,0,9.47-.347,15.173a12.209,12.209,0,0,1-2.278,3.394,5.908,5.908,0,0,0-1.094,6.575.479.479,0,0,0,.428.265.467.467,0,0,0,.213-.051.478.478,0,0,0,.216-.641,4.856,4.856,0,0,1,.914-5.471,11.142,11.142,0,0,0,1.445-1.814,51.9,51.9,0,0,1-1.728,10.789c-2.231,7.027-4.35,10.708-3.681,11.6s5.466,5.131,10.931,5.131,6.692-2.789,12.381-2.12,11.488,3.57,16.731,3.124,7.138-1.785,10.484-1.674,5.466,3.123,9.7,2.343,4.35-3.681,7.585-3.9,4.238-.781,4.238-1.339c0-.346-1.591-6.37-3.144-13.531a10.394,10.394,0,0,0,1.142.972,4.856,4.856,0,0,1,1.755,5.262.481.481,0,0,0,.313.6.489.489,0,0,0,.144.022.478.478,0,0,0,.456-.333A5.908,5.908,0,0,0,203.256,101.472Z" fill="#442760"/>
        <g id="Group_1" data-name="Group 1">
          <path id="Path_2" data-name="Path 2" d="M182.615,120.648s-4.241,3.016-11.718,3.016-11.259-4.011-11.259-4.011a15.154,15.154,0,0,0,2.556-4.462c.029-.086.058-.182.086-.277a51.961,51.961,0,0,0,1.37-7.87l13.106-1.34a17.677,17.677,0,0,0,.01,2.01,16.255,16.255,0,0,0,.995,4.911,45.205,45.205,0,0,0,4.845,8.014Z" fill="#fabac2"/>
          <path id="Path_3" data-name="Path 3" d="M176.766,107.714a.01.01,0,0,0-.01.01s-8.071,6.883-14.476,7.19a51.961,51.961,0,0,0,1.37-7.87l13.106-1.34A17.677,17.677,0,0,0,176.766,107.714Z" fill="#fa7384"/>
        </g>
        <g id="Group_8" data-name="Group 8">
          <g id="Group_7" data-name="Group 7">
            <g id="Group_4" data-name="Group 4">
              <path id="Path_4" data-name="Path 4" d="M191.749,81.683c0,.651-.029,1.3-.058,1.953,0,.038-.009.086-.009.134a33.275,33.275,0,0,1-.671,4.931,29.679,29.679,0,0,1-5.591,12.12,23.119,23.119,0,0,1-9.028,7.113,19.323,19.323,0,0,1-13.5.757v-.01a21.747,21.747,0,0,1-9.305-5.84,29.183,29.183,0,0,1-7.334-14.14c-.172-.814-.316-1.647-.431-2.48a33.781,33.781,0,0,1-.3-4.538c0-.728.02-1.446.077-2.154.01-.163.019-.326.029-.479.048-.622.115-1.244.2-1.857,1.283-9.631,6.644-17.6,13.891-21.244a2.082,2.082,0,0,1,.211-.106,19.544,19.544,0,0,1,8.693-2.039c10.943,0,20.114,9.162,22.489,21.484a30.5,30.5,0,0,1,.545,4.231C191.72,80.228,191.749,80.955,191.749,81.683Z" fill="#fabac2"/>
              <g id="Group_2" data-name="Group 2">
                <path id="Path_5" data-name="Path 5" d="M159.152,82.875A3.175,3.175,0,0,1,155.98,79.7a.479.479,0,0,1,.958,0,2.214,2.214,0,1,0,4.428,0,.479.479,0,1,1,.957,0A3.175,3.175,0,0,1,159.152,82.875Z" fill="#442760"/>
                <path id="Path_6" data-name="Path 6" d="M175.074,82.875A3.175,3.175,0,0,1,171.9,79.7a.479.479,0,1,1,.957,0,2.214,2.214,0,1,0,4.428,0,.479.479,0,0,1,.958,0A3.175,3.175,0,0,1,175.074,82.875Z" fill="#442760"/>
              </g>
              <g id="Group_3" data-name="Group 3">
                <path id="Path_7" data-name="Path 7" d="M154.208,75.534s5.557-3.7,6.044-3.315.975.878.487,1.267-5.361,3.217-5.751,3.12S154.3,76.411,154.208,75.534Z" fill="#442760"/>
                <path id="Path_8" data-name="Path 8" d="M179.853,75.436s-5.556-3.7-6.044-3.314-.974.877-.487,1.267,5.362,3.217,5.752,3.12S179.756,76.313,179.853,75.436Z" fill="#442760"/>
              </g>
              <path id="Path_9" data-name="Path 9" d="M167.239,81.545c1.429-.065,2.989,8.005,2.372,8.655s-3.412.78-4.192.195S165.809,81.61,167.239,81.545Z" fill="#fa7a8a"/>
              <path id="Path_10" data-name="Path 10" d="M163.014,92.723a29.526,29.526,0,0,0,5,.585,14.436,14.436,0,0,0,4.615-.974s-1.073,3.931-4.615,3.931S163.014,92.723,163.014,92.723Z" fill="#fff"/>
            </g>
            <g id="Group_5" data-name="Group 5">
              <path id="Path_13" data-name="Path 13" d="M146.259,88.7c-2.321-.078-6.248-2.332-6.248-5.266a4.162,4.162,0,0,1,4.161-4.162,4.059,4.059,0,0,1,1.428.257c-.055.714-.078,1.428-.078,2.153A33.554,33.554,0,0,0,146.259,88.7Z" fill="#fabac2"/>
              <path id="Path_14" data-name="Path 14" d="M143.777,85.6a.56.56,0,1,1-.56-.561A.56.56,0,0,1,143.777,85.6Z" fill="#472e43"/>
            </g>
            <g id="Group_6" data-name="Group 6">
              <path id="Path_15" data-name="Path 15" d="M197.222,83.432c0,2.912-3.894,5.165-6.214,5.266a33.553,33.553,0,0,0,.736-7.018c0-.725-.022-1.45-.078-2.164a4.149,4.149,0,0,1,5.556,3.916Z" fill="#fabac2"/>
              <path id="Path_16" data-name="Path 16" d="M194.25,85.6a.561.561,0,1,1-.561-.561A.561.561,0,0,1,194.25,85.6Z" fill="#472e43"/>
            </g>
          </g>
          <path id="Path_17" data-name="Path 17" d="M168.628,53.326a21.16,21.16,0,0,0-8.881,2.077,2.378,2.378,0,0,0-.237.118c-7.453,3.751-12.876,12.031-14.152,21.609l-.087.654.649-.12a13.464,13.464,0,0,0,4.373-1.824c5.61-3.4,8.651-12.2,9.655-15.638,1.819,2.978,5.24,4.75,10.84,6.14,3.473.862,8.725,1.547,11.125,3.43a66.251,66.251,0,0,1,9.739,9.8l.844-.39C190.014,66.305,186.64,52.832,168.628,53.326Z" fill="#442760"/>
          <path id="Path_18" data-name="Path 18" d="M144.8,60.41c.467.487.963,1,1.457,1.437a17.305,17.305,0,0,0,1.558,1.236,18.685,18.685,0,0,0,1.731,1.044c.6.336,1.249.619,1.914.991l.029.016a.5.5,0,0,1-.2.926,6.667,6.667,0,0,1-2.409-.221,7.668,7.668,0,0,1-2.252-1.02,7,7,0,0,1-1.791-1.746,4.97,4.97,0,0,1-.941-2.343.487.487,0,0,1,.833-.393Z" fill="#fc6591"/>
        </g>
      </g>
      <g id="Group_10" data-name="Group 10">
        <path id="Path_19" data-name="Path 19" d="M216.419,147.614l-22.21,2.54-.95.1h-.02l-40.7,4.65-21.87,2.5s-.48-.84.2-4.99c.26-1.65.7-3.82,1.43-6.66,2.1-8.18,7.6-12.78,12.34-15.6.31-.18.61-.36.91-.52.75-.42,1.46-.79,2.13-1.13a41.288,41.288,0,0,0,7.81-5.58c2.19-1.89,3.73-3.45,3.73-3.45s3.96,4.19,11.76,4.19,12.24-3.15,12.24-3.15a18.455,18.455,0,0,0,5.09,4.21,122.8,122.8,0,0,0,12.7,6.2c.28.12.57.25.85.38.09.04.18.08.27.13,4.32,2.09,8.36,7.05,11.03,10.94A59.915,59.915,0,0,1,216.419,147.614Z" fill="#b5cae6"/>
        <path id="Path_20" data-name="Path 20" d="M188.309,124.724c-2.22,1.54-6.33,3.7-13.13,4.95-10.3,1.89-18.23-5.32-19.69-6.75,2.19-1.89,3.73-3.45,3.73-3.45s3.96,4.19,11.76,4.19,12.24-3.15,12.24-3.15A18.455,18.455,0,0,0,188.309,124.724Z" fill="#91b5e6"/>
        <path id="Path_21" data-name="Path 21" d="M153.539,154.774l-1,.13c-.01-.12-1.52-11.8-2.78-16.84a17.3,17.3,0,0,0-5.12-7.91c.31-.18.61-.36.91-.52a17.832,17.832,0,0,1,5.18,8.19C152,142.924,153.519,154.654,153.539,154.774Z" fill="#91b5e6"/>
        <path id="Path_22" data-name="Path 22" d="M202.129,131.434c-.83.4-3.35,1.96-5.17,6.69a49.5,49.5,0,0,0-2.75,12.03c-.01.11-.01.17-.01.18l-.94-.08h-.06a50.484,50.484,0,0,1,2.83-12.49c1.6-4.14,3.71-6.04,4.98-6.84.28.12.57.25.85.38C201.949,131.344,202.039,131.384,202.129,131.434Z" fill="#91b5e6"/>
      </g>
      <g id="Group_13" data-name="Group 13" transform="translate(23.696 -25.671) rotate(7)">
        <path id="Path_23" data-name="Path 23" d="M216.419,147.614l-22.21,2.54-.95.1h-.02l-40.7,4.65-21.87,2.5s-.48-.84.2-4.99l82.29-10.04A59.915,59.915,0,0,1,216.419,147.614Z" opacity="0.3" style="mix-blend-mode: soft-light;isolation: isolate"/>
        <rect id="Rectangle_2" data-name="Rectangle 2" width="117.786" height="66.007" transform="translate(110.211 159.854) rotate(-6.954)" fill="#fff" stroke="#616161" stroke-width="1"/>
        <g id="Group_11" data-name="Group 11">
          <path id="Path_24" data-name="Path 24" d="M110,188.543s9.216-4.288,10.3-3.264-4.48,4.224-4.48,4.224,5.12-1.216,5.5.064-5.184,3.392-5.184,3.392,5.632-1.152,5.44.32-6.272,2.688-6.272,2.688,5.632-.448,5.632,1.024-10.368,2.816-11.136,1.664.768-1.856.768-2.432-1.312-.352-1.632-1.12,1.248-1.408,1.248-1.792-1.28-.64-1.408-1.28,1.386-1.131,1.344-1.28-1.259-.416-1.472-.928S110,188.543,110,188.543Z" fill="#fabac2"/>
          <path id="Path_25" data-name="Path 25" d="M112.347,188.149s-1.018-1.586-1.45-2.24c-.7-1.067-1.558-1.43-1.472-1.984s2.3-1.024,3.114.128,2.07,3.136,2.07,3.136Z" fill="#fabac2"/>
        </g>
        <g id="Group_12" data-name="Group 12">
          <path id="Path_26" data-name="Path 26" d="M235.291,167.447s-9.455-4.4-10.571-3.349,4.6,4.333,4.6,4.333-5.252-1.247-5.646.066,5.318,3.48,5.318,3.48-5.778-1.182-5.581.328,6.434,2.758,6.434,2.758-5.777-.46-5.777,1.05S234.7,179,235.488,177.82s-.788-1.9-.788-2.5,1.346-.361,1.674-1.149-1.28-1.444-1.28-1.838,1.313-.657,1.444-1.313-1.422-1.16-1.379-1.313,1.292-.427,1.51-.952S235.291,167.447,235.291,167.447Z" fill="#fabac2"/>
          <path id="Path_27" data-name="Path 27" d="M233.013,166.94a18.529,18.529,0,0,1-.092-3.2c.255-1.287.925-1.962.628-2.456s-2.585-.078-2.908,1.33-.748,3.782-.748,3.782Z" fill="#fabac2"/>
        </g>
      </g>
    </g>
    <text id="Self_Expression" data-name="Self Expression" transform="translate(523.998 283.895)" fill="#707070" font-size="14" font-family="SegoePrint-Bold, Segoe Print" font-weight="700"><tspan x="0" y="17">Self Expression</tspan></text>
  </g>
</svg>
