<svg xmlns="http://www.w3.org/2000/svg" width="140.841" height="174.558" viewBox="0 0 140.841 174.558">
  <g id="Group_90" data-name="Group 90" transform="translate(-611.157 -454.148)">
    <g id="Group_68" data-name="Group 68" transform="translate(299 199)">
      <g id="Group_65" data-name="Group 65">
        <g id="Group_63" data-name="Group 63">
          <path id="Path_119" data-name="Path 119" d="M370.515,258.186s-1.987-1.828-8.058-1.506-21.249,11.29-20.918,28.816,1.38,23.01.387,26.235-1.877,4.086-1.877,4.086,1.656,2.688,7.948,2.688,3.2-1.505,10.817.108,3.864,3.656,16.779,2.688,9.272-5.161,17.882-4.946,11.921.537,11.921.537,9.383-50.427-16.557-59.889C376.853,252.631,370.515,258.186,370.515,258.186Z" fill="#442760"/>
          <path id="Path_120" data-name="Path 120" d="M417.246,359.744l-86.19.348s5.228-15.028,10.568-18.612,11.321-5.35,13.451-6.581a19.942,19.942,0,0,0,6.267-5.668,20.971,20.971,0,0,0,1.2-1.856c.163-.268.306-.536.449-.8,2.384-4.477,2.619-11.117,2.619-11.117l14.48.347s0,2.432,1.895,8.676a10.758,10.758,0,0,0,2.018,3.722c2.568,3.176,7.042,5.777,13.074,8.7,1.936.943,4.036,1.916,6.277,2.958.6.278,1.183.586,1.743.914C415.33,346.741,417.246,359.744,417.246,359.744Z" fill="#fac4ba"/>
          <path id="Path_121" data-name="Path 121" d="M380.092,315.8s-7.47,10.284-17.548,11.574c.163-.268.306-.536.449-.8,2.384-4.477,2.619-11.117,2.619-11.117Z" fill="#fa9878"/>
          <g id="Group_62" data-name="Group 62">
            <g id="Group_61" data-name="Group 61">
              <g id="Group_58" data-name="Group 58">
                <path id="Path_122" data-name="Path 122" d="M398.207,288.627c0,.7-.03,1.4-.059,2.106,0,.042-.01.093-.01.145a37.2,37.2,0,0,1-.7,5.317,32.579,32.579,0,0,1-5.812,13.072,24.2,24.2,0,0,1-9.385,7.672,19.409,19.409,0,0,1-14.032.815v-.01a22.514,22.514,0,0,1-9.673-6.3,31.892,31.892,0,0,1-7.623-15.251c-.179-.877-.329-1.776-.448-2.674a37.762,37.762,0,0,1-.309-4.894c0-.785.02-1.559.08-2.323.01-.176.02-.351.03-.516.05-.672.119-1.343.209-2,1.334-10.387,6.907-18.977,14.44-22.911a2.3,2.3,0,0,1,.219-.114,19.714,19.714,0,0,1,9.036-2.2c11.375,0,20.909,9.881,23.377,23.17a33.963,33.963,0,0,1,.568,4.563C398.177,287.058,398.207,287.842,398.207,288.627Z" fill="#fac4ba"/>
                <g id="Group_56" data-name="Group 56">
                  <path id="Path_123" data-name="Path 123" d="M364.323,286a3.359,3.359,0,0,0-3.308,3.4.51.51,0,0,0,1.019,0,2.292,2.292,0,1,1,4.578,0,.51.51,0,0,0,1.019,0A3.359,3.359,0,0,0,364.323,286Z" fill="#472e43"/>
                  <path id="Path_124" data-name="Path 124" d="M380.874,286a3.359,3.359,0,0,0-3.308,3.4.51.51,0,0,0,1.019,0,2.292,2.292,0,1,1,4.579,0,.51.51,0,0,0,1.019,0A3.359,3.359,0,0,0,380.874,286Z" fill="#472e43"/>
                </g>
                <g id="Group_57" data-name="Group 57">
                  <path id="Path_125" data-name="Path 125" d="M359.184,281.995s5.776-3.995,6.283-3.575,1.013.947.506,1.367-5.573,3.47-5.979,3.364S359.285,282.941,359.184,281.995Z" fill="#442760"/>
                  <path id="Path_126" data-name="Path 126" d="M385.842,281.89s-5.776-4-6.283-3.575-1.013.946-.506,1.367,5.573,3.469,5.978,3.364S385.741,282.836,385.842,281.89Z" fill="#442760"/>
                </g>
                <path id="Path_127" data-name="Path 127" d="M372.729,288.478c1.486-.07,3.108,8.633,2.466,9.334s-3.547.841-4.358.21S371.243,288.548,372.729,288.478Z" fill="#fa826c"/>
                <path id="Path_128" data-name="Path 128" d="M368.338,300.534a29.63,29.63,0,0,0,5.2.631,14.527,14.527,0,0,0,4.8-1.052s-1.115,4.241-4.8,4.241S368.338,300.534,368.338,300.534Z" fill="#fff"/>
              </g>
              <g id="Group_59" data-name="Group 59">
                <path id="Path_131" data-name="Path 131" d="M350.921,296.192c-2.413-.084-6.495-2.515-6.495-5.679a4.409,4.409,0,0,1,4.326-4.488,4.059,4.059,0,0,1,1.484.277c-.058.77-.081,1.54-.081,2.322A37.475,37.475,0,0,0,350.921,296.192Z" fill="#fac4ba"/>
              </g>
              <g id="Group_60" data-name="Group 60">
                <path id="Path_132" data-name="Path 132" d="M403.9,290.513c0,3.14-4.048,5.571-6.46,5.679a37.475,37.475,0,0,0,.766-7.568c0-.782-.024-1.564-.082-2.334a4.136,4.136,0,0,1,1.45-.265A4.409,4.409,0,0,1,403.9,290.513Z" fill="#fac4ba"/>
              </g>
              <path id="Path_133" data-name="Path 133" d="M350.183,296.118c-.02.675-.152,2.015-.845,2.481a.987.987,0,0,1-.571.179,1.18,1.18,0,0,1-.458-.089,1.109,1.109,0,0,1-.663-.646c-.591-1.379.754-4.417.815-4.546a.255.255,0,0,1,.337-.119.234.234,0,0,1,.122.318c-.367.824-1.233,3.176-.805,4.159a.629.629,0,0,0,.367.367.559.559,0,0,0,.56-.02c.5-.347.622-1.568.632-2.213A3.489,3.489,0,0,0,350.183,296.118Z" fill="#fcd05c"/>
              <path id="Path_134" data-name="Path 134" d="M398.73,295.966c.02.675.153,2.015.846,2.481a.983.983,0,0,0,.57.179,1.181,1.181,0,0,0,.459-.089,1.1,1.1,0,0,0,.662-.645c.592-1.38-.754-4.417-.815-4.546a.253.253,0,0,0-.336-.12.234.234,0,0,0-.122.318c.367.824,1.233,3.176.805,4.159a.629.629,0,0,1-.367.367.56.56,0,0,1-.561-.02c-.5-.347-.621-1.568-.631-2.213A3.381,3.381,0,0,1,398.73,295.966Z" fill="#fcd05c"/>
            </g>
          </g>
          <path id="Path_135" data-name="Path 135" d="M390.237,260.569l-.527-.506a37.725,37.725,0,0,0-14.247-4.857c-7.479-.693-16.265,5.089-16.265,5.089-.171.244-.326.144-.326.144-7.48,7.893-11.041,28.882-7.836,31.051l3.736-14.8c2.179-.126,10.086-.6,11.312-.894a10.726,10.726,0,0,0,3.443-2.313,5.8,5.8,0,0,0,.594,2.313c.475.578,15.315,0,16.146,0s1.662-1.619,1.662-1.619a4.674,4.674,0,0,0,0,1.85c.186.362,4.431,1.288,6.616,1.619l3.527,13.979C401.278,289.452,397.716,268.462,390.237,260.569Z" fill="#442760"/>
          <path id="Path_136" data-name="Path 136" d="M379.14,291.923a2.431,2.431,0,0,0-1.247.349c-3.907-1.592-8.181-.421-10,.234a2.422,2.422,0,0,0-1.571-.583,2.343,2.343,0,1,0,2.4,2.342,2.28,2.28,0,0,0-.194-.92c1.755-.585,5.32-1.46,8.575-.318a2.284,2.284,0,0,0-.371,1.238,2.4,2.4,0,1,0,2.4-2.342Z" fill="#472e43"/>
        </g>
        <g id="Group_64" data-name="Group 64">
          <path id="Path_137" data-name="Path 137" d="M417.435,359.743l-86.568.349s.931-2.682,2.415-6.052c2.027-4.626,5.1-10.558,8.2-12.641,5.373-3.6,11.371-5.374,13.51-6.61a20.077,20.077,0,0,0,6.3-5.693,24.573,24.573,0,0,0,9.119,2.024c4.514.209,9.989-1.6,13.643-3.061a23.87,23.87,0,0,0,6.479,5.214c1.935,1.167,4.166,2.323,6.653,3.529,1.945.948,4.053,1.925,6.3,2.971.6.28,1.187.589,1.75.918,5.834,3.4,8.976,9.072,10.6,13.349A29.9,29.9,0,0,1,417.435,359.743Z" fill="#5d5d87"/>
          <path id="Path_138" data-name="Path 138" d="M390.527,333.273c-4.872,1.994-11.729,4.187-18.157,4.058a34.807,34.807,0,0,1-15.526-3.749,20.173,20.173,0,0,0,4.442-4.486,24.573,24.573,0,0,0,9.119,2.024c4.514.209,9.989-1.6,13.643-3.061A23.87,23.87,0,0,0,390.527,333.273Z" fill="#7070a3"/>
        </g>
      </g>
      <g id="Group_67" data-name="Group 67">
        <path id="Path_139" data-name="Path 139" d="M417.435,359.743l-86.568.349s.907-2.682,2.353-6.052h82.66A30.587,30.587,0,0,1,417.435,359.743Z" opacity="0.3" style="mix-blend-mode: soft-light;isolation: isolate"/>
        <rect id="Rectangle_6" data-name="Rectangle 6" width="111.681" height="69.343" transform="translate(318.306 359.863)" fill="#fff" stroke="#616161" stroke-width="1"/>
        <g id="Group_66" data-name="Group 66">
          <path id="Path_140" data-name="Path 140" d="M313.517,398.67s9.188-4.275,10.272-3.255-4.466,4.212-4.466,4.212,5.1-1.213,5.487.063-5.168,3.382-5.168,3.382,5.615-1.148,5.424.319-6.254,2.68-6.254,2.68,5.615-.447,5.615,1.021-10.336,2.807-11.1,1.659.766-1.851.766-2.425-1.308-.351-1.627-1.116,1.244-1.4,1.244-1.787-1.276-.638-1.4-1.276,1.383-1.127,1.34-1.276-1.255-.415-1.467-.925S313.517,398.67,313.517,398.67Z" fill="#fac4ba"/>
          <path id="Path_141" data-name="Path 141" d="M315.962,397.51s-1.015-1.58-1.446-2.233c-.7-1.063-1.552-1.425-1.467-1.978s2.3-1.021,3.1.128,2.063,3.126,2.063,3.126Z" fill="#fac4ba"/>
        </g>
        <path id="Path_142" data-name="Path 142" d="M408.494,358.439s-2.547,10.08-1.31,10.977,3.388-5.308,3.388-5.308-.244,5.376,1.116,5.518,2.417-5.857,2.417-5.857-.081,5.879,1.361,5.4,1.5-6.815,1.5-6.815.627,5.744,2.106,5.463.848-10.956-.457-11.507-1.718,1.126-2.3,1.236-.605-1.251-1.438-1.425-1.176,1.523-1.562,1.6-.887-1.164-1.555-1.17-.871,1.609-1.029,1.6-.659-1.185-1.214-1.3S408.494,358.439,408.494,358.439Z" fill="#fac4ba"/>
      </g>
    </g>
    <text id="Simplicity" transform="translate(636.998 580.895)" fill="#707070" font-size="14" font-family="SegoePrint-Bold, Segoe Print" font-weight="700"><tspan x="0" y="17">Simplicity</tspan></text>
  </g>
</svg>
