<svg xmlns="http://www.w3.org/2000/svg" width="714.816" height="238.974" viewBox="0 0 714.816 238.974">
  <g id="Group_16" data-name="Group 16" transform="translate(-3046.252 -687.012)">
    <path id="path664" d="M593.291-290.633a12.789,12.789,0,0,1-12.775-12.775,12.789,12.789,0,0,1,12.775-12.776,12.79,12.79,0,0,1,12.776,12.776,12.79,12.79,0,0,1-12.776,12.775m-8.24-19.6a.732.732,0,0,0-.511.208.726.726,0,0,0-.069.956L593.7-296.91a.731.731,0,0,0,.548.285h.031a.722.722,0,0,0,.537-.237l7.619-8.431a.724.724,0,0,0,.045-.916.724.724,0,0,0-.584-.295.719.719,0,0,0-.3.067l-7.215,3.341-8.88-6.979a.714.714,0,0,0-.445-.156" transform="translate(2990 1050.999)" fill="#45a8f5"/>
    <path id="path666" d="M593.291-289.182a14.228,14.228,0,0,1-12.027-6.635,14.13,14.13,0,0,1-2.147-6.36q-.052-.608-.052-1.231a14.25,14.25,0,0,1,10.843-13.819,14.216,14.216,0,0,1,3.383-.407,14.2,14.2,0,0,1,3.051.329,14.251,14.251,0,0,1,11.176,13.9,14.241,14.241,0,0,1-14.227,14.225m0-27a12.789,12.789,0,0,0-12.775,12.776,12.789,12.789,0,0,0,12.775,12.775,12.79,12.79,0,0,0,12.776-12.775,12.79,12.79,0,0,0-12.776-12.776" transform="translate(2990 1050.999)" fill="#6ab9f7"/>
    <path id="path668" d="M594.325-298.483l-5.281-6.959,4.785,3.761a.716.716,0,0,0,.447.155.735.735,0,0,0,.305-.065l4.392-2.035-4.648,5.143" transform="translate(2990 1050.999)" fill="#6ab9f7"/>
    <path id="path670" d="M594.277-296.625h-.031a.731.731,0,0,1-.548-.285l-9.228-12.156a.726.726,0,0,1,.069-.956.732.732,0,0,1,.511-.208.714.714,0,0,1,.445.156l8.88,6.979,7.215-3.341a.719.719,0,0,1,.3-.067.724.724,0,0,1,.584.295.724.724,0,0,1-.045.916l-7.619,8.431a.722.722,0,0,1-.537.237m-5.233-8.817,5.281,6.959,4.648-5.143-4.392,2.035a.735.735,0,0,1-.305.065.716.716,0,0,1-.447-.155l-4.785-3.761" transform="translate(2990 1050.999)" fill="#6ab9f7"/>
    <path id="path680" d="M606.793-320.011h8.546V-329.5h-8.546Z" transform="translate(2990 1050.999)" fill="#6ab9f7"/>
    <path id="path688" d="M588.393-355.332H594.9v-7.216h-6.505Z" transform="translate(2990 1050.999)" fill="#6ab9f7"/>
    <path id="path1304" d="M633.921-329.373a22.717,22.717,0,0,1-.672-2.619l.653-.127a22.306,22.306,0,0,0,.655,2.543Zm2.137,4.948c-.435-.8-.833-1.616-1.184-2.423l.612-.265c.343.789.732,1.587,1.157,2.369Zm2.921,4.516c-.54-.713-1.061-1.455-1.547-2.2l.56-.364c.477.733.987,1.461,1.519,2.164Zm3.515,4.065c-.627-.635-1.24-1.3-1.824-1.975l.505-.436c.573.664,1.177,1.317,1.793,1.944Zm3.988,3.6c-.7-.559-1.388-1.143-2.048-1.739l.445-.495c.651.587,1.331,1.163,2.02,1.713Zm4.38,3.1c-.76-.476-1.511-.977-2.233-1.488l.385-.544c.712.5,1.453,1,2.2,1.467Zm4.711,2.577c-.807-.383-1.611-.795-2.391-1.22l.32-.585c.768.421,1.561.825,2.357,1.2Zm39.012.041-.271-.609q.968-.428,1.939-.9l.295.6Q695.566-306.956,694.585-306.523ZM689.58-304.6l-.209-.633c.828-.271,1.668-.571,2.5-.889l.24.621C691.268-305.173,690.417-304.87,689.58-304.6Zm-29.027.044c-.844-.284-1.691-.6-2.519-.933l.251-.619c.815.331,1.651.64,2.481.92ZM684.4-303.2l-.139-.653c.848-.179,1.715-.387,2.576-.617l.172.644c-.872.233-1.751.444-2.609.627Zm-18.667.061c-.877-.185-1.756-.4-2.609-.629l.175-.644c.841.231,1.707.439,2.572.62Zm13.357.747-.061-.664c.876-.083,1.76-.191,2.627-.324l.1.659C680.874-302.585,679.977-302.474,679.088-302.391Zm-8.045.033c-.881-.076-1.777-.18-2.665-.309l.1-.661c.876.129,1.759.232,2.627.307Zm3.825.164q-.572,0-1.144-.013l.019-.667q1.312.032,2.644-.012l.024.667q-.774.026-1.543.025" transform="translate(2990 1050.999)" fill="#fff"/>
    <path id="path1624" d="M428.234-155.35c-.092.623-1.1,3.307,1.735,4.252,1.632.544,2.324.2,2.737-.145.3-.253.457-.507.724-.407.632.236,1.261.628,1.811,2.2s6.143,3.935,7.244,4.172,5.511.708,7.32,0a2.88,2.88,0,0,0,1.573-3.307c-.156-.471-4.249-2.488-7.007-4.667a15.7,15.7,0,0,1-3.776-3.993l-12.361,1.891" transform="translate(2990 1050.999)" fill="#4c3e35"/>
    <path id="path1626" d="M414.379-155.845c.092.623,1.1,3.307-1.731,4.252-1.633.544-2.325.2-2.739-.145-.3-.253-.457-.507-.723-.407-.632.236-1.261.631-1.811,2.2s-6.143,3.937-7.244,4.173-5.511.708-7.321,0a2.887,2.887,0,0,1-1.575-3.307c.159-.472,4.252-2.489,7.007-4.669a15.661,15.661,0,0,0,3.779-3.989l12.357,1.888" transform="translate(2990 1050.999)" fill="#4c3e35"/>
    <path id="path1628" d="M391.682-270.61c-.785,11.876-2.184,12.087,0,32.129s5.895,30.885,5.4,34.349,2.081,47.293,2.576,48.283,7.975,3.045,14.72,0c0,0-.72-28.74-1.215-35.175s-.988-18.555-.988-23.256,1.208-24.205,1.208-24.205,6.945,33.112,7.2,38.308,4.267,43.793,5.845,45.031,13.705-.248,15.188-1.731-1.483-6.188-1.979-8.66-4.453-32.413-4.453-39.095a191.358,191.358,0,0,0-.991-21.731C433.207-237,429.99-266.9,429.99-266.9l-38.308-3.711" transform="translate(2990 1050.999)" fill="#a3eaff"/>
    <path id="path1630" d="M411.959-264.622l-11.067,3.988s5.583,49.652,5.239,57c-.277,5.976.717,37.689,1.1,49.368a18.725,18.725,0,0,0,7.149-1.583s-.72-28.74-1.215-35.175-.988-18.555-.988-23.256,1.208-24.205,1.208-24.205l-1.425-26.141" transform="translate(2990 1050.999)" fill="#7bd1f6"/>
    <path id="path1632" d="M436.348-155.312c2.527-.417,4.695-.991,5.269-1.561,1.484-1.487-1.483-6.188-1.979-8.661s-4.453-32.412-4.453-39.093a191.358,191.358,0,0,0-.991-21.731c-.847-9.1-3.321-32.289-4.02-38.8-.507-.648-.988-1.267-1.456-1.863l-7.007-.677-2.116,5.269c4.4,22.092,6.871,45.872,8.323,51.684,1.4,5.613,3.281,44.663,8.429,55.436" transform="translate(2990 1050.999)" fill="#7bd1f6"/>
    <path id="path1634" d="M402.654-347.811c-1.683-.2-.989,1.784-.693,2.773s.177,2.872.684,2.971,1.595-.792,1.595-.792a21.065,21.065,0,0,0,1.88,5.841c1.584,3.367,4.752,5.247,7.327,4.852s8.121-4.12,8.515-7.8c0,0-.381.727.579,1.088s1.621-1.223,1.741-2.865.883-1.881.663-2.683-1.707-1.008-2.585.779c0,0,3.44-5.543,1.407-8.472s-8.952-4.72-8.952-4.72l-6.264,2.035-5.895,7" transform="translate(2990 1050.999)" fill="#f0bb8f"/>
    <path id="path1636" d="M406.076-335.7c-.284,3.389-1.553,6.748-5.184,7.747,0,0,2.632,5.991,11.076,4.9s8.615-4.721,8.615-4.721-3.352-1.452-3.168-4.72L406.076-335.7" transform="translate(2990 1050.999)" fill="#f0bb8f"/>
    <path id="path1638" d="M404.159-345.132l1.265.887s.495-7.724,3.268-8.712,4.753,1.088,8.416.692,5.744.3,5.844,2.772a29.927,29.927,0,0,1-.595,5.843l1.8-1.331a60.41,60.41,0,0,0,1.075-6.789c.195-2.772-1.883-6.931-5.547-7.525s-1.88-2.672-1.88-2.672-11.388.3-12.775,5.444c0,0-2.573.695-2.375,8.713,0,0,1.072.441,1.505,2.679" transform="translate(2990 1050.999)" fill="#694329"/>
    <path id="path1640" d="M403.642-342.435c-.124,2.505-1.044,5.373.96,8.524s5.059,5.763,7.284,5.768c2.293.008,6.292-2.3,8.032-4.391s2.043-7.436,2.043-7.436-2.928,6.7-9.135,7.3c-6.823.668-8.587-10.193-8.587-10.193l-.6.424" transform="translate(2990 1050.999)" fill="#694329"/>
    <path id="path1642" d="M400.892-327.949l11.076,4.9,8.616-4.721v68.352S396.942-258,393.3-262.449s0-11.627,0-11.627l1.616-33.9,5.977-19.977" transform="translate(2990 1050.999)" fill="#303269"/>
    <path id="path1644" d="M421.338-340.977A13.386,13.386,0,0,1,419.6-336.4a17.689,17.689,0,0,0,1.741-1.252c.029-.132.623-2.316.623-2.316l-.623-1.007" transform="translate(2990 1050.999)" fill="#694329"/>
    <path id="path1646" d="M419.06-301.046c-.2,6.684-3.011,37.857,0,48.249,0,0,4.851,1.487,8.26.743s7.865-1.979,7.865-1.979-1.219-11.628-2.589-19.793-1.236-27.22-1.236-27.22l-4.04-5.44-8.26,5.44" transform="translate(2990 1050.999)" fill="#d6f0ff"/>
    <path id="path1648" d="M390.948-295.3a77.892,77.892,0,0,1-2.3,23.448l4.473,6.436s7.124-14.847,7.769-19.053a55.7,55.7,0,0,0,0-10.831h-9.944" transform="translate(2990 1050.999)" fill="#d6f0ff"/>
    <path id="path1650" d="M387.728-262.089c1.529,3.531,3.2,6.356,3.953,6.827s3.7-5.416,2.521-8.359-6.475,1.532-6.475,1.532" transform="translate(2990 1050.999)" fill="#f0bb8f"/>
    <path id="path1652" d="M419.451-294.061l-1.539,13.14s-4.379,2.364-8.463-.1l.161-13.429,9.84.392" transform="translate(2990 1050.999)" fill="#f8f3e0"/>
    <path id="path1654" d="M420.682-295.182c-.075.288-.667,1.716-.667,1.716l-10.932-.515.024-2.06,11.575.859" transform="translate(2990 1050.999)" fill="#7a553c"/>
    <path id="path1656" d="M418.67-297.122l.8,1.852-9.279-.691.971-1.777,7.511.616" transform="translate(2990 1050.999)" fill="#694329"/>
    <path id="path1658" d="M411.836-298.354c.733-1.235,1.032-2.093.043-3.445s.688-3.105.688-3.105-2.733,1.932-1.6,3.261,1.468,1.287.869,3.289" transform="translate(2990 1050.999)" fill="#f8ebe0"/>
    <path id="path1660" d="M411.5-287.857c-.092,2.337,1.028,4.281,2.507,4.337s2.74-1.792,2.832-4.131-1.032-4.279-2.507-4.336-2.744,1.792-2.832,4.129" transform="translate(2990 1050.999)" fill="#759ee0"/>
    <path id="path1662" d="M400.892-327.949c-5.472,1.667-14.095,1.055-16.651,5.033s-7.507,37.681-7.827,40.236S386.91-260.3,387.548-259.5s7.885-4.432,7.885-4.432-5.281-14.593-8.8-18.748c0,0,3.195-8.944,4.311-12.617h9.944v-32.652" transform="translate(2990 1050.999)" fill="#d6f0ff"/>
    <path id="path1664" d="M425.911-285.6c-3.772.372-4.3-.5-5.681-1.06s-4.8-3.124-5.531-2.133,2.065,2.332,2.565,2.952-.356.983-2.689,1a8.831,8.831,0,0,1-4.769-1.767c-.431-.285-.444-.432-.689,1.111a7.53,7.53,0,0,0,1.823,5.232c1.027.909,4.531,2.057,6.145,2.193s7.58-1.743,8.695-1.785a26.8,26.8,0,0,0,3.26-.5l-3.128-5.241" transform="translate(2990 1050.999)" fill="#f0bb8f"/>
    <path id="path1666" d="M434-264.1h0c-.411-3.208-.9-6.707-1.405-9.731-.255-1.52-.459-3.417-.62-5.5h0c.163,2.08.365,3.977.62,5.5.508,3.024.995,6.524,1.405,9.732" transform="translate(2990 1050.999)" fill="#3da1f5"/>
    <path id="path1668" d="M434-264.1h-4.045c-.275-3.919-.987-9.345-1.492-14.231.959-.271,2.173-.615,3.512-1,.161,2.08.365,3.977.62,5.5.508,3.024.995,6.523,1.405,9.731" transform="translate(2990 1050.999)" fill="#bee6ff"/>
    <path id="path1670" d="M431.506-288.885c-.131-4.547-.149-8.7-.149-10.771,0,2.073.019,6.224.149,10.771h0" transform="translate(2990 1050.999)" fill="#3da1f5"/>
    <path id="path1672" d="M427.919-287.459c.067-4.029.549-9.219,1.041-13.587h2.4s0,.057,0,.167c0,.216,0,.637,0,1.224,0,2.073.019,6.224.149,10.771l-3.587,1.425" transform="translate(2990 1050.999)" fill="#bee6ff"/>
    <path id="path1674" d="M420.584-327.767c5.183,1.645,12.372,2.6,14.448,3.721s9.425,26.833,10.381,31.3.957,7.827,0,8.945-18.1,5.756-19.057,6.075-2.5-4.957-2.024-8.311l12.456-4.952-5.428-10.061h-12.3l1.524-26.721" transform="translate(2990 1050.999)" fill="#d6f0ff"/>
    <path id="path1676" d="M395.374-264.1h-3.519c-2.975-6.639-8.461-18.941-8.565-19.575-.148-.871,7.659-22.816,7.659-22.816.705,3.42,0,11.189,0,11.189h0c-1.116,3.673-4.311,12.617-4.311,12.617h0c3.3,3.895,8.145,16.969,8.736,18.584" transform="translate(2990 1050.999)" fill="#bee6ff"/>
    <path id="path1678" d="M426.33-277.714a0,0,0,0,1,0,0,0,0,0,0,0,0,0m.005,0,.021-.007c.184-.061.963-.281,2.108-.6h0c-1.145.323-1.924.543-2.108.6l-.021.007" transform="translate(2990 1050.999)" fill="#bee6ff"/>
    <path id="path1680" d="M426.271-277.709c-.443,0-.989-1.1-1.4-2.585,4.6-.608,18.977-6.159,19.34-6.565.393-.435,1.145-2.053,1.2-5.883a28.467,28.467,0,0,1,.719,5.731,5.255,5.255,0,0,1-.719,3.215c-.62.724-8.032,2.925-13.437,4.473-1.339.383-2.553.727-3.512,1-1.145.323-1.924.543-2.108.6l-.021.007h0a0,0,0,0,0,0,0,.283.283,0,0,1-.059.005" transform="translate(2990 1050.999)" fill="#bee6ff"/>
    <path id="path1682" d="M431.36-301.046h-2.4c.556-4.92,1.123-8.8,1.123-8.8l1.277,8.8" transform="translate(2990 1050.999)" fill="#bee6ff"/>
    <path id="path1686" d="M444.342-145.024a18.512,18.512,0,0,1-1.857-.251c-1.1-.237-6.692-2.6-7.244-4.172a4.746,4.746,0,0,0-.771-1.487c2.931.005,5.859.012,8.769.02q.546,2.986,1.1,5.889m-12.449-5.831.077-.084h.219a1.858,1.858,0,0,1-.3.083" transform="translate(2990 1050.999)" fill="#3e3935"/>
    <path id="path1688" d="M754.326-152.481c.252-1.561.505-4.24-.872-4.541,0,0,.072,1.112-2.483,1.416s-5.715.252-7.013-1.613c0,0-1.3-.3-1.5.5s-.1,1.361-2.5,2.068-8.213,1.311-8.164,4.836.751,3.476,2.4,4.032a18.13,18.13,0,0,0,10.017-.1c3.555-1.312,3.5-2.319,4.555-1.815s5.06-.655,5.312-.856.248-3.931.248-3.931" transform="translate(2990 1050.999)" fill="#c3c6d5"/>
    <path id="path1690" d="M734.194-145.78c-1.441-.483-2.159-.509-2.351-2.855a12.516,12.516,0,0,0,4.517,1.812,14.276,14.276,0,0,0,9.735-1.664,3.672,3.672,0,0,1,2.969-.625,6.59,6.59,0,0,0,5.223-1.248,5.871,5.871,0,0,1-.209,1.809c-.252.2-4.257,1.359-5.312.856s-1,.5-4.555,1.815a18.13,18.13,0,0,1-10.017.1" transform="translate(2990 1050.999)" fill="#614f45"/>
    <path id="path1692" d="M753.234-158.885l.348,2.984s-.1,1.3-4.976,1.3-4.58-1.695-4.58-1.695l.4-4.379,8.809,1.792" transform="translate(2990 1050.999)" fill="#f0bb8f"/>
    <path id="path1694" d="M767.742-153.754l.365,3.133s-.1,1.357-5.223,1.357-4.8-1.775-4.8-1.775l.833-5.269,8.828,2.553" transform="translate(2990 1050.999)" fill="#f0bb8f"/>
    <path id="path1696" d="M757.058-241.127c1.931,5.169,1.117,9.444-.281,15.4s-1.947,25.129-.9,28.047,1.945,12.028.944,20.848-2.784,20.429-2.784,20.429-6.956.036-11.333-2.093c0,0,1.457-26.851,1.265-29.909a49.585,49.585,0,0,0-2.664-12.9c-1.513-3.669-1.927-37.88-1.927-37.88l17.681-1.944" transform="translate(2990 1050.999)" fill="#a3eaff"/>
    <path id="path1698" d="M742.77-158.461h0m-.031-.015-.005,0,.005,0" transform="translate(2990 1050.999)" fill="#60bdf6"/>
    <path id="path1700" d="M747.474-157.028a19.524,19.524,0,0,1-4.7-1.433h0l-.028-.015-.005,0-.032-.015h0s1.281-23.6,1.283-29.069c0-.364-.005-.648-.017-.84a49.585,49.585,0,0,0-2.664-12.9c-1.191-2.885-1.7-24.653-1.863-33.824.192,0,.409.005.649.005.907,0,2.139-.029,3.611-.135,1.036,5.141,3.5,17.2,5.541,25.787.127,6.664-1.123,15-.437,18.139.788,3.627-.924,28.84-1.331,34.3" transform="translate(2990 1050.999)" fill="#8fddfa"/>
    <path id="path1702" d="M764.8-244.817c2.581,5.4,2.113,10.092,1.173,16.665s.545,27.3,1.953,30.349,3.36,12.675,3.125,22.295-1.175,23.555-1.175,23.555-7.511.707-12.439-1.172c0,0-.875-30.36-1.376-33.647a53.46,53.46,0,0,0-4.221-13.547c-1.988-3.82-8.633-37.417-8.633-37.417l21.592-7.081" transform="translate(2990 1050.999)" fill="#a3eaff"/>
    <path id="path1704" d="M768.891-147.018c.26-1.619.527-4.393-.912-4.7,0,0,.076,1.151-2.588,1.467s-5.961.261-7.316-1.672c0,0-1.353-.315-1.563.521s-.1,1.412-2.611,2.141-8.567,1.359-8.515,5.013.784,3.6,2.508,4.18a19.014,19.014,0,0,0,10.445-.1c3.708-1.359,3.652-2.4,4.751-1.881s5.276-.68,5.54-.887.26-4.076.26-4.076" transform="translate(2990 1050.999)" fill="#dbdfe8"/>
    <path id="path1706" d="M737.47-289.335c-4.436,1.549-5.865,5.616-6.817,11.656s-3.948,17.707-3.687,18.4,6.723,3.508,6.723,3.508l5.935-13.1-2.153-20.468" transform="translate(2990 1050.999)" fill="#b0b54f"/>
    <path id="path1708" d="M763.415-151.937c-.193-.016-.387-.032-.581-.051.195.019.389.035.581.049h0" transform="translate(2990 1050.999)" fill="#b5c6c3"/>
    <path id="path1710" d="M763.415-151.938c-.192-.015-.387-.031-.581-.049a21.311,21.311,0,0,1-5.4-1.137h0s-.875-30.36-1.376-33.647a53.46,53.46,0,0,0-4.221-13.547c-1.659-3.187-6.559-27.1-8.137-34.939a55.507,55.507,0,0,0,10.2-1.684c1.019,9.472,3.568,33.5,5.507,37.559,2.169,4.533,4.833,39.439,4.008,47.444" transform="translate(2990 1050.999)" fill="#8fddfa"/>
    <path id="path1712" d="M744.574-321.326c-2-1.46-8.2.408-10.9,5.172s-3.175,25.853-4.7,29.2a17.257,17.257,0,0,0,9.779-1.916c1.467-.845,3.631-2.355,3.631-2.355l.511-9.027,1.684-21.071" transform="translate(2990 1050.999)" fill="#e37022"/>
    <path id="path1714" d="M738.228-295.737a11.418,11.418,0,0,1-2.087,10.347,12.4,12.4,0,0,0,5.7-.9c2.595-1.215,4.736-15.093,4.736-15.093l-7.636-.4-.717,6.049" transform="translate(2990 1050.999)" fill="#f0bb8f"/>
    <path id="path1716" d="M739.441-235.127c-.692-.012-1.075-.037-1.075-.037s-.948-6.553-1.559-13.079l5.237-15.852h-4.584l2.163-4.772-1.736-16.511a11.033,11.033,0,0,0,3.957-.915c1.1-.516,2.124-3.321,2.933-6.376,1.56-.789,4.205-2.047,5.237-2.047a.89.89,0,0,1,.165.013c1.264.231,6.267,1.88,8.763,5.7s1.365,6.789.84,13.145-.733,12.975.621,17.207,6.424,16.023,6.424,16.023q-.468.312-.94.608a19.906,19.906,0,0,0-1.092-2.793l-13.021,4.271-12.4,1.363h0s.019,1.564.064,4.056m-1.812-52.7-.047-.445c.1-.045.2-.092.3-.14q-.116.292-.252.585" transform="translate(2990 1050.999)" fill="#70bdf7"/>
    <path id="path1718" d="M745.964-238.639l-2.367-1.007-4.22.463h0l12.4-1.363-5.812,1.907" transform="translate(2990 1050.999)" fill="#b1ecfe"/>
    <path id="path1720" d="M740.09-235.122c-.24,0-.457,0-.649-.005-.045-2.492-.064-4.056-.064-4.056l4.22-.463,2.367,1.007-2.759.9h0s.183.923.5,2.479c-1.472.105-2.7.135-3.611.135" transform="translate(2990 1050.999)" fill="#a4e2fb"/>
    <path id="path1722" d="M753.9-236.941c-.119-1.107-.217-2.015-.291-2.669,0,0-4.1.741-7.644.972l-2.761.9h0l2.759-.9,5.812-1.907,13.021-4.271a19.913,19.913,0,0,1,1.092,2.793,43.872,43.872,0,0,1-11.988,5.083" transform="translate(2990 1050.999)" fill="#b1ecfe"/>
    <path id="path1724" d="M737.461-264.1h-2.319a37.964,37.964,0,0,0-1.9-4.268c-2.077-4.276-.42-7.852.671-11.623a71.666,71.666,0,0,1,2.551-7.843c.372-.132.747-.28,1.119-.448l.047.445a12.977,12.977,0,0,1-1.488,2.441s.359.036.935.036c.237,0,.511-.007.812-.024l1.736,16.511-2.163,4.772" transform="translate(2990 1050.999)" fill="#bbc783"/>
    <path id="path1726" d="M743.7-235.257c-.313-1.556-.5-2.479-.5-2.479l2.761-.9c3.543-.231,7.644-.972,7.644-.972.073.655.172,1.563.291,2.669a55.507,55.507,0,0,1-10.2,1.684" transform="translate(2990 1050.999)" fill="#a4e2fb"/>
    <path id="path1728" d="M736.464-287.829a3.387,3.387,0,0,1,1.007-1.507c.236-.123.519-.263.852-.421a11.47,11.47,0,0,1-.441,1.34c-.1.048-.2.095-.3.14-.372.168-.747.316-1.119.448" transform="translate(2990 1050.999)" fill="#de9664"/>
    <path id="path1730" d="M737.076-285.354c-.576,0-.935-.036-.935-.036a12.989,12.989,0,0,0,1.488-2.441q.136-.294.252-.585a11.479,11.479,0,0,0,.441-1.34c1.151-.549,2.892-1.313,5.256-2.287,0,0,.485-.264,1.2-.625-.809,3.055-1.831,5.86-2.933,6.376a11.034,11.034,0,0,1-3.957.915c-.3.017-.575.024-.812.024" transform="translate(2990 1050.999)" fill="#e7cbb0"/>
    <path id="path1732" d="M743.578-292.043c-3.048,1.255-5.06,2.161-6.108,2.708s-2.469,5.579-3.557,9.349-2.748,7.348-.671,11.623,2.837,5.593,3.095,13.276,2.029,22.589,2.029,22.589,19.061,3.551,29.8-8.8c0,0-6.405-13.125-7.757-17.356s-1.148-10.845-.621-17.207.909-8.1-1.585-11.917-6.753-6.693-8.017-6.924-6.6,2.659-6.6,2.659" transform="translate(2990 1050.999)" fill="#c9c94f"/>
    <path id="path1734" d="M738.414-294.975l-.032-.008-.009-.021a7.224,7.224,0,0,0-.145-.732h0c.065.237.129.491.187.761" transform="translate(2990 1050.999)" fill="#e68e4e"/>
    <path id="path1736" d="M742.489-294.5a19.266,19.266,0,0,1-4.075-.479c-.057-.271-.121-.524-.187-.761l.415-3.492,7.343-2.141s.236.095.552.245c-.125.787-.567,3.407-1.22,6.253a9.517,9.517,0,0,1-2.828.375" transform="translate(2990 1050.999)" fill="#ecb384"/>
    <path id="path1738" d="M756.874-248.162c-3.521,6.413-8.857,11.961-10.031,14.468s-1.128,7.5-3.407,9.763c-2.021,2.008-4.273,1.828-4.015,1.016.283-.9,1.74-6.493,1.521-6.937s-2.771,3.265-3,2.505,1.763-4.435,2.388-5.481,1.828-1.123,3.027-2.627,6.225-15.94,6.225-15.94l6.829-1.059.461,4.292" transform="translate(2990 1050.999)" fill="#f0bb8f"/>
    <path id="path1740" d="M761.619-269.443c-.079,3.657.507,8.677-.28,11.195a92.529,92.529,0,0,1-4.892,10.841s-3.532-3.759-6.864-3.988c0,0,2.535-8.824,2.749-9.772s-4.591-13.389-5.336-17.108c-.592-2.967-.611-10.66,4.02-13.18,1.167-.637,2.732-1.632,4.448-1,1.476.545,2.557,2.043,3.479,3.451,2.5,3.819,2.724,17.333,2.676,19.563" transform="translate(2990 1050.999)" fill="#b0b54f"/>
    <path id="path1742" d="M742.782-320.081s-4.048,3.435-6.161,2.264c-.752-.416-.531-1.041.055-1.672,2.911-2.2,6.471-2.88,7.9-1.837l-.137,1.717c-.909-.257-1.655-.472-1.655-.472" transform="translate(2990 1050.999)" fill="#ef7a2b"/>
    <path id="path1744" d="M747.9-140.07c-1.505-.5-2.253-.527-2.455-2.957a13.182,13.182,0,0,0,4.713,1.877,14.969,14.969,0,0,0,10.152-1.728,3.855,3.855,0,0,1,3.1-.647,6.911,6.911,0,0,0,5.447-1.292,6.124,6.124,0,0,1-.217,1.875c-.264.207-4.44,1.409-5.54.887s-1.043.523-4.751,1.881a19.014,19.014,0,0,1-10.445.1" transform="translate(2990 1050.999)" fill="#614f45"/>
    <path id="path1746" d="M745.985-301.37c-.863,2.037-2.78,17.237-2.78,17.237s10.956-1.973,12.889-4.312c0,0-.472-9.852.377-13.776,1.441-6.648.645-17.484-11.9-19.105l-7.265,5.049,3.6,9.435,5.076,5.472" transform="translate(2990 1050.999)" fill="#ef7a2b"/>
    <path id="path1748" d="M737.31-316.277l5.472-3.8c-3.629,3.807,6.909,8.655,7.715,12.245s-4.277,13.92-3.763,16.308,9.3,1.492,9.3,1.492c.032.979.06,1.591.06,1.591-1.933,2.339-12.889,4.312-12.889,4.312s1.917-15.2,2.78-17.237l-5.076-5.472-3.6-9.435" transform="translate(2990 1050.999)" fill="#e37022"/>
    <path id="path1750" d="M745.985-301.37c-.207,3.619-3.407,5.444-7.757,5.633s-5.1-6.257-5-8.271.765-3.295.277-4.683,1.352-7,3.8-7.587,8.195,4.891,8.172,8.473c0,0,2.313-1.152,2.753,1.831.24,1.631-.937,4.819-2.249,4.6" transform="translate(2990 1050.999)" fill="#f0bb8f"/>
    <path id="path1752" d="M730.668-331.979c-2.864-7.749-12.728-11.244-22.035-7.808s-14.531,12.505-11.669,20.256c2.759,7.472,12.027,10.987,21.031,8.148l6.092,1.836.523-5.271c5.635-4.355,8.276-11.152,6.059-17.161" transform="translate(2990 1050.999)" fill="#fff"/>
    <path id="path1754" d="M124.324-264.1v23.973h-18.5v95.82H74.675v-95.82H56.252V-264.1h68.072" transform="translate(2990 1050.999)" fill="#7dc2fe"/>
    <path id="path1756" d="M131.427-264.1h51.942v23.973H162.578v22.715h19.459v22.789H162.578v26.341h22.863V-144.3H131.427V-264.1" transform="translate(2990 1050.999)" fill="#7dc2fe"/>
    <path id="path1758" d="M231.733-187.07q-2.366-20.352-4.745-50.315-4.76,34.408-5.977,50.315ZM248.242-264.1,266.055-144.3H234.221l-1.672-21.531H221.406L219.533-144.3h-32.2L203.218-264.1h45.024" transform="translate(2990 1050.999)" fill="#7dc2fe"/>
    <path id="path1760" d="M367.46-264.1V-144.3H340.231l-.036-80.874L329.355-144.3H310.043l-11.432-79.024-.036,79.024H271.346V-264.1h40.307q1.794,10.8,3.7,25.467l4.424,30.471,7.159-55.937H367.46" transform="translate(2990 1050.999)" fill="#7dc2fe"/>
    <path id="path1762" d="M497.244-264.1,483.373-144.3H444.48q-5.342-27.608-9.428-62.82-1.862,15.1-8.687,62.82H387.7L373.751-264.1h30.263l3.292,41.8,3.183,40.408q1.722-31.366,8.613-82.2H451.45q.644,5.254,3.4,39.512L458.287-179q2.656-43.5,8.693-85.09h30.264" transform="translate(2990 1050.999)" fill="#7dc2fe"/>
    <path id="path1764" d="M543.413-233.314q0-8.362-.925-10.693a3.683,3.683,0,0,0-3.809-2.331,4.255,4.255,0,0,0-3.737,1.887q-1.3,1.886-1.3,11.137v55.937q0,10.432.852,12.875t3.96,2.441a3.829,3.829,0,0,0,4.068-2.812q.89-2.812.888-13.392v-55.049m31.151,39.363q0,18.056-.852,25.564a28.631,28.631,0,0,1-5.327,13.725,28.694,28.694,0,0,1-12.1,9.545,44.042,44.042,0,0,1-17.759,3.329,45.135,45.135,0,0,1-17.277-3.144,28.4,28.4,0,0,1-12.319-9.433,28.354,28.354,0,0,1-5.549-13.689q-.888-7.4-.888-25.9v-20.5q0-18.052.851-25.564a28.641,28.641,0,0,1,5.327-13.725,28.689,28.689,0,0,1,12.1-9.545,44.03,44.03,0,0,1,17.757-3.329,45.135,45.135,0,0,1,17.277,3.144,28.439,28.439,0,0,1,12.32,9.435,28.354,28.354,0,0,1,5.549,13.688q.888,7.4.888,25.9v20.5" transform="translate(2990 1050.999)" fill="#7dc2fe"/>
    <path id="path1766" d="M617.331-243.6v26.636q5.256,0,7.363-1.443t2.109-9.36v-6.585q0-5.7-2.035-7.472t-7.437-1.776M586.18-264.1h22.049q22.05,0,29.856,1.7a20.55,20.55,0,0,1,12.727,8.695q4.92,6.992,4.923,22.308,0,13.984-3.479,18.795t-13.688,5.771q9.248,2.294,12.429,6.141a18.358,18.358,0,0,1,3.96,7.067q.774,3.218.777,17.72v31.6H626.8V-184.11q0-9.62-1.517-11.913t-7.955-2.293V-144.3H586.18V-264.1" transform="translate(2990 1050.999)" fill="#7dc2fe"/>
    <path id="path1768" d="M742.045-264.1l-17.869,54.088L743.746-144.3H711.561l-12.617-51.351V-144.3H667.793V-264.1h31.151v46.54l13.873-46.54h29.228" transform="translate(2990 1050.999)" fill="#7dc2fe"/>
    <path id="path1770" d="M601.68-258.457c-8.268,0-10.5-3.051-12.416-5.639l2.664,0,23.675,2.159v3.477a6.693,6.693,0,0,0-2.952-.7c-1.625,0-3.883.467-9.671.673-.449.016-.881.023-1.3.023" transform="translate(2990 1050.999)" fill="#fbf5ef"/>
    <path id="path1772" d="M571.815-247.531c-5.051-3.777-4.127-6.7-5.757-7.112s-3.144-.219-5.368-.877-16.853-6.8-18.827-8.04a14.136,14.136,0,0,1-3.333-3.051c.58,0,1.152.008,1.72.025a15.845,15.845,0,0,0,1.916,1.357l.005,0h0l.011.005h0c2.691,1.412,18.943,8.7,18.943,8.7.057-.057.125-.128.2-.211.283-.281.545-.5.8-.74a4.534,4.534,0,0,0,.9.605,17.412,17.412,0,0,0,3.636,1.281c.612.275,2.163,3.54,2.8,4.6a12.392,12.392,0,0,0,1.872,2.357q.25.544.475,1.1" transform="translate(2990 1050.999)" fill="#fbf5ef"/>
    <path id="path1774" d="M473.335-263.073a1.88,1.88,0,0,1-1.816-1.023h1.188a2.035,2.035,0,0,0,1.107.215c.637,0,1.344-.095,1.659-.115h.013a1.836,1.836,0,0,0,.421-.1h.855a9.859,9.859,0,0,1-3.427,1.023" transform="translate(2990 1050.999)" fill="#fbf5ef"/>
    <path id="path1776" d="M727.482-264.1h-6.6l1.085-.823,5.513.823" transform="translate(2990 1050.999)" fill="#9fcaea"/>
    <path id="path1778" d="M718.39-259.2a6.707,6.707,0,0,1-2.772-.9l5.265-3.992h6.608l-1.713.724c-1.713.724-1.741,1.961-4.5,3.267a7.015,7.015,0,0,1-2.887.9" transform="translate(2990 1050.999)" fill="#fbf5ef"/>
    <path id="path1780" d="M80.9-264.1H74.82l5.978-.113c.034.039.068.076.1.113" transform="translate(2990 1050.999)" fill="#44a1e6"/>
    <path id="path1782" d="M94.24-256.4a31.234,31.234,0,0,1-5.444-.421C78.286-258.711,74.82-264.1,74.82-264.1H80.9c2.025,2.161,5.481,3.637,11.141,3.637q.79,0,1.638-.039c11.51-.532,18.775-1.857,23.143-3.036a42.742,42.742,0,0,0-1.951,4.1A88.629,88.629,0,0,1,94.24-256.4" transform="translate(2990 1050.999)" fill="#fbf5ef"/>
    <path id="path1784" d="M129.751-268.091c-.285-4.532-5.424-6.669-13.366-7.389s-18.379-.768-18.379-.768l.061-.045L79.1-276.926c-1.027,4.177-.841,9.157,3.629,13.392,6.6,6.244,34.3-.356,34.3-.356s-6.326,10.369-8.68,31.244c-1.954,17.36-6.664,28.076-6.664,28.076a47.639,47.639,0,0,0-1,6.335c-.057,1.787.724,1.755,1.61,1.724a3.6,3.6,0,0,1,.994.059c2.613.667,5.706-5.921,5.706-5.921a66.209,66.209,0,0,1,2.069-9.591c2.181-6.408,6.879-16.4,10.689-26.969,5.679-15.708,8.135-27.017,8-29.157" transform="translate(2990 1050.999)" fill="#f0bb8f"/>
    <path id="path1786" d="M99.847-281.119s17.161-1.777,24.017-1.228,7.84-.123,9.475,7.091,1.616,54.744,9.319,61.36c0,0-4.2,2.317-5.843,1.58-2.989-1.339-6.634-11.668-6.634-11.668s2.345-4.439-1.422-11.451c-7.372-13.755-3.76-24.639-2.228-33.048L87.8-269.994l12.045-11.125" transform="translate(2990 1050.999)" fill="#f0bb8f"/>
    <path id="path1788" d="M107.7-227.791l.006.009s3.95-1.637,8.691,2.437c1.764-4.24,3.644-8.844,5.354-13.589,5.679-15.708,8.135-27.017,8-29.157s-1.4-3.767-3.522-4.937l-14.859-.5L99.462-261.087a134.544,134.544,0,0,0,17.566-2.8s-6.326,10.369-8.68,31.244c-.194,1.684-.412,3.3-.646,4.855" transform="translate(2990 1050.999)" fill="#4c3e35"/>
    <path id="path1790" d="M137.2-240.281c.611,12.132,1.989,23.4,5.459,26.384,0,0-4.2,2.317-5.843,1.58-2.989-1.339-6.634-11.668-6.634-11.668s2.345-4.439-1.422-11.451A39.019,39.019,0,0,1,127-239.218a53.968,53.968,0,0,1,10.2-1.044v-.019" transform="translate(2990 1050.999)" fill="#f0bb8f"/>
    <path id="path1792" d="M80.524-281.059l23.817-1.016s18.012-1.556,24.975-1.021,6.015,7.081,6.425,11.227c.525,5.281,1.459,31.109,1.459,31.589v.019a53.978,53.978,0,0,0-10.2,1.044c-4.962-12.463-5.794-18.855-4.406-26.475,0,0-6.175,4.145-28.909,5.2-23.27,1.079-13.156-20.563-13.156-20.563" transform="translate(2990 1050.999)" fill="#614f45"/>
    <path id="path1794" d="M130.181-223.985a7.492,7.492,0,0,0-1.89,6.012,25.173,25.173,0,0,1,.034,7.66l1.587.2.945-7.917s2.968,3.9,3.6,5.932-.3,2.52,7.873,3.548c4.021.508,7.927-.111,7.315-1.7-.409-1.043-5.553-2.847-6.989-3.647,0,0-5.336,1.537-12.477-10.088" transform="translate(2990 1050.999)" fill="#614f45"/>
    <path id="path1796" d="M108.94-201.969c.5-2.34-2.65,4.9-5.107,3.887s-1.9-4.612-2.148-6.488c0,0-5.742,14.757-.239,15.759,3.567.656,6.052-6.461,7.495-13.157" transform="translate(2990 1050.999)" fill="#614f45"/>
    <path id="path1798" d="M106.487-281.723s3.784-11.453,2.881-17.48,6.044-9.788,6.044-9.788l-2.475,26.811-6.45.457" transform="translate(2990 1050.999)" fill="#d6f0ff"/>
    <path id="path1800" d="M109.345-270.353c-4.131,0-19.29-7.827-19.964-8.175.438.06.873.115,1.31.167v.075l17.23,6.088h0l.583.205,24.1-8.813c-2.7,2.915-20.221,10.453-23.259,10.453" transform="translate(2990 1050.999)" fill="#56463d"/>
    <path id="path1802" d="M110.771-293.7l-.352-.2a67.4,67.4,0,0,1,2.483-9.839,11.087,11.087,0,0,0,2.305-3.044L114.1-294.79l-3.33,1.088" transform="translate(2990 1050.999)" fill="#bee6ff"/>
    <path id="path1804" d="M92.723-339.086c-.741,1.693-6.369,2.66-5.491,8.44s10.268.991,10.268.991l2.053-8.647-2.636-3.885-4.193,3.1" transform="translate(2990 1050.999)" fill="#713c1f"/>
    <path id="path1806" d="M107.093-339.7a9.5,9.5,0,0,0-1.253,7.1c.536,1.711,3.695,3.775,1.91,6.343s-11.6-.385-11.6-.385L107.093-339.7" transform="translate(2990 1050.999)" fill="#713c1f"/>
    <path id="path1808" d="M82.933-296.333a71.023,71.023,0,0,0-1.489-7.249c.7-2.123,1.384-4.253,2.2-6.337l.075-.108-.009-.075.013-.032-.02-.043c-1.011-6.913,1.975-13.884,2.889-20.817,4.281-.9,8.263-1.071,8.443-1.809.242-1.015,2.109-9.148,2.109-9.148l8.443,4.839c-1.083,3.784-1.639,8.055.784,8.915,3.128,1.117,7.557,2.031,7.684,7.9s-5.228,16.393-5.009,23.788-3.315,9.092-3.315,9.092L81.65-280.6s2.1-9.847,1.282-15.729" transform="translate(2990 1050.999)" fill="#f0bb8f"/>
    <path id="path1810" d="M113.333-344.372s3.308-2.888,2.607-6.652c-.545-2.919-1.654-8.763-6.473-9.945-5.842-1.421,3.867,16.6,3.867,16.6" transform="translate(2990 1050.999)" fill="#713c1f"/>
    <path id="path1812" d="M113.015-343.337a1.49,1.49,0,0,1-.865,1.949l-1.594.616a1.489,1.489,0,0,1-1.943-.857,1.512,1.512,0,0,1,.853-1.961l1.6-.619a1.522,1.522,0,0,1,1.948.872" transform="translate(2990 1050.999)" fill="#ef384c"/>
    <path id="path1814" d="M114.67-350.738c-.17-4.949-1.941-10.271-8.711-11.124a11.178,11.178,0,0,0-12.409,8.469,21.1,21.1,0,0,0-.149,7.313c.161.828,1.727,3.668,3.516,3.892,2.543.323,17.754-8.551,17.754-8.551" transform="translate(2990 1050.999)" fill="#713c1f"/>
    <path id="path1816" d="M96.876-343.975c.082,1.415-.546,3.36-.9,5.4.464.393,1.254,1.161,1.85,1.612a20.368,20.368,0,0,0,7.71,3.745s-.369-.771-.95-1.905L96.941-344l-.066.024" transform="translate(2990 1050.999)" fill="#e8ab79"/>
    <path id="path1818" d="M96.614-343.818c.313,1.457.321,3.391,2.367,5.487,2.043,2.12,5.386,4.971,6.559,5.116s2.019.592,4.158-2.136,3.621-3.936,4.123-6.933,2.456-9-1-11.756c-2.552-2.045-7.177-1.819-9.866.319-2.713,2.148-2.881,3.053-4.213,6.813,0,0-1.658-2.927-2.442-3.136s-1.525.209-1.278,1.92.678,1.488.626,2.329c-.049.861-.066,1.707.318,2.064.482.436.651-.087.651-.087" transform="translate(2990 1050.999)" fill="#f0bb8f"/>
    <path id="path1820" d="M111.581-354.84s-5.944,8.067-12.891,8.619l-1.626-8.245,6.836-3.871,7.681,3.5" transform="translate(2990 1050.999)" fill="#713c1f"/>
    <path id="path1822" d="M110.219-354.7s2.241,5.2,4.887,7.012c0,0,1.463-6.684-2.024-10.333l-2.863,3.321" transform="translate(2990 1050.999)" fill="#713c1f"/>
    <path id="path1824" d="M79.125-302.669s-3.817-5.381-3.68-9.944c.2-6.485,2.131-16.684,8.424-18.308,1.451-.377,3.679-.419,5.475-.655,1.587-.209,2.859-.364,2.859-.364a11.109,11.109,0,0,0,9.856,8.785c4.987.607,6.1-4.473,6.1-4.473s1.359.355,1.7.475a9.8,9.8,0,0,1,1.334.7s3.7,8.952,4.238,11.075c.717,2.828,2,7.329-2.522,11.645,0,0-5.4,15.247-2.3,25.423,0,0-17.943,2.087-30.382-2.336,0,0,2.614-11.44.986-15.7-.959-2.509-.5-1.843-2.078-6.317" transform="translate(2990 1050.999)" fill="#d6f0ff"/>
    <path id="path1826" d="M114.2-320.517a12.141,12.141,0,0,1-.111,1.341c-1.232-3.216-2.831-7.093-2.9-7.251,1.662,1.041,2.937,2.811,3.006,5.909" transform="translate(2990 1050.999)" fill="#d6f0ff"/>
    <path id="path1828" d="M114.092-319.175c-1.232-3.216-2.831-7.093-2.9-7.251,1.662,1.041,2.937,2.811,3.006,5.909,0,.027,0,.052,0,.079,0,.391-.07.84-.111,1.263" transform="translate(2990 1050.999)" fill="#c5e9ff"/>
    <path id="path1830" d="M80.217-280.651h0m0,0h0m0,0a68.233,68.233,0,0,0,1.5-10.639,0,0,0,0,1,0,0,68.228,68.228,0,0,1-1.5,10.637" transform="translate(2990 1050.999)" fill="#3da1f5"/>
    <path id="path1832" d="M94.585-278.014h0l-3.875-1.4-.018,1.044a49.235,49.235,0,0,1-10.475-2.283h0s0,0,0,0a68.228,68.228,0,0,0,1.5-10.637c4.662,2.613,9.329,4,15.133,6.52l.157-.281c1.425.465,2.435.74,2.757.867.448.177.586.852,1.01,1.489L90.71-279.411l3.875,1.4" transform="translate(2990 1050.999)" fill="#bee6ff"/>
    <path id="path1834" d="M102.507-361.8c-1.286.4-9.266,2.009-11,10.7-.551,2.751-.073,7.149,1.213,12.009l3.369,1.7s.641-3.637.825-4.8a7.647,7.647,0,0,1-3.463-7.4c.551-5.116,5.227-7.763,5.227-7.763l3.827-4.449" transform="translate(2990 1050.999)" fill="#713c1f"/>
    <path id="path1836" d="M85.684-299.071a26.178,26.178,0,0,0-3.6-1.841h0l1.621-9.264a20.717,20.717,0,0,0,2.931-6.532s-.349,7.175-1.162,10.253c-.729,2.759.046,6.616.214,7.384" transform="translate(2990 1050.999)" fill="#bee6ff"/>
    <path id="path1838" d="M108.519-272.99,90.71-279.411l24.3-7.939L132.62-281.8l-24.1,8.811" transform="translate(2990 1050.999)" fill="#c3c6d5"/>
    <path id="path1840" d="M111.036-273.91l19.3-7.055L117.859-284.9,98.292-278.5l12.743,4.593" transform="translate(2990 1050.999)" fill="#827a7f"/>
    <path id="path1842" d="M89.969-287.926a60.51,60.51,0,0,0,9.794,3.739c.742.293.633,1.951,2.382,2.545a6.8,6.8,0,0,0,2.561.284,2.908,2.908,0,0,1,1.286.112c.685.344.48,1.679,1.85,2.423a3.145,3.145,0,0,0,1.9.389,1.881,1.881,0,0,1,.866.076c.689.293,1.871.171,1.679-.477s-1.489-5.2-2.269-5.868-6.393-1.231-8.136-2.041-10.038-6.069-10.038-6.069l-1.879,4.888" transform="translate(2990 1050.999)" fill="#f0bb8f"/>
    <path id="path1844" d="M108.5-271.993l2.268-21.709,24.3-7.941-2.47,20.837-24.1,8.813" transform="translate(2990 1050.999)" fill="#dbdfe8"/>
    <path id="path1846" d="M90.71-279.411l-.02,1.125,17.812,6.293.017-1L90.71-279.411" transform="translate(2990 1050.999)" fill="#c3c6d5"/>
    <path id="path1848" d="M107.92-272.2l-17.23-6.088.02-1.125,17.311,6.241-.1.972" transform="translate(2990 1050.999)" fill="#acb0c3"/>
    <path id="path1850" d="M108.5-271.993l-.583-.205,2.261-21.832.59.328L108.5-271.993" transform="translate(2990 1050.999)" fill="#dbdfe8"/>
    <path id="path1852" d="M108.5-271.993l-.583-.205,2.261-21.832.59.328L108.5-271.993" transform="translate(2990 1050.999)" fill="#cfd2de"/>
    <path id="path1854" d="M135.074-301.643l-.579-.3-24.314,7.912.59.328,24.3-7.941" transform="translate(2990 1050.999)" fill="#ecf0fa"/>
    <path id="path1856" d="M120.3-284.889a2.526,2.526,0,0,0,3.529-.272,2.527,2.527,0,0,0,.392-3.519,2.527,2.527,0,0,0-3.531.275,2.524,2.524,0,0,0-.39,3.516" transform="translate(2990 1050.999)" fill="#fff"/>
    <path id="path1858" d="M77-322.463c-3.172,16.665-6.309,22.967-.694,27.5,6.67,5.388,12.52,6.707,20.544,10.191l2.2-3.945s-.756-.3-4.321-3.459c-4.557-4.033-8.855-7.191-12.65-8.736l1.621-9.264L77-322.463" transform="translate(2990 1050.999)" fill="#d6f0ff"/>
    <path id="path1860" d="M98.9-288.442h0l.154-.276h0l-.154.276" transform="translate(2990 1050.999)" fill="#e0f4ff"/>
    <path id="path1862" d="M98.665-288.026h0l.233-.416h0l-.233.416" transform="translate(2990 1050.999)" fill="#f4ceb1"/>
    <path id="path1864" d="M98.665-288.026c-.024-.021-6-5.184-9-7.215s-7.611-4.784-7.611-4.784l.03-.888c3.8,1.545,8.094,4.7,12.65,8.736,3.566,3.16,4.321,3.459,4.321,3.459l-.154.276-.233.416" transform="translate(2990 1050.999)" fill="#e0f4ff"/>
    <path id="path1866" d="M410.124-145.668l-38.387,3.9V-190.39l36.62,3.9,1.767,40.821" transform="translate(2990 1050.999)" fill="#c9c94f"/>
    <path id="path1868" d="M428.65-165.177a9.247,9.247,0,0,1,6.245,9.167c0,4.685-15.164,17.393-30.327,18.955s-22.743-6.467-22.743-6.467S401.671-149.1,408.358-154s14.719-13.429,20.292-11.176" transform="translate(2990 1050.999)" fill="#694329"/>
    <path id="path1870" d="M409.082-169.766l0-.075h0l0,.075" transform="translate(2990 1050.999)" fill="#d7daa7"/>
    <path id="path1872" d="M402.86-165.772H376.1l-1.961-3.859s.773-10.636,1.164-15.127c-.1,1.164-.9,12.272,3.731,14,2.447.913,9.977,1.141,16.887,1.141,6.836,0,13.063-.223,13.163-.227l0,.075.1,3.687-6.32.308M375.3-184.757c.007-.065.009-.1.009-.1,0,.033-.005.067-.009.1" transform="translate(2990 1050.999)" fill="#bcbf4f"/>
    <path id="path1874" d="M362.064-139.938c-6.328.655-8.335,1.768-9.9,4s1.2,8.249,4.949,9.364,18.763-3.76,23.631-4.889-18.683-8.472-18.683-8.472" transform="translate(2990 1050.999)" fill="#4c3e35"/>
    <path id="path1876" d="M402.563-129.028c3.121,0,7.133,1.336,13.6.892s8.252-2.675,8.029-7.136-3.328-6.915-10.808-5.8-13.052,2.451-13.052,2.451l2.231,9.589" transform="translate(2990 1050.999)" fill="#4c3e35"/>
    <path id="path1878" d="M400.778-125.014c2.969.205,6.245-13.377,5.129-14.94s-10.7-1.34-23.413-7.135-19.624-18.729-25.644-18.063-10.032,5.8-11.148,8.919,3.568,8.7,13.156,14.495,35.453,16.279,41.92,16.724" transform="translate(2990 1050.999)" fill="#7a553c"/>
    <path id="path1880" d="M371.738-154.32c-1.528-1.333-2.948-2.677-4.277-3.941v-1.047l4.277,2.02v2.968" transform="translate(2990 1050.999)" fill="#3983b7"/>
    <path id="path1882" d="M367.46-158.261c-.765-.729-1.5-1.432-2.212-2.092l2.212,1.045v1.047" transform="translate(2990 1050.999)" fill="#d2c6be"/>
    <path id="path1884" d="M373.28-153.01q-.79-.65-1.543-1.309v-2.968l.868.409.675,3.868" transform="translate(2990 1050.999)" fill="#a59c3b"/>
    <path id="path1886" d="M374.022-148.765a37.021,37.021,0,0,1-6.783-3.813c-5.121-3.657-5.364-5.611-4.691-9.051l2.7,1.276c.711.66,1.447,1.363,2.212,2.092,1.329,1.264,2.749,2.608,4.277,3.941q.752.658,1.543,1.309l.741,4.245" transform="translate(2990 1050.999)" fill="#64422d"/>
    <path id="path1888" d="M410.934-150.688l.548-2.443a63.783,63.783,0,0,0,8.3-3.951c4.244-2.333,7.717-5.208,9.471-7.837a10.452,10.452,0,0,1,3.139,2.184c-.824,1.621-13.588,9.289-21.453,12.047" transform="translate(2990 1050.999)" fill="#56341f"/>
    <path id="path1890" d="M373.7-167.093c-1.744.225-3.483.48-5.228.877a36.317,36.317,0,0,1-5.933.924,20.854,20.854,0,0,0,.232,5.289c.876,2.629,12.507,10.228,12.507,10.228s5.28-3.359,6.547-7.012l-8.616-7.42.492-2.887" transform="translate(2990 1050.999)" fill="#f0bb8f"/>
    <path id="path1892" d="M389.622-204.02c-4.681,2.677-11.365,2.745-17.385,4.752s-6.244,5.573-7.581,13.157a179.424,179.424,0,0,0-2.107,20.543,38.766,38.766,0,0,0,6.347-1.021c1.621-.375,4.159-.608,5.779-.807l.635-13.8,20.205-3.213v-19.733l-5.892.127" transform="translate(2990 1050.999)" fill="#c9c94f"/>
    <path id="path1894" d="M415.8-172.138c2.748-2.313,6.2-3.617,9.443-5.105-1.148-1.6-2.371-3.379-3.567-5.417-4.387-7.453-5.309-10.025-9.408-12.423-3.6-2.108-11.788-7.308-13.1-9.063h-3.653v19.733l9.871,2.573s9.548,8.745,10.419,9.7" transform="translate(2990 1050.999)" fill="#c9c94f"/>
    <path id="path1896" d="M415.946-171.974a64.073,64.073,0,0,1,4.125,5.1s-8.527,10.391-10.964,10.379-5.553-.145-6.869.732-7.455,5.263-5.555,5.416a2.861,2.861,0,0,0,1.4-.168c.536-.165,1.363-.329,4.443.015,5.264.584,4.531-.587,7.309-1.9a91.545,91.545,0,0,0,9.939-4.677c5.847-3.215,10.231-7.455,10.669-10.668.315-2.3-2.065-5.139-5.041-9.273-3.245,1.492-6.717,2.736-9.46,5.048" transform="translate(2990 1050.999)" fill="#f0bb8f"/>
    <path id="path1898" d="M389.7-203.589c-1.388,1.079-1.691,3.069-.195,6.384.927,2.044,3.145,7.588,4.86,11.225,0,0,3.121-6.26,5.16-9.321,1.395-2.092,2.353-4.32,1.62-5.883-1.807-3.844-11.445-2.405-11.445-2.405" transform="translate(2990 1050.999)" fill="#f0bb8f"/>
    <path id="path1900" d="M414.463-173.56c-.664.548,1.76,4.223,3.329,4.253,1.443.029,6.609-5.809,8.524-6.461,1.851-.628-1.675-5.008-2.716-4.991s-7.623,5.948-9.137,7.2" transform="translate(2990 1050.999)" fill="#b0b54f"/>
    <path id="path1902" d="M361.584-167.932c-.221.6-.229,4.593.692,5.293s12.292.944,12.689-1.812.765-5.132-.831-5.18-6.591.771-8.7.771-3.409-.276-3.847.928" transform="translate(2990 1050.999)" fill="#b0b54f"/>
    <path id="path1904" d="M374.746-144.613l-3.44-19.709a1.237,1.237,0,0,1,1.22-1.449h40.247a1.237,1.237,0,0,1,1.208,1.508l-4.409,19.651H374.746" transform="translate(2990 1050.999)" fill="#dbdfe8"/>
    <path id="path1906" d="M409.571-144.613H398.427l.877-1.615h10.628l-.361,1.615m-14.427,0h-4.871l1.175-1.615h4.7l-1,1.615m-10.525,0h-9.873l-.281-1.615h11.58l-1.425,1.615" transform="translate(2990 1050.999)" fill="#c1c6d5"/>
    <path id="path1908" d="M396.311-155.741c0,1.132-1.623,2.051-3.624,2.051s-3.625-.919-3.625-2.051,1.623-2.051,3.625-2.051,3.624.92,3.624,2.051" transform="translate(2990 1050.999)" fill="#fff"/>
    <path id="path1910" d="M391.448-146.228h-5.4l6.588-7.463h.055c2,0,3.624-.919,3.624-2.051a1.6,1.6,0,0,0-.76-1.255l7.748-8.776h2.372l-14.223,19.544" transform="translate(2990 1050.999)" fill="#e6e9ef"/>
    <path id="path1912" d="M390.274-144.613h-5.655l1.425-1.615h5.4l-1.175,1.615" transform="translate(2990 1050.999)" fill="#d4d7e2"/>
    <path id="path1914" d="M392.687-153.69h-.055L395.551-157a1.6,1.6,0,0,1,.76,1.255c0,1.132-1.623,2.051-3.624,2.051" transform="translate(2990 1050.999)" fill="#fff"/>
    <path id="path1916" d="M399.3-146.228h-3.157l12.133-19.544h1.652L399.3-146.228" transform="translate(2990 1050.999)" fill="#e6e9ef"/>
    <path id="path1918" d="M398.427-144.613h-3.283l1-1.615H399.3l-.877,1.615" transform="translate(2990 1050.999)" fill="#d4d7e2"/>
    <path id="path1920" d="M396.762-226.873c-1.352-1.663-2.921-6.639,2.167-6.671,6.225-.041,4.68,6.628,2.579,7.876s-4.745-1.205-4.745-1.205" transform="translate(2990 1050.999)" fill="#403834"/>
    <path id="path1922" d="M396.762-226.873l.143.7a3.079,3.079,0,0,0,2.825,1.187c1.977-.14,2.545-.811,2.545-.811v-.6s-4.272.629-5.513-.476" transform="translate(2990 1050.999)" fill="#694329"/>
    <path id="path1924" d="M401.144-201.184c-1.807-3.844-11.445-2.405-11.445-2.405a3.012,3.012,0,0,0-1.119,2.068c.653,1.432,4.771,5.888,12.109,4.167a4.654,4.654,0,0,0,.455-3.829" transform="translate(2990 1050.999)" fill="#e8ab79"/>
    <path id="path1926" d="M394.364-198.573a8.289,8.289,0,0,0,7.481-3.205c1.808-2.4,2.653-5.335,3.553-7.661s2.888-10.013,1.161-12.76-5.017-4.179-7.632-4.673l-4.564,28.3" transform="translate(2990 1050.999)" fill="#f0bb8f"/>
    <path id="path1928" d="M405.592-212.027c.519-.441,1.889-.595,1.749.283s-1.181,1.307-1.417,2.54-.88,2.727-2.187,2.581,1.855-5.4,1.855-5.4" transform="translate(2990 1050.999)" fill="#f0bb8f"/>
    <path id="path1930" d="M394.364-198.573a8.284,8.284,0,0,1-6.088-5.393c-.967-2.849-.849-5.9-.969-8.389s.405-10.413,2.908-12.483,6.076-2.388,8.713-2.035l-4.564,28.3" transform="translate(2990 1050.999)" fill="#f0bb8f"/>
    <path id="path1932" d="M387.936-214.874c-.355-.581-1.607-1.159-1.749-.281s.711,1.612.549,2.859-.024,2.864,1.267,3.136-.067-5.713-.067-5.713" transform="translate(2990 1050.999)" fill="#f0bb8f"/>
    <path id="path1934" d="M406.56-222.2c1.305,2.08.481,7-.384,10.265-.011.019-.792,1.3-1.243,2.276,0,0,.189-5.769-1.516-6.647s-2.017.7-6.2.029l1.708-10.6c2.615.495,5.9,1.923,7.632,4.673" transform="translate(2990 1050.999)" fill="#403834"/>
    <path id="path1936" d="M390.215-224.838c-1.9,1.565-2.657,6.493-2.859,9.872,0,.015.337,1.479.457,2.549,0,0,2.133-5.456,4.029-5.756s1.2,1.221,5.377,1.9l1.708-10.6c-2.637-.353-6.208-.031-8.713,2.035" transform="translate(2990 1050.999)" fill="#403834"/>
    <path id="path1938" d="M394.546-142.976h-.453c-1.671-.439-3.48-.972-5.4-1.636h20.88c-3.863,1.221-9.445,1.637-15.025,1.637" transform="translate(2990 1050.999)" fill="#56341f"/>
    <path id="path1940" d="M394.092-142.977c-8.976-.036-17.821-1.121-19.347-1.636h13.945c1.921.664,3.731,1.2,5.4,1.636" transform="translate(2990 1050.999)" fill="#64422d"/>
    <path id="path1942" d="M724.936-264.1c-1.647-.1-2.392,1.851-4.9,3.06s-4.445,1.384-4.9.533,1.4-5.005,2.021-5.548,5.671-.6,7.223-.279a7.124,7.124,0,0,1,3.112,2.235h-2.556" transform="translate(2990 1050.999)" fill="#f0bb8f"/>
    <path id="path1946" d="M192.07-145.374a7.374,7.374,0,0,1,0,5.745c-.093.279-4.539,1.881-5.187,1.267s-1.781.561-4.931,1.581-11.172,3.147-13.212.829-.648-4.632,2.781-5.56,8.367-4.573,8.828-5.873,11.72,2.011,11.72,2.011" transform="translate(2990 1050.999)" fill="#4c3e35"/>
    <path id="path1948" d="M215.857-140.98a7.611,7.611,0,0,1,0,5.919c-.1.285-4.677,1.935-5.347,1.3s-2.5,1.125-5.744,2.176-9.716,1.923-11.817-.464-.668-4.77,2.863-5.725,9.092-3.044,9.573-4.381,10.472,1.173,10.472,1.173" transform="translate(2990 1050.999)" fill="#4c3e35"/>
    <path id="path1950" d="M216.733-250.517c2.739,6.239.828,15.159,0,25.417s-1.4,24.976,0,33.9,2.115,47.772-.672,50.748c-2.853,3.044-11.868,2.308-13.205.524-.751-1-.732-12.533-1.452-22.845-.568-8.109-1.872-20.341-2.433-24.859-1.275-10.257-4.841-38.8-4.841-38.8v-25.868l22.6,1.789" transform="translate(2990 1050.999)" fill="#a39484"/>
    <path id="path1952" d="M195.881-203.882s-.148,55.617-2.38,58.293-13.54,2.241-14.879.011c-.6-1,.372-10.336.429-21.981.069-14.276-.675-37.195-.429-42.845.447-10.259,1.781-28.665,2.307-36.295s17.415,1.609,17.415,1.609l-2.463,41.208" transform="translate(2990 1050.999)" fill="#a39484"/>
    <path id="path1954" d="M183.924-143.785l8.747-86.942,3.477,19.376-.267,7.469s-.148,55.617-2.38,58.293c-1.215,1.459-5.609,1.984-9.577,1.8" transform="translate(2990 1050.999)" fill="#96897a"/>
    <path id="path1956" d="M180.929-246.7c.372-5.443,7.071-2.651,13.2-.2v-5.4l22.6,1.789c2.739,6.239.828,15.159,0,25.417s-1.4,24.976,0,33.9,2.115,47.772-.672,50.747c-1.557,1.663-5.769,2.193-9.492,2.045.243-6.793,1.569-52.379-.353-56.315-2.1-4.307-.585-41.871-.585-41.871s-15.987-.88-24.543-4.032l-.305-.385c0-2.233.045-4.185.147-5.685" transform="translate(2990 1050.999)" fill="#96897a"/>
    <path id="path1958" d="M176.4-331.63a6.234,6.234,0,0,0-5.259,4.788c-.788,3.4-2.513,10.8-2.513,10.8l6.416,1.292s3.1.072,4.2-1.02a12.429,12.429,0,0,1,3.423-2.508c.919-.361,2.244-2.113,1.5-2.795-.32-.292-.64-.012-1.229.268-.787.375-2.057.749-4.459-.241-4.2-1.732-2.909-6.236-2.909-6.236l.828-4.349" transform="translate(2990 1050.999)" fill="#f0bb8f"/>
    <path id="path1960" d="M176.534-322.4a5.117,5.117,0,0,1-1.139-3.635,36.273,36.273,0,0,1,1.139,3.635" transform="translate(2990 1050.999)" fill="#4397cf"/>
    <path id="path1962" d="M177.185-318.141a3.066,3.066,0,0,1-2.528-1.343,8.675,8.675,0,0,1-.943-8.063c.129-.265.271-.383.419-.383.4,0,.847.827,1.263,1.895a5.117,5.117,0,0,0,1.139,3.635c.161.615.259,1.024.259,1.024l3.065,2.459a6.374,6.374,0,0,1-2.673.776" transform="translate(2990 1050.999)" fill="#e7a879"/>
    <path id="path1964" d="M179.861-328.469c.979-.233,2.085.875,2.469,2.477s-.1,3.095-1.08,3.328-2.083-.873-2.467-2.479S178.881-328.235,179.861-328.469Zm-6.2,4.553c.879,3.667,4.289,5.992,7.62,5.192s4.883-2.6,4-6.263-3.855-7.805-7.184-7.008-5.319,4.415-4.44,8.079" transform="translate(2990 1050.999)" fill="#d6a176"/>
    <path id="path1966" d="M181.25-322.663c-.993.153-2.083-.873-2.467-2.479s.131-2.985,1.077-3.327c1.305-.475,2.868.663,3.252,2.267S182.772-322.893,181.25-322.663Zm-6.507-3.261c1.137,1.216,1.539,3.4,2.049,4.549a3.319,3.319,0,0,0,1.124,1.168v.013c.3,1.217,1.335.737,1.941,1.279s2.167.667,2.391-.137c0,0,.8,2.009,2.337-.324a6.538,6.538,0,0,0,.756-1.719c.857-2.885.7-7.417-2.085-9.656a5.913,5.913,0,0,0-7.511-.461c-.993.763-2.133,4.073-1,5.288" transform="translate(2990 1050.999)" fill="#ef384c"/>
    <path id="path1968" d="M176.885-326.27a.246.246,0,0,0,.244.243.24.24,0,0,0,.24-.243.239.239,0,0,0-.24-.241.244.244,0,0,0-.244.241" transform="translate(2990 1050.999)" fill="#d9293c"/>
    <path id="path1970" d="M176.916-326.4a.24.24,0,0,0,.237.241.245.245,0,0,0,.245-.241.244.244,0,0,0-.245-.243.239.239,0,0,0-.237.243" transform="translate(2990 1050.999)" fill="#f2f2eb"/>
    <path id="path1972" d="M183.216-322.259a.242.242,0,0,0,.243.241.241.241,0,0,0,.24-.241.241.241,0,0,0-.24-.241.242.242,0,0,0-.243.241" transform="translate(2990 1050.999)" fill="#d9293c"/>
    <path id="path1974" d="M183.24-322.389a.244.244,0,0,0,.243.243.24.24,0,0,0,.24-.243.24.24,0,0,0-.24-.243.244.244,0,0,0-.243.243" transform="translate(2990 1050.999)" fill="#f2f2eb"/>
    <path id="path1976" d="M182.208-330.183a.242.242,0,0,0,.243.243.241.241,0,0,0,.24-.243.241.241,0,0,0-.24-.241.242.242,0,0,0-.243.241" transform="translate(2990 1050.999)" fill="#d9293c"/>
    <path id="path1978" d="M182.234-330.311a.24.24,0,0,0,.24.243.244.244,0,0,0,.243-.243.244.244,0,0,0-.243-.243.24.24,0,0,0-.24.243" transform="translate(2990 1050.999)" fill="#f2f2eb"/>
    <path id="path1980" d="M176.6-328.285l.123.124.125-.124-.125-.124-.123.124" transform="translate(2990 1050.999)" fill="#d9293c"/>
    <path id="path1982" d="M176.616-328.351l.12.124.125-.124-.125-.125-.12.125" transform="translate(2990 1050.999)" fill="#f2f2eb"/>
    <path id="path1984" d="M181.481-321.446a.23.23,0,0,0,.231.229.23.23,0,0,0,.229-.229.23.23,0,0,0-.229-.231.23.23,0,0,0-.231.231" transform="translate(2990 1050.999)" fill="#d9293c"/>
    <path id="path1986" d="M181.508-321.57a.229.229,0,0,0,.228.229.23.23,0,0,0,.232-.229.229.229,0,0,0-.232-.228.228.228,0,0,0-.228.228" transform="translate(2990 1050.999)" fill="#f2f2eb"/>
    <path id="path1988" d="M184.474-324.4l.139.137.141-.137-.141-.139-.139.139" transform="translate(2990 1050.999)" fill="#d9293c"/>
    <path id="path1990" d="M184.49-324.474l.137.137.139-.137-.139-.14-.137.14" transform="translate(2990 1050.999)" fill="#f2f2eb"/>
    <path id="path1992" d="M175.044-329l.135.139.141-.139-.141-.14-.135.14" transform="translate(2990 1050.999)" fill="#d9293c"/>
    <path id="path1994" d="M175.058-329.071l.136.137.14-.137-.14-.14-.136.14" transform="translate(2990 1050.999)" fill="#f2f2eb"/>
    <path id="path1996" d="M178.773-322.15l.137.139.139-.139-.139-.139-.137.139" transform="translate(2990 1050.999)" fill="#d9293c"/>
    <path id="path1998" d="M178.788-322.225l.137.139.139-.139-.139-.139-.137.139" transform="translate(2990 1050.999)" fill="#f2f2eb"/>
    <path id="path2000" d="M177.326-330.783a.228.228,0,0,0,.228.229.23.23,0,0,0,.231-.229.229.229,0,0,0-.231-.228.228.228,0,0,0-.228.228" transform="translate(2990 1050.999)" fill="#d9293c"/>
    <path id="path2002" d="M177.35-330.906a.228.228,0,0,0,.228.229.227.227,0,0,0,.228-.229.229.229,0,0,0-.228-.229.23.23,0,0,0-.228.229" transform="translate(2990 1050.999)" fill="#f2f2eb"/>
    <path id="path2004" d="M184.256-328.545l.127.124.125-.124-.125-.125-.127.125" transform="translate(2990 1050.999)" fill="#d9293c"/>
    <path id="path2006" d="M184.272-328.611l.123.124.127-.124-.127-.124-.123.124" transform="translate(2990 1050.999)" fill="#f2f2eb"/>
    <path id="path2008" d="M177.278-324.27l.336-.061-.06-.336-.336.059.06.339" transform="translate(2990 1050.999)" fill="#d9293c"/>
    <path id="path2010" d="M177.185-324.366l.337-.06-.057-.339-.339.061.059.337" transform="translate(2990 1050.999)" fill="#f2f2eb"/>
    <path id="path2012" d="M179.112-320.1l.339-.059-.06-.337-.336.06.057.336" transform="translate(2990 1050.999)" fill="#d9293c"/>
    <path id="path2014" d="M179.025-320.193l.336-.059-.063-.339-.337.063.064.335" transform="translate(2990 1050.999)" fill="#f2f2eb"/>
    <path id="path2016" d="M179.4-329.4l.336-.06-.063-.336-.333.06.06.336" transform="translate(2990 1050.999)" fill="#d9293c"/>
    <path id="path2018" d="M179.309-329.5l.336-.059-.06-.337-.335.06.059.336" transform="translate(2990 1050.999)" fill="#f2f2eb"/>
    <path id="path2020" d="M177.917-320.194c1.377.455,1.687.944,3.264.828.393-.028.873-.572,1.449-.316,1.6.707,2.549-.905,2.787-1.74l-.075.327a6.535,6.535,0,0,1-.756,1.719c-1.536,2.333-2.337.324-2.337.324-.224.8-1.788.679-2.391.137s-1.641-.061-1.941-1.279" transform="translate(2990 1050.999)" fill="#d9293c"/>
    <path id="path2022" d="M185.638-322.45c-.029.18-.065.353-.1.527.031-.167.067-.341.1-.527" transform="translate(2990 1050.999)" fill="#d9293c"/>
    <path id="path2024" d="M216.109-253.673l1.124,4.488s-7.448,9.072-36.367,3.051l.063-4.136,35.18-3.4" transform="translate(2990 1050.999)" fill="#4c3e35"/>
    <path id="path2026" d="M210.51-315.014c7.769,4.465,13.011,4.465,13.011,9.319s-3.108,14.949-4.272,22.521-2.559,27.56-3.14,29.5-16.347,9.423-35.18,3.4c0,0,4.819-56.568,6.175-59.869s.284-2.681,9.615-3.847a100.878,100.878,0,0,1,13.792-1.028" transform="translate(2990 1050.999)" fill="#4a4d8f"/>
    <path id="path2028" d="M218.4-293.1a7.981,7.981,0,0,1-.905-1.236c0-.392-1.524-17.953-1.524-17.953,3.116.848,7.592,1.055,9.975,3.767,3.972,4.523,6.419,12.964,8.871,16.395,3.92,5.493,8.376,13.468,7.307,16.8-2.216,6.928-8.237,6.584-10.067,5.8s-12.207-11.129-16.524-16.752c0,0,.144-2.4,2.868-6.821" transform="translate(2990 1050.999)" fill="#4a4d8f"/>
    <path id="path2030" d="M233.306-284.075s-8.655-8.153-13.283-10.232l-1.485.964-5.748-5.433,1.86-3.808s13.88,10.82,18.656,18.509" transform="translate(2990 1050.999)" fill="#303269"/>
    <path id="path2032" d="M206.122-285.986h5.7a.914.914,0,0,0,.912-.861l1.516-15.78H203.869l1.341,15.78a.912.912,0,0,0,.912.861" transform="translate(2990 1050.999)" fill="#f8f3e0"/>
    <path id="path2034" d="M214.65-302.585v-1.192H203.461v1.192H214.65" transform="translate(2990 1050.999)" fill="#694329"/>
    <path id="path2036" d="M205.222-306h7.493l1.395,2.223H204L205.222-306" transform="translate(2990 1050.999)" fill="#7a553c"/>
    <path id="path2038" d="M206.122-295.03c0,2.888,1.272,5.228,2.847,5.228s2.849-2.34,2.849-5.228-1.277-5.232-2.849-5.232-2.847,2.341-2.847,5.232" transform="translate(2990 1050.999)" fill="#759ee0"/>
    <path id="path2040" d="M191-313.061c-4.661-.227-18.5,10.535-18.5,10.535l4.076-11.935-8.144-3.679s-7.459,16.433-7.059,22.228c.344,5.049,2.832,6.909,8.753,5.852s15.455-3.435,15.455-3.435L191-313.061" transform="translate(2990 1050.999)" fill="#4a4d8f"/>
    <path id="path2042" d="M218.538-293.343c-1.44-2.093-.389-4.968-5.489-6.669s-3.531,5.771-3.531,6.947,1.173,4.821,6.011,6.783c5.011,2.033,3.009-7.06,3.009-7.06" transform="translate(2990 1050.999)" fill="#f0bb8f"/>
    <path id="path2044" d="M199.868-323.871l6.771,2.376,4.911.592s.012,5.885,1.241,8.063c0,0-3.071,1.971-8.711,1.719-5.141-.228-7.361-1.4-7.361-1.4,2.159-1.257,3.149-11.345,3.149-11.345" transform="translate(2990 1050.999)" fill="#f0bb8f"/>
    <path id="path2054" d="M197.844-314.123h1.326v-4.9h-1.326Z" transform="translate(2990 1050.999)" fill="#4397cf"/>
    <path id="path2050" d="M197.844-314.123a24.906,24.906,0,0,0,1.325-4.9,25.008,25.008,0,0,1-1.323,4.9h0" transform="translate(2990 1050.999)"/>
    <path id="path2056" d="M197.468-313.365h0a6.564,6.564,0,0,0,.379-.757h0a6.484,6.484,0,0,1-.379.759" transform="translate(2990 1050.999)" fill="#474579"/>
    <path id="path2058" d="M211.75-317.257c-.009-.087-.017-.173-.025-.259.009.084.02.169.031.256l-.005,0m-12.58-1.772a0,0,0,0,1,0,0,0,0,0,0,0,0,0m7.468-2.467-4.884-1.715h0l4.884,1.715" transform="translate(2990 1050.999)" fill="#4397cf"/>
    <path id="path2060" d="M199.527-313.062a6.386,6.386,0,0,1-2.06-.3,6.484,6.484,0,0,0,.379-.759,25.006,25.006,0,0,0,1.323-4.9s0-.005,0-.008a0,0,0,0,1,0,0c.159-.857.289-1.687.393-2.411.891-.789,1.736-1.437,2.189-1.767l4.884,1.715,4.911.592h0a22.8,22.8,0,0,0,.176,3.388c.008.085.016.172.025.259-2.724,1.6-8.247,4.195-12.223,4.195" transform="translate(2990 1050.999)" fill="#e7a879"/>
    <path id="path2062" d="M198.1-336.9c-2.013,2.26-1.18,4.669-1.447,6.029s-1.767,3.328-1.485,5.895c.307,2.781.907,9.087,3.168,9.7,3.837,1.039,9.528-1.663,10.719-2.185,2.164-.952,3.321-1.881,3.939-4.2a4.145,4.145,0,0,0,1.228-.791,12.647,12.647,0,0,0,2.607-3.285c.4-.917.507-2.095-.772-1.963-1.337.131-2.4,1.753-2.4,1.753s-.372-6.871-3.895-9.109-10.253-3.431-11.665-1.847" transform="translate(2990 1050.999)" fill="#f0bb8f"/>
    <path id="path2064" d="M197.156-335.322a12.764,12.764,0,0,1,2.469-6.008c1.671-2.076,6.227-3.792,9.819-3.069,4.772.961,9.8,5.584,9.709,9.984-.077,3.876-1.145,4.46-2.427,6.965,0,0-1.572-1.243-3.879,2.719l-.879.044s1.793-10.091-5.757-9.909c-7.025.167-8.091.1-9.056-.725" transform="translate(2990 1050.999)" fill="#20323b"/>
    <path id="path2066" d="M212.166-316.267l3.8,3.973a29.383,29.383,0,0,1-14.4,6l-.764-5.491s8.048-1.316,11.363-4.484" transform="translate(2990 1050.999)" fill="#f8f3e0"/>
    <path id="path2068" d="M201.568-311.478l-3.767-3.536-2.467,1.228,2.467,6.6,3.767-4.295" transform="translate(2990 1050.999)" fill="#f8f3e0"/>
    <path id="path2070" d="M220.023-294.307s-3.84,1.008-5.777,7.863l8.8,8.64-.852-8.181-2.175-8.321" transform="translate(2990 1050.999)" fill="#4a4d8f"/>
    <path id="path2072" d="M214.246-286.445a15.865,15.865,0,0,1,2.168-4.795c2.4,2.941,9.089,11.125,13,15.52,3.8,4.279,7.212,5.82,9.5,5.144a7.579,7.579,0,0,1-6.857,1.044c-1.065-.456-5.028-4.157-9-8.275h0l-8.8-8.64" transform="translate(2990 1050.999)" fill="#303269"/>
    <path id="path2074" d="M170.745-298.075l1.761-4.451s9.644-7.5,15.541-9.833c-5.427,3.319-17.3,14.284-17.3,14.284" transform="translate(2990 1050.999)" fill="#303269"/>
    <path id="path2078" d="M293.266-250.946c.019-.711.045-1.471.077-2.263h0c.976-1.552,4.663-3.2,6.568-3.2.068,0,.133,0,.2.005a37.817,37.817,0,0,1,6.717,2.089c.037.849.069,1.672.095,2.449a28.82,28.82,0,0,0-5.129-.465,26.348,26.348,0,0,0-8.524,1.387" transform="translate(2990 1050.999)" fill="#fbf5ef"/>
    <path id="path2080" d="M279.95-214.191a30.143,30.143,0,0,1-1.879,7.776c-1.437,4.2-5.52,10.343-2.833,12.511,2.507,2.024,7.184,2.395,9.452,1.309s3.671-4.9,4.187-8.3.183-5.52.968-5.849,1.691-1.029,1.744-3.221a61.911,61.911,0,0,0-.431-6.325l-11.208,2.1" transform="translate(2990 1050.999)" fill="#7a553c"/>
    <path id="path2082" d="M279.966-211.127c4.161,2.273,10.253.495,10.253.495s.913,2.737-.368,3.132-1.26,2.333-1.528,4.163-2.211,8.641-5.156,9.567-7.929-.133-8.548-2.489l-.26.339a2.535,2.535,0,0,0,.879,2.017c2.507,2.024,7.184,2.395,9.452,1.309s3.671-4.9,4.187-8.3.183-5.52.968-5.849,1.691-1.032,1.744-3.221a52.545,52.545,0,0,0-.34-5.5c-2.509.239-4.943.6-4.943.6l-6.34,3.741" transform="translate(2990 1050.999)" fill="#694329"/>
    <path id="path2084" d="M319.935-215.173a30,30,0,0,0,2.58,7.569c1.817,4.048,6.445,9.8,3.968,12.2-2.311,2.241-6.935,3.04-9.291,2.168s-4.105-4.549-4.932-7.887-.687-5.48-1.5-5.737-1.779-.868-2.032-3.045a62,62,0,0,1-.149-6.34l11.355,1.069" transform="translate(2990 1050.999)" fill="#7a553c"/>
    <path id="path2086" d="M320.149-211.11c-4.161,1.705-10.116.421-10.116.421s-.659,2.811.655,3.085,1.467,2.209,1.9,4,2.992,8.405,6.011,9.056,7.883-.857,8.283-3.261l.292.315a2.542,2.542,0,0,1-.692,2.089c-2.311,2.241-6.935,3.04-9.291,2.168s-4.105-4.549-4.932-7.887-.685-5.48-1.5-5.737-1.779-.868-2.032-3.045a52.944,52.944,0,0,1-.164-5.507c2.52.009,4.976.143,4.976.143l6.607,4.156" transform="translate(2990 1050.999)" fill="#694329"/>
    <path id="path2088" d="M336.25-288.481c-.305-1.373-2.521-4.609-4.112-7.628-.456-1.109-.961-2.315-1.489-3.549l0-.008v0c-1.423-3.312-3.008-9.44-4.263-11.547-2.977-5-4.405-8.191-10.084-10.085s-11.52-3.995-11.52-3.995l-14.255-.6c-3.131,1.245-13.541,4.9-16.245,6.791s-7.439,12.945-10.548,24.3c-.235.86-.437,1.623-.621,2.341h0a29.3,29.3,0,0,0-1.315,12.537c.287,1.843,3.973,3.688,6.141,4.444s10.355-2.969,10.355-2.969l1.513,7.635,40.137-2.168.176-9.653s1.605,3.253,3.883,4.231,5.2,3.145,9,0,3.685-8.133,3.252-10.084" transform="translate(2990 1050.999)" fill="#ffd765"/>
    <path id="path2090" d="M274.983-312.245c.121,3.071-.775,17.251-2.949,19.3s-3.84,2.431-4.989,4.092c0,0,1.917-1.393,2.941-1.081,0,0-2.559,1.839-2.175,3.893a7.754,7.754,0,0,1,4.733-3.065c3.5-.921,4.351-3.328,4.351-5.247s-.881-13.8-1.912-17.889" transform="translate(2990 1050.999)" fill="#ffc92e"/>
    <path id="path2092" d="M314.551-303.007l-.543-7.881,2.787,8.4Z" transform="translate(2990 1050.999)" fill="#ffc92e"/>
    <path id="path2094" d="M276.994-289.109c-2.625.253-4.869,7.053-3.719,9.359s6.527,0,6.527,0v-7.3s.012-2.331-2.808-2.06" transform="translate(2990 1050.999)" fill="#ffc92e"/>
    <path id="path2096" d="M293.343-253.209c1.011-1.607,4.928-3.32,6.764-3.2s7.957,2.572,7.957,2.572l4.525-20.815H288.109l-2.081,10.721,7.316,10.719" transform="translate(2990 1050.999)" fill="#4c3e35"/>
    <path id="path2098" d="M323.639-291.421c.591-.5,4.173-1.287,4.812,0s1.024,7.135.385,8.5-5.679.683-6.359,0-2.091-2.417-1.129-3.724a29.464,29.464,0,0,0,2.291-4.773" transform="translate(2990 1050.999)" fill="#ffc92e"/>
    <path id="path2100" d="M280.274-272.974c-2.78.308-6.293,2.732-5.9,10.569s2.693,41.747,2.523,44.929a53.144,53.144,0,0,0,0,5.753s10.356,2.7,16.968-.611c0,0-.735-32.077-.613-37.952s.857-16.037.613-18.119,0-6.083-13.589-4.571" transform="translate(2990 1050.999)" fill="#4c3e35"/>
    <path id="path2102" d="M293.25-250.285c.124-5.877.857-16.037.613-18.119-.185-1.584-.107-4.268-6.024-4.8-.865,8.979,1.133,55.095,1.451,62.239a15.535,15.535,0,0,0,4.573-1.364s-.735-32.077-.613-37.952" transform="translate(2990 1050.999)" fill="#614f45"/>
    <path id="path2104" d="M319.939-272.974c2.779.308,6.292,2.732,5.9,10.569s-2.692,41.747-2.521,44.929a53.552,53.552,0,0,1,0,5.753s-10.356,2.7-16.968-.611c0,0,.735-32.077.613-37.952s-.857-16.037-.613-18.119,0-6.083,13.589-4.571" transform="translate(2990 1050.999)" fill="#4c3e35"/>
    <path id="path2106" d="M306.963-250.285c-.123-5.877-.857-16.037-.613-18.119.185-1.584.107-4.268,6.024-4.8.868,8.979-1.133,55.095-1.452,62.239a15.514,15.514,0,0,1-4.572-1.364s.735-32.077.613-37.952" transform="translate(2990 1050.999)" fill="#614f45"/>
    <path id="path2108" d="M290.61-328.79c.336,1.259-.532,5.428-.444,6.125s3.676,6.32,8.2,6.408,8.372-4.911,8.2-5.665a39.337,39.337,0,0,1-.8-6.1c0-1.836-15.151-.772-15.151-.772" transform="translate(2990 1050.999)" fill="#a55f3e"/>
    <path id="path2110" d="M289.286-331.4c-.365.967.112,3.437.775,4.969s4.181,5.811,8.64,6.432,7.495-4.593,8.007-5.967a15.37,15.37,0,0,0,.543-5.505l-17.964.071" transform="translate(2990 1050.999)" fill="#151724"/>
    <path id="path2112" d="M286.375-336.151c-.621.193-.3,1.387.577,2.485s.375,2.4.912,2.867,1.385-.256,1.385-.256a10.91,10.91,0,0,0,9.525,5.855c5.552-.012,7.7-3.215,8.475-6.267,0,0,.824.539,1.161-.531s.361-2.831.772-3.559.415-2.265-.624-2.133-2.4-7.192-2.4-7.192a27.72,27.72,0,0,0-2.74-2.725c-.225.031-12.68,1.884-12.68,1.884l-3.065,6.9-1.3,2.673" transform="translate(2990 1050.999)" fill="#a55f3e"/>
    <path id="path2114" d="M288.913-333.454s-.413-4.589-2.537-2.7c0,0-1.525-10.164,1.124-10.383,0,0-.2-5.576,5.14-5.5s9.692.037,9.711-1.981c0,0,3.6,2.208,2.451,4.408,0,0,3.629,1,3.809,5.865a35.339,35.339,0,0,1-.051,6.055,2.76,2.76,0,0,0-1.48,1.556,27.225,27.225,0,0,0-1.215-5.475,8.108,8.108,0,0,0-2.056-3.571c-.331.268-6.893,3.1-13.019,1.831,0,0-.764,7.995-1.877,9.895" transform="translate(2990 1050.999)" fill="#151724"/>
    <path id="path2116" d="M289.166-330.61l-.007-1.812a5.457,5.457,0,0,0,3.388,3.323c2.547.733,3.5-.56,6.173-.948s3.408.6,5.091.259c2-.412,3.281-3.237,3.281-3.237a23.233,23.233,0,0,1,.205,2.888c-.032,1.119-5,5.995-5.125,6.151s-6.776.672-6.776.672l-5.74-5.395-.491-1.9" transform="translate(2990 1050.999)" fill="#151724"/>
    <path id="path2118" d="M302.513-327.8c.241.56-1.109,1.407-2.837,1.407s-3.133-.557-3.128-1.079c.005-.448,1.444-1.176,3.171-1.176s2.621.448,2.795.848" transform="translate(2990 1050.999)" fill="#a55f3e"/>
    <path id="path2120" d="M276.458-302.082,278.765-273l.029.031h41.167l.031-.031,1.905-29.729a.981.981,0,0,0-.959-1.075l-43.548.633a.984.984,0,0,0-.932,1.093" transform="translate(2990 1050.999)" fill="#dbdfe8"/>
    <path id="path2122" d="M303.755-287.525a4.131,4.131,0,0,1-4.277,3.967,4.131,4.131,0,0,1-4.277-3.967,4.131,4.131,0,0,1,4.277-3.967,4.131,4.131,0,0,1,4.277,3.967" transform="translate(2990 1050.999)" fill="#fff"/>
    <path id="path2124" d="M319.973-272.974h-.012l.031-.031.107-1.676h.012L320-273l-.029.031" transform="translate(2990 1050.999)" fill="#3d95e1"/>
    <path id="path2126" d="M319.961-272.974H299.009l.751-1.707H320.1L319.991-273l-.031.031m-23.184,0H289.41l1.068-1.707h7.116l-.817,1.707" transform="translate(2990 1050.999)" fill="#c1c6d5"/>
    <path id="path2128" d="M285.011-272.974H278.8l-.028-.031-.135-1.676H286.2l-1.185,1.707" transform="translate(2990 1050.999)" fill="#c1c6d5"/>
    <path id="path2130" d="M306.3-303.6h0" transform="translate(2990 1050.999)" fill="#ffdf84"/>
    <path id="path2132" d="M290.478-274.681H286.2l9.005-12.955c0,.036,0,.073,0,.111a3.842,3.842,0,0,0,1.453,2.979l-6.176,9.865m7.127-16.412,8.693-12.5h2.283l-7.713,12.319a4.57,4.57,0,0,0-1.389-.213,4.561,4.561,0,0,0-1.873.4" transform="translate(2990 1050.999)" fill="#e2e5ed"/>
    <path id="path2134" d="M296.654-284.546a3.841,3.841,0,0,1-1.453-2.979c0-.037,0-.075,0-.111l2.4-3.457a4.561,4.561,0,0,1,1.873-.4,4.569,4.569,0,0,1,1.389.213l-4.213,6.732" transform="translate(2990 1050.999)" fill="#fff"/>
    <path id="path2136" d="M289.41-272.974h-4.4l1.185-1.707h4.281l-1.068,1.707" transform="translate(2990 1050.999)" fill="#cdd1dd"/>
    <path id="path2138" d="M299.759-274.681h-2.165l4.743-9.893a3.836,3.836,0,0,0,1.419-2.951v-.009l7.735-16.133,1.035-.015-12.765,29" transform="translate(2990 1050.999)" fill="#e2e5ed"/>
    <path id="path2140" d="M302.337-284.574l1.419-2.96v.009a3.836,3.836,0,0,1-1.419,2.951" transform="translate(2990 1050.999)" fill="#fff"/>
    <path id="path2142" d="M299.009-272.974h-2.232l.817-1.707h2.165l-.751,1.707" transform="translate(2990 1050.999)" fill="#cdd1dd"/>
    <path id="path2144" d="M320.133-294.291c-2.381.021-4.723,0-5.464.411s-1.516.707-1.711,1.388a3.085,3.085,0,0,0,1,2.377c.575.367,1.189,1.576,1.476,1.685s2.977.3,3.6,1.441,2.729.78,3.653,1.719a3.579,3.579,0,0,0,3.441.951c.945-.375,1.628-4.291,1.181-4.875s-1.944-1.725-3.165-2.948c-.667-.667-2.356-2.163-4.005-2.149" transform="translate(2990 1050.999)" fill="#a55f3e"/>
    <path id="path2146" d="M277.553-288.286c-2.276,1.605-2.113,8.405.637,8.045l-.637-8.045" transform="translate(2990 1050.999)" fill="#a55f3e"/>
    <path id="path2148" d="M311.714-341.2a1.755,1.755,0,0,0,1.756,1.756,1.754,1.754,0,0,0,1.752-1.756,1.754,1.754,0,0,0-1.752-1.755,1.755,1.755,0,0,0-1.756,1.755" transform="translate(2990 1050.999)" fill="#fff"/>
    <path id="path2150" d="M317.579-343.591a2.385,2.385,0,0,0,2.387,2.387,2.385,2.385,0,0,0,2.387-2.387,2.385,2.385,0,0,0-2.387-2.387,2.385,2.385,0,0,0-2.387,2.387" transform="translate(2990 1050.999)" fill="#fff"/>
    <path id="path2152" d="M322.945-347.671a3.309,3.309,0,0,0,3.307,3.311,3.309,3.309,0,0,0,3.312-3.311,3.308,3.308,0,0,0-3.312-3.312,3.308,3.308,0,0,0-3.307,3.312" transform="translate(2990 1050.999)" fill="#fff"/>
    <path id="path2160" d="M642.922-218.39a40.205,40.205,0,0,0-1.031,5.553,8.174,8.174,0,0,0,1.033,4.147c.8.9,4.216,1.941,4.791,1.275s1.7-1.164,2.036-.593a10.59,10.59,0,0,0,6.973,3.457c4.071.425,8.415.453,10.027-1.039a3.194,3.194,0,0,0,.488-4.5c-.932-1.227-11.936-4.275-13.2-6.912l-11.119-1.385" transform="translate(2990 1050.999)" fill="#4c3e35"/>
    <path id="path2162" d="M615.009-284.733s32.624,10.279,39.552,12.96,11.171,6.255,10.947,10.28-4.692,17.873-4.916,22.119-3.176,24.272-3.551,24.644-10.849,1.4-15.059-1.868c0,0,3.553-23.573,3.553-24.977s-3.087-19.363-3.087-19.363S609.9-275.53,611.021-275.25s3.988-9.483,3.988-9.483" transform="translate(2990 1050.999)" fill="#303269"/>
    <path id="path2164" d="M674.374-209.15c.86,2.329,3.392,4.956,4.559,5.248s4.575-.779,4.672-1.653.741-1.919,1.344-1.641a10.586,10.586,0,0,0,7.705-1.084c3.6-1.947,7.205-4.38,7.691-6.521a3.19,3.19,0,0,0-2.141-3.991c-1.459-.487-12.264,3.212-14.795,1.753l-9.035,7.889" transform="translate(2990 1050.999)" fill="#4c3e35"/>
    <path id="path2166" d="M587.971-271.327c3.8,5.809,5.811,10.5,15.643,10.727s11.844,2.012,20.781,6.477,15.417,7.375,15.417,7.375,19.217,27.04,21.675,30.612,6.231,8.94,8.365,8.94,13.309-6.927,15.1-10.279c0,0-19.885-25.024-21.675-27.037s-7.373-13.183-10.949-16.76-45.807-26.588-45.807-26.588-12.513,6.479-15.643,9.16-2.905,7.373-2.905,7.373" transform="translate(2990 1050.999)" fill="#4a4d8f"/>
    <path id="path2168" d="M587.553-332.9c2.42-2.629,2.219-7.224,2.219-7.224l12.637.481s-.68,7.672.377,10.52-10.809,4.448-15.233-3.777" transform="translate(2990 1050.999)" fill="#f0bb8f"/>
    <path id="path2170" d="M665.749-312.655c.659.248.391.693.556,1.127s-.389,1.095-.535,1.616a2.142,2.142,0,0,1-1.092,1.452c-.788.505-5.243,1.14-5.981,1.735,0,0-1.909-1.969-1.623-2.252s8.675-3.677,8.675-3.677" transform="translate(2990 1050.999)" fill="#e8ab79"/>
    <path id="path2172" d="M641.048-258.893c-6.188-5.784-38.855-13.065-40.744-16.088,0,0-8.007.343-12.224,1.957a10.646,10.646,0,0,0-.109,1.7c3.8,5.809,5.811,10.5,15.643,10.727s11.844,2.012,20.781,6.477,15.417,7.375,15.417,7.375,19.217,27.04,21.675,30.612,6.231,8.94,8.365,8.94c1.113,0,4.667-1.879,8.075-4.151,0-.007-30.692-41.763-36.879-47.545" transform="translate(2990 1050.999)" fill="#303269"/>
    <path id="path2174" d="M651.528-304.175c-.16-1.763-.507-3.8-.935-4.236l-.273.047-1.376.227-3.325.545-6.016.995c-3.876.577-8.153,1.075-8.725.607-.865-.712-12.32-18.957-15.265-22.183s-4.343-1.876-12.323-3.856c0,0,7.54,21.8,8.513,23.2s13.84,13.043,14.977,13.368,7.62-.037,12.928-2.573c.973-.465,1.969-.987,2.96-1.52l.031-.011c2.305-1.195,8.837-1.941,8.837-1.941a9.119,9.119,0,0,0-.008-2.672" transform="translate(2990 1050.999)" fill="#ffd765"/>
    <path id="path2176" d="M602.3-332.283l6.271,1.6s4.383,8.743,4.492,13.3,2.708,15.724,3.853,18.176,5.229,15.945,5.263,16.625-11.847.352-16.908,4.135-15.688,10.465-17.3,10.088-3.089-7.151-3.911-9.963-1.356-26.756-1.356-26.756,6.928-15.611,7.257-15.852,8.911-8.013,8.911-8.013l3.429-3.345" transform="translate(2990 1050.999)" fill="#ffd765"/>
    <path id="path2178" d="M605.271-278.442c5.061-3.783,16.94-3.451,16.908-4.135s-4.115-14.172-5.263-16.625c-1-2.151-3.123-10.991-3.705-16.212l-1.608-3.132c1.667,6.432,2.028,23.643-28.464,27.52.232,5.779.547,11.432.92,12.709.821,2.812,2.293,9.583,3.909,9.963s12.239-6.3,17.3-10.088" transform="translate(2990 1050.999)" fill="#ffc92e"/>
    <path id="path2180" d="M587.553-332.9c-2.8,1.345-11.56,3.231-12.692,4.813s-2.543,12-3.681,19.619-2.156,17.269-1.457,19.2,4.039,2.971,5.728,3.491,19.964-3.236,20.884-4.348a35.1,35.1,0,0,0-.975-6.773s-10.273-.075-14.771.5a75,75,0,0,0,2.113-8.676l16.168-23.865L587.553-332.9" transform="translate(2990 1050.999)" fill="#ffd765"/>
    <path id="path2182" d="M600.733-296.082c-12.221-.136-17.749-15.692-17.781-18.105l-.249,7.567.283,10.093,17.748.445" transform="translate(2990 1050.999)" fill="#ffc92e"/>
    <path id="path2184" d="M582.952-314.187l0-.3s0,.12,0,.3" transform="translate(2990 1050.999)" fill="#ffc92e"/>
    <path id="path2186" d="M601.908-303.275l1.872,12.1s4.127,2.039,7.823-.381l-.608-12.415-9.087.7" transform="translate(2990 1050.999)" fill="#f8f3e0"/>
    <path id="path2188" d="M600.733-304.269c.077.263.675,1.564.675,1.564l10.093-.848-.092-1.9-10.676,1.185" transform="translate(2990 1050.999)" fill="#7a553c"/>
    <path id="path2190" d="M602.526-306.129l-.672,1.737,8.557-.952-.96-1.612-6.925.827" transform="translate(2990 1050.999)" fill="#694329"/>
    <path id="path2192" d="M608.8-307.5c-.72-1.117-1.024-1.9-.156-3.185s-.741-2.848-.741-2.848,2.593,1.692,1.591,2.961-1.313,1.239-.693,3.072" transform="translate(2990 1050.999)" fill="#f8ebe0"/>
    <path id="path2194" d="M609.471-297.8c.164,2.157-.808,3.993-2.169,4.095s-2.6-1.564-2.763-3.721.809-4,2.171-4.1,2.6,1.563,2.761,3.723" transform="translate(2990 1050.999)" fill="#759ee0"/>
    <path id="path2196" d="M605.008-301.025c-.741.149-5.095,3.423-5.816,3.905a12.19,12.19,0,0,1-3.665.956,34.871,34.871,0,0,1,.668,4.14,26.08,26.08,0,0,1,4.547-1.2c1.328-.065,3.008-1.081,4.18-1.6s3.435.829,4.085.531,3.079-2.347,2.769-3.263-6.028-3.616-6.768-3.471" transform="translate(2990 1050.999)" fill="#f0bb8f"/>
    <path id="path2198" d="M662.208-310.927c2.684-1.1,4.411-2.023,3.652-2.237s-2.063.548-6.292,1.571-4.133,2.061-6.02,2.576c-.828.228-1.945.436-3.228.653l.273-.047c.428.44.775,2.473.935,4.236a4.015,4.015,0,0,1,1.388-.331c1.907.1,3.093.675,5.592.049s4.641-.217,4.711-.844-2.149-.936-3.256-1.088-1.389-.717-1.339-1.431.9-2.009,3.584-3.108" transform="translate(2990 1050.999)" fill="#f0bb8f"/>
    <path id="path2200" d="M575.328-291.762c1.6-2.868,5.261-4.635,5.261-4.635a75,75,0,0,0,2.113-8.676l.247-9.416c-.259,6.461-7.621,22.727-7.621,22.727" transform="translate(2990 1050.999)" fill="#ffc92e"/>
    <path id="path2202" d="M627.929-299.714c-1.077-1-15.86-18.167-15.86-18.167.155,3.124,1.4,10.807,1.4,10.807,3.752,3.655,12.385,11.355,13.308,11.616,1.14.324,7.62-.037,12.928-2.573.973-.465,1.969-.987,2.96-1.52l.031-.011c2.305-1.195,8.837-1.941,8.837-1.941a9.119,9.119,0,0,0-.008-2.672s-11.612,2.755-15.875,4.231-6.641,1.235-7.724.231" transform="translate(2990 1050.999)" fill="#ffc92e"/>
    <path id="path2204" d="M605.937-353.818c1.176-4.493-2.089-10.553-11.731-10.149-3.483.147-6.9,1.336-7.741,4.524-.049.177-.236.28-.347.427a10.242,10.242,0,0,0-2.005,6.719,19.271,19.271,0,0,0,1.94,7.509c.372.809,3.032,2.928,3.991,5.44s15.893-14.469,15.893-14.469" transform="translate(2990 1050.999)" fill="#3b2012"/>
    <path id="path2206" d="M589.111-342.742c.673,1.391.836,2.921,3.441,4.579s6.715,3.761,7.952,3.643,2.22.136,3.768-3.124,2.777-4.815,2.576-7.972.4-9.669-3.815-11.648c-3.113-1.484-7.8-.184-10.063,2.613s-2.228,3.749-2.707,7.867c0,0-2.055-2.356-2.9-2.385s-1.52.564-.864,2.236.708,1.128.859,2,.335,1.731.816,2.005a1.164,1.164,0,0,0,.94.185" transform="translate(2990 1050.999)" fill="#f0bb8f"/>
    <path id="path2208" d="M602.8-357.754a9.713,9.713,0,0,0-4.593,1.017c-2.312,1.252-5.513,3.067-5.9,5.639s-.869,5.2-.869,5.2l-.995-.052-.785-8.708,4.819-5.356,8.324,2.263" transform="translate(2990 1050.999)" fill="#3b2012"/>
    <path id="path2210" d="M590.264-346.784c-.191,3.055-1.349,2.869-1.487,4.352s-.028,2.568,3.059,5.575,7.06,5.025,9.169,4.711a4.6,4.6,0,0,0,3.513-3.28c.235-.989,1.228-5.185,1.228-5.185a5.657,5.657,0,0,1-3.069,2.74c-2.179.761-6.793-.549-8.287-2.109s-2.951-5.919-2.951-5.919l-.919-4.172-1.187,1,.929,2.288" transform="translate(2990 1050.999)" fill="#3b2012"/>
    <path id="path2212" d="M604.964-339.045c.417-.828.789-1.561,1.095-2.265a3.954,3.954,0,0,0-2.656-.439c-1.573.232-1.579.483-3.876,1.655-2.475,1.264-3.657,1.308-5.711.357-1.5-.695-.324,1.4.42,2.58q.688.4,1.4.772l2.808.055.351-1.6c2.276-.353,2.571-1.585,3.689-2.037,1.357-.547,1.759-.036,2.481.924" transform="translate(2990 1050.999)" fill="#3b2012"/>
    <path id="path2214" d="M533.791-144.188c.432,2.247,3.093,7.745,4.208,8.663s2.429,1.263,2.723,4.251-5.649,3.122-8.825,3.024-5.569-1.809-6.175-4.164-1.856-3.069-2.691-4.053-.885-6-.507-7.824,11.267.1,11.267.1" transform="translate(2990 1050.999)" fill="#614f45"/>
    <path id="path2216" d="M485.665-144.188c-.433,2.247-3.093,7.745-4.207,8.663s-2.432,1.263-2.724,4.251,5.648,3.122,8.824,3.024,5.569-1.809,6.176-4.164,1.855-2.272,2.688-3.257.885-5.993.508-7.821-11.265-.695-11.265-.695" transform="translate(2990 1050.999)" fill="#614f45"/>
    <path id="path2218" d="M529.341-229.227c2.2,17.6,2.385,50.861,3.432,66.329a186.843,186.843,0,0,0,2.769,22.105,25.777,25.777,0,0,1-14.932.68s-1.725-18.188-3.015-23.624-.865-20.009-1.725-23.632-6.313-30.372-6.313-30.372v-15.831l19.784,4.344" transform="translate(2990 1050.999)" fill="#303269"/>
    <path id="path2220" d="M489.773-229.227c-2.2,17.6-2.387,50.861-3.433,66.329a145.068,145.068,0,0,1-3.616,23.428,31.922,31.922,0,0,0,15.809.34s1.725-18.189,3.013-23.624.867-20.011,1.725-23.633,6.285-31.353,6.285-31.353v-15.831l-19.784,4.344" transform="translate(2990 1050.999)" fill="#303269"/>
    <path id="path2222" d="M482.724-139.47A145.072,145.072,0,0,0,486.34-162.9c1.047-15.468,1.235-48.733,3.433-66.329l7.591-1.665,1.137,2.936c-2.095,5.657-4.4,34.241-5.029,46.213-.555,10.561-2.9,36.736-3.449,43.412a29.288,29.288,0,0,1-7.3-1.139" transform="translate(2990 1050.999)" fill="#4a4d8f"/>
    <path id="path2224" d="M517.652-231.793l.373.083c.493,3.085,5.847,42.323,6.189,48.32.312,5.449,3.277,35.033,4.828,43.964a27.753,27.753,0,0,1-8.432-.687s-1.725-18.188-3.015-23.624-.865-20.009-1.725-23.632-6.313-30.372-6.313-30.372l.259-10.635,7.836-3.417" transform="translate(2990 1050.999)" fill="#4a4d8f"/>
    <path id="path2226" d="M483.441-298.421a41.21,41.21,0,0,0-7.047-1.688s.736,1.36,3.3,1.889,3.744-.2,3.744-.2" transform="translate(2990 1050.999)" fill="gray"/>
    <path id="path2228" d="M498.432-296.073c.036,1.875-1.608.835-4.195.7a6.415,6.415,0,0,0-4.008,1.148c-2.8,1.573-9.2,11.809-9.2,11.809s2.033-10.973,2.416-16.009c0,0-4.929-.188-7.047-1.687,0,0-6.767,19.312-6.853,25.536-.061,4.335,1.227,8.992,3.165,10.476.512.392,2.223.133,2.765.1,1.883-.117,13.568-8.2,16.064-10.511s9.765-12.5,9.765-12.5l-2.869-9.064" transform="translate(2990 1050.999)" fill="#a3eaff"/>
    <path id="path2230" d="M491.017-313.437c-1.763-5.3,1.048-11.5,8.156-13.552,7.481-2.171,11.768,2.559,13.028,6.732a22.726,22.726,0,0,1,.859,8.1c.057,2.216-1.024,4.664-1.029,7.493s-21.013-8.773-21.013-8.773" transform="translate(2990 1050.999)" fill="#3b2012"/>
    <path id="path2232" d="M510.405-310c1.539,4.969,5.623,10.783,9.549,12.353l3.928,1.571-18.852,12.725L494.82-294.791s6.468-1.659,7.411-4.956S510.405-310,510.405-310" transform="translate(2990 1050.999)" fill="#f0bb8f"/>
    <path id="path2234" d="M502.231-299.747c.943-3.3,8.175-10.249,8.175-10.249a25.211,25.211,0,0,0,3.433,6.8l0,.019s-3.575,8.015-14.308,9.083a25.32,25.32,0,0,1-3.983.117l-.725-.816s6.468-1.656,7.411-4.953" transform="translate(2990 1050.999)" fill="#e8ab79"/>
    <path id="path2236" d="M529.043-280.066s-.292,20.171-1.228,28.605,1.152,13.988,1.527,22.233c0,0-14.956,7.871-40.256.377,0,0-.1-6.86-.1-17.729s-.217-25.484-.12-31.9c.112-7.289,1.241-14.556,2.555-16.056.78-.888,2.813-.829,4.339-.888a19.9,19.9,0,0,0,4.1-1.428l7.505,6.487,12.265-7.793,9.413,18.089" transform="translate(2990 1050.999)" fill="#a3eaff"/>
    <path id="path2238" d="M507.361-278.477s12.632-19.5,12.268-19.679c-.473-.229-3.237-1.723-3.237-1.723l-10.033,6.269-6.5-3.24-2.6,1.051,10.105,17.321" transform="translate(2990 1050.999)" fill="#fff"/>
    <path id="path2240" d="M511.029-309.515c-.136,1.62.64,4.136-1.229,6.751s-5.515,5.823-6.728,6.175-2.411,1.661-5.043-.943-3.992-4.348-4.935-7.519-3.84-9.328-.568-12.869c2.413-2.64,7.317-3.155,10.455-1.275,3.155,1.88,3.452,2.829,5.379,6.683,0,0,1.348-3.44,2.143-3.792s1.637-.025,1.617,1.861-.516,1.723-.343,2.639.3,1.821-.052,2.277c-.451.548-.7.012-.7.012" transform="translate(2990 1050.999)" fill="#f0bb8f"/>
    <path id="path2242" d="M493.528-318.941s9.4-4.84,14.959,7.313l.589-9.3-9.727-4.5-5.821,6.493" transform="translate(2990 1050.999)" fill="#3b2012"/>
    <path id="path2244" d="M492.572-318.487a13.974,13.974,0,0,0,4.971,2.011c2.635.349,6.051-1.857,7.337.515s3.028,6.413,3.028,6.413l.579-2.079-2.376-8.836-6.479-3.412-7.06,5.388" transform="translate(2990 1050.999)" fill="#3b2012"/>
    <path id="path2246" d="M493.6-318.265a21.367,21.367,0,0,1-2.579,4.828l-.364-4.793,1.969-3.193.973,3.159" transform="translate(2990 1050.999)" fill="#3b2012"/>
    <path id="path2248" d="M491.864-309.178c-1.049.9-4.5,3.137-4.5,3.137s4.687-2.837,4.967-2.464c.156.2.26.591-.188,1.1a8.436,8.436,0,0,1-1.192.74c-.519.349-1.091.705-1.6,1.029a17.419,17.419,0,0,0-1.837,1.3c-2.336,2.364-3.6,2.8-4.209,2.765-.369-.023-.869,1.459-.94,2.308-.027.3-.048.544-.065.755a18.941,18.941,0,0,1-4.629-.951c.573-2.14,1.225-4.639,1.42-5.643a5.063,5.063,0,0,1,2.613-3.368s4.621-2.795,5.677-3.336,3.224-1.925,3.753-1.773.555.883.555.883a.655.655,0,0,1,.8.591,1.471,1.471,0,0,1-.305,1.12s.991.689-.308,1.8" transform="translate(2990 1050.999)" fill="#f0bb8f"/>
    <path id="path2250" d="M486.147-307.3c3.279-1.791,3.956-4.252,3.616-5.812a2.838,2.838,0,0,1,1.364-.464c.529.157.555.883.555.883a.655.655,0,0,1,.8.591,1.471,1.471,0,0,1-.305,1.12s.991.689-.308,1.8c-1.049.9-4.5,3.137-4.5,3.137s4.687-2.837,4.967-2.464c.156.2.26.591-.188,1.1a8.436,8.436,0,0,1-1.192.74c-.519.349-1.091.705-1.6,1.029a17.419,17.419,0,0,0-1.837,1.3c-2.336,2.364-3.6,2.8-4.209,2.765-.369-.023-.869,1.459-.94,2.308-.027.3-.048.544-.065.755a24.931,24.931,0,0,1-2.511-.363,12.883,12.883,0,0,1,6.365-8.432" transform="translate(2990 1050.999)" fill="#e8ab79"/>
    <path id="path2252" d="M561.744-265.9c2.963,2.357,8.456,5.649,9.663,7.889.932,1.733.844,2.388,1.484,4.949.629,2.516.795,4.029.387,4.833-.721,1.424-3-1.4-3.809-2.756-.637-1.063-2.188-4.328-2.8-4.6a17.411,17.411,0,0,1-3.636-1.281,4.53,4.53,0,0,1-2.284-4.775l1-4.257" transform="translate(2990 1050.999)" fill="#f0bb8f"/>
    <path id="path2254" d="M519.629-298.155c.235.512,24.021,21.156,27.12,23.175,0,0,16.219,9.8,18.292,10.391-1.595,6.885-2.488,6.536-3.915,8.067,0,0-16.252-7.284-18.943-8.7s-17.1-15.361-17.1-15.361l-5.456-17.575" transform="translate(2990 1050.999)" fill="#a3eaff"/>
    <path id="path2256" d="M519.629-298.155c5.961.976,9.44-1.325,14.537,5.364s10.163,15.649,12.583,17.811-9.064,0-9.064,0L524.877-282.7l-5.248-15.452" transform="translate(2990 1050.999)" fill="#a3eaff"/>
    <path id="path2258" d="M518.8-226.243h0a36.262,36.262,0,0,0,10.54-2.984h0a36.191,36.191,0,0,1-10.54,2.984" transform="translate(2990 1050.999)" fill="#5682b0"/>
    <path id="path2260" d="M510.185-225.614a57.663,57.663,0,0,0,8.616-.629h0a57.663,57.663,0,0,1-8.616.629" transform="translate(2990 1050.999)" fill="#638fc3"/>
    <path id="path2262" d="M489.185-228.821l-.1-.029h0l.1.029" transform="translate(2990 1050.999)" fill="#bde8fa"/>
    <path id="path2264" d="M528.671-265.711c.157-4.3.257-8.421.313-11.139l.073.069c-.052,2.62-.164,6.735-.337,11.059l-.049.011" transform="translate(2990 1050.999)" fill="#60bdf6"/>
    <path id="path2266" d="M527.576-247.162a38.791,38.791,0,0,1,.239-4.3c.388-3.493.664-9,.856-14.251l.049-.011c-.209,5.193-.508,10.689-.905,14.261a38.791,38.791,0,0,0-.239,4.3" transform="translate(2990 1050.999)" fill="#bde8fa"/>
    <path id="path2268" d="M561.127-256.523s-16.252-7.284-18.943-8.7h0c2.691,1.412,18.943,8.7,18.943,8.7.069-.073.137-.144.2-.211-.079.083-.147.153-.2.211m-18.953-8.7h0" transform="translate(2990 1050.999)" fill="#bbe3f3"/>
    <path id="path2270" d="M540.3-266.585h-.052A130.872,130.872,0,0,1,529.1-276.743c3.467,3.287,8.356,7.844,11.205,10.159" transform="translate(2990 1050.999)" fill="#60bdf6"/>
    <path id="path2272" d="M542.165-265.229a15.832,15.832,0,0,1-1.916-1.357h.052a14.291,14.291,0,0,0,1.864,1.356" transform="translate(2990 1050.999)" fill="#bbe3f3"/>
    <path id="path2274" d="M510.181-225.614h-.008a74.155,74.155,0,0,1-20.988-3.207l-.1-.029h0c0-.063-.029-2.124-.056-5.712a87.359,87.359,0,0,0,14.916,1.376c13.885,0,19.937-4.112,19.937-4.112a53.608,53.608,0,0,1-5.833.344c-8.369,0-10.688-2.48-10.688-2.48a19.338,19.338,0,0,0,5.32.62,38.175,38.175,0,0,0,10.933-1.551c2.256-.9,1.533-5.416.268-10.648-.94-3.895.819-20.671,1.78-29.009.668.643,1.863,1.789,3.321,3.173-.056,2.717-.156,6.843-.313,11.139-.192,5.252-.468,10.757-.856,14.251a38.806,38.806,0,0,0-.239,4.3c0,6.216,1.457,11.171,1.765,17.935a36.262,36.262,0,0,1-10.54,2.984,57.661,57.661,0,0,1-8.616.629h0" transform="translate(2990 1050.999)" fill="#8fddfa"/>
    <path id="path2276" d="M561.127-256.523s-16.252-7.284-18.943-8.7h0l-.011-.005h0l-.005,0a14.287,14.287,0,0,1-1.864-1.356h0c-2.849-2.315-7.739-6.872-11.205-10.159l-.039-.041v0l-.073-.069c-1.459-1.384-2.653-2.531-3.321-3.173.088-.763.171-1.455.243-2.061l7.471,4.505c4.308,4.284,9.173,9.017,10.281,9.672a173.489,173.489,0,0,0,19.829,8.337,12.859,12.859,0,0,1-2.156,2.836c-.067.067-.135.137-.2.211" transform="translate(2990 1050.999)" fill="#8fddfa"/>
    <path id="path2278" d="M533.376-277.579l-7.471-4.505c.2-1.672.327-2.68.327-2.68s3.357,3.42,7.144,7.185" transform="translate(2990 1050.999)" fill="#8fddfa"/>
    <path id="path2280" d="M475.907-264.1H475.9a9.266,9.266,0,0,0,1.177-.527,9.018,9.018,0,0,1-1.172.527" transform="translate(2990 1050.999)" fill="#60bdf6"/>
    <path id="path2282" d="M475.485-264a1.833,1.833,0,0,0,.416-.1h.005a1.834,1.834,0,0,1-.421.1" transform="translate(2990 1050.999)" fill="#bbe3f3"/>
    <path id="path2284" d="M488.827-272.342l.016-.012h0l-.016.012" transform="translate(2990 1050.999)" fill="#60bdf6"/>
    <path id="path2286" d="M473.814-263.881a2.034,2.034,0,0,1-1.107-.215c-1.893-1.448-3.165-5.924-3.167-10.171,0-.1,0-.2,0-.305.919,4.9,2.588,6.992,4.94,6.992a6.848,6.848,0,0,0,3.181-.976c4.063-2.207,11.2-9.921,11.2-9.921-.024,1.591-.028,3.684-.021,6.1a.116.116,0,0,0,0,.021l-.016.012a127.623,127.623,0,0,1-11.748,7.72,9.263,9.263,0,0,1-1.177.527h0a1.833,1.833,0,0,1-.416.1h-.013c-.315.02-1.021.115-1.659.115" transform="translate(2990 1050.999)" fill="#8fddfa"/>
    <path id="path2288" d="M488.845-272.375c-.007-2.417,0-4.511.021-6.1h0a60.166,60.166,0,0,1-.021,6.1" transform="translate(2990 1050.999)" fill="#8fddfa"/>
    <path id="path2290" d="M480.368-278.477a13.135,13.135,0,0,0,.657-3.935l1.18-1.831a8.62,8.62,0,0,1-1.837,5.765" transform="translate(2990 1050.999)" fill="#8fddfa"/>
  </g>
</svg>
